<svg width="866" height="539" viewBox="0 0 866 539" fill="none" xmlns="http://www.w3.org/2000/svg">
<rect width="866" height="539" fill="#F2F2F2"/>
<rect width="372" height="319" transform="translate(247 85)" fill="#606C38"/>
<path d="M407.8 112C407.907 110.253 407.96 108.447 407.96 106.58C407.96 105.98 407.807 105.513 407.5 105.18C407.207 104.833 406.813 104.66 406.32 104.66C405.867 104.66 405.473 104.86 405.14 105.26C404.82 105.66 404.66 106.24 404.66 107V106.98C404.66 109.34 404.693 111.013 404.76 112H400.26C400.34 110.04 400.38 108.233 400.38 106.58C400.38 105.993 400.233 105.527 399.94 105.18C399.66 104.833 399.3 104.66 398.86 104.66C398.393 104.66 398 104.86 397.68 105.26C397.373 105.647 397.193 106.18 397.14 106.86C397.113 107.873 397.1 108.593 397.1 109.02C397.1 109.927 397.127 110.92 397.18 112H392.4C392.507 110.08 392.56 108.267 392.56 106.56C392.56 104.853 392.507 103.027 392.4 101.08C393.28 101.12 393.953 101.14 394.42 101.14C394.913 101.14 395.587 101.12 396.44 101.08L397.04 104.04C397.347 102.96 397.833 102.167 398.5 101.66C399.167 101.14 399.933 100.88 400.8 100.88C401.84 100.88 402.687 101.167 403.34 101.74C404.007 102.313 404.42 103.06 404.58 103.98C404.887 103.033 405.4 102.28 406.12 101.72C406.84 101.16 407.66 100.88 408.58 100.88C409.78 100.88 410.72 101.287 411.4 102.1C412.08 102.9 412.42 104 412.42 105.4V108.72C412.42 110.227 412.433 111.32 412.46 112H407.8ZM427.073 108.68C427.073 109.133 427.126 109.453 427.233 109.64C427.34 109.827 427.553 109.96 427.873 110.04L427.793 111.92C427.366 111.987 426.993 112.033 426.673 112.06C426.366 112.087 425.953 112.1 425.433 112.1C424.286 112.1 423.526 111.847 423.153 111.34C422.78 110.82 422.593 110.16 422.593 109.36V108.86C422.206 109.953 421.64 110.767 420.893 111.3C420.16 111.833 419.22 112.1 418.073 112.1C416.74 112.1 415.733 111.833 415.053 111.3C414.386 110.767 414.053 109.973 414.053 108.92C414.053 108.053 414.34 107.373 414.913 106.88C415.486 106.387 416.373 106.047 417.573 105.86C416.56 105.14 415.546 104.513 414.533 103.98C415.333 102.967 416.246 102.2 417.273 101.68C418.3 101.147 419.546 100.88 421.013 100.88C423.066 100.88 424.586 101.327 425.573 102.22C426.573 103.1 427.073 104.46 427.073 106.3V108.68ZM421.433 104.4C420.753 104.4 420.153 104.513 419.633 104.74C419.113 104.967 418.646 105.307 418.233 105.76C419.033 105.667 420.033 105.62 421.233 105.62C421.726 105.62 422.073 105.56 422.273 105.44C422.473 105.32 422.573 105.167 422.573 104.98C422.573 104.82 422.473 104.687 422.273 104.58C422.073 104.46 421.793 104.4 421.433 104.4ZM419.333 108.84C420.08 108.84 420.753 108.7 421.353 108.42C421.953 108.127 422.366 107.747 422.593 107.28V106.76C422.273 106.92 421.92 107.047 421.533 107.14C421.146 107.22 420.68 107.3 420.133 107.38L419.413 107.5C418.666 107.647 418.293 107.9 418.293 108.26C418.293 108.647 418.64 108.84 419.333 108.84ZM433.717 104.04C434.277 102.027 435.671 101.02 437.897 101.02C438.284 101.02 438.657 101.047 439.017 101.1L438.377 105.58C437.417 105.22 436.631 105.04 436.017 105.04C435.257 105.04 434.697 105.267 434.337 105.72C433.977 106.173 433.797 106.78 433.797 107.54V107.52L433.777 108.84C433.777 109.787 433.804 110.84 433.857 112H429.077C429.184 110.08 429.237 108.267 429.237 106.56C429.237 104.853 429.184 103.027 429.077 101.08C429.957 101.12 430.631 101.14 431.097 101.14C431.591 101.14 432.264 101.12 433.117 101.08L433.717 104.04ZM448.459 101.08H452.299C452.232 103.267 452.199 106.373 452.199 110.4C452.199 111.987 451.879 113.287 451.239 114.3C450.612 115.313 449.779 116.047 448.739 116.5C447.699 116.967 446.539 117.2 445.259 117.2C443.992 117.2 442.859 117.013 441.859 116.64C440.859 116.28 440.099 115.793 439.579 115.18L440.479 112.12C441.199 112.533 441.879 112.827 442.519 113C443.159 113.187 443.825 113.28 444.519 113.28C446.785 113.28 447.919 112.32 447.919 110.4C447.919 110.12 447.925 109.92 447.939 109.8C447.939 109.72 447.939 109.613 447.939 109.48C447.952 109.347 447.952 109.173 447.939 108.96C447.259 110.853 445.819 111.8 443.619 111.8C442.725 111.8 441.925 111.56 441.219 111.08C440.525 110.6 439.985 109.953 439.599 109.14C439.212 108.313 439.019 107.407 439.019 106.42C439.019 105.407 439.212 104.48 439.599 103.64C439.985 102.787 440.525 102.113 441.219 101.62C441.912 101.127 442.692 100.88 443.559 100.88C445.812 100.88 447.279 101.673 447.959 103.26L448.459 101.08ZM445.699 108.6C446.005 108.6 446.325 108.533 446.659 108.4C446.992 108.253 447.279 108.027 447.519 107.72C447.759 107.4 447.879 107.007 447.879 106.54C447.879 105.713 447.692 105.127 447.319 104.78C446.945 104.42 446.392 104.24 445.659 104.24C445.019 104.24 444.512 104.453 444.139 104.88C443.765 105.307 443.579 105.86 443.579 106.54C443.579 107.153 443.779 107.653 444.179 108.04C444.592 108.413 445.099 108.6 445.699 108.6ZM456.582 99.9C455.742 99.9 455.115 99.6933 454.702 99.28C454.302 98.8667 454.102 98.3267 454.102 97.66C454.102 97.0067 454.302 96.4667 454.702 96.04C455.115 95.6133 455.742 95.4 456.582 95.4C457.382 95.4 457.995 95.62 458.422 96.06C458.848 96.4867 459.062 97.02 459.062 97.66C459.062 98.3267 458.855 98.8667 458.442 99.28C458.028 99.6933 457.408 99.9 456.582 99.9ZM454.262 112C454.355 109.853 454.402 108.08 454.402 106.68C454.402 105.013 454.348 103.147 454.242 101.08H459.042C458.935 103.067 458.882 104.933 458.882 106.68C458.882 108.147 458.928 109.92 459.022 112H454.262ZM468.655 112C468.735 110.04 468.775 108.233 468.775 106.58C468.775 105.993 468.628 105.527 468.335 105.18C468.055 104.833 467.695 104.66 467.255 104.66C466.815 104.66 466.441 104.86 466.135 105.26C465.828 105.647 465.648 106.18 465.595 106.86C465.568 107.873 465.555 108.593 465.555 109.02C465.555 109.927 465.581 110.92 465.635 112H460.855C460.961 110.08 461.015 108.267 461.015 106.56C461.015 104.853 460.961 103.027 460.855 101.08C461.735 101.12 462.408 101.14 462.875 101.14C463.368 101.14 464.041 101.12 464.895 101.08L465.475 104.02C465.781 102.953 466.261 102.167 466.915 101.66C467.568 101.14 468.328 100.88 469.195 100.88C469.995 100.88 470.688 101.06 471.275 101.42C471.861 101.767 472.301 102.24 472.595 102.84C472.901 103.44 473.055 104.113 473.055 104.86V107.74C473.055 109.513 473.088 110.933 473.155 112H468.655Z" fill="white"/>
<rect width="323" height="247" transform="translate(270 131)" fill="#F69D4C"/>
<path d="M399.98 146.88C400.873 146.88 401.667 147.153 402.36 147.7C403.067 148.233 403.613 148.947 404 149.84C404.387 150.72 404.58 151.66 404.58 152.66C404.58 153.673 404.387 154.607 404 155.46C403.613 156.3 403.073 156.967 402.38 157.46C401.687 157.953 400.907 158.2 400.04 158.2C399.027 158.2 398.147 157.987 397.4 157.56C396.653 157.12 396.093 156.433 395.72 155.5L395.14 158H391.3C391.38 155.493 391.42 152.9 391.42 150.22C391.42 147.513 391.38 144.92 391.3 142.44H395.82L395.76 144.9C395.693 146.633 395.66 148.18 395.66 149.54C396.02 148.633 396.567 147.967 397.3 147.54C398.047 147.1 398.94 146.88 399.98 146.88ZM397.94 154.84C398.58 154.84 399.087 154.627 399.46 154.2C399.833 153.773 400.02 153.22 400.02 152.54C400.02 151.927 399.813 151.433 399.4 151.06C399 150.673 398.5 150.48 397.9 150.48C397.593 150.48 397.273 150.553 396.94 150.7C396.607 150.833 396.32 151.06 396.08 151.38C395.84 151.687 395.72 152.073 395.72 152.54C395.72 153.367 395.907 153.96 396.28 154.32C396.653 154.667 397.207 154.84 397.94 154.84ZM412.623 158.2C410.343 158.2 408.663 157.68 407.583 156.64C406.516 155.587 405.983 154.207 405.983 152.5C405.983 150.833 406.516 149.48 407.583 148.44C408.663 147.4 410.343 146.88 412.623 146.88C414.156 146.88 415.436 147.133 416.463 147.64C417.503 148.133 418.269 148.807 418.763 149.66C419.256 150.5 419.503 151.447 419.503 152.5C419.503 154.22 418.929 155.6 417.783 156.64C416.649 157.68 414.929 158.2 412.623 158.2ZM412.703 154.8C413.569 154.8 414.216 154.593 414.643 154.18C415.069 153.767 415.283 153.213 415.283 152.52C415.283 151.867 415.069 151.333 414.643 150.92C414.216 150.493 413.569 150.28 412.703 150.28C411.836 150.28 411.203 150.487 410.803 150.9C410.403 151.313 410.203 151.853 410.203 152.52C410.203 153.213 410.403 153.767 410.803 154.18C411.203 154.593 411.836 154.8 412.703 154.8ZM425.549 150.04C426.109 148.027 427.503 147.02 429.729 147.02C430.116 147.02 430.489 147.047 430.849 147.1L430.209 151.58C429.249 151.22 428.463 151.04 427.849 151.04C427.089 151.04 426.529 151.267 426.169 151.72C425.809 152.173 425.629 152.78 425.629 153.54V153.52L425.609 154.84C425.609 155.787 425.636 156.84 425.689 158H420.909C421.016 156.08 421.069 154.267 421.069 152.56C421.069 150.853 421.016 149.027 420.909 147.08C421.789 147.12 422.463 147.14 422.929 147.14C423.423 147.14 424.096 147.12 424.949 147.08L425.549 150.04ZM444.927 142.44C444.847 144.92 444.807 147.513 444.807 150.22C444.807 152.9 444.847 155.493 444.927 158H440.407L440.467 155.6C440.08 156.493 439.52 157.153 438.787 157.58C438.054 157.993 437.187 158.2 436.187 158.2C435.32 158.2 434.54 157.953 433.847 157.46C433.154 156.967 432.614 156.3 432.227 155.46C431.84 154.607 431.647 153.673 431.647 152.66C431.647 151.66 431.84 150.72 432.227 149.84C432.614 148.947 433.154 148.233 433.847 147.7C434.554 147.153 435.354 146.88 436.247 146.88C437.287 146.88 438.174 147.1 438.907 147.54C439.654 147.967 440.207 148.633 440.567 149.54C440.567 148.78 440.54 147.56 440.487 145.88C440.434 144.253 440.407 143.107 440.407 142.44H444.927ZM438.287 154.84C438.94 154.84 439.474 154.66 439.887 154.3C440.3 153.927 440.507 153.34 440.507 152.54C440.507 151.833 440.3 151.313 439.887 150.98C439.474 150.647 438.954 150.48 438.327 150.48C437.727 150.48 437.22 150.673 436.807 151.06C436.407 151.433 436.207 151.927 436.207 152.54C436.207 153.22 436.394 153.773 436.767 154.2C437.14 154.627 437.647 154.84 438.287 154.84ZM457.114 153H450.594C450.701 153.587 450.961 154.067 451.374 154.44C451.801 154.8 452.401 154.98 453.174 154.98C453.734 154.98 454.261 154.873 454.754 154.66C455.248 154.433 455.641 154.12 455.934 153.72C456.828 154.16 458.014 154.633 459.494 155.14C459.081 156.073 458.328 156.82 457.234 157.38C456.154 157.927 454.741 158.2 452.994 158.2C450.728 158.2 449.048 157.68 447.954 156.64C446.874 155.587 446.334 154.207 446.334 152.5C446.334 150.833 446.874 149.48 447.954 148.44C449.034 147.4 450.714 146.88 452.994 146.88C454.354 146.88 455.534 147.107 456.534 147.56C457.534 148.013 458.301 148.647 458.834 149.46C459.368 150.26 459.634 151.18 459.634 152.22C459.634 152.567 459.621 152.827 459.594 153H457.114ZM453.274 149.9C452.608 149.9 452.061 150.027 451.634 150.28C451.208 150.533 450.908 150.88 450.734 151.32H455.454C455.294 150.893 455.034 150.553 454.674 150.3C454.314 150.033 453.848 149.9 453.274 149.9ZM465.667 150.04C466.227 148.027 467.62 147.02 469.847 147.02C470.233 147.02 470.607 147.047 470.967 147.1L470.327 151.58C469.367 151.22 468.58 151.04 467.967 151.04C467.207 151.04 466.647 151.267 466.287 151.72C465.927 152.173 465.747 152.78 465.747 153.54V153.52L465.727 154.84C465.727 155.787 465.753 156.84 465.807 158H461.027C461.133 156.08 461.187 154.267 461.187 152.56C461.187 150.853 461.133 149.027 461.027 147.08C461.907 147.12 462.58 147.14 463.047 147.14C463.54 147.14 464.213 147.12 465.067 147.08L465.667 150.04Z" fill="black"/>
<rect width="275" height="181" transform="translate(292 175)" fill="#FFF4CC"/>
<path d="M391.54 190.88C392.407 190.88 393.187 191.127 393.88 191.62C394.573 192.113 395.113 192.787 395.5 193.64C395.887 194.48 396.08 195.407 396.08 196.42C396.08 197.42 395.887 198.367 395.5 199.26C395.113 200.14 394.567 200.853 393.86 201.4C393.167 201.933 392.373 202.2 391.48 202.2C390.44 202.2 389.547 201.987 388.8 201.56C388.067 201.12 387.52 200.447 387.16 199.54C387.16 200.3 387.187 201.52 387.24 203.2C387.293 204.827 387.32 205.973 387.32 206.64H382.8C382.88 204.16 382.92 201.567 382.92 198.86C382.92 196.153 382.88 193.56 382.8 191.08H386.64L387.22 193.58C387.593 192.647 388.153 191.967 388.9 191.54C389.647 191.1 390.527 190.88 391.54 190.88ZM389.4 198.6C390 198.6 390.5 198.413 390.9 198.04C391.313 197.653 391.52 197.153 391.52 196.54C391.52 195.86 391.333 195.307 390.96 194.88C390.587 194.453 390.08 194.24 389.44 194.24C388.707 194.24 388.153 194.42 387.78 194.78C387.407 195.127 387.22 195.713 387.22 196.54C387.22 197.007 387.34 197.4 387.58 197.72C387.82 198.027 388.107 198.253 388.44 198.4C388.773 198.533 389.093 198.6 389.4 198.6ZM410.308 198.68C410.308 199.133 410.361 199.453 410.468 199.64C410.574 199.827 410.788 199.96 411.108 200.04L411.028 201.92C410.601 201.987 410.228 202.033 409.908 202.06C409.601 202.087 409.188 202.1 408.668 202.1C407.521 202.1 406.761 201.847 406.388 201.34C406.014 200.82 405.828 200.16 405.828 199.36V198.86C405.441 199.953 404.874 200.767 404.128 201.3C403.394 201.833 402.454 202.1 401.308 202.1C399.974 202.1 398.968 201.833 398.288 201.3C397.621 200.767 397.288 199.973 397.288 198.92C397.288 198.053 397.574 197.373 398.148 196.88C398.721 196.387 399.608 196.047 400.808 195.86C399.794 195.14 398.781 194.513 397.768 193.98C398.568 192.967 399.481 192.2 400.508 191.68C401.534 191.147 402.781 190.88 404.248 190.88C406.301 190.88 407.821 191.327 408.808 192.22C409.808 193.1 410.308 194.46 410.308 196.3V198.68ZM404.668 194.4C403.988 194.4 403.388 194.513 402.868 194.74C402.348 194.967 401.881 195.307 401.468 195.76C402.268 195.667 403.268 195.62 404.468 195.62C404.961 195.62 405.308 195.56 405.508 195.44C405.708 195.32 405.808 195.167 405.808 194.98C405.808 194.82 405.708 194.687 405.508 194.58C405.308 194.46 405.028 194.4 404.668 194.4ZM402.567 198.84C403.314 198.84 403.988 198.7 404.588 198.42C405.188 198.127 405.601 197.747 405.828 197.28V196.76C405.508 196.92 405.154 197.047 404.768 197.14C404.381 197.22 403.914 197.3 403.368 197.38L402.648 197.5C401.901 197.647 401.528 197.9 401.528 198.26C401.528 198.647 401.874 198.84 402.567 198.84ZM425.392 186.44C425.312 188.92 425.272 191.513 425.272 194.22C425.272 196.9 425.312 199.493 425.392 202H420.872L420.932 199.6C420.545 200.493 419.985 201.153 419.252 201.58C418.518 201.993 417.652 202.2 416.652 202.2C415.785 202.2 415.005 201.953 414.312 201.46C413.618 200.967 413.078 200.3 412.692 199.46C412.305 198.607 412.112 197.673 412.112 196.66C412.112 195.66 412.305 194.72 412.692 193.84C413.078 192.947 413.618 192.233 414.312 191.7C415.018 191.153 415.818 190.88 416.712 190.88C417.752 190.88 418.638 191.1 419.372 191.54C420.118 191.967 420.672 192.633 421.032 193.54C421.032 192.78 421.005 191.56 420.952 189.88C420.898 188.253 420.872 187.107 420.872 186.44H425.392ZM418.752 198.84C419.405 198.84 419.938 198.66 420.352 198.3C420.765 197.927 420.972 197.34 420.972 196.54C420.972 195.833 420.765 195.313 420.352 194.98C419.938 194.647 419.418 194.48 418.792 194.48C418.192 194.48 417.685 194.673 417.272 195.06C416.872 195.433 416.672 195.927 416.672 196.54C416.672 197.22 416.858 197.773 417.232 198.2C417.605 198.627 418.112 198.84 418.752 198.84ZM440.079 186.44C439.999 188.92 439.959 191.513 439.959 194.22C439.959 196.9 439.999 199.493 440.079 202H435.559L435.619 199.6C435.233 200.493 434.673 201.153 433.939 201.58C433.206 201.993 432.339 202.2 431.339 202.2C430.473 202.2 429.693 201.953 428.999 201.46C428.306 200.967 427.766 200.3 427.379 199.46C426.993 198.607 426.799 197.673 426.799 196.66C426.799 195.66 426.993 194.72 427.379 193.84C427.766 192.947 428.306 192.233 428.999 191.7C429.706 191.153 430.506 190.88 431.399 190.88C432.439 190.88 433.326 191.1 434.059 191.54C434.806 191.967 435.359 192.633 435.719 193.54C435.719 192.78 435.693 191.56 435.639 189.88C435.586 188.253 435.559 187.107 435.559 186.44H440.079ZM433.439 198.84C434.093 198.84 434.626 198.66 435.039 198.3C435.453 197.927 435.659 197.34 435.659 196.54C435.659 195.833 435.453 195.313 435.039 194.98C434.626 194.647 434.106 194.48 433.479 194.48C432.879 194.48 432.373 194.673 431.959 195.06C431.559 195.433 431.359 195.927 431.359 196.54C431.359 197.22 431.546 197.773 431.919 198.2C432.293 198.627 432.799 198.84 433.439 198.84ZM444.367 189.9C443.527 189.9 442.9 189.693 442.487 189.28C442.087 188.867 441.887 188.327 441.887 187.66C441.887 187.007 442.087 186.467 442.487 186.04C442.9 185.613 443.527 185.4 444.367 185.4C445.167 185.4 445.78 185.62 446.207 186.06C446.633 186.487 446.847 187.02 446.847 187.66C446.847 188.327 446.64 188.867 446.227 189.28C445.813 189.693 445.193 189.9 444.367 189.9ZM442.047 202C442.14 199.853 442.187 198.08 442.187 196.68C442.187 195.013 442.133 193.147 442.027 191.08H446.827C446.72 193.067 446.667 194.933 446.667 196.68C446.667 198.147 446.713 199.92 446.807 202H442.047ZM456.44 202C456.52 200.04 456.56 198.233 456.56 196.58C456.56 195.993 456.413 195.527 456.12 195.18C455.84 194.833 455.48 194.66 455.04 194.66C454.6 194.66 454.227 194.86 453.92 195.26C453.613 195.647 453.433 196.18 453.38 196.86C453.353 197.873 453.34 198.593 453.34 199.02C453.34 199.927 453.367 200.92 453.42 202H448.64C448.747 200.08 448.8 198.267 448.8 196.56C448.8 194.853 448.747 193.027 448.64 191.08C449.52 191.12 450.193 191.14 450.66 191.14C451.153 191.14 451.827 191.12 452.68 191.08L453.26 194.02C453.567 192.953 454.047 192.167 454.7 191.66C455.353 191.14 456.113 190.88 456.98 190.88C457.78 190.88 458.473 191.06 459.06 191.42C459.647 191.767 460.087 192.24 460.38 192.84C460.687 193.44 460.84 194.113 460.84 194.86V197.74C460.84 199.513 460.873 200.933 460.94 202H456.44ZM471.986 191.08H475.826C475.759 193.267 475.726 196.373 475.726 200.4C475.726 201.987 475.406 203.287 474.766 204.3C474.139 205.313 473.306 206.047 472.266 206.5C471.226 206.967 470.066 207.2 468.786 207.2C467.519 207.2 466.386 207.013 465.386 206.64C464.386 206.28 463.626 205.793 463.106 205.18L464.006 202.12C464.726 202.533 465.406 202.827 466.046 203C466.686 203.187 467.353 203.28 468.046 203.28C470.313 203.28 471.446 202.32 471.446 200.4C471.446 200.12 471.453 199.92 471.466 199.8C471.466 199.72 471.466 199.613 471.466 199.48C471.479 199.347 471.479 199.173 471.466 198.96C470.786 200.853 469.346 201.8 467.146 201.8C466.253 201.8 465.453 201.56 464.746 201.08C464.053 200.6 463.513 199.953 463.126 199.14C462.739 198.313 462.546 197.407 462.546 196.42C462.546 195.407 462.739 194.48 463.126 193.64C463.513 192.787 464.053 192.113 464.746 191.62C465.439 191.127 466.219 190.88 467.086 190.88C469.339 190.88 470.806 191.673 471.486 193.26L471.986 191.08ZM469.226 198.6C469.533 198.6 469.853 198.533 470.186 198.4C470.519 198.253 470.806 198.027 471.046 197.72C471.286 197.4 471.406 197.007 471.406 196.54C471.406 195.713 471.219 195.127 470.846 194.78C470.473 194.42 469.919 194.24 469.186 194.24C468.546 194.24 468.039 194.453 467.666 194.88C467.293 195.307 467.106 195.86 467.106 196.54C467.106 197.153 467.306 197.653 467.706 198.04C468.119 198.413 468.626 198.6 469.226 198.6Z" fill="black"/>
<rect width="225" height="107" transform="translate(318 222)" fill="white"/>
<path d="M389.36 278.54C389.387 279.22 389.6 279.767 390 280.18C390.413 280.593 391.02 280.8 391.82 280.8C392.26 280.8 392.653 280.72 393 280.56C393.347 280.387 393.667 280.133 393.96 279.8C395.093 280.24 396.42 280.62 397.94 280.94C397.5 281.967 396.753 282.767 395.7 283.34C394.66 283.913 393.307 284.2 391.64 284.2C389.413 284.2 387.767 283.68 386.7 282.64C385.633 281.6 385.1 280.233 385.1 278.54C385.1 276.847 385.633 275.48 386.7 274.44C387.767 273.4 389.413 272.88 391.64 272.88C393.307 272.88 394.66 273.167 395.7 273.74C396.753 274.313 397.5 275.113 397.94 276.14C396.753 276.393 395.427 276.773 393.96 277.28C393.667 276.947 393.347 276.7 393 276.54C392.653 276.367 392.26 276.28 391.82 276.28C391.02 276.28 390.413 276.487 390 276.9C389.6 277.313 389.387 277.86 389.36 278.54ZM405.881 284.2C403.601 284.2 401.921 283.68 400.841 282.64C399.774 281.587 399.241 280.207 399.241 278.5C399.241 276.833 399.774 275.48 400.841 274.44C401.921 273.4 403.601 272.88 405.881 272.88C407.414 272.88 408.694 273.133 409.721 273.64C410.761 274.133 411.527 274.807 412.021 275.66C412.514 276.5 412.761 277.447 412.761 278.5C412.761 280.22 412.187 281.6 411.041 282.64C409.907 283.68 408.187 284.2 405.881 284.2ZM405.961 280.8C406.827 280.8 407.474 280.593 407.901 280.18C408.327 279.767 408.541 279.213 408.541 278.52C408.541 277.867 408.327 277.333 407.901 276.92C407.474 276.493 406.827 276.28 405.961 276.28C405.094 276.28 404.461 276.487 404.061 276.9C403.661 277.313 403.461 277.853 403.461 278.52C403.461 279.213 403.661 279.767 404.061 280.18C404.461 280.593 405.094 280.8 405.961 280.8ZM421.967 284C422.047 282.04 422.087 280.233 422.087 278.58C422.087 277.993 421.941 277.527 421.647 277.18C421.367 276.833 421.007 276.66 420.567 276.66C420.127 276.66 419.754 276.86 419.447 277.26C419.141 277.647 418.961 278.18 418.907 278.86C418.881 279.873 418.867 280.593 418.867 281.02C418.867 281.927 418.894 282.92 418.947 284H414.167C414.274 282.08 414.327 280.267 414.327 278.56C414.327 276.853 414.274 275.027 414.167 273.08C415.047 273.12 415.721 273.14 416.187 273.14C416.681 273.14 417.354 273.12 418.207 273.08L418.787 276.02C419.094 274.953 419.574 274.167 420.227 273.66C420.881 273.14 421.641 272.88 422.507 272.88C423.307 272.88 424.001 273.06 424.587 273.42C425.174 273.767 425.614 274.24 425.907 274.84C426.214 275.44 426.367 276.113 426.367 276.86V279.74C426.367 281.513 426.401 282.933 426.467 284H421.967ZM437.133 276.66C435.907 276.58 434.787 276.52 433.773 276.48L433.753 278.6C433.753 279.32 433.907 279.887 434.213 280.3C434.533 280.7 435.093 280.9 435.893 280.9C436.2 280.9 436.493 280.873 436.773 280.82C436.72 281.313 436.693 281.813 436.693 282.32C436.693 282.56 436.707 283.107 436.733 283.96C436.147 284.067 435.653 284.133 435.253 284.16C434.853 284.187 434.333 284.2 433.693 284.2C432.133 284.2 431.027 283.827 430.373 283.08C429.733 282.32 429.413 281.267 429.413 279.92L429.433 276.54C428.807 276.567 428.153 276.607 427.473 276.66V273.12C428.167 273.12 428.753 272.9 429.233 272.46C429.713 272.02 430 271.493 430.093 270.88H435.533C434.853 271.813 434.1 272.56 433.273 273.12H437.133V276.66ZM448.907 279H442.387C442.494 279.587 442.754 280.067 443.167 280.44C443.594 280.8 444.194 280.98 444.967 280.98C445.527 280.98 446.054 280.873 446.547 280.66C447.041 280.433 447.434 280.12 447.727 279.72C448.621 280.16 449.807 280.633 451.287 281.14C450.874 282.073 450.121 282.82 449.027 283.38C447.947 283.927 446.534 284.2 444.787 284.2C442.521 284.2 440.841 283.68 439.747 282.64C438.667 281.587 438.127 280.207 438.127 278.5C438.127 276.833 438.667 275.48 439.747 274.44C440.827 273.4 442.507 272.88 444.787 272.88C446.147 272.88 447.327 273.107 448.327 273.56C449.327 274.013 450.094 274.647 450.627 275.46C451.161 276.26 451.427 277.18 451.427 278.22C451.427 278.567 451.414 278.827 451.387 279H448.907ZM445.067 275.9C444.401 275.9 443.854 276.027 443.427 276.28C443.001 276.533 442.701 276.88 442.527 277.32H447.247C447.087 276.893 446.827 276.553 446.467 276.3C446.107 276.033 445.641 275.9 445.067 275.9ZM460.62 284C460.7 282.04 460.74 280.233 460.74 278.58C460.74 277.993 460.593 277.527 460.3 277.18C460.02 276.833 459.66 276.66 459.22 276.66C458.78 276.66 458.406 276.86 458.1 277.26C457.793 277.647 457.613 278.18 457.56 278.86C457.533 279.873 457.52 280.593 457.52 281.02C457.52 281.927 457.546 282.92 457.6 284H452.82C452.926 282.08 452.98 280.267 452.98 278.56C452.98 276.853 452.926 275.027 452.82 273.08C453.7 273.12 454.373 273.14 454.84 273.14C455.333 273.14 456.006 273.12 456.86 273.08L457.44 276.02C457.746 274.953 458.226 274.167 458.88 273.66C459.533 273.14 460.293 272.88 461.16 272.88C461.96 272.88 462.653 273.06 463.24 273.42C463.826 273.767 464.266 274.24 464.56 274.84C464.866 275.44 465.02 276.113 465.02 276.86V279.74C465.02 281.513 465.053 282.933 465.12 284H460.62ZM475.786 276.66C474.559 276.58 473.439 276.52 472.426 276.48L472.406 278.6C472.406 279.32 472.559 279.887 472.866 280.3C473.186 280.7 473.746 280.9 474.546 280.9C474.852 280.9 475.146 280.873 475.426 280.82C475.372 281.313 475.346 281.813 475.346 282.32C475.346 282.56 475.359 283.107 475.386 283.96C474.799 284.067 474.306 284.133 473.906 284.16C473.506 284.187 472.986 284.2 472.346 284.2C470.786 284.2 469.679 283.827 469.026 283.08C468.386 282.32 468.066 281.267 468.066 279.92L468.086 276.54C467.459 276.567 466.806 276.607 466.126 276.66V273.12C466.819 273.12 467.406 272.9 467.886 272.46C468.366 272.02 468.652 271.493 468.746 270.88H474.186C473.506 271.813 472.752 272.56 471.926 273.12H475.786V276.66Z" fill="black"/>
</svg>
