<svg width="866" height="539" viewBox="0 0 866 539" fill="none" xmlns="http://www.w3.org/2000/svg">
<rect width="866" height="539" fill="#F2F2F2"/>
<path d="M539.972 170.608H551.9V173.436H539.972V170.608ZM538.488 176.964H553.188V179.904H538.488V176.964ZM539.664 155.488H550.024V158.4H539.664V155.488ZM544.256 167.5H547.588V178.812H544.256V167.5ZM549.128 155.488H549.744L550.332 155.376L552.432 156.188C550.556 163.16 545.992 166.996 539.944 168.956C539.58 168.144 538.796 166.912 538.18 166.24C543.5 164.84 547.728 161.312 549.128 156.02V155.488ZM543.444 158.232C545.124 162.096 548.596 164.952 553.552 166.1C552.88 166.744 551.956 167.976 551.536 168.844C546.216 167.276 542.716 163.888 540.672 158.96L543.444 158.232ZM527.148 156.86H538.936V159.772H527.148V156.86ZM526.812 173.156H539.132V176.096H526.812V173.156ZM531.488 154.2H534.484V162.46H531.488V154.2ZM531.852 162.46H534.12V170.244H534.484V180.52H531.488V170.244H531.852V162.46ZM529.836 167.472V169.18H536.22V167.472H529.836ZM529.836 163.636V165.288H536.22V163.636H529.836ZM527.456 161.312H538.712V171.476H527.456V161.312Z" fill="#737373"/>
<rect x="510" y="206" width="60" height="60" fill="white"/>
<path d="M623.26 177.076H648.768V179.708H623.26V177.076ZM623.428 159.212H648.572V161.844H623.428V159.212ZM625.332 173.072H646.948V175.62H625.332V173.072ZM634.18 156.832H637.54V178.42H634.18V156.832ZM644.456 154.256L645.996 156.832C640.536 157.728 632.752 158.148 626.2 158.204C626.172 157.448 625.808 156.3 625.528 155.628C632.08 155.488 639.696 155.012 644.456 154.256ZM629.532 168.368V169.628H642.468V168.368H629.532ZM629.532 165.092V166.352H642.468V165.092H629.532ZM626.256 162.88H645.912V171.84H626.256V162.88Z" fill="#737373"/>
<rect x="606" y="206" width="60" height="60" fill="#292D28"/>
<path d="M201.4 159.352H204.564V169.18H201.4V159.352ZM209.296 159.352H212.516V169.18H209.296V159.352ZM197.452 160.724H216.576V163.076H197.452V160.724ZM197.816 164.364H216.184V166.604H197.816V164.364ZM194.652 167.864H219.46V170.496H194.652V167.864ZM201.68 168.956L204.508 170.104C202.52 173.044 199.216 175.648 195.828 177.02C195.352 176.236 194.344 175.032 193.616 174.388C196.808 173.352 200.056 171.224 201.68 168.956ZM212.068 168.76C213.776 170.916 217.08 173.016 220.216 174.108C219.46 174.724 218.48 175.956 217.948 176.768C214.728 175.368 211.368 172.68 209.352 169.88L212.068 168.76ZM203.304 173.268L204.676 171.196C206.804 171.56 209.66 172.4 211.2 173.156L209.716 175.424C208.288 174.696 205.46 173.744 203.304 173.268ZM199.888 177.524L201.344 175.032C205.656 175.48 210.948 176.684 214.168 177.804L212.74 180.492C209.66 179.288 204.256 178.028 199.888 177.524ZM205.18 154.228H208.652V158.064H205.18V154.228ZM194.876 156.076H219.096V161.76H215.652V158.848H198.152V161.76H194.876V156.076Z" fill="#737373"/>
<rect x="177" y="206" width="60" height="60" fill="#F69D4C"/>
<path d="M299.696 161.9H315.18V164.532H299.696V161.9ZM298.884 165.82H315.796V168.536H298.884V165.82ZM302.524 169.656H311.988V172.092H302.524V169.656ZM300.396 158.876L302.944 158.176C303.392 159.184 303.952 160.584 304.204 161.424L301.516 162.264C301.292 161.396 300.816 159.94 300.396 158.876ZM305.268 158.372L307.872 157.924C308.18 159.016 308.516 160.472 308.628 161.34L305.856 161.928C305.772 161.032 305.52 159.52 305.268 158.372ZM313.332 154.368L315.208 156.832C310.952 157.7 304.904 158.12 299.892 158.176C299.808 157.448 299.472 156.356 299.164 155.684C304.092 155.544 309.832 155.096 313.332 154.368ZM305.296 171.532C307.2 174.808 311.204 176.992 316.44 177.804C315.768 178.476 314.9 179.736 314.48 180.576C308.908 179.4 304.96 176.628 302.608 172.316L305.296 171.532ZM311.736 157.392L314.816 158.288C313.78 159.996 312.632 161.816 311.708 163.02L309.356 162.18C310.196 160.864 311.204 158.848 311.736 157.392ZM311.316 169.656H311.932L312.464 169.572L314.284 170.3C312.632 176.32 308.544 179.232 303.224 180.576C302.888 179.876 301.992 178.644 301.404 178.084C306.416 177.076 310.028 174.78 311.316 170.104V169.656ZM302.832 163.552H306.052C305.604 169.516 304.708 176.488 298.632 180.464C298.184 179.68 297.26 178.616 296.476 178.056C301.992 174.668 302.468 168.452 302.832 163.552ZM292.444 156.412H298.744V175.312H292.444V172.372H295.776V159.352H292.444V156.412ZM292.556 164.308H297.26V167.22H292.556V164.308ZM290.792 156.412H293.704V177.468H290.792V156.412Z" fill="#737373"/>
<rect x="273" y="206" width="60" height="60" fill="#2676BF"/>
<path d="M357.42 328.148V338.452H354.2V331.256H351.064V328.148H357.42ZM357.42 337.136C358.484 338.984 360.472 339.796 363.356 339.908C366.716 340.076 373.352 339.992 377.244 339.684C376.88 340.44 376.348 341.98 376.208 342.96C372.708 343.128 366.744 343.184 363.328 343.016C359.968 342.876 357.7 342.064 356.02 339.908C354.9 341 353.724 342.064 352.324 343.268L350.728 339.936C351.904 339.18 353.276 338.172 354.508 337.136H357.42ZM351.148 319.832L353.724 317.956C355.32 319.188 357.28 321.064 358.148 322.38L355.376 324.508C354.62 323.136 352.744 321.204 351.148 319.832ZM368.872 317.564L372.568 318.236C371.644 320.168 370.608 322.184 369.796 323.5L367.024 322.772C367.724 321.288 368.508 319.16 368.872 317.564ZM363.608 321.232H376.012V324.06H363.608V336.52H360.36V323.808L362.908 321.232H363.608ZM362.208 325.852H375.284V328.568H362.208V325.852ZM362.208 330.388H375.172V333.104H362.208V330.388ZM360.36 335.008H376.516V337.836H360.36V335.008ZM367.248 322.464H370.44V336.268H367.248V322.464ZM362.6 317.312L365.932 318.292C364.308 322.268 361.62 326.132 358.848 328.54C358.316 327.84 357.084 326.496 356.356 325.88C358.96 323.892 361.284 320.672 362.6 317.312ZM382.452 338.592H401.604V341.896H382.452V338.592ZM390.068 317.508H393.568V340.608H390.068V317.508ZM380.8 331.592H384.216V343.52H380.8V331.592ZM399.812 331.592H403.312V343.492H399.812V331.592ZM381.92 319.86H385.28V326.832H398.636V319.86H402.192V330.08H381.92V319.86Z" fill="#737373"/>
<rect x="348" y="369" width="60" height="60" fill="#D81D1D"/>
<path d="M461.316 329.848L464.34 330.8C462.492 334.132 459.412 337.1 456.332 338.948C455.884 338.304 454.82 337.016 454.148 336.428C457.06 334.972 459.832 332.564 461.316 329.848ZM461.68 318.116L464.592 319.628C463.108 321.392 461.4 323.268 460.056 324.5L457.76 323.184C459.076 321.84 460.756 319.712 461.68 318.116ZM466.916 320.188L469.912 321.84C466.916 325.004 462.968 328.588 459.832 330.856L457.62 329.4C460.728 327.02 464.592 323.212 466.916 320.188ZM455.1 323.352L457.116 321.168C459.16 322.456 461.792 324.36 462.996 325.816L460.868 328.224C459.72 326.796 457.2 324.724 455.1 323.352ZM466.608 326.46L469.212 325.06C470.864 326.88 472.74 329.428 473.496 331.192L470.668 332.788C469.996 331.08 468.26 328.392 466.608 326.46ZM454.54 328.448C458.6 328.42 464.9 328.336 470.808 328.224L470.696 330.912C465.012 331.108 458.992 331.304 454.792 331.416L454.54 328.448ZM460.364 334.468C462.632 338.248 467.364 340.796 473.496 341.748C472.796 342.448 471.928 343.736 471.508 344.604C465.068 343.316 460.448 340.236 457.648 335.336L460.364 334.468ZM461.064 332.788H468.596V335.308H458.824L461.064 332.788ZM467.504 332.788H468.148L468.68 332.676L470.78 333.6C468.288 339.9 462.548 343.12 455.744 344.66C455.464 343.82 454.736 342.504 454.148 341.832C460.308 340.768 465.656 337.912 467.504 333.264V332.788ZM452.692 324.248L455.66 325.34C453.84 328.756 450.928 332.34 448.184 334.608C447.876 333.88 446.98 332.2 446.42 331.472C448.8 329.736 451.236 327.02 452.692 324.248ZM452.188 318.228L455.156 319.404C453.42 321.84 450.788 324.556 448.436 326.292C448.016 325.62 447.204 324.444 446.672 323.828C448.688 322.428 451.04 320.076 452.188 318.228ZM450.396 330.296L453.252 327.44L453.532 327.58V344.576H450.396V330.296ZM486.88 319.18H498.472V330.268H486.656V327.44H495.196V322.008H486.88V319.18ZM484.892 319.18H488.14V337.296H484.892V319.18ZM486.768 323.464H496.232V325.9H486.768V323.464ZM483.128 336.568C485.508 336.176 489.092 335.448 492.536 334.72L492.788 337.604C489.624 338.388 486.292 339.144 483.66 339.76L483.128 336.568ZM493.04 329.12C494.216 332.984 496.736 335.868 500.936 337.044C500.208 337.716 499.256 339.032 498.808 339.928C494.16 338.248 491.64 334.692 490.212 329.652L493.04 329.12ZM498.052 329.708L500.628 331.78C498.864 332.928 496.932 334.132 495.448 334.86L493.488 333.124C494.944 332.284 496.904 330.8 498.052 329.708ZM481.756 329.148V339.452H478.48V332.256H475.204V329.148H481.756ZM481.756 337.996C482.876 339.844 485.004 340.656 487.916 340.768C491.192 340.908 497.548 340.824 501.328 340.516C500.964 341.3 500.404 342.924 500.264 343.932C496.876 344.1 491.22 344.156 487.86 344.016C484.416 343.876 482.092 343.064 480.272 340.88C479.04 341.972 477.78 343.036 476.268 344.268L474.616 340.768C475.876 339.984 477.388 339.004 478.676 337.996H481.756ZM475.344 320.944L477.836 318.928C479.516 320.104 481.588 321.868 482.54 323.184L479.88 325.396C479.04 324.08 477.024 322.204 475.344 320.944Z" fill="#737373"/>
<rect x="444" y="370" width="60" height="60" fill="#262CBF"/>
</svg>
