<svg width="866" height="539" viewBox="0 0 866 539" fill="none" xmlns="http://www.w3.org/2000/svg">
<rect width="866" height="539" fill="#F2F2F2"/>
<rect x="118" y="104.5" width="100" height="100" fill="#F60D0D"/>
<path d="M286.16 117.928L289.156 116.64C290.752 118.796 292.656 121.736 293.44 123.724L290.192 125.236C289.52 123.304 287.756 120.224 286.16 117.928ZM278.18 103.284H281.652V113.42H278.18V103.284ZM267.428 112.216H292.684V115.436H267.428V112.216ZM270.228 106.14H290.304V109.332H270.228V106.14ZM281.624 114.148H285.152V125.768C285.152 127.448 284.872 128.344 283.752 128.904C282.632 129.436 281.148 129.492 279.132 129.492C278.992 128.512 278.488 127.056 278.012 126.132C279.244 126.188 280.672 126.16 281.064 126.132C281.484 126.132 281.624 126.048 281.624 125.684V114.148ZM270.564 116.864L273.952 117.732C272.86 120.364 271.152 123.304 269.248 125.124C268.548 124.508 267.316 123.668 266.532 123.248C268.324 121.652 269.864 118.992 270.564 116.864ZM275.576 113.504H278.964V116.724C278.964 120.7 278.32 126.02 272.86 129.688C272.356 128.932 271.152 127.756 270.312 127.196C275.072 124.116 275.576 119.832 275.576 116.64V113.504Z" fill="black"/>
<path d="M278.816 152.84L280.448 153.176C279.56 157.112 277.976 160.76 275.96 163.136C275.672 162.872 274.952 162.344 274.568 162.104C276.584 159.944 278 156.488 278.816 152.84ZM287.096 156.872H288.8C288.8 156.872 288.8 157.544 288.776 157.808C288.224 168.752 287.72 172.52 286.736 173.696C286.256 174.344 285.8 174.56 285.056 174.632C284.432 174.728 283.376 174.704 282.32 174.632C282.272 174.104 282.104 173.336 281.816 172.856C282.896 172.952 283.88 172.976 284.336 172.976C284.72 172.976 284.96 172.88 285.248 172.568C286.04 171.656 286.592 167.84 287.096 157.304V156.872ZM278.648 156.872H287.816V158.576H277.88L278.648 156.872ZM281.072 157.4L282.44 158.096C281.408 162.344 279.128 167.144 276.392 169.52C276.032 169.16 275.456 168.728 274.976 168.464C277.784 166.256 280.088 161.6 281.072 157.4ZM284.504 157.544L285.944 158.216C284.744 164.672 282.056 171.296 278.024 174.536C277.664 174.152 277.016 173.696 276.488 173.432C280.688 170.432 283.352 163.928 284.504 157.544ZM266.84 166.16C269.096 165.584 272.528 164.576 275.792 163.592L276.032 165.176C272.984 166.136 269.744 167.144 267.32 167.912L266.84 166.16ZM271.328 152.864H273.008V174.92H271.328V152.864ZM268.352 154.232L269.912 154.496C269.552 157.688 268.952 160.928 268.04 163.064C267.752 162.848 267.056 162.44 266.672 162.272C267.584 160.232 268.064 157.184 268.352 154.232ZM268.496 157.76H275.48V159.512H268.208L268.496 157.76ZM302 159.968C301.016 159.968 300.176 159.248 300.176 158.168C300.176 157.064 301.016 156.344 302 156.344C302.96 156.344 303.8 157.064 303.8 158.168C303.8 159.248 302.96 159.968 302 159.968ZM302 171.704C301.016 171.704 300.176 171.008 300.176 169.904C300.176 168.8 301.016 168.104 302 168.104C302.96 168.104 303.8 168.8 303.8 169.904C303.8 171.008 302.96 171.704 302 171.704ZM315.44 159.248H336.632V161.072H315.44V159.248ZM323.192 169.544L324.704 168.464C326.408 169.832 328.544 171.824 329.552 173.12L327.944 174.392C326.984 173.048 324.896 170.984 323.192 169.544ZM327.368 160.064C328.928 166.112 332.192 171.152 337.28 173.312C336.824 173.72 336.224 174.44 335.912 174.968C330.632 172.424 327.392 167.192 325.64 160.496L327.368 160.064ZM324.848 152.864H326.792C326.696 159.44 326.672 170.168 316.208 174.92C315.944 174.464 315.368 173.816 314.864 173.432C325.016 169.088 324.8 158.888 324.848 152.864ZM346.544 163.04H361.04V164.528H346.544V163.04ZM349.184 166.232H359.048V167.72H349.184V166.232ZM350.144 163.592L351.68 163.952C350.6 166.664 348.728 169.04 346.64 170.576C346.4 170.264 345.824 169.712 345.464 169.424C347.504 168.08 349.256 165.992 350.144 163.592ZM352.016 166.784L353.48 167.192C352.16 170.192 349.88 172.784 347.48 174.464C347.264 174.152 346.736 173.552 346.424 173.288C348.752 171.8 350.864 169.448 352.016 166.784ZM355.544 166.808L357.032 167.168C356.072 170.336 354.344 173.096 352.256 174.872C352.016 174.608 351.416 174.08 351.08 173.816C353.12 172.208 354.728 169.688 355.544 166.808ZM358.568 166.232H360.248C360.248 166.232 360.224 166.712 360.2 166.976C359.888 171.8 359.576 173.624 358.976 174.272C358.616 174.68 358.232 174.824 357.68 174.896C357.2 174.944 356.36 174.944 355.496 174.896C355.472 174.416 355.304 173.792 355.088 173.36C355.88 173.432 356.624 173.456 356.936 173.456C357.248 173.456 357.416 173.432 357.584 173.216C357.992 172.784 358.304 171.08 358.568 166.52V166.232ZM350.336 158.336V160.232H357.368V158.336H350.336ZM350.336 155.168V157.04H357.368V155.168H350.336ZM348.656 153.824H359.096V161.6H348.656V153.824ZM339.92 153.896H345.584V155.528H341.552V174.944H339.92V153.896ZM345.032 153.896H345.344L345.632 153.824L346.784 154.52C346.088 156.488 345.2 158.96 344.384 160.88C346.16 162.872 346.544 164.552 346.544 166.04C346.544 167.336 346.28 168.344 345.608 168.824C345.272 169.04 344.84 169.184 344.36 169.256C343.88 169.304 343.28 169.304 342.728 169.28C342.704 168.848 342.56 168.152 342.296 167.696C342.848 167.744 343.304 167.768 343.688 167.72C343.976 167.72 344.24 167.648 344.432 167.504C344.816 167.24 344.936 166.592 344.936 165.872C344.936 164.576 344.504 162.944 342.776 161.072C343.64 158.888 344.528 156.032 345.032 154.376V153.896ZM368.552 174.344C366.992 172.448 364.928 170.408 363.224 169.016L364.784 167.648C366.512 169.04 368.672 171.2 370.184 172.952L368.552 174.344ZM390.824 157.712L392.6 158.096C392.192 160.976 391.376 163.904 389.24 165.536L387.68 164.48C389.6 163.016 390.44 160.4 390.824 157.712ZM405.896 157.688L407.84 158.456C406.664 160.712 405.128 163.424 403.904 165.152L402.392 164.456C403.568 162.68 405.08 159.776 405.896 157.688ZM397.88 153.2H398.84V160.976C398.84 163.736 400.544 170.36 408.872 173.288C408.488 173.696 407.936 174.44 407.672 174.968C400.712 172.304 398.36 166.784 397.88 164.456C397.4 166.808 395.216 172.16 388.4 174.968C388.16 174.56 387.56 173.84 387.152 173.456C395.24 170.384 396.92 163.76 396.92 160.976V153.2H397.88ZM413.312 173.336C412.448 173.336 411.752 172.64 411.752 171.656C411.752 170.648 412.448 169.976 413.312 169.976C414.2 169.976 414.92 170.648 414.92 171.656C414.92 172.64 414.2 173.336 413.312 173.336ZM419.992 173.336C419.128 173.336 418.432 172.64 418.432 171.656C418.432 170.648 419.128 169.976 419.992 169.976C420.88 169.976 421.6 170.648 421.6 171.656C421.6 172.64 420.88 173.336 419.992 173.336ZM426.671 173.336C425.807 173.336 425.111 172.64 425.111 171.656C425.111 170.648 425.807 169.976 426.671 169.976C427.559 169.976 428.279 170.648 428.279 171.656C428.279 172.64 427.559 173.336 426.671 173.336ZM432.343 157.88C433.231 157.976 434.263 158.024 435.295 158.024C437.887 158.024 440.911 157.712 443.671 156.8L443.719 158.576C441.367 159.224 438.223 159.752 435.295 159.728C434.407 159.728 433.375 159.704 432.487 159.68L432.343 157.88ZM440.863 153.968C440.551 155.144 440.047 157.4 439.471 159.104C438.319 162.56 436.111 166.928 434.119 169.616L432.271 168.656C434.407 166.16 436.639 161.888 437.623 159.056C438.151 157.544 438.679 155.432 438.751 153.752L440.863 153.968ZM446.527 161.384C446.455 162.368 446.455 163.088 446.479 163.952C446.527 165.512 446.743 169.16 446.743 170.744C446.743 172.664 445.519 174.224 442.543 174.224C439.903 174.224 437.767 173.168 437.767 170.768C437.767 168.56 439.855 167.168 442.543 167.168C446.575 167.168 449.671 169.184 451.639 170.888L450.631 172.52C448.783 170.84 446.023 168.704 442.495 168.704C440.719 168.704 439.519 169.52 439.519 170.624C439.519 171.728 440.455 172.496 442.327 172.496C444.319 172.496 444.991 171.44 444.991 170.144C444.991 168.32 444.727 164.024 444.631 161.384H446.527ZM451.327 162.008C450.031 160.904 447.415 159.44 445.831 158.696L446.791 157.256C448.543 158 451.255 159.56 452.407 160.424L451.327 162.008ZM472.279 159.32C471.727 159.656 471.127 159.968 470.431 160.328C468.799 161.168 466.135 162.416 463.783 163.976C461.551 165.44 460.207 167.024 460.207 168.824C460.207 170.816 462.103 172.064 465.895 172.064C468.511 172.064 471.727 171.728 473.599 171.248L473.575 173.408C471.775 173.72 468.991 173.984 465.991 173.984C461.479 173.984 458.215 172.64 458.215 169.04C458.215 166.448 459.967 164.408 462.775 162.536C465.223 160.904 468.031 159.584 469.591 158.72C470.287 158.312 470.815 158 471.319 157.568L472.279 159.32ZM460.783 154.64C461.887 157.712 463.351 160.712 464.479 162.632L462.823 163.64C461.623 161.672 460.183 158.432 458.887 155.456L460.783 154.64ZM472.687 154.4C473.287 155.288 474.151 156.728 474.631 157.712L473.335 158.312C472.855 157.328 472.063 155.864 471.391 154.952L472.687 154.4ZM475.327 153.44C475.951 154.328 476.887 155.84 477.343 156.728L476.047 157.304C475.519 156.272 474.751 154.88 474.055 153.992L475.327 153.44ZM282.296 188.752L283.232 187.696C284.432 188.08 285.92 188.752 286.688 189.352L285.704 190.552C284.984 189.928 283.52 189.184 282.296 188.752ZM269.888 190.288H288.584V191.776H269.888V190.288ZM271.592 193.408H278.96V194.68H271.592V193.408ZM271.976 196.312H273.488V200.68H271.976V196.312ZM284.72 192.928L286.4 193.336C285.056 197.32 282.632 200.56 279.704 202.648C279.44 202.312 278.768 201.712 278.408 201.4C281.312 199.528 283.568 196.528 284.72 192.928ZM279.056 187.84H280.784C281.048 195.232 284.312 201.232 286.76 201.208C287.36 201.208 287.6 200.344 287.72 198.16C288.08 198.496 288.68 198.808 289.136 198.976C288.848 202.024 288.2 202.864 286.664 202.864C282.872 202.864 279.44 195.904 279.056 187.84ZM271.976 196.312H278.576V201.352H271.976V200.056H277.04V197.584H271.976V196.312ZM273.176 203.56H274.952V207.28C274.952 207.88 275.192 208 276.464 208C277.064 208 280.064 208 280.856 208C281.912 208 282.08 207.712 282.176 205.48C282.56 205.768 283.304 206.008 283.808 206.128C283.568 208.96 283.04 209.632 281 209.632C280.448 209.632 276.872 209.632 276.344 209.632C273.8 209.632 273.176 209.152 273.176 207.304V203.56ZM275.048 202.768L276.2 201.76C277.712 202.456 279.488 203.608 280.328 204.544L279.104 205.696C278.288 204.76 276.536 203.536 275.048 202.768ZM283.328 204.28L284.792 203.464C286.52 204.808 288.32 206.8 289.064 208.288L287.456 209.176C286.784 207.712 285.056 205.672 283.328 204.28ZM270.128 203.704L271.712 204.256C271.112 206.2 270.128 208.216 268.424 209.44L266.936 208.432C268.544 207.328 269.6 205.504 270.128 203.704ZM269.048 190.288H270.728V193.912C270.728 196.696 270.296 200.632 268.088 203.344C267.848 203.008 267.128 202.408 266.768 202.216C268.784 199.72 269.048 196.336 269.048 193.888V190.288ZM300.248 201.592H309.8V202.984H300.248V201.592ZM298.016 189.736H312.272V191.104H298.016V189.736ZM298.592 192.64H311.672V193.96H298.592V192.64ZM297.272 195.64H312.968V197.008H297.272V195.64ZM300.248 204.808H309.872V206.152H300.248V204.808ZM299.024 198.424H309.8V199.816H300.704V209.896H299.024V198.424ZM309.368 198.424H311.096V207.904C311.096 208.816 310.904 209.296 310.232 209.56C309.56 209.824 308.48 209.848 306.776 209.824C306.704 209.392 306.464 208.72 306.248 208.264C307.448 208.312 308.6 208.312 308.936 208.288C309.272 208.288 309.368 208.192 309.368 207.88V198.424ZM304.16 187.84H305.936V196.072H304.16V187.84ZM293.624 187.84H295.28V209.896H293.624V187.84ZM291.728 192.472L293.072 192.664C293 194.536 292.592 197.32 292.04 199.12L290.648 198.664C291.2 197.008 291.584 194.368 291.728 192.472ZM295.496 191.848L296.696 191.368C297.224 192.472 297.8 193.888 298.016 194.776L296.768 195.376C296.528 194.464 295.976 192.976 295.496 191.848ZM326 196.336C327.392 196.336 328.544 197.488 328.544 198.88C328.544 200.296 327.392 201.448 326 201.448C324.584 201.448 323.432 200.296 323.432 198.88C323.432 197.488 324.584 196.336 326 196.336ZM353.048 189.184H360.752V190.744H353.048V189.184ZM352.856 197.944H361.016V199.528H352.856V197.944ZM354.008 189.664H355.472V198.76H354.008V189.664ZM347.264 193.48H351.728V194.92H347.264V193.48ZM349.88 201.256L351.272 200.752C352.232 202.528 353.192 204.808 353.504 206.248L352.016 206.872C351.68 205.408 350.792 203.032 349.88 201.256ZM347.264 189.208H352.472V199.336H347.264V197.848H350.96V190.696H347.264V189.208ZM344.984 205.984C346.76 205.456 349.376 204.592 351.92 203.728L352.184 205.168C349.928 206.032 347.6 206.92 345.704 207.616L344.984 205.984ZM346.616 189.208H348.128V205.84L346.616 206.2V189.208ZM339.176 192.952H346.04V194.608H339.176V192.952ZM342.2 187.84H343.856V209.896H342.2V187.84ZM342.104 193.984L343.28 194.32C342.632 198.112 341.216 202.96 339.584 205.432C339.392 204.952 338.96 204.28 338.648 203.896C340.136 201.64 341.552 197.416 342.104 193.984ZM343.784 196.552C344.288 197.008 346.184 199.048 346.592 199.552L345.608 201.088C345.104 200.152 343.544 198.16 342.944 197.416L343.784 196.552ZM357.464 190.048H358.976V193.096C358.976 197.944 358.352 204.88 351.392 209.92C351.152 209.608 350.576 209.08 350.216 208.816C356.936 204.064 357.464 197.56 357.464 193.072V190.048ZM356.72 200.008H358.208V207.736C358.208 207.88 358.232 208.048 358.328 208.12C358.4 208.192 358.544 208.24 358.736 208.24C358.88 208.24 359.096 208.24 359.288 208.24C359.504 208.24 359.672 208.216 359.792 208.12C359.864 208.024 359.96 207.808 360.008 207.544C360.056 207.112 360.104 206.08 360.08 204.88C360.368 205.144 360.92 205.432 361.328 205.576C361.304 206.752 361.208 208.072 361.112 208.528C360.992 209.032 360.8 209.32 360.488 209.512C360.224 209.68 359.816 209.776 359.432 209.776C359.144 209.776 358.592 209.776 358.376 209.776C357.896 209.776 357.44 209.68 357.128 209.392C356.792 209.08 356.72 208.72 356.72 207.64V200.008ZM369.32 202.576H371.096V207.232C371.096 207.856 371.312 207.976 372.464 207.976C372.992 207.976 375.656 207.976 376.376 207.976C377.408 207.976 377.552 207.64 377.648 205.048C378.056 205.36 378.8 205.624 379.304 205.744C379.064 208.864 378.56 209.608 376.52 209.608C376.04 209.608 372.8 209.608 372.32 209.608C369.92 209.608 369.32 209.104 369.32 207.232V202.576ZM370.52 201.088L371.624 199.888C373.4 200.68 375.44 202 376.4 203.104L375.2 204.4C374.264 203.296 372.272 201.904 370.52 201.088ZM378.872 203.152L380.36 202.264C382.184 203.896 384.152 206.176 384.944 207.856L383.312 208.84C382.568 207.208 380.696 204.832 378.872 203.152ZM366.32 202.48L367.928 203.008C367.352 205.264 366.368 207.664 364.448 209.056L362.984 208.024C364.736 206.776 365.792 204.592 366.32 202.48ZM366.176 196.288H379.808V197.848H366.176V196.288ZM369.584 193.072H378.32V194.536H369.584V193.072ZM373.856 189.472C371.816 191.872 367.88 194.512 363.92 196.12C363.704 195.688 363.272 194.992 362.912 194.584C366.944 193.072 370.88 190.36 372.824 187.888H374.672C377.288 190.72 381.368 193.144 385.064 194.32C384.656 194.776 384.224 195.448 383.96 195.952C380.408 194.584 376.16 192.016 373.856 189.472ZM379.28 196.288H379.64L379.952 196.192L381.152 196.936C380.24 198.808 378.632 201.04 377.336 202.48C376.976 202.216 376.376 201.832 375.944 201.64C377.192 200.296 378.608 198.112 379.28 196.624V196.288ZM398 194.968C397.016 194.968 396.176 194.248 396.176 193.168C396.176 192.064 397.016 191.344 398 191.344C398.96 191.344 399.8 192.064 399.8 193.168C399.8 194.248 398.96 194.968 398 194.968ZM398 206.704C397.016 206.704 396.176 206.008 396.176 204.904C396.176 203.8 397.016 203.104 398 203.104C398.96 203.104 399.8 203.8 399.8 204.904C399.8 206.008 398.96 206.704 398 206.704ZM412.376 189.592H421.112V190.912H412.376V189.592ZM422.36 191.272H429.776V192.88H422.36V191.272ZM411.464 192.712H421.904V194.08H411.464V192.712ZM415.904 187.96H417.536V193.36H415.904V187.96ZM415.904 196.912H417.536V202.912H415.904V196.912ZM412.064 198.64H421.28V200.032H412.064V198.64ZM411.224 202.624C413.888 202.432 417.944 202.048 421.88 201.64V203.056C418.088 203.464 414.152 203.896 411.392 204.16L411.224 202.624ZM417.608 193.48H419V195.64C419 196 419.048 196.048 419.408 196.048C419.552 196.048 420.272 196.048 420.464 196.048C420.824 196.048 420.872 195.928 420.944 194.848C421.208 195.088 421.76 195.232 422.144 195.328C422.024 196.864 421.616 197.272 420.68 197.272C420.44 197.272 419.456 197.272 419.216 197.272C417.92 197.272 417.608 196.96 417.608 195.64V193.48ZM425.12 187.84H426.752C426.656 195.736 426.392 201.304 422.264 204.472C422 204.088 421.496 203.536 421.088 203.296C424.904 200.416 425.048 195.256 425.12 187.84ZM422.168 196.192L422.96 194.896C424.928 196.072 427.448 197.824 428.648 199.048L427.808 200.536C426.632 199.264 424.136 197.416 422.168 196.192ZM428.936 191.272H430.592V201.376C430.592 201.976 430.592 202.36 430.688 202.48C430.76 202.552 430.856 202.576 430.976 202.576C431.096 202.576 431.312 202.576 431.456 202.576C431.624 202.576 431.768 202.552 431.84 202.432C431.936 202.336 431.984 202.096 432.032 201.664C432.08 201.16 432.104 200.128 432.104 198.736C432.416 199.048 432.92 199.288 433.352 199.408C433.328 200.656 433.232 202.168 433.136 202.672C433.04 203.224 432.848 203.56 432.56 203.752C432.296 203.944 431.912 204.04 431.504 204.04C431.24 204.04 430.808 204.04 430.568 204.04C430.16 204.04 429.68 203.92 429.344 203.608C429.032 203.296 428.936 202.912 428.936 201.256V191.272ZM418.208 205.648L419.864 205.504C420.176 206.824 420.416 208.48 420.44 209.488L418.64 209.728C418.64 208.672 418.472 206.968 418.208 205.648ZM423.128 205.6L424.808 205.312C425.408 206.584 426.008 208.288 426.224 209.32L424.448 209.704C424.256 208.624 423.704 206.92 423.128 205.6ZM428.096 205.528L429.8 204.976C430.928 206.296 432.272 208.12 432.872 209.32L431.096 209.968C430.52 208.768 429.224 206.896 428.096 205.528ZM414.128 205.048L415.832 205.504C415.16 207.112 414.056 208.888 412.832 209.944L411.176 209.248C412.352 208.288 413.48 206.632 414.128 205.048ZM414.32 193.648H415.784C415.52 195.952 414.632 197.272 411.848 197.992C411.704 197.656 411.32 197.128 411.032 196.888C413.408 196.336 414.128 195.4 414.32 193.648ZM439.352 191.272C439.232 191.824 439.16 192.976 439.136 193.6C439.112 195.088 439.136 197.296 439.304 199.264C439.712 203.272 440.864 205.936 442.592 205.936C443.816 205.936 444.944 203.464 445.568 201.064L447.08 202.768C445.616 206.824 444.176 208.216 442.544 208.216C440.264 208.216 438.104 205.96 437.432 199.744C437.216 197.68 437.168 194.752 437.168 193.36C437.168 192.808 437.168 191.776 437.024 191.224L439.352 191.272ZM451.832 191.92C453.992 194.704 455.72 199.816 456.08 203.872L454.136 204.64C453.728 200.32 452.264 195.376 449.984 192.568L451.832 191.92ZM464.552 209.344C462.992 207.448 460.928 205.408 459.224 204.016L460.784 202.648C462.512 204.04 464.672 206.2 466.184 207.952L464.552 209.344ZM492.248 201.592H501.8V202.984H492.248V201.592ZM490.016 189.736H504.272V191.104H490.016V189.736ZM490.592 192.64H503.672V193.96H490.592V192.64ZM489.272 195.64H504.968V197.008H489.272V195.64ZM492.248 204.808H501.872V206.152H492.248V204.808ZM491.024 198.424H501.8V199.816H492.704V209.896H491.024V198.424ZM501.368 198.424H503.096V207.904C503.096 208.816 502.904 209.296 502.232 209.56C501.56 209.824 500.48 209.848 498.776 209.824C498.704 209.392 498.464 208.72 498.248 208.264C499.448 208.312 500.6 208.312 500.936 208.288C501.272 208.288 501.368 208.192 501.368 207.88V198.424ZM496.16 187.84H497.936V196.072H496.16V187.84ZM485.624 187.84H487.28V209.896H485.624V187.84ZM483.728 192.472L485.072 192.664C485 194.536 484.592 197.32 484.04 199.12L482.648 198.664C483.2 197.008 483.584 194.368 483.728 192.472ZM487.496 191.848L488.696 191.368C489.224 192.472 489.8 193.888 490.016 194.776L488.768 195.376C488.528 194.464 487.976 192.976 487.496 191.848ZM508.376 189.592H517.112V190.912H508.376V189.592ZM518.36 191.272H525.776V192.88H518.36V191.272ZM507.464 192.712H517.904V194.08H507.464V192.712ZM511.904 187.96H513.536V193.36H511.904V187.96ZM511.904 196.912H513.536V202.912H511.904V196.912ZM508.064 198.64H517.28V200.032H508.064V198.64ZM507.224 202.624C509.888 202.432 513.944 202.048 517.88 201.64V203.056C514.088 203.464 510.152 203.896 507.392 204.16L507.224 202.624ZM513.608 193.48H515V195.64C515 196 515.048 196.048 515.408 196.048C515.552 196.048 516.272 196.048 516.464 196.048C516.824 196.048 516.872 195.928 516.944 194.848C517.208 195.088 517.76 195.232 518.144 195.328C518.024 196.864 517.616 197.272 516.68 197.272C516.44 197.272 515.456 197.272 515.216 197.272C513.92 197.272 513.608 196.96 513.608 195.64V193.48ZM521.12 187.84H522.752C522.656 195.736 522.392 201.304 518.264 204.472C518 204.088 517.496 203.536 517.088 203.296C520.904 200.416 521.048 195.256 521.12 187.84ZM518.168 196.192L518.96 194.896C520.928 196.072 523.448 197.824 524.648 199.048L523.808 200.536C522.632 199.264 520.136 197.416 518.168 196.192ZM524.936 191.272H526.592V201.376C526.592 201.976 526.592 202.36 526.688 202.48C526.76 202.552 526.856 202.576 526.976 202.576C527.096 202.576 527.312 202.576 527.456 202.576C527.624 202.576 527.768 202.552 527.84 202.432C527.936 202.336 527.984 202.096 528.032 201.664C528.08 201.16 528.104 200.128 528.104 198.736C528.416 199.048 528.92 199.288 529.352 199.408C529.328 200.656 529.232 202.168 529.136 202.672C529.04 203.224 528.848 203.56 528.56 203.752C528.296 203.944 527.912 204.04 527.504 204.04C527.24 204.04 526.808 204.04 526.568 204.04C526.16 204.04 525.68 203.92 525.344 203.608C525.032 203.296 524.936 202.912 524.936 201.256V191.272ZM514.208 205.648L515.864 205.504C516.176 206.824 516.416 208.48 516.44 209.488L514.64 209.728C514.64 208.672 514.472 206.968 514.208 205.648ZM519.128 205.6L520.808 205.312C521.408 206.584 522.008 208.288 522.224 209.32L520.448 209.704C520.256 208.624 519.704 206.92 519.128 205.6ZM524.096 205.528L525.8 204.976C526.928 206.296 528.272 208.12 528.872 209.32L527.096 209.968C526.52 208.768 525.224 206.896 524.096 205.528ZM510.128 205.048L511.832 205.504C511.16 207.112 510.056 208.888 508.832 209.944L507.176 209.248C508.352 208.288 509.48 206.632 510.128 205.048ZM510.32 193.648H511.784C511.52 195.952 510.632 197.272 507.848 197.992C507.704 197.656 507.32 197.128 507.032 196.888C509.408 196.336 510.128 195.4 510.32 193.648ZM533.144 191.704H540.44V207.4H533.144V205.768H538.76V193.312H533.144V191.704ZM532.064 191.704H533.744V209.32H532.064V191.704ZM533.024 198.376H539.648V199.984H533.024V198.376ZM535.736 187.792L537.68 188.152C537.2 189.64 536.6 191.296 536.12 192.376L534.68 192.016C535.088 190.864 535.544 189.04 535.736 187.792ZM543.848 191.632H551.216V193.312H543.848V191.632ZM550.592 191.632H552.272C552.272 191.632 552.272 192.304 552.272 192.568C551.888 203.584 551.552 207.304 550.592 208.48C550.064 209.176 549.512 209.392 548.672 209.464C547.856 209.56 546.44 209.512 545.096 209.44C545.048 208.912 544.832 208.168 544.496 207.688C546.056 207.808 547.496 207.832 548.048 207.832C548.528 207.832 548.816 207.76 549.08 207.448C549.872 206.584 550.256 202.6 550.592 192.016V191.632ZM544.352 187.744L546.08 188.152C545.192 191.728 543.776 195.256 542.12 197.536C541.808 197.248 541.064 196.744 540.632 196.504C542.264 194.392 543.584 191.08 544.352 187.744ZM543.248 197.872L544.64 197.056C546.008 198.76 547.664 201.088 548.432 202.504L546.896 203.464C546.176 202 544.568 199.624 543.248 197.872ZM557.312 208.336C556.448 208.336 555.752 207.64 555.752 206.656C555.752 205.648 556.448 204.976 557.312 204.976C558.2 204.976 558.92 205.648 558.92 206.656C558.92 207.64 558.2 208.336 557.312 208.336ZM563.992 208.336C563.128 208.336 562.432 207.64 562.432 206.656C562.432 205.648 563.128 204.976 563.992 204.976C564.88 204.976 565.6 205.648 565.6 206.656C565.6 207.64 564.88 208.336 563.992 208.336ZM570.671 208.336C569.807 208.336 569.111 207.64 569.111 206.656C569.111 205.648 569.807 204.976 570.671 204.976C571.559 204.976 572.279 205.648 572.279 206.656C572.279 207.64 571.559 208.336 570.671 208.336ZM576.343 192.88C577.231 192.976 578.263 193.024 579.295 193.024C581.887 193.024 584.911 192.712 587.671 191.8L587.719 193.576C585.367 194.224 582.223 194.752 579.295 194.728C578.407 194.728 577.375 194.704 576.487 194.68L576.343 192.88ZM584.863 188.968C584.551 190.144 584.047 192.4 583.471 194.104C582.319 197.56 580.111 201.928 578.119 204.616L576.271 203.656C578.407 201.16 580.639 196.888 581.623 194.056C582.151 192.544 582.679 190.432 582.751 188.752L584.863 188.968ZM590.527 196.384C590.455 197.368 590.455 198.088 590.479 198.952C590.527 200.512 590.743 204.16 590.743 205.744C590.743 207.664 589.519 209.224 586.543 209.224C583.903 209.224 581.767 208.168 581.767 205.768C581.767 203.56 583.855 202.168 586.543 202.168C590.575 202.168 593.671 204.184 595.639 205.888L594.631 207.52C592.783 205.84 590.023 203.704 586.495 203.704C584.719 203.704 583.519 204.52 583.519 205.624C583.519 206.728 584.455 207.496 586.327 207.496C588.319 207.496 588.991 206.44 588.991 205.144C588.991 203.32 588.727 199.024 588.631 196.384H590.527ZM595.327 197.008C594.031 195.904 591.415 194.44 589.831 193.696L590.791 192.256C592.543 193 595.255 194.56 596.407 195.424L595.327 197.008ZM616.279 194.32C615.727 194.656 615.127 194.968 614.431 195.328C612.799 196.168 610.135 197.416 607.783 198.976C605.551 200.44 604.207 202.024 604.207 203.824C604.207 205.816 606.103 207.064 609.895 207.064C612.511 207.064 615.727 206.728 617.599 206.248L617.575 208.408C615.775 208.72 612.991 208.984 609.991 208.984C605.479 208.984 602.215 207.64 602.215 204.04C602.215 201.448 603.967 199.408 606.775 197.536C609.223 195.904 612.031 194.584 613.591 193.72C614.287 193.312 614.815 193 615.319 192.568L616.279 194.32ZM604.783 189.64C605.887 192.712 607.351 195.712 608.479 197.632L606.823 198.64C605.623 196.672 604.183 193.432 602.887 190.456L604.783 189.64ZM616.687 189.4C617.287 190.288 618.151 191.728 618.631 192.712L617.335 193.312C616.855 192.328 616.063 190.864 615.391 189.952L616.687 189.4ZM619.327 188.44C619.951 189.328 620.887 190.84 621.343 191.728L620.047 192.304C619.519 191.272 618.751 189.88 618.055 188.992L619.327 188.44Z" fill="black"/>
<rect x="118" y="312.5" width="100" height="100" fill="#ADC520"/>
<path d="M290.5 323.912L293.02 325.592C291.9 326.908 290.668 328.336 289.716 329.26L287.672 327.804C288.568 326.796 289.8 325.116 290.5 323.912ZM277.956 325.62L280.252 324.108C281.288 325.2 282.464 326.74 282.968 327.776L280.532 329.456C280.056 328.392 278.964 326.796 277.956 325.62ZM278.768 312.264H290.556V321.7H287.308V314.98H278.768V312.264ZM279.44 316.38H289.128V318.984H279.44V316.38ZM277.424 320.44H292.908V323.24H277.424V320.44ZM283.584 321.7H286.664V334.3C286.664 335.728 286.468 336.512 285.544 336.988C284.648 337.464 283.444 337.52 281.764 337.52C281.652 336.68 281.288 335.448 280.924 334.608C281.848 334.664 282.856 334.664 283.164 334.664C283.472 334.664 283.584 334.58 283.584 334.272V321.7ZM276.332 333.096C277.844 332.256 280.112 330.828 282.296 329.4L283.332 331.92C281.54 333.292 279.58 334.72 277.928 335.896L276.332 333.096ZM286.552 323.24C287.28 326.936 289.1 331.444 293.3 333.46C292.684 334.076 291.704 335.336 291.284 336.176C287.252 333.74 285.46 328.588 284.732 325.032L286.552 323.24ZM271.012 311.256L273.924 312.264C272.776 314.448 271.488 316.94 270.424 318.508L268.184 317.584C269.164 315.904 270.368 313.188 271.012 311.256ZM274.176 314.56L276.892 315.82C274.848 318.956 272.132 322.848 269.976 325.256L268.044 324.164C270.144 321.644 272.692 317.556 274.176 314.56ZM266.672 317.78L268.324 315.54C269.78 316.856 271.488 318.676 272.16 319.992L270.34 322.568C269.724 321.196 268.072 319.208 266.672 317.78ZM273.224 321.28L275.548 320.3C276.668 322.204 277.732 324.668 278.068 326.264L275.548 327.412C275.24 325.788 274.26 323.212 273.224 321.28ZM266.588 323.52C269.108 323.38 272.72 323.184 276.22 322.96L276.248 325.704C272.972 325.956 269.556 326.208 266.952 326.404L266.588 323.52ZM273.98 328.308L276.332 327.58C277.004 329.148 277.564 331.192 277.76 332.536L275.268 333.348C275.128 331.976 274.596 329.904 273.98 328.308ZM267.792 327.692L270.48 328.14C270.2 330.828 269.612 333.6 268.8 335.392C268.24 335.028 267.008 334.496 266.364 334.216C267.148 332.564 267.568 330.044 267.792 327.692ZM270.872 325.004H273.756V337.52H270.872V325.004Z" fill="black"/>
<path d="M278.816 360.84L280.448 361.176C279.56 365.112 277.976 368.76 275.96 371.136C275.672 370.872 274.952 370.344 274.568 370.104C276.584 367.944 278 364.488 278.816 360.84ZM287.096 364.872H288.8C288.8 364.872 288.8 365.544 288.776 365.808C288.224 376.752 287.72 380.52 286.736 381.696C286.256 382.344 285.8 382.56 285.056 382.632C284.432 382.728 283.376 382.704 282.32 382.632C282.272 382.104 282.104 381.336 281.816 380.856C282.896 380.952 283.88 380.976 284.336 380.976C284.72 380.976 284.96 380.88 285.248 380.568C286.04 379.656 286.592 375.84 287.096 365.304V364.872ZM278.648 364.872H287.816V366.576H277.88L278.648 364.872ZM281.072 365.4L282.44 366.096C281.408 370.344 279.128 375.144 276.392 377.52C276.032 377.16 275.456 376.728 274.976 376.464C277.784 374.256 280.088 369.6 281.072 365.4ZM284.504 365.544L285.944 366.216C284.744 372.672 282.056 379.296 278.024 382.536C277.664 382.152 277.016 381.696 276.488 381.432C280.688 378.432 283.352 371.928 284.504 365.544ZM266.84 374.16C269.096 373.584 272.528 372.576 275.792 371.592L276.032 373.176C272.984 374.136 269.744 375.144 267.32 375.912L266.84 374.16ZM271.328 360.864H273.008V382.92H271.328V360.864ZM268.352 362.232L269.912 362.496C269.552 365.688 268.952 368.928 268.04 371.064C267.752 370.848 267.056 370.44 266.672 370.272C267.584 368.232 268.064 365.184 268.352 362.232ZM268.496 365.76H275.48V367.512H268.208L268.496 365.76ZM302 367.968C301.016 367.968 300.176 367.248 300.176 366.168C300.176 365.064 301.016 364.344 302 364.344C302.96 364.344 303.8 365.064 303.8 366.168C303.8 367.248 302.96 367.968 302 367.968ZM302 379.704C301.016 379.704 300.176 379.008 300.176 377.904C300.176 376.8 301.016 376.104 302 376.104C302.96 376.104 303.8 376.8 303.8 377.904C303.8 379.008 302.96 379.704 302 379.704ZM315.584 366.768H336.416V368.544H315.584V366.768ZM325.016 360.864H326.912V382.92H325.016V360.864ZM324.608 367.68L326.168 368.208C323.936 373.2 320.048 377.904 316.016 380.376C315.68 379.896 315.08 379.224 314.648 378.84C318.608 376.704 322.568 372.144 324.608 367.68ZM327.272 367.704C329.36 372.048 333.416 376.608 337.28 378.744C336.824 379.104 336.2 379.824 335.888 380.304C331.976 377.832 328.04 373.056 325.76 368.256L327.272 367.704ZM344.552 382.344C342.992 380.448 340.928 378.408 339.224 377.016L340.784 375.648C342.512 377.04 344.672 379.2 346.184 380.952L344.552 382.344ZM364.52 363.504H383.528V365.136H364.52V363.504ZM363.248 373.488H372.872V375.072H363.248V373.488ZM373.904 373.488H384.848V375.072H373.904V373.488ZM372.968 360.816H374.792V371.376H372.968V360.816ZM367.616 370.584H369.32V382.944H367.616V370.584ZM378.032 370.584H379.76V382.944H378.032V370.584ZM372.368 363.888L373.856 364.512C371.864 367.416 368.216 369.936 364.736 371.184C364.496 370.752 363.968 370.128 363.608 369.792C366.992 368.736 370.568 366.456 372.368 363.888ZM375.296 363.888C377.216 366.384 380.96 368.592 384.536 369.576C384.128 369.936 383.624 370.608 383.36 371.064C379.76 369.864 375.968 367.392 373.904 364.464L375.296 363.888ZM377.576 373.872L378.92 374.28C377.696 377.4 375.464 380.376 373.136 381.912C372.872 381.504 372.368 380.904 372.008 380.592C374.264 379.296 376.472 376.584 377.576 373.872ZM380.144 374.016C381.32 376.488 383.528 379.104 385.496 380.4C385.088 380.736 384.536 381.384 384.224 381.816C382.28 380.256 380.144 377.232 378.968 374.448L380.144 374.016ZM367.4 373.992L368.672 374.472C367.544 377.256 365.624 380.16 363.488 381.6C363.32 381.12 362.936 380.424 362.648 379.968C364.544 378.744 366.44 376.344 367.4 373.992ZM369.056 375.504C369.776 375.936 372.296 377.712 372.872 378.192L371.792 379.56C371.072 378.768 368.936 376.944 368.072 376.296L369.056 375.504ZM392.552 382.344C390.992 380.448 388.928 378.408 387.224 377.016L388.784 375.648C390.512 377.04 392.672 379.2 394.184 380.952L392.552 382.344ZM413.24 367.584V370.224H420.536V367.584H413.24ZM413.24 363.552V366.168H420.536V363.552H413.24ZM411.728 362.064H422.096V371.736H411.728V362.064ZM411.68 374.424H422.12V376.08H411.68V374.424ZM410.912 380.256C413.792 379.896 418.328 379.296 422.696 378.696L422.744 380.304C418.592 380.928 414.176 381.576 411.152 382.008L410.912 380.256ZM422.888 362.088H431.648V363.72H422.888V362.088ZM422.624 369.816H432.008V371.52H422.624V369.816ZM430.88 362.088H431.312L431.696 361.992L432.872 362.784C431.624 364.704 429.68 366.792 427.88 368.088C427.64 367.776 427.136 367.296 426.848 367.056C428.36 365.904 430.064 363.912 430.88 362.424V362.088ZM423.848 366.288L424.976 365.184C427.112 366.264 429.56 368.04 430.784 369.288L429.632 370.536C428.384 369.216 425.96 367.416 423.848 366.288ZM431.456 369.816H431.744L432.032 369.744L433.256 370.056C432.656 372.048 431.936 374.352 431.216 375.768L429.752 375.36C430.352 374.064 431.024 371.88 431.456 370.128V369.816ZM426.488 370.656H428.264V380.736C428.264 381.744 428.072 382.296 427.304 382.608C426.56 382.896 425.336 382.896 423.536 382.896C423.464 382.392 423.2 381.648 422.936 381.12C424.376 381.168 425.6 381.168 426.008 381.144C426.392 381.144 426.488 381.024 426.488 380.688V370.656ZM416.12 362.616H417.68V371.064H417.776V379.944H416.048V371.064H416.12V362.616ZM435.44 362.52H456.608V364.152H435.44V362.52ZM441.056 360.864H442.856V366.048H441.056V360.864ZM449.096 360.864H450.92V365.784H449.096V360.864ZM435.368 374.688H456.68V376.296H435.368V374.688ZM444.992 372.84H446.864V382.92H444.992V372.84ZM444.296 375.36L445.76 376.056C443.552 378.816 439.592 381.288 436.04 382.488C435.776 382.008 435.224 381.288 434.792 380.904C438.32 379.92 442.28 377.712 444.296 375.36ZM447.632 375.48C449.6 377.832 453.464 379.848 457.088 380.736C456.68 381.12 456.128 381.84 455.864 382.32C452.24 381.216 448.352 378.864 446.216 376.08L447.632 375.48ZM453.44 365.544L454.88 366.96C450.2 368.04 442.736 368.568 436.592 368.688C436.544 368.232 436.328 367.512 436.16 367.128C442.208 366.984 449.552 366.456 453.44 365.544ZM437.264 369.912L438.776 369.288C439.712 370.344 440.648 371.808 440.984 372.84L439.376 373.536C439.064 372.504 438.152 371.016 437.264 369.912ZM443.888 369.288L445.472 368.76C446.144 369.816 446.816 371.16 446.984 372.12L445.304 372.696C445.136 371.76 444.536 370.344 443.888 369.288ZM453.344 368.376L455.168 369.048C454.184 370.656 452.984 372.504 452.024 373.68L450.632 373.056C451.544 371.832 452.72 369.792 453.344 368.376ZM461.312 381.336C460.448 381.336 459.752 380.64 459.752 379.656C459.752 378.648 460.448 377.976 461.312 377.976C462.2 377.976 462.92 378.648 462.92 379.656C462.92 380.64 462.2 381.336 461.312 381.336ZM467.992 381.336C467.128 381.336 466.432 380.64 466.432 379.656C466.432 378.648 467.128 377.976 467.992 377.976C468.88 377.976 469.6 378.648 469.6 379.656C469.6 380.64 468.88 381.336 467.992 381.336ZM474.671 381.336C473.807 381.336 473.111 380.64 473.111 379.656C473.111 378.648 473.807 377.976 474.671 377.976C475.559 377.976 476.279 378.648 476.279 379.656C476.279 380.64 475.559 381.336 474.671 381.336ZM480.343 365.88C481.231 365.976 482.263 366.024 483.295 366.024C485.887 366.024 488.911 365.712 491.671 364.8L491.719 366.576C489.367 367.224 486.223 367.752 483.295 367.728C482.407 367.728 481.375 367.704 480.487 367.68L480.343 365.88ZM488.863 361.968C488.551 363.144 488.047 365.4 487.471 367.104C486.319 370.56 484.111 374.928 482.119 377.616L480.271 376.656C482.407 374.16 484.639 369.888 485.623 367.056C486.151 365.544 486.679 363.432 486.751 361.752L488.863 361.968ZM494.527 369.384C494.455 370.368 494.455 371.088 494.479 371.952C494.527 373.512 494.743 377.16 494.743 378.744C494.743 380.664 493.519 382.224 490.543 382.224C487.903 382.224 485.767 381.168 485.767 378.768C485.767 376.56 487.855 375.168 490.543 375.168C494.575 375.168 497.671 377.184 499.639 378.888L498.631 380.52C496.783 378.84 494.023 376.704 490.495 376.704C488.719 376.704 487.519 377.52 487.519 378.624C487.519 379.728 488.455 380.496 490.327 380.496C492.319 380.496 492.991 379.44 492.991 378.144C492.991 376.32 492.727 372.024 492.631 369.384H494.527ZM499.327 370.008C498.031 368.904 495.415 367.44 493.831 366.696L494.791 365.256C496.543 366 499.255 367.56 500.407 368.424L499.327 370.008ZM520.279 367.32C519.727 367.656 519.127 367.968 518.431 368.328C516.799 369.168 514.135 370.416 511.783 371.976C509.551 373.44 508.207 375.024 508.207 376.824C508.207 378.816 510.103 380.064 513.895 380.064C516.511 380.064 519.727 379.728 521.599 379.248L521.575 381.408C519.775 381.72 516.991 381.984 513.991 381.984C509.479 381.984 506.215 380.64 506.215 377.04C506.215 374.448 507.967 372.408 510.775 370.536C513.223 368.904 516.031 367.584 517.591 366.72C518.287 366.312 518.815 366 519.319 365.568L520.279 367.32ZM508.783 362.64C509.887 365.712 511.351 368.712 512.479 370.632L510.823 371.64C509.623 369.672 508.183 366.432 506.887 363.456L508.783 362.64ZM520.687 362.4C521.287 363.288 522.151 364.728 522.631 365.712L521.335 366.312C520.855 365.328 520.063 363.864 519.391 362.952L520.687 362.4ZM523.327 361.44C523.951 362.328 524.887 363.84 525.343 364.728L524.047 365.304C523.519 364.272 522.751 362.88 522.055 361.992L523.327 361.44ZM282.296 396.752L283.232 395.696C284.432 396.08 285.92 396.752 286.688 397.352L285.704 398.552C284.984 397.928 283.52 397.184 282.296 396.752ZM269.888 398.288H288.584V399.776H269.888V398.288ZM271.592 401.408H278.96V402.68H271.592V401.408ZM271.976 404.312H273.488V408.68H271.976V404.312ZM284.72 400.928L286.4 401.336C285.056 405.32 282.632 408.56 279.704 410.648C279.44 410.312 278.768 409.712 278.408 409.4C281.312 407.528 283.568 404.528 284.72 400.928ZM279.056 395.84H280.784C281.048 403.232 284.312 409.232 286.76 409.208C287.36 409.208 287.6 408.344 287.72 406.16C288.08 406.496 288.68 406.808 289.136 406.976C288.848 410.024 288.2 410.864 286.664 410.864C282.872 410.864 279.44 403.904 279.056 395.84ZM271.976 404.312H278.576V409.352H271.976V408.056H277.04V405.584H271.976V404.312ZM273.176 411.56H274.952V415.28C274.952 415.88 275.192 416 276.464 416C277.064 416 280.064 416 280.856 416C281.912 416 282.08 415.712 282.176 413.48C282.56 413.768 283.304 414.008 283.808 414.128C283.568 416.96 283.04 417.632 281 417.632C280.448 417.632 276.872 417.632 276.344 417.632C273.8 417.632 273.176 417.152 273.176 415.304V411.56ZM275.048 410.768L276.2 409.76C277.712 410.456 279.488 411.608 280.328 412.544L279.104 413.696C278.288 412.76 276.536 411.536 275.048 410.768ZM283.328 412.28L284.792 411.464C286.52 412.808 288.32 414.8 289.064 416.288L287.456 417.176C286.784 415.712 285.056 413.672 283.328 412.28ZM270.128 411.704L271.712 412.256C271.112 414.2 270.128 416.216 268.424 417.44L266.936 416.432C268.544 415.328 269.6 413.504 270.128 411.704ZM269.048 398.288H270.728V401.912C270.728 404.696 270.296 408.632 268.088 411.344C267.848 411.008 267.128 410.408 266.768 410.216C268.784 407.72 269.048 404.336 269.048 401.888V398.288ZM300.248 409.592H309.8V410.984H300.248V409.592ZM298.016 397.736H312.272V399.104H298.016V397.736ZM298.592 400.64H311.672V401.96H298.592V400.64ZM297.272 403.64H312.968V405.008H297.272V403.64ZM300.248 412.808H309.872V414.152H300.248V412.808ZM299.024 406.424H309.8V407.816H300.704V417.896H299.024V406.424ZM309.368 406.424H311.096V415.904C311.096 416.816 310.904 417.296 310.232 417.56C309.56 417.824 308.48 417.848 306.776 417.824C306.704 417.392 306.464 416.72 306.248 416.264C307.448 416.312 308.6 416.312 308.936 416.288C309.272 416.288 309.368 416.192 309.368 415.88V406.424ZM304.16 395.84H305.936V404.072H304.16V395.84ZM293.624 395.84H295.28V417.896H293.624V395.84ZM291.728 400.472L293.072 400.664C293 402.536 292.592 405.32 292.04 407.12L290.648 406.664C291.2 405.008 291.584 402.368 291.728 400.472ZM295.496 399.848L296.696 399.368C297.224 400.472 297.8 401.888 298.016 402.776L296.768 403.376C296.528 402.464 295.976 400.976 295.496 399.848ZM326 404.336C327.392 404.336 328.544 405.488 328.544 406.88C328.544 408.296 327.392 409.448 326 409.448C324.584 409.448 323.432 408.296 323.432 406.88C323.432 405.488 324.584 404.336 326 404.336ZM353.048 397.184H360.752V398.744H353.048V397.184ZM352.856 405.944H361.016V407.528H352.856V405.944ZM354.008 397.664H355.472V406.76H354.008V397.664ZM347.264 401.48H351.728V402.92H347.264V401.48ZM349.88 409.256L351.272 408.752C352.232 410.528 353.192 412.808 353.504 414.248L352.016 414.872C351.68 413.408 350.792 411.032 349.88 409.256ZM347.264 397.208H352.472V407.336H347.264V405.848H350.96V398.696H347.264V397.208ZM344.984 413.984C346.76 413.456 349.376 412.592 351.92 411.728L352.184 413.168C349.928 414.032 347.6 414.92 345.704 415.616L344.984 413.984ZM346.616 397.208H348.128V413.84L346.616 414.2V397.208ZM339.176 400.952H346.04V402.608H339.176V400.952ZM342.2 395.84H343.856V417.896H342.2V395.84ZM342.104 401.984L343.28 402.32C342.632 406.112 341.216 410.96 339.584 413.432C339.392 412.952 338.96 412.28 338.648 411.896C340.136 409.64 341.552 405.416 342.104 401.984ZM343.784 404.552C344.288 405.008 346.184 407.048 346.592 407.552L345.608 409.088C345.104 408.152 343.544 406.16 342.944 405.416L343.784 404.552ZM357.464 398.048H358.976V401.096C358.976 405.944 358.352 412.88 351.392 417.92C351.152 417.608 350.576 417.08 350.216 416.816C356.936 412.064 357.464 405.56 357.464 401.072V398.048ZM356.72 408.008H358.208V415.736C358.208 415.88 358.232 416.048 358.328 416.12C358.4 416.192 358.544 416.24 358.736 416.24C358.88 416.24 359.096 416.24 359.288 416.24C359.504 416.24 359.672 416.216 359.792 416.12C359.864 416.024 359.96 415.808 360.008 415.544C360.056 415.112 360.104 414.08 360.08 412.88C360.368 413.144 360.92 413.432 361.328 413.576C361.304 414.752 361.208 416.072 361.112 416.528C360.992 417.032 360.8 417.32 360.488 417.512C360.224 417.68 359.816 417.776 359.432 417.776C359.144 417.776 358.592 417.776 358.376 417.776C357.896 417.776 357.44 417.68 357.128 417.392C356.792 417.08 356.72 416.72 356.72 415.64V408.008ZM369.32 410.576H371.096V415.232C371.096 415.856 371.312 415.976 372.464 415.976C372.992 415.976 375.656 415.976 376.376 415.976C377.408 415.976 377.552 415.64 377.648 413.048C378.056 413.36 378.8 413.624 379.304 413.744C379.064 416.864 378.56 417.608 376.52 417.608C376.04 417.608 372.8 417.608 372.32 417.608C369.92 417.608 369.32 417.104 369.32 415.232V410.576ZM370.52 409.088L371.624 407.888C373.4 408.68 375.44 410 376.4 411.104L375.2 412.4C374.264 411.296 372.272 409.904 370.52 409.088ZM378.872 411.152L380.36 410.264C382.184 411.896 384.152 414.176 384.944 415.856L383.312 416.84C382.568 415.208 380.696 412.832 378.872 411.152ZM366.32 410.48L367.928 411.008C367.352 413.264 366.368 415.664 364.448 417.056L362.984 416.024C364.736 414.776 365.792 412.592 366.32 410.48ZM366.176 404.288H379.808V405.848H366.176V404.288ZM369.584 401.072H378.32V402.536H369.584V401.072ZM373.856 397.472C371.816 399.872 367.88 402.512 363.92 404.12C363.704 403.688 363.272 402.992 362.912 402.584C366.944 401.072 370.88 398.36 372.824 395.888H374.672C377.288 398.72 381.368 401.144 385.064 402.32C384.656 402.776 384.224 403.448 383.96 403.952C380.408 402.584 376.16 400.016 373.856 397.472ZM379.28 404.288H379.64L379.952 404.192L381.152 404.936C380.24 406.808 378.632 409.04 377.336 410.48C376.976 410.216 376.376 409.832 375.944 409.64C377.192 408.296 378.608 406.112 379.28 404.624V404.288ZM398 402.968C397.016 402.968 396.176 402.248 396.176 401.168C396.176 400.064 397.016 399.344 398 399.344C398.96 399.344 399.8 400.064 399.8 401.168C399.8 402.248 398.96 402.968 398 402.968ZM398 414.704C397.016 414.704 396.176 414.008 396.176 412.904C396.176 411.8 397.016 411.104 398 411.104C398.96 411.104 399.8 411.8 399.8 412.904C399.8 414.008 398.96 414.704 398 414.704ZM415.112 404.456H429.056V406.136H415.112V404.456ZM415.112 409.664H429.056V411.344H415.112V409.664ZM415.112 414.92H429.056V416.6H415.112V414.92ZM413.888 399.128H430.448V417.824H428.576V400.856H415.712V417.944H413.888V399.128ZM420.92 395.816L423.008 396.08C422.48 397.52 421.856 399.08 421.328 400.112L419.72 399.8C420.152 398.672 420.68 396.992 420.92 395.816ZM446 400.952H456.608V402.656H446V400.952ZM451.688 401.576C452.48 405.752 454.208 409.04 457.304 410.576C456.896 410.936 456.344 411.608 456.08 412.112C452.816 410.216 451.04 406.616 450.152 401.864L451.688 401.576ZM438.392 401.36L439.208 400.304C440.816 401.024 442.784 402.176 443.792 402.968L442.952 404.168C441.968 403.328 439.976 402.128 438.392 401.36ZM452.48 396.968L453.776 396.224C454.808 397.208 455.984 398.6 456.512 399.536L455.144 400.4C454.616 399.464 453.488 398 452.48 396.968ZM436.256 404.048L437.264 403.064C438.848 403.976 440.816 405.296 441.8 406.256L440.744 407.336C439.784 406.376 437.864 404.984 436.256 404.048ZM440.12 395.672L441.848 396.128C440.576 399.416 438.44 403.064 435.728 405.368C435.416 405.008 434.864 404.48 434.48 404.192C437.072 402.08 439.136 398.624 440.12 395.672ZM444.608 398H444.968L445.304 397.928L446.432 398.408C444.92 405.608 441.2 410.048 436.592 412.328C436.376 411.896 435.728 411.2 435.344 410.912C439.832 408.872 443.36 404.792 444.608 398.36V398ZM442.28 413.288L443.936 413.12C444.248 414.536 444.512 416.36 444.536 417.464L442.76 417.728C442.76 416.6 442.568 414.728 442.28 413.288ZM447.176 413.288L448.856 413C449.504 414.368 450.152 416.24 450.392 417.368L448.616 417.752C448.4 416.6 447.8 414.728 447.176 413.288ZM452.096 413.144L453.776 412.568C455 414.008 456.392 416.024 457.04 417.32L455.24 417.968C454.664 416.696 453.296 414.632 452.096 413.144ZM438.032 412.664L439.736 413.096C439.16 414.872 438.128 416.792 436.856 417.944L435.224 417.248C436.4 416.216 437.48 414.416 438.032 412.664ZM440.072 398H445.256V399.488H439.16L440.072 398ZM449.912 396.128H451.64V400.808C451.64 404.648 450.824 408.92 445.208 411.944C444.92 411.536 444.368 411.008 443.936 410.672C449.264 407.864 449.912 404.024 449.912 400.808V396.128ZM464.552 417.344C462.992 415.448 460.928 413.408 459.224 412.016L460.784 410.648C462.512 412.04 464.672 414.2 466.184 415.952L464.552 417.344ZM484.496 397.472H503.408V399.248H484.496V397.472ZM483.248 407.672H504.776V409.472H483.248V407.672ZM486.176 400.904L487.784 400.4C488.768 402.152 489.752 404.432 490.088 405.848L488.36 406.424C488.024 405.008 487.088 402.68 486.176 400.904ZM500.096 400.304L502.016 400.832C501.104 402.776 499.976 405.08 499.04 406.52L497.504 406.016C498.392 404.504 499.52 402.032 500.096 400.304ZM493.016 398.168H494.864V417.92H493.016V398.168ZM519.392 413.144H526.832V414.872H519.392V413.144ZM518.72 398.096H527.672V416.696H525.848V399.8H520.472V416.864H518.72V398.096ZM511.904 397.88H513.704V417.896H511.904V397.88ZM507.2 402.944H517.904V404.624H507.2V402.944ZM511.808 403.544L513.08 404C511.952 407.72 509.744 412.16 507.584 414.464C507.392 413.96 506.936 413.24 506.624 412.808C508.64 410.744 510.848 406.856 511.808 403.544ZM516.512 396.08L517.736 397.472C515.168 398.432 511.232 399.128 507.944 399.512C507.848 399.104 507.632 398.504 507.416 398.096C510.608 397.664 514.424 396.944 516.512 396.08ZM513.56 405.104C514.328 405.872 517.112 409.136 517.736 409.928L516.632 411.392C515.864 410.12 513.536 407.048 512.648 405.992L513.56 405.104ZM533.312 416.336C532.448 416.336 531.752 415.64 531.752 414.656C531.752 413.648 532.448 412.976 533.312 412.976C534.2 412.976 534.92 413.648 534.92 414.656C534.92 415.64 534.2 416.336 533.312 416.336ZM539.992 416.336C539.128 416.336 538.432 415.64 538.432 414.656C538.432 413.648 539.128 412.976 539.992 412.976C540.88 412.976 541.6 413.648 541.6 414.656C541.6 415.64 540.88 416.336 539.992 416.336ZM546.671 416.336C545.807 416.336 545.111 415.64 545.111 414.656C545.111 413.648 545.807 412.976 546.671 412.976C547.559 412.976 548.279 413.648 548.279 414.656C548.279 415.64 547.559 416.336 546.671 416.336ZM552.343 400.88C553.231 400.976 554.263 401.024 555.295 401.024C557.887 401.024 560.911 400.712 563.671 399.8L563.719 401.576C561.367 402.224 558.223 402.752 555.295 402.728C554.407 402.728 553.375 402.704 552.487 402.68L552.343 400.88ZM560.863 396.968C560.551 398.144 560.047 400.4 559.471 402.104C558.319 405.56 556.111 409.928 554.119 412.616L552.271 411.656C554.407 409.16 556.639 404.888 557.623 402.056C558.151 400.544 558.679 398.432 558.751 396.752L560.863 396.968ZM566.527 404.384C566.455 405.368 566.455 406.088 566.479 406.952C566.527 408.512 566.743 412.16 566.743 413.744C566.743 415.664 565.519 417.224 562.543 417.224C559.903 417.224 557.767 416.168 557.767 413.768C557.767 411.56 559.855 410.168 562.543 410.168C566.575 410.168 569.671 412.184 571.639 413.888L570.631 415.52C568.783 413.84 566.023 411.704 562.495 411.704C560.719 411.704 559.519 412.52 559.519 413.624C559.519 414.728 560.455 415.496 562.327 415.496C564.319 415.496 564.991 414.44 564.991 413.144C564.991 411.32 564.727 407.024 564.631 404.384H566.527ZM571.327 405.008C570.031 403.904 567.415 402.44 565.831 401.696L566.791 400.256C568.543 401 571.255 402.56 572.407 403.424L571.327 405.008ZM592.279 402.32C591.727 402.656 591.127 402.968 590.431 403.328C588.799 404.168 586.135 405.416 583.783 406.976C581.551 408.44 580.207 410.024 580.207 411.824C580.207 413.816 582.103 415.064 585.895 415.064C588.511 415.064 591.727 414.728 593.599 414.248L593.575 416.408C591.775 416.72 588.991 416.984 585.991 416.984C581.479 416.984 578.215 415.64 578.215 412.04C578.215 409.448 579.967 407.408 582.775 405.536C585.223 403.904 588.031 402.584 589.591 401.72C590.287 401.312 590.815 401 591.319 400.568L592.279 402.32ZM580.783 397.64C581.887 400.712 583.351 403.712 584.479 405.632L582.823 406.64C581.623 404.672 580.183 401.432 578.887 398.456L580.783 397.64ZM592.687 397.4C593.287 398.288 594.151 399.728 594.631 400.712L593.335 401.312C592.855 400.328 592.063 398.864 591.391 397.952L592.687 397.4ZM595.327 396.44C595.951 397.328 596.887 398.84 597.343 399.728L596.047 400.304C595.519 399.272 594.751 397.88 594.055 396.992L595.327 396.44Z" fill="black"/>
</svg>
