<svg width="866" height="539" viewBox="0 0 866 539" fill="none" xmlns="http://www.w3.org/2000/svg">
<rect width="866" height="539" fill="#F2F2F2"/>
<rect x="93" y="241" width="400" height="64" fill="#FFF4CC"/>
<rect x="493" y="241" width="140" height="64" fill="#606C38"/>
<rect x="633" y="241" width="32" height="64" fill="#F69D4C"/>
<path d="M129.824 188.596C130.636 189.772 131.84 191.788 132.484 193.076L129.964 194.168C129.152 192.404 128.424 191.06 127.388 189.604L129.824 188.596ZM133.576 187.056C134.416 188.176 135.676 190.164 136.32 191.424L133.856 192.6C132.96 190.836 132.204 189.576 131.168 188.176L133.576 187.056ZM110.98 200.048C111.792 199.348 112.408 198.76 113.276 197.892C114.536 196.632 116.72 193.888 118.652 191.592C120.332 189.604 121.984 189.296 124.14 191.34C126.044 193.132 128.172 195.344 129.852 197.164C131.728 199.18 134.612 202.26 136.768 204.556L133.66 207.888C131.784 205.564 129.432 202.652 127.78 200.72C126.128 198.788 123.664 196.072 122.656 195.036C121.732 194.14 121.144 194.196 120.36 195.204C119.24 196.632 117.28 199.376 116.132 200.916C115.488 201.784 114.844 202.792 114.34 203.52L110.98 200.048ZM140.548 195.036C141.584 195.12 143.6 195.232 145.056 195.232C148.36 195.232 157.6 195.232 160.092 195.232C161.408 195.232 162.64 195.092 163.396 195.036V199.46C162.724 199.432 161.296 199.292 160.12 199.292C157.572 199.292 148.36 199.292 145.056 199.292C143.488 199.292 141.612 199.376 140.548 199.46V195.036ZM187.929 189.044C187.705 189.352 187.201 190.192 186.949 190.78C185.801 193.44 183.729 197.248 181.321 200.048C178.185 203.66 173.957 207.132 169.617 209.176L166.705 206.152C171.241 204.472 175.553 201.056 178.185 198.144C180.033 196.044 181.741 193.272 182.385 191.284C181.209 191.284 174.069 191.284 172.865 191.284C171.717 191.284 170.177 191.424 169.561 191.48V187.476C170.317 187.588 172.053 187.672 172.865 187.672C174.349 187.672 181.517 187.672 182.749 187.672C183.981 187.672 185.073 187.532 185.661 187.336L187.929 189.044ZM181.685 197.724C184.569 200.076 188.545 204.248 190.365 206.488L187.173 209.26C185.101 206.376 182.049 203.044 179.053 200.328L181.685 197.724ZM207.501 185.544C207.417 186.216 207.333 187.392 207.305 188.064C206.997 199.18 204.365 204.864 198.177 209.26L194.901 206.628C196.077 205.984 197.477 205.06 198.597 203.912C202.265 200.272 203.553 195.512 203.581 188.12C203.581 187.504 203.469 186.216 203.357 185.544H207.501ZM216.993 191.564C216.909 192.012 216.825 192.712 216.825 193.02C216.713 196.072 216.349 203.884 215.145 206.74C214.557 208.14 213.465 208.896 211.561 208.896C209.937 208.896 208.285 208.756 206.913 208.644L206.465 204.92C207.865 205.144 209.293 205.312 210.413 205.312C211.309 205.312 211.701 205.004 211.981 204.304C212.793 202.54 213.185 196.94 213.185 193.916H199.521C198.569 193.916 197.001 193.944 195.825 194.056V190.36C197.001 190.5 198.429 190.556 199.493 190.556H212.457C213.185 190.556 213.913 190.5 214.585 190.36L216.993 191.564ZM226.849 186.524C227.605 186.636 228.809 186.692 229.761 186.692C231.525 186.692 238.889 186.692 240.513 186.692C241.409 186.692 242.781 186.636 243.537 186.524V190.164C242.809 190.108 241.493 190.052 240.457 190.052C238.917 190.052 231.413 190.052 229.761 190.052C228.837 190.052 227.661 190.08 226.849 190.164V186.524ZM245.917 194.672C245.721 195.036 245.469 195.54 245.385 195.82C244.517 198.536 243.313 201.28 241.241 203.576C238.413 206.74 234.829 208.616 231.245 209.652L228.445 206.488C232.673 205.592 236.005 203.772 238.161 201.56C239.645 200.048 240.541 198.284 241.017 196.744C239.617 196.744 230.013 196.744 227.521 196.744C226.821 196.744 225.421 196.772 224.245 196.856V193.216C225.449 193.328 226.625 193.412 227.521 193.412C229.425 193.412 239.449 193.412 241.353 193.412C242.277 193.412 243.033 193.3 243.425 193.104L245.917 194.672ZM251.153 195.036C252.189 195.12 254.205 195.232 255.661 195.232C258.965 195.232 268.205 195.232 270.697 195.232C272.013 195.232 273.245 195.092 274.001 195.036V199.46C273.329 199.432 271.901 199.292 270.725 199.292C268.177 199.292 258.965 199.292 255.661 199.292C254.093 199.292 252.217 199.376 251.153 199.46V195.036ZM290.605 193.58C289.121 193.58 287.917 192.46 287.917 190.948C287.917 189.408 289.121 188.288 290.605 188.288C292.061 188.288 293.265 189.408 293.265 190.948C293.265 192.46 292.061 193.58 290.605 193.58ZM290.605 206.936C289.121 206.936 287.917 205.816 287.917 204.304C287.917 202.764 289.121 201.644 290.605 201.644C292.061 201.644 293.265 202.764 293.265 204.304C293.265 205.816 292.061 206.936 290.605 206.936ZM309.785 208C310.177 200.832 311.353 196.212 315.329 190.724H306.005V187.28H319.753V189.772C314.937 195.652 314.321 199.908 313.957 208H309.785ZM329.381 208.392C325.153 208.392 322.353 204.724 322.353 197.556C322.353 190.416 325.153 186.916 329.381 186.916C333.581 186.916 336.381 190.416 336.381 197.556C336.381 204.724 333.581 208.392 329.381 208.392ZM329.381 205.172C331.173 205.172 332.489 203.38 332.489 197.556C332.489 191.76 331.173 190.08 329.381 190.08C327.589 190.08 326.245 191.76 326.245 197.556C326.245 203.38 327.589 205.172 329.381 205.172ZM343.573 200.048C340.605 200.048 338.505 197.584 338.505 193.44C338.505 189.296 340.605 186.916 343.573 186.916C346.541 186.916 348.641 189.296 348.641 193.44C348.641 197.584 346.541 200.048 343.573 200.048ZM343.573 197.724C344.777 197.724 345.701 196.464 345.701 193.44C345.701 190.388 344.777 189.24 343.573 189.24C342.341 189.24 341.417 190.388 341.417 193.44C341.417 196.464 342.341 197.724 343.573 197.724ZM344.245 208.392L355.501 186.916H357.965L346.681 208.392H344.245ZM358.637 208.392C355.697 208.392 353.597 205.956 353.597 201.784C353.597 197.64 355.697 195.232 358.637 195.232C361.577 195.232 363.677 197.64 363.677 201.784C363.677 205.956 361.577 208.392 358.637 208.392ZM358.637 206.068C359.841 206.068 360.793 204.836 360.793 201.784C360.793 198.732 359.841 197.584 358.637 197.584C357.433 197.584 356.481 198.732 356.481 201.784C356.481 204.836 357.433 206.068 358.637 206.068Z" fill="black"/>
<path d="M432.604 372.42C432.212 373.064 431.68 374.296 431.428 374.968C430.364 377.74 428.656 381.436 426.332 384.46C423.728 387.82 420.284 391.432 414.852 394.428L411.744 391.572C416.84 389.136 420.34 386.028 423.308 382.164C425.52 379.252 426.78 376.368 427.76 373.568C428.012 372.84 428.292 371.692 428.432 370.992L432.604 372.42ZM417.204 375.136C419.976 376.872 423.812 379.532 426.164 381.38C429.16 383.704 432.1 386.336 434.368 388.744L431.484 391.964C429.048 389.108 426.584 386.812 423.616 384.348C421.6 382.668 418.324 380.148 414.796 377.992L417.204 375.136ZM438.736 382.136C443.748 380.848 447.836 379.028 450.972 377.096C453.828 375.332 457.02 372.532 458.84 370.32L461.864 373.176C459.316 375.752 455.9 378.384 452.596 380.372C449.432 382.248 444.896 384.348 440.472 385.664L438.736 382.136ZM450.384 378.916L454.36 377.964V390.592C454.36 391.824 454.416 393.56 454.612 394.26H450.16C450.272 393.588 450.384 391.824 450.384 390.592V378.916ZM471.748 371.72C473.68 373.036 477.32 375.948 478.972 377.656L476.116 380.568C474.66 379 471.132 375.948 469.088 374.548L471.748 371.72ZM468.22 390.368C472.616 389.752 476.228 388.324 478.944 386.728C483.732 383.872 487.372 379.616 489.164 375.836L491.32 379.756C489.22 383.564 485.496 387.428 480.988 390.144C478.132 391.852 474.52 393.392 470.6 394.064L468.22 390.368ZM507.896 370.544C507.812 371.216 507.728 372.392 507.7 373.064C507.392 384.18 504.76 389.864 498.572 394.26L495.296 391.628C496.472 390.984 497.872 390.06 498.992 388.912C502.66 385.272 503.948 380.512 503.976 373.12C503.976 372.504 503.864 371.216 503.752 370.544H507.896ZM517.388 376.564C517.304 377.012 517.22 377.712 517.22 378.02C517.108 381.072 516.744 388.884 515.54 391.74C514.952 393.14 513.86 393.896 511.956 393.896C510.332 393.896 508.68 393.756 507.308 393.644L506.86 389.92C508.26 390.144 509.688 390.312 510.808 390.312C511.704 390.312 512.096 390.004 512.376 389.304C513.188 387.54 513.58 381.94 513.58 378.916H499.916C498.964 378.916 497.396 378.944 496.22 379.056V375.36C497.396 375.5 498.824 375.556 499.888 375.556H512.852C513.58 375.556 514.308 375.5 514.98 375.36L517.388 376.564ZM527.244 371.524C528 371.636 529.204 371.692 530.156 371.692C531.92 371.692 539.284 371.692 540.908 371.692C541.804 371.692 543.176 371.636 543.932 371.524V375.164C543.204 375.108 541.888 375.052 540.852 375.052C539.312 375.052 531.808 375.052 530.156 375.052C529.232 375.052 528.056 375.08 527.244 375.164V371.524ZM546.312 379.672C546.116 380.036 545.864 380.54 545.78 380.82C544.912 383.536 543.708 386.28 541.636 388.576C538.808 391.74 535.224 393.616 531.64 394.652L528.84 391.488C533.068 390.592 536.4 388.772 538.556 386.56C540.04 385.048 540.936 383.284 541.412 381.744C540.012 381.744 530.408 381.744 527.916 381.744C527.216 381.744 525.816 381.772 524.64 381.856V378.216C525.844 378.328 527.02 378.412 527.916 378.412C529.82 378.412 539.844 378.412 541.748 378.412C542.672 378.412 543.428 378.3 543.82 378.104L546.312 379.672ZM551.548 380.036C552.584 380.12 554.6 380.232 556.056 380.232C559.36 380.232 568.6 380.232 571.092 380.232C572.408 380.232 573.64 380.092 574.396 380.036V384.46C573.724 384.432 572.296 384.292 571.12 384.292C568.572 384.292 559.36 384.292 556.056 384.292C554.488 384.292 552.612 384.376 551.548 384.46V380.036ZM591 378.58C589.516 378.58 588.312 377.46 588.312 375.948C588.312 374.408 589.516 373.288 591 373.288C592.456 373.288 593.66 374.408 593.66 375.948C593.66 377.46 592.456 378.58 591 378.58ZM591 391.936C589.516 391.936 588.312 390.816 588.312 389.304C588.312 387.764 589.516 386.644 591 386.644C592.456 386.644 593.66 387.764 593.66 389.304C593.66 390.816 592.456 391.936 591 391.936ZM610.18 393C610.572 385.832 611.748 381.212 615.724 375.724H606.4V372.28H620.148V374.772C615.332 380.652 614.716 384.908 614.352 393H610.18ZM629.776 393.392C625.548 393.392 622.748 389.724 622.748 382.556C622.748 375.416 625.548 371.916 629.776 371.916C633.976 371.916 636.776 375.416 636.776 382.556C636.776 389.724 633.976 393.392 629.776 393.392ZM629.776 390.172C631.568 390.172 632.884 388.38 632.884 382.556C632.884 376.76 631.568 375.08 629.776 375.08C627.984 375.08 626.64 376.76 626.64 382.556C626.64 388.38 627.984 390.172 629.776 390.172ZM643.967 385.048C640.999 385.048 638.899 382.584 638.899 378.44C638.899 374.296 640.999 371.916 643.967 371.916C646.935 371.916 649.035 374.296 649.035 378.44C649.035 382.584 646.935 385.048 643.967 385.048ZM643.967 382.724C645.171 382.724 646.095 381.464 646.095 378.44C646.095 375.388 645.171 374.24 643.967 374.24C642.735 374.24 641.811 375.388 641.811 378.44C641.811 381.464 642.735 382.724 643.967 382.724ZM644.639 393.392L655.895 371.916H658.359L647.075 393.392H644.639ZM659.031 393.392C656.091 393.392 653.991 390.956 653.991 386.784C653.991 382.64 656.091 380.232 659.031 380.232C661.971 380.232 664.071 382.64 664.071 386.784C664.071 390.956 661.971 393.392 659.031 393.392ZM659.031 391.068C660.235 391.068 661.187 389.836 661.187 386.784C661.187 383.732 660.235 382.584 659.031 382.584C657.827 382.584 656.875 383.732 656.875 386.784C656.875 389.836 657.827 391.068 659.031 391.068Z" fill="black"/>
<path d="M519.712 128.072C519.432 128.436 518.9 129.108 518.648 129.5C517.332 131.684 514.672 135.24 511.9 137.2L508.988 134.876C511.256 133.504 513.44 131.04 514.168 129.668C512.46 129.668 501.316 129.668 499.552 129.668C498.404 129.668 497.452 129.724 496.136 129.864V125.944C497.228 126.112 498.404 126.252 499.552 126.252C501.316 126.252 513.188 126.252 514.644 126.252C515.428 126.252 516.968 126.14 517.5 126L519.712 128.072ZM508.316 131.824C508.316 138.768 508.148 144.48 500.532 148.596L497.256 145.936C498.18 145.628 499.188 145.152 500.224 144.368C503.752 141.904 504.424 138.964 504.424 134.372C504.424 133.476 504.396 132.748 504.256 131.824H508.316ZM544.777 129.612C544.469 130.144 544.077 130.9 543.853 131.6C543.097 134.12 541.501 137.844 538.953 140.952C536.293 144.2 532.933 146.776 527.669 148.848L524.365 145.908C530.077 144.172 533.185 141.736 535.649 138.964C537.553 136.78 539.177 133.42 539.625 131.348H530.189L531.477 128.156C532.709 128.156 538.589 128.156 539.457 128.156C540.325 128.156 541.277 128.044 541.893 127.82L544.777 129.612ZM535.649 125.16C534.977 126.14 534.249 127.428 533.941 128.016C532.037 131.404 528.705 135.352 524.673 138.096L521.537 135.772C526.437 132.776 528.901 129.164 530.273 126.756C530.693 126.084 531.281 124.796 531.533 123.816L535.649 125.16ZM555.501 143.276C555.501 140.98 555.501 131.516 555.501 128.128C555.501 127.176 555.417 125.748 555.277 124.908H559.449C559.309 125.748 559.197 127.176 559.197 128.128C559.197 131.488 559.197 139.188 559.197 142.296C559.197 144.06 559.701 144.648 562.753 144.648C565.693 144.648 568.829 144.284 571.601 143.724L571.461 147.532C569.165 147.868 565.805 148.12 562.781 148.12C556.425 148.12 555.501 146.608 555.501 143.276ZM573.113 130.984C572.861 131.376 572.469 132.02 572.217 132.496C570.985 134.848 568.437 138.684 566.421 140.672L563.341 138.852C565.189 137.2 567.009 134.624 567.793 133.168C566.085 133.504 553.149 136.08 549.593 136.864L548.921 133.196C552.729 132.748 565.889 130.172 568.437 129.556C569.221 129.36 569.921 129.164 570.425 128.884L573.113 130.984ZM582.353 125.72C584.285 127.036 587.925 129.948 589.577 131.656L586.721 134.568C585.265 133 581.737 129.948 579.693 128.548L582.353 125.72ZM578.825 144.368C583.221 143.752 586.833 142.324 589.549 140.728C594.337 137.872 597.977 133.616 599.769 129.836L601.925 133.756C599.825 137.564 596.101 141.428 591.593 144.144C588.737 145.852 585.125 147.392 581.205 148.064L578.825 144.368ZM612.369 144.34C612.369 142.184 612.369 130.592 612.369 128.24C612.369 127.232 612.285 125.86 612.089 124.852H616.457C616.345 125.86 616.205 127.064 616.205 128.24C616.205 131.32 616.233 142.268 616.233 144.34C616.233 145.124 616.345 147.084 616.485 148.232H612.089C612.285 147.14 612.369 145.432 612.369 144.34ZM615.393 132.104C619.117 133.14 625.165 135.352 627.909 136.696L626.341 140.588C623.149 138.936 618.445 137.144 615.393 136.136V132.104ZM646.501 124.544C646.417 125.216 646.333 126.392 646.305 127.064C645.997 138.18 643.365 143.864 637.177 148.26L633.901 145.628C635.077 144.984 636.477 144.06 637.597 142.912C641.265 139.272 642.553 134.512 642.581 127.12C642.581 126.504 642.469 125.216 642.357 124.544H646.501ZM655.993 130.564C655.909 131.012 655.825 131.712 655.825 132.02C655.713 135.072 655.349 142.884 654.145 145.74C653.557 147.14 652.465 147.896 650.561 147.896C648.937 147.896 647.285 147.756 645.913 147.644L645.465 143.92C646.865 144.144 648.293 144.312 649.413 144.312C650.309 144.312 650.701 144.004 650.981 143.304C651.793 141.54 652.185 135.94 652.185 132.916H638.521C637.569 132.916 636.001 132.944 634.825 133.056V129.36C636.001 129.5 637.429 129.556 638.493 129.556H651.457C652.185 129.556 652.913 129.5 653.585 129.36L655.993 130.564ZM665.849 125.524C666.605 125.636 667.809 125.692 668.761 125.692C670.525 125.692 677.889 125.692 679.513 125.692C680.409 125.692 681.781 125.636 682.537 125.524V129.164C681.809 129.108 680.493 129.052 679.457 129.052C677.917 129.052 670.413 129.052 668.761 129.052C667.837 129.052 666.661 129.08 665.849 129.164V125.524ZM684.917 133.672C684.721 134.036 684.469 134.54 684.385 134.82C683.517 137.536 682.313 140.28 680.241 142.576C677.413 145.74 673.829 147.616 670.245 148.652L667.445 145.488C671.673 144.592 675.005 142.772 677.161 140.56C678.645 139.048 679.541 137.284 680.017 135.744C678.617 135.744 669.013 135.744 666.521 135.744C665.821 135.744 664.421 135.772 663.245 135.856V132.216C664.449 132.328 665.625 132.412 666.521 132.412C668.425 132.412 678.449 132.412 680.353 132.412C681.277 132.412 682.033 132.3 682.425 132.104L684.917 133.672ZM690.153 134.036C691.189 134.12 693.205 134.232 694.661 134.232C697.965 134.232 707.205 134.232 709.697 134.232C711.013 134.232 712.245 134.092 713.001 134.036V138.46C712.329 138.432 710.901 138.292 709.725 138.292C707.177 138.292 697.965 138.292 694.661 138.292C693.093 138.292 691.217 138.376 690.153 138.46V134.036ZM729.605 132.58C728.121 132.58 726.917 131.46 726.917 129.948C726.917 128.408 728.121 127.288 729.605 127.288C731.061 127.288 732.265 128.408 732.265 129.948C732.265 131.46 731.061 132.58 729.605 132.58ZM729.605 145.936C728.121 145.936 726.917 144.816 726.917 143.304C726.917 141.764 728.121 140.644 729.605 140.644C731.061 140.644 732.265 141.764 732.265 143.304C732.265 144.816 731.061 145.936 729.605 145.936ZM748.785 147C749.177 139.832 750.353 135.212 754.329 129.724H745.005V126.28H758.753V128.772C753.937 134.652 753.321 138.908 752.957 147H748.785ZM768.381 147.392C764.153 147.392 761.353 143.724 761.353 136.556C761.353 129.416 764.153 125.916 768.381 125.916C772.581 125.916 775.381 129.416 775.381 136.556C775.381 143.724 772.581 147.392 768.381 147.392ZM768.381 144.172C770.173 144.172 771.489 142.38 771.489 136.556C771.489 130.76 770.173 129.08 768.381 129.08C766.589 129.08 765.245 130.76 765.245 136.556C765.245 142.38 766.589 144.172 768.381 144.172ZM782.573 139.048C779.605 139.048 777.505 136.584 777.505 132.44C777.505 128.296 779.605 125.916 782.573 125.916C785.541 125.916 787.641 128.296 787.641 132.44C787.641 136.584 785.541 139.048 782.573 139.048ZM782.573 136.724C783.777 136.724 784.701 135.464 784.701 132.44C784.701 129.388 783.777 128.24 782.573 128.24C781.341 128.24 780.417 129.388 780.417 132.44C780.417 135.464 781.341 136.724 782.573 136.724ZM783.245 147.392L794.501 125.916H796.965L785.681 147.392H783.245ZM797.637 147.392C794.697 147.392 792.597 144.956 792.597 140.784C792.597 136.64 794.697 134.232 797.637 134.232C800.577 134.232 802.677 136.64 802.677 140.784C802.677 144.956 800.577 147.392 797.637 147.392ZM797.637 145.068C798.841 145.068 799.793 143.836 799.793 140.784C799.793 137.732 798.841 136.584 797.637 136.584C796.433 136.584 795.481 137.732 795.481 140.784C795.481 143.836 796.433 145.068 797.637 145.068Z" fill="black"/>
<line x1="205" y1="241" x2="205" y2="213" stroke="#737373" stroke-width="2"/>
<line x1="562" y1="363" x2="562" y2="305" stroke="#737373" stroke-width="2"/>
<line x1="648" y1="241" x2="648" y2="155" stroke="#737373" stroke-width="2"/>
</svg>
