<svg width="866" height="539" viewBox="0 0 866 539" fill="none" xmlns="http://www.w3.org/2000/svg">
<rect width="866" height="539" fill="#F2F2F2"/>
<mask id="path-1-outside-1_243_301" maskUnits="userSpaceOnUse" x="180" y="233" width="220" height="51" fill="black">
<rect fill="white" x="180" y="233" width="220" height="51"/>
<path d="M198.552 261.528C198.637 263.704 199.32 265.453 200.6 266.776C201.923 268.099 203.864 268.76 206.424 268.76C207.832 268.76 209.091 268.504 210.2 267.992C211.309 267.437 212.333 266.627 213.272 265.56C216.899 266.968 221.144 268.184 226.008 269.208C224.6 272.493 222.211 275.053 218.84 276.888C215.512 278.723 211.181 279.64 205.848 279.64C198.723 279.64 193.453 277.976 190.04 274.648C186.627 271.32 184.92 266.947 184.92 261.528C184.92 256.109 186.627 251.736 190.04 248.408C193.453 245.08 198.723 243.416 205.848 243.416C211.181 243.416 215.512 244.333 218.84 246.168C222.211 248.003 224.6 250.563 226.008 253.848C222.211 254.659 217.965 255.875 213.272 257.496C212.333 256.429 211.309 255.64 210.2 255.128C209.091 254.573 207.832 254.296 206.424 254.296C203.864 254.296 201.923 254.957 200.6 256.28C199.32 257.603 198.637 259.352 198.552 261.528ZM251.418 279.64C244.122 279.64 238.746 277.976 235.29 274.648C231.877 271.277 230.17 266.861 230.17 261.4C230.17 256.067 231.877 251.736 235.29 248.408C238.746 245.08 244.122 243.416 251.418 243.416C256.325 243.416 260.421 244.227 263.706 245.848C267.034 247.427 269.487 249.581 271.066 252.312C272.645 255 273.434 258.029 273.434 261.4C273.434 266.904 271.599 271.32 267.93 274.648C264.303 277.976 258.799 279.64 251.418 279.64ZM251.674 268.76C254.447 268.76 256.517 268.099 257.882 266.776C259.247 265.453 259.93 263.683 259.93 261.464C259.93 259.373 259.247 257.667 257.882 256.344C256.517 254.979 254.447 254.296 251.674 254.296C248.901 254.296 246.874 254.957 245.594 256.28C244.314 257.603 243.674 259.331 243.674 261.464C243.674 263.683 244.314 265.453 245.594 266.776C246.874 268.099 248.901 268.76 251.674 268.76ZM302.895 279C303.151 272.728 303.279 266.947 303.279 261.656C303.279 259.779 302.81 258.285 301.871 257.176C300.975 256.067 299.823 255.512 298.415 255.512C297.007 255.512 295.812 256.152 294.831 257.432C293.85 258.669 293.274 260.376 293.103 262.552C293.018 265.795 292.975 268.099 292.975 269.464C292.975 272.365 293.06 275.544 293.231 279H277.935C278.276 272.856 278.447 267.053 278.447 261.592C278.447 256.131 278.276 250.285 277.935 244.056C280.751 244.184 282.906 244.248 284.399 244.248C285.978 244.248 288.132 244.184 290.863 244.056L292.719 253.464C293.7 250.051 295.236 247.533 297.327 245.912C299.418 244.248 301.85 243.416 304.623 243.416C307.183 243.416 309.402 243.992 311.279 245.144C313.156 246.253 314.564 247.768 315.503 249.688C316.484 251.608 316.975 253.763 316.975 256.152V265.368C316.975 271.043 317.082 275.587 317.295 279H302.895ZM343.107 279.64C339.523 279.64 335.875 279.149 332.163 278.168C328.494 277.144 325.038 275.608 321.795 273.56L328.515 264.408C330.478 265.816 332.846 266.925 335.619 267.736C338.392 268.504 340.782 268.888 342.787 268.888C344.707 268.888 346.179 268.632 347.203 268.12C348.27 267.565 348.803 266.861 348.803 266.008C348.803 265.325 348.547 264.792 348.035 264.408C347.523 264.024 346.819 263.832 345.923 263.832C345.368 263.832 344.728 263.853 344.003 263.896C343.32 263.939 342.766 263.981 342.339 264.024C340.12 264.28 337.838 264.408 335.491 264.408C331.694 264.408 328.6 263.704 326.211 262.296C323.864 260.845 322.691 258.499 322.691 255.256C322.691 251.501 324.462 248.6 328.003 246.552C331.544 244.461 336.75 243.416 343.619 243.416C346.99 243.416 350.382 243.907 353.795 244.888C357.251 245.827 360.302 247.256 362.947 249.176L355.587 256.6C353.155 255.32 350.872 254.424 348.739 253.912C346.648 253.357 344.536 253.08 342.403 253.08C340.91 253.08 339.63 253.379 338.563 253.976C337.496 254.573 336.963 255.256 336.963 256.024C336.963 256.621 337.176 257.091 337.603 257.432C338.072 257.773 338.67 257.944 339.395 257.944C340.12 257.944 341.123 257.88 342.403 257.752C345.518 257.539 347.843 257.432 349.379 257.432C353.816 257.432 357.251 258.179 359.683 259.672C362.115 261.165 363.331 263.448 363.331 266.52C363.331 271.128 361.539 274.477 357.955 276.568C354.371 278.616 349.422 279.64 343.107 279.64ZM395.552 255.512C391.627 255.256 388.043 255.064 384.8 254.936L384.736 261.72C384.736 264.024 385.227 265.837 386.208 267.16C387.232 268.44 389.024 269.08 391.584 269.08C392.565 269.08 393.504 268.995 394.4 268.824C394.229 270.403 394.144 272.003 394.144 273.624C394.144 274.392 394.187 276.141 394.272 278.872C392.395 279.213 390.816 279.427 389.536 279.512C388.256 279.597 386.592 279.64 384.544 279.64C379.552 279.64 376.011 278.445 373.92 276.056C371.872 273.624 370.848 270.253 370.848 265.944L370.912 255.128C368.907 255.213 366.816 255.341 364.64 255.512V244.184C366.859 244.184 368.736 243.48 370.272 242.072C371.808 240.664 372.725 238.979 373.024 237.016H390.432C388.256 240.003 385.845 242.392 383.2 244.184H395.552V255.512Z"/>
</mask>
<path d="M198.552 261.528C198.637 263.704 199.32 265.453 200.6 266.776C201.923 268.099 203.864 268.76 206.424 268.76C207.832 268.76 209.091 268.504 210.2 267.992C211.309 267.437 212.333 266.627 213.272 265.56C216.899 266.968 221.144 268.184 226.008 269.208C224.6 272.493 222.211 275.053 218.84 276.888C215.512 278.723 211.181 279.64 205.848 279.64C198.723 279.64 193.453 277.976 190.04 274.648C186.627 271.32 184.92 266.947 184.92 261.528C184.92 256.109 186.627 251.736 190.04 248.408C193.453 245.08 198.723 243.416 205.848 243.416C211.181 243.416 215.512 244.333 218.84 246.168C222.211 248.003 224.6 250.563 226.008 253.848C222.211 254.659 217.965 255.875 213.272 257.496C212.333 256.429 211.309 255.64 210.2 255.128C209.091 254.573 207.832 254.296 206.424 254.296C203.864 254.296 201.923 254.957 200.6 256.28C199.32 257.603 198.637 259.352 198.552 261.528ZM251.418 279.64C244.122 279.64 238.746 277.976 235.29 274.648C231.877 271.277 230.17 266.861 230.17 261.4C230.17 256.067 231.877 251.736 235.29 248.408C238.746 245.08 244.122 243.416 251.418 243.416C256.325 243.416 260.421 244.227 263.706 245.848C267.034 247.427 269.487 249.581 271.066 252.312C272.645 255 273.434 258.029 273.434 261.4C273.434 266.904 271.599 271.32 267.93 274.648C264.303 277.976 258.799 279.64 251.418 279.64ZM251.674 268.76C254.447 268.76 256.517 268.099 257.882 266.776C259.247 265.453 259.93 263.683 259.93 261.464C259.93 259.373 259.247 257.667 257.882 256.344C256.517 254.979 254.447 254.296 251.674 254.296C248.901 254.296 246.874 254.957 245.594 256.28C244.314 257.603 243.674 259.331 243.674 261.464C243.674 263.683 244.314 265.453 245.594 266.776C246.874 268.099 248.901 268.76 251.674 268.76ZM302.895 279C303.151 272.728 303.279 266.947 303.279 261.656C303.279 259.779 302.81 258.285 301.871 257.176C300.975 256.067 299.823 255.512 298.415 255.512C297.007 255.512 295.812 256.152 294.831 257.432C293.85 258.669 293.274 260.376 293.103 262.552C293.018 265.795 292.975 268.099 292.975 269.464C292.975 272.365 293.06 275.544 293.231 279H277.935C278.276 272.856 278.447 267.053 278.447 261.592C278.447 256.131 278.276 250.285 277.935 244.056C280.751 244.184 282.906 244.248 284.399 244.248C285.978 244.248 288.132 244.184 290.863 244.056L292.719 253.464C293.7 250.051 295.236 247.533 297.327 245.912C299.418 244.248 301.85 243.416 304.623 243.416C307.183 243.416 309.402 243.992 311.279 245.144C313.156 246.253 314.564 247.768 315.503 249.688C316.484 251.608 316.975 253.763 316.975 256.152V265.368C316.975 271.043 317.082 275.587 317.295 279H302.895ZM343.107 279.64C339.523 279.64 335.875 279.149 332.163 278.168C328.494 277.144 325.038 275.608 321.795 273.56L328.515 264.408C330.478 265.816 332.846 266.925 335.619 267.736C338.392 268.504 340.782 268.888 342.787 268.888C344.707 268.888 346.179 268.632 347.203 268.12C348.27 267.565 348.803 266.861 348.803 266.008C348.803 265.325 348.547 264.792 348.035 264.408C347.523 264.024 346.819 263.832 345.923 263.832C345.368 263.832 344.728 263.853 344.003 263.896C343.32 263.939 342.766 263.981 342.339 264.024C340.12 264.28 337.838 264.408 335.491 264.408C331.694 264.408 328.6 263.704 326.211 262.296C323.864 260.845 322.691 258.499 322.691 255.256C322.691 251.501 324.462 248.6 328.003 246.552C331.544 244.461 336.75 243.416 343.619 243.416C346.99 243.416 350.382 243.907 353.795 244.888C357.251 245.827 360.302 247.256 362.947 249.176L355.587 256.6C353.155 255.32 350.872 254.424 348.739 253.912C346.648 253.357 344.536 253.08 342.403 253.08C340.91 253.08 339.63 253.379 338.563 253.976C337.496 254.573 336.963 255.256 336.963 256.024C336.963 256.621 337.176 257.091 337.603 257.432C338.072 257.773 338.67 257.944 339.395 257.944C340.12 257.944 341.123 257.88 342.403 257.752C345.518 257.539 347.843 257.432 349.379 257.432C353.816 257.432 357.251 258.179 359.683 259.672C362.115 261.165 363.331 263.448 363.331 266.52C363.331 271.128 361.539 274.477 357.955 276.568C354.371 278.616 349.422 279.64 343.107 279.64ZM395.552 255.512C391.627 255.256 388.043 255.064 384.8 254.936L384.736 261.72C384.736 264.024 385.227 265.837 386.208 267.16C387.232 268.44 389.024 269.08 391.584 269.08C392.565 269.08 393.504 268.995 394.4 268.824C394.229 270.403 394.144 272.003 394.144 273.624C394.144 274.392 394.187 276.141 394.272 278.872C392.395 279.213 390.816 279.427 389.536 279.512C388.256 279.597 386.592 279.64 384.544 279.64C379.552 279.64 376.011 278.445 373.92 276.056C371.872 273.624 370.848 270.253 370.848 265.944L370.912 255.128C368.907 255.213 366.816 255.341 364.64 255.512V244.184C366.859 244.184 368.736 243.48 370.272 242.072C371.808 240.664 372.725 238.979 373.024 237.016H390.432C388.256 240.003 385.845 242.392 383.2 244.184H395.552V255.512Z" fill="#606C38"/>
<path d="M198.552 261.528L194.555 261.371L194.549 261.528L194.555 261.685L198.552 261.528ZM200.6 266.776L197.726 269.558L197.748 269.581L197.772 269.604L200.6 266.776ZM210.2 267.992L211.876 271.624L211.933 271.598L211.989 271.57L210.2 267.992ZM213.272 265.56L214.72 261.831L212.115 260.82L210.269 262.917L213.272 265.56ZM226.008 269.208L229.685 270.784L231.607 266.299L226.832 265.294L226.008 269.208ZM218.84 276.888L216.928 273.375L216.918 273.38L216.909 273.385L218.84 276.888ZM190.04 274.648L187.248 277.512L190.04 274.648ZM190.04 248.408L192.832 251.272L190.04 248.408ZM218.84 246.168L216.909 249.671L216.918 249.676L216.928 249.681L218.84 246.168ZM226.008 253.848L226.843 257.76L231.601 256.744L229.685 252.272L226.008 253.848ZM213.272 257.496L210.269 260.139L212.042 262.153L214.578 261.277L213.272 257.496ZM210.2 255.128L208.411 258.706L208.467 258.734L208.524 258.76L210.2 255.128ZM200.6 256.28L197.772 253.452L197.748 253.475L197.726 253.498L200.6 256.28ZM194.555 261.685C194.672 264.654 195.639 267.402 197.726 269.558L203.474 263.994C203.001 263.505 202.603 262.754 202.549 261.371L194.555 261.685ZM197.772 269.604C200.087 271.919 203.203 272.76 206.424 272.76V264.76C204.525 264.76 203.759 264.278 203.428 263.948L197.772 269.604ZM206.424 272.76C208.323 272.76 210.167 272.413 211.876 271.624L208.524 264.36C208.014 264.595 207.341 264.76 206.424 264.76V272.76ZM211.989 271.57C213.622 270.753 215.045 269.6 216.275 268.203L210.269 262.917C209.622 263.653 208.997 264.121 208.411 264.414L211.989 271.57ZM211.824 269.289C215.7 270.794 220.163 272.065 225.184 273.122L226.832 265.294C222.125 264.303 218.097 263.142 214.72 261.831L211.824 269.289ZM222.331 267.632C221.304 270.029 219.572 271.936 216.928 273.375L220.752 280.401C224.85 278.171 227.896 274.957 229.685 270.784L222.331 267.632ZM216.909 273.385C214.363 274.789 210.764 275.64 205.848 275.64V283.64C211.599 283.64 216.661 282.657 220.771 280.391L216.909 273.385ZM205.848 275.64C199.257 275.64 195.2 274.092 192.832 271.784L187.248 277.512C191.707 281.86 198.188 283.64 205.848 283.64V275.64ZM192.832 271.784C190.299 269.314 188.92 266.029 188.92 261.528H180.92C180.92 267.864 182.954 273.326 187.248 277.512L192.832 271.784ZM188.92 261.528C188.92 257.027 190.299 253.742 192.832 251.272L187.248 245.544C182.954 249.73 180.92 255.192 180.92 261.528H188.92ZM192.832 251.272C195.2 248.964 199.257 247.416 205.848 247.416V239.416C198.188 239.416 191.707 241.196 187.248 245.544L192.832 251.272ZM205.848 247.416C210.764 247.416 214.363 248.267 216.909 249.671L220.771 242.665C216.661 240.399 211.599 239.416 205.848 239.416V247.416ZM216.928 249.681C219.572 251.12 221.304 253.027 222.331 255.424L229.685 252.272C227.896 248.099 224.85 244.885 220.752 242.655L216.928 249.681ZM225.173 249.936C221.179 250.789 216.773 252.055 211.966 253.715L214.578 261.277C219.157 259.695 223.242 258.529 226.843 257.76L225.173 249.936ZM216.275 254.853C215.027 253.436 213.568 252.277 211.876 251.496L208.524 258.76C209.051 259.003 209.639 259.423 210.269 260.139L216.275 254.853ZM211.989 251.55C210.253 250.682 208.368 250.296 206.424 250.296V258.296C207.296 258.296 207.928 258.464 208.411 258.706L211.989 251.55ZM206.424 250.296C203.203 250.296 200.087 251.137 197.772 253.452L203.428 259.108C203.759 258.778 204.525 258.296 206.424 258.296V250.296ZM197.726 253.498C195.639 255.654 194.672 258.402 194.555 261.371L202.549 261.685C202.603 260.302 203.001 259.551 203.474 259.062L197.726 253.498ZM235.29 274.648L232.479 277.494L232.497 277.512L232.515 277.529L235.29 274.648ZM235.29 248.408L232.515 245.527L232.506 245.535L232.498 245.544L235.29 248.408ZM263.706 245.848L261.936 249.435L261.964 249.449L261.992 249.462L263.706 245.848ZM271.066 252.312L267.603 254.314L267.61 254.326L267.617 254.338L271.066 252.312ZM267.93 274.648L265.243 271.685L265.234 271.693L265.226 271.701L267.93 274.648ZM257.882 256.344L255.054 259.172L255.076 259.195L255.099 259.217L257.882 256.344ZM245.594 256.28L242.72 253.498L245.594 256.28ZM245.594 266.776L248.468 263.994L245.594 266.776ZM251.418 275.64C244.63 275.64 240.467 274.08 238.065 271.767L232.515 277.529C237.025 281.872 243.614 283.64 251.418 283.64V275.64ZM238.101 271.802C235.556 269.289 234.17 265.953 234.17 261.4H226.17C226.17 267.77 228.197 273.266 232.479 277.494L238.101 271.802ZM234.17 261.4C234.17 257.005 235.536 253.754 238.082 251.272L232.498 245.544C228.217 249.718 226.17 255.129 226.17 261.4H234.17ZM238.065 251.289C240.467 248.976 244.63 247.416 251.418 247.416V239.416C243.614 239.416 237.025 241.184 232.515 245.527L238.065 251.289ZM251.418 247.416C255.909 247.416 259.355 248.161 261.936 249.435L265.476 242.261C261.486 240.292 256.74 239.416 251.418 239.416V247.416ZM261.992 249.462C264.713 250.753 266.495 252.398 267.603 254.314L274.529 250.31C272.48 246.765 269.355 244.1 265.42 242.234L261.992 249.462ZM267.617 254.338C268.806 256.362 269.434 258.682 269.434 261.4H277.434C277.434 257.377 276.484 253.638 274.515 250.286L267.617 254.338ZM269.434 261.4C269.434 265.915 267.978 269.204 265.243 271.685L270.617 277.611C275.221 273.436 277.434 267.893 277.434 261.4H269.434ZM265.226 271.701C262.631 274.081 258.286 275.64 251.418 275.64V283.64C259.313 283.64 265.975 281.871 270.634 277.595L265.226 271.701ZM251.674 272.76C255.012 272.76 258.271 271.968 260.665 269.649L255.099 263.903C254.762 264.229 253.882 264.76 251.674 264.76V272.76ZM260.665 269.649C262.939 267.446 263.93 264.569 263.93 261.464H255.93C255.93 262.796 255.556 263.46 255.099 263.903L260.665 269.649ZM263.93 261.464C263.93 258.41 262.89 255.626 260.665 253.471L255.099 259.217C255.605 259.707 255.93 260.337 255.93 261.464H263.93ZM260.71 253.516C258.32 251.125 255.043 250.296 251.674 250.296V258.296C253.852 258.296 254.713 258.832 255.054 259.172L260.71 253.516ZM251.674 250.296C248.361 250.296 245.062 251.077 242.72 253.498L248.468 259.062C248.686 258.837 249.44 258.296 251.674 258.296V250.296ZM242.72 253.498C240.603 255.686 239.674 258.47 239.674 261.464H247.674C247.674 260.191 248.025 259.52 248.468 259.062L242.72 253.498ZM239.674 261.464C239.674 264.494 240.574 267.341 242.72 269.558L248.468 263.994C248.054 263.566 247.674 262.871 247.674 261.464H239.674ZM242.72 269.558C245.062 271.979 248.361 272.76 251.674 272.76V264.76C249.44 264.76 248.686 264.219 248.468 263.994L242.72 269.558ZM302.895 279L298.898 278.837L298.728 283H302.895V279ZM301.871 257.176L298.759 259.689L298.788 259.725L298.817 259.76L301.871 257.176ZM294.831 257.432L297.965 259.918L297.985 259.892L298.005 259.866L294.831 257.432ZM293.103 262.552L289.115 262.239L289.107 262.343L289.104 262.447L293.103 262.552ZM293.231 279V283H297.433L297.226 278.803L293.231 279ZM277.935 279L273.941 278.778L273.707 283H277.935V279ZM277.935 244.056L278.117 240.06L273.699 239.859L273.941 244.275L277.935 244.056ZM290.863 244.056L294.787 243.282L294.12 239.899L290.676 240.06L290.863 244.056ZM292.719 253.464L288.795 254.238L296.563 254.569L292.719 253.464ZM297.327 245.912L299.778 249.073L299.798 249.057L299.818 249.042L297.327 245.912ZM311.279 245.144L309.187 248.553L309.215 248.571L309.244 248.588L311.279 245.144ZM315.503 249.688L311.909 251.445L311.925 251.477L311.941 251.508L315.503 249.688ZM317.295 279V283H321.553L321.287 278.75L317.295 279ZM306.892 279.163C307.149 272.846 307.279 267.01 307.279 261.656H299.279C299.279 266.883 299.153 272.61 298.898 278.837L306.892 279.163ZM307.279 261.656C307.279 259.114 306.634 256.613 304.925 254.592L298.817 259.76C298.985 259.958 299.279 260.443 299.279 261.656H307.279ZM304.983 254.663C303.339 252.627 301.049 251.512 298.415 251.512V259.512C298.503 259.512 298.554 259.521 298.576 259.525C298.587 259.528 298.594 259.53 298.596 259.531C298.599 259.532 298.6 259.532 298.6 259.532C298.6 259.532 298.602 259.533 298.605 259.535C298.609 259.538 298.617 259.543 298.629 259.552C298.651 259.571 298.697 259.612 298.759 259.689L304.983 254.663ZM298.415 251.512C295.571 251.512 293.27 252.894 291.657 254.998L298.005 259.866C298.215 259.592 298.342 259.523 298.352 259.518C298.357 259.515 298.358 259.515 298.357 259.515C298.356 259.516 298.356 259.516 298.355 259.516C298.354 259.516 298.354 259.516 298.354 259.516C298.354 259.516 298.355 259.516 298.357 259.516C298.359 259.515 298.362 259.515 298.366 259.514C298.375 259.513 298.391 259.512 298.415 259.512V251.512ZM291.697 254.946C290.066 257.003 289.325 259.564 289.115 262.239L297.091 262.865C297.222 261.188 297.634 260.335 297.965 259.918L291.697 254.946ZM289.104 262.447C289.019 265.69 288.975 268.041 288.975 269.464H296.975C296.975 268.157 297.016 265.899 297.102 262.657L289.104 262.447ZM288.975 269.464C288.975 272.442 289.063 275.688 289.236 279.197L297.226 278.803C297.058 275.4 296.975 272.288 296.975 269.464H288.975ZM293.231 275H277.935V283H293.231V275ZM281.929 279.222C282.274 273.013 282.447 267.136 282.447 261.592H274.447C274.447 266.971 274.279 272.699 273.941 278.778L281.929 279.222ZM282.447 261.592C282.447 256.048 282.274 250.129 281.929 243.837L273.941 244.275C274.279 250.441 274.447 256.213 274.447 261.592H282.447ZM277.753 248.052C280.587 248.181 282.814 248.248 284.399 248.248V240.248C282.998 240.248 280.915 240.187 278.117 240.06L277.753 248.052ZM284.399 248.248C286.069 248.248 288.295 248.181 291.05 248.052L290.676 240.06C287.97 240.187 285.886 240.248 284.399 240.248V248.248ZM286.939 244.83L288.795 254.238L296.643 252.69L294.787 243.282L286.939 244.83ZM296.563 254.569C297.389 251.696 298.554 250.022 299.778 249.073L294.876 242.751C291.918 245.044 290.011 248.406 288.875 252.359L296.563 254.569ZM299.818 249.042C301.172 247.964 302.717 247.416 304.623 247.416V239.416C300.982 239.416 297.663 240.532 294.836 242.782L299.818 249.042ZM304.623 247.416C306.566 247.416 308.035 247.847 309.187 248.553L313.371 241.735C310.768 240.137 307.8 239.416 304.623 239.416V247.416ZM309.244 248.588C310.463 249.308 311.322 250.242 311.909 251.445L319.097 247.931C317.807 245.294 315.85 243.199 313.314 241.7L309.244 248.588ZM311.941 251.508C312.605 252.806 312.975 254.326 312.975 256.152H320.975C320.975 253.199 320.364 250.41 319.065 247.868L311.941 251.508ZM312.975 256.152V265.368H320.975V256.152H312.975ZM312.975 265.368C312.975 271.079 313.082 275.717 313.303 279.25L321.287 278.75C321.081 275.456 320.975 271.006 320.975 265.368H312.975ZM317.295 275H302.895V283H317.295V275ZM332.163 278.168L331.088 282.021L331.114 282.028L331.141 282.035L332.163 278.168ZM321.795 273.56L318.571 271.193L316.032 274.651L319.659 276.942L321.795 273.56ZM328.515 264.408L330.847 261.158L327.632 258.852L325.291 262.041L328.515 264.408ZM335.619 267.736L334.497 271.575L334.524 271.583L334.551 271.591L335.619 267.736ZM347.203 268.12L348.992 271.698L349.02 271.684L349.048 271.669L347.203 268.12ZM344.003 263.896L343.768 259.903L343.761 259.903L343.753 259.904L344.003 263.896ZM342.339 264.024L341.941 260.044L341.911 260.047L341.881 260.05L342.339 264.024ZM326.211 262.296L324.108 265.698L324.144 265.721L324.18 265.742L326.211 262.296ZM328.003 246.552L330.006 250.015L330.021 250.006L330.037 249.997L328.003 246.552ZM353.795 244.888L352.69 248.732L352.718 248.74L352.747 248.748L353.795 244.888ZM362.947 249.176L365.788 251.992L369.072 248.679L365.297 245.939L362.947 249.176ZM355.587 256.6L353.724 260.14L356.344 261.518L358.428 259.416L355.587 256.6ZM348.739 253.912L347.713 257.778L347.759 257.79L347.806 257.802L348.739 253.912ZM338.563 253.976L336.609 250.486V250.486L338.563 253.976ZM337.603 257.432L335.104 260.555L335.176 260.613L335.25 260.667L337.603 257.432ZM342.403 257.752L342.13 253.761L342.067 253.766L342.005 253.772L342.403 257.752ZM359.683 259.672L361.776 256.263H361.776L359.683 259.672ZM357.955 276.568L359.94 280.041L359.955 280.032L359.97 280.023L357.955 276.568ZM343.107 275.64C339.892 275.64 336.587 275.2 333.185 274.301L331.141 282.035C335.163 283.098 339.154 283.64 343.107 283.64V275.64ZM333.238 274.315C329.946 273.396 326.847 272.02 323.931 270.178L319.659 276.942C323.228 279.196 327.041 280.892 331.088 282.021L333.238 274.315ZM325.019 275.927L331.739 266.775L325.291 262.041L318.571 271.193L325.019 275.927ZM326.183 267.658C328.577 269.375 331.373 270.662 334.497 271.575L336.741 263.897C334.319 263.189 332.378 262.257 330.847 261.158L326.183 267.658ZM334.551 271.591C337.535 272.417 340.302 272.888 342.787 272.888V264.888C341.261 264.888 339.249 264.591 336.687 263.881L334.551 271.591ZM342.787 272.888C344.96 272.888 347.157 272.615 348.992 271.698L345.414 264.542C345.201 264.649 344.454 264.888 342.787 264.888V272.888ZM349.048 271.669C350.824 270.746 352.803 268.939 352.803 266.008H344.803C344.803 265.797 344.837 265.562 344.919 265.324C345 265.088 345.11 264.899 345.215 264.761C345.411 264.501 345.545 264.474 345.358 264.571L349.048 271.669ZM352.803 266.008C352.803 264.164 352.03 262.404 350.435 261.208L345.635 267.608C345.42 267.447 345.177 267.186 345.005 266.827C344.837 266.476 344.803 266.174 344.803 266.008H352.803ZM350.435 261.208C349.002 260.133 347.347 259.832 345.923 259.832V267.832C346.093 267.832 346.129 267.851 346.071 267.835C346.003 267.817 345.835 267.758 345.635 267.608L350.435 261.208ZM345.923 259.832C345.27 259.832 344.549 259.857 343.768 259.903L344.238 267.889C344.907 267.85 345.466 267.832 345.923 267.832V259.832ZM343.753 259.904C343.047 259.948 342.437 259.994 341.941 260.044L342.737 268.004C343.094 267.968 343.594 267.929 344.253 267.888L343.753 259.904ZM341.881 260.05C339.821 260.288 337.692 260.408 335.491 260.408V268.408C337.983 268.408 340.419 268.272 342.798 267.998L341.881 260.05ZM335.491 260.408C332.155 260.408 329.829 259.785 328.242 258.85L324.18 265.742C327.371 267.623 331.232 268.408 335.491 268.408V260.408ZM328.314 258.894C327.37 258.31 326.691 257.398 326.691 255.256H318.691C318.691 259.6 320.358 263.381 324.108 265.698L328.314 258.894ZM326.691 255.256C326.691 253.078 327.566 251.426 330.006 250.015L326.001 243.089C321.358 245.774 318.691 249.924 318.691 255.256H326.691ZM330.037 249.997C332.677 248.438 337.039 247.416 343.619 247.416V239.416C336.46 239.416 330.412 240.485 325.969 243.107L330.037 249.997ZM343.619 247.416C346.596 247.416 349.616 247.849 352.69 248.732L354.9 241.044C351.147 239.965 347.383 239.416 343.619 239.416V247.416ZM352.747 248.748C355.779 249.572 358.38 250.804 360.597 252.413L365.297 245.939C362.223 243.708 358.723 242.081 354.843 241.028L352.747 248.748ZM360.106 246.36L352.746 253.784L358.428 259.416L365.788 251.992L360.106 246.36ZM357.45 253.06C354.794 251.663 352.198 250.629 349.673 250.022L347.806 257.802C349.546 258.219 351.516 258.977 353.724 260.14L357.45 253.06ZM349.765 250.046C347.344 249.404 344.887 249.08 342.403 249.08V257.08C344.185 257.08 345.953 257.311 347.713 257.778L349.765 250.046ZM342.403 249.08C340.376 249.08 338.391 249.488 336.609 250.486L340.517 257.466C340.868 257.27 341.444 257.08 342.403 257.08V249.08ZM336.609 250.486C335.076 251.344 332.963 253.081 332.963 256.024H340.963C340.963 256.306 340.912 256.586 340.817 256.844C340.724 257.097 340.607 257.281 340.515 257.399C340.35 257.61 340.271 257.604 340.517 257.466L336.609 250.486ZM332.963 256.024C332.963 257.707 333.632 259.378 335.104 260.555L340.102 254.309C340.349 254.507 340.595 254.797 340.764 255.169C340.929 255.53 340.963 255.842 340.963 256.024H332.963ZM335.25 260.667C336.558 261.618 338.038 261.944 339.395 261.944V253.944C339.343 253.944 339.389 253.938 339.502 253.97C339.622 254.004 339.785 254.073 339.956 254.197L335.25 260.667ZM339.395 261.944C340.317 261.944 341.473 261.865 342.801 261.732L342.005 253.772C340.773 253.895 339.924 253.944 339.395 253.944V261.944ZM342.676 261.743C345.773 261.531 347.986 261.432 349.379 261.432V253.432C347.7 253.432 345.263 253.547 342.13 253.761L342.676 261.743ZM349.379 261.432C353.454 261.432 356.045 262.132 357.59 263.081L361.776 256.263C358.457 254.225 354.179 253.432 349.379 253.432V261.432ZM357.59 263.081C358.732 263.782 359.331 264.71 359.331 266.52H367.331C367.331 262.186 365.498 258.549 361.776 256.263L357.59 263.081ZM359.331 266.52C359.331 269.895 358.139 271.83 355.94 273.113L359.97 280.023C364.939 277.125 367.331 272.361 367.331 266.52H359.331ZM355.97 273.095C353.229 274.662 349.064 275.64 343.107 275.64V283.64C349.779 283.64 355.513 282.57 359.94 280.041L355.97 273.095ZM395.552 255.512L395.292 259.504L399.552 259.781V255.512H395.552ZM384.8 254.936L384.958 250.939L380.839 250.777L380.8 254.898L384.8 254.936ZM384.736 261.72L380.736 261.682L380.736 261.701V261.72H384.736ZM386.208 267.16L382.996 269.543L383.039 269.602L383.085 269.659L386.208 267.16ZM394.4 268.824L398.377 269.254L398.957 263.884L393.652 264.895L394.4 268.824ZM394.272 278.872L394.988 282.807L398.378 282.191L398.27 278.747L394.272 278.872ZM373.92 276.056L370.86 278.633L370.885 278.662L370.91 278.69L373.92 276.056ZM370.848 265.944L366.848 265.92L366.848 265.932V265.944H370.848ZM370.912 255.128L374.912 255.152L374.937 250.953L370.742 251.132L370.912 255.128ZM364.64 255.512H360.64V259.838L364.953 259.5L364.64 255.512ZM364.64 244.184V240.184H360.64V244.184H364.64ZM370.272 242.072L372.975 245.021L370.272 242.072ZM373.024 237.016V233.016H369.587L369.07 236.414L373.024 237.016ZM390.432 237.016L393.665 239.371L398.295 233.016H390.432V237.016ZM383.2 244.184L380.957 240.872L370.163 248.184H383.2V244.184ZM395.552 244.184H399.552V240.184H395.552V244.184ZM395.812 251.52C391.86 251.263 388.241 251.069 384.958 250.939L384.642 258.933C387.844 259.059 391.394 259.249 395.292 259.504L395.812 251.52ZM380.8 254.898L380.736 261.682L388.736 261.758L388.8 254.974L380.8 254.898ZM380.736 261.72C380.736 264.549 381.334 267.304 382.996 269.543L389.42 264.777C389.119 264.37 388.736 263.499 388.736 261.72H380.736ZM383.085 269.659C385.213 272.319 388.497 273.08 391.584 273.08V265.08C390.614 265.08 390.009 264.956 389.665 264.833C389.502 264.775 389.413 264.722 389.373 264.695C389.353 264.681 389.342 264.672 389.338 264.668C389.334 264.664 389.332 264.662 389.331 264.661L383.085 269.659ZM391.584 273.08C392.798 273.08 393.988 272.974 395.148 272.753L393.652 264.895C393.02 265.015 392.333 265.08 391.584 265.08V273.08ZM390.423 268.394C390.237 270.118 390.144 271.862 390.144 273.624H398.144C398.144 272.143 398.222 270.687 398.377 269.254L390.423 268.394ZM390.144 273.624C390.144 274.467 390.189 276.284 390.274 278.997L398.27 278.747C398.184 275.998 398.144 274.317 398.144 273.624H390.144ZM393.556 274.937C391.764 275.262 390.346 275.449 389.27 275.521L389.802 283.503C391.286 283.404 393.026 283.164 394.988 282.807L393.556 274.937ZM389.27 275.521C388.115 275.598 386.549 275.64 384.544 275.64V283.64C386.635 283.64 388.397 283.597 389.802 283.503L389.27 275.521ZM384.544 275.64C380.052 275.64 377.917 274.55 376.93 273.422L370.91 278.69C374.104 282.341 379.052 283.64 384.544 283.64V275.64ZM376.98 273.479C375.725 271.989 374.848 269.646 374.848 265.944H366.848C366.848 270.86 368.019 275.259 370.86 278.633L376.98 273.479ZM374.848 265.968L374.912 255.152L366.912 255.104L366.848 265.92L374.848 265.968ZM370.742 251.132C368.685 251.219 366.547 251.35 364.327 251.524L364.953 259.5C367.085 259.332 369.128 259.208 371.082 259.124L370.742 251.132ZM368.64 255.512V244.184H360.64V255.512H368.64ZM364.64 248.184C367.789 248.184 370.651 247.151 372.975 245.021L367.569 239.123C366.821 239.809 365.929 240.184 364.64 240.184V248.184ZM372.975 245.021C375.148 243.029 376.535 240.53 376.978 237.618L369.07 236.414C368.915 237.428 368.468 238.299 367.569 239.123L372.975 245.021ZM373.024 241.016H390.432V233.016H373.024V241.016ZM387.199 234.661C385.253 237.331 383.165 239.377 380.957 240.872L385.443 247.496C388.526 245.407 391.259 242.674 393.665 239.371L387.199 234.661ZM383.2 248.184H395.552V240.184H383.2V248.184ZM391.552 244.184V255.512H399.552V244.184H391.552Z" fill="white" mask="url(#path-1-outside-1_243_301)"/>
<mask id="path-3-outside-2_243_301" maskUnits="userSpaceOnUse" x="528" y="225" width="105" height="59" fill="black">
<rect fill="white" x="528" y="225" width="105" height="59"/>
<path d="M547.6 253.4C547.557 255.96 547.536 259.885 547.536 265.176C547.536 271.533 547.579 276.141 547.664 279H532.56L532.624 271.768C532.709 263.832 532.752 257.709 532.752 253.4C532.752 249.304 532.709 243.501 532.624 235.992L532.56 229.08H547.664C547.579 235.139 547.536 240.088 547.536 243.928C547.536 248.195 547.557 251.352 547.6 253.4ZM586.666 263H565.802C566.143 264.877 566.975 266.413 568.298 267.608C569.663 268.76 571.583 269.336 574.058 269.336C575.85 269.336 577.535 268.995 579.114 268.312C580.693 267.587 581.951 266.584 582.89 265.304C585.749 266.712 589.546 268.227 594.282 269.848C592.959 272.835 590.549 275.224 587.05 277.016C583.594 278.765 579.071 279.64 573.482 279.64C566.229 279.64 560.853 277.976 557.354 274.648C553.898 271.277 552.17 266.861 552.17 261.4C552.17 256.067 553.898 251.736 557.354 248.408C560.81 245.08 566.186 243.416 573.482 243.416C577.834 243.416 581.61 244.141 584.81 245.592C588.01 247.043 590.463 249.069 592.17 251.672C593.877 254.232 594.73 257.176 594.73 260.504C594.73 261.613 594.687 262.445 594.602 263H586.666ZM574.378 253.08C572.245 253.08 570.495 253.485 569.13 254.296C567.765 255.107 566.805 256.216 566.25 257.624H581.354C580.842 256.259 580.01 255.171 578.858 254.36C577.706 253.507 576.213 253.08 574.378 253.08ZM628.177 255.512C624.252 255.256 620.668 255.064 617.425 254.936L617.361 261.72C617.361 264.024 617.852 265.837 618.833 267.16C619.857 268.44 621.649 269.08 624.209 269.08C625.19 269.08 626.129 268.995 627.025 268.824C626.854 270.403 626.769 272.003 626.769 273.624C626.769 274.392 626.812 276.141 626.897 278.872C625.02 279.213 623.441 279.427 622.161 279.512C620.881 279.597 619.217 279.64 617.169 279.64C612.177 279.64 608.636 278.445 606.545 276.056C604.497 273.624 603.473 270.253 603.473 265.944L603.537 255.128C601.532 255.213 599.441 255.341 597.265 255.512V244.184C599.484 244.184 601.361 243.48 602.897 242.072C604.433 240.664 605.35 238.979 605.649 237.016H623.057C620.881 240.003 618.47 242.392 615.825 244.184H628.177V255.512Z"/>
</mask>
<path d="M547.6 253.4C547.557 255.96 547.536 259.885 547.536 265.176C547.536 271.533 547.579 276.141 547.664 279H532.56L532.624 271.768C532.709 263.832 532.752 257.709 532.752 253.4C532.752 249.304 532.709 243.501 532.624 235.992L532.56 229.08H547.664C547.579 235.139 547.536 240.088 547.536 243.928C547.536 248.195 547.557 251.352 547.6 253.4ZM586.666 263H565.802C566.143 264.877 566.975 266.413 568.298 267.608C569.663 268.76 571.583 269.336 574.058 269.336C575.85 269.336 577.535 268.995 579.114 268.312C580.693 267.587 581.951 266.584 582.89 265.304C585.749 266.712 589.546 268.227 594.282 269.848C592.959 272.835 590.549 275.224 587.05 277.016C583.594 278.765 579.071 279.64 573.482 279.64C566.229 279.64 560.853 277.976 557.354 274.648C553.898 271.277 552.17 266.861 552.17 261.4C552.17 256.067 553.898 251.736 557.354 248.408C560.81 245.08 566.186 243.416 573.482 243.416C577.834 243.416 581.61 244.141 584.81 245.592C588.01 247.043 590.463 249.069 592.17 251.672C593.877 254.232 594.73 257.176 594.73 260.504C594.73 261.613 594.687 262.445 594.602 263H586.666ZM574.378 253.08C572.245 253.08 570.495 253.485 569.13 254.296C567.765 255.107 566.805 256.216 566.25 257.624H581.354C580.842 256.259 580.01 255.171 578.858 254.36C577.706 253.507 576.213 253.08 574.378 253.08ZM628.177 255.512C624.252 255.256 620.668 255.064 617.425 254.936L617.361 261.72C617.361 264.024 617.852 265.837 618.833 267.16C619.857 268.44 621.649 269.08 624.209 269.08C625.19 269.08 626.129 268.995 627.025 268.824C626.854 270.403 626.769 272.003 626.769 273.624C626.769 274.392 626.812 276.141 626.897 278.872C625.02 279.213 623.441 279.427 622.161 279.512C620.881 279.597 619.217 279.64 617.169 279.64C612.177 279.64 608.636 278.445 606.545 276.056C604.497 273.624 603.473 270.253 603.473 265.944L603.537 255.128C601.532 255.213 599.441 255.341 597.265 255.512V244.184C599.484 244.184 601.361 243.48 602.897 242.072C604.433 240.664 605.35 238.979 605.649 237.016H623.057C620.881 240.003 618.47 242.392 615.825 244.184H628.177V255.512Z" fill="#F69D4C"/>
<path d="M547.6 253.4L551.599 253.467L551.601 253.392L551.599 253.317L547.6 253.4ZM547.664 279V283H551.785L551.662 278.881L547.664 279ZM532.56 279L528.56 278.965L528.524 283H532.56V279ZM532.624 271.768L528.624 271.725L528.624 271.733L532.624 271.768ZM532.624 235.992L528.624 236.029L528.624 236.037L532.624 235.992ZM532.56 229.08V225.08H528.523L528.56 229.117L532.56 229.08ZM547.664 229.08L551.664 229.136L551.721 225.08H547.664V229.08ZM543.601 253.333C543.557 255.928 543.536 259.881 543.536 265.176H551.536C551.536 259.889 551.557 255.992 551.599 253.467L543.601 253.333ZM543.536 265.176C543.536 271.537 543.579 276.196 543.666 279.119L551.662 278.881C551.579 276.086 551.536 271.529 551.536 265.176H543.536ZM547.664 275H532.56V283H547.664V275ZM536.56 279.035L536.624 271.803L528.624 271.733L528.56 278.965L536.56 279.035ZM536.624 271.811C536.709 263.87 536.752 257.731 536.752 253.4H528.752C528.752 257.688 528.71 263.794 528.624 271.725L536.624 271.811ZM536.752 253.4C536.752 249.281 536.709 243.461 536.624 235.947L528.624 236.037C528.71 243.542 528.752 249.327 528.752 253.4H536.752ZM536.624 235.955L536.56 229.043L528.56 229.117L528.624 236.029L536.624 235.955ZM532.56 233.08H547.664V225.08H532.56V233.08ZM543.664 229.024C543.579 235.092 543.536 240.062 543.536 243.928H551.536C551.536 240.114 551.578 235.186 551.664 229.136L543.664 229.024ZM543.536 243.928C543.536 248.2 543.557 251.391 543.601 253.483L551.599 253.317C551.557 251.313 551.536 248.19 551.536 243.928H543.536ZM565.802 263V259H561.009L561.867 263.716L565.802 263ZM568.298 267.608L565.617 270.576L565.667 270.622L565.719 270.665L568.298 267.608ZM579.114 268.312L580.702 271.983L580.743 271.966L580.784 271.947L579.114 268.312ZM582.89 265.304L584.657 261.716L581.648 260.233L579.664 262.939L582.89 265.304ZM594.282 269.848L597.939 271.468L599.707 267.477L595.578 266.064L594.282 269.848ZM587.05 277.016L588.856 280.585L588.865 280.581L588.874 280.576L587.05 277.016ZM557.354 274.648L554.561 277.512L554.579 277.529L554.597 277.546L557.354 274.648ZM557.354 248.408L560.129 251.289H560.129L557.354 248.408ZM584.81 245.592L583.158 249.235H583.158L584.81 245.592ZM592.17 251.672L588.825 253.865L588.833 253.878L588.842 253.891L592.17 251.672ZM594.602 263V267H598.034L598.555 263.608L594.602 263ZM569.13 254.296L571.172 257.735L571.172 257.735L569.13 254.296ZM566.25 257.624L562.528 256.158L560.375 261.624H566.25V257.624ZM581.354 257.624V261.624H587.126L585.099 256.22L581.354 257.624ZM578.858 254.36L576.477 257.574L576.516 257.603L576.556 257.631L578.858 254.36ZM586.666 259H565.802V267H586.666V259ZM561.867 263.716C562.354 266.396 563.591 268.747 565.617 270.576L570.979 264.64C570.36 264.08 569.933 263.358 569.737 262.284L561.867 263.716ZM565.719 270.665C568.041 272.624 571.001 273.336 574.058 273.336V265.336C572.166 265.336 571.286 264.896 570.877 264.551L565.719 270.665ZM574.058 273.336C576.373 273.336 578.601 272.892 580.702 271.983L577.526 264.641C576.47 265.097 575.327 265.336 574.058 265.336V273.336ZM580.784 271.947C582.921 270.965 584.737 269.549 586.116 267.669L579.664 262.939C579.165 263.619 578.465 264.208 577.444 264.677L580.784 271.947ZM581.123 268.892C584.195 270.406 588.169 271.983 592.986 273.632L595.578 266.064C590.923 264.47 587.303 263.018 584.657 261.716L581.123 268.892ZM590.625 268.228C589.744 270.216 588.082 271.993 585.226 273.456L588.874 280.576C593.016 278.455 596.174 275.453 597.939 271.468L590.625 268.228ZM585.244 273.447C582.54 274.816 578.702 275.64 573.482 275.64V283.64C579.44 283.64 584.648 282.715 588.856 280.585L585.244 273.447ZM573.482 275.64C566.75 275.64 562.567 274.086 560.111 271.75L554.597 277.546C559.139 281.866 565.708 283.64 573.482 283.64V275.64ZM560.147 271.784C557.567 269.268 556.17 265.938 556.17 261.4H548.17C548.17 267.785 550.229 273.286 554.561 277.512L560.147 271.784ZM556.17 261.4C556.17 257.02 557.547 253.775 560.129 251.289L554.579 245.527C550.249 249.697 548.17 255.113 548.17 261.4H556.17ZM560.129 251.289C562.531 248.976 566.694 247.416 573.482 247.416V239.416C565.678 239.416 559.089 241.184 554.579 245.527L560.129 251.289ZM573.482 247.416C577.397 247.416 580.586 248.069 583.158 249.235L586.462 241.949C582.634 240.214 578.271 239.416 573.482 239.416V247.416ZM583.158 249.235C585.76 250.414 587.586 251.976 588.825 253.865L595.515 249.479C593.341 246.163 590.26 243.671 586.462 241.949L583.158 249.235ZM588.842 253.891C590.074 255.74 590.73 257.898 590.73 260.504H598.73C598.73 256.454 597.679 252.724 595.498 249.453L588.842 253.891ZM590.73 260.504C590.73 261.566 590.686 262.149 590.649 262.392L598.555 263.608C598.689 262.741 598.73 261.661 598.73 260.504H590.73ZM594.602 259H586.666V267H594.602V259ZM574.378 249.08C571.765 249.08 569.248 249.574 567.088 250.857L571.172 257.735C571.742 257.397 572.725 257.08 574.378 257.08V249.08ZM567.088 250.857C565 252.096 563.425 253.881 562.528 256.158L569.972 259.09C570.184 258.551 570.53 258.117 571.172 257.735L567.088 250.857ZM566.25 261.624H581.354V253.624H566.25V261.624ZM585.099 256.22C584.315 254.129 582.994 252.379 581.16 251.089L576.556 257.631C577.026 257.962 577.369 258.388 577.609 259.028L585.099 256.22ZM581.239 251.146C579.227 249.655 576.829 249.08 574.378 249.08V257.08C575.597 257.08 576.185 257.358 576.477 257.574L581.239 251.146ZM628.177 255.512L627.917 259.504L632.177 259.781V255.512H628.177ZM617.425 254.936L617.583 250.939L613.464 250.777L613.425 254.898L617.425 254.936ZM617.361 261.72L613.361 261.682L613.361 261.701V261.72H617.361ZM618.833 267.16L615.621 269.543L615.664 269.602L615.71 269.659L618.833 267.16ZM627.025 268.824L631.002 269.254L631.582 263.884L626.277 264.895L627.025 268.824ZM626.897 278.872L627.613 282.807L631.003 282.191L630.895 278.747L626.897 278.872ZM606.545 276.056L603.485 278.633L603.51 278.662L603.535 278.69L606.545 276.056ZM603.473 265.944L599.473 265.92L599.473 265.932V265.944H603.473ZM603.537 255.128L607.537 255.152L607.562 250.953L603.367 251.132L603.537 255.128ZM597.265 255.512H593.265V259.838L597.578 259.5L597.265 255.512ZM597.265 244.184V240.184H593.265V244.184H597.265ZM602.897 242.072L605.6 245.021L602.897 242.072ZM605.649 237.016V233.016H602.212L601.695 236.414L605.649 237.016ZM623.057 237.016L626.29 239.371L630.92 233.016H623.057V237.016ZM615.825 244.184L613.582 240.872L602.788 248.184H615.825V244.184ZM628.177 244.184H632.177V240.184H628.177V244.184ZM628.437 251.52C624.485 251.263 620.866 251.069 617.583 250.939L617.267 258.933C620.469 259.059 624.019 259.249 627.917 259.504L628.437 251.52ZM613.425 254.898L613.361 261.682L621.361 261.758L621.425 254.974L613.425 254.898ZM613.361 261.72C613.361 264.549 613.959 267.304 615.621 269.543L622.045 264.777C621.744 264.37 621.361 263.499 621.361 261.72H613.361ZM615.71 269.659C617.838 272.319 621.122 273.08 624.209 273.08V265.08C623.239 265.08 622.634 264.956 622.29 264.833C622.127 264.775 622.038 264.722 621.998 264.695C621.978 264.681 621.967 264.672 621.963 264.668C621.959 264.664 621.957 264.662 621.956 264.661L615.71 269.659ZM624.209 273.08C625.423 273.08 626.613 272.974 627.773 272.753L626.277 264.895C625.645 265.015 624.958 265.08 624.209 265.08V273.08ZM623.048 268.394C622.862 270.118 622.769 271.862 622.769 273.624H630.769C630.769 272.143 630.847 270.687 631.002 269.254L623.048 268.394ZM622.769 273.624C622.769 274.467 622.814 276.284 622.899 278.997L630.895 278.747C630.809 275.998 630.769 274.317 630.769 273.624H622.769ZM626.181 274.937C624.389 275.262 622.971 275.449 621.895 275.521L622.427 283.503C623.911 283.404 625.651 283.164 627.613 282.807L626.181 274.937ZM621.895 275.521C620.74 275.598 619.174 275.64 617.169 275.64V283.64C619.26 283.64 621.022 283.597 622.427 283.503L621.895 275.521ZM617.169 275.64C612.677 275.64 610.542 274.55 609.555 273.422L603.535 278.69C606.729 282.341 611.677 283.64 617.169 283.64V275.64ZM609.605 273.479C608.35 271.989 607.473 269.646 607.473 265.944H599.473C599.473 270.86 600.644 275.259 603.485 278.633L609.605 273.479ZM607.473 265.968L607.537 255.152L599.537 255.104L599.473 265.92L607.473 265.968ZM603.367 251.132C601.31 251.219 599.172 251.35 596.952 251.524L597.578 259.5C599.71 259.332 601.753 259.208 603.707 259.124L603.367 251.132ZM601.265 255.512V244.184H593.265V255.512H601.265ZM597.265 248.184C600.414 248.184 603.276 247.151 605.6 245.021L600.194 239.123C599.446 239.809 598.554 240.184 597.265 240.184V248.184ZM605.6 245.021C607.773 243.029 609.16 240.53 609.603 237.618L601.695 236.414C601.54 237.428 601.093 238.299 600.194 239.123L605.6 245.021ZM605.649 241.016H623.057V233.016H605.649V241.016ZM619.824 234.661C617.878 237.331 615.79 239.377 613.582 240.872L618.068 247.496C621.151 245.407 623.884 242.674 626.29 239.371L619.824 234.661ZM615.825 248.184H628.177V240.184H615.825V248.184ZM624.177 244.184V255.512H632.177V244.184H624.177Z" fill="white" mask="url(#path-3-outside-2_243_301)"/>
</svg>
