<svg width="866" height="539" viewBox="0 0 866 539" fill="none" xmlns="http://www.w3.org/2000/svg">
<rect width="866" height="539" fill="#F2F2F2"/>
<mask id="path-1-outside-1_225_751" maskUnits="userSpaceOnUse" x="172" y="243" width="496" height="59" fill="black">
<rect fill="white" x="172" y="243" width="496" height="59"/>
<path d="M203.72 297.64C194.077 297.64 186.973 295.592 182.408 291.496C177.843 287.4 175.56 281.555 175.56 273.96C175.56 266.323 177.843 260.285 182.408 255.848C186.973 251.411 194.077 249.192 203.72 249.192C217.203 249.192 226.227 253.821 230.792 263.08C226.952 264.403 222.451 266.387 217.288 269.032C216.051 266.643 214.088 264.872 211.4 263.72C208.755 262.568 206.045 261.992 203.272 261.992C199.176 261.992 196.125 263.08 194.12 265.256C192.115 267.389 191.112 270.035 191.112 273.192C191.112 276.605 192.179 279.4 194.312 281.576C196.488 283.709 199.795 284.776 204.232 284.776C207.773 284.776 210.589 284.2 212.68 283.048C214.771 281.853 216.307 279.976 217.288 277.416C220.787 279.293 225.267 281.405 230.728 283.752C228.595 288.915 225.032 292.52 220.04 294.568C215.048 296.616 209.608 297.64 203.72 297.64ZM235.935 291.496C237.386 289.32 238.58 287.293 239.519 285.416C240.5 283.539 241.439 281.363 242.335 278.888C245.364 280.637 248.884 282.003 252.895 282.984C256.906 283.965 260.639 284.456 264.095 284.456C267.636 284.456 270.132 284.157 271.583 283.56C273.034 282.92 273.759 282.237 273.759 281.512C273.759 278.909 269.791 277.608 261.855 277.608C253.151 277.608 246.836 276.712 242.911 274.92C238.986 273.085 237.023 270.141 237.023 266.088C237.023 260.328 239.412 256.083 244.191 253.352C248.97 250.621 255.178 249.256 262.815 249.256C267.252 249.256 271.796 249.832 276.447 250.984C281.14 252.093 285.364 253.629 289.119 255.592C287.882 258.408 286.58 261.843 285.215 265.896C284.959 266.749 284.746 267.389 284.575 267.816C282.399 266.067 279.114 264.616 274.719 263.464C270.324 262.269 266.442 261.672 263.071 261.672C259.018 261.672 256.287 261.949 254.879 262.504C253.471 263.016 252.767 263.784 252.767 264.808C252.767 265.832 253.727 266.664 255.647 267.304C257.61 267.901 260.426 268.2 264.095 268.2C273.14 268.2 279.711 269.245 283.807 271.336C287.903 273.384 289.951 276.541 289.951 280.808C289.951 286.781 287.775 291.091 283.423 293.736C279.071 296.339 272.479 297.64 263.647 297.64C258.911 297.64 254.09 297.128 249.183 296.104C244.276 295.037 239.86 293.501 235.935 291.496ZM295.06 291.496C296.511 289.32 297.705 287.293 298.644 285.416C299.625 283.539 300.564 281.363 301.46 278.888C304.489 280.637 308.009 282.003 312.02 282.984C316.031 283.965 319.764 284.456 323.22 284.456C326.761 284.456 329.257 284.157 330.708 283.56C332.159 282.92 332.884 282.237 332.884 281.512C332.884 278.909 328.916 277.608 320.98 277.608C312.276 277.608 305.961 276.712 302.036 274.92C298.111 273.085 296.148 270.141 296.148 266.088C296.148 260.328 298.537 256.083 303.316 253.352C308.095 250.621 314.303 249.256 321.94 249.256C326.377 249.256 330.921 249.832 335.572 250.984C340.265 252.093 344.489 253.629 348.244 255.592C347.007 258.408 345.705 261.843 344.34 265.896C344.084 266.749 343.871 267.389 343.7 267.816C341.524 266.067 338.239 264.616 333.844 263.464C329.449 262.269 325.567 261.672 322.196 261.672C318.143 261.672 315.412 261.949 314.004 262.504C312.596 263.016 311.892 263.784 311.892 264.808C311.892 265.832 312.852 266.664 314.772 267.304C316.735 267.901 319.551 268.2 323.22 268.2C332.265 268.2 338.836 269.245 342.932 271.336C347.028 273.384 349.076 276.541 349.076 280.808C349.076 286.781 346.9 291.091 342.548 293.736C338.196 296.339 331.604 297.64 322.772 297.64C318.036 297.64 313.215 297.128 308.308 296.104C303.401 295.037 298.985 293.501 295.06 291.496ZM365.577 295.976C365.236 293.032 364.574 290.323 363.593 287.848C362.612 285.331 361.204 282.792 359.369 280.232C363.636 280.403 366.665 280.488 368.457 280.488C377.161 280.488 384.286 279.699 389.833 278.12C391.668 277.608 392.841 277.139 393.353 276.712C393.908 276.285 394.185 275.624 394.185 274.728C394.185 273.149 393.353 271.955 391.689 271.144C390.068 270.291 387.7 269.864 384.585 269.864C381.214 269.864 376.905 270.312 371.657 271.208C366.409 272.104 362.036 273.149 358.537 274.344L355.529 260.136C361.417 258.899 366.985 257.939 372.233 257.256C377.524 256.531 382.025 256.168 385.737 256.168C390.942 256.168 395.401 256.851 399.113 258.216C402.868 259.581 405.726 261.565 407.689 264.168C409.694 266.771 410.697 269.864 410.697 273.448C410.697 279.421 408.692 284.051 404.681 287.336C400.713 290.579 395.486 292.797 389.001 293.992C382.516 295.187 374.708 295.848 365.577 295.976ZM464.585 261.928C460.745 262.099 457.481 262.931 454.793 264.424C452.105 265.917 450.078 267.795 448.713 270.056C447.39 272.275 446.729 274.579 446.729 276.968C446.729 278.248 447.006 279.251 447.561 279.976C448.158 280.701 449.353 281.256 451.145 281.64C452.937 282.024 455.625 282.216 459.209 282.216C463.177 282.216 467.636 282.045 472.585 281.704C471.476 284.221 470.772 286.568 470.473 288.744C470.217 290.877 470.068 293.459 470.025 296.488C468.83 296.531 467.102 296.552 464.841 296.552C455.198 296.552 447.796 295.912 442.633 294.632C437.513 293.309 434.057 291.539 432.265 289.32C430.516 287.059 429.641 284.2 429.641 280.744C429.641 277.032 430.409 273.661 431.945 270.632C433.481 267.56 435.636 264.851 438.409 262.504L419.145 265.448V250.6C422.43 250.6 428.02 250.493 435.913 250.28L448.265 249.96C452.66 249.875 456.713 249.768 460.425 249.64C464.137 249.469 469.236 249.213 475.721 248.872L475.913 261.928H464.585ZM515.337 263.912C512.777 264.168 508.83 264.467 503.497 264.808C502.132 270.781 500.02 276.349 497.161 281.512C494.345 286.675 490.953 291.176 486.985 295.016C486.132 292.285 485.001 289.405 483.593 286.376C482.185 283.347 480.862 280.957 479.625 279.208C481.886 277.117 483.764 274.963 485.257 272.744C486.75 270.483 487.945 267.965 488.841 265.192C487.305 265.235 484.98 265.256 481.865 265.256V252.584C485.918 252.584 488.948 252.563 490.953 252.52C491.038 251.155 491.081 250.109 491.081 249.384H505.225C505.225 250.579 505.204 251.475 505.161 252.072C507.422 251.944 510.814 251.667 515.337 251.24V260.84L518.537 250.024C527.412 251.176 535.497 252.627 542.793 254.376L539.145 267.56C530.526 264.659 522.59 262.867 515.337 262.184V263.912ZM532.809 266.088V275.624C536.18 276.904 539.465 278.525 542.665 280.488L538.441 294.696C536.308 292.605 534.068 290.643 531.721 288.808C529.545 294.525 524.169 297.384 515.593 297.384C510.388 297.384 506.185 296.253 502.985 293.992C499.785 291.688 498.185 288.36 498.185 284.008C498.185 281.405 498.91 279.165 500.361 277.288C501.812 275.411 503.774 273.981 506.249 273C508.724 272.019 511.454 271.528 514.441 271.528C515.764 271.528 517.044 271.613 518.281 271.784V266.088H532.809ZM518.281 282.024C517.086 281.811 516.041 281.704 515.145 281.704C514.078 281.704 513.31 281.811 512.841 282.024C512.372 282.237 512.137 282.6 512.137 283.112C512.137 283.581 512.457 284.029 513.097 284.456C513.737 284.84 514.59 285.032 515.657 285.032C516.681 285.032 517.364 284.84 517.705 284.456C518.089 284.072 518.281 283.496 518.281 282.728V282.024ZM568.969 252.328C577.673 250.664 586.27 249.832 594.761 249.832C597.321 249.832 600.201 249.939 603.401 250.152C603.401 253.181 603.444 255.805 603.529 258.024C603.614 260.2 603.828 262.397 604.169 264.616C599.262 264.019 594.761 263.72 590.665 263.72C584.094 263.72 577.118 264.488 569.737 266.024L568.969 252.328ZM548.617 296.552C547.849 292.883 547.273 289.427 546.889 286.184C546.548 282.899 546.377 279.208 546.377 275.112C546.377 268.413 546.91 260.264 547.977 250.664H564.297C563.017 261.331 562.377 269.651 562.377 275.624C562.377 279.549 562.612 283.048 563.081 286.12C563.593 289.149 564.361 292.179 565.385 295.208L548.617 296.552ZM586.377 296.296C579.465 296.296 574.43 294.952 571.273 292.264C568.116 289.576 566.537 285.459 566.537 279.912C566.537 278.333 566.665 276.648 566.921 274.856C571.913 274.429 576.393 273.171 580.361 271.08C580.148 272.915 580.041 274.323 580.041 275.304C580.041 276.968 580.254 278.227 580.681 279.08C581.15 279.933 581.833 280.509 582.729 280.808C583.625 281.107 584.841 281.256 586.377 281.256C590.174 281.256 593.545 281.149 596.489 280.936C599.476 280.68 602.953 280.083 606.921 279.144C606.494 280.723 606.153 283.005 605.897 285.992C605.684 288.936 605.577 291.987 605.577 295.144C602.078 295.613 598.878 295.933 595.977 296.104C593.076 296.232 589.876 296.296 586.377 296.296ZM641.801 246.312C645.854 246.312 649.588 246.995 653.001 248.36C656.457 249.725 659.188 251.624 661.193 254.056C663.198 256.488 664.201 259.283 664.201 262.44C664.201 265 663.582 267.197 662.345 269.032C661.108 270.867 659.529 272.36 657.609 273.512L654.217 275.432C652.382 276.456 651.166 277.16 650.569 277.544C649.588 278.141 648.905 278.803 648.521 279.528C648.137 280.253 647.945 281.107 647.945 282.088H633.289C633.289 278.845 634.057 276.136 635.593 273.96C637.129 271.741 639.71 269.821 643.337 268.2C644.958 267.475 646.132 266.685 646.857 265.832C647.625 264.936 648.009 263.933 648.009 262.824C648.009 261.587 647.412 260.52 646.217 259.624C645.065 258.728 643.593 258.28 641.801 258.28C639.369 258.28 637.47 258.877 636.105 260.072C634.782 261.267 634.121 262.952 634.121 265.128C634.121 265.981 634.249 266.963 634.505 268.072C631.092 267.091 625.993 266.6 619.209 266.6C619.166 266.216 619.145 265.683 619.145 265C619.145 261.416 620.084 258.216 621.961 255.4C623.881 252.541 626.548 250.323 629.961 248.744C633.417 247.123 637.364 246.312 641.801 246.312ZM648.009 298.28H633.161V286.888H648.009V298.28Z"/>
</mask>
<path d="M203.72 297.64C194.077 297.64 186.973 295.592 182.408 291.496C177.843 287.4 175.56 281.555 175.56 273.96C175.56 266.323 177.843 260.285 182.408 255.848C186.973 251.411 194.077 249.192 203.72 249.192C217.203 249.192 226.227 253.821 230.792 263.08C226.952 264.403 222.451 266.387 217.288 269.032C216.051 266.643 214.088 264.872 211.4 263.72C208.755 262.568 206.045 261.992 203.272 261.992C199.176 261.992 196.125 263.08 194.12 265.256C192.115 267.389 191.112 270.035 191.112 273.192C191.112 276.605 192.179 279.4 194.312 281.576C196.488 283.709 199.795 284.776 204.232 284.776C207.773 284.776 210.589 284.2 212.68 283.048C214.771 281.853 216.307 279.976 217.288 277.416C220.787 279.293 225.267 281.405 230.728 283.752C228.595 288.915 225.032 292.52 220.04 294.568C215.048 296.616 209.608 297.64 203.72 297.64ZM235.935 291.496C237.386 289.32 238.58 287.293 239.519 285.416C240.5 283.539 241.439 281.363 242.335 278.888C245.364 280.637 248.884 282.003 252.895 282.984C256.906 283.965 260.639 284.456 264.095 284.456C267.636 284.456 270.132 284.157 271.583 283.56C273.034 282.92 273.759 282.237 273.759 281.512C273.759 278.909 269.791 277.608 261.855 277.608C253.151 277.608 246.836 276.712 242.911 274.92C238.986 273.085 237.023 270.141 237.023 266.088C237.023 260.328 239.412 256.083 244.191 253.352C248.97 250.621 255.178 249.256 262.815 249.256C267.252 249.256 271.796 249.832 276.447 250.984C281.14 252.093 285.364 253.629 289.119 255.592C287.882 258.408 286.58 261.843 285.215 265.896C284.959 266.749 284.746 267.389 284.575 267.816C282.399 266.067 279.114 264.616 274.719 263.464C270.324 262.269 266.442 261.672 263.071 261.672C259.018 261.672 256.287 261.949 254.879 262.504C253.471 263.016 252.767 263.784 252.767 264.808C252.767 265.832 253.727 266.664 255.647 267.304C257.61 267.901 260.426 268.2 264.095 268.2C273.14 268.2 279.711 269.245 283.807 271.336C287.903 273.384 289.951 276.541 289.951 280.808C289.951 286.781 287.775 291.091 283.423 293.736C279.071 296.339 272.479 297.64 263.647 297.64C258.911 297.64 254.09 297.128 249.183 296.104C244.276 295.037 239.86 293.501 235.935 291.496ZM295.06 291.496C296.511 289.32 297.705 287.293 298.644 285.416C299.625 283.539 300.564 281.363 301.46 278.888C304.489 280.637 308.009 282.003 312.02 282.984C316.031 283.965 319.764 284.456 323.22 284.456C326.761 284.456 329.257 284.157 330.708 283.56C332.159 282.92 332.884 282.237 332.884 281.512C332.884 278.909 328.916 277.608 320.98 277.608C312.276 277.608 305.961 276.712 302.036 274.92C298.111 273.085 296.148 270.141 296.148 266.088C296.148 260.328 298.537 256.083 303.316 253.352C308.095 250.621 314.303 249.256 321.94 249.256C326.377 249.256 330.921 249.832 335.572 250.984C340.265 252.093 344.489 253.629 348.244 255.592C347.007 258.408 345.705 261.843 344.34 265.896C344.084 266.749 343.871 267.389 343.7 267.816C341.524 266.067 338.239 264.616 333.844 263.464C329.449 262.269 325.567 261.672 322.196 261.672C318.143 261.672 315.412 261.949 314.004 262.504C312.596 263.016 311.892 263.784 311.892 264.808C311.892 265.832 312.852 266.664 314.772 267.304C316.735 267.901 319.551 268.2 323.22 268.2C332.265 268.2 338.836 269.245 342.932 271.336C347.028 273.384 349.076 276.541 349.076 280.808C349.076 286.781 346.9 291.091 342.548 293.736C338.196 296.339 331.604 297.64 322.772 297.64C318.036 297.64 313.215 297.128 308.308 296.104C303.401 295.037 298.985 293.501 295.06 291.496ZM365.577 295.976C365.236 293.032 364.574 290.323 363.593 287.848C362.612 285.331 361.204 282.792 359.369 280.232C363.636 280.403 366.665 280.488 368.457 280.488C377.161 280.488 384.286 279.699 389.833 278.12C391.668 277.608 392.841 277.139 393.353 276.712C393.908 276.285 394.185 275.624 394.185 274.728C394.185 273.149 393.353 271.955 391.689 271.144C390.068 270.291 387.7 269.864 384.585 269.864C381.214 269.864 376.905 270.312 371.657 271.208C366.409 272.104 362.036 273.149 358.537 274.344L355.529 260.136C361.417 258.899 366.985 257.939 372.233 257.256C377.524 256.531 382.025 256.168 385.737 256.168C390.942 256.168 395.401 256.851 399.113 258.216C402.868 259.581 405.726 261.565 407.689 264.168C409.694 266.771 410.697 269.864 410.697 273.448C410.697 279.421 408.692 284.051 404.681 287.336C400.713 290.579 395.486 292.797 389.001 293.992C382.516 295.187 374.708 295.848 365.577 295.976ZM464.585 261.928C460.745 262.099 457.481 262.931 454.793 264.424C452.105 265.917 450.078 267.795 448.713 270.056C447.39 272.275 446.729 274.579 446.729 276.968C446.729 278.248 447.006 279.251 447.561 279.976C448.158 280.701 449.353 281.256 451.145 281.64C452.937 282.024 455.625 282.216 459.209 282.216C463.177 282.216 467.636 282.045 472.585 281.704C471.476 284.221 470.772 286.568 470.473 288.744C470.217 290.877 470.068 293.459 470.025 296.488C468.83 296.531 467.102 296.552 464.841 296.552C455.198 296.552 447.796 295.912 442.633 294.632C437.513 293.309 434.057 291.539 432.265 289.32C430.516 287.059 429.641 284.2 429.641 280.744C429.641 277.032 430.409 273.661 431.945 270.632C433.481 267.56 435.636 264.851 438.409 262.504L419.145 265.448V250.6C422.43 250.6 428.02 250.493 435.913 250.28L448.265 249.96C452.66 249.875 456.713 249.768 460.425 249.64C464.137 249.469 469.236 249.213 475.721 248.872L475.913 261.928H464.585ZM515.337 263.912C512.777 264.168 508.83 264.467 503.497 264.808C502.132 270.781 500.02 276.349 497.161 281.512C494.345 286.675 490.953 291.176 486.985 295.016C486.132 292.285 485.001 289.405 483.593 286.376C482.185 283.347 480.862 280.957 479.625 279.208C481.886 277.117 483.764 274.963 485.257 272.744C486.75 270.483 487.945 267.965 488.841 265.192C487.305 265.235 484.98 265.256 481.865 265.256V252.584C485.918 252.584 488.948 252.563 490.953 252.52C491.038 251.155 491.081 250.109 491.081 249.384H505.225C505.225 250.579 505.204 251.475 505.161 252.072C507.422 251.944 510.814 251.667 515.337 251.24V260.84L518.537 250.024C527.412 251.176 535.497 252.627 542.793 254.376L539.145 267.56C530.526 264.659 522.59 262.867 515.337 262.184V263.912ZM532.809 266.088V275.624C536.18 276.904 539.465 278.525 542.665 280.488L538.441 294.696C536.308 292.605 534.068 290.643 531.721 288.808C529.545 294.525 524.169 297.384 515.593 297.384C510.388 297.384 506.185 296.253 502.985 293.992C499.785 291.688 498.185 288.36 498.185 284.008C498.185 281.405 498.91 279.165 500.361 277.288C501.812 275.411 503.774 273.981 506.249 273C508.724 272.019 511.454 271.528 514.441 271.528C515.764 271.528 517.044 271.613 518.281 271.784V266.088H532.809ZM518.281 282.024C517.086 281.811 516.041 281.704 515.145 281.704C514.078 281.704 513.31 281.811 512.841 282.024C512.372 282.237 512.137 282.6 512.137 283.112C512.137 283.581 512.457 284.029 513.097 284.456C513.737 284.84 514.59 285.032 515.657 285.032C516.681 285.032 517.364 284.84 517.705 284.456C518.089 284.072 518.281 283.496 518.281 282.728V282.024ZM568.969 252.328C577.673 250.664 586.27 249.832 594.761 249.832C597.321 249.832 600.201 249.939 603.401 250.152C603.401 253.181 603.444 255.805 603.529 258.024C603.614 260.2 603.828 262.397 604.169 264.616C599.262 264.019 594.761 263.72 590.665 263.72C584.094 263.72 577.118 264.488 569.737 266.024L568.969 252.328ZM548.617 296.552C547.849 292.883 547.273 289.427 546.889 286.184C546.548 282.899 546.377 279.208 546.377 275.112C546.377 268.413 546.91 260.264 547.977 250.664H564.297C563.017 261.331 562.377 269.651 562.377 275.624C562.377 279.549 562.612 283.048 563.081 286.12C563.593 289.149 564.361 292.179 565.385 295.208L548.617 296.552ZM586.377 296.296C579.465 296.296 574.43 294.952 571.273 292.264C568.116 289.576 566.537 285.459 566.537 279.912C566.537 278.333 566.665 276.648 566.921 274.856C571.913 274.429 576.393 273.171 580.361 271.08C580.148 272.915 580.041 274.323 580.041 275.304C580.041 276.968 580.254 278.227 580.681 279.08C581.15 279.933 581.833 280.509 582.729 280.808C583.625 281.107 584.841 281.256 586.377 281.256C590.174 281.256 593.545 281.149 596.489 280.936C599.476 280.68 602.953 280.083 606.921 279.144C606.494 280.723 606.153 283.005 605.897 285.992C605.684 288.936 605.577 291.987 605.577 295.144C602.078 295.613 598.878 295.933 595.977 296.104C593.076 296.232 589.876 296.296 586.377 296.296ZM641.801 246.312C645.854 246.312 649.588 246.995 653.001 248.36C656.457 249.725 659.188 251.624 661.193 254.056C663.198 256.488 664.201 259.283 664.201 262.44C664.201 265 663.582 267.197 662.345 269.032C661.108 270.867 659.529 272.36 657.609 273.512L654.217 275.432C652.382 276.456 651.166 277.16 650.569 277.544C649.588 278.141 648.905 278.803 648.521 279.528C648.137 280.253 647.945 281.107 647.945 282.088H633.289C633.289 278.845 634.057 276.136 635.593 273.96C637.129 271.741 639.71 269.821 643.337 268.2C644.958 267.475 646.132 266.685 646.857 265.832C647.625 264.936 648.009 263.933 648.009 262.824C648.009 261.587 647.412 260.52 646.217 259.624C645.065 258.728 643.593 258.28 641.801 258.28C639.369 258.28 637.47 258.877 636.105 260.072C634.782 261.267 634.121 262.952 634.121 265.128C634.121 265.981 634.249 266.963 634.505 268.072C631.092 267.091 625.993 266.6 619.209 266.6C619.166 266.216 619.145 265.683 619.145 265C619.145 261.416 620.084 258.216 621.961 255.4C623.881 252.541 626.548 250.323 629.961 248.744C633.417 247.123 637.364 246.312 641.801 246.312ZM648.009 298.28H633.161V286.888H648.009V298.28Z" fill="#606C38"/>
<path d="M182.408 291.496L180.405 293.729L182.408 291.496ZM182.408 255.848L184.499 257.999L182.408 255.848ZM230.792 263.08L231.769 265.916L234.989 264.807L233.483 261.753L230.792 263.08ZM217.288 269.032L214.624 270.412L215.998 273.064L218.656 271.702L217.288 269.032ZM211.4 263.72L210.202 266.471L210.21 266.474L210.218 266.477L211.4 263.72ZM194.12 265.256L196.306 267.311L196.316 267.3L196.326 267.289L194.12 265.256ZM194.312 281.576L192.17 283.676L192.191 283.697L192.212 283.718L194.312 281.576ZM212.68 283.048L214.128 285.676L214.148 285.664L214.168 285.653L212.68 283.048ZM217.288 277.416L218.706 274.773L215.706 273.162L214.487 276.342L217.288 277.416ZM230.728 283.752L233.501 284.898L234.63 282.164L231.912 280.996L230.728 283.752ZM220.04 294.568L218.901 291.792L220.04 294.568ZM203.72 294.64C194.413 294.64 188.186 292.649 184.411 289.263L180.405 293.729C185.761 298.535 193.742 300.64 203.72 300.64V294.64ZM184.411 289.263C180.627 285.867 178.56 280.921 178.56 273.96H172.56C172.56 282.188 175.059 288.933 180.405 293.729L184.411 289.263ZM178.56 273.96C178.56 266.959 180.629 261.761 184.499 257.999L180.317 253.697C175.057 258.81 172.56 265.686 172.56 273.96H178.56ZM184.499 257.999C188.274 254.33 194.464 252.192 203.72 252.192V246.192C193.69 246.192 185.672 248.492 180.317 253.697L184.499 257.999ZM203.72 252.192C216.473 252.192 224.201 256.497 228.101 264.407L233.483 261.753C228.252 251.146 217.932 246.192 203.72 246.192V252.192ZM229.815 260.244C225.798 261.627 221.16 263.677 215.92 266.362L218.656 271.702C223.741 269.096 228.106 267.178 231.769 265.916L229.815 260.244ZM219.952 267.652C218.367 264.591 215.849 262.363 212.582 260.963L210.218 266.477C212.327 267.381 213.735 268.694 214.624 270.412L219.952 267.652ZM212.598 260.969C209.59 259.66 206.474 258.992 203.272 258.992V264.992C205.616 264.992 207.919 265.476 210.202 266.471L212.598 260.969ZM203.272 258.992C198.67 258.992 194.679 260.223 191.914 263.223L196.326 267.289C197.572 265.937 199.682 264.992 203.272 264.992V258.992ZM191.934 263.201C189.363 265.937 188.112 269.337 188.112 273.192H194.112C194.112 270.733 194.867 268.842 196.306 267.311L191.934 263.201ZM188.112 273.192C188.112 277.288 189.419 280.87 192.17 283.676L196.454 279.476C194.939 277.93 194.112 275.923 194.112 273.192H188.112ZM192.212 283.718C195.16 286.609 199.366 287.776 204.232 287.776V281.776C200.223 281.776 197.816 280.81 196.412 279.434L192.212 283.718ZM204.232 287.776C208.053 287.776 211.43 287.162 214.128 285.676L211.232 280.42C209.748 281.238 207.494 281.776 204.232 281.776V287.776ZM214.168 285.653C216.943 284.067 218.896 281.602 220.089 278.49L214.487 276.342C213.717 278.35 212.599 279.639 211.192 280.443L214.168 285.653ZM215.87 280.059C219.472 281.993 224.038 284.142 229.544 286.508L231.912 280.996C226.496 278.668 222.101 276.594 218.706 274.773L215.87 280.059ZM227.955 282.606C226.116 287.059 223.124 290.06 218.901 291.792L221.179 297.344C226.94 294.98 231.074 290.771 233.501 284.898L227.955 282.606ZM218.901 291.792C214.302 293.679 209.253 294.64 203.72 294.64V300.64C209.963 300.64 215.794 299.553 221.179 297.344L218.901 291.792ZM235.935 291.496L233.439 289.832L231.57 292.635L234.57 294.168L235.935 291.496ZM239.519 285.416L236.86 284.026L236.848 284.05L236.836 284.074L239.519 285.416ZM242.335 278.888L243.835 276.29L240.734 274.499L239.514 277.867L242.335 278.888ZM252.895 282.984L252.182 285.898L252.895 282.984ZM271.583 283.56L272.725 286.334L272.76 286.32L272.794 286.305L271.583 283.56ZM242.911 274.92L241.641 277.638L241.653 277.643L241.665 277.649L242.911 274.92ZM244.191 253.352L245.679 255.957L244.191 253.352ZM276.447 250.984L275.726 253.896L275.741 253.9L275.757 253.904L276.447 250.984ZM289.119 255.592L291.866 256.799L292.993 254.232L290.509 252.933L289.119 255.592ZM285.215 265.896L282.372 264.938L282.356 264.986L282.342 265.034L285.215 265.896ZM284.575 267.816L282.695 270.154L285.855 272.694L287.36 268.93L284.575 267.816ZM274.719 263.464L273.932 266.359L273.945 266.363L273.958 266.366L274.719 263.464ZM254.879 262.504L255.904 265.323L255.942 265.31L255.979 265.295L254.879 262.504ZM255.647 267.304L254.698 270.15L254.736 270.163L254.774 270.174L255.647 267.304ZM283.807 271.336L282.443 274.008L282.454 274.014L282.465 274.019L283.807 271.336ZM283.423 293.736L284.963 296.311L284.972 296.305L284.981 296.3L283.423 293.736ZM249.183 296.104L248.546 299.036L248.558 299.038L248.57 299.041L249.183 296.104ZM238.431 293.16C239.935 290.905 241.196 288.769 242.202 286.758L236.836 284.074C235.964 285.817 234.837 287.735 233.439 289.832L238.431 293.16ZM242.178 286.806C243.234 284.785 244.225 282.481 245.156 279.909L239.514 277.867C238.653 280.244 237.767 282.292 236.86 284.026L242.178 286.806ZM240.835 281.486C244.15 283.4 247.944 284.861 252.182 285.898L253.608 280.07C249.825 279.144 246.579 277.874 243.835 276.29L240.835 281.486ZM252.182 285.898C256.382 286.926 260.358 287.456 264.095 287.456V281.456C260.92 281.456 257.429 281.005 253.608 280.07L252.182 285.898ZM264.095 287.456C267.658 287.456 270.68 287.176 272.725 286.334L270.441 280.786C269.584 281.139 267.615 281.456 264.095 281.456V287.456ZM272.794 286.305C273.669 285.919 274.558 285.424 275.271 284.753C276.004 284.063 276.759 282.974 276.759 281.512H270.759C270.759 281.173 270.848 280.883 270.956 280.674C271.056 280.48 271.153 280.389 271.159 280.383C271.165 280.378 271.117 280.423 270.977 280.508C270.84 280.592 270.643 280.696 270.372 280.815L272.794 286.305ZM276.759 281.512C276.759 278.189 274.066 276.503 271.718 275.733C269.271 274.931 265.909 274.608 261.855 274.608V280.608C265.737 280.608 268.327 280.936 269.848 281.435C271.468 281.966 270.759 282.232 270.759 281.512H276.759ZM261.855 274.608C253.231 274.608 247.465 273.701 244.157 272.191L241.665 277.649C246.208 279.723 253.071 280.608 261.855 280.608V274.608ZM244.181 272.202C242.604 271.465 241.606 270.594 240.991 269.672C240.384 268.762 240.023 267.611 240.023 266.088H234.023C234.023 268.618 234.643 270.966 235.999 273C237.346 275.022 239.292 276.54 241.641 277.638L244.181 272.202ZM240.023 266.088C240.023 261.343 241.888 258.123 245.679 255.957L242.703 250.747C236.937 254.042 234.023 259.313 234.023 266.088H240.023ZM245.679 255.957C249.863 253.566 255.507 252.256 262.815 252.256V246.256C254.848 246.256 248.077 247.676 242.703 250.747L245.679 255.957ZM262.815 252.256C266.991 252.256 271.292 252.798 275.726 253.896L277.168 248.072C272.3 246.866 267.514 246.256 262.815 246.256V252.256ZM275.757 253.904C280.24 254.963 284.224 256.418 287.729 258.251L290.509 252.933C286.505 250.84 282.041 249.223 277.137 248.064L275.757 253.904ZM286.372 254.385C285.088 257.307 283.756 260.83 282.372 264.938L288.058 266.854C289.405 262.855 290.675 259.509 291.866 256.799L286.372 254.385ZM282.342 265.034C282.092 265.865 281.909 266.402 281.79 266.702L287.36 268.93C287.582 268.376 287.826 267.633 288.088 266.758L282.342 265.034ZM286.455 265.478C283.807 263.349 280.057 261.762 275.48 260.562L273.958 266.366C278.17 267.47 280.991 268.784 282.695 270.154L286.455 265.478ZM275.506 260.569C270.938 259.327 266.782 258.672 263.071 258.672V264.672C266.101 264.672 269.71 265.211 273.932 266.359L275.506 260.569ZM263.071 258.672C260.986 258.672 259.181 258.743 257.68 258.895C256.225 259.043 254.867 259.284 253.779 259.713L255.979 265.295C256.299 265.169 257.011 264.994 258.286 264.865C259.516 264.74 261.103 264.672 263.071 264.672V258.672ZM253.854 259.685C252.882 260.038 251.873 260.576 251.084 261.437C250.234 262.363 249.767 263.531 249.767 264.808H255.767C255.767 264.903 255.749 265.038 255.691 265.185C255.634 265.331 255.559 265.434 255.506 265.491C255.459 265.543 255.446 265.541 255.51 265.502C255.575 265.462 255.699 265.398 255.904 265.323L253.854 259.685ZM249.767 264.808C249.767 266.394 250.556 267.63 251.522 268.467C252.424 269.248 253.561 269.771 254.698 270.15L256.596 264.458C256.225 264.334 255.95 264.218 255.752 264.117C255.552 264.014 255.467 263.946 255.452 263.933C255.439 263.922 255.524 263.991 255.612 264.162C255.707 264.347 255.767 264.574 255.767 264.808H249.767ZM254.774 270.174C257.159 270.9 260.324 271.2 264.095 271.2V265.2C260.528 265.2 258.06 264.903 256.52 264.434L254.774 270.174ZM264.095 271.2C273.04 271.2 279.009 272.255 282.443 274.008L285.171 268.664C280.413 266.235 273.241 265.2 264.095 265.2V271.2ZM282.465 274.019C284.139 274.856 285.222 275.831 285.898 276.873C286.566 277.902 286.951 279.174 286.951 280.808H292.951C292.951 278.175 292.312 275.735 290.932 273.607C289.56 271.492 287.571 269.864 285.149 268.653L282.465 274.019ZM286.951 280.808C286.951 285.947 285.153 289.174 281.865 291.172L284.981 296.3C290.397 293.008 292.951 287.616 292.951 280.808H286.951ZM281.883 291.161C278.226 293.348 272.288 294.64 263.647 294.64V300.64C272.67 300.64 279.916 299.329 284.963 296.311L281.883 291.161ZM263.647 294.64C259.129 294.64 254.513 294.152 249.796 293.167L248.57 299.041C253.667 300.104 258.693 300.64 263.647 300.64V294.64ZM249.82 293.172C245.132 292.153 240.966 290.697 237.3 288.824L234.57 294.168C238.755 296.306 243.421 297.921 248.546 299.036L249.82 293.172ZM295.06 291.496L292.564 289.832L290.695 292.635L293.695 294.168L295.06 291.496ZM298.644 285.416L295.985 284.026L295.973 284.05L295.961 284.074L298.644 285.416ZM301.46 278.888L302.96 276.29L299.859 274.499L298.639 277.867L301.46 278.888ZM312.02 282.984L311.307 285.898L312.02 282.984ZM330.708 283.56L331.85 286.334L331.885 286.32L331.919 286.305L330.708 283.56ZM302.036 274.92L300.766 277.638L300.778 277.643L300.79 277.649L302.036 274.92ZM303.316 253.352L304.804 255.957L303.316 253.352ZM335.572 250.984L334.851 253.896L334.866 253.9L334.882 253.904L335.572 250.984ZM348.244 255.592L350.991 256.799L352.118 254.232L349.634 252.933L348.244 255.592ZM344.34 265.896L341.497 264.938L341.481 264.986L341.467 265.034L344.34 265.896ZM343.7 267.816L341.82 270.154L344.98 272.694L346.485 268.93L343.7 267.816ZM333.844 263.464L333.057 266.359L333.07 266.363L333.083 266.366L333.844 263.464ZM314.004 262.504L315.029 265.323L315.067 265.31L315.104 265.295L314.004 262.504ZM314.772 267.304L313.823 270.15L313.861 270.163L313.899 270.174L314.772 267.304ZM342.932 271.336L341.568 274.008L341.579 274.014L341.59 274.019L342.932 271.336ZM342.548 293.736L344.088 296.311L344.097 296.305L344.106 296.3L342.548 293.736ZM308.308 296.104L307.671 299.036L307.683 299.038L307.695 299.041L308.308 296.104ZM297.556 293.16C299.06 290.905 300.321 288.769 301.327 286.758L295.961 284.074C295.089 285.817 293.962 287.735 292.564 289.832L297.556 293.16ZM301.303 286.806C302.359 284.785 303.35 282.481 304.281 279.909L298.639 277.867C297.778 280.244 296.892 282.292 295.985 284.026L301.303 286.806ZM299.96 281.486C303.275 283.4 307.069 284.861 311.307 285.898L312.733 280.07C308.95 279.144 305.704 277.874 302.96 276.29L299.96 281.486ZM311.307 285.898C315.507 286.926 319.483 287.456 323.22 287.456V281.456C320.045 281.456 316.554 281.005 312.733 280.07L311.307 285.898ZM323.22 287.456C326.783 287.456 329.805 287.176 331.85 286.334L329.566 280.786C328.709 281.139 326.74 281.456 323.22 281.456V287.456ZM331.919 286.305C332.794 285.919 333.683 285.424 334.396 284.753C335.129 284.063 335.884 282.974 335.884 281.512H329.884C329.884 281.173 329.973 280.883 330.081 280.674C330.181 280.48 330.278 280.389 330.284 280.383C330.29 280.378 330.242 280.423 330.102 280.508C329.965 280.592 329.768 280.696 329.497 280.815L331.919 286.305ZM335.884 281.512C335.884 278.189 333.191 276.503 330.843 275.733C328.396 274.931 325.034 274.608 320.98 274.608V280.608C324.862 280.608 327.452 280.936 328.973 281.435C330.593 281.966 329.884 282.232 329.884 281.512H335.884ZM320.98 274.608C312.356 274.608 306.59 273.701 303.282 272.191L300.79 277.649C305.333 279.723 312.196 280.608 320.98 280.608V274.608ZM303.306 272.202C301.729 271.465 300.731 270.594 300.116 269.672C299.509 268.762 299.148 267.611 299.148 266.088H293.148C293.148 268.618 293.768 270.966 295.124 273C296.471 275.022 298.417 276.54 300.766 277.638L303.306 272.202ZM299.148 266.088C299.148 261.343 301.013 258.123 304.804 255.957L301.828 250.747C296.062 254.042 293.148 259.313 293.148 266.088H299.148ZM304.804 255.957C308.988 253.566 314.632 252.256 321.94 252.256V246.256C313.973 246.256 307.202 247.676 301.828 250.747L304.804 255.957ZM321.94 252.256C326.116 252.256 330.417 252.798 334.851 253.896L336.293 248.072C331.425 246.866 326.639 246.256 321.94 246.256V252.256ZM334.882 253.904C339.365 254.963 343.349 256.418 346.854 258.251L349.634 252.933C345.63 250.84 341.166 249.223 336.262 248.064L334.882 253.904ZM345.497 254.385C344.214 257.307 342.881 260.83 341.497 264.938L347.183 266.854C348.53 262.855 349.8 259.509 350.991 256.799L345.497 254.385ZM341.467 265.034C341.217 265.865 341.034 266.402 340.915 266.702L346.485 268.93C346.707 268.376 346.951 267.633 347.213 266.758L341.467 265.034ZM345.58 265.478C342.932 263.349 339.182 261.762 334.605 260.562L333.083 266.366C337.295 267.47 340.116 268.784 341.82 270.154L345.58 265.478ZM334.631 260.569C330.063 259.327 325.907 258.672 322.196 258.672V264.672C325.226 264.672 328.835 265.211 333.057 266.359L334.631 260.569ZM322.196 258.672C320.111 258.672 318.306 258.743 316.805 258.895C315.35 259.043 313.992 259.284 312.904 259.713L315.104 265.295C315.424 265.169 316.136 264.994 317.411 264.865C318.641 264.74 320.228 264.672 322.196 264.672V258.672ZM312.979 259.685C312.007 260.038 310.998 260.576 310.209 261.437C309.359 262.363 308.892 263.531 308.892 264.808H314.892C314.892 264.903 314.874 265.038 314.816 265.185C314.759 265.331 314.684 265.434 314.631 265.491C314.584 265.543 314.571 265.541 314.635 265.502C314.7 265.462 314.824 265.398 315.029 265.323L312.979 259.685ZM308.892 264.808C308.892 266.394 309.681 267.63 310.647 268.467C311.549 269.248 312.686 269.771 313.823 270.15L315.721 264.458C315.35 264.334 315.075 264.218 314.877 264.117C314.677 264.014 314.592 263.946 314.577 263.933C314.564 263.922 314.649 263.991 314.737 264.162C314.832 264.347 314.892 264.574 314.892 264.808H308.892ZM313.899 270.174C316.284 270.9 319.449 271.2 323.22 271.2V265.2C319.653 265.2 317.185 264.903 315.645 264.434L313.899 270.174ZM323.22 271.2C332.165 271.2 338.134 272.255 341.568 274.008L344.296 268.664C339.538 266.235 332.366 265.2 323.22 265.2V271.2ZM341.59 274.019C343.264 274.856 344.347 275.831 345.023 276.873C345.691 277.902 346.076 279.174 346.076 280.808H352.076C352.076 278.175 351.437 275.735 350.057 273.607C348.685 271.492 346.696 269.864 344.274 268.653L341.59 274.019ZM346.076 280.808C346.076 285.947 344.278 289.174 340.99 291.172L344.106 296.3C349.522 293.008 352.076 287.616 352.076 280.808H346.076ZM341.008 291.161C337.351 293.348 331.413 294.64 322.772 294.64V300.64C331.795 300.64 339.041 299.329 344.088 296.311L341.008 291.161ZM322.772 294.64C318.254 294.64 313.638 294.152 308.921 293.167L307.695 299.041C312.792 300.104 317.818 300.64 322.772 300.64V294.64ZM308.945 293.172C304.257 292.153 300.091 290.697 296.425 288.824L293.695 294.168C297.88 296.306 302.546 297.921 307.671 299.036L308.945 293.172ZM365.577 295.976L362.597 296.322L362.909 299.014L365.619 298.976L365.577 295.976ZM363.593 287.848L360.798 288.938L360.801 288.946L360.804 288.954L363.593 287.848ZM359.369 280.232L359.489 277.234L353.354 276.989L356.931 281.98L359.369 280.232ZM389.833 278.12L389.027 275.23L389.019 275.232L389.012 275.235L389.833 278.12ZM393.353 276.712L391.524 274.334L391.477 274.37L391.432 274.407L393.353 276.712ZM391.689 271.144L390.292 273.799L390.333 273.821L390.375 273.841L391.689 271.144ZM371.657 271.208L372.162 274.165L371.657 271.208ZM358.537 274.344L355.602 274.965L356.303 278.277L359.506 277.183L358.537 274.344ZM355.529 260.136L354.912 257.2L351.972 257.818L352.594 260.757L355.529 260.136ZM372.233 257.256L372.62 260.231L372.63 260.23L372.64 260.228L372.233 257.256ZM399.113 258.216L398.077 261.032L398.088 261.035L399.113 258.216ZM407.689 264.168L405.294 265.974L405.303 265.987L405.313 265.999L407.689 264.168ZM404.681 287.336L406.579 289.659L406.582 289.657L404.681 287.336ZM389.001 293.992L389.544 296.942L389.001 293.992ZM368.557 295.63C368.189 292.455 367.47 289.487 366.382 286.742L360.804 288.954C361.679 291.159 362.282 293.609 362.597 296.322L368.557 295.63ZM366.388 286.758C365.302 283.973 363.765 281.215 361.807 278.484L356.931 281.98C358.643 284.369 359.921 286.688 360.798 288.938L366.388 286.758ZM359.249 283.23C363.516 283.4 366.599 283.488 368.457 283.488V277.488C366.731 277.488 363.755 277.405 359.489 277.234L359.249 283.23ZM368.457 283.488C377.313 283.488 384.742 282.688 390.654 281.005L389.012 275.235C383.831 276.709 377.009 277.488 368.457 277.488V283.488ZM390.639 281.01C391.615 280.737 392.479 280.459 393.203 280.169C393.87 279.903 394.647 279.539 395.274 279.017L391.432 274.407C391.547 274.312 391.482 274.396 390.975 274.599C390.525 274.778 389.886 274.991 389.027 275.23L390.639 281.01ZM395.182 279.09C396.676 277.941 397.185 276.269 397.185 274.728H391.185C391.185 274.874 391.162 274.852 391.21 274.736C391.235 274.676 391.275 274.602 391.334 274.526C391.393 274.448 391.459 274.384 391.524 274.334L395.182 279.09ZM397.185 274.728C397.185 273.38 396.819 272.077 396.023 270.934C395.245 269.817 394.173 269.017 393.003 268.447L390.375 273.841C390.869 274.082 391.045 274.284 391.099 274.362C391.135 274.414 391.185 274.497 391.185 274.728H397.185ZM393.086 268.489C390.831 267.302 387.889 266.864 384.585 266.864V272.864C387.51 272.864 389.304 273.279 390.292 273.799L393.086 268.489ZM384.585 266.864C380.977 266.864 376.483 267.341 371.152 268.251L372.162 274.165C377.327 273.283 381.451 272.864 384.585 272.864V266.864ZM371.152 268.251C365.809 269.163 361.268 270.242 357.568 271.505L359.506 277.183C362.804 276.057 367.009 275.045 372.162 274.165L371.152 268.251ZM361.472 273.723L358.464 259.515L352.594 260.757L355.602 274.965L361.472 273.723ZM356.146 263.072C361.968 261.848 367.459 260.902 372.62 260.231L371.846 254.281C366.511 254.975 360.866 255.949 354.912 257.2L356.146 263.072ZM372.64 260.228C377.849 259.514 382.206 259.168 385.737 259.168V253.168C381.844 253.168 377.198 253.547 371.826 254.284L372.64 260.228ZM385.737 259.168C390.694 259.168 394.783 259.82 398.077 261.032L400.149 255.4C396.019 253.881 391.19 253.168 385.737 253.168V259.168ZM398.088 261.035C401.421 262.247 403.752 263.93 405.294 265.974L410.084 262.362C407.701 259.201 404.314 256.915 400.138 255.397L398.088 261.035ZM405.313 265.999C406.876 268.028 407.697 270.463 407.697 273.448H413.697C413.697 269.265 412.512 265.513 410.065 262.337L405.313 265.999ZM407.697 273.448C407.697 278.675 405.984 282.39 402.78 285.015L406.582 289.657C411.399 285.711 413.697 280.167 413.697 273.448H407.697ZM402.783 285.013C399.303 287.857 394.585 289.913 388.458 291.042L389.544 296.942C396.388 295.682 402.123 293.301 406.579 289.659L402.783 285.013ZM388.458 291.042C382.187 292.197 374.556 292.85 365.535 292.976L365.619 298.976C374.859 298.846 382.844 298.177 389.544 296.942L388.458 291.042ZM464.585 261.928V258.928H464.518L464.452 258.931L464.585 261.928ZM454.793 264.424L456.25 267.046L454.793 264.424ZM448.713 270.056L446.145 268.505L446.14 268.513L446.136 268.52L448.713 270.056ZM447.561 279.976L445.178 281.798L445.211 281.841L445.245 281.883L447.561 279.976ZM472.585 281.704L475.33 282.914L477.333 278.369L472.379 278.711L472.585 281.704ZM470.473 288.744L467.501 288.336L467.497 288.361L467.494 288.387L470.473 288.744ZM470.025 296.488L470.132 299.486L472.984 299.384L473.025 296.53L470.025 296.488ZM442.633 294.632L441.883 297.537L441.897 297.54L441.911 297.544L442.633 294.632ZM432.265 289.32L429.892 291.156L429.911 291.181L429.931 291.205L432.265 289.32ZM431.945 270.632L434.621 271.989L434.625 271.981L434.628 271.974L431.945 270.632ZM438.409 262.504L440.347 264.794L448.454 257.934L437.956 259.538L438.409 262.504ZM419.145 265.448H416.145V268.941L419.598 268.414L419.145 265.448ZM419.145 250.6V247.6H416.145V250.6H419.145ZM435.913 250.28L435.835 247.281L435.832 247.281L435.913 250.28ZM448.265 249.96L448.207 246.961L448.197 246.961L448.187 246.961L448.265 249.96ZM460.425 249.64L460.528 252.638L460.546 252.638L460.563 252.637L460.425 249.64ZM475.721 248.872L478.721 248.828L478.675 245.712L475.563 245.876L475.721 248.872ZM475.913 261.928V264.928H478.957L478.913 261.884L475.913 261.928ZM464.452 258.931C460.261 259.117 456.519 260.033 453.336 261.802L456.25 267.046C458.443 265.828 461.229 265.08 464.718 264.925L464.452 258.931ZM453.336 261.802C450.266 263.507 447.822 265.727 446.145 268.505L451.281 271.607C452.334 269.862 453.944 268.328 456.25 267.046L453.336 261.802ZM446.136 268.52C444.56 271.164 443.729 273.994 443.729 276.968H449.729C449.729 275.163 450.221 273.385 451.29 271.592L446.136 268.52ZM443.729 276.968C443.729 278.648 444.09 280.376 445.178 281.798L449.944 278.154C449.922 278.125 449.729 277.848 449.729 276.968H443.729ZM445.245 281.883C446.525 283.437 448.599 284.162 450.516 284.573L451.774 278.707C451.018 278.545 450.501 278.369 450.168 278.215C449.825 278.056 449.799 277.975 449.877 278.069L445.245 281.883ZM450.516 284.573C452.628 285.026 455.574 285.216 459.209 285.216V279.216C455.676 279.216 453.246 279.022 451.774 278.707L450.516 284.573ZM459.209 285.216C463.26 285.216 467.79 285.042 472.791 284.697L472.379 278.711C467.482 279.049 463.094 279.216 459.209 279.216V285.216ZM469.84 280.494C468.645 283.206 467.846 285.824 467.501 288.336L473.445 289.152C473.698 287.312 474.306 285.237 475.33 282.914L469.84 280.494ZM467.494 288.387C467.222 290.657 467.069 293.35 467.025 296.446L473.025 296.53C473.066 293.567 473.212 291.098 473.452 289.101L467.494 288.387ZM469.918 293.49C468.778 293.531 467.092 293.552 464.841 293.552V299.552C467.113 299.552 468.883 299.531 470.132 299.486L469.918 293.49ZM464.841 293.552C455.279 293.552 448.163 292.912 443.355 291.72L441.911 297.544C447.428 298.912 455.118 299.552 464.841 299.552V293.552ZM443.383 291.727C438.425 290.447 435.764 288.878 434.599 287.435L429.931 291.205C432.35 294.199 436.601 296.172 441.883 297.537L443.383 291.727ZM434.638 287.484C433.375 285.851 432.641 283.678 432.641 280.744H426.641C426.641 284.722 427.657 288.266 429.892 291.156L434.638 287.484ZM432.641 280.744C432.641 277.459 433.317 274.56 434.621 271.989L429.269 269.275C427.501 272.763 426.641 276.605 426.641 280.744H432.641ZM434.628 271.974C435.972 269.286 437.865 266.894 440.347 264.794L436.471 260.214C433.406 262.808 430.99 265.834 429.262 269.29L434.628 271.974ZM437.956 259.538L418.692 262.482L419.598 268.414L438.862 265.47L437.956 259.538ZM422.145 265.448V250.6H416.145V265.448H422.145ZM419.145 253.6C422.475 253.6 428.101 253.492 435.994 253.279L435.832 247.281C427.939 247.494 422.386 247.6 419.145 247.6V253.6ZM435.991 253.279L448.343 252.959L448.187 246.961L435.835 247.281L435.991 253.279ZM448.323 252.959C452.73 252.874 456.799 252.767 460.528 252.638L460.322 246.642C456.627 246.769 452.589 246.875 448.207 246.961L448.323 252.959ZM460.563 252.637C464.285 252.466 469.391 252.209 475.879 251.868L475.563 245.876C469.081 246.217 463.989 246.473 460.287 246.643L460.563 252.637ZM472.721 248.916L472.913 261.972L478.913 261.884L478.721 248.828L472.721 248.916ZM475.913 258.928H464.585V264.928H475.913V258.928ZM515.337 263.912L515.635 266.897L518.337 266.627V263.912H515.337ZM503.497 264.808L503.305 261.814L501.071 261.957L500.572 264.14L503.497 264.808ZM497.161 281.512L494.536 280.059L494.532 280.067L494.527 280.075L497.161 281.512ZM486.985 295.016L484.122 295.911L485.573 300.557L489.071 297.172L486.985 295.016ZM483.593 286.376L480.872 287.64L483.593 286.376ZM479.625 279.208L477.588 277.005L475.656 278.792L477.176 280.94L479.625 279.208ZM485.257 272.744L487.746 274.419L487.753 274.408L487.76 274.397L485.257 272.744ZM488.841 265.192L491.696 266.114L493.001 262.075L488.758 262.193L488.841 265.192ZM481.865 265.256H478.865V268.256H481.865V265.256ZM481.865 252.584V249.584H478.865V252.584H481.865ZM490.953 252.52L491.017 255.519L493.775 255.461L493.947 252.707L490.953 252.52ZM491.081 249.384V246.384H488.081V249.384H491.081ZM505.225 249.384H508.225V246.384H505.225V249.384ZM505.161 252.072L502.169 251.858L501.926 255.26L505.331 255.067L505.161 252.072ZM515.337 251.24H518.337V247.944L515.055 248.253L515.337 251.24ZM515.337 260.84H512.337L518.214 261.691L515.337 260.84ZM518.537 250.024L518.923 247.049L516.386 246.72L515.66 249.173L518.537 250.024ZM542.793 254.376L545.684 255.176L546.513 252.183L543.492 251.459L542.793 254.376ZM539.145 267.56L538.188 270.403L541.191 271.414L542.036 268.36L539.145 267.56ZM515.337 262.184L515.618 259.197L512.337 258.888V262.184H515.337ZM532.809 266.088H535.809V263.088H532.809V266.088ZM532.809 275.624H529.809V277.694L531.744 278.429L532.809 275.624ZM542.665 280.488L545.541 281.343L546.197 279.135L544.233 277.931L542.665 280.488ZM538.441 294.696L536.341 296.839L539.898 300.324L541.317 295.551L538.441 294.696ZM531.721 288.808L533.569 286.445L530.364 283.939L528.917 287.741L531.721 288.808ZM502.985 293.992L501.232 296.427L501.243 296.434L501.254 296.442L502.985 293.992ZM500.361 277.288L497.987 275.454V275.454L500.361 277.288ZM506.249 273L505.143 270.211L506.249 273ZM518.281 271.784L517.871 274.756L521.281 275.226V271.784H518.281ZM518.281 266.088V263.088H515.281V266.088H518.281ZM518.281 282.024H521.281V279.512L518.808 279.071L518.281 282.024ZM512.841 282.024L514.082 284.755L514.082 284.755L512.841 282.024ZM513.097 284.456L511.433 286.952L511.492 286.992L511.554 287.028L513.097 284.456ZM517.705 284.456L515.584 282.335L515.521 282.397L515.463 282.463L517.705 284.456ZM515.038 260.927C512.535 261.177 508.632 261.473 503.305 261.814L503.689 267.802C509.028 267.46 513.019 267.159 515.635 266.897L515.038 260.927ZM500.572 264.14C499.267 269.849 497.254 275.152 494.536 280.059L499.786 282.965C502.786 277.547 504.996 271.714 506.422 265.476L500.572 264.14ZM494.527 280.075C491.847 284.989 488.635 289.244 484.899 292.86L489.071 297.172C493.271 293.108 496.843 288.36 499.795 282.949L494.527 280.075ZM489.848 294.121C488.95 291.245 487.768 288.241 486.314 285.112L480.872 287.64C482.234 290.569 483.314 293.325 484.122 295.911L489.848 294.121ZM486.314 285.112C484.866 281.998 483.457 279.43 482.074 277.476L477.176 280.94C478.268 282.484 479.504 284.695 480.872 287.64L486.314 285.112ZM481.662 281.411C484.068 279.186 486.105 276.857 487.746 274.419L482.768 271.069C481.423 273.068 479.704 275.049 477.588 277.005L481.662 281.411ZM487.76 274.397C489.414 271.893 490.723 269.127 491.696 266.114L485.986 264.27C485.168 266.804 484.086 269.072 482.754 271.091L487.76 274.397ZM488.758 262.193C487.265 262.235 484.974 262.256 481.865 262.256V268.256C484.985 268.256 487.345 268.235 488.924 268.191L488.758 262.193ZM484.865 265.256V252.584H478.865V265.256H484.865ZM481.865 255.584C485.923 255.584 488.978 255.563 491.017 255.519L490.889 249.521C488.917 249.563 485.914 249.584 481.865 249.584V255.584ZM493.947 252.707C494.034 251.324 494.081 250.204 494.081 249.384H488.081C488.081 250.014 488.043 250.986 487.959 252.333L493.947 252.707ZM491.081 252.384H505.225V246.384H491.081V252.384ZM502.225 249.384C502.225 250.563 502.203 251.372 502.169 251.858L508.153 252.286C508.204 251.578 508.225 250.595 508.225 249.384H502.225ZM505.331 255.067C507.65 254.936 511.088 254.654 515.619 254.227L515.055 248.253C510.541 248.679 507.194 248.952 504.991 249.077L505.331 255.067ZM512.337 251.24V260.84H518.337V251.24H512.337ZM518.214 261.691L521.414 250.875L515.66 249.173L512.46 259.989L518.214 261.691ZM518.151 252.999C526.939 254.14 534.918 255.573 542.094 257.293L543.492 251.459C536.076 249.68 527.884 248.212 518.923 247.049L518.151 252.999ZM539.902 253.576L536.254 266.76L542.036 268.36L545.684 255.176L539.902 253.576ZM540.102 264.717C531.316 261.759 523.15 259.906 515.618 259.197L515.056 265.171C522.031 265.827 529.737 267.558 538.188 270.403L540.102 264.717ZM512.337 262.184V263.912H518.337V262.184H512.337ZM529.809 266.088V275.624H535.809V266.088H529.809ZM531.744 278.429C534.932 279.639 538.05 281.177 541.097 283.045L544.233 277.931C540.88 275.874 537.427 274.169 533.874 272.819L531.744 278.429ZM539.789 279.633L535.565 293.841L541.317 295.551L545.541 281.343L539.789 279.633ZM540.541 292.553C538.328 290.385 536.004 288.348 533.569 286.445L529.873 291.171C532.132 292.937 534.287 294.826 536.341 296.839L540.541 292.553ZM528.917 287.741C528.086 289.924 526.692 291.505 524.648 292.591C522.535 293.715 519.579 294.384 515.593 294.384V300.384C520.183 300.384 524.203 299.624 527.465 297.889C530.798 296.117 533.18 293.409 534.525 289.875L528.917 287.741ZM515.593 294.384C510.807 294.384 507.267 293.345 504.716 291.542L501.254 296.442C505.103 299.162 509.969 300.384 515.593 300.384V294.384ZM504.738 291.557C502.411 289.882 501.185 287.511 501.185 284.008H495.185C495.185 289.209 497.159 293.494 501.232 296.427L504.738 291.557ZM501.185 284.008C501.185 282.001 501.73 280.423 502.735 279.122L497.987 275.454C496.091 277.908 495.185 280.81 495.185 284.008H501.185ZM502.735 279.122C503.817 277.721 505.318 276.596 507.355 275.789L505.143 270.211C502.23 271.366 499.806 273.1 497.987 275.454L502.735 279.122ZM507.355 275.789C509.437 274.963 511.787 274.528 514.441 274.528V268.528C511.122 268.528 508.01 269.074 505.143 270.211L507.355 275.789ZM514.441 274.528C515.635 274.528 516.777 274.605 517.871 274.756L518.691 268.812C517.31 268.622 515.893 268.528 514.441 268.528V274.528ZM521.281 271.784V266.088H515.281V271.784H521.281ZM518.281 269.088H532.809V263.088H518.281V269.088ZM518.808 279.071C517.496 278.836 516.267 278.704 515.145 278.704V284.704C515.815 284.704 516.676 284.785 517.754 284.977L518.808 279.071ZM515.145 278.704C514.012 278.704 512.69 278.797 511.6 279.293L514.082 284.755C513.957 284.812 513.955 284.787 514.182 284.755C514.389 284.727 514.702 284.704 515.145 284.704V278.704ZM511.6 279.293C510.945 279.59 510.279 280.077 509.794 280.826C509.309 281.577 509.137 282.387 509.137 283.112H515.137C515.137 283.325 515.083 283.698 514.832 284.086C514.581 284.473 514.268 284.671 514.082 284.755L511.6 279.293ZM509.137 283.112C509.137 285.097 510.502 286.331 511.433 286.952L514.761 281.96C514.632 281.874 514.701 281.892 514.818 282.056C514.957 282.25 515.137 282.619 515.137 283.112H509.137ZM511.554 287.028C512.818 287.787 514.267 288.032 515.657 288.032V282.032C514.913 282.032 514.656 281.893 514.64 281.884L511.554 287.028ZM515.657 288.032C516.785 288.032 518.678 287.877 519.947 286.449L515.463 282.463C515.793 282.092 516.116 282.002 516.125 282C516.139 281.996 516.11 282.005 516.026 282.015C515.942 282.024 515.822 282.032 515.657 282.032V288.032ZM519.826 286.577C520.971 285.432 521.281 283.958 521.281 282.728H515.281C515.281 282.871 515.262 282.874 515.291 282.787C515.325 282.686 515.409 282.509 515.584 282.335L519.826 286.577ZM521.281 282.728V282.024H515.281V282.728H521.281ZM568.969 252.328L568.406 249.381L565.827 249.874L565.974 252.496L568.969 252.328ZM603.401 250.152H606.401V247.345L603.601 247.159L603.401 250.152ZM603.529 258.024L600.531 258.139L600.531 258.142L603.529 258.024ZM604.169 264.616L603.806 267.594L607.736 268.072L607.134 264.16L604.169 264.616ZM569.737 266.024L566.742 266.192L566.937 269.671L570.348 268.961L569.737 266.024ZM548.617 296.552L545.681 297.167L546.222 299.754L548.857 299.542L548.617 296.552ZM546.889 286.184L543.905 286.494L543.907 286.515L543.91 286.537L546.889 286.184ZM547.977 250.664V247.664H545.292L544.995 250.333L547.977 250.664ZM564.297 250.664L567.276 251.021L567.679 247.664H564.297V250.664ZM563.081 286.12L560.115 286.573L560.119 286.597L560.123 286.62L563.081 286.12ZM565.385 295.208L565.625 298.198L569.459 297.891L568.227 294.247L565.385 295.208ZM571.273 292.264L569.328 294.548L571.273 292.264ZM566.921 274.856L566.666 271.867L564.289 272.07L563.951 274.432L566.921 274.856ZM580.361 271.08L583.341 271.426L583.998 265.773L578.963 268.426L580.361 271.08ZM580.681 279.08L577.998 280.422L578.024 280.474L578.052 280.526L580.681 279.08ZM582.729 280.808L581.78 283.654L582.729 280.808ZM596.489 280.936L596.706 283.928L596.726 283.927L596.745 283.925L596.489 280.936ZM606.921 279.144L609.817 279.927L611.131 275.065L606.23 276.225L606.921 279.144ZM605.897 285.992L602.908 285.736L602.906 285.755L602.905 285.775L605.897 285.992ZM605.577 295.144L605.976 298.117L608.577 297.768V295.144H605.577ZM595.977 296.104L596.109 299.101L596.131 299.1L596.153 299.099L595.977 296.104ZM569.532 255.275C578.059 253.645 586.467 252.832 594.761 252.832V246.832C586.073 246.832 577.287 247.683 568.406 249.381L569.532 255.275ZM594.761 252.832C597.24 252.832 600.052 252.935 603.201 253.145L603.601 247.159C600.35 246.942 597.402 246.832 594.761 246.832V252.832ZM600.401 250.152C600.401 253.207 600.444 255.871 600.531 258.139L606.527 257.909C606.443 255.739 606.401 253.156 606.401 250.152H600.401ZM600.531 258.142C600.621 260.434 600.846 262.745 601.204 265.072L607.134 264.16C606.81 262.05 606.607 259.966 606.527 257.906L600.531 258.142ZM604.532 261.638C599.528 261.029 594.904 260.72 590.665 260.72V266.72C594.618 266.72 598.996 267.008 603.806 267.594L604.532 261.638ZM590.665 260.72C583.862 260.72 576.679 261.515 569.126 263.087L570.348 268.961C577.557 267.461 584.327 266.72 590.665 266.72V260.72ZM572.732 265.856L571.964 252.16L565.974 252.496L566.742 266.192L572.732 265.856ZM551.553 295.937C550.801 292.342 550.24 288.974 549.868 285.831L543.91 286.537C544.306 289.879 544.897 293.423 545.681 297.167L551.553 295.937ZM549.873 285.874C549.544 282.713 549.377 279.128 549.377 275.112H543.377C543.377 279.288 543.551 283.085 543.905 286.494L549.873 285.874ZM549.377 275.112C549.377 268.561 549.899 260.529 550.959 250.995L544.995 250.333C543.921 259.999 543.377 268.266 543.377 275.112H549.377ZM547.977 253.664H564.297V247.664H547.977V253.664ZM561.318 250.307C560.033 261.014 559.377 269.473 559.377 275.624H565.377C565.377 269.829 566.001 261.647 567.276 251.021L561.318 250.307ZM559.377 275.624C559.377 279.664 559.618 283.318 560.115 286.573L566.047 285.667C565.605 282.778 565.377 279.435 565.377 275.624H559.377ZM560.123 286.62C560.662 289.812 561.47 292.995 562.543 296.169L568.227 294.247C567.252 291.362 566.524 288.487 566.039 285.62L560.123 286.62ZM565.145 292.218L548.377 293.562L548.857 299.542L565.625 298.198L565.145 292.218ZM586.377 293.296C579.738 293.296 575.572 291.984 573.218 289.98L569.328 294.548C573.289 297.92 579.192 299.296 586.377 299.296V293.296ZM573.218 289.98C570.937 288.038 569.537 284.894 569.537 279.912H563.537C563.537 286.023 565.294 291.114 569.328 294.548L573.218 289.98ZM569.537 279.912C569.537 278.494 569.652 276.952 569.891 275.28L563.951 274.432C563.678 276.344 563.537 278.173 563.537 279.912H569.537ZM567.176 277.845C572.521 277.388 577.397 276.032 581.759 273.734L578.963 268.426C575.389 270.309 571.305 271.47 566.666 271.867L567.176 277.845ZM577.381 270.733C577.164 272.602 577.041 274.147 577.041 275.304H583.041C583.041 274.499 583.132 273.228 583.341 271.426L577.381 270.733ZM577.041 275.304C577.041 277.136 577.261 278.949 577.998 280.422L583.364 277.738C583.247 277.505 583.041 276.8 583.041 275.304H577.041ZM578.052 280.526C578.873 282.018 580.144 283.109 581.78 283.654L583.678 277.962C583.522 277.91 583.428 277.849 583.31 277.634L578.052 280.526ZM581.78 283.654C583.113 284.098 584.694 284.256 586.377 284.256V278.256C584.988 278.256 584.137 278.115 583.678 277.962L581.78 283.654ZM586.377 284.256C590.227 284.256 593.673 284.148 596.706 283.928L596.272 277.944C593.417 278.151 590.121 278.256 586.377 278.256V284.256ZM596.745 283.925C599.92 283.653 603.548 283.025 607.612 282.063L606.23 276.225C602.358 277.141 599.032 277.707 596.233 277.947L596.745 283.925ZM604.025 278.361C603.528 280.199 603.169 282.692 602.908 285.736L608.886 286.248C609.137 283.319 609.461 281.246 609.817 279.927L604.025 278.361ZM602.905 285.775C602.686 288.796 602.577 291.919 602.577 295.144H608.577C608.577 292.054 608.681 289.076 608.889 286.209L602.905 285.775ZM605.178 292.171C601.738 292.632 598.614 292.944 595.801 293.109L596.153 299.099C599.143 298.923 602.418 298.595 605.976 298.117L605.178 292.171ZM595.845 293.107C592.995 293.233 589.84 293.296 586.377 293.296V299.296C589.911 299.296 593.156 299.231 596.109 299.101L595.845 293.107ZM653.001 248.36L651.887 251.145L651.899 251.15L653.001 248.36ZM661.193 254.056L658.878 255.965V255.965L661.193 254.056ZM662.345 269.032L659.858 267.355V267.355L662.345 269.032ZM657.609 273.512L659.087 276.123L659.12 276.104L659.152 276.084L657.609 273.512ZM654.217 275.432L655.679 278.052L655.687 278.047L655.695 278.043L654.217 275.432ZM650.569 277.544L652.129 280.107L652.16 280.087L652.191 280.068L650.569 277.544ZM648.521 279.528L651.172 280.932V280.932L648.521 279.528ZM647.945 282.088V285.088H650.945V282.088H647.945ZM633.289 282.088H630.289V285.088H633.289V282.088ZM635.593 273.96L638.044 275.69L638.052 275.679L638.06 275.668L635.593 273.96ZM643.337 268.2L644.561 270.939L644.562 270.938L643.337 268.2ZM646.857 265.832L644.579 263.88L644.571 263.889L646.857 265.832ZM646.217 259.624L644.375 261.992L644.396 262.008L644.417 262.024L646.217 259.624ZM636.105 260.072L634.129 257.814L634.112 257.83L634.094 257.846L636.105 260.072ZM634.505 268.072L633.676 270.955L638.574 272.363L637.428 267.397L634.505 268.072ZM619.209 266.6L616.227 266.931L616.524 269.6H619.209V266.6ZM621.961 255.4L619.471 253.727L619.465 253.736L621.961 255.4ZM629.961 248.744L631.22 251.467L631.228 251.463L631.235 251.46L629.961 248.744ZM648.009 298.28V301.28H651.009V298.28H648.009ZM633.161 298.28H630.161V301.28H633.161V298.28ZM633.161 286.888V283.888H630.161V286.888H633.161ZM648.009 286.888H651.009V283.888H648.009V286.888ZM641.801 249.312C645.512 249.312 648.863 249.936 651.887 251.145L654.115 245.575C650.313 244.054 646.197 243.312 641.801 243.312V249.312ZM651.899 251.15C654.967 252.362 657.249 253.989 658.878 255.965L663.508 252.147C661.126 249.259 657.947 247.088 654.103 245.57L651.899 251.15ZM658.878 255.965C660.44 257.858 661.201 259.978 661.201 262.44H667.201C667.201 258.587 665.957 255.118 663.508 252.147L658.878 255.965ZM661.201 262.44C661.201 264.499 660.711 266.09 659.858 267.355L664.832 270.709C666.454 268.305 667.201 265.501 667.201 262.44H661.201ZM659.858 267.355C658.869 268.821 657.614 270.011 656.066 270.94L659.152 276.084C661.444 274.709 663.347 272.912 664.832 270.709L659.858 267.355ZM656.131 270.901L652.739 272.821L655.695 278.043L659.087 276.123L656.131 270.901ZM652.755 272.812C650.933 273.829 649.635 274.578 648.947 275.02L652.191 280.068C652.697 279.742 653.832 279.083 655.679 278.052L652.755 272.812ZM649.009 274.981C647.742 275.753 646.588 276.767 645.87 278.124L651.172 280.932C651.222 280.838 651.433 280.53 652.129 280.107L649.009 274.981ZM645.87 278.124C645.216 279.359 644.945 280.713 644.945 282.088H650.945C650.945 281.501 651.058 281.148 651.172 280.932L645.87 278.124ZM647.945 279.088H633.289V285.088H647.945V279.088ZM636.289 282.088C636.289 279.328 636.937 277.258 638.044 275.69L633.142 272.23C631.177 275.014 630.289 278.363 630.289 282.088H636.289ZM638.06 275.668C639.17 274.064 641.214 272.435 644.561 270.939L642.113 265.461C638.207 267.207 635.088 269.418 633.126 272.252L638.06 275.668ZM644.562 270.938C646.378 270.126 648.007 269.111 649.143 267.775L644.571 263.889C644.256 264.259 643.538 264.823 642.112 265.462L644.562 270.938ZM649.135 267.784C650.337 266.382 651.009 264.697 651.009 262.824H645.009C645.009 263.169 644.913 263.49 644.579 263.88L649.135 267.784ZM651.009 262.824C651.009 260.443 649.792 258.555 648.017 257.224L644.417 262.024C645.032 262.485 645.009 262.731 645.009 262.824H651.009ZM648.059 257.256C646.269 255.864 644.104 255.28 641.801 255.28V261.28C643.082 261.28 643.861 261.592 644.375 261.992L648.059 257.256ZM641.801 255.28C638.893 255.28 636.204 255.999 634.129 257.814L638.081 262.33C638.736 261.756 639.845 261.28 641.801 261.28V255.28ZM634.094 257.846C632.005 259.732 631.121 262.306 631.121 265.128H637.121C637.121 263.598 637.559 262.801 638.116 262.298L634.094 257.846ZM631.121 265.128C631.121 266.269 631.291 267.485 631.582 268.747L637.428 267.397C637.207 266.441 637.121 265.693 637.121 265.128H631.121ZM635.334 265.189C631.507 264.089 626.068 263.6 619.209 263.6V269.6C625.918 269.6 630.676 270.093 633.676 270.955L635.334 265.189ZM622.191 266.269C622.166 266.047 622.145 265.642 622.145 265H616.145C616.145 265.723 616.167 266.385 616.227 266.931L622.191 266.269ZM622.145 265C622.145 261.972 622.928 259.358 624.457 257.064L619.465 253.736C617.239 257.074 616.145 260.86 616.145 265H622.145ZM624.451 257.073C626.037 254.712 628.258 252.837 631.22 251.467L628.702 246.021C624.837 247.809 621.725 250.371 619.471 253.727L624.451 257.073ZM631.235 251.46C634.233 250.054 637.733 249.312 641.801 249.312V243.312C636.994 243.312 632.601 244.192 628.687 246.028L631.235 251.46ZM648.009 295.28H633.161V301.28H648.009V295.28ZM636.161 298.28V286.888H630.161V298.28H636.161ZM633.161 289.888H648.009V283.888H633.161V289.888ZM645.009 286.888V298.28H651.009V286.888H645.009Z" fill="white" mask="url(#path-1-outside-1_225_751)"/>
</svg>
