<svg width="866" height="539" viewBox="0 0 866 539" fill="none" xmlns="http://www.w3.org/2000/svg">
<rect width="866" height="539" fill="#F2F2F2"/>
<path d="M207.008 162.492V173.484H206.141C205.859 171.375 205.352 169.695 204.617 168.445C203.898 167.195 202.867 166.203 201.523 165.469C200.18 164.734 198.789 164.367 197.352 164.367C195.727 164.367 194.383 164.867 193.32 165.867C192.258 166.852 191.727 167.977 191.727 169.242C191.727 170.211 192.062 171.094 192.734 171.891C193.703 173.062 196.008 174.625 199.648 176.578C202.617 178.172 204.641 179.398 205.719 180.258C206.812 181.102 207.648 182.102 208.227 183.258C208.82 184.414 209.117 185.625 209.117 186.891C209.117 189.297 208.18 191.375 206.305 193.125C204.445 194.859 202.047 195.727 199.109 195.727C198.188 195.727 197.32 195.656 196.508 195.516C196.023 195.438 195.016 195.156 193.484 194.672C191.969 194.172 191.008 193.922 190.602 193.922C190.211 193.922 189.898 194.039 189.664 194.273C189.445 194.508 189.281 194.992 189.172 195.727H188.305V184.828H189.172C189.578 187.109 190.125 188.82 190.812 189.961C191.5 191.086 192.547 192.023 193.953 192.773C195.375 193.523 196.93 193.898 198.617 193.898C200.57 193.898 202.109 193.383 203.234 192.352C204.375 191.32 204.945 190.102 204.945 188.695C204.945 187.914 204.727 187.125 204.289 186.328C203.867 185.531 203.203 184.789 202.297 184.102C201.688 183.633 200.023 182.641 197.305 181.125C194.586 179.594 192.648 178.375 191.492 177.469C190.352 176.562 189.484 175.562 188.891 174.469C188.297 173.375 188 172.172 188 170.859C188 168.578 188.875 166.617 190.625 164.977C192.375 163.32 194.602 162.492 197.305 162.492C198.992 162.492 200.781 162.906 202.672 163.734C203.547 164.125 204.164 164.32 204.523 164.32C204.93 164.32 205.258 164.203 205.508 163.969C205.773 163.719 205.984 163.227 206.141 162.492H207.008ZM216.828 181.617C216.812 184.805 217.586 187.305 219.148 189.117C220.711 190.93 222.547 191.836 224.656 191.836C226.062 191.836 227.281 191.453 228.312 190.688C229.359 189.906 230.234 188.578 230.938 186.703L231.664 187.172C231.336 189.312 230.383 191.266 228.805 193.031C227.227 194.781 225.25 195.656 222.875 195.656C220.297 195.656 218.086 194.656 216.242 192.656C214.414 190.641 213.5 187.938 213.5 184.547C213.5 180.875 214.438 178.016 216.312 175.969C218.203 173.906 220.57 172.875 223.414 172.875C225.82 172.875 227.797 173.672 229.344 175.266C230.891 176.844 231.664 178.961 231.664 181.617H216.828ZM216.828 180.258H226.766C226.688 178.883 226.523 177.914 226.273 177.352C225.883 176.477 225.297 175.789 224.516 175.289C223.75 174.789 222.945 174.539 222.102 174.539C220.805 174.539 219.641 175.047 218.609 176.062C217.594 177.062 217 178.461 216.828 180.258ZM240.828 172.898V177.727C242.625 174.508 244.469 172.898 246.359 172.898C247.219 172.898 247.93 173.164 248.492 173.695C249.055 174.211 249.336 174.812 249.336 175.5C249.336 176.109 249.133 176.625 248.727 177.047C248.32 177.469 247.836 177.68 247.273 177.68C246.727 177.68 246.109 177.414 245.422 176.883C244.75 176.336 244.25 176.062 243.922 176.062C243.641 176.062 243.336 176.219 243.008 176.531C242.305 177.172 241.578 178.227 240.828 179.695V189.984C240.828 191.172 240.977 192.07 241.273 192.68C241.477 193.102 241.836 193.453 242.352 193.734C242.867 194.016 243.609 194.156 244.578 194.156V195H233.586V194.156C234.68 194.156 235.492 193.984 236.023 193.641C236.414 193.391 236.688 192.992 236.844 192.445C236.922 192.18 236.961 191.422 236.961 190.172V181.852C236.961 179.352 236.906 177.867 236.797 177.398C236.703 176.914 236.516 176.562 236.234 176.344C235.969 176.125 235.633 176.016 235.227 176.016C234.742 176.016 234.195 176.133 233.586 176.367L233.352 175.523L239.844 172.898H240.828ZM255.992 161.672C256.648 161.672 257.203 161.906 257.656 162.375C258.125 162.828 258.359 163.383 258.359 164.039C258.359 164.695 258.125 165.258 257.656 165.727C257.203 166.195 256.648 166.43 255.992 166.43C255.336 166.43 254.773 166.195 254.305 165.727C253.836 165.258 253.602 164.695 253.602 164.039C253.602 163.383 253.828 162.828 254.281 162.375C254.75 161.906 255.32 161.672 255.992 161.672ZM257.938 172.898V190.148C257.938 191.492 258.031 192.391 258.219 192.844C258.422 193.281 258.711 193.609 259.086 193.828C259.477 194.047 260.18 194.156 261.195 194.156V195H250.766V194.156C251.812 194.156 252.516 194.055 252.875 193.852C253.234 193.648 253.516 193.312 253.719 192.844C253.938 192.375 254.047 191.477 254.047 190.148V181.875C254.047 179.547 253.977 178.039 253.836 177.352C253.727 176.852 253.555 176.508 253.32 176.32C253.086 176.117 252.766 176.016 252.359 176.016C251.922 176.016 251.391 176.133 250.766 176.367L250.438 175.523L256.906 172.898H257.938ZM272.281 175.219V189.328C272.281 191.328 272.5 192.594 272.938 193.125C273.516 193.812 274.289 194.156 275.258 194.156H277.203V195H264.383V194.156H265.344C265.969 194.156 266.539 194 267.055 193.688C267.57 193.375 267.922 192.953 268.109 192.422C268.312 191.891 268.414 190.859 268.414 189.328V175.219H264.242V173.531H268.414V172.125C268.414 169.984 268.758 168.172 269.445 166.688C270.133 165.203 271.18 164.008 272.586 163.102C274.008 162.18 275.602 161.719 277.367 161.719C279.008 161.719 280.516 162.25 281.891 163.312C282.797 164.016 283.25 164.805 283.25 165.68C283.25 166.148 283.047 166.594 282.641 167.016C282.234 167.422 281.797 167.625 281.328 167.625C280.969 167.625 280.586 167.5 280.18 167.25C279.789 166.984 279.305 166.43 278.727 165.586C278.148 164.727 277.617 164.148 277.133 163.852C276.648 163.555 276.109 163.406 275.516 163.406C274.797 163.406 274.188 163.602 273.688 163.992C273.188 164.367 272.828 164.961 272.609 165.773C272.391 166.57 272.281 168.641 272.281 171.984V173.531H277.812V175.219H272.281Z" fill="black"/>
<path d="M194.744 364.176C193.016 364.176 191.384 363.856 189.848 363.216C188.312 362.608 187.064 361.664 186.104 360.384C185.176 359.104 184.712 357.504 184.712 355.584C184.712 353.92 185.032 352.624 185.672 351.696C186.344 350.768 187.16 350.112 188.12 349.728C189.08 349.344 189.992 349.152 190.856 349.152C189.992 350.08 189.336 351.104 188.888 352.224C188.44 353.344 188.216 354.464 188.216 355.584C188.216 356.768 188.472 357.872 188.984 358.896C189.528 359.92 190.344 360.736 191.432 361.344C192.52 361.984 193.896 362.304 195.56 362.304C197 362.304 198.408 362.032 199.784 361.488C201.16 360.976 202.28 360.208 203.144 359.184C204.04 358.128 204.488 356.832 204.488 355.296C204.488 353.92 204.136 352.736 203.432 351.744C202.728 350.752 201.816 349.872 200.696 349.104C199.608 348.336 198.44 347.6 197.192 346.896C195.944 346.192 194.76 345.456 193.64 344.688C192.552 343.888 191.656 342.976 190.952 341.952C190.248 340.928 189.896 339.696 189.896 338.256C189.896 336.912 190.216 335.504 190.856 334.032C191.496 332.56 192.408 331.168 193.592 329.856C194.808 328.544 196.248 327.488 197.912 326.688C199.608 325.856 201.496 325.44 203.576 325.44C205.464 325.44 206.776 325.904 207.512 326.832C208.248 327.728 208.616 328.864 208.616 330.24C208.616 331.392 208.408 332.64 207.992 333.984C207.608 335.296 207.128 336.56 206.552 337.776C205.976 338.96 205.432 339.968 204.92 340.8C204.344 340.672 203.928 340.432 203.672 340.08C203.448 339.696 203.336 339.248 203.336 338.736C203.336 338.064 203.48 337.296 203.768 336.432C204.056 335.568 204.376 334.672 204.728 333.744C205.112 332.816 205.448 331.92 205.736 331.056C206.024 330.16 206.168 329.36 206.168 328.656C206.168 328.016 205.976 327.52 205.592 327.168C205.208 326.784 204.504 326.592 203.48 326.592C201.976 326.592 200.584 326.944 199.304 327.648C198.024 328.352 196.904 329.264 195.944 330.384C194.984 331.472 194.232 332.624 193.688 333.84C193.176 335.056 192.92 336.16 192.92 337.152C192.92 338.336 193.256 339.36 193.928 340.224C194.632 341.056 195.528 341.824 196.616 342.528C197.704 343.2 198.856 343.888 200.072 344.592C201.32 345.264 202.488 346.016 203.576 346.848C204.664 347.68 205.544 348.672 206.216 349.824C206.92 350.944 207.272 352.32 207.272 353.952C207.272 355.616 206.904 357.088 206.168 358.368C205.432 359.616 204.44 360.672 203.192 361.536C201.976 362.4 200.632 363.056 199.16 363.504C197.688 363.952 196.216 364.176 194.744 364.176ZM215.87 362.688C214.334 362.688 213.054 362.176 212.03 361.152C211.006 360.128 210.494 358.592 210.494 356.544C210.494 354.944 210.798 353.392 211.406 351.888C212.046 350.352 212.878 348.976 213.902 347.76C214.926 346.544 216.062 345.584 217.31 344.88C218.558 344.144 219.79 343.776 221.006 343.776C222.318 343.776 223.214 344.16 223.694 344.928C224.174 345.696 224.414 346.496 224.414 347.328C224.414 348.256 224.19 349.072 223.742 349.776C223.326 350.48 222.75 350.832 222.014 350.832C221.47 350.832 221.006 350.592 220.622 350.112C221.102 349.856 221.518 349.344 221.87 348.576C222.222 347.776 222.398 347.024 222.398 346.32C222.398 345.936 222.318 345.648 222.158 345.456C222.03 345.232 221.758 345.12 221.342 345.12C220.478 345.12 219.582 345.504 218.654 346.272C217.758 347.04 216.91 348.032 216.11 349.248C215.342 350.464 214.702 351.744 214.19 353.088C213.71 354.432 213.47 355.696 213.47 356.88C213.47 357.872 213.71 358.784 214.19 359.616C214.67 360.448 215.598 360.864 216.974 360.864C218.254 360.864 219.534 360.512 220.814 359.808C222.126 359.104 223.342 358.096 224.462 356.784C225.582 355.472 226.478 353.936 227.15 352.176L227.774 352.656C227.038 354.576 226.03 356.304 224.75 357.84C223.47 359.344 222.062 360.528 220.526 361.392C218.99 362.256 217.438 362.688 215.87 362.688ZM234.554 361.248C233.466 361.248 232.602 360.96 231.962 360.384C231.354 359.808 231.05 359.056 231.05 358.128C231.05 357.168 231.274 356.16 231.722 355.104C232.17 354.048 232.602 353.008 233.018 351.984C233.466 350.928 233.69 349.984 233.69 349.152C233.69 348.128 233.386 347.376 232.778 346.896C232.202 346.384 231.61 345.92 231.002 345.504C230.266 347.392 229.498 349.184 228.698 350.88C227.898 352.576 227.242 353.856 226.73 354.72L226.298 353.904C226.746 353.072 227.322 351.856 228.026 350.256C228.762 348.656 229.482 346.832 230.186 344.784C229.866 344.464 229.706 344.08 229.706 343.632C229.706 342.672 229.978 341.888 230.522 341.28C231.066 340.672 231.466 340.368 231.722 340.368C232.074 340.368 232.266 340.528 232.298 340.848C232.362 341.136 232.394 341.36 232.394 341.52C232.394 341.68 232.298 342 232.106 342.48C231.946 342.928 231.866 343.2 231.866 343.296C231.866 343.744 232.106 344.16 232.586 344.544C233.098 344.896 233.674 345.312 234.314 345.792C234.954 346.24 235.514 346.8 235.994 347.472C236.506 348.112 236.762 348.944 236.762 349.968C236.762 350.928 236.554 351.904 236.138 352.896C235.754 353.888 235.354 354.832 234.938 355.728C234.554 356.624 234.362 357.408 234.362 358.08C234.362 358.656 234.506 359.04 234.794 359.232C235.082 359.424 235.418 359.52 235.802 359.52C236.57 359.52 237.354 359.28 238.154 358.8C238.986 358.32 239.786 357.712 240.554 356.976C241.322 356.24 242.01 355.472 242.618 354.672C243.226 353.84 243.674 353.072 243.962 352.368L244.586 352.848C243.978 354.192 243.146 355.52 242.09 356.832C241.034 358.112 239.85 359.168 238.538 360C237.258 360.832 235.93 361.248 234.554 361.248ZM246.394 361.248C245.146 361.248 244.218 360.848 243.61 360.048C243.001 359.28 242.697 358.336 242.697 357.216C242.697 356.48 242.825 355.552 243.082 354.432C243.37 353.312 243.738 352.144 244.186 350.928C244.634 349.68 245.146 348.512 245.722 347.424C246.33 346.336 246.97 345.456 247.642 344.784C248.314 344.08 248.97 343.728 249.61 343.728C249.898 343.728 250.138 343.824 250.33 344.016C250.554 344.176 250.666 344.432 250.666 344.784C250.666 345.168 250.41 345.792 249.898 346.656C249.418 347.52 248.842 348.512 248.17 349.632C247.498 350.752 246.906 351.936 246.394 353.184C245.914 354.4 245.674 355.568 245.674 356.688C245.674 357.84 245.866 358.608 246.25 358.992C246.634 359.376 247.226 359.568 248.026 359.568C249.114 359.568 250.266 359.024 251.482 357.936C252.73 356.848 254.042 354.944 255.418 352.224L255.85 352.704C254.922 355.456 253.578 357.568 251.818 359.04C250.09 360.512 248.282 361.248 246.394 361.248ZM252.154 339.264C251.642 339.264 251.178 339.136 250.762 338.88C250.378 338.624 250.186 338.224 250.186 337.68C250.186 337.008 250.57 336.432 251.338 335.952C252.138 335.44 252.922 335.184 253.69 335.184C254.17 335.184 254.554 335.296 254.842 335.52C255.13 335.744 255.273 336.128 255.273 336.672C255.273 337.28 254.938 337.872 254.266 338.448C253.626 338.992 252.922 339.264 252.154 339.264ZM251.492 373.44C251.236 373.44 250.996 373.296 250.772 373.008C250.516 372.752 250.324 372.464 250.196 372.144C250.068 371.856 250.004 371.68 250.004 371.616C250.452 370.048 250.9 368.64 251.348 367.392C251.764 366.176 252.196 364.912 252.644 363.6C253.06 362.32 253.476 360.816 253.892 359.088C254.308 357.328 254.74 355.152 255.188 352.56C255.636 349.968 256.084 346.752 256.532 342.912C256.564 342.624 256.628 342.416 256.724 342.288C256.82 342.16 257.06 342.096 257.444 342.096C258.276 342.096 258.868 342.336 259.22 342.816C259.572 343.264 259.748 343.76 259.748 344.304C259.748 344.752 259.652 345.552 259.46 346.704C259.268 347.856 258.996 349.216 258.644 350.784C259.188 349.728 259.86 348.656 260.66 347.568C261.492 346.48 262.436 345.568 263.492 344.832C264.548 344.096 265.7 343.728 266.948 343.728C268.356 343.728 269.508 344.24 270.404 345.264C271.332 346.256 271.796 347.568 271.796 349.2C271.796 350.448 271.508 351.776 270.932 353.184C270.388 354.56 269.604 355.872 268.58 357.12C267.588 358.336 266.404 359.328 265.028 360.096C263.652 360.864 262.132 361.248 260.468 361.248C259.636 361.248 258.964 361.152 258.452 360.96C257.94 360.768 257.684 360.576 257.684 360.384C257.684 360.256 257.796 360.176 258.02 360.144C258.276 360.144 258.564 360.144 258.884 360.144C260.164 360.144 261.38 359.84 262.532 359.232C263.716 358.592 264.772 357.76 265.7 356.736C266.628 355.712 267.348 354.576 267.86 353.328C268.404 352.08 268.676 350.848 268.676 349.632C268.676 348.608 268.452 347.744 268.004 347.04C267.588 346.304 266.9 345.936 265.94 345.936C265.108 345.936 264.276 346.208 263.444 346.752C262.644 347.264 261.876 347.936 261.14 348.768C260.436 349.568 259.796 350.416 259.22 351.312C258.676 352.176 258.26 352.96 257.972 353.664C257.396 356.064 256.82 358.368 256.244 360.576C255.668 362.816 255.108 364.832 254.564 366.624C254.052 368.448 253.588 369.936 253.172 371.088C252.724 372.24 252.356 372.944 252.068 373.2C251.908 373.36 251.716 373.44 251.492 373.44ZM277.346 362.208C275.97 362.208 274.914 361.808 274.178 361.008C273.442 360.208 273.074 359.024 273.074 357.456C273.074 356.048 273.33 354.32 273.842 352.272C274.386 350.192 275.058 348.064 275.858 345.888C275.538 345.824 275.234 345.776 274.946 345.744C274.658 345.68 274.386 345.6 274.13 345.504V344.64C274.386 344.672 274.69 344.704 275.042 344.736C275.394 344.768 275.794 344.8 276.242 344.832C276.914 343.104 277.634 341.44 278.402 339.84C279.17 338.208 279.922 336.768 280.658 335.52C281.426 334.24 282.146 333.232 282.818 332.496C283.522 331.728 284.114 331.344 284.594 331.344C284.85 331.344 285.074 331.44 285.266 331.632C285.49 331.792 285.602 332.048 285.602 332.4C285.602 332.944 285.266 333.84 284.594 335.088C283.922 336.304 283.09 337.76 282.098 339.456C281.106 341.152 280.146 342.992 279.218 344.976C279.506 344.976 279.794 344.976 280.082 344.976C280.402 344.976 280.706 344.976 280.994 344.976C282.05 344.976 283.154 344.96 284.306 344.928C285.49 344.896 286.674 344.816 287.858 344.688V345.552C286.098 345.744 284.514 345.888 283.106 345.984C281.73 346.08 280.498 346.128 279.41 346.128C279.282 346.128 279.154 346.128 279.026 346.128C278.93 346.128 278.818 346.128 278.69 346.128C277.954 347.824 277.33 349.568 276.818 351.36C276.306 353.152 276.05 354.896 276.05 356.592C276.05 357.968 276.258 358.96 276.674 359.568C277.09 360.144 277.778 360.432 278.738 360.432C280.402 360.432 282.034 359.696 283.634 358.224C285.234 356.752 286.642 354.752 287.858 352.224L288.482 352.704C287.714 354.496 286.738 356.112 285.554 357.552C284.402 358.992 283.122 360.128 281.714 360.96C280.306 361.792 278.85 362.208 277.346 362.208Z" fill="black"/>
<path d="M494.36 358.688C494.424 358.912 494.408 359.136 494.312 359.36C494.216 359.584 494.2 359.824 494.264 360.08C494.264 360.208 494.232 360.336 494.168 360.464C494.168 360.528 494.152 360.592 494.12 360.656C494.088 360.688 494.072 360.72 494.072 360.752C494.104 361.264 494.104 361.616 494.072 361.808C494.072 361.968 493.992 362.304 493.832 362.816C493.864 362.944 493.88 363.104 493.88 363.296C493.912 363.456 493.944 363.632 493.976 363.824C493.944 364.048 493.864 364.336 493.736 364.688C493.64 364.624 493.544 364.576 493.448 364.544C493.384 364.512 493.32 364.48 493.256 364.448C493.064 364.384 492.968 364.464 492.968 364.688C492.968 364.912 493 365.12 493.064 365.312C493.16 365.472 493.272 365.632 493.4 365.792C493.336 366.048 493.272 366.32 493.208 366.608C493.176 366.896 493.128 367.2 493.064 367.52C492.904 367.808 492.728 368.112 492.536 368.432C492.344 368.72 492.088 368.944 491.768 369.104C491.736 369.264 491.704 369.408 491.672 369.536C491.64 369.632 491.592 369.76 491.528 369.92C491.24 370.144 490.952 370.384 490.664 370.64C490.376 370.864 490.136 371.104 489.944 371.36C489.784 371.488 489.64 371.536 489.512 371.504C489.384 371.472 489.256 371.472 489.128 371.504C488.904 371.664 488.68 371.824 488.456 371.984C488.264 372.144 488.056 372.304 487.832 372.464C487.608 372.592 487.4 372.736 487.208 372.896C487.016 373.056 486.808 373.216 486.584 373.376H485.864C485.704 373.504 485.56 373.616 485.432 373.712C485.304 373.776 485.16 373.856 485 373.952C484.904 373.952 484.824 373.968 484.76 374C484.728 374 484.68 373.984 484.616 373.952C484.296 373.92 484.072 373.936 483.944 374C483.816 374.032 483.56 374.128 483.176 374.288C482.888 374.384 482.6 374.48 482.312 374.576C482.024 374.704 481.736 374.832 481.448 374.96C481.096 374.8 480.728 374.72 480.344 374.72C479.992 374.72 479.624 374.72 479.24 374.72C479.048 374.592 478.856 374.48 478.664 374.384C478.536 374.32 478.424 374.272 478.328 374.24C478.264 374.208 478.168 374.176 478.04 374.144C477.976 374.144 477.88 374.144 477.752 374.144C477.656 374.144 477.544 374.176 477.416 374.24C477.352 374.272 477.272 374.32 477.176 374.384C477.08 374.448 477 374.528 476.936 374.624C476.328 374.528 475.704 374.432 475.064 374.336C474.424 374.272 473.784 374.176 473.144 374.048C472.888 373.984 472.632 373.92 472.376 373.856C472.152 373.76 471.912 373.68 471.656 373.616C471.464 373.648 471.272 373.68 471.08 373.712C470.888 373.744 470.68 373.792 470.456 373.856C469.944 373.92 469.576 373.696 469.352 373.184C469.352 373.12 469.336 373.056 469.304 372.992C469.304 372.928 469.304 372.88 469.304 372.848C469.368 372.496 469.432 372.16 469.496 371.84C469.56 371.52 469.608 371.216 469.64 370.928C469.64 370.864 469.704 370.768 469.832 370.64V370.448C469.704 370.352 469.576 370.256 469.448 370.16C469.352 370.064 469.256 369.968 469.16 369.872L469.112 365.552V365.504H469.448C469.416 365.44 469.368 365.392 469.304 365.36C469.24 365.296 469.176 365.248 469.112 365.216C469.112 365.216 469.16 365.072 469.256 364.784C469.352 364.496 469.416 364.288 469.448 364.16C469.512 363.968 469.496 363.808 469.4 363.68C469.336 363.552 469.288 363.424 469.256 363.296C469.32 363.168 469.384 363.056 469.448 362.96C469.512 362.832 469.56 362.704 469.592 362.576C469.56 362.416 469.512 362.272 469.448 362.144C469.384 362.016 469.32 361.888 469.256 361.76C469.224 361.6 469.224 361.44 469.256 361.28C469.32 361.088 469.352 360.928 469.352 360.8C469.416 360.64 469.432 360.48 469.4 360.32C469.368 360.16 469.352 359.968 469.352 359.744C469.256 359.392 469.112 359.008 468.92 358.592C469.016 358.4 469.096 358.208 469.16 358.016C469.224 357.824 469.288 357.632 469.352 357.44L469.208 356.768C469.272 356.512 469.336 356.256 469.4 356C469.496 355.712 469.56 355.456 469.592 355.232C469.464 354.752 469.4 354.288 469.4 353.84C469.432 353.36 469.448 352.88 469.448 352.4C469.448 352.144 469.528 351.856 469.688 351.536C469.752 351.472 469.784 351.408 469.784 351.344C469.816 351.248 469.848 351.184 469.88 351.152C469.72 350.832 469.624 350.592 469.592 350.432C469.592 350.24 469.624 350.048 469.688 349.856C469.752 349.632 469.704 349.44 469.544 349.28C469.448 348.928 469.416 348.608 469.448 348.32C469.48 348 469.528 347.68 469.592 347.36C469.752 347.2 469.88 347.04 469.976 346.88C470.104 346.688 470.232 346.496 470.36 346.304C470.52 346.272 470.68 346.24 470.84 346.208C471.032 346.144 471.192 346.128 471.32 346.16C471.832 346.256 472.376 346.176 472.952 345.92C473.112 345.824 473.272 345.792 473.432 345.824C473.624 345.856 473.816 345.904 474.008 345.968C474.616 345.872 475.224 345.776 475.832 345.68C476.44 345.584 477.032 345.456 477.608 345.296C477.768 345.232 477.928 345.216 478.088 345.248C478.248 345.28 478.44 345.296 478.664 345.296L479.528 344.912C479.688 344.944 479.848 344.992 480.008 345.056C480.168 345.088 480.328 345.136 480.488 345.2C480.68 345.168 480.872 345.12 481.064 345.056C481.256 344.992 481.464 344.944 481.688 344.912C481.816 344.976 481.944 345.056 482.072 345.152C482.2 345.248 482.328 345.328 482.456 345.392C482.808 345.36 483.128 345.296 483.416 345.2C483.736 345.104 484.056 345.04 484.376 345.008C484.504 345.136 484.6 345.28 484.664 345.44C484.728 345.568 484.824 345.68 484.952 345.776C485.08 345.936 485.256 346.016 485.48 346.016C485.736 345.984 485.912 345.872 486.008 345.68C486.072 345.52 486.168 345.456 486.296 345.488C486.456 345.52 486.616 345.664 486.776 345.92C486.968 345.92 487.16 345.904 487.352 345.872C487.544 345.84 487.752 345.824 487.976 345.824C488.136 345.92 488.264 346.016 488.36 346.112C488.488 346.176 488.616 346.272 488.744 346.4C488.872 346.528 489 346.656 489.128 346.784C489.256 346.88 489.4 346.976 489.56 347.072C489.752 347.168 489.88 347.312 489.944 347.504C490.072 347.696 490.216 347.888 490.376 348.08C490.568 348.24 490.744 348.4 490.904 348.56C491.16 348.848 491.544 349.072 492.056 349.232C492.12 349.264 492.184 349.296 492.248 349.328C492.344 349.36 492.408 349.392 492.44 349.424C492.504 349.68 492.568 349.936 492.632 350.192C492.728 350.416 492.792 350.656 492.824 350.912C492.792 351.2 492.744 351.44 492.68 351.632C492.744 351.92 492.872 352.16 493.064 352.352C493.256 352.512 493.432 352.688 493.592 352.88C494.04 353.584 494.264 354.4 494.264 355.328C494.264 355.648 494.28 355.968 494.312 356.288C494.344 356.576 494.328 356.864 494.264 357.152C494.232 357.408 494.248 357.664 494.312 357.92C494.408 358.176 494.424 358.432 494.36 358.688ZM487.256 357.776C487.192 357.616 487.096 357.456 486.968 357.296C486.872 357.104 486.792 356.912 486.728 356.72C486.632 356.528 486.552 356.336 486.488 356.144C486.424 355.92 486.36 355.696 486.296 355.472C485.784 355.408 485.336 355.248 484.952 354.992C484.6 354.736 484.248 354.48 483.896 354.224H483.176C482.856 353.968 482.552 353.744 482.264 353.552C481.976 353.328 481.672 353.104 481.352 352.88C480.808 352.816 480.264 352.816 479.72 352.88C479.208 352.912 478.728 352.88 478.28 352.784C477.992 352.88 477.736 352.96 477.512 353.024C477.32 353.056 477.128 353.104 476.936 353.168C476.744 353.296 476.616 353.392 476.552 353.456C476.456 353.936 476.424 354.416 476.456 354.896C476.488 355.376 476.52 355.856 476.552 356.336C476.68 356.528 476.696 356.72 476.6 356.912C476.536 357.072 476.52 357.232 476.552 357.392C476.584 357.488 476.6 357.584 476.6 357.68C476.632 357.776 476.664 357.904 476.696 358.064C476.632 358.256 476.584 358.464 476.552 358.688C476.552 358.88 476.536 359.104 476.504 359.36C476.504 359.872 476.456 360.352 476.36 360.8C476.456 360.96 476.536 361.12 476.6 361.28C476.664 361.408 476.728 361.552 476.792 361.712C476.696 362 476.584 362.304 476.456 362.624C476.36 362.912 476.28 363.184 476.216 363.44C476.216 363.6 476.216 363.76 476.216 363.92C476.248 364.08 476.248 364.24 476.216 364.4C476.184 364.784 476.088 365.168 475.928 365.552L476.12 365.888C476.312 366.368 476.696 366.544 477.272 366.416C477.624 366.416 477.912 366.368 478.136 366.272C478.36 366.208 478.568 366.208 478.76 366.272C478.984 366.304 479.208 366.304 479.432 366.272C479.688 366.208 479.96 366.128 480.248 366.032C480.568 365.904 480.856 365.792 481.112 365.696C481.272 365.664 481.416 365.632 481.544 365.6C481.672 365.568 481.8 365.568 481.928 365.6C482.216 365.632 482.52 365.632 482.84 365.6C483.16 365.568 483.48 365.536 483.8 365.504C483.864 365.44 483.96 365.392 484.088 365.36C484.216 365.296 484.328 365.232 484.424 365.168C484.904 364.944 485.32 364.576 485.672 364.064C485.832 363.84 485.96 363.6 486.056 363.344C486.184 363.056 486.312 362.8 486.44 362.576C486.696 362.032 486.888 361.504 487.016 360.992C487.144 360.448 487.176 359.888 487.112 359.312C487.08 359.184 487.064 359.056 487.064 358.928C487.096 358.8 487.128 358.672 487.16 358.544C487.192 358.416 487.224 358.288 487.256 358.16C487.288 358.032 487.288 357.904 487.256 357.776ZM519.144 357.056C519.112 357.376 519.08 357.712 519.048 358.064C519.048 358.384 519.016 358.704 518.952 359.024C518.92 359.344 518.904 359.696 518.904 360.08C518.904 360.432 518.84 360.8 518.712 361.184C518.648 361.28 518.568 361.392 518.472 361.52C518.376 361.616 518.28 361.744 518.184 361.904C518.184 362.032 518.184 362.144 518.184 362.24C518.216 362.336 518.248 362.448 518.28 362.576C518.216 362.736 518.12 362.88 517.992 363.008C517.864 363.104 517.736 363.184 517.608 363.248C517.288 363.344 516.984 363.44 516.696 363.536C516.44 363.632 516.168 363.712 515.88 363.776C515.432 363.84 514.968 363.856 514.488 363.824C514.008 363.76 513.528 363.744 513.048 363.776C512.632 363.776 512.184 363.792 511.704 363.824C511.256 363.824 510.792 363.824 510.312 363.824H507.624C507.496 363.92 507.352 363.952 507.192 363.92C507.064 363.888 506.936 363.904 506.808 363.968C506.68 363.904 506.536 363.904 506.376 363.968C506.216 364 506.056 363.984 505.896 363.92C505.768 363.952 505.64 363.984 505.512 364.016C505.416 364.016 505.288 364.032 505.128 364.064C505 364.032 504.888 364 504.792 363.968C504.696 363.904 504.584 363.92 504.456 364.016C504.52 364.112 504.584 364.224 504.648 364.352C504.744 364.448 504.808 364.576 504.84 364.736C504.936 364.864 505.016 364.992 505.08 365.12C505.144 365.248 505.208 365.392 505.272 365.552C505.336 365.68 505.384 365.824 505.416 365.984C505.448 366.112 505.48 366.24 505.512 366.368C505.672 366.528 505.848 366.688 506.04 366.848C506.232 367.008 506.424 367.168 506.616 367.328C506.776 367.36 506.936 367.392 507.096 367.424C507.288 367.456 507.464 367.488 507.624 367.52C507.816 367.552 508.008 367.584 508.2 367.616C508.392 367.648 508.6 367.648 508.824 367.616C509.048 367.552 509.256 367.568 509.448 367.664C509.64 367.728 509.848 367.776 510.072 367.808C510.36 367.776 510.648 367.744 510.936 367.712C511.256 367.68 511.56 367.648 511.848 367.616C511.976 367.52 512.104 367.44 512.232 367.376C512.392 367.28 512.536 367.184 512.664 367.088C513.08 366.992 513.496 367.008 513.912 367.136C514.008 367.296 514.12 367.456 514.248 367.616C514.408 367.776 514.552 367.952 514.68 368.144C514.872 368.432 515.064 368.72 515.256 369.008C515.448 369.264 515.576 369.568 515.64 369.92C515.704 370.08 515.8 370.24 515.928 370.4C516.056 370.56 516.152 370.704 516.216 370.832C516.248 370.992 516.232 371.136 516.168 371.264C516.136 371.392 516.104 371.536 516.072 371.696C515.944 371.824 515.784 371.936 515.592 372.032C515.56 372.032 515.528 372.064 515.496 372.128C515.464 372.192 515.416 372.24 515.352 372.272C515.16 372.4 514.968 372.528 514.776 372.656C514.584 372.784 514.408 372.912 514.248 373.04C513.8 373.424 513.336 373.616 512.856 373.616C512.664 373.616 512.52 373.632 512.424 373.664C512.264 373.696 512.104 373.76 511.944 373.856C511.784 373.952 511.608 374.032 511.416 374.096C511.256 374.096 511.096 374.112 510.936 374.144C510.776 374.208 510.616 374.256 510.456 374.288C510.36 374.288 510.248 374.272 510.12 374.24C509.992 374.24 509.864 374.24 509.736 374.24C509.448 374.272 509.16 374.256 508.872 374.192C508.584 374.128 508.296 374.096 508.008 374.096C507.912 374.064 507.816 374.032 507.72 374C507.624 373.968 507.528 373.952 507.432 373.952C506.888 373.984 506.376 373.904 505.896 373.712C505.416 373.488 504.936 373.264 504.456 373.04C504.072 372.944 503.8 372.768 503.64 372.512C503.416 372.256 503.16 372.048 502.872 371.888C502.616 371.696 502.328 371.536 502.008 371.408C501.816 371.344 501.624 371.264 501.432 371.168C501.24 371.04 501.032 370.912 500.808 370.784C500.776 370.656 500.728 370.528 500.664 370.4C500.6 370.272 500.536 370.144 500.472 370.016C500.408 369.92 500.312 369.824 500.184 369.728C500.088 369.632 499.992 369.536 499.896 369.44C499.8 369.344 499.72 369.232 499.656 369.104C499.496 368.56 499.336 368.032 499.176 367.52C499.016 366.976 498.808 366.448 498.552 365.936C498.584 365.712 498.6 365.488 498.6 365.264C498.632 365.008 498.616 364.736 498.552 364.448C498.52 364.384 498.504 364.304 498.504 364.208C498.504 364.112 498.504 364.032 498.504 363.968C498.504 363.808 498.504 363.68 498.504 363.584C498.536 363.456 498.536 363.344 498.504 363.248C498.472 362.992 498.44 362.736 498.408 362.48C498.376 362.224 498.392 361.984 498.456 361.76C498.52 361.504 498.584 361.248 498.648 360.992C498.712 360.736 498.792 360.464 498.888 360.176C498.856 360.112 498.84 360.016 498.84 359.888C498.84 359.76 498.824 359.632 498.792 359.504C498.856 359.152 498.92 358.8 498.984 358.448C499.048 358.096 499.128 357.76 499.224 357.44C499.32 357.248 499.416 357.072 499.512 356.912C499.64 356.72 499.768 356.528 499.896 356.336C500.12 355.952 500.296 355.584 500.424 355.232C500.808 355.04 501.032 354.928 501.096 354.896C501.192 354.832 501.272 354.752 501.336 354.656C501.4 354.56 501.608 354.368 501.96 354.08C501.928 353.984 502.008 353.84 502.2 353.648C502.392 353.456 502.456 353.296 502.392 353.168C502.68 352.624 503.096 352.192 503.64 351.872C503.832 351.744 504.008 351.616 504.168 351.488C504.36 351.328 504.52 351.184 504.648 351.056C504.808 350.96 504.952 350.928 505.08 350.96C505.24 350.96 505.384 350.96 505.512 350.96C505.608 350.928 505.704 350.912 505.8 350.912C505.928 350.88 506.056 350.848 506.184 350.816C506.248 350.784 506.328 350.752 506.424 350.72C506.52 350.688 506.6 350.64 506.664 350.576C506.728 350.544 506.792 350.512 506.856 350.48C506.92 350.448 506.984 350.432 507.048 350.432C507.336 350.4 507.608 350.32 507.864 350.192C508.12 350.064 508.36 349.936 508.584 349.808C509.064 350 509.56 350.064 510.072 350C510.392 349.968 510.696 349.984 510.984 350.048C511.304 350.112 511.592 350.192 511.848 350.288L512.52 350.096C512.776 350.128 513.016 350.208 513.24 350.336C513.464 350.464 513.688 350.592 513.912 350.72H514.344C514.376 350.752 514.408 350.784 514.44 350.816C514.472 350.816 514.504 350.832 514.536 350.864C514.888 351.184 515.224 351.488 515.544 351.776C515.864 352.032 516.2 352.304 516.552 352.592C517.032 352.912 517.336 353.296 517.464 353.744C517.592 353.936 517.704 354.08 517.8 354.176C518.184 354.496 518.52 354.928 518.808 355.472C518.808 355.536 518.808 355.632 518.808 355.76C518.84 355.856 518.856 355.952 518.856 356.048C518.824 356.208 518.856 356.368 518.952 356.528C519.048 356.688 519.112 356.864 519.144 357.056ZM513.048 358.64V357.44C513.048 357.28 513.032 357.184 513 357.152C512.968 357.056 512.92 356.96 512.856 356.864C512.824 356.768 512.792 356.704 512.76 356.672V355.856L512.616 355.712C512.488 355.712 512.328 355.68 512.136 355.616C512.072 355.328 511.992 355.104 511.896 354.944C511.8 354.816 511.672 354.736 511.512 354.704C511.352 354.672 511.176 354.624 510.984 354.56C510.568 354.688 510.12 354.8 509.64 354.896C509.16 354.992 508.696 355.12 508.248 355.28C508.024 355.312 507.816 355.328 507.624 355.328C507.432 355.328 507.24 355.344 507.048 355.376C506.728 355.504 506.44 355.712 506.184 356C505.96 356.256 505.736 356.512 505.512 356.768C505.384 356.928 505.272 357.104 505.176 357.296C505.08 357.488 504.968 357.664 504.84 357.824C504.808 357.856 504.792 357.952 504.792 358.112C504.888 358.368 505.032 358.528 505.224 358.592C505.416 358.624 505.608 358.672 505.8 358.736C505.992 358.8 506.2 358.864 506.424 358.928C506.52 358.896 506.6 358.88 506.664 358.88C506.76 358.88 506.856 358.864 506.952 358.832C507.336 358.672 507.656 358.656 507.912 358.784C508.168 358.816 508.392 358.816 508.584 358.784C508.808 358.752 509.032 358.72 509.256 358.688C509.448 358.784 509.64 358.848 509.832 358.88C510.056 358.912 510.264 358.96 510.456 359.024C510.872 359.152 511.272 359.216 511.656 359.216C512.04 359.216 512.424 359.168 512.808 359.072C512.968 358.912 513.048 358.768 513.048 358.64ZM538.324 354.56C538.228 354.976 538.036 355.328 537.748 355.616C537.62 355.744 537.508 355.888 537.412 356.048C537.348 356.176 537.252 356.272 537.124 356.336C536.996 356.464 536.9 356.576 536.836 356.672C536.772 356.768 536.708 356.896 536.644 357.056C536.484 357.376 536.212 357.408 535.828 357.152C535.636 357.024 535.508 356.896 535.444 356.768L534.868 356.72C534.804 356.72 534.756 356.704 534.724 356.672C534.564 356.608 534.452 356.512 534.388 356.384C534.324 356.224 534.212 356.096 534.052 356C533.572 355.776 533.092 355.616 532.612 355.52C532.132 355.424 531.636 355.456 531.124 355.616C530.804 356.032 530.596 356.336 530.5 356.528C530.404 356.688 530.292 356.992 530.164 357.44C530.164 357.664 530.196 357.888 530.26 358.112C530.356 358.304 530.436 358.528 530.5 358.784C530.66 359.04 530.868 359.216 531.124 359.312C531.252 359.312 531.38 359.328 531.508 359.36C531.636 359.36 531.764 359.376 531.892 359.408C532.02 359.504 532.132 359.6 532.228 359.696C532.324 359.76 532.42 359.824 532.516 359.888C532.74 360.016 532.948 360.192 533.14 360.416C533.364 360.608 533.588 360.752 533.812 360.848C534.068 360.976 534.308 361.088 534.532 361.184C534.756 361.28 534.98 361.392 535.204 361.52C535.396 361.552 535.556 361.632 535.684 361.76C535.844 361.888 535.988 362.032 536.116 362.192C536.212 362.384 536.324 362.576 536.452 362.768C536.612 362.96 536.756 363.168 536.884 363.392C536.98 363.744 537.06 364.112 537.124 364.496C537.22 364.848 537.268 365.232 537.268 365.648C537.268 365.936 537.284 366.224 537.316 366.512C537.348 366.768 537.38 367.04 537.412 367.328C537.444 367.488 537.46 367.664 537.46 367.856C537.492 368.048 537.492 368.256 537.46 368.48C537.364 368.672 537.268 368.88 537.172 369.104C537.076 369.328 536.996 369.568 536.932 369.824C536.804 370.304 536.628 370.752 536.404 371.168C536.276 371.328 536.132 371.488 535.972 371.648C535.812 371.808 535.652 371.968 535.492 372.128C535.396 372.192 535.316 372.272 535.252 372.368C535.188 372.464 535.124 372.544 535.06 372.608C534.74 372.8 534.484 373.024 534.292 373.28C534.1 373.536 533.924 373.808 533.764 374.096C533.54 374.128 533.316 374.16 533.092 374.192C532.868 374.256 532.628 374.32 532.372 374.384C532.18 374.416 531.988 374.464 531.796 374.528C531.604 374.624 531.428 374.704 531.268 374.768H530.116C529.764 374.608 529.428 374.544 529.108 374.576C528.788 374.608 528.452 374.672 528.1 374.768C527.78 374.832 527.556 374.8 527.428 374.672C527.204 374.512 526.964 374.384 526.708 374.288C526.484 374.224 526.26 374.176 526.036 374.144C525.716 373.824 525.38 373.52 525.028 373.232C524.676 372.944 524.356 372.624 524.068 372.272C524.068 372.176 524.052 372.08 524.02 371.984C524.02 371.856 524.02 371.744 524.02 371.648C524.02 371.392 524.02 371.168 524.02 370.976C524.052 370.752 524.068 370.528 524.068 370.304C524.164 369.856 524.324 369.424 524.548 369.008C524.804 368.592 525.044 368.176 525.268 367.76C525.46 367.792 525.636 367.824 525.796 367.856C525.956 367.888 526.132 367.936 526.324 368C526.484 368.128 526.676 368.24 526.9 368.336C527.124 368.432 527.348 368.528 527.572 368.624C527.86 368.784 528.084 368.848 528.243 368.816C528.372 368.816 528.484 368.832 528.58 368.864C528.676 368.896 528.788 368.928 528.916 368.96C529.3 369.12 529.668 369.072 530.02 368.816C530.18 368.72 530.324 368.624 530.452 368.528C530.612 368.4 530.74 368.24 530.836 368.048C530.836 367.856 530.836 367.648 530.836 367.424C530.836 367.168 530.852 366.928 530.884 366.704C530.884 366.608 530.868 366.512 530.836 366.416C530.804 366.32 530.772 366.224 530.74 366.128C530.708 366 530.676 365.888 530.644 365.792L529.972 365.264C529.844 365.104 529.748 364.944 529.684 364.784C529.62 364.592 529.508 364.448 529.348 364.352L528.196 364.016C528.004 363.92 527.844 363.808 527.716 363.68C527.588 363.552 527.46 363.44 527.332 363.344C527.268 363.28 527.204 363.232 527.14 363.2C527.076 363.168 527.012 363.136 526.948 363.104C526.82 363.072 526.692 363.04 526.564 363.008C526.436 362.976 526.292 362.928 526.132 362.864C525.94 362.704 525.684 362.56 525.364 362.432C525.172 362.208 525.044 361.984 524.98 361.76C524.916 361.536 524.804 361.328 524.644 361.136C524.516 360.976 524.388 360.8 524.26 360.608C524.132 360.416 523.988 360.224 523.828 360.032C523.732 359.68 523.636 359.328 523.54 358.976C523.476 358.592 523.396 358.224 523.3 357.872C523.14 357.392 523.124 356.928 523.252 356.48C523.316 356.192 523.38 355.888 523.444 355.568C523.54 355.248 523.652 354.928 523.78 354.608C523.972 354.224 524.212 353.696 524.5 353.024C524.82 352.512 525.236 352.048 525.748 351.632C526.292 351.184 526.82 350.736 527.332 350.288C527.46 350.224 527.604 350.176 527.764 350.144C527.924 350.08 528.068 350.032 528.196 350C528.58 349.872 528.868 349.776 529.06 349.712C529.252 349.616 529.46 349.552 529.684 349.52C529.94 349.488 530.308 349.472 530.788 349.472H530.884C531.332 349.312 531.764 349.264 532.18 349.328C532.628 349.392 533.06 349.488 533.476 349.616C533.572 349.616 533.668 349.632 533.764 349.664C533.892 349.664 533.972 349.664 534.004 349.664C534.292 349.824 534.532 350.016 534.724 350.24C534.948 350.464 535.188 350.672 535.444 350.864C535.604 350.96 535.78 351.056 535.972 351.152C536.164 351.216 536.34 351.296 536.5 351.392C536.82 351.648 537.092 351.936 537.316 352.256C537.572 352.576 537.812 352.88 538.036 353.168C538.1 353.392 538.148 353.616 538.18 353.84C538.212 354.064 538.26 354.304 538.324 354.56ZM550.681 348.368C550.777 348.592 550.809 348.832 550.777 349.088C550.745 349.312 550.697 349.536 550.633 349.76C550.601 349.952 550.537 350.144 550.441 350.336C550.345 350.496 550.265 350.656 550.201 350.816C550.073 351.008 549.929 351.184 549.769 351.344C549.641 351.504 549.513 351.664 549.385 351.824C549.289 351.856 549.209 351.92 549.145 352.016C549.081 352.08 549.001 352.144 548.905 352.208C548.681 352.368 548.329 352.528 547.849 352.688C547.369 352.816 546.985 352.88 546.697 352.88C546.537 352.88 546.409 352.848 546.312 352.784C546.121 352.784 545.929 352.784 545.737 352.784C545.545 352.752 545.369 352.736 545.209 352.736C545.113 352.672 545.001 352.608 544.873 352.544C544.777 352.48 544.697 352.416 544.633 352.352C544.473 352.288 544.297 352.256 544.105 352.256C543.945 352.256 543.785 352.256 543.625 352.256C543.497 352.16 543.337 352.08 543.145 352.016C542.985 351.92 542.825 351.84 542.665 351.776L542.377 350.912C542.409 350.656 542.441 350.384 542.473 350.096C542.505 349.776 542.473 349.456 542.377 349.136C542.281 349.072 542.281 348.992 542.377 348.896C542.473 348.672 542.473 348.448 542.377 348.224C542.281 348 542.281 347.776 542.377 347.552C542.409 347.488 542.425 347.392 542.425 347.264C542.329 347.072 542.329 346.896 542.425 346.736C542.521 346.544 542.601 346.384 542.665 346.256C542.633 346.16 542.617 346.064 542.617 345.968C542.617 345.84 542.617 345.744 542.617 345.68C542.649 345.648 542.665 345.616 542.665 345.584C542.697 345.52 542.745 345.472 542.809 345.44C543.065 345.376 543.273 345.264 543.433 345.104C543.625 344.912 543.833 344.768 544.057 344.672C544.281 344.48 544.521 344.32 544.777 344.192C545.065 344.064 545.337 343.936 545.593 343.808C545.849 343.808 546.073 343.808 546.265 343.808C546.457 343.808 546.649 343.84 546.841 343.904C546.937 343.936 547.049 343.952 547.177 343.952C547.305 343.952 547.433 343.952 547.561 343.952C548.009 343.888 548.361 344.064 548.617 344.48C548.681 344.64 548.793 344.736 548.953 344.768C549.113 344.8 549.257 344.848 549.385 344.912C549.705 345.2 549.913 345.568 550.009 346.016C550.073 346.208 550.137 346.4 550.201 346.592C550.297 346.784 550.361 346.976 550.393 347.168C550.457 347.36 550.505 347.568 550.537 347.792C550.601 347.984 550.649 348.176 550.681 348.368ZM550.393 359.408C550.329 359.6 550.297 359.824 550.297 360.08C550.297 360.304 550.297 360.544 550.297 360.8C550.329 361.024 550.329 361.264 550.297 361.52C550.265 361.744 550.249 361.968 550.249 362.192L549.913 362.672C550.073 362.832 550.169 363.008 550.201 363.2C550.233 363.392 550.249 363.6 550.249 363.824C550.249 364.048 550.249 364.288 550.249 364.544C550.249 364.768 550.233 365.008 550.201 365.264C550.169 365.488 550.105 365.728 550.009 365.984C549.913 366.24 549.833 366.512 549.769 366.8C549.769 367.12 549.753 367.504 549.721 367.952C549.721 368.368 549.737 368.784 549.769 369.2C549.801 369.808 549.769 370.432 549.673 371.072C549.577 371.68 549.385 372.256 549.097 372.8C549.097 373.056 549.129 373.312 549.193 373.568C549.257 373.792 549.321 374.032 549.385 374.288C549.385 374.32 549.369 374.352 549.337 374.384C549.305 374.448 549.289 374.512 549.289 374.576C549.129 374.8 548.937 374.992 548.713 375.152C548.681 375.152 548.649 375.168 548.617 375.2H548.425C548.073 375.2 547.705 375.216 547.321 375.248C546.969 375.312 546.569 375.296 546.121 375.2C545.993 375.136 545.849 375.056 545.689 374.96C545.561 374.864 545.417 374.784 545.257 374.72C545.129 374.72 544.969 374.704 544.777 374.672C544.617 374.672 544.457 374.656 544.297 374.624C544.041 374.336 543.785 374.032 543.529 373.712C543.433 373.648 543.321 373.6 543.193 373.568C543.065 373.536 542.937 373.488 542.809 373.424C542.585 373.264 542.505 373.008 542.569 372.656C542.633 372.304 542.713 372 542.809 371.744C542.905 371.328 542.889 370.928 542.761 370.544L542.569 369.872C542.569 369.616 542.553 369.376 542.521 369.152C542.489 368.928 542.489 368.704 542.521 368.48C542.553 368.16 542.553 367.856 542.521 367.568C542.521 367.28 542.521 366.976 542.521 366.656C542.553 366.208 542.569 365.776 542.569 365.36C542.569 364.912 542.569 364.48 542.569 364.064C542.569 363.904 542.585 363.808 542.617 363.776C542.777 363.52 542.857 363.28 542.857 363.056C542.857 362.8 542.857 362.544 542.857 362.288C542.825 362.032 542.825 361.776 542.857 361.52C542.921 361.232 542.921 360.976 542.857 360.752C542.857 360.464 542.857 360.192 542.857 359.936C542.857 359.648 542.873 359.36 542.905 359.072C542.937 358.912 542.953 358.752 542.953 358.592C542.985 358.4 542.969 358.192 542.905 357.968C543.193 357.84 543.433 357.744 543.625 357.68C543.849 357.616 544.057 357.584 544.249 357.584C544.377 357.584 544.505 357.584 544.633 357.584C544.793 357.584 544.937 357.568 545.065 357.536C545.385 357.472 545.657 357.408 545.881 357.344C546.041 357.376 546.169 357.44 546.265 357.536C546.393 357.6 546.521 357.664 546.648 357.728C546.873 357.728 547.097 357.68 547.321 357.584C547.545 357.552 547.737 357.568 547.897 357.632C548.089 357.696 548.233 357.856 548.329 358.112C548.361 358.144 548.377 358.176 548.377 358.208C548.409 358.24 548.441 358.272 548.473 358.304L548.809 358.496C549.033 358.528 549.225 358.496 549.385 358.4C549.545 358.272 549.705 358.192 549.865 358.16C550.057 358.16 550.169 358.24 550.201 358.4C550.297 358.624 550.361 358.96 550.393 359.408ZM576.109 362.624C576.077 362.656 576.061 362.704 576.061 362.768C576.093 362.8 576.093 362.848 576.061 362.912C575.965 363.232 575.933 363.536 575.965 363.824C575.965 364.176 575.869 364.544 575.677 364.928C575.741 365.056 575.789 365.2 575.821 365.36C575.885 365.488 575.933 365.632 575.965 365.792C575.901 366.144 575.821 366.512 575.725 366.896C575.661 367.28 575.741 367.648 575.965 368C575.933 368.192 575.885 368.384 575.821 368.576C575.757 368.768 575.693 368.944 575.629 369.104C575.597 369.264 575.549 369.424 575.485 369.584C575.453 369.744 575.405 369.952 575.341 370.208C575.341 370.144 575.325 370.128 575.293 370.16C575.293 370.192 575.309 370.24 575.341 370.304C575.469 370.816 575.469 371.312 575.341 371.792C575.213 372.272 575.053 372.752 574.861 373.232C574.829 373.264 574.797 373.328 574.765 373.424C574.733 373.488 574.685 373.552 574.621 373.616C574.269 374.224 573.933 374.848 573.613 375.488C573.325 376.128 573.021 376.768 572.701 377.408C572.669 377.536 572.605 377.68 572.509 377.84C572.413 378 572.333 378.16 572.269 378.32C572.141 378.512 572.029 378.656 571.933 378.752C571.709 378.944 571.469 379.136 571.213 379.328C570.957 379.552 570.701 379.76 570.445 379.952C570.125 380.08 569.853 380.256 569.629 380.48C569.405 380.704 569.197 380.976 569.005 381.296C568.781 381.36 568.573 381.456 568.381 381.584C568.189 381.648 568.013 381.776 567.853 381.968C567.789 382.096 567.677 382.16 567.517 382.16C567.357 382.192 567.213 382.272 567.085 382.4C566.989 382.528 566.861 382.624 566.701 382.688C566.413 382.784 566.157 382.944 565.933 383.168C565.645 383.36 565.341 383.504 565.021 383.6C564.861 383.632 564.701 383.696 564.541 383.792C564.381 383.92 564.237 384.016 564.109 384.08C564.045 384.048 563.997 384.032 563.965 384.032C563.933 384.032 563.917 384.032 563.917 384.032L562.477 382.592C562.413 382.016 562.349 381.584 562.285 381.296C562.253 381.04 562.173 380.8 562.045 380.576C561.949 380.384 561.757 380.112 561.469 379.76C561.501 379.696 561.517 379.648 561.517 379.616C561.517 379.584 561.533 379.552 561.565 379.52C561.661 379.456 561.773 379.376 561.901 379.28C562.029 379.184 562.157 379.12 562.285 379.088C562.541 378.928 562.765 378.752 562.957 378.56C563.149 378.4 563.357 378.24 563.581 378.08C563.773 377.92 563.981 377.76 564.205 377.6C564.429 377.472 564.653 377.344 564.877 377.216C565.101 377.056 565.309 376.88 565.501 376.688C565.725 376.528 565.917 376.336 566.077 376.112C566.173 375.984 566.269 375.872 566.365 375.776C566.461 375.68 566.557 375.584 566.653 375.488C566.685 375.36 566.701 375.232 566.701 375.104C566.701 375.008 566.717 374.912 566.749 374.816C566.877 374.496 566.861 374.128 566.701 373.712V373.616L567.037 373.136C567.037 373.168 567.053 373.088 567.085 372.896C567.149 372.704 567.181 372.608 567.181 372.608C567.181 372.32 567.165 372.096 567.133 371.936C567.133 371.744 567.133 371.52 567.133 371.264C567.005 371.104 566.909 371.024 566.845 371.024C566.813 370.992 566.765 371.008 566.701 371.072C566.573 371.2 566.413 371.296 566.221 371.36C566.029 371.424 565.837 371.488 565.645 371.552C565.613 371.552 565.549 371.584 565.453 371.648C565.357 371.712 565.277 371.728 565.213 371.696L564.589 372.128C564.557 372.128 564.525 372.144 564.493 372.176C564.493 372.176 564.477 372.176 564.445 372.176H563.245C563.149 372.048 563.037 371.936 562.909 371.84C562.781 371.744 562.669 371.632 562.573 371.504C562.349 371.44 562.173 371.44 562.045 371.504C561.949 371.536 561.821 371.552 561.661 371.552L560.845 371.408H560.173C559.949 371.248 559.741 371.104 559.549 370.976C559.357 370.816 559.149 370.672 558.925 370.544C558.381 370.576 558.029 370.592 557.869 370.592C557.709 370.56 557.437 370.432 557.053 370.208C556.989 370.112 556.941 370.016 556.909 369.92C556.877 369.824 556.829 369.728 556.765 369.632C556.669 369.44 556.589 369.248 556.525 369.056C556.493 368.832 556.429 368.64 556.333 368.48C556.205 368.352 556.141 368.176 556.141 367.952C556.173 367.696 556.141 367.472 556.045 367.28C555.949 367.056 555.869 366.832 555.805 366.608C555.773 366.384 555.693 366.176 555.565 365.984C555.437 365.792 555.341 365.6 555.277 365.408C555.309 365.056 555.213 364.736 554.989 364.448C554.925 364 554.829 363.584 554.701 363.2C554.861 362.624 554.941 362.144 554.941 361.76C554.941 361.504 554.957 361.28 554.989 361.088C555.053 360.864 555.101 360.64 555.133 360.416C555.101 360.352 555.069 360.288 555.037 360.224C555.005 360.128 554.957 360.064 554.893 360.032H554.941L555.229 359.744C555.325 359.68 555.405 359.52 555.469 359.264C555.437 359.136 555.405 359.024 555.373 358.928C555.341 358.8 555.309 358.672 555.277 358.544C555.277 358.384 555.293 358.288 555.325 358.256C555.645 358 555.837 357.808 555.901 357.68C555.965 357.552 556.061 357.28 556.189 356.864C556.221 356.832 556.269 356.8 556.333 356.768C556.429 356.736 556.493 356.704 556.525 356.672C556.525 356.672 556.621 356.608 556.813 356.48C556.877 356.32 556.941 356.16 557.005 356C557.101 355.808 557.181 355.6 557.245 355.376C557.501 355.12 557.773 354.88 558.061 354.656C558.381 354.432 558.701 354.224 559.021 354.032C559.437 353.776 559.709 353.6 559.837 353.504C559.965 353.376 560.205 353.136 560.557 352.784C560.781 352.688 561.005 352.592 561.229 352.496C561.485 352.368 561.725 352.208 561.949 352.016C562.109 351.92 562.269 351.824 562.429 351.728C562.589 351.632 562.733 351.552 562.861 351.488C563.021 351.52 563.149 351.536 563.245 351.536C563.373 351.536 563.485 351.536 563.581 351.536C563.773 351.504 563.917 351.424 564.013 351.296C564.109 351.136 564.221 351.008 564.349 350.912C564.669 350.816 565.021 350.8 565.405 350.864C565.565 350.864 565.725 350.88 565.885 350.912C566.077 350.912 566.253 350.912 566.413 350.912C566.765 350.912 567.101 350.912 567.421 350.912C567.773 350.88 568.093 350.816 568.381 350.72C568.637 350.88 568.861 351.056 569.053 351.248C569.277 351.408 569.501 351.52 569.725 351.584C569.789 351.68 569.853 351.76 569.917 351.824C569.981 351.888 570.029 351.952 570.061 352.016C570.189 352.208 570.317 352.224 570.445 352.064C570.509 352 570.557 351.952 570.589 351.92C570.621 351.888 570.669 351.856 570.733 351.824C570.765 351.792 570.797 351.76 570.829 351.728C570.893 351.664 570.941 351.616 570.973 351.584C571.133 351.712 571.309 351.856 571.501 352.016C571.693 352.144 571.869 352.272 572.029 352.4C572.189 352.528 572.349 352.672 572.509 352.832C572.701 352.96 572.877 353.072 573.037 353.168C573.165 353.296 573.373 353.392 573.661 353.456C573.725 353.584 573.789 353.712 573.853 353.84C573.917 353.968 573.981 354.096 574.045 354.224C574.205 354.512 574.349 354.8 574.477 355.088C574.637 355.376 574.813 355.648 575.005 355.904C575.357 356.352 575.581 356.848 575.677 357.392C575.677 357.616 575.629 357.84 575.533 358.064C575.469 358.288 575.469 358.576 575.533 358.928C575.597 359.088 575.661 359.28 575.725 359.504C575.821 359.696 575.901 359.904 575.965 360.128C576.029 360.448 576.029 360.752 575.965 361.04C575.933 361.296 575.885 361.568 575.821 361.856C575.885 361.984 575.933 362.112 575.965 362.24C575.997 362.336 576.045 362.464 576.109 362.624ZM569.245 362.624C569.085 362.4 568.957 362.176 568.861 361.952C568.829 361.792 568.781 361.632 568.717 361.472C568.685 361.312 568.669 361.168 568.669 361.04C568.637 360.88 568.621 360.72 568.621 360.56C568.621 360.368 568.605 360.192 568.573 360.032C568.541 359.872 568.525 359.712 568.525 359.552C568.525 359.36 568.445 359.2 568.285 359.072C568.189 359.008 568.061 358.96 567.901 358.928C567.773 358.896 567.629 358.848 567.469 358.784C567.341 358.656 567.197 358.544 567.037 358.448C566.909 358.32 566.781 358.224 566.653 358.16C566.525 358.128 566.413 358.112 566.317 358.112C566.029 358.144 565.741 358.192 565.453 358.256C565.197 358.288 564.925 358.304 564.637 358.304C564.573 358.304 564.493 358.32 564.397 358.352C564.301 358.384 564.221 358.416 564.157 358.448C563.997 358.608 563.805 358.72 563.581 358.784C563.389 358.816 563.197 358.864 563.005 358.928C562.877 358.96 562.733 359.024 562.573 359.12C562.413 359.216 562.301 359.344 562.237 359.504C562.141 359.696 562.013 359.84 561.853 359.936C561.725 360 561.597 360.064 561.469 360.128C561.341 360.256 561.261 360.384 561.229 360.512C561.229 360.608 561.213 360.704 561.181 360.8C561.149 360.928 561.101 361.04 561.037 361.136C560.973 361.2 560.909 361.28 560.845 361.376C561.037 361.984 561.213 362.496 561.373 362.912C561.533 363.296 561.725 363.68 561.949 364.064C561.981 364.192 561.981 364.304 561.949 364.4C561.949 364.464 561.981 364.544 562.045 364.64C562.269 364.672 562.477 364.672 562.669 364.64C562.861 364.608 563.037 364.528 563.197 364.4C563.229 364.368 563.277 364.368 563.341 364.4C563.405 364.4 563.453 364.4 563.485 364.4C563.613 364.528 563.725 364.656 563.821 364.784C563.917 364.88 564.013 364.976 564.109 365.072C564.365 365.168 564.605 365.248 564.829 365.312C565.053 365.376 565.277 365.36 565.501 365.264C565.693 365.136 565.853 364.976 565.981 364.784C566.109 364.56 566.285 364.416 566.509 364.352C566.637 364.352 566.765 364.368 566.893 364.4C567.053 364.4 567.213 364.4 567.373 364.4C567.437 364.336 567.517 364.272 567.613 364.208C567.741 364.144 567.837 364.08 567.901 364.016C568.061 363.856 568.205 363.712 568.333 363.584C568.493 363.456 568.669 363.344 568.861 363.248C569.085 363.088 569.213 362.88 569.245 362.624ZM599.166 366.944C599.166 367.2 599.166 367.472 599.166 367.76C599.198 368.016 599.182 368.272 599.118 368.528C599.054 368.688 599.038 368.832 599.07 368.96C599.134 369.12 599.134 369.296 599.07 369.488C599.038 369.648 599.038 369.808 599.07 369.968C599.134 370.192 599.15 370.448 599.118 370.736C599.086 370.992 599.086 371.248 599.118 371.504C598.99 371.728 598.782 371.84 598.494 371.84C598.174 371.84 597.822 371.856 597.438 371.888C597.086 371.92 596.734 372 596.382 372.128C596.19 372.192 595.982 372.224 595.758 372.224C595.534 372.224 595.31 372.224 595.086 372.224C594.894 372.096 594.75 371.984 594.654 371.888C594.27 372.016 593.95 371.872 593.694 371.456C593.566 371.264 593.454 371.056 593.358 370.832C593.294 370.608 593.262 370.368 593.262 370.112C593.294 369.856 593.294 369.6 593.262 369.344C593.23 369.088 593.23 368.816 593.262 368.528C593.326 368.048 593.262 367.584 593.07 367.136C593.038 367.04 593.006 366.944 592.974 366.848C592.942 366.752 592.926 366.656 592.926 366.56C592.926 366.208 592.91 365.856 592.878 365.504C592.846 365.12 592.782 364.768 592.686 364.448C592.654 364.288 592.622 364.144 592.59 364.016C592.59 363.856 592.59 363.712 592.59 363.584C592.494 363.2 592.286 362.896 591.966 362.672C591.934 362.416 591.902 362.192 591.87 362C591.838 361.776 591.79 361.536 591.726 361.28C591.662 361.216 591.534 361.12 591.342 360.992C591.214 360.896 591.054 360.816 590.862 360.752C590.702 360.688 590.542 360.608 590.382 360.512C590.318 360.448 590.238 360.368 590.142 360.272C590.078 360.144 589.998 360.032 589.902 359.936H589.614C589.486 359.968 589.374 360 589.278 360.032C589.182 360.032 589.054 360.016 588.894 359.984C588.83 359.952 588.75 359.952 588.654 359.984C588.558 359.984 588.478 359.984 588.414 359.984C588.254 360.208 588.094 360.448 587.934 360.704C587.806 360.8 587.678 360.896 587.55 360.992C587.454 361.056 587.374 361.12 587.31 361.184C587.214 361.28 587.166 361.376 587.166 361.472L586.83 362.48C586.894 362.672 586.894 362.864 586.83 363.056C586.766 363.216 586.782 363.392 586.878 363.584C586.91 363.68 586.91 363.776 586.878 363.872C586.846 363.968 586.814 364.048 586.782 364.112C586.686 364.24 586.67 364.336 586.734 364.4C586.798 364.464 586.846 364.544 586.878 364.64C586.91 364.672 586.942 364.736 586.974 364.832C586.974 365.216 586.974 365.584 586.974 365.936C586.974 366.288 586.91 366.64 586.782 366.992C586.814 367.12 586.83 367.248 586.83 367.376C586.862 367.472 586.894 367.6 586.926 367.76C586.894 367.952 586.846 368.176 586.782 368.432C586.75 368.656 586.75 368.896 586.782 369.152C586.814 369.312 586.814 369.488 586.782 369.68C586.782 369.872 586.75 370.064 586.686 370.256C586.654 370.352 586.654 370.448 586.686 370.544C586.782 370.928 586.782 371.264 586.686 371.552C586.59 371.84 586.414 372.144 586.158 372.464C586.126 372.496 586.062 372.528 585.966 372.56C585.87 372.592 585.79 372.624 585.726 372.656C585.662 372.72 585.598 372.768 585.534 372.8C585.47 372.8 585.406 372.816 585.342 372.848C585.214 372.848 585.086 372.848 584.958 372.848C584.83 372.816 584.718 372.8 584.622 372.8C584.494 372.832 584.382 372.88 584.286 372.944C584.222 372.976 584.11 373.04 583.95 373.136C583.534 373.072 583.102 372.992 582.654 372.896C582.238 372.8 581.822 372.832 581.406 372.992C581.214 372.96 581.054 372.88 580.926 372.752C580.798 372.624 580.686 372.48 580.59 372.32C580.462 372.128 580.382 371.92 580.35 371.696C580.318 371.44 580.27 371.2 580.206 370.976C580.27 370.432 580.302 370.064 580.302 369.872C580.302 369.648 580.254 369.168 580.158 368.432C580.254 367.92 580.318 367.408 580.35 366.896C580.382 366.352 580.398 365.824 580.398 365.312C580.398 364.64 580.398 363.952 580.398 363.248C580.398 362.544 580.414 361.84 580.446 361.136C580.446 360.944 580.462 360.752 580.494 360.56C580.526 360.368 580.558 360.192 580.59 360.032C580.654 359.68 580.718 359.344 580.782 359.024C580.846 358.704 580.926 358.4 581.022 358.112C581.086 357.888 581.198 357.696 581.358 357.536C581.518 357.376 581.63 357.184 581.694 356.96C581.758 356.512 581.886 356.128 582.078 355.808C582.302 355.456 582.526 355.12 582.75 354.8C582.91 354.352 583.198 354.176 583.614 354.272C583.678 354.272 583.71 354.256 583.71 354.224C583.806 354.128 583.822 354 583.758 353.84C583.726 353.68 583.774 353.536 583.902 353.408C584.19 353.152 584.526 352.96 584.91 352.832C585.294 352.672 585.646 352.528 585.966 352.4C586.254 352.4 586.446 352.432 586.542 352.496C586.958 352.624 587.358 352.624 587.742 352.496C588.03 352.432 588.286 352.512 588.51 352.736C588.83 352.8 589.134 352.864 589.422 352.928C589.71 352.992 590.014 353.056 590.334 353.12C590.462 353.088 590.59 353.072 590.718 353.072C590.846 353.04 590.974 353.008 591.102 352.976C591.422 353.104 591.678 353.296 591.87 353.552C592.094 353.776 592.318 354.016 592.542 354.272C592.702 354.4 592.878 354.448 593.07 354.416C593.262 354.384 593.47 354.4 593.694 354.464C593.854 354.624 594.014 354.8 594.174 354.992C594.366 355.184 594.558 355.36 594.75 355.52C594.782 355.648 594.814 355.776 594.846 355.904C594.91 356 594.958 356.112 594.99 356.24C595.15 356.272 595.262 356.352 595.326 356.48C595.39 356.608 595.438 356.72 595.47 356.816C595.79 356.944 596.11 357.04 596.43 357.104C596.59 357.264 596.734 357.456 596.862 357.68C596.99 357.872 597.198 357.968 597.486 357.968C597.55 358.288 597.614 358.576 597.678 358.832C597.742 359.088 597.806 359.344 597.87 359.6C597.934 360.08 598.046 360.496 598.206 360.848C598.334 361.104 598.446 361.376 598.542 361.664C598.638 361.92 598.686 362.208 598.686 362.528C598.718 362.72 598.782 362.896 598.878 363.056C599.006 363.216 599.102 363.392 599.166 363.584C599.134 363.712 599.102 363.84 599.07 363.968C599.07 364.096 599.07 364.24 599.07 364.4C599.07 364.528 599.07 364.64 599.07 364.736C599.102 364.832 599.134 364.96 599.166 365.12C599.166 365.184 599.166 365.28 599.166 365.408C599.198 365.504 599.198 365.584 599.166 365.648C599.102 365.872 599.086 366.096 599.118 366.32C599.15 366.544 599.166 366.752 599.166 366.944Z" fill="black"/>
<path d="M483.805 196.586C478.961 196.586 475.336 195.5 472.93 193.328C470.539 191.156 469.281 188.367 469.156 184.961H473.539C473.773 187.523 474.836 189.422 476.727 190.656C478.633 191.875 480.93 192.484 483.617 192.484C486.164 192.484 488.211 191.961 489.758 190.914C491.32 189.867 492.102 188.445 492.102 186.648C492.102 184.758 491.297 183.383 489.688 182.523C488.078 181.664 485.305 180.82 481.367 179.992C477.445 179.148 474.625 177.984 472.906 176.5C471.203 175.016 470.352 173.039 470.352 170.57C470.352 167.789 471.461 165.508 473.68 163.727C475.914 161.945 478.875 161.055 482.562 161.055C486.438 161.055 489.562 161.953 491.938 163.75C494.312 165.547 495.57 168.086 495.711 171.367H491.281C490.828 167.211 487.984 165.133 482.75 165.133C480.219 165.133 478.258 165.609 476.867 166.562C475.477 167.516 474.781 168.781 474.781 170.359C474.781 171.797 475.336 172.875 476.445 173.594C477.57 174.312 479.656 175.008 482.703 175.68C485.766 176.352 488.195 177.016 489.992 177.672C491.789 178.328 493.328 179.352 494.609 180.742C495.891 182.117 496.531 183.969 496.531 186.297C496.531 189.25 495.352 191.703 492.992 193.656C490.648 195.609 487.586 196.586 483.805 196.586ZM518.023 189.461V183.953H515C508.594 183.953 505.391 185.695 505.391 189.18C505.391 190.445 505.859 191.422 506.797 192.109C507.734 192.781 509 193.117 510.594 193.117C512.047 193.117 513.453 192.789 514.812 192.133C516.172 191.477 517.242 190.586 518.023 189.461ZM518.023 193.445C515.773 195.539 512.875 196.586 509.328 196.586C506.859 196.586 504.828 195.922 503.234 194.594C501.641 193.25 500.844 191.523 500.844 189.414C500.844 183.602 505.852 180.695 515.867 180.695H518.023C518.023 178.914 517.93 177.625 517.742 176.828C517.555 176.016 517.031 175.344 516.172 174.812C515.312 174.281 513.945 174.016 512.07 174.016C508.133 174.016 506.102 175.422 505.977 178.234H501.57C501.898 173.125 505.477 170.57 512.305 170.57C515.492 170.57 517.977 171.203 519.758 172.469C521.539 173.734 522.43 176.219 522.43 179.922V196H518.023V193.445ZM533.422 174.297C535.625 171.812 538.102 170.57 540.852 170.57C546.461 170.57 549.266 173.625 549.266 179.734V196H544.836V179.922C544.836 177.891 544.469 176.43 543.734 175.539C543.016 174.648 541.828 174.203 540.172 174.203C537.922 174.203 535.672 175.531 533.422 178.188V196H528.992V171.133H533.422V174.297ZM564.594 196.586C557.797 196.586 554.242 193.914 553.93 188.57H558.359C558.391 191.602 560.453 193.117 564.547 193.117C566.375 193.117 567.766 192.742 568.719 191.992C569.688 191.227 570.172 190.273 570.172 189.133C570.172 188.008 569.703 187.219 568.766 186.766C567.828 186.297 565.891 185.695 562.953 184.961C560.031 184.227 557.891 183.406 556.531 182.5C555.188 181.594 554.516 180 554.516 177.719C554.516 175.656 555.352 173.953 557.023 172.609C558.711 171.25 560.961 170.57 563.773 170.57C570.289 170.57 573.617 172.891 573.758 177.531H569.352C569.195 175.188 567.438 174.016 564.078 174.016C562.594 174.016 561.359 174.297 560.375 174.859C559.406 175.422 558.922 176.242 558.922 177.32C558.922 178.289 559.297 178.992 560.047 179.43C560.797 179.852 562.672 180.43 565.672 181.164C568.688 181.883 570.922 182.727 572.375 183.695C573.844 184.664 574.578 186.336 574.578 188.711C574.578 190.977 573.672 192.859 571.859 194.359C570.062 195.844 567.641 196.586 564.594 196.586ZM601.344 196.586C594.547 196.586 590.992 193.914 590.68 188.57H595.109C595.141 191.602 597.203 193.117 601.297 193.117C603.125 193.117 604.516 192.742 605.469 191.992C606.438 191.227 606.922 190.273 606.922 189.133C606.922 188.008 606.453 187.219 605.516 186.766C604.578 186.297 602.641 185.695 599.703 184.961C596.781 184.227 594.641 183.406 593.281 182.5C591.938 181.594 591.266 180 591.266 177.719C591.266 175.656 592.102 173.953 593.773 172.609C595.461 171.25 597.711 170.57 600.523 170.57C607.039 170.57 610.367 172.891 610.508 177.531H606.102C605.945 175.188 604.188 174.016 600.828 174.016C599.344 174.016 598.109 174.297 597.125 174.859C596.156 175.422 595.672 176.242 595.672 177.32C595.672 178.289 596.047 178.992 596.797 179.43C597.547 179.852 599.422 180.43 602.422 181.164C605.438 181.883 607.672 182.727 609.125 183.695C610.594 184.664 611.328 186.336 611.328 188.711C611.328 190.977 610.422 192.859 608.609 194.359C606.812 195.844 604.391 196.586 601.344 196.586ZM627.031 196.586C623.375 196.586 620.438 195.445 618.219 193.164C616 190.867 614.891 187.672 614.891 183.578C614.891 179.516 615.961 176.336 618.102 174.039C620.258 171.727 623.07 170.57 626.539 170.57C630.086 170.57 632.914 171.703 635.023 173.969C637.148 176.234 638.211 179.438 638.211 183.578V184.633H619.484C619.672 187.508 620.461 189.641 621.852 191.031C623.258 192.422 624.984 193.117 627.031 193.117C628.578 193.117 629.969 192.727 631.203 191.945C632.453 191.148 633.109 190.023 633.172 188.57H637.742C637.398 191.133 636.234 193.109 634.25 194.5C632.281 195.891 629.875 196.586 627.031 196.586ZM633.547 181.164C633.188 178.773 632.383 176.984 631.133 175.797C629.883 174.609 628.352 174.016 626.539 174.016C624.773 174.016 623.258 174.609 621.992 175.797C620.727 176.969 619.922 178.758 619.578 181.164H633.547ZM656.094 175.164C655.469 174.977 654.57 174.883 653.398 174.883C651.148 174.883 649.219 176.062 647.609 178.422V196H643.18V171.133H647.609V174.602C649.469 171.914 651.625 170.57 654.078 170.57C654.703 170.57 655.375 170.633 656.094 170.758V175.164ZM663.594 196H659.164V171.133H663.594V196ZM663.594 166.422H659.164V161.641H663.594V166.422ZM675.312 174.602V196H670.906V174.602H667.25V171.133H670.906V168.93C670.906 163.68 673.227 161.055 677.867 161.055C679.289 161.055 680.391 161.148 681.172 161.336V165.18C680.297 165.023 679.406 164.945 678.5 164.945C677.422 164.945 676.617 165.25 676.086 165.859C675.57 166.453 675.312 167.492 675.312 168.977V171.133H680.023V174.602H675.312Z" fill="black"/>
</svg>
