<svg width="866" height="539" viewBox="0 0 866 539" fill="none" xmlns="http://www.w3.org/2000/svg">
<rect width="866" height="539" fill="#F2F2F2"/>
<rect x="94" y="138" width="80" height="280" fill="#F69D4C"/>
<rect x="182" y="138" width="80" height="280" fill="#FFF4CC"/>
<rect x="270" y="138" width="80" height="280" fill="#606C38"/>
<path d="M166.68 101.064H153.624V103.584C154.44 103.6 155.664 103.608 157.296 103.608C160.112 103.608 162.976 103.56 165.888 103.464V108.168C162.976 108.056 159.904 108 156.672 108C155.328 108 154.312 108.008 153.624 108.024V114H147.96C148.088 110.896 148.152 107.992 148.152 105.288C148.152 102.584 148.088 99.68 147.96 96.576H166.68V101.064ZM174.464 109.152C179.104 109.12 182.944 109.04 185.984 108.912C185.776 109.728 185.648 110.512 185.6 111.264C185.552 112.016 185.528 112.928 185.528 114H168.608C168.736 110.896 168.8 107.992 168.8 105.288C168.8 102.584 168.736 99.68 168.608 96.576H174.464V109.152ZM193.562 109.608C199.642 109.576 204.05 109.488 206.786 109.344C206.674 110 206.602 110.68 206.57 111.384C206.554 112.072 206.546 112.944 206.546 114H187.898C188.026 110.896 188.09 107.992 188.09 105.288C188.09 102.584 188.026 99.68 187.898 96.576H206.546V100.92H193.562V103.224C194.33 103.24 195.466 103.248 196.97 103.248C199.514 103.248 202.146 103.2 204.866 103.104V107.232C202.146 107.136 199.514 107.088 196.97 107.088C195.466 107.088 194.33 107.096 193.562 107.112V109.608ZM220.12 105.072L227.128 114H220.192L216.736 109.296L213.256 114H206.32L213.328 105.072L206.56 96.576H213.496L216.736 100.896L219.952 96.576H226.888L220.12 105.072ZM242.462 105.336C246.11 105.336 247.934 106.496 247.934 108.816C247.934 109.904 247.686 110.832 247.19 111.6C246.694 112.352 245.806 112.944 244.526 113.376C243.246 113.792 241.47 114 239.198 114H228.398C228.526 110.896 228.59 107.992 228.59 105.288C228.59 102.584 228.526 99.68 228.398 96.576H234.038V96.6H239.15C241.134 96.6 242.694 96.768 243.83 97.104C244.982 97.424 245.79 97.896 246.254 98.52C246.734 99.144 246.974 99.936 246.974 100.896C246.974 101.872 246.63 102.744 245.942 103.512C245.27 104.264 244.11 104.872 242.462 105.336ZM234.038 100.968V103.2H238.646C239.638 103.2 240.326 103.112 240.71 102.936C241.11 102.76 241.31 102.44 241.31 101.976C241.31 101.608 241.102 101.352 240.686 101.208C240.286 101.048 239.606 100.968 238.646 100.968H234.038ZM238.646 109.608C239.478 109.608 240.11 109.576 240.542 109.512C240.99 109.432 241.31 109.304 241.502 109.128C241.694 108.936 241.79 108.68 241.79 108.36C241.79 107.944 241.558 107.648 241.094 107.472C240.646 107.28 239.83 107.184 238.646 107.184H234.038V109.608H238.646ZM260.523 114.24C256.859 114.24 254.163 113.448 252.435 111.864C250.707 110.264 249.843 108.024 249.843 105.144C249.843 102.296 250.699 100.072 252.411 98.472C254.139 96.872 256.843 96.072 260.523 96.072C264.219 96.072 266.923 96.872 268.635 98.472C270.363 100.072 271.227 102.296 271.227 105.144C271.227 108.04 270.371 110.28 268.659 111.864C266.947 113.448 264.235 114.24 260.523 114.24ZM260.523 109.344C262.299 109.344 263.579 109.008 264.363 108.336C265.147 107.648 265.539 106.584 265.539 105.144C265.539 103.736 265.147 102.688 264.363 102C263.579 101.312 262.299 100.968 260.523 100.968C258.763 100.968 257.491 101.312 256.707 102C255.923 102.688 255.531 103.736 255.531 105.144C255.531 106.568 255.923 107.624 256.707 108.312C257.491 109 258.763 109.344 260.523 109.344ZM284.55 105.072L291.558 114H284.622L281.166 109.296L277.686 114H270.75L277.758 105.072L270.99 96.576H277.926L281.166 100.896L284.382 96.576H291.318L284.55 105.072Z" fill="black"/>
<path d="M570.848 104.064H581.096V114H576.872L576.368 109.752C575.888 111.272 575.032 112.4 573.8 113.136C572.568 113.872 571.064 114.24 569.288 114.24C567.672 114.24 566.232 113.88 564.968 113.16C563.72 112.44 562.736 111.408 562.016 110.064C561.312 108.72 560.96 107.152 560.96 105.36C560.96 102.496 561.816 100.232 563.528 98.568C565.24 96.904 567.904 96.072 571.52 96.072C573.584 96.072 575.4 96.408 576.968 97.08C578.552 97.752 579.896 98.792 581 100.2C580.28 100.568 578.872 101.304 576.776 102.408L576.176 102.744C575.552 102.12 574.824 101.656 573.992 101.352C573.16 101.032 572.28 100.872 571.352 100.872C569.816 100.872 568.672 101.28 567.92 102.096C567.168 102.896 566.792 103.888 566.792 105.072C566.792 106.352 567.192 107.384 567.992 108.168C568.808 108.952 570.048 109.344 571.712 109.344C572.432 109.344 573.128 109.24 573.8 109.032C574.488 108.824 575.064 108.464 575.528 107.952H570.848V104.064ZM602.287 102.384C602.287 103.776 601.943 104.952 601.255 105.912C600.583 106.872 599.423 107.568 597.775 108C597.967 108.256 598.103 108.456 598.183 108.6L602.071 114H595.543C594.839 112.688 593.727 110.832 592.207 108.432H588.679V114H583.015C583.143 110.896 583.207 107.992 583.207 105.288C583.207 102.584 583.143 99.68 583.015 96.576H588.679V96.6H593.599C596.831 96.6 599.087 97.12 600.367 98.16C601.647 99.2 602.287 100.608 602.287 102.384ZM588.679 101.208V103.944H591.919C593.279 103.944 594.303 103.904 594.991 103.824C595.695 103.728 596.183 103.584 596.455 103.392C596.727 103.2 596.863 102.92 596.863 102.552C596.863 102.2 596.735 101.928 596.479 101.736C596.223 101.544 595.743 101.408 595.039 101.328C594.335 101.248 593.295 101.208 591.919 101.208H588.679ZM618.146 101.352C616.242 101.256 614.834 101.2 613.922 101.184V109.392C614.85 109.376 616.258 109.32 618.146 109.224V114H604.202V109.224C606.042 109.32 607.442 109.376 608.402 109.392V101.184C607.442 101.2 606.042 101.256 604.202 101.352V96.576H618.146V101.352ZM627.749 96.312C630.757 96.312 633.133 96.68 634.877 97.416C636.621 98.136 637.837 99.144 638.525 100.44C639.229 101.72 639.581 103.296 639.581 105.168C639.581 106.944 639.181 108.496 638.381 109.824C637.581 111.152 636.381 112.184 634.781 112.92C633.181 113.64 631.213 114 628.877 114C627.453 114 626.005 114 624.533 114C623.061 114 621.573 113.992 620.069 113.976C620.197 110.824 620.261 107.888 620.261 105.168C620.261 102.416 620.197 99.544 620.069 96.552C621.973 96.392 624.533 96.312 627.749 96.312ZM629.549 109.224C631.037 109.224 632.029 108.864 632.525 108.144C633.021 107.424 633.269 106.432 633.269 105.168C633.269 103.952 633.005 102.968 632.477 102.216C631.965 101.464 630.989 101.088 629.549 101.088C627.997 101.088 626.837 101.136 626.069 101.232V109.224H629.549Z" fill="black"/>
<rect x="477" y="138" width="260" height="60" fill="#A4BE4D" fill-opacity="0.7"/>
<rect x="477" y="206" width="100" height="100" fill="#FFFAEF"/>
<rect x="591" y="206" width="100" height="100" fill="#F69D4C"/>
<rect x="701" y="207" width="36" height="198" fill="#606C38"/>
<rect x="477" y="318" width="216" height="87" fill="#FFF4CC"/>
</svg>
