<svg width="866" height="539" viewBox="0 0 866 539" fill="none" xmlns="http://www.w3.org/2000/svg">
<rect width="866" height="539" fill="#F2F2F2"/>
<mask id="path-1-outside-1_225_733" maskUnits="userSpaceOnUse" x="343" y="232" width="179" height="83" fill="black">
<rect fill="white" x="343" y="232" width="179" height="83"/>
<path d="M347.96 263.864L398.552 245.624V264.92L364.952 276.152L398.552 287.48V306.776L347.96 288.536V263.864ZM440.78 311C441.164 301.592 441.356 292.92 441.356 284.984C441.356 282.168 440.652 279.928 439.244 278.264C437.9 276.6 436.172 275.768 434.06 275.768C431.82 275.768 429.9 276.856 428.3 279.032C426.764 281.208 425.996 284.184 425.996 287.96L425.9 287.768C425.9 298.2 426.028 305.944 426.284 311H403.34C403.852 301.784 404.108 289.304 404.108 273.56C404.108 257.816 403.852 245.336 403.34 236.12H426.188L426.284 265.688L426.188 270.776C427.724 266.296 429.996 263 433.004 260.888C436.076 258.712 439.532 257.624 443.372 257.624C447.212 257.624 450.54 258.488 453.356 260.216C456.172 261.88 458.284 264.152 459.692 267.032C461.164 269.912 461.9 273.144 461.9 276.728V290.552C461.9 299.064 462.06 305.88 462.38 311H440.78ZM467.21 264.92V245.624L517.802 263.864V288.536L467.21 306.776V287.48L500.81 276.152L467.21 264.92Z"/>
</mask>
<path d="M347.96 263.864L398.552 245.624V264.92L364.952 276.152L398.552 287.48V306.776L347.96 288.536V263.864ZM440.78 311C441.164 301.592 441.356 292.92 441.356 284.984C441.356 282.168 440.652 279.928 439.244 278.264C437.9 276.6 436.172 275.768 434.06 275.768C431.82 275.768 429.9 276.856 428.3 279.032C426.764 281.208 425.996 284.184 425.996 287.96L425.9 287.768C425.9 298.2 426.028 305.944 426.284 311H403.34C403.852 301.784 404.108 289.304 404.108 273.56C404.108 257.816 403.852 245.336 403.34 236.12H426.188L426.284 265.688L426.188 270.776C427.724 266.296 429.996 263 433.004 260.888C436.076 258.712 439.532 257.624 443.372 257.624C447.212 257.624 450.54 258.488 453.356 260.216C456.172 261.88 458.284 264.152 459.692 267.032C461.164 269.912 461.9 273.144 461.9 276.728V290.552C461.9 299.064 462.06 305.88 462.38 311H440.78ZM467.21 264.92V245.624L517.802 263.864V288.536L467.21 306.776V287.48L500.81 276.152L467.21 264.92Z" fill="#606C38"/>
<path d="M347.96 263.864L346.603 260.101L343.96 261.054V263.864H347.96ZM398.552 245.624H402.552V239.93L397.195 241.861L398.552 245.624ZM398.552 264.92L399.82 268.714L402.552 267.8V264.92H398.552ZM364.952 276.152L363.684 272.358L352.384 276.136L363.674 279.942L364.952 276.152ZM398.552 287.48H402.552V284.607L399.83 283.69L398.552 287.48ZM398.552 306.776L397.195 310.539L402.552 312.47V306.776H398.552ZM347.96 288.536H343.96V291.346L346.603 292.299L347.96 288.536ZM349.317 267.627L399.909 249.387L397.195 241.861L346.603 260.101L349.317 267.627ZM394.552 245.624V264.92H402.552V245.624H394.552ZM397.284 261.126L363.684 272.358L366.22 279.946L399.82 268.714L397.284 261.126ZM363.674 279.942L397.274 291.27L399.83 283.69L366.23 272.362L363.674 279.942ZM394.552 287.48V306.776H402.552V287.48H394.552ZM399.909 303.013L349.317 284.773L346.603 292.299L397.195 310.539L399.909 303.013ZM351.96 288.536V263.864H343.96V288.536H351.96ZM440.78 311L436.783 310.837L436.613 315H440.78V311ZM439.244 278.264L436.132 280.777L436.161 280.813L436.19 280.848L439.244 278.264ZM428.3 279.032L425.077 276.662L425.054 276.694L425.032 276.725L428.3 279.032ZM425.996 287.96L422.418 289.749L429.996 287.96H425.996ZM425.9 287.768L429.478 285.979L421.9 287.768H425.9ZM426.284 311V315H430.492L430.279 310.798L426.284 311ZM403.34 311L399.346 310.778L399.112 315H403.34V311ZM403.34 236.12V232.12H399.112L399.346 236.342L403.34 236.12ZM426.188 236.12L430.188 236.107L430.175 232.12H426.188V236.12ZM426.284 265.688L430.283 265.763L430.284 265.719L430.284 265.675L426.284 265.688ZM426.188 270.776L422.189 270.701L429.972 272.073L426.188 270.776ZM433.004 260.888L435.303 264.162L435.309 264.157L435.316 264.152L433.004 260.888ZM453.356 260.216L451.264 263.625L451.292 263.643L451.321 263.66L453.356 260.216ZM459.692 267.032L456.098 268.789L456.114 268.821L456.13 268.852L459.692 267.032ZM462.38 311V315H466.638L466.372 310.75L462.38 311ZM444.777 311.163C445.162 301.71 445.356 292.983 445.356 284.984H437.356C437.356 292.857 437.166 301.474 436.783 310.837L444.777 311.163ZM445.356 284.984C445.356 281.503 444.477 278.256 442.298 275.68L436.19 280.848C436.827 281.6 437.356 282.833 437.356 284.984H445.356ZM442.356 275.751C440.264 273.16 437.398 271.768 434.06 271.768V279.768C434.946 279.768 435.536 280.04 436.132 280.777L442.356 275.751ZM434.06 271.768C430.279 271.768 427.256 273.699 425.077 276.662L431.523 281.402C432.544 280.013 433.361 279.768 434.06 279.768V271.768ZM425.032 276.725C422.858 279.805 421.996 283.691 421.996 287.96H429.996C429.996 284.677 430.67 282.611 431.568 281.339L425.032 276.725ZM429.574 286.171L429.478 285.979L422.322 289.557L422.418 289.749L429.574 286.171ZM421.9 287.768C421.9 298.213 422.028 306.04 422.289 311.202L430.279 310.798C430.028 305.848 429.9 298.187 429.9 287.768H421.9ZM426.284 307H403.34V315H426.284V307ZM407.334 311.222C407.852 301.898 408.108 289.334 408.108 273.56H400.108C400.108 289.274 399.852 301.67 399.346 310.778L407.334 311.222ZM408.108 273.56C408.108 257.786 407.852 245.222 407.334 235.898L399.346 236.342C399.852 245.45 400.108 257.846 400.108 273.56H408.108ZM403.34 240.12H426.188V232.12H403.34V240.12ZM422.188 236.133L422.284 265.701L430.284 265.675L430.188 236.107L422.188 236.133ZM422.285 265.613L422.189 270.701L430.187 270.851L430.283 265.763L422.285 265.613ZM429.972 272.073C431.313 268.162 433.162 265.665 435.303 264.162L430.705 257.614C426.83 260.335 424.135 264.43 422.404 269.479L429.972 272.073ZM435.316 264.152C437.698 262.465 440.343 261.624 443.372 261.624V253.624C438.721 253.624 434.454 254.959 430.692 257.624L435.316 264.152ZM443.372 261.624C446.595 261.624 449.174 262.343 451.264 263.625L455.448 256.807C451.906 254.633 447.829 253.624 443.372 253.624V261.624ZM451.321 263.66C453.478 264.934 455.041 266.626 456.098 268.789L463.286 265.275C461.527 261.678 458.866 258.826 455.391 256.772L451.321 263.66ZM456.13 268.852C457.284 271.11 457.9 273.707 457.9 276.728H465.9C465.9 272.581 465.044 268.714 463.254 265.212L456.13 268.852ZM457.9 276.728V290.552H465.9V276.728H457.9ZM457.9 290.552C457.9 299.101 458.06 306.01 458.388 311.25L466.372 310.75C466.06 305.75 465.9 299.027 465.9 290.552H457.9ZM462.38 307H440.78V315H462.38V307ZM467.21 264.92H463.21V267.8L465.942 268.714L467.21 264.92ZM467.21 245.624L468.567 241.861L463.21 239.93V245.624H467.21ZM517.802 263.864H521.802V261.054L519.159 260.101L517.802 263.864ZM517.802 288.536L519.159 292.299L521.802 291.346V288.536H517.802ZM467.21 306.776H463.21V312.47L468.567 310.539L467.21 306.776ZM467.21 287.48L465.932 283.69L463.21 284.607V287.48H467.21ZM500.81 276.152L502.088 279.942L513.378 276.136L502.078 272.358L500.81 276.152ZM471.21 264.92V245.624H463.21V264.92H471.21ZM465.853 249.387L516.445 267.627L519.159 260.101L468.567 241.861L465.853 249.387ZM513.802 263.864V288.536H521.802V263.864H513.802ZM516.445 284.773L465.853 303.013L468.567 310.539L519.159 292.299L516.445 284.773ZM471.21 306.776V287.48H463.21V306.776H471.21ZM468.488 291.27L502.088 279.942L499.532 272.362L465.932 283.69L468.488 291.27ZM502.078 272.358L468.478 261.126L465.942 268.714L499.542 279.946L502.078 272.358Z" fill="white" mask="url(#path-1-outside-1_225_733)"/>
</svg>
