<svg width="866" height="539" viewBox="0 0 866 539" fill="none" xmlns="http://www.w3.org/2000/svg">
<rect width="866" height="539" fill="#F2F2F2"/>
<line x1="302.76" y1="203.351" x2="413.76" y2="333.351" stroke="#737373" stroke-width="2" stroke-dasharray="6 6"/>
<line x1="336.163" y1="182.013" x2="536.163" y2="215.013" stroke="#737373" stroke-width="2" stroke-dasharray="6 6"/>
<line x1="587.46" y1="249.888" x2="446.46" y2="322.888" stroke="#737373" stroke-width="2" stroke-dasharray="6 6"/>
<rect x="210" y="146" width="139" height="65" rx="20" fill="#606C38"/>
<path d="M242.548 191V170.28H246.692V178.456H254.532V170.28H258.648V191H254.532V182.04H246.692V191H242.548ZM267.855 191V173.724H262.003V170.28H277.851V173.724H271.999V191H267.855ZM281.239 191V170.28H285.803L289.331 179.996C289.807 181.284 290.171 182.628 290.619 183.972H290.731C291.207 182.628 291.571 181.284 291.991 179.996L295.435 170.28H300.027V191H296.247V182.348C296.247 180.388 296.583 177.504 296.807 175.544H296.667L294.959 180.416L291.767 189.152H289.387L286.195 180.416L284.515 175.544H284.403C284.627 177.504 284.935 180.388 284.935 182.348V191H281.239ZM305.111 191V170.28H309.255V187.528H317.683V191H305.111Z" fill="white"/>
<rect x="526" y="192" width="112" height="65" rx="20" fill="#F69D4C"/>
<path d="M566.976 237.392C561.74 237.392 557.512 233.64 557.512 226.724C557.512 219.892 561.88 215.916 567.144 215.916C569.776 215.916 571.876 217.148 573.22 218.548L571.036 221.208C569.972 220.172 568.796 219.472 567.2 219.472C564.092 219.472 561.74 222.16 561.74 226.584C561.74 231.12 563.84 233.808 567.144 233.808C568.908 233.808 570.308 232.968 571.4 231.764L573.584 234.368C571.876 236.356 569.664 237.392 566.976 237.392ZM582.099 237.392C579.299 237.392 576.555 236.328 574.539 234.396L576.919 231.54C578.375 232.912 580.363 233.808 582.183 233.808C584.339 233.808 585.459 232.884 585.459 231.456C585.459 229.916 584.199 229.412 582.351 228.628L579.579 227.452C577.507 226.612 575.379 224.904 575.379 221.908C575.379 218.52 578.375 215.916 582.547 215.916C584.955 215.916 587.363 216.868 589.043 218.576L586.971 221.18C585.627 220.088 584.255 219.472 582.547 219.472C580.727 219.472 579.579 220.284 579.579 221.628C579.579 223.112 581.063 223.672 582.827 224.372L585.543 225.492C588.035 226.528 589.687 228.152 589.687 231.12C589.687 234.508 586.859 237.392 582.099 237.392ZM598.888 237.392C596.088 237.392 593.344 236.328 591.328 234.396L593.708 231.54C595.164 232.912 597.152 233.808 598.972 233.808C601.128 233.808 602.248 232.884 602.248 231.456C602.248 229.916 600.988 229.412 599.14 228.628L596.368 227.452C594.296 226.612 592.168 224.904 592.168 221.908C592.168 218.52 595.164 215.916 599.336 215.916C601.744 215.916 604.152 216.868 605.832 218.576L603.76 221.18C602.416 220.088 601.044 219.472 599.336 219.472C597.516 219.472 596.368 220.284 596.368 221.628C596.368 223.112 597.852 223.672 599.616 224.372L602.332 225.492C604.824 226.528 606.476 228.152 606.476 231.12C606.476 234.508 603.648 237.392 598.888 237.392Z" fill="black"/>
<rect x="306" y="322" width="207" height="65" rx="20" fill="#FFF4CC"/>
<path d="M343.056 367.392C340.032 367.392 338.016 366.188 336.616 363.78L339.472 361.652C340.256 363.164 341.348 363.808 342.524 363.808C344.372 363.808 345.324 362.856 345.324 360V346.28H349.468V360.336C349.468 364.228 347.48 367.392 343.056 367.392ZM357.962 367.392C355.162 367.392 353.342 365.432 353.342 362.744C353.342 359.412 356.058 357.648 362.358 356.948C362.274 355.408 361.63 354.26 359.698 354.26C358.242 354.26 356.814 354.876 355.386 355.744L353.902 353C355.75 351.88 357.962 350.956 360.454 350.956C364.43 350.956 366.474 353.308 366.474 357.872V367H363.114L362.806 365.348H362.694C361.322 366.524 359.754 367.392 357.962 367.392ZM359.306 364.172C360.482 364.172 361.35 363.64 362.358 362.66V359.496C358.522 359.972 357.262 361.008 357.262 362.436C357.262 363.64 358.102 364.172 359.306 364.172ZM374.197 367L368.821 351.348H372.993L375.261 359.16C375.681 360.7 376.101 362.296 376.521 363.892H376.661C377.081 362.296 377.501 360.7 377.921 359.16L380.217 351.348H384.193L378.957 367H374.197ZM389.845 367.392C387.045 367.392 385.225 365.432 385.225 362.744C385.225 359.412 387.941 357.648 394.241 356.948C394.157 355.408 393.513 354.26 391.581 354.26C390.125 354.26 388.697 354.876 387.269 355.744L385.785 353C387.633 351.88 389.845 350.956 392.337 350.956C396.313 350.956 398.357 353.308 398.357 357.872V367H394.997L394.689 365.348H394.577C393.205 366.524 391.637 367.392 389.845 367.392ZM391.189 364.172C392.365 364.172 393.233 363.64 394.241 362.66V359.496C390.405 359.972 389.145 361.008 389.145 362.436C389.145 363.64 389.985 364.172 391.189 364.172ZM409.076 367.392C406.276 367.392 403.532 366.328 401.516 364.396L403.896 361.54C405.352 362.912 407.34 363.808 409.16 363.808C411.316 363.808 412.436 362.884 412.436 361.456C412.436 359.916 411.176 359.412 409.328 358.628L406.556 357.452C404.484 356.612 402.356 354.904 402.356 351.908C402.356 348.52 405.352 345.916 409.524 345.916C411.932 345.916 414.34 346.868 416.02 348.576L413.948 351.18C412.604 350.088 411.232 349.472 409.524 349.472C407.704 349.472 406.556 350.284 406.556 351.628C406.556 353.112 408.04 353.672 409.804 354.372L412.52 355.492C415.012 356.528 416.664 358.152 416.664 361.12C416.664 364.508 413.836 367.392 409.076 367.392ZM426.661 367.392C422.349 367.392 419.045 364.368 419.045 359.188C419.045 353.98 422.769 350.956 427.025 350.956C428.985 350.956 430.441 351.684 431.589 352.692L429.657 355.324C428.873 354.652 428.117 354.316 427.277 354.316C424.841 354.316 423.245 356.22 423.245 359.188C423.245 362.128 424.869 364.06 427.109 364.06C428.257 364.06 429.321 363.5 430.189 362.8L431.812 365.516C430.329 366.804 428.397 367.392 426.661 367.392ZM434.79 367V351.348H438.122L438.458 354.12H438.542C439.662 352.048 441.37 350.956 442.994 350.956C443.834 350.956 444.338 351.068 444.814 351.292L444.114 354.82C443.554 354.68 443.134 354.568 442.462 354.568C441.258 354.568 439.774 355.408 438.906 357.676V367H434.79ZM447.013 367V351.348H451.129V367H447.013ZM449.057 348.8C447.629 348.8 446.677 347.904 446.677 346.532C446.677 345.188 447.629 344.32 449.057 344.32C450.485 344.32 451.465 345.188 451.465 346.532C451.465 347.904 450.485 348.8 449.057 348.8ZM455.517 373.02V351.348H458.849L459.185 352.972H459.269C460.557 351.824 462.181 350.956 463.861 350.956C467.725 350.956 470.021 354.092 470.021 358.936C470.021 364.312 466.801 367.392 463.357 367.392C462.013 367.392 460.669 366.804 459.493 365.712L459.633 368.26V373.02H455.517ZM462.461 364.004C464.337 364.004 465.793 362.38 465.793 358.992C465.793 355.968 464.869 354.316 462.685 354.316C461.649 354.316 460.697 354.848 459.633 355.94V362.856C460.613 363.724 461.621 364.004 462.461 364.004ZM478.346 367.392C474.622 367.392 473.194 365.04 473.194 361.54V354.568H471.01V351.516L473.446 351.348L473.894 347.092H477.31V351.348H481.202V354.568H477.31V361.54C477.31 363.332 478.066 364.172 479.438 364.172C479.97 364.172 480.558 363.976 481.006 363.808L481.678 366.804C480.838 367.084 479.746 367.392 478.346 367.392Z" fill="black"/>
</svg>
