<svg width="866" height="539" viewBox="0 0 866 539" fill="none" xmlns="http://www.w3.org/2000/svg">
<rect width="866" height="539" fill="#F2F2F2"/>
<mask id="path-1-outside-1_225_718" maskUnits="userSpaceOnUse" x="172" y="243" width="557" height="59" fill="black">
<rect fill="white" x="172" y="243" width="557" height="59"/>
<path d="M229.192 250.536C228.893 257.747 228.744 265.491 228.744 273.768C228.744 282.045 228.893 289.789 229.192 297H214.152V279.592H190.6V297H175.56C175.901 288.723 176.072 280.979 176.072 273.768C176.072 266.557 175.901 258.813 175.56 250.536H190.6V267.944H214.152V250.536H229.192ZM289.286 263.976C282.587 263.763 276.081 263.635 269.766 263.592V297H253.766V263.592C247.409 263.635 240.923 263.763 234.31 263.976V250.536H289.286V263.976ZM354.275 250.536L359.267 297H342.691L341.667 263.848L335.267 297H318.499L311.971 264.104L311.011 297H294.435L299.427 250.536H321.187L326.755 280.808L331.619 250.536H354.275ZM379.989 284.072C392.362 283.987 402.602 283.773 410.709 283.432C410.154 285.608 409.813 287.699 409.685 289.704C409.557 291.709 409.493 294.141 409.493 297H364.373C364.714 288.723 364.885 280.979 364.885 273.768C364.885 266.557 364.714 258.813 364.373 250.536H379.989V284.072ZM427.202 295.976C426.861 293.032 426.199 290.323 425.218 287.848C424.237 285.331 422.829 282.792 420.994 280.232C425.261 280.403 428.29 280.488 430.082 280.488C438.786 280.488 445.911 279.699 451.458 278.12C453.293 277.608 454.466 277.139 454.978 276.712C455.533 276.285 455.81 275.624 455.81 274.728C455.81 273.149 454.978 271.955 453.314 271.144C451.693 270.291 449.325 269.864 446.21 269.864C442.839 269.864 438.53 270.312 433.282 271.208C428.034 272.104 423.661 273.149 420.162 274.344L417.154 260.136C423.042 258.899 428.61 257.939 433.858 257.256C439.149 256.531 443.65 256.168 447.362 256.168C452.567 256.168 457.026 256.851 460.738 258.216C464.493 259.581 467.351 261.565 469.314 264.168C471.319 266.771 472.322 269.864 472.322 273.448C472.322 279.421 470.317 284.051 466.306 287.336C462.338 290.579 457.111 292.797 450.626 293.992C444.141 295.187 436.333 295.848 427.202 295.976ZM526.21 261.928C522.37 262.099 519.106 262.931 516.418 264.424C513.73 265.917 511.703 267.795 510.338 270.056C509.015 272.275 508.354 274.579 508.354 276.968C508.354 278.248 508.631 279.251 509.186 279.976C509.783 280.701 510.978 281.256 512.77 281.64C514.562 282.024 517.25 282.216 520.834 282.216C524.802 282.216 529.261 282.045 534.21 281.704C533.101 284.221 532.397 286.568 532.098 288.744C531.842 290.877 531.693 293.459 531.65 296.488C530.455 296.531 528.727 296.552 526.466 296.552C516.823 296.552 509.421 295.912 504.258 294.632C499.138 293.309 495.682 291.539 493.89 289.32C492.141 287.059 491.266 284.2 491.266 280.744C491.266 277.032 492.034 273.661 493.57 270.632C495.106 267.56 497.261 264.851 500.034 262.504L480.77 265.448V250.6C484.055 250.6 489.645 250.493 497.538 250.28L509.89 249.96C514.285 249.875 518.338 249.768 522.05 249.64C525.762 249.469 530.861 249.213 537.346 248.872L537.538 261.928H526.21ZM576.962 263.912C574.402 264.168 570.455 264.467 565.122 264.808C563.757 270.781 561.645 276.349 558.786 281.512C555.97 286.675 552.578 291.176 548.61 295.016C547.757 292.285 546.626 289.405 545.218 286.376C543.81 283.347 542.487 280.957 541.25 279.208C543.511 277.117 545.389 274.963 546.882 272.744C548.375 270.483 549.57 267.965 550.466 265.192C548.93 265.235 546.605 265.256 543.49 265.256V252.584C547.543 252.584 550.573 252.563 552.578 252.52C552.663 251.155 552.706 250.109 552.706 249.384H566.85C566.85 250.579 566.829 251.475 566.786 252.072C569.047 251.944 572.439 251.667 576.962 251.24V260.84L580.162 250.024C589.037 251.176 597.122 252.627 604.418 254.376L600.77 267.56C592.151 264.659 584.215 262.867 576.962 262.184V263.912ZM594.434 266.088V275.624C597.805 276.904 601.09 278.525 604.29 280.488L600.066 294.696C597.933 292.605 595.693 290.643 593.346 288.808C591.17 294.525 585.794 297.384 577.218 297.384C572.013 297.384 567.81 296.253 564.61 293.992C561.41 291.688 559.81 288.36 559.81 284.008C559.81 281.405 560.535 279.165 561.986 277.288C563.437 275.411 565.399 273.981 567.874 273C570.349 272.019 573.079 271.528 576.066 271.528C577.389 271.528 578.669 271.613 579.906 271.784V266.088H594.434ZM579.906 282.024C578.711 281.811 577.666 281.704 576.77 281.704C575.703 281.704 574.935 281.811 574.466 282.024C573.997 282.237 573.762 282.6 573.762 283.112C573.762 283.581 574.082 284.029 574.722 284.456C575.362 284.84 576.215 285.032 577.282 285.032C578.306 285.032 578.989 284.84 579.33 284.456C579.714 284.072 579.906 283.496 579.906 282.728V282.024ZM630.594 252.328C639.298 250.664 647.895 249.832 656.386 249.832C658.946 249.832 661.826 249.939 665.026 250.152C665.026 253.181 665.069 255.805 665.154 258.024C665.239 260.2 665.453 262.397 665.794 264.616C660.887 264.019 656.386 263.72 652.29 263.72C645.719 263.72 638.743 264.488 631.362 266.024L630.594 252.328ZM610.242 296.552C609.474 292.883 608.898 289.427 608.514 286.184C608.173 282.899 608.002 279.208 608.002 275.112C608.002 268.413 608.535 260.264 609.602 250.664H625.922C624.642 261.331 624.002 269.651 624.002 275.624C624.002 279.549 624.237 283.048 624.706 286.12C625.218 289.149 625.986 292.179 627.01 295.208L610.242 296.552ZM648.002 296.296C641.09 296.296 636.055 294.952 632.898 292.264C629.741 289.576 628.162 285.459 628.162 279.912C628.162 278.333 628.29 276.648 628.546 274.856C633.538 274.429 638.018 273.171 641.986 271.08C641.773 272.915 641.666 274.323 641.666 275.304C641.666 276.968 641.879 278.227 642.306 279.08C642.775 279.933 643.458 280.509 644.354 280.808C645.25 281.107 646.466 281.256 648.002 281.256C651.799 281.256 655.17 281.149 658.114 280.936C661.101 280.68 664.578 280.083 668.546 279.144C668.119 280.723 667.778 283.005 667.522 285.992C667.309 288.936 667.202 291.987 667.202 295.144C663.703 295.613 660.503 295.933 657.602 296.104C654.701 296.232 651.501 296.296 648.002 296.296ZM703.426 246.312C707.479 246.312 711.213 246.995 714.626 248.36C718.082 249.725 720.813 251.624 722.818 254.056C724.823 256.488 725.826 259.283 725.826 262.44C725.826 265 725.207 267.197 723.97 269.032C722.733 270.867 721.154 272.36 719.234 273.512L715.842 275.432C714.007 276.456 712.791 277.16 712.194 277.544C711.213 278.141 710.53 278.803 710.146 279.528C709.762 280.253 709.57 281.107 709.57 282.088H694.914C694.914 278.845 695.682 276.136 697.218 273.96C698.754 271.741 701.335 269.821 704.962 268.2C706.583 267.475 707.757 266.685 708.482 265.832C709.25 264.936 709.634 263.933 709.634 262.824C709.634 261.587 709.037 260.52 707.842 259.624C706.69 258.728 705.218 258.28 703.426 258.28C700.994 258.28 699.095 258.877 697.73 260.072C696.407 261.267 695.746 262.952 695.746 265.128C695.746 265.981 695.874 266.963 696.13 268.072C692.717 267.091 687.618 266.6 680.834 266.6C680.791 266.216 680.77 265.683 680.77 265C680.77 261.416 681.709 258.216 683.586 255.4C685.506 252.541 688.173 250.323 691.586 248.744C695.042 247.123 698.989 246.312 703.426 246.312ZM709.634 298.28H694.786V286.888H709.634V298.28Z"/>
</mask>
<path d="M229.192 250.536C228.893 257.747 228.744 265.491 228.744 273.768C228.744 282.045 228.893 289.789 229.192 297H214.152V279.592H190.6V297H175.56C175.901 288.723 176.072 280.979 176.072 273.768C176.072 266.557 175.901 258.813 175.56 250.536H190.6V267.944H214.152V250.536H229.192ZM289.286 263.976C282.587 263.763 276.081 263.635 269.766 263.592V297H253.766V263.592C247.409 263.635 240.923 263.763 234.31 263.976V250.536H289.286V263.976ZM354.275 250.536L359.267 297H342.691L341.667 263.848L335.267 297H318.499L311.971 264.104L311.011 297H294.435L299.427 250.536H321.187L326.755 280.808L331.619 250.536H354.275ZM379.989 284.072C392.362 283.987 402.602 283.773 410.709 283.432C410.154 285.608 409.813 287.699 409.685 289.704C409.557 291.709 409.493 294.141 409.493 297H364.373C364.714 288.723 364.885 280.979 364.885 273.768C364.885 266.557 364.714 258.813 364.373 250.536H379.989V284.072ZM427.202 295.976C426.861 293.032 426.199 290.323 425.218 287.848C424.237 285.331 422.829 282.792 420.994 280.232C425.261 280.403 428.29 280.488 430.082 280.488C438.786 280.488 445.911 279.699 451.458 278.12C453.293 277.608 454.466 277.139 454.978 276.712C455.533 276.285 455.81 275.624 455.81 274.728C455.81 273.149 454.978 271.955 453.314 271.144C451.693 270.291 449.325 269.864 446.21 269.864C442.839 269.864 438.53 270.312 433.282 271.208C428.034 272.104 423.661 273.149 420.162 274.344L417.154 260.136C423.042 258.899 428.61 257.939 433.858 257.256C439.149 256.531 443.65 256.168 447.362 256.168C452.567 256.168 457.026 256.851 460.738 258.216C464.493 259.581 467.351 261.565 469.314 264.168C471.319 266.771 472.322 269.864 472.322 273.448C472.322 279.421 470.317 284.051 466.306 287.336C462.338 290.579 457.111 292.797 450.626 293.992C444.141 295.187 436.333 295.848 427.202 295.976ZM526.21 261.928C522.37 262.099 519.106 262.931 516.418 264.424C513.73 265.917 511.703 267.795 510.338 270.056C509.015 272.275 508.354 274.579 508.354 276.968C508.354 278.248 508.631 279.251 509.186 279.976C509.783 280.701 510.978 281.256 512.77 281.64C514.562 282.024 517.25 282.216 520.834 282.216C524.802 282.216 529.261 282.045 534.21 281.704C533.101 284.221 532.397 286.568 532.098 288.744C531.842 290.877 531.693 293.459 531.65 296.488C530.455 296.531 528.727 296.552 526.466 296.552C516.823 296.552 509.421 295.912 504.258 294.632C499.138 293.309 495.682 291.539 493.89 289.32C492.141 287.059 491.266 284.2 491.266 280.744C491.266 277.032 492.034 273.661 493.57 270.632C495.106 267.56 497.261 264.851 500.034 262.504L480.77 265.448V250.6C484.055 250.6 489.645 250.493 497.538 250.28L509.89 249.96C514.285 249.875 518.338 249.768 522.05 249.64C525.762 249.469 530.861 249.213 537.346 248.872L537.538 261.928H526.21ZM576.962 263.912C574.402 264.168 570.455 264.467 565.122 264.808C563.757 270.781 561.645 276.349 558.786 281.512C555.97 286.675 552.578 291.176 548.61 295.016C547.757 292.285 546.626 289.405 545.218 286.376C543.81 283.347 542.487 280.957 541.25 279.208C543.511 277.117 545.389 274.963 546.882 272.744C548.375 270.483 549.57 267.965 550.466 265.192C548.93 265.235 546.605 265.256 543.49 265.256V252.584C547.543 252.584 550.573 252.563 552.578 252.52C552.663 251.155 552.706 250.109 552.706 249.384H566.85C566.85 250.579 566.829 251.475 566.786 252.072C569.047 251.944 572.439 251.667 576.962 251.24V260.84L580.162 250.024C589.037 251.176 597.122 252.627 604.418 254.376L600.77 267.56C592.151 264.659 584.215 262.867 576.962 262.184V263.912ZM594.434 266.088V275.624C597.805 276.904 601.09 278.525 604.29 280.488L600.066 294.696C597.933 292.605 595.693 290.643 593.346 288.808C591.17 294.525 585.794 297.384 577.218 297.384C572.013 297.384 567.81 296.253 564.61 293.992C561.41 291.688 559.81 288.36 559.81 284.008C559.81 281.405 560.535 279.165 561.986 277.288C563.437 275.411 565.399 273.981 567.874 273C570.349 272.019 573.079 271.528 576.066 271.528C577.389 271.528 578.669 271.613 579.906 271.784V266.088H594.434ZM579.906 282.024C578.711 281.811 577.666 281.704 576.77 281.704C575.703 281.704 574.935 281.811 574.466 282.024C573.997 282.237 573.762 282.6 573.762 283.112C573.762 283.581 574.082 284.029 574.722 284.456C575.362 284.84 576.215 285.032 577.282 285.032C578.306 285.032 578.989 284.84 579.33 284.456C579.714 284.072 579.906 283.496 579.906 282.728V282.024ZM630.594 252.328C639.298 250.664 647.895 249.832 656.386 249.832C658.946 249.832 661.826 249.939 665.026 250.152C665.026 253.181 665.069 255.805 665.154 258.024C665.239 260.2 665.453 262.397 665.794 264.616C660.887 264.019 656.386 263.72 652.29 263.72C645.719 263.72 638.743 264.488 631.362 266.024L630.594 252.328ZM610.242 296.552C609.474 292.883 608.898 289.427 608.514 286.184C608.173 282.899 608.002 279.208 608.002 275.112C608.002 268.413 608.535 260.264 609.602 250.664H625.922C624.642 261.331 624.002 269.651 624.002 275.624C624.002 279.549 624.237 283.048 624.706 286.12C625.218 289.149 625.986 292.179 627.01 295.208L610.242 296.552ZM648.002 296.296C641.09 296.296 636.055 294.952 632.898 292.264C629.741 289.576 628.162 285.459 628.162 279.912C628.162 278.333 628.29 276.648 628.546 274.856C633.538 274.429 638.018 273.171 641.986 271.08C641.773 272.915 641.666 274.323 641.666 275.304C641.666 276.968 641.879 278.227 642.306 279.08C642.775 279.933 643.458 280.509 644.354 280.808C645.25 281.107 646.466 281.256 648.002 281.256C651.799 281.256 655.17 281.149 658.114 280.936C661.101 280.68 664.578 280.083 668.546 279.144C668.119 280.723 667.778 283.005 667.522 285.992C667.309 288.936 667.202 291.987 667.202 295.144C663.703 295.613 660.503 295.933 657.602 296.104C654.701 296.232 651.501 296.296 648.002 296.296ZM703.426 246.312C707.479 246.312 711.213 246.995 714.626 248.36C718.082 249.725 720.813 251.624 722.818 254.056C724.823 256.488 725.826 259.283 725.826 262.44C725.826 265 725.207 267.197 723.97 269.032C722.733 270.867 721.154 272.36 719.234 273.512L715.842 275.432C714.007 276.456 712.791 277.16 712.194 277.544C711.213 278.141 710.53 278.803 710.146 279.528C709.762 280.253 709.57 281.107 709.57 282.088H694.914C694.914 278.845 695.682 276.136 697.218 273.96C698.754 271.741 701.335 269.821 704.962 268.2C706.583 267.475 707.757 266.685 708.482 265.832C709.25 264.936 709.634 263.933 709.634 262.824C709.634 261.587 709.037 260.52 707.842 259.624C706.69 258.728 705.218 258.28 703.426 258.28C700.994 258.28 699.095 258.877 697.73 260.072C696.407 261.267 695.746 262.952 695.746 265.128C695.746 265.981 695.874 266.963 696.13 268.072C692.717 267.091 687.618 266.6 680.834 266.6C680.791 266.216 680.77 265.683 680.77 265C680.77 261.416 681.709 258.216 683.586 255.4C685.506 252.541 688.173 250.323 691.586 248.744C695.042 247.123 698.989 246.312 703.426 246.312ZM709.634 298.28H694.786V286.888H709.634V298.28Z" fill="#606C38"/>
<path d="M229.192 250.536L232.189 250.66L232.319 247.536H229.192V250.536ZM229.192 297V300H232.319L232.189 296.876L229.192 297ZM214.152 297H211.152V300H214.152V297ZM214.152 279.592H217.152V276.592H214.152V279.592ZM190.6 279.592V276.592H187.6V279.592H190.6ZM190.6 297V300H193.6V297H190.6ZM175.56 297L172.563 296.876L172.434 300H175.56V297ZM175.56 250.536V247.536H172.434L172.563 250.66L175.56 250.536ZM190.6 250.536H193.6V247.536H190.6V250.536ZM190.6 267.944H187.6V270.944H190.6V267.944ZM214.152 267.944V270.944H217.152V267.944H214.152ZM214.152 250.536V247.536H211.152V250.536H214.152ZM226.195 250.412C225.894 257.669 225.744 265.455 225.744 273.768H231.744C231.744 265.526 231.893 257.824 232.189 250.66L226.195 250.412ZM225.744 273.768C225.744 282.081 225.894 289.867 226.195 297.124L232.189 296.876C231.893 289.712 231.744 282.01 231.744 273.768H225.744ZM229.192 294H214.152V300H229.192V294ZM217.152 297V279.592H211.152V297H217.152ZM214.152 276.592H190.6V282.592H214.152V276.592ZM187.6 279.592V297H193.6V279.592H187.6ZM190.6 294H175.56V300H190.6V294ZM178.557 297.124C178.9 288.811 179.072 281.025 179.072 273.768H173.072C173.072 280.932 172.902 288.634 172.563 296.876L178.557 297.124ZM179.072 273.768C179.072 266.511 178.9 258.725 178.557 250.412L172.563 250.66C172.902 258.902 173.072 266.604 173.072 273.768H179.072ZM175.56 253.536H190.6V247.536H175.56V253.536ZM187.6 250.536V267.944H193.6V250.536H187.6ZM190.6 270.944H214.152V264.944H190.6V270.944ZM217.152 267.944V250.536H211.152V267.944H217.152ZM214.152 253.536H229.192V247.536H214.152V253.536ZM289.286 263.976L289.191 266.974L292.286 267.073V263.976H289.286ZM269.766 263.592L269.786 260.592L266.766 260.572V263.592H269.766ZM269.766 297V300H272.766V297H269.766ZM253.766 297H250.766V300H253.766V297ZM253.766 263.592H256.766V260.572L253.746 260.592L253.766 263.592ZM234.31 263.976H231.31V267.074L234.407 266.974L234.31 263.976ZM234.31 250.536V247.536H231.31V250.536H234.31ZM289.286 250.536H292.286V247.536H289.286V250.536ZM289.381 260.978C282.659 260.763 276.127 260.635 269.786 260.592L269.746 266.592C276.034 266.634 282.515 266.762 289.191 266.974L289.381 260.978ZM266.766 263.592V297H272.766V263.592H266.766ZM269.766 294H253.766V300H269.766V294ZM256.766 297V263.592H250.766V297H256.766ZM253.746 260.592C247.362 260.635 240.851 260.763 234.213 260.978L234.407 266.974C240.996 266.762 247.455 266.634 253.786 266.592L253.746 260.592ZM237.31 263.976V250.536H231.31V263.976H237.31ZM234.31 253.536H289.286V247.536H234.31V253.536ZM286.286 250.536V263.976H292.286V250.536H286.286ZM354.275 250.536L357.258 250.216L356.97 247.536H354.275V250.536ZM359.267 297V300H362.607L362.25 296.68L359.267 297ZM342.691 297L339.692 297.093L339.782 300H342.691V297ZM341.667 263.848L344.666 263.755L338.721 263.279L341.667 263.848ZM335.267 297V300H337.743L338.213 297.569L335.267 297ZM318.499 297L315.556 297.584L316.036 300H318.499V297ZM311.971 264.104L314.914 263.52L308.972 264.016L311.971 264.104ZM311.011 297V300H313.925L314.01 297.088L311.011 297ZM294.435 297L291.452 296.68L291.095 300H294.435V297ZM299.427 250.536V247.536H296.732L296.444 250.216L299.427 250.536ZM321.187 250.536L324.138 249.993L323.686 247.536H321.187V250.536ZM326.755 280.808L323.804 281.351L329.717 281.284L326.755 280.808ZM331.619 250.536V247.536H329.063L328.657 250.06L331.619 250.536ZM351.292 250.856L356.284 297.32L362.25 296.68L357.258 250.216L351.292 250.856ZM359.267 294H342.691V300H359.267V294ZM345.69 296.907L344.666 263.755L338.668 263.941L339.692 297.093L345.69 296.907ZM338.721 263.279L332.321 296.431L338.213 297.569L344.613 264.417L338.721 263.279ZM335.267 294H318.499V300H335.267V294ZM321.442 296.416L314.914 263.52L309.028 264.688L315.556 297.584L321.442 296.416ZM308.972 264.016L308.012 296.912L314.01 297.088L314.97 264.192L308.972 264.016ZM311.011 294H294.435V300H311.011V294ZM297.418 297.32L302.41 250.856L296.444 250.216L291.452 296.68L297.418 297.32ZM299.427 253.536H321.187V247.536H299.427V253.536ZM318.236 251.079L323.804 281.351L329.706 280.265L324.138 249.993L318.236 251.079ZM329.717 281.284L334.581 251.012L328.657 250.06L323.793 280.332L329.717 281.284ZM331.619 253.536H354.275V247.536H331.619V253.536ZM379.988 284.072H376.988V287.093L380.009 287.072L379.988 284.072ZM410.708 283.432L413.616 284.173L414.612 280.265L410.582 280.435L410.708 283.432ZM409.685 289.704L406.691 289.513L409.685 289.704ZM409.493 297V300H412.493V297H409.493ZM364.372 297L361.375 296.876L361.246 300H364.372V297ZM364.372 250.536V247.536H361.246L361.375 250.66L364.372 250.536ZM379.988 250.536H382.988V247.536H379.988V250.536ZM380.009 287.072C392.402 286.986 402.68 286.773 410.835 286.429L410.582 280.435C402.524 280.774 392.322 280.987 379.968 281.072L380.009 287.072ZM407.801 282.691C407.206 285.027 406.832 287.302 406.691 289.513L412.678 289.895C412.793 288.096 413.102 286.189 413.616 284.173L407.801 282.691ZM406.691 289.513C406.557 291.602 406.493 294.102 406.493 297H412.493C412.493 294.181 412.556 291.817 412.678 289.895L406.691 289.513ZM409.493 294H364.372V300H409.493V294ZM367.37 297.124C367.713 288.811 367.885 281.025 367.885 273.768H361.885C361.885 280.932 361.715 288.634 361.375 296.876L367.37 297.124ZM367.885 273.768C367.885 266.511 367.713 258.725 367.37 250.412L361.375 250.66C361.715 258.902 361.885 266.604 361.885 273.768H367.885ZM364.372 253.536H379.988V247.536H364.372V253.536ZM376.988 250.536V284.072H382.988V250.536H376.988ZM427.202 295.976L424.222 296.322L424.534 299.014L427.244 298.976L427.202 295.976ZM425.218 287.848L422.423 288.938L422.426 288.946L422.429 288.954L425.218 287.848ZM420.994 280.232L421.114 277.234L414.979 276.989L418.556 281.98L420.994 280.232ZM451.458 278.12L450.652 275.23L450.644 275.232L450.637 275.235L451.458 278.12ZM454.978 276.712L453.149 274.334L453.102 274.37L453.057 274.407L454.978 276.712ZM453.314 271.144L451.917 273.799L451.958 273.821L452 273.841L453.314 271.144ZM433.282 271.208L433.787 274.165L433.282 271.208ZM420.162 274.344L417.227 274.965L417.928 278.277L421.131 277.183L420.162 274.344ZM417.154 260.136L416.537 257.2L413.597 257.818L414.219 260.757L417.154 260.136ZM433.858 257.256L434.245 260.231L434.255 260.23L434.265 260.228L433.858 257.256ZM460.738 258.216L459.702 261.032L459.713 261.035L460.738 258.216ZM469.314 264.168L466.919 265.974L466.928 265.987L466.938 265.999L469.314 264.168ZM466.306 287.336L468.204 289.659L468.207 289.657L466.306 287.336ZM450.626 293.992L451.169 296.942L450.626 293.992ZM430.182 295.63C429.814 292.455 429.095 289.487 428.007 286.742L422.429 288.954C423.304 291.159 423.907 293.609 424.222 296.322L430.182 295.63ZM428.013 286.758C426.927 283.973 425.39 281.215 423.432 278.484L418.556 281.98C420.268 284.369 421.546 286.688 422.423 288.938L428.013 286.758ZM420.874 283.23C425.141 283.4 428.224 283.488 430.082 283.488V277.488C428.356 277.488 425.38 277.405 421.114 277.234L420.874 283.23ZM430.082 283.488C438.938 283.488 446.367 282.688 452.279 281.005L450.637 275.235C445.456 276.709 438.634 277.488 430.082 277.488V283.488ZM452.264 281.01C453.24 280.737 454.104 280.459 454.828 280.169C455.495 279.903 456.272 279.539 456.899 279.017L453.057 274.407C453.172 274.312 453.107 274.396 452.6 274.599C452.15 274.778 451.511 274.991 450.652 275.23L452.264 281.01ZM456.807 279.09C458.301 277.941 458.81 276.269 458.81 274.728H452.81C452.81 274.874 452.787 274.852 452.835 274.736C452.86 274.676 452.9 274.602 452.959 274.526C453.018 274.448 453.084 274.384 453.149 274.334L456.807 279.09ZM458.81 274.728C458.81 273.38 458.444 272.077 457.648 270.934C456.87 269.817 455.798 269.017 454.628 268.447L452 273.841C452.494 274.082 452.67 274.284 452.724 274.362C452.76 274.414 452.81 274.497 452.81 274.728H458.81ZM454.711 268.489C452.456 267.302 449.514 266.864 446.21 266.864V272.864C449.135 272.864 450.929 273.279 451.917 273.799L454.711 268.489ZM446.21 266.864C442.602 266.864 438.108 267.341 432.777 268.251L433.787 274.165C438.952 273.283 443.076 272.864 446.21 272.864V266.864ZM432.777 268.251C427.434 269.163 422.893 270.242 419.193 271.505L421.131 277.183C424.429 276.057 428.634 275.045 433.787 274.165L432.777 268.251ZM423.097 273.723L420.089 259.515L414.219 260.757L417.227 274.965L423.097 273.723ZM417.771 263.072C423.593 261.848 429.084 260.902 434.245 260.231L433.471 254.281C428.136 254.975 422.491 255.949 416.537 257.2L417.771 263.072ZM434.265 260.228C439.474 259.514 443.831 259.168 447.362 259.168V253.168C443.469 253.168 438.823 253.547 433.451 254.284L434.265 260.228ZM447.362 259.168C452.319 259.168 456.408 259.82 459.702 261.032L461.774 255.4C457.644 253.881 452.815 253.168 447.362 253.168V259.168ZM459.713 261.035C463.046 262.247 465.377 263.93 466.919 265.974L471.709 262.362C469.326 259.201 465.939 256.915 461.763 255.397L459.713 261.035ZM466.938 265.999C468.501 268.028 469.322 270.463 469.322 273.448H475.322C475.322 269.265 474.137 265.513 471.69 262.337L466.938 265.999ZM469.322 273.448C469.322 278.675 467.609 282.39 464.405 285.015L468.207 289.657C473.024 285.711 475.322 280.167 475.322 273.448H469.322ZM464.408 285.013C460.928 287.857 456.21 289.913 450.083 291.042L451.169 296.942C458.013 295.682 463.748 293.301 468.204 289.659L464.408 285.013ZM450.083 291.042C443.812 292.197 436.181 292.85 427.16 292.976L427.244 298.976C436.484 298.846 444.469 298.177 451.169 296.942L450.083 291.042ZM526.21 261.928V258.928H526.143L526.077 258.931L526.21 261.928ZM516.418 264.424L517.875 267.046L516.418 264.424ZM510.338 270.056L507.77 268.505L507.765 268.513L507.761 268.52L510.338 270.056ZM509.186 279.976L506.803 281.798L506.836 281.841L506.87 281.883L509.186 279.976ZM534.21 281.704L536.955 282.914L538.958 278.369L534.004 278.711L534.21 281.704ZM532.098 288.744L529.126 288.336L529.122 288.361L529.119 288.387L532.098 288.744ZM531.65 296.488L531.757 299.486L534.609 299.384L534.65 296.53L531.65 296.488ZM504.258 294.632L503.508 297.537L503.522 297.54L503.536 297.544L504.258 294.632ZM493.89 289.32L491.517 291.156L491.536 291.181L491.556 291.205L493.89 289.32ZM493.57 270.632L496.246 271.989L496.25 271.981L496.253 271.974L493.57 270.632ZM500.034 262.504L501.972 264.794L510.079 257.934L499.581 259.538L500.034 262.504ZM480.77 265.448H477.77V268.941L481.223 268.414L480.77 265.448ZM480.77 250.6V247.6H477.77V250.6H480.77ZM497.538 250.28L497.46 247.281L497.457 247.281L497.538 250.28ZM509.89 249.96L509.832 246.961L509.822 246.961L509.812 246.961L509.89 249.96ZM522.05 249.64L522.153 252.638L522.171 252.638L522.188 252.637L522.05 249.64ZM537.346 248.872L540.346 248.828L540.3 245.712L537.188 245.876L537.346 248.872ZM537.538 261.928V264.928H540.582L540.538 261.884L537.538 261.928ZM526.077 258.931C521.886 259.117 518.144 260.033 514.961 261.802L517.875 267.046C520.068 265.828 522.854 265.08 526.343 264.925L526.077 258.931ZM514.961 261.802C511.891 263.507 509.447 265.727 507.77 268.505L512.906 271.607C513.959 269.862 515.569 268.328 517.875 267.046L514.961 261.802ZM507.761 268.52C506.185 271.164 505.354 273.994 505.354 276.968H511.354C511.354 275.163 511.846 273.385 512.915 271.592L507.761 268.52ZM505.354 276.968C505.354 278.648 505.715 280.376 506.803 281.798L511.569 278.154C511.547 278.125 511.354 277.848 511.354 276.968H505.354ZM506.87 281.883C508.15 283.437 510.224 284.162 512.141 284.573L513.399 278.707C512.643 278.545 512.126 278.369 511.793 278.215C511.45 278.056 511.424 277.975 511.502 278.069L506.87 281.883ZM512.141 284.573C514.253 285.026 517.199 285.216 520.834 285.216V279.216C517.301 279.216 514.871 279.022 513.399 278.707L512.141 284.573ZM520.834 285.216C524.885 285.216 529.415 285.042 534.416 284.697L534.004 278.711C529.107 279.049 524.719 279.216 520.834 279.216V285.216ZM531.465 280.494C530.27 283.206 529.471 285.824 529.126 288.336L535.07 289.152C535.323 287.312 535.931 285.237 536.955 282.914L531.465 280.494ZM529.119 288.387C528.847 290.657 528.694 293.35 528.65 296.446L534.65 296.53C534.691 293.567 534.837 291.098 535.077 289.101L529.119 288.387ZM531.543 293.49C530.403 293.531 528.717 293.552 526.466 293.552V299.552C528.738 299.552 530.508 299.531 531.757 299.486L531.543 293.49ZM526.466 293.552C516.904 293.552 509.788 292.912 504.98 291.72L503.536 297.544C509.053 298.912 516.743 299.552 526.466 299.552V293.552ZM505.008 291.727C500.05 290.447 497.389 288.878 496.224 287.435L491.556 291.205C493.975 294.199 498.226 296.172 503.508 297.537L505.008 291.727ZM496.263 287.484C495 285.851 494.266 283.678 494.266 280.744H488.266C488.266 284.722 489.282 288.266 491.517 291.156L496.263 287.484ZM494.266 280.744C494.266 277.459 494.942 274.56 496.246 271.989L490.894 269.275C489.126 272.763 488.266 276.605 488.266 280.744H494.266ZM496.253 271.974C497.597 269.286 499.49 266.894 501.972 264.794L498.096 260.214C495.031 262.808 492.615 265.834 490.887 269.29L496.253 271.974ZM499.581 259.538L480.317 262.482L481.223 268.414L500.487 265.47L499.581 259.538ZM483.77 265.448V250.6H477.77V265.448H483.77ZM480.77 253.6C484.1 253.6 489.726 253.492 497.619 253.279L497.457 247.281C489.564 247.494 484.011 247.6 480.77 247.6V253.6ZM497.616 253.279L509.968 252.959L509.812 246.961L497.46 247.281L497.616 253.279ZM509.948 252.959C514.355 252.874 518.424 252.767 522.153 252.638L521.947 246.642C518.252 246.769 514.214 246.875 509.832 246.961L509.948 252.959ZM522.188 252.637C525.91 252.466 531.016 252.209 537.504 251.868L537.188 245.876C530.706 246.217 525.614 246.473 521.912 246.643L522.188 252.637ZM534.346 248.916L534.538 261.972L540.538 261.884L540.346 248.828L534.346 248.916ZM537.538 258.928H526.21V264.928H537.538V258.928ZM576.962 263.912L577.26 266.897L579.962 266.627V263.912H576.962ZM565.122 264.808L564.93 261.814L562.696 261.957L562.197 264.14L565.122 264.808ZM558.786 281.512L556.161 280.059L556.157 280.067L556.152 280.075L558.786 281.512ZM548.61 295.016L545.747 295.911L547.198 300.557L550.696 297.172L548.61 295.016ZM545.218 286.376L542.497 287.64L545.218 286.376ZM541.25 279.208L539.213 277.005L537.281 278.792L538.801 280.94L541.25 279.208ZM546.882 272.744L549.371 274.419L549.378 274.408L549.385 274.397L546.882 272.744ZM550.466 265.192L553.321 266.114L554.626 262.075L550.383 262.193L550.466 265.192ZM543.49 265.256H540.49V268.256H543.49V265.256ZM543.49 252.584V249.584H540.49V252.584H543.49ZM552.578 252.52L552.642 255.519L555.4 255.461L555.572 252.707L552.578 252.52ZM552.706 249.384V246.384H549.706V249.384H552.706ZM566.85 249.384H569.85V246.384H566.85V249.384ZM566.786 252.072L563.794 251.858L563.551 255.26L566.956 255.067L566.786 252.072ZM576.962 251.24H579.962V247.944L576.68 248.253L576.962 251.24ZM576.962 260.84H573.962L579.839 261.691L576.962 260.84ZM580.162 250.024L580.548 247.049L578.011 246.72L577.285 249.173L580.162 250.024ZM604.418 254.376L607.309 255.176L608.138 252.183L605.117 251.459L604.418 254.376ZM600.77 267.56L599.813 270.403L602.816 271.414L603.661 268.36L600.77 267.56ZM576.962 262.184L577.243 259.197L573.962 258.888V262.184H576.962ZM594.434 266.088H597.434V263.088H594.434V266.088ZM594.434 275.624H591.434V277.694L593.369 278.429L594.434 275.624ZM604.29 280.488L607.166 281.343L607.822 279.135L605.858 277.931L604.29 280.488ZM600.066 294.696L597.966 296.839L601.523 300.324L602.942 295.551L600.066 294.696ZM593.346 288.808L595.194 286.445L591.989 283.939L590.542 287.741L593.346 288.808ZM564.61 293.992L562.857 296.427L562.868 296.434L562.879 296.442L564.61 293.992ZM561.986 277.288L559.612 275.454V275.454L561.986 277.288ZM567.874 273L566.768 270.211L567.874 273ZM579.906 271.784L579.496 274.756L582.906 275.226V271.784H579.906ZM579.906 266.088V263.088H576.906V266.088H579.906ZM579.906 282.024H582.906V279.512L580.433 279.071L579.906 282.024ZM574.466 282.024L575.707 284.755L575.707 284.755L574.466 282.024ZM574.722 284.456L573.058 286.952L573.117 286.992L573.179 287.028L574.722 284.456ZM579.33 284.456L577.209 282.335L577.146 282.397L577.088 282.463L579.33 284.456ZM576.663 260.927C574.16 261.177 570.257 261.473 564.93 261.814L565.314 267.802C570.653 267.46 574.644 267.159 577.26 266.897L576.663 260.927ZM562.197 264.14C560.892 269.849 558.879 275.152 556.161 280.059L561.411 282.965C564.411 277.547 566.621 271.714 568.047 265.476L562.197 264.14ZM556.152 280.075C553.472 284.989 550.26 289.244 546.524 292.86L550.696 297.172C554.896 293.108 558.468 288.36 561.42 282.949L556.152 280.075ZM551.473 294.121C550.575 291.245 549.393 288.241 547.939 285.112L542.497 287.64C543.859 290.569 544.939 293.325 545.747 295.911L551.473 294.121ZM547.939 285.112C546.491 281.998 545.082 279.43 543.699 277.476L538.801 280.94C539.893 282.484 541.129 284.695 542.497 287.64L547.939 285.112ZM543.287 281.411C545.693 279.186 547.73 276.857 549.371 274.419L544.393 271.069C543.048 273.068 541.329 275.049 539.213 277.005L543.287 281.411ZM549.385 274.397C551.039 271.893 552.348 269.127 553.321 266.114L547.611 264.27C546.793 266.804 545.711 269.072 544.379 271.091L549.385 274.397ZM550.383 262.193C548.89 262.235 546.599 262.256 543.49 262.256V268.256C546.61 268.256 548.97 268.235 550.549 268.191L550.383 262.193ZM546.49 265.256V252.584H540.49V265.256H546.49ZM543.49 255.584C547.548 255.584 550.603 255.563 552.642 255.519L552.514 249.521C550.542 249.563 547.539 249.584 543.49 249.584V255.584ZM555.572 252.707C555.659 251.324 555.706 250.204 555.706 249.384H549.706C549.706 250.014 549.668 250.986 549.584 252.333L555.572 252.707ZM552.706 252.384H566.85V246.384H552.706V252.384ZM563.85 249.384C563.85 250.563 563.828 251.372 563.794 251.858L569.778 252.286C569.829 251.578 569.85 250.595 569.85 249.384H563.85ZM566.956 255.067C569.275 254.936 572.713 254.654 577.244 254.227L576.68 248.253C572.166 248.679 568.819 248.952 566.616 249.077L566.956 255.067ZM573.962 251.24V260.84H579.962V251.24H573.962ZM579.839 261.691L583.039 250.875L577.285 249.173L574.085 259.989L579.839 261.691ZM579.776 252.999C588.564 254.14 596.543 255.573 603.719 257.293L605.117 251.459C597.701 249.68 589.509 248.212 580.548 247.049L579.776 252.999ZM601.527 253.576L597.879 266.76L603.661 268.36L607.309 255.176L601.527 253.576ZM601.727 264.717C592.941 261.759 584.775 259.906 577.243 259.197L576.681 265.171C583.656 265.827 591.362 267.558 599.813 270.403L601.727 264.717ZM573.962 262.184V263.912H579.962V262.184H573.962ZM591.434 266.088V275.624H597.434V266.088H591.434ZM593.369 278.429C596.557 279.639 599.675 281.177 602.722 283.045L605.858 277.931C602.505 275.874 599.052 274.169 595.499 272.819L593.369 278.429ZM601.414 279.633L597.19 293.841L602.942 295.551L607.166 281.343L601.414 279.633ZM602.166 292.553C599.953 290.385 597.629 288.348 595.194 286.445L591.498 291.171C593.757 292.937 595.912 294.826 597.966 296.839L602.166 292.553ZM590.542 287.741C589.711 289.924 588.317 291.505 586.273 292.591C584.16 293.715 581.204 294.384 577.218 294.384V300.384C581.808 300.384 585.828 299.624 589.09 297.889C592.423 296.117 594.805 293.409 596.15 289.875L590.542 287.741ZM577.218 294.384C572.432 294.384 568.892 293.345 566.341 291.542L562.879 296.442C566.728 299.162 571.594 300.384 577.218 300.384V294.384ZM566.363 291.557C564.036 289.882 562.81 287.511 562.81 284.008H556.81C556.81 289.209 558.784 293.494 562.857 296.427L566.363 291.557ZM562.81 284.008C562.81 282.001 563.355 280.423 564.36 279.122L559.612 275.454C557.716 277.908 556.81 280.81 556.81 284.008H562.81ZM564.36 279.122C565.442 277.721 566.943 276.596 568.98 275.789L566.768 270.211C563.855 271.366 561.431 273.1 559.612 275.454L564.36 279.122ZM568.98 275.789C571.062 274.963 573.412 274.528 576.066 274.528V268.528C572.747 268.528 569.635 269.074 566.768 270.211L568.98 275.789ZM576.066 274.528C577.26 274.528 578.402 274.605 579.496 274.756L580.316 268.812C578.935 268.622 577.518 268.528 576.066 268.528V274.528ZM582.906 271.784V266.088H576.906V271.784H582.906ZM579.906 269.088H594.434V263.088H579.906V269.088ZM580.433 279.071C579.121 278.836 577.892 278.704 576.77 278.704V284.704C577.44 284.704 578.301 284.785 579.379 284.977L580.433 279.071ZM576.77 278.704C575.637 278.704 574.315 278.797 573.225 279.293L575.707 284.755C575.582 284.812 575.58 284.787 575.807 284.755C576.014 284.727 576.327 284.704 576.77 284.704V278.704ZM573.225 279.293C572.57 279.59 571.904 280.077 571.419 280.826C570.934 281.577 570.762 282.387 570.762 283.112H576.762C576.762 283.325 576.708 283.698 576.457 284.086C576.206 284.473 575.893 284.671 575.707 284.755L573.225 279.293ZM570.762 283.112C570.762 285.097 572.127 286.331 573.058 286.952L576.386 281.96C576.257 281.874 576.326 281.892 576.443 282.056C576.582 282.25 576.762 282.619 576.762 283.112H570.762ZM573.179 287.028C574.443 287.787 575.892 288.032 577.282 288.032V282.032C576.538 282.032 576.281 281.893 576.265 281.884L573.179 287.028ZM577.282 288.032C578.41 288.032 580.303 287.877 581.572 286.449L577.088 282.463C577.418 282.092 577.741 282.002 577.75 282C577.764 281.996 577.735 282.005 577.651 282.015C577.567 282.024 577.447 282.032 577.282 282.032V288.032ZM581.451 286.577C582.596 285.432 582.906 283.958 582.906 282.728H576.906C576.906 282.871 576.887 282.874 576.916 282.787C576.95 282.686 577.034 282.509 577.209 282.335L581.451 286.577ZM582.906 282.728V282.024H576.906V282.728H582.906ZM630.594 252.328L630.031 249.381L627.452 249.874L627.599 252.496L630.594 252.328ZM665.026 250.152H668.026V247.345L665.226 247.159L665.026 250.152ZM665.154 258.024L662.156 258.139L662.156 258.142L665.154 258.024ZM665.794 264.616L665.431 267.594L669.361 268.072L668.759 264.16L665.794 264.616ZM631.362 266.024L628.367 266.192L628.562 269.671L631.973 268.961L631.362 266.024ZM610.242 296.552L607.306 297.167L607.847 299.754L610.482 299.542L610.242 296.552ZM608.514 286.184L605.53 286.494L605.532 286.515L605.535 286.537L608.514 286.184ZM609.602 250.664V247.664H606.917L606.62 250.333L609.602 250.664ZM625.922 250.664L628.901 251.021L629.304 247.664H625.922V250.664ZM624.706 286.12L621.74 286.573L621.744 286.597L621.748 286.62L624.706 286.12ZM627.01 295.208L627.25 298.198L631.084 297.891L629.852 294.247L627.01 295.208ZM632.898 292.264L630.953 294.548L632.898 292.264ZM628.546 274.856L628.291 271.867L625.914 272.07L625.576 274.432L628.546 274.856ZM641.986 271.08L644.966 271.426L645.623 265.773L640.588 268.426L641.986 271.08ZM642.306 279.08L639.623 280.422L639.649 280.474L639.677 280.526L642.306 279.08ZM644.354 280.808L643.405 283.654L644.354 280.808ZM658.114 280.936L658.331 283.928L658.351 283.927L658.37 283.925L658.114 280.936ZM668.546 279.144L671.442 279.927L672.756 275.065L667.855 276.225L668.546 279.144ZM667.522 285.992L664.533 285.736L664.531 285.755L664.53 285.775L667.522 285.992ZM667.202 295.144L667.601 298.117L670.202 297.768V295.144H667.202ZM657.602 296.104L657.734 299.101L657.756 299.1L657.778 299.099L657.602 296.104ZM631.157 255.275C639.684 253.645 648.092 252.832 656.386 252.832V246.832C647.698 246.832 638.912 247.683 630.031 249.381L631.157 255.275ZM656.386 252.832C658.865 252.832 661.677 252.935 664.826 253.145L665.226 247.159C661.975 246.942 659.027 246.832 656.386 246.832V252.832ZM662.026 250.152C662.026 253.207 662.069 255.871 662.156 258.139L668.152 257.909C668.068 255.739 668.026 253.156 668.026 250.152H662.026ZM662.156 258.142C662.246 260.434 662.471 262.745 662.829 265.072L668.759 264.16C668.435 262.05 668.232 259.966 668.152 257.906L662.156 258.142ZM666.157 261.638C661.153 261.029 656.529 260.72 652.29 260.72V266.72C656.243 266.72 660.621 267.008 665.431 267.594L666.157 261.638ZM652.29 260.72C645.487 260.72 638.304 261.515 630.751 263.087L631.973 268.961C639.182 267.461 645.952 266.72 652.29 266.72V260.72ZM634.357 265.856L633.589 252.16L627.599 252.496L628.367 266.192L634.357 265.856ZM613.178 295.937C612.426 292.342 611.865 288.974 611.493 285.831L605.535 286.537C605.931 289.879 606.522 293.423 607.306 297.167L613.178 295.937ZM611.498 285.874C611.169 282.713 611.002 279.128 611.002 275.112H605.002C605.002 279.288 605.176 283.085 605.53 286.494L611.498 285.874ZM611.002 275.112C611.002 268.561 611.524 260.529 612.584 250.995L606.62 250.333C605.546 259.999 605.002 268.266 605.002 275.112H611.002ZM609.602 253.664H625.922V247.664H609.602V253.664ZM622.943 250.307C621.658 261.014 621.002 269.473 621.002 275.624H627.002C627.002 269.829 627.626 261.647 628.901 251.021L622.943 250.307ZM621.002 275.624C621.002 279.664 621.243 283.318 621.74 286.573L627.672 285.667C627.23 282.778 627.002 279.435 627.002 275.624H621.002ZM621.748 286.62C622.287 289.812 623.095 292.995 624.168 296.169L629.852 294.247C628.877 291.362 628.149 288.487 627.664 285.62L621.748 286.62ZM626.77 292.218L610.002 293.562L610.482 299.542L627.25 298.198L626.77 292.218ZM648.002 293.296C641.363 293.296 637.197 291.984 634.843 289.98L630.953 294.548C634.914 297.92 640.817 299.296 648.002 299.296V293.296ZM634.843 289.98C632.562 288.038 631.162 284.894 631.162 279.912H625.162C625.162 286.023 626.919 291.114 630.953 294.548L634.843 289.98ZM631.162 279.912C631.162 278.494 631.277 276.952 631.516 275.28L625.576 274.432C625.303 276.344 625.162 278.173 625.162 279.912H631.162ZM628.801 277.845C634.146 277.388 639.022 276.032 643.384 273.734L640.588 268.426C637.014 270.309 632.93 271.47 628.291 271.867L628.801 277.845ZM639.006 270.733C638.789 272.602 638.666 274.147 638.666 275.304H644.666C644.666 274.499 644.757 273.228 644.966 271.426L639.006 270.733ZM638.666 275.304C638.666 277.136 638.886 278.949 639.623 280.422L644.989 277.738C644.872 277.505 644.666 276.8 644.666 275.304H638.666ZM639.677 280.526C640.498 282.018 641.769 283.109 643.405 283.654L645.303 277.962C645.147 277.91 645.053 277.849 644.935 277.634L639.677 280.526ZM643.405 283.654C644.738 284.098 646.319 284.256 648.002 284.256V278.256C646.613 278.256 645.762 278.115 645.303 277.962L643.405 283.654ZM648.002 284.256C651.852 284.256 655.298 284.148 658.331 283.928L657.897 277.944C655.042 278.151 651.746 278.256 648.002 278.256V284.256ZM658.37 283.925C661.545 283.653 665.173 283.025 669.237 282.063L667.855 276.225C663.983 277.141 660.657 277.707 657.858 277.947L658.37 283.925ZM665.65 278.361C665.153 280.199 664.794 282.692 664.533 285.736L670.511 286.248C670.762 283.319 671.086 281.246 671.442 279.927L665.65 278.361ZM664.53 285.775C664.311 288.796 664.202 291.919 664.202 295.144H670.202C670.202 292.054 670.306 289.076 670.514 286.209L664.53 285.775ZM666.803 292.171C663.363 292.632 660.239 292.944 657.426 293.109L657.778 299.099C660.768 298.923 664.043 298.595 667.601 298.117L666.803 292.171ZM657.47 293.107C654.62 293.233 651.465 293.296 648.002 293.296V299.296C651.536 299.296 654.781 299.231 657.734 299.101L657.47 293.107ZM714.626 248.36L713.512 251.145L713.524 251.15L714.626 248.36ZM722.818 254.056L720.503 255.965V255.965L722.818 254.056ZM723.97 269.032L721.483 267.355V267.355L723.97 269.032ZM719.234 273.512L720.712 276.123L720.745 276.104L720.777 276.084L719.234 273.512ZM715.842 275.432L717.304 278.052L717.312 278.047L717.32 278.043L715.842 275.432ZM712.194 277.544L713.754 280.107L713.785 280.087L713.816 280.068L712.194 277.544ZM710.146 279.528L712.797 280.932V280.932L710.146 279.528ZM709.57 282.088V285.088H712.57V282.088H709.57ZM694.914 282.088H691.914V285.088H694.914V282.088ZM697.218 273.96L699.669 275.69L699.677 275.679L699.685 275.668L697.218 273.96ZM704.962 268.2L706.186 270.939L706.187 270.938L704.962 268.2ZM708.482 265.832L706.204 263.88L706.196 263.889L708.482 265.832ZM707.842 259.624L706 261.992L706.021 262.008L706.042 262.024L707.842 259.624ZM697.73 260.072L695.755 257.814L695.737 257.83L695.719 257.846L697.73 260.072ZM696.13 268.072L695.301 270.955L700.199 272.363L699.053 267.397L696.13 268.072ZM680.834 266.6L677.852 266.931L678.149 269.6H680.834V266.6ZM683.586 255.4L681.096 253.727L681.09 253.736L683.586 255.4ZM691.586 248.744L692.845 251.467L692.853 251.463L692.86 251.46L691.586 248.744ZM709.634 298.28V301.28H712.634V298.28H709.634ZM694.786 298.28H691.786V301.28H694.786V298.28ZM694.786 286.888V283.888H691.786V286.888H694.786ZM709.634 286.888H712.634V283.888H709.634V286.888ZM703.426 249.312C707.137 249.312 710.488 249.936 713.512 251.145L715.74 245.575C711.938 244.054 707.822 243.312 703.426 243.312V249.312ZM713.524 251.15C716.592 252.362 718.874 253.989 720.503 255.965L725.133 252.147C722.751 249.259 719.572 247.088 715.728 245.57L713.524 251.15ZM720.503 255.965C722.065 257.858 722.826 259.978 722.826 262.44H728.826C728.826 258.587 727.582 255.118 725.133 252.147L720.503 255.965ZM722.826 262.44C722.826 264.499 722.336 266.09 721.483 267.355L726.457 270.709C728.079 268.305 728.826 265.501 728.826 262.44H722.826ZM721.483 267.355C720.494 268.821 719.239 270.011 717.69 270.94L720.777 276.084C723.069 274.709 724.972 272.912 726.457 270.709L721.483 267.355ZM717.756 270.901L714.364 272.821L717.32 278.043L720.712 276.123L717.756 270.901ZM714.38 272.812C712.558 273.829 711.26 274.578 710.572 275.02L713.816 280.068C714.322 279.742 715.457 279.083 717.304 278.052L714.38 272.812ZM710.634 274.981C709.367 275.753 708.213 276.767 707.495 278.124L712.797 280.932C712.847 280.838 713.058 280.53 713.754 280.107L710.634 274.981ZM707.495 278.124C706.841 279.359 706.57 280.713 706.57 282.088H712.57C712.57 281.501 712.683 281.148 712.797 280.932L707.495 278.124ZM709.57 279.088H694.914V285.088H709.57V279.088ZM697.914 282.088C697.914 279.328 698.562 277.258 699.669 275.69L694.767 272.23C692.802 275.014 691.914 278.363 691.914 282.088H697.914ZM699.685 275.668C700.795 274.064 702.839 272.435 706.186 270.939L703.738 265.461C699.832 267.207 696.713 269.418 694.751 272.252L699.685 275.668ZM706.187 270.938C708.003 270.126 709.632 269.111 710.768 267.775L706.196 263.889C705.881 264.259 705.163 264.823 703.737 265.462L706.187 270.938ZM710.76 267.784C711.962 266.382 712.634 264.697 712.634 262.824H706.634C706.634 263.169 706.538 263.49 706.204 263.88L710.76 267.784ZM712.634 262.824C712.634 260.443 711.417 258.555 709.642 257.224L706.042 262.024C706.657 262.485 706.634 262.731 706.634 262.824H712.634ZM709.684 257.256C707.894 255.864 705.729 255.28 703.426 255.28V261.28C704.707 261.28 705.486 261.592 706 261.992L709.684 257.256ZM703.426 255.28C700.518 255.28 697.829 255.999 695.755 257.814L699.706 262.33C700.361 261.756 701.47 261.28 703.426 261.28V255.28ZM695.719 257.846C693.63 259.732 692.746 262.306 692.746 265.128H698.746C698.746 263.598 699.184 262.801 699.741 262.298L695.719 257.846ZM692.746 265.128C692.746 266.269 692.916 267.485 693.207 268.747L699.053 267.397C698.832 266.441 698.746 265.693 698.746 265.128H692.746ZM696.959 265.189C693.132 264.089 687.693 263.6 680.834 263.6V269.6C687.543 269.6 692.301 270.093 695.301 270.955L696.959 265.189ZM683.816 266.269C683.791 266.047 683.77 265.642 683.77 265H677.77C677.77 265.723 677.792 266.385 677.852 266.931L683.816 266.269ZM683.77 265C683.77 261.972 684.553 259.358 686.082 257.064L681.09 253.736C678.864 257.074 677.77 260.86 677.77 265H683.77ZM686.076 257.073C687.662 254.712 689.883 252.837 692.845 251.467L690.327 246.021C686.462 247.809 683.35 250.371 681.096 253.727L686.076 257.073ZM692.86 251.46C695.858 250.054 699.358 249.312 703.426 249.312V243.312C698.619 243.312 694.226 244.192 690.312 246.028L692.86 251.46ZM709.634 295.28H694.786V301.28H709.634V295.28ZM697.786 298.28V286.888H691.786V298.28H697.786ZM694.786 289.888H709.634V283.888H694.786V289.888ZM706.634 286.888V298.28H712.634V286.888H706.634Z" fill="white" mask="url(#path-1-outside-1_225_718)"/>
</svg>
