<svg width="866" height="539" viewBox="0 0 866 539" fill="none" xmlns="http://www.w3.org/2000/svg">
<rect width="866" height="539" fill="#F2F2F2"/>
<mask id="path-1-outside-1_225_753" maskUnits="userSpaceOnUse" x="187" y="202" width="147" height="64" fill="black">
<rect fill="white" x="187" y="202" width="147" height="64"/>
<path d="M248.216 217.504L244.824 230.496H240.152L237.912 239.2H242.456L239.064 252.192H234.52L232.152 261.28H217.688L220.056 252.192H213.016L210.648 261.28H196.184L198.552 252.192H192.92L196.312 239.2H201.88L204.12 230.496H198.68L202.072 217.504H207.512L209.432 210.08H223.896L221.976 217.504H229.08L231 210.08H245.464L243.544 217.504H248.216ZM216.344 239.2H223.448L225.688 230.496H218.584L216.344 239.2ZM274.074 221.28C271.386 221.28 269.38 220.619 268.058 219.296C266.778 217.973 266.138 216.245 266.138 214.112C266.138 212.021 266.778 210.293 268.058 208.928C269.38 207.563 271.386 206.88 274.074 206.88C276.634 206.88 278.596 207.584 279.962 208.992C281.327 210.357 282.01 212.064 282.01 214.112C282.01 216.245 281.348 217.973 280.026 219.296C278.703 220.619 276.719 221.28 274.074 221.28ZM266.65 260C266.948 253.131 267.098 247.456 267.098 242.976C267.098 237.643 266.927 231.669 266.586 225.056H281.946C281.604 231.413 281.434 237.387 281.434 242.976C281.434 247.669 281.583 253.344 281.882 260H266.65ZM329.604 210.208C329.348 218.144 329.22 226.443 329.22 235.104C329.22 243.68 329.348 251.979 329.604 260H315.14L315.332 252.32C314.094 255.179 312.302 257.291 309.956 258.656C307.609 259.979 304.836 260.64 301.635 260.64C298.862 260.64 296.366 259.851 294.148 258.272C291.929 256.693 290.201 254.56 288.964 251.872C287.726 249.141 287.108 246.155 287.108 242.912C287.108 239.712 287.726 236.704 288.964 233.888C290.201 231.029 291.929 228.747 294.148 227.04C296.409 225.291 298.969 224.416 301.828 224.416C305.156 224.416 307.993 225.12 310.34 226.528C312.729 227.893 314.5 230.027 315.652 232.928C315.652 230.496 315.566 226.592 315.396 221.216C315.225 216.011 315.14 212.341 315.14 210.208H329.604ZM308.356 249.888C310.446 249.888 312.153 249.312 313.476 248.16C314.798 246.965 315.46 245.088 315.46 242.528C315.46 240.267 314.798 238.603 313.476 237.536C312.153 236.469 310.489 235.936 308.484 235.936C306.564 235.936 304.942 236.555 303.62 237.792C302.34 238.987 301.7 240.565 301.7 242.528C301.7 244.704 302.297 246.475 303.492 247.84C304.686 249.205 306.308 249.888 308.356 249.888Z"/>
</mask>
<path d="M248.216 217.504L244.824 230.496H240.152L237.912 239.2H242.456L239.064 252.192H234.52L232.152 261.28H217.688L220.056 252.192H213.016L210.648 261.28H196.184L198.552 252.192H192.92L196.312 239.2H201.88L204.12 230.496H198.68L202.072 217.504H207.512L209.432 210.08H223.896L221.976 217.504H229.08L231 210.08H245.464L243.544 217.504H248.216ZM216.344 239.2H223.448L225.688 230.496H218.584L216.344 239.2ZM274.074 221.28C271.386 221.28 269.38 220.619 268.058 219.296C266.778 217.973 266.138 216.245 266.138 214.112C266.138 212.021 266.778 210.293 268.058 208.928C269.38 207.563 271.386 206.88 274.074 206.88C276.634 206.88 278.596 207.584 279.962 208.992C281.327 210.357 282.01 212.064 282.01 214.112C282.01 216.245 281.348 217.973 280.026 219.296C278.703 220.619 276.719 221.28 274.074 221.28ZM266.65 260C266.948 253.131 267.098 247.456 267.098 242.976C267.098 237.643 266.927 231.669 266.586 225.056H281.946C281.604 231.413 281.434 237.387 281.434 242.976C281.434 247.669 281.583 253.344 281.882 260H266.65ZM329.604 210.208C329.348 218.144 329.22 226.443 329.22 235.104C329.22 243.68 329.348 251.979 329.604 260H315.14L315.332 252.32C314.094 255.179 312.302 257.291 309.956 258.656C307.609 259.979 304.836 260.64 301.635 260.64C298.862 260.64 296.366 259.851 294.148 258.272C291.929 256.693 290.201 254.56 288.964 251.872C287.726 249.141 287.108 246.155 287.108 242.912C287.108 239.712 287.726 236.704 288.964 233.888C290.201 231.029 291.929 228.747 294.148 227.04C296.409 225.291 298.969 224.416 301.828 224.416C305.156 224.416 307.993 225.12 310.34 226.528C312.729 227.893 314.5 230.027 315.652 232.928C315.652 230.496 315.566 226.592 315.396 221.216C315.225 216.011 315.14 212.341 315.14 210.208H329.604ZM308.356 249.888C310.446 249.888 312.153 249.312 313.476 248.16C314.798 246.965 315.46 245.088 315.46 242.528C315.46 240.267 314.798 238.603 313.476 237.536C312.153 236.469 310.489 235.936 308.484 235.936C306.564 235.936 304.942 236.555 303.62 237.792C302.34 238.987 301.7 240.565 301.7 242.528C301.7 244.704 302.297 246.475 303.492 247.84C304.686 249.205 306.308 249.888 308.356 249.888Z" fill="#606C38"/>
<path d="M248.216 217.504L252.086 218.514L253.394 213.504H248.216V217.504ZM244.824 230.496V234.496H247.914L248.694 231.506L244.824 230.496ZM240.152 230.496V226.496H237.051L236.278 229.499L240.152 230.496ZM237.912 239.2L234.038 238.203L232.752 243.2H237.912V239.2ZM242.456 239.2L246.326 240.21L247.634 235.2H242.456V239.2ZM239.064 252.192V256.192H242.154L242.934 253.202L239.064 252.192ZM234.52 252.192V248.192H231.429L230.649 251.183L234.52 252.192ZM232.152 261.28V265.28H235.243L236.023 262.289L232.152 261.28ZM217.688 261.28L213.817 260.271L212.512 265.28H217.688V261.28ZM220.056 252.192L223.927 253.201L225.232 248.192H220.056V252.192ZM213.016 252.192V248.192H209.925L209.145 251.183L213.016 252.192ZM210.648 261.28V265.28H213.739L214.519 262.289L210.648 261.28ZM196.184 261.28L192.313 260.271L191.008 265.28H196.184V261.28ZM198.552 252.192L202.423 253.201L203.728 248.192H198.552V252.192ZM192.92 252.192L189.05 251.182L187.742 256.192H192.92V252.192ZM196.312 239.2V235.2H193.222L192.442 238.19L196.312 239.2ZM201.88 239.2V243.2H204.981L205.754 240.197L201.88 239.2ZM204.12 230.496L207.994 231.493L209.28 226.496H204.12V230.496ZM198.68 230.496L194.81 229.486L193.502 234.496H198.68V230.496ZM202.072 217.504V213.504H198.982L198.202 216.494L202.072 217.504ZM207.512 217.504V221.504H210.609L211.385 218.506L207.512 217.504ZM209.432 210.08V206.08H206.335L205.559 209.078L209.432 210.08ZM223.896 210.08L227.769 211.082L229.062 206.08H223.896V210.08ZM221.976 217.504L218.103 216.502L216.81 221.504H221.976V217.504ZM229.08 217.504V221.504H232.177L232.953 218.506L229.08 217.504ZM231 210.08V206.08H227.903L227.127 209.078L231 210.08ZM245.464 210.08L249.337 211.082L250.63 206.08H245.464V210.08ZM243.544 217.504L239.671 216.502L238.378 221.504H243.544V217.504ZM216.344 239.2L212.47 238.203L211.184 243.2H216.344V239.2ZM223.448 239.2V243.2H226.549L227.322 240.197L223.448 239.2ZM225.688 230.496L229.562 231.493L230.848 226.496H225.688V230.496ZM218.584 230.496V226.496H215.483L214.71 229.499L218.584 230.496ZM244.346 216.494L240.954 229.486L248.694 231.506L252.086 218.514L244.346 216.494ZM244.824 226.496H240.152V234.496H244.824V226.496ZM236.278 229.499L234.038 238.203L241.786 240.197L244.026 231.493L236.278 229.499ZM237.912 243.2H242.456V235.2H237.912V243.2ZM238.586 238.19L235.194 251.182L242.934 253.202L246.326 240.21L238.586 238.19ZM239.064 248.192H234.52V256.192H239.064V248.192ZM230.649 251.183L228.281 260.271L236.023 262.289L238.391 253.201L230.649 251.183ZM232.152 257.28H217.688V265.28H232.152V257.28ZM221.559 262.289L223.927 253.201L216.185 251.183L213.817 260.271L221.559 262.289ZM220.056 248.192H213.016V256.192H220.056V248.192ZM209.145 251.183L206.777 260.271L214.519 262.289L216.887 253.201L209.145 251.183ZM210.648 257.28H196.184V265.28H210.648V257.28ZM200.055 262.289L202.423 253.201L194.681 251.183L192.313 260.271L200.055 262.289ZM198.552 248.192H192.92V256.192H198.552V248.192ZM196.79 253.202L200.182 240.21L192.442 238.19L189.05 251.182L196.79 253.202ZM196.312 243.2H201.88V235.2H196.312V243.2ZM205.754 240.197L207.994 231.493L200.246 229.499L198.006 238.203L205.754 240.197ZM204.12 226.496H198.68V234.496H204.12V226.496ZM202.55 231.506L205.942 218.514L198.202 216.494L194.81 229.486L202.55 231.506ZM202.072 221.504H207.512V213.504H202.072V221.504ZM211.385 218.506L213.305 211.082L205.559 209.078L203.639 216.502L211.385 218.506ZM209.432 214.08H223.896V206.08H209.432V214.08ZM220.023 209.078L218.103 216.502L225.849 218.506L227.769 211.082L220.023 209.078ZM221.976 221.504H229.08V213.504H221.976V221.504ZM232.953 218.506L234.873 211.082L227.127 209.078L225.207 216.502L232.953 218.506ZM231 214.08H245.464V206.08H231V214.08ZM241.591 209.078L239.671 216.502L247.417 218.506L249.337 211.082L241.591 209.078ZM243.544 221.504H248.216V213.504H243.544V221.504ZM216.344 243.2H223.448V235.2H216.344V243.2ZM227.322 240.197L229.562 231.493L221.814 229.499L219.574 238.203L227.322 240.197ZM225.688 226.496H218.584V234.496H225.688V226.496ZM214.71 229.499L212.47 238.203L220.218 240.197L222.458 231.493L214.71 229.499ZM268.058 219.296L265.183 222.078L265.206 222.101L265.229 222.124L268.058 219.296ZM268.058 208.928L265.185 206.145L265.162 206.168L265.139 206.192L268.058 208.928ZM279.962 208.992L277.09 211.777L277.111 211.799L277.133 211.82L279.962 208.992ZM280.025 219.296L282.854 222.124L280.025 219.296ZM266.649 260L262.653 259.826L262.472 264H266.649V260ZM266.586 225.056V221.056H262.374L262.591 225.262L266.586 225.056ZM281.946 225.056L285.94 225.27L286.166 221.056H281.946V225.056ZM281.882 260V264H286.065L285.877 259.821L281.882 260ZM274.074 217.28C271.98 217.28 271.183 216.765 270.886 216.468L265.229 222.124C267.577 224.473 270.791 225.28 274.074 225.28V217.28ZM270.932 216.514C270.489 216.056 270.137 215.385 270.137 214.112H262.137C262.137 217.106 263.066 219.89 265.183 222.078L270.932 216.514ZM270.137 214.112C270.137 212.909 270.474 212.199 270.976 211.664L265.139 206.192C263.081 208.388 262.137 211.134 262.137 214.112H270.137ZM270.93 211.711C271.233 211.399 272.013 210.88 274.074 210.88V202.88C270.758 202.88 267.528 203.726 265.185 206.145L270.93 211.711ZM274.074 210.88C275.897 210.88 276.689 211.363 277.09 211.777L282.833 206.207C280.504 203.805 277.37 202.88 274.074 202.88V210.88ZM277.133 211.82C277.699 212.387 278.009 213.053 278.009 214.112H286.009C286.009 211.075 284.954 208.328 282.79 206.164L277.133 211.82ZM278.009 214.112C278.009 215.347 277.662 216.002 277.197 216.468L282.854 222.124C285.034 219.944 286.009 217.144 286.009 214.112H278.009ZM277.197 216.468C276.889 216.776 276.102 217.28 274.074 217.28V225.28C277.335 225.28 280.517 224.462 282.854 222.124L277.197 216.468ZM270.646 260.174C270.946 253.274 271.098 247.536 271.098 242.976H263.098C263.098 247.376 262.951 252.988 262.653 259.826L270.646 260.174ZM271.098 242.976C271.098 237.56 270.924 231.516 270.58 224.85L262.591 225.262C262.929 231.822 263.098 237.725 263.098 242.976H271.098ZM266.586 229.056H281.946V221.056H266.586V229.056ZM277.951 224.842C277.607 231.261 277.434 237.306 277.434 242.976H285.434C285.434 237.467 285.602 231.566 285.94 225.27L277.951 224.842ZM277.434 242.976C277.434 247.748 277.585 253.486 277.886 260.179L285.877 259.821C285.58 253.202 285.434 247.591 285.434 242.976H277.434ZM281.882 256H266.649V264H281.882V256ZM329.604 210.208L333.601 210.337L333.735 206.208H329.604V210.208ZM329.604 260V264H333.733L333.601 259.872L329.604 260ZM315.14 260L311.141 259.9L311.038 264H315.14V260ZM315.331 252.32L319.33 252.42L311.661 250.731L315.331 252.32ZM309.956 258.656L311.92 262.141L311.943 262.127L311.967 262.113L309.956 258.656ZM294.147 258.272L291.828 261.531H291.828L294.147 258.272ZM288.964 251.872L285.32 253.523L285.325 253.534L285.33 253.545L288.964 251.872ZM288.964 233.888L292.626 235.497L292.63 235.487L292.634 235.477L288.964 233.888ZM294.147 227.04L296.586 230.211L296.595 230.204L294.147 227.04ZM310.34 226.528L308.282 229.958L308.318 229.98L308.355 230.001L310.34 226.528ZM315.652 232.928L311.934 234.404L319.652 232.928H315.652ZM315.396 221.216L319.393 221.089L319.393 221.085L315.396 221.216ZM315.14 210.208V206.208H311.14V210.208H315.14ZM313.476 248.16L316.103 251.176L316.13 251.153L316.157 251.128L313.476 248.16ZM313.476 237.536L315.987 234.422L313.476 237.536ZM303.619 237.792L306.349 240.716L306.352 240.713L303.619 237.792ZM325.606 210.079C325.348 218.062 325.219 226.403 325.219 235.104H333.219C333.219 226.482 333.347 218.226 333.601 210.337L325.606 210.079ZM325.219 235.104C325.219 243.72 325.348 252.061 325.606 260.128L333.601 259.872C333.347 251.896 333.219 243.64 333.219 235.104H325.219ZM329.604 256H315.14V264H329.604V256ZM319.138 260.1L319.33 252.42L311.333 252.22L311.141 259.9L319.138 260.1ZM311.661 250.731C310.711 252.926 309.446 254.324 307.944 255.199L311.967 262.113C315.158 260.257 317.478 257.431 319.002 253.909L311.661 250.731ZM307.991 255.171C306.348 256.098 304.277 256.64 301.635 256.64V264.64C305.394 264.64 308.87 263.86 311.92 262.141L307.991 255.171ZM301.635 256.64C299.677 256.64 297.995 256.1 296.467 255.013L291.828 261.531C294.738 263.601 298.047 264.64 301.635 264.64V256.64ZM296.467 255.013C294.866 253.874 293.568 252.31 292.597 250.199L285.33 253.545C286.833 256.81 288.992 259.513 291.828 261.531L296.467 255.013ZM292.607 250.221C291.623 248.05 291.107 245.632 291.107 242.912H283.107C283.107 246.677 283.829 250.232 285.32 253.523L292.607 250.221ZM291.107 242.912C291.107 240.243 291.62 237.785 292.626 235.497L285.301 232.279C283.832 235.623 283.107 239.181 283.107 242.912H291.107ZM292.634 235.477C293.633 233.17 294.965 231.458 296.586 230.21L291.709 223.87C288.893 226.035 286.769 228.889 285.293 232.299L292.634 235.477ZM296.595 230.204C298.156 228.996 299.855 228.416 301.827 228.416V220.416C298.083 220.416 294.662 221.585 291.7 223.876L296.595 230.204ZM301.827 228.416C304.587 228.416 306.678 228.996 308.282 229.958L312.397 223.098C309.307 221.244 305.724 220.416 301.827 220.416V228.416ZM308.355 230.001C309.852 230.857 311.069 232.226 311.934 234.404L319.369 231.452C317.93 227.827 315.605 224.93 312.324 223.055L308.355 230.001ZM319.652 232.928C319.652 230.428 319.564 226.469 319.393 221.089L311.398 221.343C311.568 226.715 311.652 230.564 311.652 232.928H319.652ZM319.393 221.085C319.223 215.879 319.139 212.269 319.139 210.208H311.14C311.14 212.414 311.227 216.142 311.398 221.347L319.393 221.085ZM315.14 214.208H329.604V206.208H315.14V214.208ZM308.355 253.888C311.217 253.888 313.917 253.08 316.103 251.176L310.848 245.144C310.389 245.544 309.675 245.888 308.355 245.888V253.888ZM316.157 251.128C318.632 248.893 319.46 245.715 319.46 242.528H311.46C311.46 244.461 310.965 245.038 310.794 245.192L316.157 251.128ZM319.46 242.528C319.46 239.486 318.54 236.482 315.987 234.422L310.964 240.65C311.056 240.723 311.46 241.048 311.46 242.528H319.46ZM315.987 234.422C313.83 232.683 311.231 231.936 308.484 231.936V239.936C309.747 239.936 310.476 240.256 310.964 240.65L315.987 234.422ZM308.484 231.936C305.616 231.936 302.998 232.896 300.887 234.871L306.352 240.713C306.886 240.213 307.511 239.936 308.484 239.936V231.936ZM300.89 234.868C298.697 236.914 297.7 239.605 297.7 242.528H305.7C305.7 241.526 305.982 241.059 306.349 240.716L300.89 234.868ZM297.7 242.528C297.7 245.47 298.527 248.24 300.481 250.474L306.502 245.206C306.067 244.709 305.7 243.938 305.7 242.528H297.7ZM300.481 250.474C302.538 252.825 305.32 253.888 308.355 253.888V245.888C307.295 245.888 306.834 245.586 306.502 245.206L300.481 250.474Z" fill="white" mask="url(#path-1-outside-1_225_753)"/>
<mask id="path-3-outside-2_225_753" maskUnits="userSpaceOnUse" x="461" y="206" width="241" height="59" fill="black">
<rect fill="white" x="461" y="206" width="241" height="59"/>
<path d="M472.704 260.64C470.827 260.64 469.227 259.979 467.904 258.656C466.581 257.291 465.92 255.669 465.92 253.792C465.92 251.915 466.581 250.315 467.904 248.992C469.227 247.669 470.827 247.008 472.704 247.008C474.539 247.008 476.117 247.691 477.44 249.056C478.805 250.379 479.488 251.957 479.488 253.792C479.488 255.669 478.805 257.291 477.44 258.656C476.117 259.979 474.539 260.64 472.704 260.64ZM509.802 242.528C509.887 244.704 510.57 246.453 511.85 247.776C513.173 249.099 515.114 249.76 517.674 249.76C519.082 249.76 520.341 249.504 521.45 248.992C522.559 248.437 523.583 247.627 524.522 246.56C528.149 247.968 532.394 249.184 537.258 250.208C535.85 253.493 533.461 256.053 530.09 257.888C526.762 259.723 522.431 260.64 517.098 260.64C509.973 260.64 504.703 258.976 501.29 255.648C497.877 252.32 496.17 247.947 496.17 242.528C496.17 237.109 497.877 232.736 501.29 229.408C504.703 226.08 509.973 224.416 517.098 224.416C522.431 224.416 526.762 225.333 530.09 227.168C533.461 229.003 535.85 231.563 537.258 234.848C533.461 235.659 529.215 236.875 524.522 238.496C523.583 237.429 522.559 236.64 521.45 236.128C520.341 235.573 519.082 235.296 517.674 235.296C515.114 235.296 513.173 235.957 511.85 237.28C510.57 238.603 509.887 240.352 509.802 242.528ZM557.1 234.4C557.057 236.96 557.036 240.885 557.036 246.176C557.036 252.533 557.079 257.141 557.164 260H542.06L542.124 252.768C542.209 244.832 542.252 238.709 542.252 234.4C542.252 230.304 542.209 224.501 542.124 216.992L542.06 210.08H557.164C557.079 216.139 557.036 221.088 557.036 224.928C557.036 229.195 557.057 232.352 557.1 234.4ZM603.334 249.376C603.334 250.827 603.505 251.851 603.846 252.448C604.187 253.045 604.87 253.472 605.894 253.728L605.638 259.744C604.273 259.957 603.078 260.107 602.054 260.192C601.073 260.277 599.75 260.32 598.086 260.32C594.417 260.32 591.985 259.509 590.79 257.888C589.595 256.224 588.998 254.112 588.998 251.552V249.952C587.761 253.451 585.947 256.053 583.558 257.76C581.211 259.467 578.203 260.32 574.534 260.32C570.267 260.32 567.046 259.467 564.87 257.76C562.737 256.053 561.67 253.515 561.67 250.144C561.67 247.371 562.587 245.195 564.422 243.616C566.257 242.037 569.094 240.949 572.934 240.352C569.691 238.048 566.449 236.043 563.206 234.336C565.766 231.093 568.689 228.64 571.974 226.976C575.259 225.269 579.249 224.416 583.942 224.416C590.513 224.416 595.377 225.845 598.534 228.704C601.734 231.52 603.334 235.872 603.334 241.76V249.376ZM585.286 235.68C583.11 235.68 581.19 236.043 579.526 236.768C577.862 237.493 576.369 238.581 575.046 240.032C577.606 239.733 580.806 239.584 584.646 239.584C586.225 239.584 587.334 239.392 587.974 239.008C588.614 238.624 588.934 238.133 588.934 237.536C588.934 237.024 588.614 236.597 587.974 236.256C587.334 235.872 586.438 235.68 585.286 235.68ZM578.566 249.888C580.955 249.888 583.11 249.44 585.03 248.544C586.95 247.605 588.273 246.389 588.998 244.896V243.232C587.974 243.744 586.843 244.149 585.606 244.448C584.369 244.704 582.875 244.96 581.126 245.216L578.822 245.6C576.433 246.069 575.238 246.88 575.238 248.032C575.238 249.269 576.347 249.888 578.566 249.888ZM630.42 260.64C626.836 260.64 623.188 260.149 619.476 259.168C615.806 258.144 612.35 256.608 609.108 254.56L615.828 245.408C617.79 246.816 620.158 247.925 622.932 248.736C625.705 249.504 628.094 249.888 630.1 249.888C632.02 249.888 633.492 249.632 634.516 249.12C635.582 248.565 636.116 247.861 636.116 247.008C636.116 246.325 635.86 245.792 635.348 245.408C634.836 245.024 634.132 244.832 633.236 244.832C632.681 244.832 632.041 244.853 631.316 244.896C630.633 244.939 630.078 244.981 629.652 245.024C627.433 245.28 625.15 245.408 622.804 245.408C619.006 245.408 615.913 244.704 613.524 243.296C611.177 241.845 610.004 239.499 610.004 236.256C610.004 232.501 611.774 229.6 615.316 227.552C618.857 225.461 624.062 224.416 630.932 224.416C634.302 224.416 637.694 224.907 641.108 225.888C644.564 226.827 647.614 228.256 650.26 230.176L642.9 237.6C640.468 236.32 638.185 235.424 636.052 234.912C633.961 234.357 631.849 234.08 629.716 234.08C628.222 234.08 626.942 234.379 625.876 234.976C624.809 235.573 624.276 236.256 624.276 237.024C624.276 237.621 624.489 238.091 624.916 238.432C625.385 238.773 625.982 238.944 626.708 238.944C627.433 238.944 628.436 238.88 629.716 238.752C632.83 238.539 635.156 238.432 636.692 238.432C641.129 238.432 644.564 239.179 646.996 240.672C649.428 242.165 650.644 244.448 650.644 247.52C650.644 252.128 648.852 255.477 645.268 257.568C641.684 259.616 636.734 260.64 630.42 260.64ZM675.795 260.64C672.211 260.64 668.563 260.149 664.851 259.168C661.181 258.144 657.725 256.608 654.483 254.56L661.203 245.408C663.165 246.816 665.533 247.925 668.307 248.736C671.08 249.504 673.469 249.888 675.475 249.888C677.395 249.888 678.867 249.632 679.891 249.12C680.957 248.565 681.491 247.861 681.491 247.008C681.491 246.325 681.235 245.792 680.723 245.408C680.211 245.024 679.507 244.832 678.611 244.832C678.056 244.832 677.416 244.853 676.691 244.896C676.008 244.939 675.453 244.981 675.027 245.024C672.808 245.28 670.525 245.408 668.179 245.408C664.381 245.408 661.288 244.704 658.899 243.296C656.552 241.845 655.379 239.499 655.379 236.256C655.379 232.501 657.149 229.6 660.691 227.552C664.232 225.461 669.437 224.416 676.307 224.416C679.677 224.416 683.069 224.907 686.483 225.888C689.939 226.827 692.989 228.256 695.635 230.176L688.275 237.6C685.843 236.32 683.56 235.424 681.427 234.912C679.336 234.357 677.224 234.08 675.091 234.08C673.597 234.08 672.317 234.379 671.251 234.976C670.184 235.573 669.651 236.256 669.651 237.024C669.651 237.621 669.864 238.091 670.291 238.432C670.76 238.773 671.357 238.944 672.083 238.944C672.808 238.944 673.811 238.88 675.091 238.752C678.205 238.539 680.531 238.432 682.067 238.432C686.504 238.432 689.939 239.179 692.371 240.672C694.803 242.165 696.019 244.448 696.019 247.52C696.019 252.128 694.227 255.477 690.643 257.568C687.059 259.616 682.109 260.64 675.795 260.64Z"/>
</mask>
<path d="M472.704 260.64C470.827 260.64 469.227 259.979 467.904 258.656C466.581 257.291 465.92 255.669 465.92 253.792C465.92 251.915 466.581 250.315 467.904 248.992C469.227 247.669 470.827 247.008 472.704 247.008C474.539 247.008 476.117 247.691 477.44 249.056C478.805 250.379 479.488 251.957 479.488 253.792C479.488 255.669 478.805 257.291 477.44 258.656C476.117 259.979 474.539 260.64 472.704 260.64ZM509.802 242.528C509.887 244.704 510.57 246.453 511.85 247.776C513.173 249.099 515.114 249.76 517.674 249.76C519.082 249.76 520.341 249.504 521.45 248.992C522.559 248.437 523.583 247.627 524.522 246.56C528.149 247.968 532.394 249.184 537.258 250.208C535.85 253.493 533.461 256.053 530.09 257.888C526.762 259.723 522.431 260.64 517.098 260.64C509.973 260.64 504.703 258.976 501.29 255.648C497.877 252.32 496.17 247.947 496.17 242.528C496.17 237.109 497.877 232.736 501.29 229.408C504.703 226.08 509.973 224.416 517.098 224.416C522.431 224.416 526.762 225.333 530.09 227.168C533.461 229.003 535.85 231.563 537.258 234.848C533.461 235.659 529.215 236.875 524.522 238.496C523.583 237.429 522.559 236.64 521.45 236.128C520.341 235.573 519.082 235.296 517.674 235.296C515.114 235.296 513.173 235.957 511.85 237.28C510.57 238.603 509.887 240.352 509.802 242.528ZM557.1 234.4C557.057 236.96 557.036 240.885 557.036 246.176C557.036 252.533 557.079 257.141 557.164 260H542.06L542.124 252.768C542.209 244.832 542.252 238.709 542.252 234.4C542.252 230.304 542.209 224.501 542.124 216.992L542.06 210.08H557.164C557.079 216.139 557.036 221.088 557.036 224.928C557.036 229.195 557.057 232.352 557.1 234.4ZM603.334 249.376C603.334 250.827 603.505 251.851 603.846 252.448C604.187 253.045 604.87 253.472 605.894 253.728L605.638 259.744C604.273 259.957 603.078 260.107 602.054 260.192C601.073 260.277 599.75 260.32 598.086 260.32C594.417 260.32 591.985 259.509 590.79 257.888C589.595 256.224 588.998 254.112 588.998 251.552V249.952C587.761 253.451 585.947 256.053 583.558 257.76C581.211 259.467 578.203 260.32 574.534 260.32C570.267 260.32 567.046 259.467 564.87 257.76C562.737 256.053 561.67 253.515 561.67 250.144C561.67 247.371 562.587 245.195 564.422 243.616C566.257 242.037 569.094 240.949 572.934 240.352C569.691 238.048 566.449 236.043 563.206 234.336C565.766 231.093 568.689 228.64 571.974 226.976C575.259 225.269 579.249 224.416 583.942 224.416C590.513 224.416 595.377 225.845 598.534 228.704C601.734 231.52 603.334 235.872 603.334 241.76V249.376ZM585.286 235.68C583.11 235.68 581.19 236.043 579.526 236.768C577.862 237.493 576.369 238.581 575.046 240.032C577.606 239.733 580.806 239.584 584.646 239.584C586.225 239.584 587.334 239.392 587.974 239.008C588.614 238.624 588.934 238.133 588.934 237.536C588.934 237.024 588.614 236.597 587.974 236.256C587.334 235.872 586.438 235.68 585.286 235.68ZM578.566 249.888C580.955 249.888 583.11 249.44 585.03 248.544C586.95 247.605 588.273 246.389 588.998 244.896V243.232C587.974 243.744 586.843 244.149 585.606 244.448C584.369 244.704 582.875 244.96 581.126 245.216L578.822 245.6C576.433 246.069 575.238 246.88 575.238 248.032C575.238 249.269 576.347 249.888 578.566 249.888ZM630.42 260.64C626.836 260.64 623.188 260.149 619.476 259.168C615.806 258.144 612.35 256.608 609.108 254.56L615.828 245.408C617.79 246.816 620.158 247.925 622.932 248.736C625.705 249.504 628.094 249.888 630.1 249.888C632.02 249.888 633.492 249.632 634.516 249.12C635.582 248.565 636.116 247.861 636.116 247.008C636.116 246.325 635.86 245.792 635.348 245.408C634.836 245.024 634.132 244.832 633.236 244.832C632.681 244.832 632.041 244.853 631.316 244.896C630.633 244.939 630.078 244.981 629.652 245.024C627.433 245.28 625.15 245.408 622.804 245.408C619.006 245.408 615.913 244.704 613.524 243.296C611.177 241.845 610.004 239.499 610.004 236.256C610.004 232.501 611.774 229.6 615.316 227.552C618.857 225.461 624.062 224.416 630.932 224.416C634.302 224.416 637.694 224.907 641.108 225.888C644.564 226.827 647.614 228.256 650.26 230.176L642.9 237.6C640.468 236.32 638.185 235.424 636.052 234.912C633.961 234.357 631.849 234.08 629.716 234.08C628.222 234.08 626.942 234.379 625.876 234.976C624.809 235.573 624.276 236.256 624.276 237.024C624.276 237.621 624.489 238.091 624.916 238.432C625.385 238.773 625.982 238.944 626.708 238.944C627.433 238.944 628.436 238.88 629.716 238.752C632.83 238.539 635.156 238.432 636.692 238.432C641.129 238.432 644.564 239.179 646.996 240.672C649.428 242.165 650.644 244.448 650.644 247.52C650.644 252.128 648.852 255.477 645.268 257.568C641.684 259.616 636.734 260.64 630.42 260.64ZM675.795 260.64C672.211 260.64 668.563 260.149 664.851 259.168C661.181 258.144 657.725 256.608 654.483 254.56L661.203 245.408C663.165 246.816 665.533 247.925 668.307 248.736C671.08 249.504 673.469 249.888 675.475 249.888C677.395 249.888 678.867 249.632 679.891 249.12C680.957 248.565 681.491 247.861 681.491 247.008C681.491 246.325 681.235 245.792 680.723 245.408C680.211 245.024 679.507 244.832 678.611 244.832C678.056 244.832 677.416 244.853 676.691 244.896C676.008 244.939 675.453 244.981 675.027 245.024C672.808 245.28 670.525 245.408 668.179 245.408C664.381 245.408 661.288 244.704 658.899 243.296C656.552 241.845 655.379 239.499 655.379 236.256C655.379 232.501 657.149 229.6 660.691 227.552C664.232 225.461 669.437 224.416 676.307 224.416C679.677 224.416 683.069 224.907 686.483 225.888C689.939 226.827 692.989 228.256 695.635 230.176L688.275 237.6C685.843 236.32 683.56 235.424 681.427 234.912C679.336 234.357 677.224 234.08 675.091 234.08C673.597 234.08 672.317 234.379 671.251 234.976C670.184 235.573 669.651 236.256 669.651 237.024C669.651 237.621 669.864 238.091 670.291 238.432C670.76 238.773 671.357 238.944 672.083 238.944C672.808 238.944 673.811 238.88 675.091 238.752C678.205 238.539 680.531 238.432 682.067 238.432C686.504 238.432 689.939 239.179 692.371 240.672C694.803 242.165 696.019 244.448 696.019 247.52C696.019 252.128 694.227 255.477 690.643 257.568C687.059 259.616 682.109 260.64 675.795 260.64Z" fill="#F69D4C"/>
<path d="M467.904 258.656L465.031 261.439L465.053 261.462L465.076 261.484L467.904 258.656ZM467.904 248.992L465.076 246.164L467.904 248.992ZM477.44 249.056L474.567 251.839L474.611 251.885L474.657 251.929L477.44 249.056ZM477.44 258.656L474.612 255.828L477.44 258.656ZM472.704 256.64C471.883 256.64 471.302 256.397 470.732 255.828L465.076 261.484C467.151 263.56 469.77 264.64 472.704 264.64V256.64ZM470.777 255.873C470.167 255.243 469.92 254.616 469.92 253.792H461.92C461.92 256.723 462.996 259.338 465.031 261.439L470.777 255.873ZM469.92 253.792C469.92 252.971 470.163 252.39 470.732 251.82L465.076 246.164C463 248.239 461.92 250.858 461.92 253.792H469.92ZM470.732 251.82C471.302 251.251 471.883 251.008 472.704 251.008V243.008C469.77 243.008 467.151 244.088 465.076 246.164L470.732 251.82ZM472.704 251.008C473.413 251.008 473.967 251.22 474.567 251.839L480.313 246.273C478.267 244.161 475.665 243.008 472.704 243.008V251.008ZM474.657 251.929C475.276 252.529 475.488 253.083 475.488 253.792H483.488C483.488 250.831 482.335 248.229 480.223 246.183L474.657 251.929ZM475.488 253.792C475.488 254.575 475.251 255.188 474.612 255.828L480.268 261.484C482.36 259.393 483.488 256.764 483.488 253.792H475.488ZM474.612 255.828C474.023 256.417 473.455 256.64 472.704 256.64V264.64C475.623 264.64 478.212 263.541 480.268 261.484L474.612 255.828ZM509.802 242.528L505.805 242.371L505.799 242.528L505.805 242.685L509.802 242.528ZM511.85 247.776L508.976 250.558L508.998 250.581L509.022 250.604L511.85 247.776ZM521.45 248.992L523.126 252.624L523.183 252.598L523.239 252.57L521.45 248.992ZM524.522 246.56L525.97 242.831L523.365 241.82L521.519 243.917L524.522 246.56ZM537.258 250.208L540.935 251.784L542.857 247.299L538.082 246.294L537.258 250.208ZM530.09 257.888L528.178 254.375L528.168 254.38L528.159 254.385L530.09 257.888ZM501.29 255.648L498.498 258.512L501.29 255.648ZM501.29 229.408L504.082 232.272L501.29 229.408ZM530.09 227.168L528.159 230.671L528.168 230.676L528.178 230.681L530.09 227.168ZM537.258 234.848L538.093 238.76L542.851 237.744L540.935 233.272L537.258 234.848ZM524.522 238.496L521.519 241.139L523.292 243.153L525.828 242.277L524.522 238.496ZM521.45 236.128L519.661 239.706L519.717 239.734L519.774 239.76L521.45 236.128ZM511.85 237.28L509.022 234.452L508.998 234.475L508.976 234.498L511.85 237.28ZM505.805 242.685C505.922 245.654 506.889 248.402 508.976 250.558L514.724 244.994C514.251 244.505 513.853 243.754 513.799 242.371L505.805 242.685ZM509.022 250.604C511.337 252.919 514.453 253.76 517.674 253.76V245.76C515.775 245.76 515.009 245.278 514.678 244.948L509.022 250.604ZM517.674 253.76C519.573 253.76 521.417 253.413 523.126 252.624L519.774 245.36C519.264 245.595 518.591 245.76 517.674 245.76V253.76ZM523.239 252.57C524.872 251.753 526.295 250.6 527.525 249.203L521.519 243.917C520.872 244.653 520.247 245.121 519.661 245.414L523.239 252.57ZM523.074 250.289C526.95 251.794 531.413 253.065 536.434 254.122L538.082 246.294C533.375 245.303 529.347 244.142 525.97 242.831L523.074 250.289ZM533.581 248.632C532.554 251.029 530.822 252.936 528.178 254.375L532.002 261.401C536.1 259.171 539.146 255.957 540.935 251.784L533.581 248.632ZM528.159 254.385C525.613 255.789 522.014 256.64 517.098 256.64V264.64C522.849 264.64 527.911 263.657 532.021 261.391L528.159 254.385ZM517.098 256.64C510.507 256.64 506.45 255.092 504.082 252.784L498.498 258.512C502.957 262.86 509.438 264.64 517.098 264.64V256.64ZM504.082 252.784C501.549 250.314 500.17 247.029 500.17 242.528H492.17C492.17 248.864 494.204 254.326 498.498 258.512L504.082 252.784ZM500.17 242.528C500.17 238.027 501.549 234.742 504.082 232.272L498.498 226.544C494.204 230.73 492.17 236.192 492.17 242.528H500.17ZM504.082 232.272C506.45 229.964 510.507 228.416 517.098 228.416V220.416C509.438 220.416 502.957 222.196 498.498 226.544L504.082 232.272ZM517.098 228.416C522.014 228.416 525.613 229.267 528.159 230.671L532.021 223.665C527.911 221.399 522.849 220.416 517.098 220.416V228.416ZM528.178 230.681C530.822 232.12 532.554 234.027 533.581 236.424L540.935 233.272C539.146 229.099 536.1 225.885 532.002 223.655L528.178 230.681ZM536.423 230.936C532.429 231.789 528.023 233.055 523.216 234.715L525.828 242.277C530.407 240.695 534.492 239.529 538.093 238.76L536.423 230.936ZM527.525 235.853C526.277 234.436 524.818 233.277 523.126 232.496L519.774 239.76C520.301 240.003 520.889 240.423 521.519 241.139L527.525 235.853ZM523.239 232.55C521.503 231.682 519.618 231.296 517.674 231.296V239.296C518.546 239.296 519.178 239.464 519.661 239.706L523.239 232.55ZM517.674 231.296C514.453 231.296 511.337 232.137 509.022 234.452L514.678 240.108C515.009 239.778 515.775 239.296 517.674 239.296V231.296ZM508.976 234.498C506.889 236.654 505.922 239.402 505.805 242.371L513.799 242.685C513.853 241.302 514.251 240.551 514.724 240.062L508.976 234.498ZM557.1 234.4L561.099 234.467L561.101 234.392L561.099 234.317L557.1 234.4ZM557.164 260V264H561.285L561.162 259.881L557.164 260ZM542.06 260L538.06 259.965L538.024 264H542.06V260ZM542.124 252.768L538.124 252.725L538.124 252.733L542.124 252.768ZM542.124 216.992L538.124 217.029L538.124 217.037L542.124 216.992ZM542.06 210.08V206.08H538.023L538.06 210.117L542.06 210.08ZM557.164 210.08L561.164 210.136L561.221 206.08H557.164V210.08ZM553.101 234.333C553.057 236.928 553.036 240.881 553.036 246.176H561.036C561.036 240.889 561.057 236.992 561.099 234.467L553.101 234.333ZM553.036 246.176C553.036 252.537 553.079 257.196 553.166 260.119L561.162 259.881C561.079 257.086 561.036 252.529 561.036 246.176H553.036ZM557.164 256H542.06V264H557.164V256ZM546.06 260.035L546.124 252.803L538.124 252.733L538.06 259.965L546.06 260.035ZM546.124 252.811C546.209 244.87 546.252 238.731 546.252 234.4H538.252C538.252 238.688 538.21 244.794 538.124 252.725L546.124 252.811ZM546.252 234.4C546.252 230.281 546.209 224.461 546.124 216.947L538.124 217.037C538.21 224.542 538.252 230.327 538.252 234.4H546.252ZM546.124 216.955L546.06 210.043L538.06 210.117L538.124 217.029L546.124 216.955ZM542.06 214.08H557.164V206.08H542.06V214.08ZM553.164 210.024C553.079 216.092 553.036 221.062 553.036 224.928H561.036C561.036 221.114 561.078 216.186 561.164 210.136L553.164 210.024ZM553.036 224.928C553.036 229.2 553.057 232.391 553.101 234.483L561.099 234.317C561.057 232.313 561.036 229.19 561.036 224.928H553.036ZM603.846 252.448L600.373 254.433V254.433L603.846 252.448ZM605.894 253.728L609.89 253.898L610.029 250.639L606.864 249.847L605.894 253.728ZM605.638 259.744L606.256 263.696L609.495 263.19L609.634 259.914L605.638 259.744ZM602.054 260.192L601.722 256.206L601.715 256.206L601.707 256.207L602.054 260.192ZM590.79 257.888L587.541 260.221L587.555 260.241L587.57 260.261L590.79 257.888ZM588.998 249.952H592.998L585.227 248.618L588.998 249.952ZM583.558 257.76L581.233 254.505L581.219 254.515L581.205 254.525L583.558 257.76ZM564.87 257.76L562.371 260.883L562.386 260.896L562.401 260.907L564.87 257.76ZM564.422 243.616L567.031 246.648V246.648L564.422 243.616ZM572.934 240.352L573.549 244.304L583.274 242.792L575.251 237.091L572.934 240.352ZM563.206 234.336L560.066 231.857L557.085 235.634L561.343 237.876L563.206 234.336ZM571.974 226.976L573.781 230.544L573.8 230.535L573.818 230.526L571.974 226.976ZM598.534 228.704L595.849 231.669L595.87 231.688L595.891 231.707L598.534 228.704ZM579.526 236.768L581.124 240.435L579.526 236.768ZM575.046 240.032L572.09 237.337L564.88 245.245L575.51 244.005L575.046 240.032ZM587.974 239.008L585.916 235.578V235.578L587.974 239.008ZM587.974 236.256L585.916 239.686L586.003 239.738L586.092 239.785L587.974 236.256ZM585.03 248.544L586.722 252.169L586.754 252.153L586.787 252.138L585.03 248.544ZM588.998 244.896L592.596 246.644L592.998 245.816V244.896H588.998ZM588.998 243.232H592.998V236.76L587.209 239.654L588.998 243.232ZM585.606 244.448L586.416 248.365L586.481 248.352L586.545 248.336L585.606 244.448ZM581.126 245.216L580.547 241.258L580.508 241.264L580.468 241.27L581.126 245.216ZM578.822 245.6L578.164 241.654L578.108 241.664L578.051 241.675L578.822 245.6ZM599.334 249.376C599.334 250.91 599.474 252.859 600.373 254.433L607.319 250.463C607.403 250.611 607.434 250.707 607.436 250.715C607.44 250.726 607.426 250.684 607.408 250.574C607.37 250.346 607.334 249.961 607.334 249.376H599.334ZM600.373 254.433C601.486 256.38 603.399 257.227 604.924 257.609L606.864 249.847C606.64 249.791 606.629 249.758 606.734 249.824C606.857 249.901 607.11 250.098 607.319 250.463L600.373 254.433ZM601.898 253.558L601.642 259.574L609.634 259.914L609.89 253.898L601.898 253.558ZM605.02 255.792C603.72 255.995 602.624 256.131 601.722 256.206L602.386 264.178C603.532 264.083 604.825 263.919 606.256 263.696L605.02 255.792ZM601.707 256.207C600.893 256.278 599.701 256.32 598.086 256.32V264.32C599.799 264.32 601.252 264.277 602.401 264.177L601.707 256.207ZM598.086 256.32C596.512 256.32 595.449 256.142 594.775 255.917C594.45 255.809 594.254 255.703 594.146 255.63C594.043 255.561 594.013 255.519 594.01 255.515L587.57 260.261C589.96 263.504 594.142 264.32 598.086 264.32V256.32ZM594.039 255.555C593.443 254.725 592.998 253.486 592.998 251.552H584.998C584.998 254.738 585.748 257.723 587.541 260.221L594.039 255.555ZM592.998 251.552V249.952H584.998V251.552H592.998ZM585.227 248.618C584.191 251.548 582.797 253.388 581.233 254.505L585.883 261.015C589.097 258.719 591.331 255.353 592.769 251.286L585.227 248.618ZM581.205 254.525C579.704 255.617 577.583 256.32 574.534 256.32V264.32C578.823 264.32 582.718 263.317 585.911 260.995L581.205 254.525ZM574.534 256.32C570.703 256.32 568.519 255.538 567.339 254.613L562.401 260.907C565.573 263.395 569.831 264.32 574.534 264.32V256.32ZM567.369 254.637C566.404 253.865 565.67 252.612 565.67 250.144H557.67C557.67 254.417 559.069 258.242 562.371 260.883L567.369 254.637ZM565.67 250.144C565.67 248.347 566.213 247.352 567.031 246.648L561.813 240.584C558.961 243.038 557.67 246.395 557.67 250.144H565.67ZM567.031 246.648C568.054 245.768 570.041 244.85 573.549 244.304L572.319 236.4C568.147 237.049 564.46 238.307 561.813 240.584L567.031 246.648ZM575.251 237.091C571.875 234.693 568.482 232.592 565.069 230.796L561.343 237.876C564.416 239.493 567.507 241.403 570.617 243.613L575.251 237.091ZM566.346 236.815C568.59 233.972 571.074 231.916 573.781 230.544L570.167 223.408C566.304 225.364 562.942 228.215 560.066 231.857L566.346 236.815ZM573.818 230.526C576.402 229.183 579.723 228.416 583.942 228.416V220.416C578.774 220.416 574.117 221.355 570.13 223.426L573.818 230.526ZM583.942 228.416C590.039 228.416 593.738 229.758 595.849 231.669L601.219 225.739C597.015 221.933 590.986 220.416 583.942 220.416V228.416ZM595.891 231.707C597.937 233.507 599.334 236.565 599.334 241.76H607.334C607.334 235.179 605.531 229.533 601.177 225.701L595.891 231.707ZM599.334 241.76V249.376H607.334V241.76H599.334ZM585.286 231.68C582.667 231.68 580.186 232.117 577.928 233.101L581.124 240.435C582.194 239.968 583.553 239.68 585.286 239.68V231.68ZM577.928 233.101C575.707 234.069 573.761 235.505 572.09 237.337L578.002 242.727C578.977 241.658 580.017 240.917 581.124 240.435L577.928 233.101ZM575.51 244.005C577.861 243.731 580.894 243.584 584.646 243.584V235.584C580.718 235.584 577.351 235.736 574.582 236.059L575.51 244.005ZM584.646 243.584C586.306 243.584 588.386 243.426 590.032 242.438L585.916 235.578C586.061 235.491 586.154 235.461 586.155 235.461C586.158 235.46 586.105 235.477 585.98 235.499C585.72 235.544 585.29 235.584 584.646 235.584V243.584ZM590.032 242.438C591.529 241.54 592.934 239.901 592.934 237.536H584.934C584.934 237.075 585.071 236.585 585.344 236.167C585.592 235.785 585.854 235.615 585.916 235.578L590.032 242.438ZM592.934 237.536C592.934 234.962 591.187 233.436 589.856 232.727L586.092 239.785C586.071 239.774 585.788 239.624 585.494 239.232C585.158 238.784 584.934 238.183 584.934 237.536H592.934ZM590.032 232.826C588.52 231.919 586.801 231.68 585.286 231.68V239.68C585.649 239.68 585.871 239.711 585.984 239.735C586.096 239.759 586.048 239.765 585.916 239.686L590.032 232.826ZM578.566 253.888C581.465 253.888 584.208 253.342 586.722 252.169L583.338 244.919C582.012 245.538 580.446 245.888 578.566 245.888V253.888ZM586.787 252.138C589.276 250.92 591.38 249.146 592.596 246.644L585.4 243.148C585.165 243.632 584.624 244.29 583.273 244.95L586.787 252.138ZM592.998 244.896V243.232H584.998V244.896H592.998ZM587.209 239.654C586.484 240.017 585.643 240.324 584.667 240.56L586.545 248.336C588.044 247.974 589.464 247.471 590.787 246.81L587.209 239.654ZM584.796 240.531C583.658 240.766 582.247 241.009 580.547 241.258L581.705 249.174C583.504 248.911 585.079 248.642 586.416 248.365L584.796 240.531ZM580.468 241.27L578.164 241.654L579.48 249.546L581.784 249.162L580.468 241.27ZM578.051 241.675C576.642 241.952 575.135 242.404 573.888 243.25C572.507 244.187 571.238 245.791 571.238 248.032H579.238C579.238 248.475 579.112 248.929 578.879 249.312C578.664 249.664 578.437 249.831 578.38 249.87C578.327 249.906 578.375 249.863 578.599 249.783C578.817 249.705 579.14 249.614 579.593 249.525L578.051 241.675ZM571.238 248.032C571.238 248.958 571.452 249.959 572.013 250.896C572.57 251.828 573.339 252.481 574.122 252.917C575.565 253.723 577.216 253.888 578.566 253.888V245.888C578.186 245.888 577.955 245.861 577.841 245.839C577.719 245.817 577.814 245.817 578.018 245.931C578.246 246.057 578.6 246.324 578.879 246.792C579.163 247.265 579.238 247.725 579.238 248.032H571.238ZM619.475 259.168L618.4 263.021L618.427 263.028L618.453 263.035L619.475 259.168ZM609.107 254.56L605.883 252.193L603.344 255.651L606.972 257.942L609.107 254.56ZM615.827 245.408L618.159 242.158L614.945 239.852L612.603 243.041L615.827 245.408ZM622.932 248.736L621.809 252.575L621.837 252.583L621.864 252.591L622.932 248.736ZM634.516 249.12L636.304 252.698L636.333 252.684L636.361 252.669L634.516 249.12ZM631.316 244.896L631.081 240.903L631.073 240.903L631.066 240.904L631.316 244.896ZM629.652 245.024L629.253 241.044L629.223 241.047L629.193 241.05L629.652 245.024ZM613.523 243.296L611.42 246.698L611.456 246.721L611.493 246.742L613.523 243.296ZM615.316 227.552L617.318 231.015L617.334 231.006L617.349 230.997L615.316 227.552ZM641.107 225.888L640.002 229.732L640.031 229.74L640.059 229.748L641.107 225.888ZM650.26 230.176L653.1 232.992L656.385 229.679L652.609 226.939L650.26 230.176ZM642.9 237.6L641.037 241.14L643.656 242.518L645.74 240.416L642.9 237.6ZM636.051 234.912L635.026 238.778L635.072 238.79L635.118 238.802L636.051 234.912ZM625.876 234.976L623.921 231.486V231.486L625.876 234.976ZM624.915 238.432L622.417 241.555L622.488 241.613L622.563 241.667L624.915 238.432ZM629.715 238.752L629.442 234.761L629.38 234.766L629.317 234.772L629.715 238.752ZM646.995 240.672L649.089 237.263H649.089L646.995 240.672ZM645.268 257.568L647.252 261.041L647.268 261.032L647.283 261.023L645.268 257.568ZM630.419 256.64C627.204 256.64 623.9 256.2 620.498 255.301L618.453 263.035C622.475 264.098 626.467 264.64 630.419 264.64V256.64ZM620.551 255.315C617.259 254.396 614.16 253.02 611.243 251.178L606.972 257.942C610.541 260.196 614.354 261.892 618.4 263.021L620.551 255.315ZM612.332 256.927L619.052 247.775L612.603 243.041L605.883 252.193L612.332 256.927ZM613.496 248.658C615.889 250.375 618.685 251.662 621.809 252.575L624.054 244.897C621.631 244.189 619.691 243.257 618.159 242.158L613.496 248.658ZM621.864 252.591C624.848 253.417 627.614 253.888 630.1 253.888V245.888C628.574 245.888 626.562 245.591 623.999 244.881L621.864 252.591ZM630.1 253.888C632.273 253.888 634.47 253.615 636.304 252.698L632.727 245.542C632.513 245.649 631.766 245.888 630.1 245.888V253.888ZM636.361 252.669C638.136 251.746 640.116 249.939 640.116 247.008H632.116C632.116 246.797 632.15 246.562 632.231 246.324C632.312 246.088 632.422 245.899 632.527 245.761C632.724 245.501 632.857 245.474 632.67 245.571L636.361 252.669ZM640.116 247.008C640.116 245.164 639.342 243.404 637.747 242.208L632.947 248.608C632.732 248.447 632.49 248.186 632.317 247.827C632.149 247.476 632.116 247.174 632.116 247.008H640.116ZM637.747 242.208C636.314 241.133 634.659 240.832 633.236 240.832V248.832C633.405 248.832 633.441 248.851 633.383 248.835C633.316 248.817 633.148 248.758 632.947 248.608L637.747 242.208ZM633.236 240.832C632.583 240.832 631.862 240.857 631.081 240.903L631.55 248.889C632.22 248.85 632.779 248.832 633.236 248.832V240.832ZM631.066 240.904C630.359 240.948 629.75 240.994 629.253 241.044L630.05 249.004C630.407 248.968 630.907 248.929 631.565 248.888L631.066 240.904ZM629.193 241.05C627.134 241.288 625.005 241.408 622.803 241.408V249.408C625.296 249.408 627.732 249.272 630.11 248.998L629.193 241.05ZM622.803 241.408C619.467 241.408 617.142 240.785 615.554 239.85L611.493 246.742C614.684 248.623 618.545 249.408 622.803 249.408V241.408ZM615.627 239.894C614.683 239.31 614.003 238.398 614.003 236.256H606.003C606.003 240.6 607.671 244.381 611.42 246.698L615.627 239.894ZM614.003 236.256C614.003 234.078 614.878 232.426 617.318 231.015L613.313 224.089C608.67 226.774 606.003 230.924 606.003 236.256H614.003ZM617.349 230.997C619.989 229.438 624.352 228.416 630.932 228.416V220.416C623.773 220.416 617.724 221.485 613.282 224.107L617.349 230.997ZM630.932 228.416C633.909 228.416 636.929 228.849 640.002 229.732L642.213 222.044C638.459 220.965 634.696 220.416 630.932 220.416V228.416ZM640.059 229.748C643.092 230.572 645.693 231.804 647.91 233.413L652.609 226.939C649.536 224.708 646.035 223.081 642.156 222.028L640.059 229.748ZM647.419 227.36L640.059 234.784L645.74 240.416L653.1 232.992L647.419 227.36ZM644.762 234.06C642.107 232.663 639.511 231.629 636.985 231.022L635.118 238.802C636.859 239.219 638.828 239.977 641.037 241.14L644.762 234.06ZM637.077 231.046C634.657 230.404 632.2 230.08 629.715 230.08V238.08C631.498 238.08 633.265 238.311 635.026 238.778L637.077 231.046ZM629.715 230.08C627.688 230.08 625.704 230.488 623.921 231.486L627.83 238.466C628.181 238.27 628.756 238.08 629.715 238.08V230.08ZM623.921 231.486C622.388 232.344 620.275 234.081 620.275 237.024H628.275C628.275 237.306 628.225 237.586 628.13 237.844C628.037 238.097 627.919 238.281 627.828 238.399C627.662 238.61 627.583 238.604 627.83 238.466L623.921 231.486ZM620.275 237.024C620.275 238.707 620.945 240.378 622.417 241.555L627.414 235.309C627.662 235.507 627.908 235.797 628.077 236.169C628.241 236.53 628.275 236.842 628.275 237.024H620.275ZM622.563 241.667C623.87 242.618 625.35 242.944 626.708 242.944V234.944C626.656 234.944 626.702 234.938 626.814 234.97C626.934 235.004 627.098 235.073 627.268 235.197L622.563 241.667ZM626.708 242.944C627.63 242.944 628.785 242.865 630.114 242.732L629.317 234.772C628.086 234.895 627.236 234.944 626.708 234.944V242.944ZM629.989 242.743C633.085 242.531 635.298 242.432 636.691 242.432V234.432C635.013 234.432 632.575 234.547 629.442 234.761L629.989 242.743ZM636.691 242.432C640.766 242.432 643.358 243.132 644.902 244.081L649.089 237.263C645.769 235.225 641.492 234.432 636.691 234.432V242.432ZM644.902 244.081C646.044 244.782 646.643 245.71 646.643 247.52H654.643C654.643 243.186 652.811 239.549 649.089 237.263L644.902 244.081ZM646.643 247.52C646.643 250.895 645.452 252.83 643.252 254.113L647.283 261.023C652.251 258.125 654.643 253.361 654.643 247.52H646.643ZM643.283 254.095C640.542 255.662 636.377 256.64 630.419 256.64V264.64C637.092 264.64 642.825 263.57 647.252 261.041L643.283 254.095ZM664.85 259.168L663.775 263.021L663.802 263.028L663.828 263.035L664.85 259.168ZM654.482 254.56L651.258 252.193L648.719 255.651L652.347 257.942L654.482 254.56ZM661.202 245.408L663.534 242.158L660.32 239.852L657.978 243.041L661.202 245.408ZM668.307 248.736L667.184 252.575L667.212 252.583L667.239 252.591L668.307 248.736ZM679.891 249.12L681.679 252.698L681.708 252.684L681.736 252.669L679.891 249.12ZM676.691 244.896L676.456 240.903L676.448 240.903L676.441 240.904L676.691 244.896ZM675.027 245.024L674.628 241.044L674.598 241.047L674.568 241.05L675.027 245.024ZM658.898 243.296L656.795 246.698L656.831 246.721L656.868 246.742L658.898 243.296ZM660.691 227.552L662.693 231.015L662.709 231.006L662.724 230.997L660.691 227.552ZM686.482 225.888L685.377 229.732L685.406 229.74L685.434 229.748L686.482 225.888ZM695.635 230.176L698.475 232.992L701.76 229.679L697.984 226.939L695.635 230.176ZM688.275 237.6L686.412 241.14L689.031 242.518L691.115 240.416L688.275 237.6ZM681.426 234.912L680.401 238.778L680.447 238.79L680.493 238.802L681.426 234.912ZM671.251 234.976L669.296 231.486V231.486L671.251 234.976ZM670.29 238.432L667.792 241.555L667.863 241.613L667.938 241.667L670.29 238.432ZM675.09 238.752L674.817 234.761L674.755 234.766L674.692 234.772L675.09 238.752ZM692.37 240.672L694.464 237.263H694.464L692.37 240.672ZM690.643 257.568L692.627 261.041L692.643 261.032L692.658 261.023L690.643 257.568ZM675.794 256.64C672.579 256.64 669.275 256.2 665.873 255.301L663.828 263.035C667.85 264.098 671.842 264.64 675.794 264.64V256.64ZM665.926 255.315C662.634 254.396 659.535 253.02 656.618 251.178L652.347 257.942C655.916 260.196 659.729 261.892 663.775 263.021L665.926 255.315ZM657.707 256.927L664.427 247.775L657.978 243.041L651.258 252.193L657.707 256.927ZM658.871 248.658C661.264 250.375 664.06 251.662 667.184 252.575L669.429 244.897C667.006 244.189 665.066 243.257 663.534 242.158L658.871 248.658ZM667.239 252.591C670.223 253.417 672.989 253.888 675.475 253.888V245.888C673.949 245.888 671.937 245.591 669.374 244.881L667.239 252.591ZM675.475 253.888C677.648 253.888 679.845 253.615 681.679 252.698L678.102 245.542C677.888 245.649 677.141 245.888 675.475 245.888V253.888ZM681.736 252.669C683.511 251.746 685.491 249.939 685.491 247.008H677.491C677.491 246.797 677.525 246.562 677.606 246.324C677.687 246.088 677.797 245.899 677.902 245.761C678.099 245.501 678.232 245.474 678.045 245.571L681.736 252.669ZM685.491 247.008C685.491 245.164 684.717 243.404 683.122 242.208L678.322 248.608C678.107 248.447 677.865 248.186 677.692 247.827C677.524 247.476 677.491 247.174 677.491 247.008H685.491ZM683.122 242.208C681.689 241.133 680.034 240.832 678.611 240.832V248.832C678.78 248.832 678.816 248.851 678.758 248.835C678.691 248.817 678.523 248.758 678.322 248.608L683.122 242.208ZM678.611 240.832C677.958 240.832 677.237 240.857 676.456 240.903L676.925 248.889C677.595 248.85 678.154 248.832 678.611 248.832V240.832ZM676.441 240.904C675.734 240.948 675.125 240.994 674.628 241.044L675.425 249.004C675.782 248.968 676.282 248.929 676.94 248.888L676.441 240.904ZM674.568 241.05C672.509 241.288 670.38 241.408 668.178 241.408V249.408C670.671 249.408 673.107 249.272 675.485 248.998L674.568 241.05ZM668.178 241.408C664.842 241.408 662.517 240.785 660.929 239.85L656.868 246.742C660.059 248.623 663.92 249.408 668.178 249.408V241.408ZM661.002 239.894C660.058 239.31 659.378 238.398 659.378 236.256H651.378C651.378 240.6 653.046 244.381 656.795 246.698L661.002 239.894ZM659.378 236.256C659.378 234.078 660.253 232.426 662.693 231.015L658.688 224.089C654.045 226.774 651.378 230.924 651.378 236.256H659.378ZM662.724 230.997C665.364 229.438 669.727 228.416 676.307 228.416V220.416C669.148 220.416 663.099 221.485 658.657 224.107L662.724 230.997ZM676.307 228.416C679.284 228.416 682.304 228.849 685.377 229.732L687.588 222.044C683.834 220.965 680.071 220.416 676.307 220.416V228.416ZM685.434 229.748C688.467 230.572 691.068 231.804 693.285 233.413L697.984 226.939C694.911 224.708 691.41 223.081 687.531 222.028L685.434 229.748ZM692.794 227.36L685.434 234.784L691.115 240.416L698.475 232.992L692.794 227.36ZM690.137 234.06C687.482 232.663 684.886 231.629 682.36 231.022L680.493 238.802C682.234 239.219 684.203 239.977 686.412 241.14L690.137 234.06ZM682.452 231.046C680.032 230.404 677.575 230.08 675.09 230.08V238.08C676.873 238.08 678.64 238.311 680.401 238.778L682.452 231.046ZM675.09 230.08C673.063 230.08 671.079 230.488 669.296 231.486L673.205 238.466C673.556 238.27 674.131 238.08 675.09 238.08V230.08ZM669.296 231.486C667.763 232.344 665.65 234.081 665.65 237.024H673.65C673.65 237.306 673.6 237.586 673.505 237.844C673.412 238.097 673.294 238.281 673.203 238.399C673.037 238.61 672.958 238.604 673.205 238.466L669.296 231.486ZM665.65 237.024C665.65 238.707 666.32 240.378 667.792 241.555L672.789 235.309C673.037 235.507 673.283 235.797 673.452 236.169C673.616 236.53 673.65 236.842 673.65 237.024H665.65ZM667.938 241.667C669.245 242.618 670.725 242.944 672.083 242.944V234.944C672.031 234.944 672.077 234.938 672.189 234.97C672.309 235.004 672.473 235.073 672.643 235.197L667.938 241.667ZM672.083 242.944C673.005 242.944 674.16 242.865 675.489 242.732L674.692 234.772C673.461 234.895 672.611 234.944 672.083 234.944V242.944ZM675.364 242.743C678.46 242.531 680.673 242.432 682.066 242.432V234.432C680.388 234.432 677.95 234.547 674.817 234.761L675.364 242.743ZM682.066 242.432C686.141 242.432 688.733 243.132 690.277 244.081L694.464 237.263C691.144 235.225 686.867 234.432 682.066 234.432V242.432ZM690.277 244.081C691.419 244.782 692.018 245.71 692.018 247.52H700.018C700.018 243.186 698.186 239.549 694.464 237.263L690.277 244.081ZM692.018 247.52C692.018 250.895 690.827 252.83 688.627 254.113L692.658 261.023C697.626 258.125 700.018 253.361 700.018 247.52H692.018ZM688.658 254.095C685.917 255.662 681.752 256.64 675.794 256.64V264.64C682.467 264.64 688.2 263.57 692.627 261.041L688.658 254.095Z" fill="white" mask="url(#path-3-outside-2_225_753)"/>
</svg>
