<svg width="866" height="539" viewBox="0 0 866 539" fill="none" xmlns="http://www.w3.org/2000/svg">
<rect width="866" height="539" fill="#F2F2F2"/>
<mask id="path-1-outside-1_243_311" maskUnits="userSpaceOnUse" x="268" y="192" width="274" height="159" fill="black">
<rect fill="white" x="268" y="192" width="274" height="159"/>
<path d="M282.136 211.28C279.448 211.28 277.443 210.619 276.12 209.296C274.84 207.973 274.2 206.245 274.2 204.112C274.2 202.021 274.84 200.293 276.12 198.928C277.443 197.563 279.448 196.88 282.136 196.88C284.696 196.88 286.659 197.584 288.024 198.992C289.389 200.357 290.072 202.064 290.072 204.112C290.072 206.245 289.411 207.973 288.088 209.296C286.765 210.619 284.781 211.28 282.136 211.28ZM274.712 250C275.011 243.131 275.16 237.456 275.16 232.976C275.16 227.643 274.989 221.669 274.648 215.056H290.008C289.667 221.413 289.496 227.387 289.496 232.976C289.496 237.669 289.645 243.344 289.944 250H274.712ZM309.954 212.112C309.869 212.325 309.826 212.603 309.826 212.944C309.826 213.627 310.103 214.181 310.658 214.608C311.255 214.992 312.066 215.184 313.09 215.184H321.538V226.512C317.997 226.213 315.181 226.043 313.09 226C313.133 233.936 313.303 241.936 313.602 250H298.434C298.477 244.965 298.498 237.029 298.498 226.192C297.602 226.235 296.066 226.341 293.89 226.512V215.184H298.434V213.968C298.434 210.64 299.117 207.803 300.482 205.456C301.847 203.109 303.725 201.339 306.114 200.144C308.546 198.949 311.319 198.352 314.434 198.352C316.951 198.352 319.49 198.715 322.05 199.44C321.197 202.555 320.343 206.459 319.49 211.152L319.106 213.072C318.167 212.261 317.122 211.664 315.97 211.28C314.861 210.853 313.837 210.64 312.898 210.64C312.13 210.64 311.49 210.768 310.978 211.024C310.466 211.28 310.125 211.643 309.954 212.112ZM356.733 205.072C355.752 205.072 355.048 205.221 354.621 205.52C354.237 205.776 354.045 206.288 354.045 207.056C354.045 207.952 354.344 209.488 354.941 211.664C355.453 213.499 355.709 215.205 355.709 216.784C355.709 220.837 354.109 223.952 350.909 226.128C354.109 228.304 355.709 231.419 355.709 235.472C355.709 237.008 355.453 238.715 354.941 240.592C354.344 242.768 354.045 244.304 354.045 245.2C354.045 245.968 354.237 246.501 354.621 246.8C355.048 247.056 355.752 247.184 356.733 247.184V253.648C354.002 253.648 351.378 253.2 348.861 252.304C346.344 251.451 344.274 250.128 342.653 248.336C341.074 246.544 340.285 244.325 340.285 241.68C340.285 240.656 340.456 239.461 340.797 238.096C341.181 236.688 341.373 235.323 341.373 234C341.373 232.592 341.096 231.483 340.541 230.672C340.029 229.819 339.197 229.392 338.045 229.392V222.864C339.197 222.864 340.05 222.459 340.605 221.648C341.16 220.795 341.437 219.664 341.437 218.256C341.437 217.104 341.224 215.739 340.797 214.16C340.413 212.795 340.221 211.557 340.221 210.448C340.221 207.845 341.032 205.669 342.653 203.92C344.274 202.128 346.344 200.805 348.861 199.952C351.378 199.056 354.002 198.608 356.733 198.608V205.072ZM367.329 250.64C365.452 250.64 363.852 249.979 362.529 248.656C361.206 247.291 360.545 245.669 360.545 243.792C360.545 241.915 361.206 240.315 362.529 238.992C363.852 237.669 365.452 237.008 367.329 237.008C369.164 237.008 370.742 237.691 372.065 239.056C373.43 240.379 374.113 241.957 374.113 243.792C374.113 245.669 373.43 247.291 372.065 248.656C370.742 249.979 369.164 250.64 367.329 250.64ZM384.767 250.64C382.889 250.64 381.289 249.979 379.967 248.656C378.644 247.291 377.983 245.669 377.983 243.792C377.983 241.915 378.644 240.315 379.967 238.992C381.289 237.669 382.889 237.008 384.767 237.008C386.601 237.008 388.18 237.691 389.503 239.056C390.868 240.379 391.551 241.957 391.551 243.792C391.551 245.669 390.868 247.291 389.503 248.656C388.18 249.979 386.601 250.64 384.767 250.64ZM402.204 250.64C400.327 250.64 398.727 249.979 397.404 248.656C396.081 247.291 395.42 245.669 395.42 243.792C395.42 241.915 396.081 240.315 397.404 238.992C398.727 237.669 400.327 237.008 402.204 237.008C404.039 237.008 405.617 237.691 406.94 239.056C408.305 240.379 408.988 241.957 408.988 243.792C408.988 245.669 408.305 247.291 406.94 248.656C405.617 249.979 404.039 250.64 402.204 250.64ZM428.794 214.16C428.367 215.739 428.154 217.104 428.154 218.256C428.154 219.664 428.431 220.795 428.986 221.648C429.54 222.459 430.394 222.864 431.546 222.864V229.392C430.394 229.392 429.54 229.819 428.986 230.672C428.474 231.483 428.218 232.592 428.218 234C428.218 235.323 428.41 236.688 428.794 238.096C429.135 239.461 429.306 240.656 429.306 241.68C429.306 244.325 428.495 246.544 426.874 248.336C425.295 250.128 423.247 251.451 420.73 252.304C418.212 253.2 415.588 253.648 412.858 253.648V247.184C413.839 247.184 414.522 247.056 414.906 246.8C415.332 246.501 415.546 245.968 415.546 245.2C415.546 244.304 415.247 242.768 414.65 240.592C414.138 238.715 413.882 237.008 413.882 235.472C413.882 231.419 415.482 228.304 418.682 226.128C415.482 223.952 413.882 220.837 413.882 216.784C413.882 215.205 414.138 213.499 414.65 211.664C415.247 209.488 415.546 207.952 415.546 207.056C415.546 206.288 415.332 205.776 414.906 205.52C414.522 205.221 413.839 205.072 412.858 205.072V198.608C415.588 198.608 418.212 199.056 420.73 199.952C423.247 200.805 425.316 202.128 426.938 203.92C428.559 205.669 429.37 207.845 429.37 210.448C429.37 211.557 429.178 212.795 428.794 214.16Z"/>
<path d="M307.416 327H286.552C286.893 328.877 287.725 330.413 289.048 331.608C290.413 332.76 292.333 333.336 294.808 333.336C296.6 333.336 298.285 332.995 299.864 332.312C301.443 331.587 302.701 330.584 303.64 329.304C306.499 330.712 310.296 332.227 315.032 333.848C313.709 336.835 311.299 339.224 307.8 341.016C304.344 342.765 299.821 343.64 294.232 343.64C286.979 343.64 281.603 341.976 278.104 338.648C274.648 335.277 272.92 330.861 272.92 325.4C272.92 320.067 274.648 315.736 278.104 312.408C281.56 309.08 286.936 307.416 294.232 307.416C298.584 307.416 302.36 308.141 305.56 309.592C308.76 311.043 311.213 313.069 312.92 315.672C314.627 318.232 315.48 321.176 315.48 324.504C315.48 325.613 315.437 326.445 315.352 327H307.416ZM295.128 317.08C292.995 317.08 291.245 317.485 289.88 318.296C288.515 319.107 287.555 320.216 287 321.624H302.104C301.592 320.259 300.76 319.171 299.608 318.36C298.456 317.507 296.963 317.08 295.128 317.08ZM334.975 317.4C334.932 319.96 334.911 323.885 334.911 329.176C334.911 335.533 334.954 340.141 335.039 343H319.935L319.999 335.768C320.084 327.832 320.127 321.709 320.127 317.4C320.127 313.304 320.084 307.501 319.999 299.992L319.935 293.08H335.039C334.954 299.139 334.911 304.088 334.911 307.928C334.911 312.195 334.932 315.352 334.975 317.4ZM360.857 343.64C357.273 343.64 353.625 343.149 349.913 342.168C346.244 341.144 342.788 339.608 339.545 337.56L346.265 328.408C348.228 329.816 350.596 330.925 353.369 331.736C356.142 332.504 358.532 332.888 360.537 332.888C362.457 332.888 363.929 332.632 364.953 332.12C366.02 331.565 366.553 330.861 366.553 330.008C366.553 329.325 366.297 328.792 365.785 328.408C365.273 328.024 364.569 327.832 363.673 327.832C363.118 327.832 362.478 327.853 361.753 327.896C361.07 327.939 360.516 327.981 360.089 328.024C357.87 328.28 355.588 328.408 353.241 328.408C349.444 328.408 346.35 327.704 343.961 326.296C341.614 324.845 340.441 322.499 340.441 319.256C340.441 315.501 342.212 312.6 345.753 310.552C349.294 308.461 354.5 307.416 361.369 307.416C364.74 307.416 368.132 307.907 371.545 308.888C375.001 309.827 378.052 311.256 380.697 313.176L373.337 320.6C370.905 319.32 368.622 318.424 366.489 317.912C364.398 317.357 362.286 317.08 360.153 317.08C358.66 317.08 357.38 317.379 356.313 317.976C355.246 318.573 354.713 319.256 354.713 320.024C354.713 320.621 354.926 321.091 355.353 321.432C355.822 321.773 356.42 321.944 357.145 321.944C357.87 321.944 358.873 321.88 360.153 321.752C363.268 321.539 365.593 321.432 367.129 321.432C371.566 321.432 375.001 322.179 377.433 323.672C379.865 325.165 381.081 327.448 381.081 330.52C381.081 335.128 379.289 338.477 375.705 340.568C372.121 342.616 367.172 343.64 360.857 343.64ZM419.416 327H398.552C398.893 328.877 399.725 330.413 401.048 331.608C402.413 332.76 404.333 333.336 406.808 333.336C408.6 333.336 410.285 332.995 411.864 332.312C413.443 331.587 414.701 330.584 415.64 329.304C418.499 330.712 422.296 332.227 427.032 333.848C425.709 336.835 423.299 339.224 419.8 341.016C416.344 342.765 411.821 343.64 406.232 343.64C398.979 343.64 393.603 341.976 390.104 338.648C386.648 335.277 384.92 330.861 384.92 325.4C384.92 320.067 386.648 315.736 390.104 312.408C393.56 309.08 398.936 307.416 406.232 307.416C410.584 307.416 414.36 308.141 417.56 309.592C420.76 311.043 423.213 313.069 424.92 315.672C426.627 318.232 427.48 321.176 427.48 324.504C427.48 325.613 427.437 326.445 427.352 327H419.416ZM407.128 317.08C404.995 317.08 403.245 317.485 401.88 318.296C400.515 319.107 399.555 320.216 399 321.624H414.104C413.592 320.259 412.76 319.171 411.608 318.36C410.456 317.507 408.963 317.08 407.128 317.08ZM462.796 298.072C461.814 298.072 461.11 298.221 460.684 298.52C460.3 298.776 460.108 299.288 460.108 300.056C460.108 300.952 460.406 302.488 461.003 304.664C461.516 306.499 461.772 308.205 461.772 309.784C461.772 313.837 460.172 316.952 456.972 319.128C460.172 321.304 461.772 324.419 461.772 328.472C461.772 330.008 461.516 331.715 461.003 333.592C460.406 335.768 460.108 337.304 460.108 338.2C460.108 338.968 460.3 339.501 460.684 339.8C461.11 340.056 461.814 340.184 462.796 340.184V346.648C460.065 346.648 457.441 346.2 454.924 345.304C452.406 344.451 450.337 343.128 448.716 341.336C447.137 339.544 446.348 337.325 446.348 334.68C446.348 333.656 446.518 332.461 446.86 331.096C447.244 329.688 447.436 328.323 447.436 327C447.436 325.592 447.158 324.483 446.604 323.672C446.092 322.819 445.26 322.392 444.108 322.392V315.864C445.26 315.864 446.113 315.459 446.668 314.648C447.222 313.795 447.5 312.664 447.5 311.256C447.5 310.104 447.286 308.739 446.86 307.16C446.476 305.795 446.284 304.557 446.284 303.448C446.284 300.845 447.094 298.669 448.716 296.92C450.337 295.128 452.406 293.805 454.924 292.952C457.441 292.056 460.065 291.608 462.796 291.608V298.072ZM473.392 343.64C471.514 343.64 469.914 342.979 468.592 341.656C467.269 340.291 466.608 338.669 466.608 336.792C466.608 334.915 467.269 333.315 468.592 331.992C469.914 330.669 471.514 330.008 473.392 330.008C475.226 330.008 476.805 330.691 478.128 332.056C479.493 333.379 480.176 334.957 480.176 336.792C480.176 338.669 479.493 340.291 478.128 341.656C476.805 342.979 475.226 343.64 473.392 343.64ZM490.829 343.64C488.952 343.64 487.352 342.979 486.029 341.656C484.706 340.291 484.045 338.669 484.045 336.792C484.045 334.915 484.706 333.315 486.029 331.992C487.352 330.669 488.952 330.008 490.829 330.008C492.664 330.008 494.242 330.691 495.565 332.056C496.93 333.379 497.613 334.957 497.613 336.792C497.613 338.669 496.93 340.291 495.565 341.656C494.242 342.979 492.664 343.64 490.829 343.64ZM508.267 343.64C506.389 343.64 504.789 342.979 503.467 341.656C502.144 340.291 501.483 338.669 501.483 336.792C501.483 334.915 502.144 333.315 503.467 331.992C504.789 330.669 506.389 330.008 508.267 330.008C510.101 330.008 511.68 330.691 513.003 332.056C514.368 333.379 515.051 334.957 515.051 336.792C515.051 338.669 514.368 340.291 513.003 341.656C511.68 342.979 510.101 343.64 508.267 343.64ZM534.856 307.16C534.429 308.739 534.216 310.104 534.216 311.256C534.216 312.664 534.493 313.795 535.048 314.648C535.603 315.459 536.456 315.864 537.608 315.864V322.392C536.456 322.392 535.603 322.819 535.048 323.672C534.536 324.483 534.28 325.592 534.28 327C534.28 328.323 534.472 329.688 534.856 331.096C535.197 332.461 535.368 333.656 535.368 334.68C535.368 337.325 534.557 339.544 532.936 341.336C531.357 343.128 529.309 344.451 526.792 345.304C524.275 346.2 521.651 346.648 518.92 346.648V340.184C519.901 340.184 520.584 340.056 520.968 339.8C521.395 339.501 521.608 338.968 521.608 338.2C521.608 337.304 521.309 335.768 520.712 333.592C520.2 331.715 519.944 330.008 519.944 328.472C519.944 324.419 521.544 321.304 524.744 319.128C521.544 316.952 519.944 313.837 519.944 309.784C519.944 308.205 520.2 306.499 520.712 304.664C521.309 302.488 521.608 300.952 521.608 300.056C521.608 299.288 521.395 298.776 520.968 298.52C520.584 298.221 519.901 298.072 518.92 298.072V291.608C521.651 291.608 524.275 292.056 526.792 292.952C529.309 293.805 531.379 295.128 533 296.92C534.621 298.669 535.432 300.845 535.432 303.448C535.432 304.557 535.24 305.795 534.856 307.16Z"/>
</mask>
<path d="M282.136 211.28C279.448 211.28 277.443 210.619 276.12 209.296C274.84 207.973 274.2 206.245 274.2 204.112C274.2 202.021 274.84 200.293 276.12 198.928C277.443 197.563 279.448 196.88 282.136 196.88C284.696 196.88 286.659 197.584 288.024 198.992C289.389 200.357 290.072 202.064 290.072 204.112C290.072 206.245 289.411 207.973 288.088 209.296C286.765 210.619 284.781 211.28 282.136 211.28ZM274.712 250C275.011 243.131 275.16 237.456 275.16 232.976C275.16 227.643 274.989 221.669 274.648 215.056H290.008C289.667 221.413 289.496 227.387 289.496 232.976C289.496 237.669 289.645 243.344 289.944 250H274.712ZM309.954 212.112C309.869 212.325 309.826 212.603 309.826 212.944C309.826 213.627 310.103 214.181 310.658 214.608C311.255 214.992 312.066 215.184 313.09 215.184H321.538V226.512C317.997 226.213 315.181 226.043 313.09 226C313.133 233.936 313.303 241.936 313.602 250H298.434C298.477 244.965 298.498 237.029 298.498 226.192C297.602 226.235 296.066 226.341 293.89 226.512V215.184H298.434V213.968C298.434 210.64 299.117 207.803 300.482 205.456C301.847 203.109 303.725 201.339 306.114 200.144C308.546 198.949 311.319 198.352 314.434 198.352C316.951 198.352 319.49 198.715 322.05 199.44C321.197 202.555 320.343 206.459 319.49 211.152L319.106 213.072C318.167 212.261 317.122 211.664 315.97 211.28C314.861 210.853 313.837 210.64 312.898 210.64C312.13 210.64 311.49 210.768 310.978 211.024C310.466 211.28 310.125 211.643 309.954 212.112ZM356.733 205.072C355.752 205.072 355.048 205.221 354.621 205.52C354.237 205.776 354.045 206.288 354.045 207.056C354.045 207.952 354.344 209.488 354.941 211.664C355.453 213.499 355.709 215.205 355.709 216.784C355.709 220.837 354.109 223.952 350.909 226.128C354.109 228.304 355.709 231.419 355.709 235.472C355.709 237.008 355.453 238.715 354.941 240.592C354.344 242.768 354.045 244.304 354.045 245.2C354.045 245.968 354.237 246.501 354.621 246.8C355.048 247.056 355.752 247.184 356.733 247.184V253.648C354.002 253.648 351.378 253.2 348.861 252.304C346.344 251.451 344.274 250.128 342.653 248.336C341.074 246.544 340.285 244.325 340.285 241.68C340.285 240.656 340.456 239.461 340.797 238.096C341.181 236.688 341.373 235.323 341.373 234C341.373 232.592 341.096 231.483 340.541 230.672C340.029 229.819 339.197 229.392 338.045 229.392V222.864C339.197 222.864 340.05 222.459 340.605 221.648C341.16 220.795 341.437 219.664 341.437 218.256C341.437 217.104 341.224 215.739 340.797 214.16C340.413 212.795 340.221 211.557 340.221 210.448C340.221 207.845 341.032 205.669 342.653 203.92C344.274 202.128 346.344 200.805 348.861 199.952C351.378 199.056 354.002 198.608 356.733 198.608V205.072ZM367.329 250.64C365.452 250.64 363.852 249.979 362.529 248.656C361.206 247.291 360.545 245.669 360.545 243.792C360.545 241.915 361.206 240.315 362.529 238.992C363.852 237.669 365.452 237.008 367.329 237.008C369.164 237.008 370.742 237.691 372.065 239.056C373.43 240.379 374.113 241.957 374.113 243.792C374.113 245.669 373.43 247.291 372.065 248.656C370.742 249.979 369.164 250.64 367.329 250.64ZM384.767 250.64C382.889 250.64 381.289 249.979 379.967 248.656C378.644 247.291 377.983 245.669 377.983 243.792C377.983 241.915 378.644 240.315 379.967 238.992C381.289 237.669 382.889 237.008 384.767 237.008C386.601 237.008 388.18 237.691 389.503 239.056C390.868 240.379 391.551 241.957 391.551 243.792C391.551 245.669 390.868 247.291 389.503 248.656C388.18 249.979 386.601 250.64 384.767 250.64ZM402.204 250.64C400.327 250.64 398.727 249.979 397.404 248.656C396.081 247.291 395.42 245.669 395.42 243.792C395.42 241.915 396.081 240.315 397.404 238.992C398.727 237.669 400.327 237.008 402.204 237.008C404.039 237.008 405.617 237.691 406.94 239.056C408.305 240.379 408.988 241.957 408.988 243.792C408.988 245.669 408.305 247.291 406.94 248.656C405.617 249.979 404.039 250.64 402.204 250.64ZM428.794 214.16C428.367 215.739 428.154 217.104 428.154 218.256C428.154 219.664 428.431 220.795 428.986 221.648C429.54 222.459 430.394 222.864 431.546 222.864V229.392C430.394 229.392 429.54 229.819 428.986 230.672C428.474 231.483 428.218 232.592 428.218 234C428.218 235.323 428.41 236.688 428.794 238.096C429.135 239.461 429.306 240.656 429.306 241.68C429.306 244.325 428.495 246.544 426.874 248.336C425.295 250.128 423.247 251.451 420.73 252.304C418.212 253.2 415.588 253.648 412.858 253.648V247.184C413.839 247.184 414.522 247.056 414.906 246.8C415.332 246.501 415.546 245.968 415.546 245.2C415.546 244.304 415.247 242.768 414.65 240.592C414.138 238.715 413.882 237.008 413.882 235.472C413.882 231.419 415.482 228.304 418.682 226.128C415.482 223.952 413.882 220.837 413.882 216.784C413.882 215.205 414.138 213.499 414.65 211.664C415.247 209.488 415.546 207.952 415.546 207.056C415.546 206.288 415.332 205.776 414.906 205.52C414.522 205.221 413.839 205.072 412.858 205.072V198.608C415.588 198.608 418.212 199.056 420.73 199.952C423.247 200.805 425.316 202.128 426.938 203.92C428.559 205.669 429.37 207.845 429.37 210.448C429.37 211.557 429.178 212.795 428.794 214.16Z" fill="#606C38"/>
<path d="M307.416 327H286.552C286.893 328.877 287.725 330.413 289.048 331.608C290.413 332.76 292.333 333.336 294.808 333.336C296.6 333.336 298.285 332.995 299.864 332.312C301.443 331.587 302.701 330.584 303.64 329.304C306.499 330.712 310.296 332.227 315.032 333.848C313.709 336.835 311.299 339.224 307.8 341.016C304.344 342.765 299.821 343.64 294.232 343.64C286.979 343.64 281.603 341.976 278.104 338.648C274.648 335.277 272.92 330.861 272.92 325.4C272.92 320.067 274.648 315.736 278.104 312.408C281.56 309.08 286.936 307.416 294.232 307.416C298.584 307.416 302.36 308.141 305.56 309.592C308.76 311.043 311.213 313.069 312.92 315.672C314.627 318.232 315.48 321.176 315.48 324.504C315.48 325.613 315.437 326.445 315.352 327H307.416ZM295.128 317.08C292.995 317.08 291.245 317.485 289.88 318.296C288.515 319.107 287.555 320.216 287 321.624H302.104C301.592 320.259 300.76 319.171 299.608 318.36C298.456 317.507 296.963 317.08 295.128 317.08ZM334.975 317.4C334.932 319.96 334.911 323.885 334.911 329.176C334.911 335.533 334.954 340.141 335.039 343H319.935L319.999 335.768C320.084 327.832 320.127 321.709 320.127 317.4C320.127 313.304 320.084 307.501 319.999 299.992L319.935 293.08H335.039C334.954 299.139 334.911 304.088 334.911 307.928C334.911 312.195 334.932 315.352 334.975 317.4ZM360.857 343.64C357.273 343.64 353.625 343.149 349.913 342.168C346.244 341.144 342.788 339.608 339.545 337.56L346.265 328.408C348.228 329.816 350.596 330.925 353.369 331.736C356.142 332.504 358.532 332.888 360.537 332.888C362.457 332.888 363.929 332.632 364.953 332.12C366.02 331.565 366.553 330.861 366.553 330.008C366.553 329.325 366.297 328.792 365.785 328.408C365.273 328.024 364.569 327.832 363.673 327.832C363.118 327.832 362.478 327.853 361.753 327.896C361.07 327.939 360.516 327.981 360.089 328.024C357.87 328.28 355.588 328.408 353.241 328.408C349.444 328.408 346.35 327.704 343.961 326.296C341.614 324.845 340.441 322.499 340.441 319.256C340.441 315.501 342.212 312.6 345.753 310.552C349.294 308.461 354.5 307.416 361.369 307.416C364.74 307.416 368.132 307.907 371.545 308.888C375.001 309.827 378.052 311.256 380.697 313.176L373.337 320.6C370.905 319.32 368.622 318.424 366.489 317.912C364.398 317.357 362.286 317.08 360.153 317.08C358.66 317.08 357.38 317.379 356.313 317.976C355.246 318.573 354.713 319.256 354.713 320.024C354.713 320.621 354.926 321.091 355.353 321.432C355.822 321.773 356.42 321.944 357.145 321.944C357.87 321.944 358.873 321.88 360.153 321.752C363.268 321.539 365.593 321.432 367.129 321.432C371.566 321.432 375.001 322.179 377.433 323.672C379.865 325.165 381.081 327.448 381.081 330.52C381.081 335.128 379.289 338.477 375.705 340.568C372.121 342.616 367.172 343.64 360.857 343.64ZM419.416 327H398.552C398.893 328.877 399.725 330.413 401.048 331.608C402.413 332.76 404.333 333.336 406.808 333.336C408.6 333.336 410.285 332.995 411.864 332.312C413.443 331.587 414.701 330.584 415.64 329.304C418.499 330.712 422.296 332.227 427.032 333.848C425.709 336.835 423.299 339.224 419.8 341.016C416.344 342.765 411.821 343.64 406.232 343.64C398.979 343.64 393.603 341.976 390.104 338.648C386.648 335.277 384.92 330.861 384.92 325.4C384.92 320.067 386.648 315.736 390.104 312.408C393.56 309.08 398.936 307.416 406.232 307.416C410.584 307.416 414.36 308.141 417.56 309.592C420.76 311.043 423.213 313.069 424.92 315.672C426.627 318.232 427.48 321.176 427.48 324.504C427.48 325.613 427.437 326.445 427.352 327H419.416ZM407.128 317.08C404.995 317.08 403.245 317.485 401.88 318.296C400.515 319.107 399.555 320.216 399 321.624H414.104C413.592 320.259 412.76 319.171 411.608 318.36C410.456 317.507 408.963 317.08 407.128 317.08ZM462.796 298.072C461.814 298.072 461.11 298.221 460.684 298.52C460.3 298.776 460.108 299.288 460.108 300.056C460.108 300.952 460.406 302.488 461.003 304.664C461.516 306.499 461.772 308.205 461.772 309.784C461.772 313.837 460.172 316.952 456.972 319.128C460.172 321.304 461.772 324.419 461.772 328.472C461.772 330.008 461.516 331.715 461.003 333.592C460.406 335.768 460.108 337.304 460.108 338.2C460.108 338.968 460.3 339.501 460.684 339.8C461.11 340.056 461.814 340.184 462.796 340.184V346.648C460.065 346.648 457.441 346.2 454.924 345.304C452.406 344.451 450.337 343.128 448.716 341.336C447.137 339.544 446.348 337.325 446.348 334.68C446.348 333.656 446.518 332.461 446.86 331.096C447.244 329.688 447.436 328.323 447.436 327C447.436 325.592 447.158 324.483 446.604 323.672C446.092 322.819 445.26 322.392 444.108 322.392V315.864C445.26 315.864 446.113 315.459 446.668 314.648C447.222 313.795 447.5 312.664 447.5 311.256C447.5 310.104 447.286 308.739 446.86 307.16C446.476 305.795 446.284 304.557 446.284 303.448C446.284 300.845 447.094 298.669 448.716 296.92C450.337 295.128 452.406 293.805 454.924 292.952C457.441 292.056 460.065 291.608 462.796 291.608V298.072ZM473.392 343.64C471.514 343.64 469.914 342.979 468.592 341.656C467.269 340.291 466.608 338.669 466.608 336.792C466.608 334.915 467.269 333.315 468.592 331.992C469.914 330.669 471.514 330.008 473.392 330.008C475.226 330.008 476.805 330.691 478.128 332.056C479.493 333.379 480.176 334.957 480.176 336.792C480.176 338.669 479.493 340.291 478.128 341.656C476.805 342.979 475.226 343.64 473.392 343.64ZM490.829 343.64C488.952 343.64 487.352 342.979 486.029 341.656C484.706 340.291 484.045 338.669 484.045 336.792C484.045 334.915 484.706 333.315 486.029 331.992C487.352 330.669 488.952 330.008 490.829 330.008C492.664 330.008 494.242 330.691 495.565 332.056C496.93 333.379 497.613 334.957 497.613 336.792C497.613 338.669 496.93 340.291 495.565 341.656C494.242 342.979 492.664 343.64 490.829 343.64ZM508.267 343.64C506.389 343.64 504.789 342.979 503.467 341.656C502.144 340.291 501.483 338.669 501.483 336.792C501.483 334.915 502.144 333.315 503.467 331.992C504.789 330.669 506.389 330.008 508.267 330.008C510.101 330.008 511.68 330.691 513.003 332.056C514.368 333.379 515.051 334.957 515.051 336.792C515.051 338.669 514.368 340.291 513.003 341.656C511.68 342.979 510.101 343.64 508.267 343.64ZM534.856 307.16C534.429 308.739 534.216 310.104 534.216 311.256C534.216 312.664 534.493 313.795 535.048 314.648C535.603 315.459 536.456 315.864 537.608 315.864V322.392C536.456 322.392 535.603 322.819 535.048 323.672C534.536 324.483 534.28 325.592 534.28 327C534.28 328.323 534.472 329.688 534.856 331.096C535.197 332.461 535.368 333.656 535.368 334.68C535.368 337.325 534.557 339.544 532.936 341.336C531.357 343.128 529.309 344.451 526.792 345.304C524.275 346.2 521.651 346.648 518.92 346.648V340.184C519.901 340.184 520.584 340.056 520.968 339.8C521.395 339.501 521.608 338.968 521.608 338.2C521.608 337.304 521.309 335.768 520.712 333.592C520.2 331.715 519.944 330.008 519.944 328.472C519.944 324.419 521.544 321.304 524.744 319.128C521.544 316.952 519.944 313.837 519.944 309.784C519.944 308.205 520.2 306.499 520.712 304.664C521.309 302.488 521.608 300.952 521.608 300.056C521.608 299.288 521.395 298.776 520.968 298.52C520.584 298.221 519.901 298.072 518.92 298.072V291.608C521.651 291.608 524.275 292.056 526.792 292.952C529.309 293.805 531.379 295.128 533 296.92C534.621 298.669 535.432 300.845 535.432 303.448C535.432 304.557 535.24 305.795 534.856 307.16Z" fill="#F69D4C"/>
<path d="M276.12 209.296L273.246 212.078L273.268 212.101L273.292 212.124L276.12 209.296ZM276.12 198.928L273.247 196.145L273.224 196.168L273.202 196.192L276.12 198.928ZM288.024 198.992L285.152 201.777L285.174 201.799L285.196 201.82L288.024 198.992ZM288.088 209.296L290.916 212.124L288.088 209.296ZM274.712 250L270.716 249.826L270.534 254H274.712V250ZM274.648 215.056V211.056H270.436L270.653 215.262L274.648 215.056ZM290.008 215.056L294.002 215.27L294.229 211.056H290.008V215.056ZM289.944 250V254H294.128L293.94 249.821L289.944 250ZM282.136 207.28C280.043 207.28 279.246 206.765 278.948 206.468L273.292 212.124C275.64 214.473 278.853 215.28 282.136 215.28V207.28ZM278.994 206.514C278.551 206.056 278.2 205.385 278.2 204.112H270.2C270.2 207.106 271.129 209.89 273.246 212.078L278.994 206.514ZM278.2 204.112C278.2 202.909 278.537 202.199 279.038 201.664L273.202 196.192C271.143 198.388 270.2 201.134 270.2 204.112H278.2ZM278.993 201.711C279.295 201.399 280.075 200.88 282.136 200.88V192.88C278.821 192.88 275.59 193.726 273.247 196.145L278.993 201.711ZM282.136 200.88C283.959 200.88 284.751 201.363 285.152 201.777L290.896 196.207C288.566 193.805 285.433 192.88 282.136 192.88V200.88ZM285.196 201.82C285.762 202.387 286.072 203.053 286.072 204.112H294.072C294.072 201.075 293.017 198.328 290.852 196.164L285.196 201.82ZM286.072 204.112C286.072 205.347 285.725 206.002 285.26 206.468L290.916 212.124C293.097 209.944 294.072 207.144 294.072 204.112H286.072ZM285.26 206.468C284.952 206.776 284.165 207.28 282.136 207.28V215.28C285.398 215.28 288.579 214.462 290.916 212.124L285.26 206.468ZM278.708 250.174C279.008 243.274 279.16 237.536 279.16 232.976H271.16C271.16 237.376 271.013 242.988 270.716 249.826L278.708 250.174ZM279.16 232.976C279.16 227.56 278.987 221.516 278.643 214.85L270.653 215.262C270.992 221.822 271.16 227.725 271.16 232.976H279.16ZM274.648 219.056H290.008V211.056H274.648V219.056ZM286.014 214.842C285.669 221.261 285.496 227.306 285.496 232.976H293.496C293.496 227.467 293.664 221.566 294.002 215.27L286.014 214.842ZM285.496 232.976C285.496 237.748 285.648 243.486 285.948 250.179L293.94 249.821C293.643 243.202 293.496 237.591 293.496 232.976H285.496ZM289.944 246H274.712V254H289.944V246ZM309.954 212.112L313.668 213.598L313.691 213.539L313.713 213.479L309.954 212.112ZM310.658 214.608L308.219 217.778L308.353 217.881L308.495 217.973L310.658 214.608ZM321.538 215.184H325.538V211.184H321.538V215.184ZM321.538 226.512L321.202 230.498L325.538 230.864V226.512H321.538ZM313.09 226L313.172 222.001L309.068 221.917L309.09 226.022L313.09 226ZM313.602 250V254H317.753L317.599 249.852L313.602 250ZM298.434 250L294.434 249.966L294.4 254H298.434V250ZM298.498 226.192H302.498V221.997L298.308 222.197L298.498 226.192ZM293.89 226.512H289.89V230.838L294.203 230.5L293.89 226.512ZM293.89 215.184V211.184H289.89V215.184H293.89ZM298.434 215.184V219.184H302.434V215.184H298.434ZM306.114 200.144L304.35 196.554L304.338 196.56L304.325 196.566L306.114 200.144ZM322.05 199.44L325.908 200.497L326.956 196.672L323.14 195.591L322.05 199.44ZM319.49 211.152L323.412 211.936L323.419 211.902L323.425 211.868L319.49 211.152ZM319.106 213.072L316.492 216.099L321.683 220.583L323.028 213.856L319.106 213.072ZM315.97 211.28L314.534 215.013L314.619 215.046L314.705 215.075L315.97 211.28ZM306.24 210.626C305.897 211.483 305.826 212.318 305.826 212.944H313.826C313.826 212.935 313.827 212.988 313.811 213.088C313.796 213.187 313.76 213.368 313.668 213.598L306.24 210.626ZM305.826 212.944C305.826 214.905 306.709 216.617 308.219 217.778L313.097 211.438C313.237 211.545 313.447 211.754 313.612 212.083C313.778 212.415 313.826 212.728 313.826 212.944H305.826ZM308.495 217.973C309.963 218.917 311.621 219.184 313.09 219.184V211.184C312.821 211.184 312.68 211.158 312.636 211.148C312.597 211.138 312.679 211.152 312.821 211.243L308.495 217.973ZM313.09 219.184H321.538V211.184H313.09V219.184ZM317.538 215.184V226.512H325.538V215.184H317.538ZM321.874 222.526C318.298 222.225 315.386 222.046 313.172 222.001L313.008 229.999C314.976 230.039 317.696 230.202 321.202 230.498L321.874 222.526ZM309.09 226.022C309.133 234 309.305 242.043 309.605 250.148L317.599 249.852C317.302 241.829 317.132 233.872 317.09 225.978L309.09 226.022ZM313.602 246H298.434V254H313.602V246ZM302.434 250.034C302.477 244.981 302.498 237.031 302.498 226.192H294.498C294.498 237.028 294.477 244.949 294.434 249.966L302.434 250.034ZM298.308 222.197C297.344 222.242 295.753 222.354 293.577 222.524L294.203 230.5C296.379 230.329 297.86 230.227 298.688 230.187L298.308 222.197ZM297.89 226.512V215.184H289.89V226.512H297.89ZM293.89 219.184H298.434V211.184H293.89V219.184ZM302.434 215.184V213.968H294.434V215.184H302.434ZM302.434 213.968C302.434 211.188 303.002 209.079 303.939 207.468L297.025 203.444C295.232 206.526 294.434 210.092 294.434 213.968H302.434ZM303.939 207.468C304.92 205.783 306.222 204.562 307.903 203.722L304.325 196.566C301.227 198.115 298.775 200.436 297.025 203.444L303.939 207.468ZM307.878 203.734C309.684 202.847 311.839 202.352 314.434 202.352V194.352C310.799 194.352 307.408 195.052 304.35 196.554L307.878 203.734ZM314.434 202.352C316.562 202.352 318.734 202.658 320.96 203.289L323.14 195.591C320.246 194.771 317.34 194.352 314.434 194.352V202.352ZM318.192 198.383C317.297 201.65 316.42 205.677 315.555 210.436L323.425 211.868C324.267 207.241 325.096 203.46 325.908 200.497L318.192 198.383ZM315.568 210.368L315.184 212.288L323.028 213.856L323.412 211.936L315.568 210.368ZM321.72 210.045C320.395 208.9 318.893 208.038 317.235 207.485L314.705 215.075C315.351 215.29 315.94 215.623 316.492 216.099L321.72 210.045ZM317.406 207.547C315.955 206.989 314.439 206.64 312.898 206.64V214.64C313.234 214.64 313.766 214.718 314.534 215.013L317.406 207.547ZM312.898 206.64C311.711 206.64 310.413 206.834 309.189 207.446L312.767 214.602C312.664 214.653 312.607 214.662 312.626 214.658C312.648 214.654 312.733 214.64 312.898 214.64V206.64ZM309.189 207.446C307.906 208.088 306.767 209.172 306.195 210.745L313.713 213.479C313.613 213.754 313.454 214.014 313.251 214.229C313.055 214.438 312.87 214.55 312.767 214.602L309.189 207.446ZM356.733 205.072V209.072H360.733V205.072H356.733ZM354.621 205.52L356.84 208.848L356.878 208.823L356.915 208.797L354.621 205.52ZM354.941 211.664L351.084 212.723L351.086 212.731L351.088 212.739L354.941 211.664ZM350.909 226.128L348.66 222.82L343.795 226.128L348.66 229.436L350.909 226.128ZM354.941 240.592L358.798 241.651L358.8 241.644L354.941 240.592ZM354.621 246.8L352.165 249.957L352.356 250.106L352.563 250.23L354.621 246.8ZM356.733 247.184H360.733V243.184H356.733V247.184ZM356.733 253.648V257.648H360.733V253.648H356.733ZM348.861 252.304L350.202 248.536L350.174 248.525L350.145 248.516L348.861 252.304ZM342.653 248.336L339.652 250.98L339.669 251L339.687 251.02L342.653 248.336ZM340.797 238.096L336.938 237.044L336.927 237.085L336.916 237.126L340.797 238.096ZM340.541 230.672L337.111 232.73L337.172 232.832L337.24 232.931L340.541 230.672ZM338.045 229.392H334.045V233.392H338.045V229.392ZM338.045 222.864V218.864H334.045V222.864H338.045ZM340.605 221.648L343.906 223.907L343.933 223.868L343.959 223.828L340.605 221.648ZM340.797 214.16L344.658 213.116L344.653 213.097L344.648 213.077L340.797 214.16ZM342.653 203.92L345.587 206.639L345.603 206.621L345.619 206.604L342.653 203.92ZM348.861 199.952L350.145 203.74L350.174 203.731L350.202 203.72L348.861 199.952ZM356.733 198.608H360.733V194.608H356.733V198.608ZM356.733 201.072C355.551 201.072 353.799 201.212 352.327 202.243L356.915 208.797C356.728 208.928 356.568 209.003 356.466 209.043C356.365 209.083 356.304 209.096 356.299 209.097C356.293 209.098 356.325 209.091 356.402 209.084C356.479 209.078 356.587 209.072 356.733 209.072V201.072ZM352.402 202.192C350.322 203.578 350.045 205.85 350.045 207.056H358.045C358.045 206.972 358.06 207.166 357.934 207.5C357.792 207.881 357.468 208.43 356.84 208.848L352.402 202.192ZM350.045 207.056C350.045 208.555 350.492 210.568 351.084 212.723L358.798 210.605C358.195 208.408 358.045 207.349 358.045 207.056H350.045ZM351.088 212.739C351.522 214.293 351.709 215.635 351.709 216.784H359.709C359.709 214.776 359.384 212.704 358.794 210.589L351.088 212.739ZM351.709 216.784C351.709 219.588 350.704 221.43 348.66 222.82L353.158 229.436C357.514 226.474 359.709 222.087 359.709 216.784H351.709ZM348.66 229.436C350.704 230.826 351.709 232.668 351.709 235.472H359.709C359.709 230.169 357.514 225.782 353.158 222.82L348.66 229.436ZM351.709 235.472C351.709 236.573 351.524 237.919 351.082 239.54L358.8 241.644C359.382 239.511 359.709 237.443 359.709 235.472H351.709ZM351.084 239.533C350.492 241.688 350.045 243.701 350.045 245.2H358.045C358.045 244.907 358.195 243.848 358.798 241.651L351.084 239.533ZM350.045 245.2C350.045 246.482 350.353 248.548 352.165 249.957L357.077 243.643C357.576 244.031 357.835 244.495 357.953 244.821C358.058 245.113 358.045 245.275 358.045 245.2H350.045ZM352.563 250.23C353.97 251.074 355.608 251.184 356.733 251.184V243.184C356.573 243.184 356.447 243.179 356.352 243.171C356.256 243.164 356.202 243.156 356.185 243.153C356.165 243.149 356.202 243.154 356.279 243.18C356.356 243.206 356.499 243.262 356.679 243.37L352.563 250.23ZM352.733 247.184V253.648H360.733V247.184H352.733ZM356.733 249.648C354.449 249.648 352.28 249.275 350.202 248.536L347.52 256.072C350.477 257.125 353.555 257.648 356.733 257.648V249.648ZM350.145 248.516C348.207 247.859 346.738 246.89 345.619 245.652L339.687 251.02C341.81 253.366 344.48 255.042 347.577 256.092L350.145 248.516ZM345.654 245.692C344.79 244.711 344.285 243.465 344.285 241.68H336.285C336.285 245.186 337.359 248.377 339.652 250.98L345.654 245.692ZM344.285 241.68C344.285 241.079 344.388 240.223 344.678 239.066L336.916 237.126C336.523 238.699 336.285 240.233 336.285 241.68H344.285ZM344.656 239.148C345.124 237.432 345.373 235.713 345.373 234H337.373C337.373 234.933 337.238 235.944 336.938 237.044L344.656 239.148ZM345.373 234C345.373 232.12 345.01 230.12 343.842 228.413L337.24 232.931C337.181 232.845 337.373 233.064 337.373 234H345.373ZM343.971 228.614C342.611 226.347 340.34 225.392 338.045 225.392V233.392C338.131 233.392 337.973 233.407 337.708 233.271C337.416 233.122 337.213 232.901 337.111 232.73L343.971 228.614ZM342.045 229.392V222.864H334.045V229.392H342.045ZM338.045 226.864C340.255 226.864 342.469 226.007 343.906 223.907L337.304 219.389C337.349 219.323 337.419 219.238 337.519 219.153C337.619 219.066 337.727 218.997 337.833 218.947C338.047 218.845 338.155 218.864 338.045 218.864V226.864ZM343.959 223.828C345.068 222.121 345.437 220.152 345.437 218.256H337.437C337.437 219.176 337.251 219.468 337.251 219.468L343.959 223.828ZM345.437 218.256C345.437 216.638 345.142 214.905 344.658 213.116L336.936 215.204C337.305 216.572 337.437 217.57 337.437 218.256H345.437ZM344.648 213.077C344.337 211.971 344.221 211.106 344.221 210.448H336.221C336.221 212.009 336.489 213.618 336.946 215.243L344.648 213.077ZM344.221 210.448C344.221 208.754 344.716 207.579 345.587 206.639L339.719 201.201C337.347 203.76 336.221 206.937 336.221 210.448H344.221ZM345.619 206.604C346.738 205.366 348.207 204.397 350.145 203.74L347.577 196.164C344.48 197.214 341.81 198.89 339.687 201.236L345.619 206.604ZM350.202 203.72C352.28 202.981 354.449 202.608 356.733 202.608V194.608C353.555 194.608 350.477 195.131 347.52 196.184L350.202 203.72ZM352.733 198.608V205.072H360.733V198.608H352.733ZM362.529 248.656L359.656 251.439L359.678 251.462L359.701 251.484L362.529 248.656ZM362.529 238.992L359.701 236.164L362.529 238.992ZM372.065 239.056L369.192 241.839L369.236 241.885L369.282 241.929L372.065 239.056ZM372.065 248.656L369.237 245.828L372.065 248.656ZM367.329 246.64C366.508 246.64 365.927 246.397 365.357 245.828L359.701 251.484C361.776 253.56 364.395 254.64 367.329 254.64V246.64ZM365.402 245.873C364.792 245.243 364.545 244.616 364.545 243.792H356.545C356.545 246.723 357.621 249.338 359.656 251.439L365.402 245.873ZM364.545 243.792C364.545 242.971 364.788 242.39 365.357 241.82L359.701 236.164C357.625 238.239 356.545 240.858 356.545 243.792H364.545ZM365.357 241.82C365.927 241.251 366.508 241.008 367.329 241.008V233.008C364.395 233.008 361.776 234.088 359.701 236.164L365.357 241.82ZM367.329 241.008C368.038 241.008 368.592 241.22 369.192 241.839L374.938 236.273C372.892 234.161 370.29 233.008 367.329 233.008V241.008ZM369.282 241.929C369.901 242.529 370.113 243.083 370.113 243.792H378.113C378.113 240.831 376.96 238.229 374.848 236.183L369.282 241.929ZM370.113 243.792C370.113 244.575 369.876 245.188 369.237 245.828L374.893 251.484C376.985 249.393 378.113 246.764 378.113 243.792H370.113ZM369.237 245.828C368.648 246.417 368.08 246.64 367.329 246.64V254.64C370.248 254.64 372.837 253.541 374.893 251.484L369.237 245.828ZM379.966 248.656L377.094 251.439L377.116 251.462L377.138 251.484L379.966 248.656ZM379.966 238.992L377.138 236.164L379.966 238.992ZM389.503 239.056L386.63 241.839L386.674 241.885L386.719 241.929L389.503 239.056ZM389.503 248.656L386.674 245.828L389.503 248.656ZM384.767 246.64C383.946 246.64 383.364 246.397 382.795 245.828L377.138 251.484C379.214 253.56 381.833 254.64 384.767 254.64V246.64ZM382.839 245.873C382.229 245.243 381.982 244.616 381.982 243.792H373.982C373.982 246.723 375.058 249.338 377.094 251.439L382.839 245.873ZM381.982 243.792C381.982 242.971 382.225 242.39 382.795 241.82L377.138 236.164C375.062 238.239 373.982 240.858 373.982 243.792H381.982ZM382.795 241.82C383.364 241.251 383.946 241.008 384.767 241.008V233.008C381.833 233.008 379.214 234.088 377.138 236.164L382.795 241.82ZM384.767 241.008C385.475 241.008 386.03 241.22 386.63 241.839L392.375 236.273C390.33 234.161 387.727 233.008 384.767 233.008V241.008ZM386.719 241.929C387.338 242.529 387.55 243.083 387.55 243.792H395.55C395.55 240.831 394.397 238.229 392.286 236.183L386.719 241.929ZM387.55 243.792C387.55 244.575 387.313 245.188 386.674 245.828L392.331 251.484C394.422 249.393 395.55 246.764 395.55 243.792H387.55ZM386.674 245.828C386.085 246.417 385.517 246.64 384.767 246.64V254.64C387.685 254.64 390.275 253.541 392.331 251.484L386.674 245.828ZM397.404 248.656L394.531 251.439L394.553 251.462L394.576 251.484L397.404 248.656ZM397.404 238.992L394.576 236.164L397.404 238.992ZM406.94 239.056L404.067 241.839L404.111 241.885L404.157 241.929L406.94 239.056ZM406.94 248.656L404.112 245.828L406.94 248.656ZM402.204 246.64C401.383 246.64 400.802 246.397 400.232 245.828L394.576 251.484C396.651 253.56 399.27 254.64 402.204 254.64V246.64ZM400.277 245.873C399.667 245.243 399.42 244.616 399.42 243.792H391.42C391.42 246.723 392.496 249.338 394.531 251.439L400.277 245.873ZM399.42 243.792C399.42 242.971 399.663 242.39 400.232 241.82L394.576 236.164C392.5 238.239 391.42 240.858 391.42 243.792H399.42ZM400.232 241.82C400.802 241.251 401.383 241.008 402.204 241.008V233.008C399.27 233.008 396.651 234.088 394.576 236.164L400.232 241.82ZM402.204 241.008C402.913 241.008 403.467 241.22 404.067 241.839L409.813 236.273C407.767 234.161 405.165 233.008 402.204 233.008V241.008ZM404.157 241.929C404.776 242.529 404.988 243.083 404.988 243.792H412.988C412.988 240.831 411.835 238.229 409.723 236.183L404.157 241.929ZM404.988 243.792C404.988 244.575 404.751 245.188 404.112 245.828L409.768 251.484C411.86 249.393 412.988 246.764 412.988 243.792H404.988ZM404.112 245.828C403.523 246.417 402.955 246.64 402.204 246.64V254.64C405.123 254.64 407.712 253.541 409.768 251.484L404.112 245.828ZM428.794 214.16L424.943 213.077L424.937 213.097L424.932 213.116L428.794 214.16ZM428.986 221.648L425.632 223.828L425.658 223.868L425.684 223.907L428.986 221.648ZM431.546 222.864H435.546V218.864H431.546V222.864ZM431.546 229.392V233.392H435.546V229.392H431.546ZM428.986 230.672L425.632 228.492L425.617 228.514L425.604 228.536L428.986 230.672ZM428.794 238.096L432.674 237.126L432.664 237.085L432.653 237.044L428.794 238.096ZM426.874 248.336L423.907 245.652L423.89 245.672L423.872 245.692L426.874 248.336ZM420.73 252.304L419.445 248.516L419.417 248.525L419.388 248.536L420.73 252.304ZM412.857 253.648H408.857V257.648H412.857V253.648ZM412.857 247.184V243.184H408.857V247.184H412.857ZM414.906 246.8L417.124 250.128L417.162 250.103L417.199 250.077L414.906 246.8ZM414.65 240.592L410.79 241.644L410.792 241.651L414.65 240.592ZM418.682 226.128L420.931 229.436L425.795 226.128L420.931 222.82L418.682 226.128ZM414.65 211.664L418.502 212.739L418.505 212.731L418.507 212.723L414.65 211.664ZM414.906 205.52L412.45 208.677L412.64 208.826L412.848 208.95L414.906 205.52ZM412.857 205.072H408.857V209.072H412.857V205.072ZM412.857 198.608V194.608H408.857V198.608H412.857ZM420.73 199.952L419.388 203.72L419.417 203.731L419.445 203.74L420.73 199.952ZM426.938 203.92L423.971 206.604L423.987 206.621L424.004 206.639L426.938 203.92ZM424.932 213.116C424.449 214.905 424.154 216.638 424.154 218.256H432.154C432.154 217.57 432.285 216.572 432.655 215.204L424.932 213.116ZM424.154 218.256C424.154 220.152 424.523 222.121 425.632 223.828L432.339 219.468C432.339 219.468 432.154 219.176 432.154 218.256H424.154ZM425.684 223.907C427.122 226.007 429.336 226.864 431.546 226.864V218.864C431.435 218.864 431.544 218.845 431.758 218.947C431.864 218.997 431.972 219.066 432.072 219.153C432.171 219.238 432.241 219.323 432.287 219.389L425.684 223.907ZM427.546 222.864V229.392H435.546V222.864H427.546ZM431.546 225.392C429.25 225.392 427.032 226.338 425.632 228.492L432.339 232.852C432.256 232.981 432.083 233.163 431.83 233.29C431.598 233.406 431.463 233.392 431.546 233.392V225.392ZM425.604 228.536C424.541 230.219 424.217 232.169 424.217 234H432.217C432.217 233.015 432.406 232.746 432.367 232.808L425.604 228.536ZM424.217 234C424.217 235.713 424.466 237.432 424.934 239.148L432.653 237.044C432.353 235.944 432.217 234.933 432.217 234H424.217ZM424.913 239.066C425.202 240.223 425.305 241.079 425.305 241.68H433.305C433.305 240.233 433.067 238.699 432.674 237.126L424.913 239.066ZM425.305 241.68C425.305 243.435 424.798 244.668 423.907 245.652L429.84 251.02C432.192 248.42 433.305 245.215 433.305 241.68H425.305ZM423.872 245.692C422.807 246.901 421.377 247.861 419.445 248.516L422.014 256.092C425.117 255.04 427.783 253.355 429.875 250.98L423.872 245.692ZM419.388 248.536C417.311 249.275 415.141 249.648 412.857 249.648V257.648C416.035 257.648 419.113 257.125 422.071 256.072L419.388 248.536ZM416.857 253.648V247.184H408.857V253.648H416.857ZM412.857 251.184C413.916 251.184 415.671 251.097 417.124 250.128L412.687 243.472C412.913 243.321 413.102 243.242 413.207 243.204C413.313 243.166 413.374 243.155 413.368 243.157C413.365 243.157 413.322 243.165 413.231 243.172C413.141 243.179 413.018 243.184 412.857 243.184V251.184ZM417.199 250.077C419.138 248.72 419.546 246.619 419.546 245.2H411.546C411.546 245.237 411.537 245.026 411.672 244.69C411.823 244.312 412.123 243.865 412.612 243.523L417.199 250.077ZM419.546 245.2C419.546 243.701 419.098 241.688 418.507 239.533L410.792 241.651C411.395 243.848 411.546 244.907 411.546 245.2H419.546ZM418.509 239.54C418.066 237.919 417.882 236.573 417.882 235.472H409.882C409.882 237.443 410.209 239.511 410.79 241.644L418.509 239.54ZM417.882 235.472C417.882 232.668 418.886 230.826 420.931 229.436L416.432 222.82C412.077 225.782 409.882 230.169 409.882 235.472H417.882ZM420.931 222.82C418.886 221.43 417.882 219.588 417.882 216.784H409.882C409.882 222.087 412.077 226.474 416.432 229.436L420.931 222.82ZM417.882 216.784C417.882 215.635 418.069 214.293 418.502 212.739L410.797 210.589C410.206 212.704 409.882 214.776 409.882 216.784H417.882ZM418.507 212.723C419.098 210.568 419.546 208.555 419.546 207.056H411.546C411.546 207.349 411.395 208.408 410.792 210.605L418.507 212.723ZM419.546 207.056C419.546 205.697 419.159 203.407 416.964 202.09L412.848 208.95C412.244 208.588 411.876 208.072 411.693 207.634C411.535 207.254 411.546 207.011 411.546 207.056H419.546ZM417.361 202.363C415.85 201.187 413.972 201.072 412.857 201.072V209.072C413.166 209.072 413.277 209.097 413.251 209.092C413.231 209.087 413.144 209.067 413.013 209.012C412.881 208.957 412.678 208.855 412.45 208.677L417.361 202.363ZM416.857 205.072V198.608H408.857V205.072H416.857ZM412.857 202.608C415.141 202.608 417.311 202.981 419.388 203.72L422.071 196.184C419.113 195.131 416.035 194.608 412.857 194.608V202.608ZM419.445 203.74C421.383 204.397 422.852 205.366 423.971 206.604L429.904 201.236C427.78 198.89 425.111 197.214 422.014 196.164L419.445 203.74ZM424.004 206.639C424.875 207.579 425.37 208.754 425.37 210.448H433.37C433.37 206.937 432.243 203.76 429.871 201.201L424.004 206.639ZM425.37 210.448C425.37 211.106 425.254 211.971 424.943 213.077L432.644 215.243C433.101 213.618 433.37 212.009 433.37 210.448H425.37ZM286.552 327V323H281.759L282.617 327.716L286.552 327ZM289.048 331.608L286.367 334.576L286.417 334.622L286.469 334.665L289.048 331.608ZM299.864 332.312L301.452 335.983L301.493 335.966L301.534 335.947L299.864 332.312ZM303.64 329.304L305.407 325.716L302.398 324.233L300.414 326.939L303.64 329.304ZM315.032 333.848L318.689 335.468L320.457 331.477L316.328 330.064L315.032 333.848ZM307.8 341.016L309.606 344.585L309.615 344.581L309.624 344.576L307.8 341.016ZM278.104 338.648L275.311 341.512L275.329 341.529L275.347 341.546L278.104 338.648ZM278.104 312.408L280.879 315.289L278.104 312.408ZM305.56 309.592L303.908 313.235H303.908L305.56 309.592ZM312.92 315.672L309.575 317.865L309.583 317.878L309.592 317.891L312.92 315.672ZM315.352 327V331H318.784L319.305 327.608L315.352 327ZM289.88 318.296L291.922 321.735H291.922L289.88 318.296ZM287 321.624L283.278 320.158L281.125 325.624H287V321.624ZM302.104 321.624V325.624H307.876L305.849 320.22L302.104 321.624ZM299.608 318.36L297.227 321.574L297.266 321.603L297.306 321.631L299.608 318.36ZM307.416 323H286.552V331H307.416V323ZM282.617 327.716C283.104 330.396 284.341 332.747 286.367 334.576L291.729 328.64C291.11 328.08 290.683 327.358 290.487 326.284L282.617 327.716ZM286.469 334.665C288.791 336.624 291.751 337.336 294.808 337.336V329.336C292.916 329.336 292.036 328.896 291.627 328.551L286.469 334.665ZM294.808 337.336C297.123 337.336 299.351 336.892 301.452 335.983L298.276 328.641C297.22 329.097 296.077 329.336 294.808 329.336V337.336ZM301.534 335.947C303.671 334.965 305.487 333.549 306.866 331.669L300.414 326.939C299.915 327.619 299.215 328.208 298.194 328.677L301.534 335.947ZM301.873 332.892C304.945 334.406 308.919 335.983 313.736 337.632L316.328 330.064C311.673 328.47 308.053 327.018 305.407 325.716L301.873 332.892ZM311.375 332.228C310.494 334.216 308.832 335.993 305.976 337.456L309.624 344.576C313.766 342.455 316.924 339.453 318.689 335.468L311.375 332.228ZM305.994 337.447C303.29 338.816 299.452 339.64 294.232 339.64V347.64C300.19 347.64 305.398 346.715 309.606 344.585L305.994 337.447ZM294.232 339.64C287.5 339.64 283.317 338.086 280.861 335.75L275.347 341.546C279.889 345.866 286.458 347.64 294.232 347.64V339.64ZM280.897 335.784C278.317 333.268 276.92 329.938 276.92 325.4H268.92C268.92 331.785 270.979 337.286 275.311 341.512L280.897 335.784ZM276.92 325.4C276.92 321.02 278.297 317.775 280.879 315.289L275.329 309.527C270.999 313.697 268.92 319.113 268.92 325.4H276.92ZM280.879 315.289C283.281 312.976 287.444 311.416 294.232 311.416V303.416C286.428 303.416 279.839 305.184 275.329 309.527L280.879 315.289ZM294.232 311.416C298.147 311.416 301.336 312.069 303.908 313.235L307.212 305.949C303.384 304.214 299.021 303.416 294.232 303.416V311.416ZM303.908 313.235C306.51 314.414 308.336 315.976 309.575 317.865L316.265 313.479C314.091 310.163 311.01 307.671 307.212 305.949L303.908 313.235ZM309.592 317.891C310.824 319.74 311.48 321.898 311.48 324.504H319.48C319.48 320.454 318.429 316.724 316.248 313.453L309.592 317.891ZM311.48 324.504C311.48 325.566 311.436 326.149 311.399 326.392L319.305 327.608C319.439 326.741 319.48 325.661 319.48 324.504H311.48ZM315.352 323H307.416V331H315.352V323ZM295.128 313.08C292.515 313.08 289.998 313.574 287.838 314.857L291.922 321.735C292.492 321.397 293.475 321.08 295.128 321.08V313.08ZM287.838 314.857C285.75 316.096 284.175 317.881 283.278 320.158L290.722 323.09C290.934 322.551 291.28 322.117 291.922 321.735L287.838 314.857ZM287 325.624H302.104V317.624H287V325.624ZM305.849 320.22C305.065 318.129 303.744 316.379 301.91 315.089L297.306 321.631C297.776 321.962 298.119 322.388 298.359 323.028L305.849 320.22ZM301.989 315.146C299.977 313.655 297.579 313.08 295.128 313.08V321.08C296.347 321.08 296.935 321.358 297.227 321.574L301.989 315.146ZM334.975 317.4L338.974 317.467L338.976 317.392L338.974 317.317L334.975 317.4ZM335.039 343V347H339.16L339.037 342.881L335.039 343ZM319.935 343L315.935 342.965L315.899 347H319.935V343ZM319.999 335.768L315.999 335.725L315.999 335.733L319.999 335.768ZM319.999 299.992L315.999 300.029L315.999 300.037L319.999 299.992ZM319.935 293.08V289.08H315.898L315.935 293.117L319.935 293.08ZM335.039 293.08L339.039 293.136L339.096 289.08H335.039V293.08ZM330.976 317.333C330.932 319.928 330.911 323.881 330.911 329.176H338.911C338.911 323.889 338.932 319.992 338.974 317.467L330.976 317.333ZM330.911 329.176C330.911 335.537 330.954 340.196 331.041 343.119L339.037 342.881C338.954 340.086 338.911 335.529 338.911 329.176H330.911ZM335.039 339H319.935V347H335.039V339ZM323.935 343.035L323.999 335.803L315.999 335.733L315.935 342.965L323.935 343.035ZM323.999 335.811C324.084 327.87 324.127 321.731 324.127 317.4H316.127C316.127 321.688 316.085 327.794 315.999 335.725L323.999 335.811ZM324.127 317.4C324.127 313.281 324.084 307.461 323.999 299.947L315.999 300.037C316.085 307.542 316.127 313.327 316.127 317.4H324.127ZM323.999 299.955L323.935 293.043L315.935 293.117L315.999 300.029L323.999 299.955ZM319.935 297.08H335.039V289.08H319.935V297.08ZM331.039 293.024C330.954 299.092 330.911 304.062 330.911 307.928H338.911C338.911 304.114 338.953 299.186 339.039 293.136L331.039 293.024ZM330.911 307.928C330.911 312.199 330.932 315.391 330.976 317.483L338.974 317.317C338.932 315.313 338.911 312.19 338.911 307.928H330.911ZM349.913 342.168L348.838 346.021L348.864 346.028L348.891 346.035L349.913 342.168ZM339.545 337.56L336.321 335.193L333.782 338.651L337.409 340.942L339.545 337.56ZM346.265 328.408L348.597 325.158L345.382 322.852L343.041 326.041L346.265 328.408ZM353.369 331.736L352.247 335.575L352.274 335.583L352.301 335.591L353.369 331.736ZM364.953 332.12L366.742 335.698L366.77 335.684L366.798 335.669L364.953 332.12ZM361.753 327.896L361.518 323.903L361.511 323.903L361.503 323.904L361.753 327.896ZM360.089 328.024L359.691 324.044L359.661 324.047L359.631 324.05L360.089 328.024ZM343.961 326.296L341.858 329.698L341.894 329.721L341.93 329.742L343.961 326.296ZM345.753 310.552L347.756 314.015L347.771 314.006L347.787 313.997L345.753 310.552ZM371.545 308.888L370.44 312.732L370.468 312.74L370.497 312.748L371.545 308.888ZM380.697 313.176L383.538 315.992L386.822 312.679L383.047 309.939L380.697 313.176ZM373.337 320.6L371.474 324.14L374.094 325.518L376.178 323.416L373.337 320.6ZM366.489 317.912L365.463 321.778L365.509 321.79L365.556 321.802L366.489 317.912ZM356.313 317.976L354.359 314.486L356.313 317.976ZM355.353 321.432L352.854 324.555L352.926 324.613L353 324.667L355.353 321.432ZM360.153 321.752L359.88 317.761L359.817 317.766L359.755 317.772L360.153 321.752ZM377.433 323.672L379.526 320.263L377.433 323.672ZM375.705 340.568L377.69 344.041L377.705 344.032L377.72 344.023L375.705 340.568ZM360.857 339.64C357.642 339.64 354.337 339.2 350.935 338.301L348.891 346.035C352.913 347.098 356.904 347.64 360.857 347.64V339.64ZM350.988 338.315C347.696 337.396 344.597 336.02 341.681 334.178L337.409 340.942C340.978 343.196 344.791 344.892 348.838 346.021L350.988 338.315ZM342.769 339.927L349.489 330.775L343.041 326.041L336.321 335.193L342.769 339.927ZM343.933 331.658C346.327 333.375 349.123 334.662 352.247 335.575L354.491 327.897C352.069 327.189 350.128 326.257 348.597 325.158L343.933 331.658ZM352.301 335.591C355.285 336.417 358.052 336.888 360.537 336.888V328.888C359.011 328.888 356.999 328.591 354.437 327.881L352.301 335.591ZM360.537 336.888C362.71 336.888 364.907 336.615 366.742 335.698L363.164 328.542C362.951 328.649 362.204 328.888 360.537 328.888V336.888ZM366.798 335.669C368.574 334.746 370.553 332.939 370.553 330.008H362.553C362.553 329.797 362.587 329.562 362.669 329.324C362.75 329.088 362.86 328.899 362.965 328.761C363.161 328.501 363.295 328.474 363.108 328.571L366.798 335.669ZM370.553 330.008C370.553 328.164 369.78 326.404 368.185 325.208L363.385 331.608C363.17 331.447 362.927 331.186 362.755 330.827C362.587 330.476 362.553 330.174 362.553 330.008H370.553ZM368.185 325.208C366.752 324.133 365.097 323.832 363.673 323.832V331.832C363.843 331.832 363.879 331.851 363.821 331.835C363.753 331.817 363.585 331.758 363.385 331.608L368.185 325.208ZM363.673 323.832C363.02 323.832 362.299 323.857 361.518 323.903L361.988 331.889C362.657 331.85 363.216 331.832 363.673 331.832V323.832ZM361.503 323.904C360.797 323.948 360.187 323.994 359.691 324.044L360.487 332.004C360.844 331.968 361.344 331.929 362.003 331.888L361.503 323.904ZM359.631 324.05C357.571 324.288 355.442 324.408 353.241 324.408V332.408C355.733 332.408 358.169 332.272 360.548 331.998L359.631 324.05ZM353.241 324.408C349.905 324.408 347.579 323.785 345.992 322.85L341.93 329.742C345.121 331.623 348.982 332.408 353.241 332.408V324.408ZM346.064 322.894C345.12 322.31 344.441 321.398 344.441 319.256H336.441C336.441 323.6 338.108 327.381 341.858 329.698L346.064 322.894ZM344.441 319.256C344.441 317.078 345.316 315.426 347.756 314.015L343.75 307.089C339.108 309.774 336.441 313.924 336.441 319.256H344.441ZM347.787 313.997C350.427 312.438 354.789 311.416 361.369 311.416V303.416C354.21 303.416 348.162 304.485 343.719 307.107L347.787 313.997ZM361.369 311.416C364.346 311.416 367.366 311.849 370.44 312.732L372.65 305.044C368.897 303.965 365.133 303.416 361.369 303.416V311.416ZM370.497 312.748C373.529 313.572 376.13 314.804 378.347 316.413L383.047 309.939C379.973 307.708 376.473 306.081 372.593 305.028L370.497 312.748ZM377.856 310.36L370.496 317.784L376.178 323.416L383.538 315.992L377.856 310.36ZM375.2 317.06C372.544 315.663 369.948 314.629 367.422 314.022L365.556 321.802C367.296 322.219 369.266 322.977 371.474 324.14L375.2 317.06ZM367.515 314.046C365.094 313.404 362.637 313.08 360.153 313.08V321.08C361.935 321.08 363.703 321.311 365.463 321.778L367.515 314.046ZM360.153 313.08C358.126 313.08 356.141 313.488 354.359 314.486L358.267 321.466C358.618 321.27 359.194 321.08 360.153 321.08V313.08ZM354.359 314.486C352.826 315.344 350.713 317.081 350.713 320.024H358.713C358.713 320.306 358.662 320.586 358.567 320.844C358.474 321.097 358.357 321.281 358.265 321.399C358.1 321.61 358.021 321.604 358.267 321.466L354.359 314.486ZM350.713 320.024C350.713 321.707 351.382 323.378 352.854 324.555L357.852 318.309C358.099 318.507 358.345 318.797 358.514 319.169C358.679 319.53 358.713 319.842 358.713 320.024H350.713ZM353 324.667C354.308 325.618 355.788 325.944 357.145 325.944V317.944C357.093 317.944 357.139 317.938 357.252 317.97C357.372 318.004 357.535 318.073 357.706 318.197L353 324.667ZM357.145 325.944C358.067 325.944 359.223 325.865 360.551 325.732L359.755 317.772C358.523 317.895 357.674 317.944 357.145 317.944V325.944ZM360.426 325.743C363.523 325.531 365.736 325.432 367.129 325.432V317.432C365.45 317.432 363.013 317.547 359.88 317.761L360.426 325.743ZM367.129 325.432C371.204 325.432 373.795 326.132 375.34 327.081L379.526 320.263C376.207 318.225 371.929 317.432 367.129 317.432V325.432ZM375.34 327.081C376.482 327.782 377.081 328.71 377.081 330.52H385.081C385.081 326.186 383.248 322.549 379.526 320.263L375.34 327.081ZM377.081 330.52C377.081 333.895 375.889 335.83 373.69 337.113L377.72 344.023C382.689 341.125 385.081 336.361 385.081 330.52H377.081ZM373.72 337.095C370.979 338.662 366.814 339.64 360.857 339.64V347.64C367.529 347.64 373.263 346.57 377.69 344.041L373.72 337.095ZM398.552 327V323H393.759L394.617 327.716L398.552 327ZM401.048 331.608L398.367 334.576L398.417 334.622L398.469 334.665L401.048 331.608ZM411.864 332.312L413.452 335.983L413.493 335.966L413.534 335.947L411.864 332.312ZM415.64 329.304L417.407 325.716L414.398 324.233L412.414 326.939L415.64 329.304ZM427.032 333.848L430.689 335.468L432.457 331.477L428.328 330.064L427.032 333.848ZM419.8 341.016L421.606 344.585L421.615 344.581L421.624 344.576L419.8 341.016ZM390.104 338.648L387.311 341.512L387.329 341.529L387.347 341.546L390.104 338.648ZM390.104 312.408L392.879 315.289L390.104 312.408ZM417.56 309.592L415.908 313.235L417.56 309.592ZM424.92 315.672L421.575 317.865L421.583 317.878L421.592 317.891L424.92 315.672ZM427.352 327V331H430.784L431.305 327.608L427.352 327ZM401.88 318.296L403.922 321.735H403.922L401.88 318.296ZM399 321.624L395.278 320.158L393.125 325.624H399V321.624ZM414.104 321.624V325.624H419.876L417.849 320.22L414.104 321.624ZM411.608 318.36L409.227 321.574L409.266 321.603L409.306 321.631L411.608 318.36ZM419.416 323H398.552V331H419.416V323ZM394.617 327.716C395.104 330.396 396.341 332.747 398.367 334.576L403.729 328.64C403.109 328.08 402.683 327.358 402.487 326.284L394.617 327.716ZM398.469 334.665C400.791 336.624 403.751 337.336 406.808 337.336V329.336C404.916 329.336 404.036 328.896 403.627 328.551L398.469 334.665ZM406.808 337.336C409.123 337.336 411.351 336.892 413.452 335.983L410.276 328.641C409.22 329.097 408.077 329.336 406.808 329.336V337.336ZM413.534 335.947C415.671 334.965 417.488 333.549 418.866 331.669L412.414 326.939C411.915 327.619 411.215 328.208 410.194 328.677L413.534 335.947ZM413.873 332.892C416.945 334.406 420.919 335.983 425.736 337.632L428.328 330.064C423.673 328.47 420.053 327.018 417.407 325.716L413.873 332.892ZM423.375 332.228C422.494 334.216 420.832 335.993 417.977 337.456L421.624 344.576C425.766 342.455 428.924 339.453 430.689 335.468L423.375 332.228ZM417.994 337.447C415.29 338.816 411.452 339.64 406.232 339.64V347.64C412.19 347.64 417.398 346.715 421.606 344.585L417.994 337.447ZM406.232 339.64C399.5 339.64 395.317 338.086 392.861 335.75L387.347 341.546C391.889 345.866 398.458 347.64 406.232 347.64V339.64ZM392.897 335.784C390.317 333.268 388.92 329.938 388.92 325.4H380.92C380.92 331.785 382.979 337.286 387.311 341.512L392.897 335.784ZM388.92 325.4C388.92 321.02 390.297 317.775 392.879 315.289L387.329 309.527C382.999 313.697 380.92 319.113 380.92 325.4H388.92ZM392.879 315.289C395.281 312.976 399.444 311.416 406.232 311.416V303.416C398.428 303.416 391.839 305.184 387.329 309.527L392.879 315.289ZM406.232 311.416C410.147 311.416 413.336 312.069 415.908 313.235L419.212 305.949C415.384 304.214 411.021 303.416 406.232 303.416V311.416ZM415.908 313.235C418.51 314.414 420.336 315.976 421.575 317.865L428.265 313.479C426.091 310.163 423.01 307.671 419.212 305.949L415.908 313.235ZM421.592 317.891C422.824 319.74 423.48 321.898 423.48 324.504H431.48C431.48 320.454 430.429 316.724 428.248 313.453L421.592 317.891ZM423.48 324.504C423.48 325.566 423.436 326.149 423.399 326.392L431.305 327.608C431.439 326.741 431.48 325.661 431.48 324.504H423.48ZM427.352 323H419.416V331H427.352V323ZM407.128 313.08C404.515 313.08 401.998 313.574 399.838 314.857L403.922 321.735C404.492 321.397 405.475 321.08 407.128 321.08V313.08ZM399.838 314.857C397.75 316.096 396.175 317.881 395.278 320.158L402.722 323.09C402.934 322.551 403.28 322.117 403.922 321.735L399.838 314.857ZM399 325.624H414.104V317.624H399V325.624ZM417.849 320.22C417.065 318.129 415.744 316.379 413.91 315.089L409.306 321.631C409.776 321.962 410.119 322.388 410.359 323.028L417.849 320.22ZM413.989 315.146C411.977 313.655 409.579 313.08 407.128 313.08V321.08C408.347 321.08 408.935 321.358 409.227 321.574L413.989 315.146ZM462.796 298.072V302.072H466.796V298.072H462.796ZM460.684 298.52L462.902 301.848L462.94 301.823L462.977 301.797L460.684 298.52ZM461.003 304.664L457.146 305.723L457.148 305.731L457.151 305.739L461.003 304.664ZM456.971 319.128L454.722 315.82L449.858 319.128L454.722 322.436L456.971 319.128ZM461.003 333.592L464.861 334.651L464.863 334.644L461.003 333.592ZM460.684 339.8L458.228 342.957L458.418 343.106L458.626 343.23L460.684 339.8ZM462.796 340.184H466.796V336.184H462.796V340.184ZM462.796 346.648V350.648H466.796V346.648H462.796ZM454.924 345.304L456.265 341.536L456.236 341.525L456.208 341.516L454.924 345.304ZM448.715 341.336L445.714 343.98L445.732 344L445.749 344.02L448.715 341.336ZM446.859 331.096L443 330.044L442.989 330.085L442.979 330.126L446.859 331.096ZM446.604 323.672L443.174 325.73L443.235 325.832L443.302 325.931L446.604 323.672ZM444.107 322.392H440.107V326.392H444.107V322.392ZM444.107 315.864V311.864H440.107V315.864H444.107ZM446.667 314.648L449.969 316.907L449.995 316.868L450.021 316.828L446.667 314.648ZM446.859 307.16L450.721 306.116L450.716 306.097L450.71 306.077L446.859 307.16ZM448.715 296.92L451.649 299.639L451.666 299.621L451.682 299.604L448.715 296.92ZM454.924 292.952L456.208 296.74L456.236 296.731L456.265 296.72L454.924 292.952ZM462.796 291.608H466.796V287.608H462.796V291.608ZM462.796 294.072C461.614 294.072 459.862 294.212 458.39 295.243L462.977 301.797C462.79 301.928 462.63 302.003 462.529 302.043C462.428 302.083 462.366 302.096 462.362 302.097C462.356 302.098 462.387 302.091 462.465 302.084C462.541 302.078 462.65 302.072 462.796 302.072V294.072ZM458.465 295.192C456.385 296.578 456.107 298.85 456.107 300.056H464.107C464.107 299.972 464.122 300.166 463.997 300.5C463.854 300.881 463.53 301.43 462.902 301.848L458.465 295.192ZM456.107 300.056C456.107 301.555 456.555 303.568 457.146 305.723L464.861 303.605C464.258 301.408 464.107 300.349 464.107 300.056H456.107ZM457.151 305.739C457.584 307.293 457.771 308.635 457.771 309.784H465.771C465.771 307.776 465.447 305.704 464.856 303.589L457.151 305.739ZM457.771 309.784C457.771 312.588 456.767 314.43 454.722 315.82L459.221 322.436C463.576 319.474 465.771 315.087 465.771 309.784H457.771ZM454.722 322.436C456.767 323.826 457.771 325.668 457.771 328.472H465.771C465.771 323.169 463.576 318.782 459.221 315.82L454.722 322.436ZM457.771 328.472C457.771 329.573 457.587 330.919 457.144 332.54L464.863 334.644C465.444 332.511 465.771 330.443 465.771 328.472H457.771ZM457.146 332.533C456.555 334.688 456.107 336.701 456.107 338.2H464.107C464.107 337.907 464.258 336.848 464.861 334.651L457.146 332.533ZM456.107 338.2C456.107 339.482 456.415 341.548 458.228 342.957L463.139 336.643C463.638 337.031 463.898 337.495 464.015 337.821C464.12 338.113 464.107 338.275 464.107 338.2H456.107ZM458.626 343.23C460.032 344.074 461.67 344.184 462.796 344.184V336.184C462.636 336.184 462.51 336.179 462.414 336.171C462.318 336.164 462.265 336.156 462.247 336.153C462.228 336.149 462.265 336.154 462.342 336.18C462.418 336.206 462.562 336.262 462.741 336.37L458.626 343.23ZM458.796 340.184V346.648H466.796V340.184H458.796ZM462.796 342.648C460.512 342.648 458.342 342.275 456.265 341.536L453.582 349.072C456.54 350.125 459.618 350.648 462.796 350.648V342.648ZM456.208 341.516C454.27 340.859 452.801 339.89 451.682 338.652L445.749 344.02C447.873 346.366 450.542 348.042 453.639 349.092L456.208 341.516ZM451.717 338.692C450.853 337.711 450.348 336.465 450.348 334.68H442.348C442.348 338.186 443.421 341.377 445.714 343.98L451.717 338.692ZM450.348 334.68C450.348 334.079 450.451 333.223 450.74 332.066L442.979 330.126C442.586 331.699 442.348 333.233 442.348 334.68H450.348ZM450.719 332.148C451.187 330.432 451.436 328.713 451.436 327H443.436C443.436 327.933 443.3 328.944 443 330.044L450.719 332.148ZM451.436 327C451.436 325.12 451.073 323.12 449.905 321.413L443.302 325.931C443.244 325.845 443.436 326.064 443.436 327H451.436ZM450.033 321.614C448.673 319.347 446.402 318.392 444.107 318.392V326.392C444.194 326.392 444.035 326.407 443.77 326.271C443.478 326.122 443.276 325.901 443.174 325.73L450.033 321.614ZM448.107 322.392V315.864H440.107V322.392H448.107ZM444.107 319.864C446.317 319.864 448.531 319.007 449.969 316.907L443.366 312.389C443.412 312.323 443.482 312.238 443.581 312.153C443.681 312.066 443.789 311.997 443.895 311.947C444.109 311.845 444.218 311.864 444.107 311.864V319.864ZM450.021 316.828C451.13 315.121 451.499 313.152 451.499 311.256H443.499C443.499 312.176 443.314 312.468 443.314 312.468L450.021 316.828ZM451.499 311.256C451.499 309.638 451.204 307.905 450.721 306.116L442.998 308.204C443.368 309.572 443.499 310.57 443.499 311.256H451.499ZM450.71 306.077C450.399 304.971 450.283 304.106 450.283 303.448H442.283C442.283 305.009 442.552 306.618 443.009 308.243L450.71 306.077ZM450.283 303.448C450.283 301.754 450.778 300.579 451.649 299.639L445.782 294.201C443.41 296.76 442.283 299.937 442.283 303.448H450.283ZM451.682 299.604C452.801 298.366 454.27 297.397 456.208 296.74L453.639 289.164C450.542 290.214 447.873 291.89 445.749 294.236L451.682 299.604ZM456.265 296.72C458.342 295.981 460.512 295.608 462.796 295.608V287.608C459.618 287.608 456.54 288.131 453.582 289.184L456.265 296.72ZM458.796 291.608V298.072H466.796V291.608H458.796ZM468.592 341.656L465.719 344.439L465.741 344.462L465.763 344.484L468.592 341.656ZM468.592 331.992L465.763 329.164L468.592 331.992ZM478.128 332.056L475.255 334.839L475.299 334.885L475.344 334.929L478.128 332.056ZM478.128 341.656L475.299 338.828L478.128 341.656ZM473.391 339.64C472.571 339.64 471.989 339.397 471.42 338.828L465.763 344.484C467.839 346.56 470.458 347.64 473.391 347.64V339.64ZM471.464 338.873C470.854 338.243 470.607 337.616 470.607 336.792H462.607C462.607 339.723 463.683 342.338 465.719 344.439L471.464 338.873ZM470.607 336.792C470.607 335.971 470.85 335.39 471.42 334.82L465.763 329.164C463.687 331.239 462.607 333.858 462.607 336.792H470.607ZM471.42 334.82C471.989 334.251 472.571 334.008 473.391 334.008V326.008C470.458 326.008 467.839 327.088 465.763 329.164L471.42 334.82ZM473.391 334.008C474.1 334.008 474.655 334.22 475.255 334.839L481 329.273C478.955 327.161 476.352 326.008 473.391 326.008V334.008ZM475.344 334.929C475.963 335.529 476.176 336.083 476.176 336.792H484.176C484.176 333.831 483.022 331.229 480.911 329.183L475.344 334.929ZM476.176 336.792C476.176 337.575 475.938 338.188 475.299 338.828L480.956 344.484C483.047 342.393 484.176 339.764 484.176 336.792H476.176ZM475.299 338.828C474.71 339.417 474.142 339.64 473.391 339.64V347.64C476.31 347.64 478.9 346.541 480.956 344.484L475.299 338.828ZM486.029 341.656L483.156 344.439L483.178 344.462L483.201 344.484L486.029 341.656ZM486.029 331.992L483.201 329.164L486.029 331.992ZM495.565 332.056L492.692 334.839L492.736 334.885L492.782 334.929L495.565 332.056ZM495.565 341.656L492.737 338.828L495.565 341.656ZM490.829 339.64C490.008 339.64 489.427 339.397 488.857 338.828L483.201 344.484C485.276 346.56 487.895 347.64 490.829 347.64V339.64ZM488.902 338.873C488.292 338.243 488.045 337.616 488.045 336.792H480.045C480.045 339.723 481.121 342.338 483.156 344.439L488.902 338.873ZM488.045 336.792C488.045 335.971 488.288 335.39 488.857 334.82L483.201 329.164C481.125 331.239 480.045 333.858 480.045 336.792H488.045ZM488.857 334.82C489.427 334.251 490.008 334.008 490.829 334.008V326.008C487.895 326.008 485.276 327.088 483.201 329.164L488.857 334.82ZM490.829 334.008C491.538 334.008 492.092 334.22 492.692 334.839L498.438 329.273C496.392 327.161 493.79 326.008 490.829 326.008V334.008ZM492.782 334.929C493.401 335.529 493.613 336.083 493.613 336.792H501.613C501.613 333.831 500.46 331.229 498.348 329.183L492.782 334.929ZM493.613 336.792C493.613 337.575 493.376 338.188 492.737 338.828L498.393 344.484C500.485 342.393 501.613 339.764 501.613 336.792H493.613ZM492.737 338.828C492.148 339.417 491.58 339.64 490.829 339.64V347.64C493.748 347.64 496.337 346.541 498.393 344.484L492.737 338.828ZM503.467 341.656L500.594 344.439L500.616 344.462L500.638 344.484L503.467 341.656ZM503.467 331.992L500.638 329.164L503.467 331.992ZM513.003 332.056L510.13 334.839L510.174 334.885L510.219 334.929L513.003 332.056ZM513.003 341.656L510.174 338.828L513.003 341.656ZM508.266 339.64C507.446 339.64 506.864 339.397 506.295 338.828L500.638 344.484C502.714 346.56 505.333 347.64 508.266 347.64V339.64ZM506.339 338.873C505.729 338.243 505.482 337.616 505.482 336.792H497.482C497.482 339.723 498.558 342.338 500.594 344.439L506.339 338.873ZM505.482 336.792C505.482 335.971 505.725 335.39 506.295 334.82L500.638 329.164C498.562 331.239 497.482 333.858 497.482 336.792H505.482ZM506.295 334.82C506.864 334.251 507.446 334.008 508.266 334.008V326.008C505.333 326.008 502.714 327.088 500.638 329.164L506.295 334.82ZM508.266 334.008C508.975 334.008 509.53 334.22 510.13 334.839L515.875 329.273C513.83 327.161 511.227 326.008 508.266 326.008V334.008ZM510.219 334.929C510.838 335.529 511.051 336.083 511.051 336.792H519.051C519.051 333.831 517.897 331.229 515.786 329.183L510.219 334.929ZM511.051 336.792C511.051 337.575 510.813 338.188 510.174 338.828L515.831 344.484C517.922 342.393 519.051 339.764 519.051 336.792H511.051ZM510.174 338.828C509.585 339.417 509.017 339.64 508.266 339.64V347.64C511.185 347.64 513.775 346.541 515.831 344.484L510.174 338.828ZM534.856 307.16L531.005 306.077L531 306.097L530.995 306.116L534.856 307.16ZM535.048 314.648L531.694 316.828L531.72 316.868L531.747 316.907L535.048 314.648ZM537.608 315.864H541.608V311.864H537.608V315.864ZM537.608 322.392V326.392H541.608V322.392H537.608ZM535.048 323.672L531.694 321.492L531.68 321.514L531.666 321.536L535.048 323.672ZM534.856 331.096L538.737 330.126L538.726 330.085L538.715 330.044L534.856 331.096ZM532.936 341.336L529.97 338.652L529.952 338.672L529.935 338.692L532.936 341.336ZM526.792 345.304L525.508 341.516L525.479 341.525L525.451 341.536L526.792 345.304ZM518.92 346.648H514.92V350.648H518.92V346.648ZM518.92 340.184V336.184H514.92V340.184H518.92ZM520.968 339.8L523.187 343.128L523.225 343.103L523.262 343.077L520.968 339.8ZM520.712 333.592L516.853 334.644L516.855 334.651L520.712 333.592ZM524.744 319.128L526.993 322.436L531.858 319.128L526.993 315.82L524.744 319.128ZM520.712 304.664L524.565 305.739L524.567 305.731L524.569 305.723L520.712 304.664ZM520.968 298.52L518.512 301.677L518.703 301.826L518.91 301.95L520.968 298.52ZM518.92 298.072H514.92V302.072H518.92V298.072ZM518.92 291.608V287.608H514.92V291.608H518.92ZM526.792 292.952L525.451 296.72L525.479 296.731L525.508 296.74L526.792 292.952ZM533 296.92L530.034 299.604L530.05 299.621L530.066 299.639L533 296.92ZM530.995 306.116C530.511 307.905 530.216 309.638 530.216 311.256H538.216C538.216 310.57 538.348 309.572 538.717 308.204L530.995 306.116ZM530.216 311.256C530.216 313.152 530.585 315.121 531.694 316.828L538.402 312.468C538.402 312.468 538.216 312.176 538.216 311.256H530.216ZM531.747 316.907C533.184 319.007 535.398 319.864 537.608 319.864V311.864C537.498 311.864 537.606 311.845 537.82 311.947C537.926 311.997 538.034 312.066 538.134 312.153C538.234 312.238 538.304 312.323 538.349 312.389L531.747 316.907ZM533.608 315.864V322.392H541.608V315.864H533.608ZM537.608 318.392C535.312 318.392 533.094 319.338 531.694 321.492L538.402 325.852C538.318 325.981 538.146 326.163 537.893 326.29C537.66 326.406 537.526 326.392 537.608 326.392V318.392ZM531.666 321.536C530.603 323.219 530.28 325.169 530.28 327H538.28C538.28 326.015 538.469 325.746 538.43 325.808L531.666 321.536ZM530.28 327C530.28 328.713 530.529 330.432 530.997 332.148L538.715 330.044C538.415 328.944 538.28 327.933 538.28 327H530.28ZM530.975 332.066C531.265 333.223 531.368 334.079 531.368 334.68H539.368C539.368 333.233 539.13 331.699 538.737 330.126L530.975 332.066ZM531.368 334.68C531.368 336.435 530.861 337.668 529.97 338.652L535.902 344.02C538.254 341.42 539.368 338.215 539.368 334.68H531.368ZM529.935 338.692C528.869 339.901 527.439 340.861 525.508 341.516L528.076 349.092C531.18 348.04 533.846 346.355 535.937 343.98L529.935 338.692ZM525.451 341.536C523.373 342.275 521.204 342.648 518.92 342.648V350.648C522.098 350.648 525.176 350.125 528.133 349.072L525.451 341.536ZM522.92 346.648V340.184H514.92V346.648H522.92ZM518.92 344.184C519.978 344.184 521.733 344.097 523.187 343.128L518.749 336.472C518.975 336.321 519.164 336.242 519.269 336.204C519.376 336.166 519.436 336.155 519.431 336.157C519.427 336.157 519.385 336.165 519.293 336.172C519.203 336.179 519.08 336.184 518.92 336.184V344.184ZM523.262 343.077C525.2 341.72 525.608 339.619 525.608 338.2H517.608C517.608 338.237 517.6 338.026 517.734 337.69C517.886 337.312 518.185 336.865 518.674 336.523L523.262 343.077ZM525.608 338.2C525.608 336.701 525.161 334.688 524.569 332.533L516.855 334.651C517.458 336.848 517.608 337.907 517.608 338.2H525.608ZM524.571 332.54C524.129 330.919 523.944 329.573 523.944 328.472H515.944C515.944 330.443 516.271 332.511 516.853 334.644L524.571 332.54ZM523.944 328.472C523.944 325.668 524.949 323.826 526.993 322.436L522.495 315.82C518.139 318.782 515.944 323.169 515.944 328.472H523.944ZM526.993 315.82C524.949 314.43 523.944 312.588 523.944 309.784H515.944C515.944 315.087 518.139 319.474 522.495 322.436L526.993 315.82ZM523.944 309.784C523.944 308.635 524.131 307.293 524.565 305.739L516.859 303.589C516.269 305.704 515.944 307.776 515.944 309.784H523.944ZM524.569 305.723C525.161 303.568 525.608 301.555 525.608 300.056H517.608C517.608 300.349 517.458 301.408 516.855 303.605L524.569 305.723ZM525.608 300.056C525.608 298.697 525.221 296.407 523.026 295.09L518.91 301.95C518.307 301.588 517.938 301.072 517.756 300.634C517.597 300.254 517.608 300.011 517.608 300.056H525.608ZM523.424 295.363C521.912 294.187 520.034 294.072 518.92 294.072V302.072C519.229 302.072 519.34 302.097 519.313 302.092C519.293 302.087 519.206 302.067 519.075 302.012C518.943 301.957 518.74 301.855 518.512 301.677L523.424 295.363ZM522.92 298.072V291.608H514.92V298.072H522.92ZM518.92 295.608C521.204 295.608 523.373 295.981 525.451 296.72L528.133 289.184C525.176 288.131 522.098 287.608 518.92 287.608V295.608ZM525.508 296.74C527.446 297.397 528.915 298.366 530.034 299.604L535.966 294.236C533.843 291.89 531.173 290.214 528.076 289.164L525.508 296.74ZM530.066 299.639C530.937 300.579 531.432 301.754 531.432 303.448H539.432C539.432 299.937 538.306 296.76 535.934 294.201L530.066 299.639ZM531.432 303.448C531.432 304.106 531.316 304.971 531.005 306.077L538.707 308.243C539.164 306.618 539.432 305.009 539.432 303.448H531.432Z" fill="white" mask="url(#path-1-outside-1_243_311)"/>
</svg>
