<svg width="866" height="539" viewBox="0 0 866 539" fill="none" xmlns="http://www.w3.org/2000/svg">
<rect width="866" height="539" fill="#F2F2F2"/>
<path d="M189.6 166.888H176.688C176.064 170.2 174.96 172.744 172.896 175.528C170.208 179.272 167.568 181.432 162.432 184.12L162.048 183.4C165.696 180.952 167.472 179.32 169.536 176.584C173.472 171.208 174.432 166.408 174.432 151.336C174.432 147.784 174.384 145.336 174.192 141.544C175.824 142.456 176.304 142.792 177.84 143.944H189.36C190.176 143.032 190.416 142.744 191.232 141.832C192.624 142.888 193.056 143.176 194.304 144.184C194.592 144.472 194.736 144.616 194.736 144.76C194.736 145 194.016 145.576 193.056 146.104V170.824C193.104 173.32 193.104 173.32 193.152 175.528C193.152 177.64 193.152 177.688 193.2 179.416C193.2 180.856 193.008 181.48 192.432 182.104C191.664 182.92 190.512 183.304 187.44 183.784C186.624 181.144 185.952 180.808 180.816 180.328V179.416C184.128 179.56 184.608 179.608 188.736 179.704C188.784 179.704 188.832 179.704 188.88 179.704C189.504 179.704 189.6 179.56 189.6 178.84V166.888ZM177.504 154.648H189.648V145H177.552C177.6 146.104 177.6 146.92 177.6 147.496C177.6 148.072 177.6 148.648 177.504 154.648ZM189.6 155.752H177.456C177.36 161.032 177.168 163.864 176.88 165.784H189.6V155.752ZM157.344 168.952V172.84C157.248 173.656 157.248 173.656 154.656 173.752C154.224 173.704 154.08 173.56 153.984 173.032C154.128 168.28 154.176 165.4 154.176 157.576C154.176 148.168 154.128 145.96 153.984 142.696C155.616 143.608 156.096 143.944 157.632 145H165.888C166.704 144.136 166.944 143.848 167.76 143.032C168.96 143.944 169.296 144.232 170.4 145.192C170.736 145.48 170.832 145.624 170.832 145.768C170.832 146.008 170.496 146.248 169.296 146.968V165.88C169.296 166.744 169.296 167.896 169.344 171.352C169.248 172.216 168.864 172.36 166.8 172.36C166.368 172.36 166.176 172.216 166.128 171.784V168.952H157.344ZM166.128 156.28V146.104H157.344V156.28H166.128ZM166.128 157.384H157.344V167.848H166.128V157.384ZM213.408 167.752V174.136H216.768C217.776 172.888 218.064 172.504 219.072 171.352C220.56 172.648 221.04 173.08 222.528 174.52C222.624 174.712 222.72 174.856 222.72 175C222.72 175.144 222.528 175.24 222.192 175.24H213.408V175.912C213.408 181.864 213.408 181.864 213.456 183.88C213.408 184.408 212.832 184.552 210.576 184.552C210.144 184.552 210 184.456 210 184.168C210.096 180.28 210.096 178.84 210.096 176.104V175.24H203.76C202.416 175.24 201.648 175.336 200.208 175.624L199.92 173.752C201.264 174.04 202.08 174.136 203.76 174.136H210.096V167.752H205.632V170.104C205.632 170.44 205.584 170.488 205.248 170.584C204.816 170.728 203.808 170.824 203.232 170.824C202.752 170.824 202.656 170.728 202.656 170.392V170.296C202.704 168.664 202.752 167.56 202.752 167.176C202.752 155.464 202.752 154.504 202.464 152.104C204.144 153.016 204.624 153.304 206.16 154.264H210.096V148.168H203.76C202.368 148.168 201.456 148.264 200.448 148.456L200.112 146.68C201.408 147.016 202.128 147.064 203.76 147.064H210.096V145.192C210.096 142.84 210.096 142.36 209.904 140.632C214.704 141.256 215.328 141.4 215.328 141.88C215.328 142.216 214.896 142.456 213.408 142.936V147.064H217.728C218.736 145.768 219.072 145.384 220.128 144.088C221.664 145.528 222.144 145.96 223.632 147.448C223.824 147.688 223.92 147.832 223.92 147.928C223.92 148.072 223.776 148.168 223.632 148.168H213.408V154.264H217.344C218.16 153.304 218.448 153.016 219.216 152.104C220.368 153.016 220.704 153.304 221.76 154.264C222.144 154.6 222.24 154.744 222.24 154.888C222.24 155.128 221.856 155.512 220.8 156.136C220.8 157.816 220.8 158.872 220.8 159.976C220.8 163.432 220.848 165.352 220.992 169.144C220.992 169.192 220.992 169.24 220.992 169.24C220.992 169.72 219.936 170.008 218.4 170.008C217.872 170.008 217.728 169.912 217.728 169.624V169.576V167.752H213.408ZM205.632 160.072H217.728V155.368H205.632V160.072ZM217.728 161.176H205.632V166.648H217.728V161.176ZM237.888 166.648H228.192C227.712 170.392 226.464 173.848 224.64 176.968C223.056 179.656 221.424 181.432 217.728 184.456L217.248 183.88C221.184 179.608 223.104 176.344 224.352 171.832C225.408 167.8 225.696 163.816 225.696 151.672C225.696 146.104 225.648 144.712 225.504 142.072C227.184 142.888 227.712 143.128 229.296 144.088H237.552C238.32 143.128 238.56 142.84 239.328 141.928C240.48 142.84 240.864 143.128 241.968 144.088C242.352 144.424 242.496 144.616 242.496 144.808C242.496 145.048 242.112 145.432 241.152 146.056V170.536C241.152 174.952 241.152 175.72 241.344 179.896C241.296 181.288 241.056 181.864 240.144 182.536C239.184 183.208 238.272 183.544 236.448 183.88C236.16 182.584 235.824 182.152 234.816 181.672C233.712 181.096 232.176 180.712 229.248 180.28L229.296 179.608C232.512 179.8 233.664 179.848 237.36 179.896C237.408 179.896 237.456 179.896 237.456 179.896C237.792 179.896 237.888 179.8 237.888 179.416V166.648ZM228.816 154.6H237.888V145.192H228.864C228.864 146.392 228.864 147.352 228.864 148.072L228.816 154.6ZM237.888 155.704H228.816C228.768 160.792 228.672 161.944 228.336 165.544H237.888V155.704ZM267.696 172.648H272.784C272.784 172.216 272.784 172.216 272.832 167.656L273.024 155.992C270.24 161.704 268.608 164.344 265.92 167.656C263.376 170.776 261.264 172.84 258.144 175.24L257.664 174.568C261.456 170.728 263.952 167.32 266.928 161.896C268.8 158.488 269.664 156.568 270.912 152.968H264.24C262.32 152.968 261.6 153.016 259.728 153.256L259.296 151.336C260.976 151.672 262.848 151.864 264.576 151.864H272.832V145.144C272.832 144.088 272.736 143.224 272.496 141.304C278.016 141.88 278.256 141.928 278.256 142.504C278.256 142.888 278.112 142.936 276.192 143.656V151.864H284.256C285.408 150.328 285.792 149.848 286.992 148.36C289.056 149.944 289.728 150.472 291.696 152.248C291.84 152.392 291.936 152.584 291.936 152.632C291.936 152.776 291.696 152.968 291.456 152.968H276.336C277.584 156.28 278.64 158.056 281.088 160.984C283.584 163.912 286.512 166.6 289.104 168.376C290.304 169.144 291.168 169.576 293.136 170.392L292.944 170.92C291.168 171.304 290.256 172.024 289.344 173.752C286.128 171.16 283.872 168.712 281.328 164.872C278.784 161.08 277.344 158.152 275.952 153.976L276.192 167.848L276.24 172.648H279.264C280.368 171.304 280.704 170.92 281.712 169.576C283.488 171.112 284.016 171.592 285.552 173.128C285.648 173.272 285.744 173.416 285.744 173.464C285.744 173.608 285.552 173.752 285.36 173.752H276.24C276.336 180.136 276.336 180.136 276.432 183.64C276.336 184.072 276.24 184.12 275.76 184.216C274.848 184.408 274.416 184.456 273.84 184.456C272.88 184.456 272.736 184.36 272.64 183.832C272.688 180.232 272.688 180.232 272.784 173.752H267.312C266.064 173.752 265.344 173.8 263.808 173.944L263.424 172.216C264.912 172.552 265.728 172.648 267.696 172.648ZM247.728 165.112L247.2 164.536C248.928 162.52 249.888 161.032 251.472 157.864C254.928 151 256.848 146.056 258.096 140.632C262.8 142.024 263.328 142.216 263.328 142.648C263.328 143.128 262.848 143.32 261.168 143.512C259.056 148.744 257.52 151.816 255.072 155.848C257.808 156.136 258.432 156.28 258.432 156.664C258.432 157 258.048 157.24 256.896 157.72V167.848C256.896 170.2 256.896 172.216 256.896 173.896C256.848 176.296 256.848 177.88 256.848 178.696C256.848 179.32 256.848 179.32 256.896 183.256C256.896 183.688 256.848 183.784 256.56 183.976C256.32 184.12 255.264 184.264 254.448 184.264C253.824 184.264 253.68 184.12 253.632 183.304L253.68 174.856L253.632 167.848V158.104C251.28 161.608 250.128 163 247.728 165.112Z" fill="black"/>
<path d="M466.888 144.952L469 143.32C471.736 145.48 473.56 147.304 475.624 150.184L473.464 152.056C471.592 149.32 469.672 147.16 466.888 144.952ZM471.976 141.688L473.992 139.96C476.68 142.168 478.12 143.512 480.232 146.392L478.168 148.216C476.248 145.528 474.76 143.896 471.976 141.688ZM470.776 170.392L470.968 177.448L470.728 177.688L463.72 177.496H448.072L440.824 177.688V174.232L448.072 174.376H467.128V154.696H448.504L441.256 154.84V151.384L448.504 151.576H463.72L470.728 151.384L470.968 151.624L470.776 158.68V170.392ZM490.216 157.864L492.904 156.28C495.352 159.4 496.6 161.56 498.328 165.592L495.496 167.128C493.624 162.856 492.52 160.888 490.216 157.864ZM500.2 155.944L502.936 154.552C505.192 158.104 506.104 160.024 507.4 163.48L504.52 164.92C503.08 160.936 502.072 158.824 500.2 155.944ZM519.64 156.376L519.112 158.44C516.712 171.976 509.368 178.936 497.224 182.728C496.648 181.624 495.832 180.76 495.064 180.088C506.008 176.872 514.216 170.536 515.752 157C514.888 156.376 514.504 155.944 514.504 155.56C514.504 155.224 514.744 155.08 515.176 155.08C515.752 155.08 517.096 155.416 519.64 156.376ZM539.128 149.704L540.232 146.536C545.32 147.736 549.496 149.08 553.528 151.192L551.992 154.264C548.344 152.248 544.264 150.856 539.128 149.704ZM536.392 160.072L537.496 157C542.488 158.104 545.992 159.16 550.36 160.936L549.064 163.96C544.936 162.328 541.288 161.176 536.392 160.072ZM542.152 180.52L539.464 181.096C538.408 178.168 537.976 177.112 537.976 176.632C537.976 176.248 538.216 176.008 538.552 176.008C538.84 176.008 539.32 176.344 540.136 177.064C553.72 175.288 562.888 167.368 568.888 151.384C569.896 152.632 570.76 153.448 571.624 154.168C565.816 169.48 556.456 177.688 542.152 180.52ZM599.272 149.224L612.088 149.176L613.24 148.264H613.816C615.928 150.328 616.888 151.576 616.888 152.104C616.888 152.632 616.36 152.92 615.544 153.256C609.112 168.616 601.768 176.584 588.28 181.912C587.848 181.144 587.176 180.136 586.216 179.176C599.8 173.8 606.856 165.64 611.848 152.152L597.448 152.2C594.328 156.952 590.824 160.648 586.648 164.296C585.832 163.384 584.968 162.76 584.008 162.136C590.2 156.904 594.568 151.624 597.112 145.288C596.248 144.52 595.96 144.136 595.96 143.8C595.96 143.512 596.248 143.32 596.44 143.32C597.112 143.32 597.976 143.608 601.384 145.192C600.712 146.632 599.992 147.976 599.272 149.224ZM655.768 150.664H662.872L670.072 150.472V153.448L662.872 153.256H656.776C659.656 162.376 665.368 169.72 671.32 173.8C670.504 174.712 669.736 175.48 669.16 176.536C663.16 171.304 658.36 165.208 655.576 156.136L655.768 173.224H658.696L663.496 173.032V175.912L658.696 175.72H655.816L655.912 184.936H652.6L652.696 175.72H650.536L645.256 175.912V173.032L650.536 173.224H652.744L652.936 156.472C650.68 163.96 646.36 170.68 639.688 176.68C639.16 175.72 638.488 175.096 637.672 174.328C644.584 168.76 648.808 161.608 651.88 153.256H645.928L638.728 153.448V150.472L645.928 150.664H652.744V144.424C652.744 143.032 652.6 141.784 652.36 140.632C656.584 140.776 657.352 141.112 657.352 141.64C657.352 142.072 656.824 142.36 655.768 142.792V150.664ZM633.016 166.024L633.352 159.112C632.008 162.136 630.52 165.208 628.744 168.28C628.024 167.464 627.016 166.744 626.296 166.36C630.088 160.408 633.448 151.528 634.984 146.152C635.608 143.992 636.088 141.784 636.088 140.776C639.592 141.976 640.792 142.504 640.792 143.08C640.792 143.656 640.36 143.848 638.824 143.896C637.816 147.16 636.76 150.472 635.512 153.784C637.336 154.024 637.576 154.312 637.576 154.744C637.576 155.176 637.048 155.464 635.992 155.896V184.84H632.824L633.016 177.64V166.024Z" fill="black"/>
<path d="M173.216 320.528C172.832 320.528 172.496 320.64 172.208 320.864C171.92 321.088 171.776 321.344 171.776 321.632C171.776 321.952 171.92 322.224 172.208 322.448C172.496 322.672 172.832 322.784 173.216 322.784H174.224C174.64 322.784 174.976 322.928 175.232 323.216C175.52 323.472 175.664 323.808 175.664 324.224V325.232C175.664 325.648 175.52 326 175.232 326.288C174.976 326.544 174.64 326.672 174.224 326.672H172.352C171.936 326.672 171.472 326.592 170.96 326.432C170.48 326.24 170.096 326.016 169.808 325.76L168.512 324.56C168.224 324.304 167.968 323.952 167.744 323.504C167.552 323.024 167.456 322.592 167.456 322.208V321.968C167.456 321.584 167.328 321.248 167.072 320.96C166.848 320.672 166.56 320.528 166.208 320.528C165.888 320.528 165.6 320.672 165.344 320.96C165.12 321.248 165.008 321.584 165.008 321.968V325.232C165.008 325.648 164.864 326 164.576 326.288C164.32 326.544 163.984 326.672 163.568 326.672H162.08C161.696 326.672 161.36 326.544 161.072 326.288C160.784 326 160.64 325.648 160.64 325.232V321.104C160.64 320.72 160.736 320.288 160.928 319.808C161.152 319.328 161.392 318.944 161.648 318.656L163.136 317.216C163.424 316.928 163.808 316.688 164.288 316.496C164.768 316.304 165.2 316.208 165.584 316.208H174.224C174.64 316.208 174.976 316.352 175.232 316.64C175.52 316.896 175.664 317.232 175.664 317.648V319.088C175.664 319.504 175.52 319.856 175.232 320.144C174.976 320.4 174.64 320.528 174.224 320.528H173.216ZM184.832 324.56C184.544 324.304 184.288 323.952 184.064 323.504C183.872 323.024 183.776 322.592 183.776 322.208V321.968C183.776 321.584 183.664 321.248 183.44 320.96C183.216 320.672 182.928 320.528 182.576 320.528C182.224 320.528 181.936 320.672 181.712 320.96C181.488 321.248 181.376 321.584 181.376 321.968V325.232C181.376 325.648 181.232 326 180.944 326.288C180.688 326.544 180.352 326.672 179.936 326.672H178.448C178.064 326.672 177.728 326.544 177.44 326.288C177.152 326 177.008 325.648 177.008 325.232V321.104C177.008 320.72 177.104 320.288 177.296 319.808C177.52 319.328 177.776 318.944 178.064 318.656L179.504 317.216C179.792 316.928 180.176 316.688 180.656 316.496C181.136 316.304 181.568 316.208 181.952 316.208H190.64C191.024 316.208 191.36 316.352 191.648 316.64C191.936 316.896 192.08 317.232 192.08 317.648V319.088C192.08 319.504 191.936 319.856 191.648 320.144C191.36 320.4 191.024 320.528 190.64 320.528H189.584C189.168 320.528 188.816 320.64 188.528 320.864C188.272 321.088 188.144 321.344 188.144 321.632C188.144 321.952 188.272 322.224 188.528 322.448C188.816 322.672 189.168 322.784 189.584 322.784H190.64C191.024 322.784 191.36 322.928 191.648 323.216C191.936 323.472 192.08 323.808 192.08 324.224V325.232C192.08 325.648 191.936 326 191.648 326.288C191.36 326.544 191.024 326.672 190.64 326.672H188.72C188.304 326.672 187.856 326.592 187.376 326.432C186.896 326.24 186.496 326.016 186.176 325.76L184.832 324.56ZM174.272 340.16C174.272 339.904 174.128 339.696 173.84 339.536C173.552 339.344 173.216 339.248 172.832 339.248H161.792C161.408 339.248 161.072 339.104 160.784 338.816C160.496 338.528 160.352 338.192 160.352 337.808V336.368C160.352 335.952 160.496 335.616 160.784 335.36C161.072 335.072 161.408 334.928 161.792 334.928H172.832C173.216 334.928 173.552 334.848 173.84 334.688C174.128 334.528 174.272 334.32 174.272 334.064C174.272 333.808 174.128 333.6 173.84 333.44C173.552 333.28 173.216 333.2 172.832 333.2H163.136C162.72 333.2 162.368 333.072 162.08 332.816C161.824 332.528 161.696 332.176 161.696 331.76V330.32C161.696 329.936 161.824 329.6 162.08 329.312C162.368 329.024 162.72 328.88 163.136 328.88H172.832C173.792 328.88 174.272 328.72 174.272 328.4C174.272 328.24 174.4 328.112 174.656 328.016C174.944 327.92 175.296 327.872 175.712 327.872H177.152C177.568 327.872 177.904 327.92 178.16 328.016C178.448 328.112 178.592 328.24 178.592 328.4C178.592 328.72 179.072 328.88 180.032 328.88H190.448C190.64 328.88 190.8 329.024 190.928 329.312C191.088 329.6 191.168 329.936 191.168 330.32V333.488C191.168 333.872 191.2 334.208 191.264 334.496C191.36 334.784 191.472 334.928 191.6 334.928C191.728 334.928 191.824 335.072 191.888 335.36C191.984 335.616 192.032 335.952 192.032 336.368V337.808C192.032 338.192 191.984 338.528 191.888 338.816C191.824 339.104 191.728 339.248 191.6 339.248C191.472 339.248 191.36 339.376 191.264 339.632C191.2 339.888 191.168 340.192 191.168 340.544C191.168 340.928 191.072 341.36 190.88 341.84C190.688 342.288 190.448 342.64 190.16 342.896L188.768 344.24C188.48 344.528 188.096 344.768 187.616 344.96C187.136 345.152 186.688 345.248 186.272 345.248H180.032C179.648 345.248 179.312 345.328 179.024 345.488C178.736 345.616 178.592 345.792 178.592 346.016C178.592 346.24 178.736 346.432 179.024 346.592C179.312 346.72 179.648 346.784 180.032 346.784H189.776C190.192 346.784 190.528 346.928 190.784 347.216C191.072 347.504 191.216 347.84 191.216 348.224V349.664C191.216 350.08 191.072 350.432 190.784 350.72C190.528 350.976 190.192 351.104 189.776 351.104H180.032C179.648 351.104 179.312 351.184 179.024 351.344C178.736 351.472 178.592 351.616 178.592 351.776C178.592 351.968 178.736 352.144 179.024 352.304C179.312 352.432 179.648 352.496 180.032 352.496H190.64C191.024 352.496 191.36 352.64 191.648 352.928C191.936 353.184 192.08 353.52 192.08 353.936V355.376C192.08 355.76 191.936 356.096 191.648 356.384C191.36 356.672 191.024 356.816 190.64 356.816H180.032C179.648 356.816 179.312 356.944 179.024 357.2C178.736 357.456 178.592 357.76 178.592 358.112C178.592 358.464 178.448 358.768 178.16 359.024C177.904 359.28 177.568 359.408 177.152 359.408H175.712C175.296 359.408 174.944 359.28 174.656 359.024C174.4 358.768 174.272 358.464 174.272 358.112C174.272 357.76 174.128 357.456 173.84 357.2C173.552 356.944 173.216 356.816 172.832 356.816H162.08C161.664 356.816 161.312 356.672 161.024 356.384C160.768 356.096 160.64 355.76 160.64 355.376V353.936C160.64 353.52 160.768 353.184 161.024 352.928C161.312 352.64 161.664 352.496 162.08 352.496H172.832C173.216 352.496 173.552 352.432 173.84 352.304C174.128 352.144 174.272 351.968 174.272 351.776C174.272 351.616 174.128 351.472 173.84 351.344C173.552 351.184 173.216 351.104 172.832 351.104H162.416C162.032 351.104 161.696 350.976 161.408 350.72C161.12 350.432 160.976 350.08 160.976 349.664V348.224C160.976 347.84 161.12 347.504 161.408 347.216C161.696 346.928 162.032 346.784 162.416 346.784H172.832C173.216 346.784 173.552 346.72 173.84 346.592C174.128 346.432 174.272 346.24 174.272 346.016C174.272 345.792 174.128 345.616 173.84 345.488C173.552 345.328 173.216 345.248 172.832 345.248H163.136C162.72 345.248 162.368 345.12 162.08 344.864C161.824 344.576 161.696 344.224 161.696 343.808V342.512C161.696 342.128 161.824 341.792 162.08 341.504C162.368 341.216 162.72 341.072 163.136 341.072H172.832C173.216 341.072 173.552 340.992 173.84 340.832C174.128 340.64 174.272 340.416 174.272 340.16ZM178.592 334.064C178.592 334.32 178.736 334.528 179.024 334.688C179.312 334.848 179.648 334.928 180.032 334.928H185.36C185.776 334.928 186.112 334.848 186.368 334.688C186.656 334.528 186.8 334.32 186.8 334.064C186.8 333.808 186.656 333.6 186.368 333.44C186.112 333.28 185.776 333.2 185.36 333.2H180.032C179.648 333.2 179.312 333.28 179.024 333.44C178.736 333.6 178.592 333.808 178.592 334.064ZM186.8 340.16C186.8 339.904 186.656 339.696 186.368 339.536C186.112 339.344 185.776 339.248 185.36 339.248H180.032C179.648 339.248 179.312 339.344 179.024 339.536C178.736 339.696 178.592 339.904 178.592 340.16C178.592 340.416 178.736 340.64 179.024 340.832C179.312 340.992 179.648 341.072 180.032 341.072H185.36C185.776 341.072 186.112 340.992 186.368 340.832C186.656 340.64 186.8 340.416 186.8 340.16ZM216.879 332.288C216.495 332.288 216.159 332.352 215.871 332.48C215.583 332.608 215.439 332.768 215.439 332.96C215.439 333.12 215.583 333.28 215.871 333.44C216.159 333.568 216.495 333.632 216.879 333.632H227.103C227.519 333.632 227.855 333.776 228.111 334.064C228.399 334.32 228.543 334.656 228.543 335.072V336.512C228.543 336.896 228.399 337.232 228.111 337.52C227.855 337.808 227.519 337.952 227.103 337.952H216.879C216.495 337.952 216.159 338.016 215.871 338.144C215.583 338.24 215.439 338.368 215.439 338.528C215.439 338.688 215.583 338.832 215.871 338.96C216.159 339.088 216.495 339.152 216.879 339.152H227.439C227.855 339.152 228.191 339.296 228.447 339.584C228.735 339.872 228.879 340.208 228.879 340.592V342.032C228.879 342.448 228.735 342.8 228.447 343.088C228.191 343.344 227.855 343.472 227.439 343.472H198.927C198.511 343.472 198.159 343.344 197.871 343.088C197.615 342.8 197.487 342.448 197.487 342.032V340.592C197.487 340.208 197.615 339.872 197.871 339.584C198.159 339.296 198.511 339.152 198.927 339.152H209.631C210.047 339.152 210.383 339.088 210.639 338.96C210.927 338.832 211.071 338.688 211.071 338.528C211.071 338.368 210.927 338.24 210.639 338.144C210.383 338.016 210.047 337.952 209.631 337.952H199.263C198.879 337.952 198.543 337.808 198.255 337.52C197.967 337.232 197.823 336.896 197.823 336.512V335.072C197.823 334.656 197.967 334.32 198.255 334.064C198.543 333.776 198.879 333.632 199.263 333.632H209.631C210.015 333.632 210.351 333.568 210.639 333.44C210.927 333.28 211.071 333.12 211.071 332.96C211.071 332.768 210.927 332.608 210.639 332.48C210.383 332.352 210.047 332.288 209.631 332.288H199.983C199.567 332.288 199.215 332.16 198.927 331.904C198.671 331.616 198.543 331.264 198.543 330.848V329.408C198.543 329.024 198.671 328.688 198.927 328.4C199.215 328.112 199.567 327.968 199.983 327.968H209.631C210.047 327.968 210.383 327.92 210.639 327.824C210.927 327.696 211.071 327.552 211.071 327.392C211.071 327.232 210.927 327.088 210.639 326.96C210.383 326.832 210.047 326.768 209.631 326.768H198.639C198.255 326.768 197.919 326.64 197.631 326.384C197.343 326.096 197.199 325.744 197.199 325.328V324.416C197.199 324.032 197.343 323.696 197.631 323.408C197.919 323.12 198.255 322.976 198.639 322.976H209.631C210.047 322.976 210.383 322.928 210.639 322.832C210.927 322.704 211.071 322.56 211.071 322.4C211.071 322.24 210.927 322.096 210.639 321.968C210.383 321.84 210.047 321.776 209.631 321.776H199.983C199.567 321.776 199.215 321.648 198.927 321.392C198.671 321.104 198.543 320.752 198.543 320.336V318.896C198.543 318.512 198.671 318.176 198.927 317.888C199.215 317.6 199.567 317.456 199.983 317.456H209.631C210.047 317.456 210.383 317.392 210.639 317.264C210.927 317.136 211.071 316.992 211.071 316.832C211.071 316.64 211.215 316.48 211.503 316.352C211.791 316.224 212.127 316.16 212.511 316.16H213.999C214.415 316.16 214.751 316.224 215.007 316.352C215.295 316.48 215.439 316.64 215.439 316.832C215.439 316.992 215.583 317.136 215.871 317.264C216.159 317.392 216.495 317.456 216.879 317.456H227.295C227.487 317.456 227.647 317.6 227.775 317.888C227.935 318.176 228.015 318.512 228.015 318.896V321.536C228.015 321.952 228.047 322.304 228.111 322.592C228.207 322.848 228.319 322.976 228.447 322.976C228.575 322.976 228.671 323.12 228.735 323.408C228.831 323.696 228.879 324.032 228.879 324.416V325.328C228.879 325.744 228.831 326.096 228.735 326.384C228.671 326.64 228.575 326.768 228.447 326.768C228.319 326.768 228.207 326.88 228.111 327.104C228.047 327.296 228.015 327.536 228.015 327.824C228.015 328.112 227.919 328.464 227.727 328.88C227.535 329.264 227.295 329.6 227.007 329.888L225.567 331.28C225.311 331.568 224.943 331.808 224.463 332C223.983 332.192 223.535 332.288 223.119 332.288H216.879ZM215.439 322.4C215.439 322.56 215.583 322.704 215.871 322.832C216.159 322.928 216.495 322.976 216.879 322.976H222.207C222.623 322.976 222.959 322.928 223.215 322.832C223.503 322.704 223.647 322.56 223.647 322.4C223.647 322.24 223.503 322.096 223.215 321.968C222.959 321.84 222.623 321.776 222.207 321.776H216.879C216.495 321.776 216.159 321.84 215.871 321.968C215.583 322.096 215.439 322.24 215.439 322.4ZM215.439 327.392C215.439 327.552 215.583 327.696 215.871 327.824C216.159 327.92 216.495 327.968 216.879 327.968H222.207C222.623 327.968 222.959 327.92 223.215 327.824C223.503 327.696 223.647 327.552 223.647 327.392C223.647 327.232 223.503 327.088 223.215 326.96C222.959 326.832 222.623 326.768 222.207 326.768H216.879C216.495 326.768 216.159 326.832 215.871 326.96C215.583 327.088 215.439 327.232 215.439 327.392ZM227.295 344.528C227.487 344.528 227.647 344.672 227.775 344.96C227.935 345.216 228.015 345.552 228.015 345.968V354.512C228.015 354.896 227.919 355.328 227.727 355.808C227.535 356.288 227.295 356.672 227.007 356.96L225.567 358.352C225.311 358.64 224.943 358.88 224.463 359.072C223.983 359.264 223.535 359.36 223.119 359.36H199.983C199.567 359.36 199.215 359.216 198.927 358.928C198.671 358.672 198.543 358.336 198.543 357.92V345.968C198.543 345.008 198.703 344.528 199.023 344.528H227.295ZM204.303 348.848C203.919 348.848 203.583 348.912 203.295 349.04C203.007 349.168 202.863 349.312 202.863 349.472C202.863 349.664 203.007 349.824 203.295 349.952C203.583 350.08 203.919 350.144 204.303 350.144H222.207C222.623 350.144 222.959 350.08 223.215 349.952C223.503 349.824 223.647 349.664 223.647 349.472C223.647 349.312 223.503 349.168 223.215 349.04C222.959 348.912 222.623 348.848 222.207 348.848H204.303ZM222.207 355.04C222.623 355.04 222.959 354.992 223.215 354.896C223.503 354.8 223.647 354.672 223.647 354.512C223.647 354.352 223.503 354.224 223.215 354.128C222.959 354 222.623 353.936 222.207 353.936H204.303C203.919 353.936 203.583 354 203.295 354.128C203.007 354.224 202.863 354.352 202.863 354.512C202.863 354.672 202.991 354.8 203.247 354.896C203.535 354.992 203.887 355.04 204.303 355.04H222.207ZM233.758 329.744C233.758 329.296 233.886 328.912 234.142 328.592C234.398 328.272 234.702 328.112 235.054 328.112C235.406 328.112 235.694 327.952 235.918 327.632C236.174 327.28 236.302 326.88 236.302 326.432V318.56C236.302 318.112 236.462 317.728 236.782 317.408C237.134 317.088 237.534 316.928 237.982 316.928H239.086C239.534 316.928 239.918 317.088 240.238 317.408C240.59 317.728 240.766 318.112 240.766 318.56V327.296C240.766 327.744 240.702 328.192 240.574 328.64C240.446 329.056 240.302 329.36 240.142 329.552C239.918 329.744 239.742 330.064 239.614 330.512C239.518 330.928 239.47 331.392 239.47 331.904V359.312C239.47 359.76 239.31 360.144 238.99 360.464C238.67 360.816 238.27 360.992 237.79 360.992H236.734C236.286 360.992 235.886 360.816 235.534 360.464C235.214 360.144 235.054 359.76 235.054 359.312V334.112C235.054 333.632 234.99 333.248 234.862 332.96C234.766 332.64 234.606 332.48 234.382 332.48C234.222 332.48 234.078 332.32 233.95 332C233.822 331.648 233.758 331.248 233.758 330.8V329.744ZM256.174 345.536C256.174 346.016 256.318 346.416 256.606 346.736C256.926 347.056 257.31 347.216 257.758 347.216C258.142 347.216 258.478 347.056 258.766 346.736C259.086 346.416 259.246 346.016 259.246 345.536V328.448C259.246 328 259.406 327.616 259.726 327.296C260.046 326.944 260.43 326.768 260.878 326.768H261.982C262.43 326.768 262.814 326.944 263.134 327.296C263.454 327.616 263.614 328 263.614 328.448V354.08C263.614 354.56 263.71 354.96 263.902 355.28C264.094 355.6 264.334 355.76 264.622 355.76C264.878 355.76 265.102 355.92 265.294 356.24C265.486 356.56 265.582 356.944 265.582 357.392V358.496C265.582 358.944 265.438 359.328 265.15 359.648C264.894 360 264.574 360.176 264.19 360.176C263.806 360.176 263.358 360.048 262.846 359.792C262.366 359.568 261.934 359.296 261.55 358.976L260.35 357.776C260.062 357.456 259.806 357.008 259.582 356.432C259.358 355.888 259.246 355.392 259.246 354.944V353.312C259.246 352.864 259.086 352.48 258.766 352.16C258.478 351.808 258.142 351.632 257.758 351.632C257.31 351.632 256.926 351.808 256.606 352.16C256.318 352.48 256.174 352.864 256.174 353.312V359.312C256.174 359.76 256.014 360.144 255.694 360.464C255.374 360.816 254.974 360.992 254.494 360.992H253.438C252.958 360.992 252.558 360.816 252.238 360.464C251.918 360.144 251.758 359.76 251.758 359.312V353.312C251.758 352.864 251.598 352.48 251.278 352.16C250.99 351.808 250.622 351.632 250.174 351.632C249.726 351.632 249.326 351.808 248.974 352.16C248.654 352.48 248.494 352.864 248.494 353.312V354.944C248.494 355.424 248.382 355.936 248.158 356.48C247.934 357.056 247.646 357.488 247.294 357.776L246.19 358.976C245.806 359.296 245.358 359.568 244.846 359.792C244.366 360.048 243.934 360.176 243.55 360.176C243.134 360.176 242.798 360.016 242.542 359.696C242.286 359.376 242.158 358.976 242.158 358.496V357.392C242.158 356.944 242.254 356.56 242.446 356.24C242.638 355.92 242.878 355.76 243.166 355.76C243.422 355.76 243.63 355.6 243.79 355.28C243.982 354.96 244.078 354.56 244.078 354.08V328.448C244.078 328 244.238 327.616 244.558 327.296C244.91 326.944 245.326 326.768 245.806 326.768H246.814C247.294 326.768 247.694 326.944 248.014 327.296C248.334 327.616 248.494 328 248.494 328.448V345.536C248.494 346.048 248.654 346.448 248.974 346.736C249.326 347.024 249.726 347.168 250.174 347.168C250.622 347.168 251.006 347.024 251.326 346.736C251.646 346.448 251.79 346.048 251.758 345.536V326.48C251.758 326.032 251.598 325.648 251.278 325.328C250.958 324.976 250.558 324.8 250.078 324.8H243.79C243.342 324.8 242.958 324.64 242.638 324.32C242.318 323.968 242.158 323.568 242.158 323.12V322.064C242.158 321.584 242.318 321.184 242.638 320.864C242.958 320.544 243.342 320.384 243.79 320.384H250.078C250.558 320.384 250.958 320.224 251.278 319.904C251.598 319.584 251.758 319.184 251.758 318.704V318.56C251.758 318.112 251.918 317.728 252.238 317.408C252.558 317.088 252.958 316.928 253.438 316.928H254.494C254.974 316.928 255.374 317.088 255.694 317.408C256.014 317.728 256.174 318.112 256.174 318.56V318.704C256.174 319.184 256.334 319.584 256.654 319.904C256.974 320.224 257.374 320.384 257.854 320.384H263.902C264.35 320.384 264.734 320.544 265.054 320.864C265.406 321.184 265.582 321.584 265.582 322.064V323.12C265.582 323.568 265.406 323.968 265.054 324.32C264.734 324.64 264.35 324.8 263.902 324.8H257.854C257.374 324.8 256.974 324.976 256.654 325.328C256.334 325.648 256.174 326.032 256.174 326.48V345.536Z" fill="black"/>
<path d="M474.904 324.464C474.712 324.592 474.6 324.8 474.568 325.088C474.536 325.344 474.472 325.632 474.376 325.952C474.312 326.24 474.088 326.528 473.704 326.816C473.288 327.136 472.808 327.232 472.264 327.104C471.72 326.976 471.256 326.672 470.872 326.192C470.488 325.712 470.296 325.2 470.296 324.656C470.328 324.08 470.552 323.632 470.968 323.312C471.416 322.96 471.88 322.832 472.36 322.928C472.84 322.992 473.224 322.912 473.512 322.688C473.736 322.528 473.848 322.336 473.848 322.112C473.88 321.856 473.928 321.584 473.992 321.296C474.088 320.976 474.328 320.672 474.712 320.384C475.128 320.032 475.608 319.92 476.152 320.048C476.696 320.176 477.16 320.48 477.544 320.96C477.928 321.44 478.104 321.968 478.072 322.544C478.072 323.088 477.864 323.52 477.448 323.84C477.064 324.16 476.712 324.336 476.392 324.368C476.072 324.368 475.784 324.352 475.528 324.32C475.304 324.256 475.096 324.304 474.904 324.464ZM457.528 327.2C459.32 327.424 461.048 327.536 462.712 327.536C464.408 327.536 465.848 327.472 467.032 327.344C468.248 327.216 469.016 327.072 469.336 326.912C469.784 327.872 470.152 328.992 470.44 330.272C470.76 331.52 470.712 332.752 470.296 333.968C470.136 334.384 469.848 334.768 469.432 335.12C469.016 335.472 468.6 335.728 468.184 335.888C467.384 336.144 466.536 336.32 465.64 336.416C464.776 336.48 464.008 336.48 463.336 336.416C463.08 336.384 462.52 336.32 461.656 336.224C460.792 336.128 459.768 336 458.584 335.84C457.432 335.68 456.232 335.488 454.984 335.264C453.736 335.04 452.584 334.784 451.528 334.496C450.472 334.176 449.624 333.84 448.984 333.488C448.536 333.2 448.136 332.8 447.784 332.288C447.464 331.744 447.208 331.2 447.016 330.656C446.824 330.112 446.68 329.68 446.584 329.36C446.456 328.848 446.296 328.192 446.104 327.392C445.944 326.56 445.944 325.696 446.104 324.8C446.264 324.928 446.68 325.088 447.352 325.28C448.056 325.472 448.888 325.68 449.848 325.904C450.808 326.096 451.8 326.288 452.824 326.48C453.848 326.64 454.776 326.784 455.608 326.912C456.472 327.04 457.112 327.136 457.528 327.2ZM471.976 339.056C473.32 340.24 474.12 341.232 474.376 342.032C474.632 342.8 474.728 343.52 474.664 344.192C474.568 344.864 474.28 345.376 473.8 345.728C473.32 346.048 472.856 346.272 472.408 346.4C472.184 346.464 471.784 346.544 471.208 346.64C470.632 346.704 470.008 346.784 469.336 346.88C468.664 346.944 468.04 347.008 467.464 347.072C466.92 347.136 466.52 347.184 466.264 347.216C465.784 347.248 465.24 347.344 464.632 347.504C464.024 347.664 463.528 348.144 463.144 348.944C462.92 349.456 462.744 350.096 462.616 350.864C462.488 351.6 462.424 352.336 462.424 353.072C462.424 353.808 462.504 354.448 462.664 354.992C462.92 355.792 463.144 356.304 463.336 356.528C463.56 356.72 463.768 356.848 463.96 356.912C463.896 357.52 463.768 358.192 463.576 358.928C463.416 359.632 463.176 360.224 462.856 360.704C462.664 361.024 462.36 361.424 461.944 361.904C461.528 362.384 461.016 362.816 460.408 363.2C459.832 363.584 459.128 363.792 458.296 363.824C457.08 363.856 456.04 363.472 455.176 362.672C454.344 361.872 453.848 360.928 453.688 359.84C453.56 358.816 453.528 357.744 453.592 356.624C453.688 355.504 453.8 354.464 453.928 353.504C454.088 352.544 454.184 351.824 454.216 351.344C454.248 350.832 454.248 350.256 454.216 349.616C454.216 348.944 454.104 348.32 453.88 347.744C453.688 347.136 453.304 346.688 452.728 346.4C451.928 345.984 450.92 345.584 449.704 345.2C448.488 344.816 447.416 344.32 446.488 343.712C446.04 343.392 445.592 342.88 445.144 342.176C444.728 341.472 444.36 340.688 444.04 339.824C443.72 338.928 443.48 338.032 443.32 337.136C443.192 336.24 443.176 335.456 443.272 334.784C443.848 335.072 444.616 335.376 445.576 335.696C446.536 335.984 447.528 336.256 448.552 336.512C449.576 336.768 450.504 336.992 451.336 337.184C452.168 337.376 452.76 337.504 453.112 337.568C454.616 337.856 456.28 338.112 458.104 338.336C459.928 338.528 461.736 338.704 463.528 338.864C465.352 338.992 467 339.072 468.472 339.104C469.976 339.136 471.144 339.12 471.976 339.056ZM523 324.416C522.808 324.576 522.696 324.784 522.664 325.04C522.632 325.296 522.568 325.584 522.472 325.904C522.408 326.192 522.184 326.48 521.8 326.768C521.416 327.088 520.936 327.2 520.36 327.104C519.816 326.976 519.368 326.672 519.016 326.192C518.632 325.712 518.44 325.184 518.44 324.608C518.472 324.032 518.68 323.584 519.064 323.264C519.544 322.912 520.008 322.784 520.456 322.88C520.936 322.976 521.336 322.912 521.656 322.688C521.848 322.528 521.944 322.336 521.944 322.112C521.976 321.856 522.024 321.584 522.088 321.296C522.184 320.976 522.44 320.656 522.856 320.336C523.24 320.016 523.704 319.92 524.248 320.048C524.824 320.144 525.288 320.432 525.64 320.912C526.024 321.392 526.2 321.92 526.168 322.496C526.168 323.04 525.976 323.472 525.592 323.792C525.176 324.112 524.808 324.288 524.488 324.32C524.168 324.32 523.88 324.304 523.624 324.272C523.4 324.208 523.192 324.256 523 324.416ZM518.632 329.312C518.792 329.728 519.08 330.064 519.496 330.32C519.944 330.576 520.344 330.768 520.696 330.896C521.528 331.184 522.12 331.616 522.472 332.192C522.824 332.736 523.048 333.28 523.144 333.824C523.24 334.336 523.288 334.688 523.288 334.88C523.224 336.128 522.92 337.072 522.376 337.712C521.864 338.352 521.32 338.816 520.744 339.104C520.168 339.36 519.736 339.552 519.448 339.68C519.032 339.84 518.712 340 518.488 340.16C518.264 340.32 518.008 340.512 517.72 340.736C517.336 341.056 517.016 341.552 516.76 342.224C516.504 342.864 516.296 343.552 516.136 344.288C516.008 345.024 515.896 345.68 515.8 346.256C515.736 346.8 515.624 347.648 515.464 348.8C515.304 349.92 515.192 351.264 515.128 352.832C515.064 354.4 515.128 356.128 515.32 358.016C515.352 358.24 515.416 358.512 515.512 358.832C515.608 359.152 515.8 359.408 516.088 359.6C516.024 360.336 515.8 361.152 515.416 362.048C515.064 362.944 514.536 363.712 513.832 364.352C513.128 364.992 512.216 365.312 511.096 365.312C510.872 365.312 510.488 365.184 509.944 364.928C509.4 364.672 508.856 364.336 508.312 363.92C507.8 363.504 507.448 363.056 507.256 362.576C507.096 362.128 506.968 361.568 506.872 360.896C506.808 360.192 506.792 359.616 506.824 359.168L507.496 349.088C507.528 348.736 507.56 348.24 507.592 347.6C507.656 346.928 507.704 346.224 507.736 345.488C507.8 344.752 507.832 344.096 507.832 343.52C507.864 342.944 507.88 342.576 507.88 342.416C507.848 341.776 507.768 341.184 507.64 340.64C507.512 340.064 507.176 339.664 506.632 339.44C506.216 339.248 505.752 339.168 505.24 339.2C504.76 339.232 504.36 339.344 504.04 339.536C503.72 339.696 503.384 340.016 503.032 340.496C502.712 340.976 502.376 341.84 502.024 343.088C501.576 344.848 501.416 346.208 501.544 347.168C501.704 348.128 501.816 348.72 501.88 348.944C502.04 349.328 502.2 349.6 502.36 349.76C502.552 349.92 502.728 350.048 502.888 350.144C502.76 350.624 502.504 351.184 502.12 351.824C501.768 352.464 501.304 353.024 500.728 353.504C500.504 353.664 500.12 353.872 499.576 354.128C499.032 354.352 498.392 354.448 497.656 354.416C496.952 354.384 496.216 354.048 495.448 353.408C494.68 352.768 494.152 352.032 493.864 351.2C493.576 350.336 493.432 349.52 493.432 348.752C493.464 347.952 493.496 347.312 493.528 346.832C493.592 346.128 493.624 345.568 493.624 345.152C493.656 344.736 493.624 344.128 493.528 343.328C493.432 342.528 493.208 341.84 492.856 341.264C492.504 340.656 492.056 340.24 491.512 340.016C491.16 339.856 490.632 339.632 489.928 339.344C489.256 339.056 488.568 338.672 487.864 338.192C487.192 337.712 486.68 337.152 486.328 336.512C485.88 335.616 485.624 334.624 485.56 333.536C485.528 332.416 485.8 331.232 486.376 329.984C486.664 330.208 487.16 330.416 487.864 330.608C488.568 330.8 489.368 330.912 490.264 330.944C491.16 330.944 492.008 330.8 492.808 330.512C493.416 330.288 493.848 329.872 494.104 329.264C494.392 328.656 494.552 328.016 494.584 327.344C494.648 326.672 494.632 326.16 494.536 325.808C495.944 325.776 497.064 325.872 497.896 326.096C498.76 326.32 499.416 326.608 499.864 326.96C500.344 327.28 500.68 327.632 500.872 328.016C501.096 328.368 501.288 328.672 501.448 328.928C501.64 329.28 501.928 329.552 502.312 329.744C502.696 329.904 503.064 330.016 503.416 330.08C503.768 330.112 503.976 330.144 504.04 330.176C504.968 330.208 505.896 330.208 506.824 330.176C507.752 330.112 508.44 329.968 508.888 329.744C509.336 329.488 509.752 328.928 510.136 328.064C510.52 327.2 510.712 325.984 510.712 324.416C511.544 324.448 512.392 324.608 513.256 324.896C514.12 325.184 514.904 325.504 515.608 325.856C516.344 326.208 516.968 326.72 517.48 327.392C518.024 328.064 518.408 328.704 518.632 329.312ZM569.368 329.744C569.24 330.544 568.808 331.424 568.072 332.384C567.336 333.312 566.504 334.208 565.576 335.072C564.68 335.936 563.896 336.672 563.224 337.28C562.68 337.76 562.104 338.416 561.496 339.248C560.92 340.048 560.52 340.816 560.296 341.552C560.2 341.936 560.088 342.64 559.96 343.664C559.832 344.656 559.704 345.792 559.576 347.072C559.448 348.352 559.336 349.616 559.24 350.864C559.144 352.08 559.08 353.088 559.048 353.888C559.048 354.24 559.048 354.752 559.048 355.424C559.048 356.064 559.144 356.672 559.336 357.248C559.528 357.792 559.88 358.112 560.392 358.208C560.2 359.04 559.864 359.92 559.384 360.848C558.904 361.776 558.232 362.512 557.368 363.056C556.504 363.632 555.416 363.776 554.104 363.488C553.432 363.328 552.728 363.04 551.992 362.624C551.288 362.24 550.84 361.728 550.648 361.088C550.552 360.768 550.504 360.192 550.504 359.36C550.536 358.496 550.584 357.552 550.648 356.528C550.712 355.504 550.776 354.592 550.84 353.792C550.936 352.96 550.984 352.4 550.984 352.112C551.016 351.728 551 351.232 550.936 350.624C550.872 350.016 550.712 349.456 550.456 348.944C550.2 348.4 549.8 348.048 549.256 347.888C548.456 347.632 547.72 347.648 547.048 347.936C546.376 348.224 545.88 348.48 545.56 348.704C545.24 348.896 544.92 349.184 544.6 349.568C544.28 349.952 544.04 350.272 543.88 350.528C543.432 351.424 542.888 352.064 542.248 352.448C541.64 352.832 540.68 352.816 539.368 352.4C538.632 352.144 537.992 351.776 537.448 351.296C536.936 350.816 536.648 350.272 536.584 349.664C536.552 349.056 536.632 348.352 536.824 347.552C537.016 346.72 537.592 345.776 538.552 344.72C538.68 344.592 539.064 344.208 539.704 343.568C540.376 342.928 541.176 342.16 542.104 341.264C543.064 340.368 544.024 339.472 544.984 338.576C545.976 337.68 546.856 336.88 547.624 336.176C548.392 335.472 548.904 335.008 549.16 334.784C549.448 334.56 549.912 334.208 550.552 333.728C551.192 333.216 551.928 332.656 552.76 332.048C553.592 331.408 554.424 330.768 555.256 330.128C556.088 329.488 556.84 328.912 557.512 328.4C558.216 327.888 558.728 327.504 559.048 327.248C559.88 326.608 560.648 325.952 561.352 325.28C562.088 324.576 562.472 323.824 562.504 323.024C564.36 323.472 565.8 324.08 566.824 324.848C567.88 325.584 568.6 326.384 568.984 327.248C569.4 328.112 569.528 328.944 569.368 329.744ZM597.592 341.888C596.408 341.76 595.416 341.376 594.616 340.736C593.848 340.064 593.256 339.28 592.84 338.384C592.456 337.488 592.248 336.576 592.216 335.648C592.184 334.72 592.312 333.92 592.6 333.248C593.016 332.352 593.544 331.472 594.184 330.608C594.824 329.712 595.672 329.04 596.728 328.592C597.816 328.112 599.208 328.032 600.904 328.352C602.216 328.608 603.224 329.024 603.928 329.6C604.632 330.176 605.112 330.832 605.368 331.568C605.656 332.272 605.784 332.992 605.752 333.728C605.752 334.464 605.672 335.136 605.512 335.744C605.352 336.352 605.224 336.816 605.128 337.136C605 337.552 604.76 338.048 604.408 338.624C604.056 339.2 603.576 339.76 602.968 340.304C602.36 340.848 601.608 341.28 600.712 341.6C599.848 341.92 598.808 342.016 597.592 341.888ZM619.432 345.488C619.624 346 619.72 346.688 619.72 347.552C619.752 348.416 619.608 349.312 619.288 350.24C618.968 351.136 618.376 351.952 617.512 352.688C617.192 352.4 616.632 352.288 615.832 352.352C615.064 352.416 614.312 352.544 613.576 352.736C612.872 352.928 612.392 353.088 612.136 353.216C612.008 353.28 611.528 353.504 610.696 353.888C609.864 354.272 608.792 354.752 607.48 355.328C606.2 355.872 604.808 356.464 603.304 357.104C601.832 357.744 600.36 358.352 598.888 358.928C597.448 359.504 596.152 360 595 360.416C593.848 360.832 592.984 361.104 592.408 361.232C591.672 361.36 590.968 361.44 590.296 361.472C589.656 361.472 589.048 361.312 588.472 360.992C587.704 360.544 586.92 359.6 586.12 358.16C585.32 356.72 584.664 354.832 584.152 352.496C585.016 352.464 586.264 352.304 587.896 352.016C589.528 351.696 591.432 351.216 593.608 350.576C595.816 349.936 598.136 349.104 600.568 348.08C603.192 346.96 605.496 346.032 607.48 345.296C609.464 344.528 610.952 343.84 611.944 343.232C612.776 342.688 613.592 342.432 614.392 342.464C615.224 342.464 615.992 342.64 616.696 342.992C617.4 343.344 617.992 343.76 618.472 344.24C618.952 344.688 619.272 345.104 619.432 345.488ZM669.304 345.872C670.008 346.288 670.472 346.704 670.696 347.12C670.92 347.536 671 347.92 670.936 348.272C670.84 348.688 670.6 349.04 670.216 349.328C669.832 349.616 669.416 349.792 668.968 349.856C668.488 349.92 667.512 349.984 666.04 350.048C664.568 350.08 662.776 350.112 660.664 350.144C658.552 350.176 656.28 350.208 653.848 350.24C651.416 350.24 648.968 350.24 646.504 350.24C644.072 350.24 641.784 350.24 639.64 350.24C637.528 350.208 635.72 350.176 634.216 350.144C632.744 350.112 631.752 350.064 631.24 350C629.992 349.84 629.016 349.456 628.312 348.848C627.64 348.24 627.256 347.248 627.16 345.872H644.44C644.664 345.872 644.888 345.84 645.112 345.776C645.368 345.712 645.496 345.552 645.496 345.296C645.496 345.04 645.384 344.912 645.16 344.912C644.936 344.912 644.696 344.912 644.44 344.912C644.344 344.912 643.944 344.912 643.24 344.912C642.568 344.912 641.736 344.912 640.744 344.912C639.784 344.88 638.792 344.864 637.768 344.864C636.744 344.832 635.832 344.816 635.032 344.816C634.232 344.784 633.688 344.752 633.4 344.72C632.184 344.56 631.224 344.176 630.52 343.568C629.848 342.928 629.448 341.92 629.32 340.544H644.152C644.504 340.544 644.84 340.512 645.16 340.448C645.512 340.384 645.688 340.24 645.688 340.016C645.688 339.76 645.528 339.632 645.208 339.632C644.92 339.632 644.712 339.616 644.584 339.584C643.912 339.584 643.08 339.584 642.088 339.584C641.096 339.552 640.072 339.536 639.016 339.536C637.992 339.536 637.08 339.536 636.28 339.536C635.512 339.536 635.032 339.52 634.84 339.488C634.136 339.392 633.416 339.216 632.68 338.96C631.944 338.704 631.352 338.288 630.904 337.712C630.488 337.136 630.328 336.32 630.424 335.264H643.72C644.104 335.264 644.488 335.232 644.872 335.168C645.288 335.104 645.496 334.864 645.496 334.448C645.496 334.032 645.288 333.808 644.872 333.776C644.456 333.712 644.072 333.68 643.72 333.68C643.592 333.68 643.112 333.68 642.28 333.68C641.448 333.68 640.456 333.68 639.304 333.68C638.152 333.68 637 333.68 635.848 333.68C634.696 333.68 633.704 333.68 632.872 333.68C632.04 333.68 631.544 333.68 631.384 333.68C629.816 333.52 628.632 333.072 627.832 332.336C627.032 331.568 626.744 330.64 626.968 329.552H643.96C644.344 329.552 644.696 329.504 645.016 329.408C645.336 329.312 645.496 329.104 645.496 328.784C645.496 328.464 645.336 328.272 645.016 328.208C644.728 328.144 644.376 328.112 643.96 328.112C643.8 328.112 643.368 328.112 642.664 328.112C641.96 328.112 641.128 328.112 640.168 328.112C639.24 328.112 638.296 328.112 637.336 328.112C636.376 328.08 635.544 328.064 634.84 328.064C634.168 328.064 633.752 328.048 633.592 328.016C632.504 327.856 631.608 327.472 630.904 326.864C630.2 326.224 629.992 325.232 630.28 323.888H643.624C644.072 323.888 644.456 323.792 644.776 323.6C645.096 323.376 645.256 323.104 645.256 322.784V321.632C645.576 321.568 646.104 321.536 646.84 321.536C647.576 321.504 648.376 321.52 649.24 321.584C650.104 321.648 650.888 321.776 651.592 321.968C652.328 322.16 652.856 322.432 653.176 322.784C653.464 323.104 653.784 323.376 654.136 323.6C654.488 323.792 654.888 323.888 655.336 323.888H667.24L667.288 327.584C667.288 327.808 667.416 328.128 667.672 328.544C667.928 328.96 668.328 329.168 668.872 329.168H670.168C670.712 329.68 671.016 330.24 671.08 330.848C671.144 331.52 670.936 332.128 670.456 332.672C669.976 333.216 669.384 333.52 668.68 333.584C668.584 333.584 668.312 333.744 667.864 334.064C667.448 334.352 667.144 334.848 666.952 335.552C666.76 336.16 666.536 336.672 666.28 337.088C666.056 337.472 665.72 337.84 665.272 338.192C664.792 338.512 664.2 338.768 663.496 338.96C662.792 339.152 661.88 339.312 660.76 339.44C660.664 339.44 660.344 339.44 659.8 339.44C659.256 339.44 658.6 339.44 657.832 339.44C657.096 339.44 656.344 339.456 655.576 339.488C654.84 339.488 654.2 339.504 653.656 339.536C653.528 339.536 653.368 339.568 653.176 339.632C653.016 339.696 652.936 339.808 652.936 339.968C652.936 340.096 652.984 340.224 653.08 340.352C653.208 340.48 653.496 340.544 653.944 340.544H666.52C667.16 340.8 667.592 341.12 667.816 341.504C668.072 341.888 668.168 342.272 668.104 342.656C668.04 343.104 667.784 343.52 667.336 343.904C666.888 344.256 666.296 344.464 665.56 344.528C665.272 344.56 664.712 344.592 663.88 344.624C663.048 344.656 662.088 344.688 661 344.72C659.912 344.752 658.84 344.784 657.784 344.816C656.76 344.816 655.88 344.832 655.144 344.864C654.408 344.864 653.992 344.864 653.896 344.864C653.672 344.864 653.432 344.896 653.176 344.96C652.952 344.992 652.84 345.12 652.84 345.344C652.84 345.696 653.192 345.872 653.896 345.872H669.304ZM654.616 328.064C654.2 328.096 653.8 328.144 653.416 328.208C653.032 328.272 652.84 328.464 652.84 328.784C652.84 329.168 653.048 329.392 653.464 329.456C653.912 329.52 654.264 329.568 654.52 329.6C654.68 329.6 655.016 329.6 655.528 329.6C656.04 329.6 656.536 329.6 657.016 329.6C657.528 329.6 657.848 329.6 657.976 329.6C658.168 329.536 658.488 329.488 658.936 329.456C659.416 329.392 659.656 329.184 659.656 328.832C659.656 328.448 659.416 328.224 658.936 328.16C658.488 328.096 658.136 328.064 657.88 328.064C657.624 328.032 657.128 328.032 656.392 328.064C655.688 328.064 655.096 328.064 654.616 328.064ZM654.616 333.68C654.2 333.712 653.8 333.76 653.416 333.824C653.032 333.888 652.84 334.08 652.84 334.4C652.84 334.752 653.048 334.976 653.464 335.072C653.912 335.136 654.264 335.168 654.52 335.168C654.68 335.168 655.016 335.168 655.528 335.168C656.04 335.168 656.536 335.168 657.016 335.168C657.528 335.168 657.848 335.168 657.976 335.168C658.168 335.136 658.488 335.088 658.936 335.024C659.416 334.96 659.656 334.752 659.656 334.4C659.656 334.048 659.416 333.84 658.936 333.776C658.488 333.712 658.136 333.664 657.88 333.632C657.624 333.632 657.128 333.632 656.392 333.632C655.688 333.632 655.096 333.648 654.616 333.68ZM634.408 351.104H663.16C663.256 351.424 663.336 351.984 663.4 352.784C663.464 353.584 663.496 354.464 663.496 355.424C663.528 356.384 663.528 357.296 663.496 358.16C663.496 359.024 663.48 359.68 663.448 360.128C663.384 361.216 662.968 362.16 662.2 362.96C661.432 363.76 660.472 364.288 659.32 364.544C658.456 364.736 657.32 364.88 655.912 364.976C654.504 365.104 652.952 365.184 651.256 365.216C649.592 365.248 647.928 365.232 646.264 365.168C644.6 365.104 643.048 364.992 641.608 364.832C640.2 364.704 639.064 364.528 638.2 364.304C637.304 364.048 636.488 363.568 635.752 362.864C635.016 362.16 634.552 361.248 634.36 360.128C634.296 359.648 634.248 358.992 634.216 358.16C634.184 357.296 634.168 356.4 634.168 355.472C634.168 354.512 634.184 353.648 634.216 352.88C634.28 352.08 634.344 351.488 634.408 351.104ZM653.368 356.336C653.848 356.272 654.184 356.192 654.376 356.096C654.6 356 654.712 355.792 654.712 355.472C654.712 355.152 654.52 354.96 654.136 354.896C653.784 354.832 653.416 354.784 653.032 354.752C652.68 354.72 652.088 354.704 651.256 354.704C650.424 354.672 649.528 354.656 648.568 354.656C647.608 354.656 646.728 354.672 645.928 354.704C645.128 354.736 644.552 354.768 644.2 354.8C643.784 354.832 643.416 354.896 643.096 354.992C642.808 355.088 642.664 355.264 642.664 355.52C642.664 356.032 643.128 356.304 644.056 356.336C644.312 356.368 644.872 356.4 645.736 356.432C646.632 356.432 647.624 356.432 648.712 356.432C649.8 356.432 650.776 356.432 651.64 356.432C652.536 356.4 653.112 356.368 653.368 356.336ZM653.368 360.848C653.848 360.688 654.184 360.544 654.376 360.416C654.6 360.288 654.712 360.096 654.712 359.84C654.712 359.552 654.52 359.408 654.136 359.408C653.784 359.408 653.416 359.392 653.032 359.36C652.68 359.328 652.088 359.312 651.256 359.312C650.424 359.28 649.528 359.264 648.568 359.264C647.608 359.264 646.728 359.28 645.928 359.312C645.128 359.312 644.552 359.328 644.2 359.36C643.784 359.392 643.416 359.424 643.096 359.456C642.808 359.488 642.664 359.616 642.664 359.84C642.664 360.288 643.128 360.608 644.056 360.8C644.408 360.864 645.032 360.928 645.928 360.992C646.824 361.024 647.8 361.04 648.856 361.04C649.912 361.04 650.856 361.024 651.688 360.992C652.552 360.96 653.112 360.912 653.368 360.848ZM710.68 342.752C711.416 343.936 712.264 345.168 713.224 346.448C714.216 347.696 715.176 348.864 716.104 349.952C717.032 351.04 717.8 351.92 718.408 352.592C719.016 353.232 719.32 353.552 719.32 353.552C719.32 353.552 719.176 353.824 718.888 354.368C718.6 354.912 718.232 355.536 717.784 356.24C717.336 356.944 716.872 357.52 716.392 357.968C716.104 358.192 715.832 358.352 715.576 358.448C715.32 358.544 715.064 358.528 714.808 358.4C714.2 357.952 713.608 357.456 713.032 356.912C712.84 356.72 712.568 356.672 712.216 356.768C711.896 356.832 711.672 356.976 711.544 357.2C711.32 357.744 711 358.192 710.584 358.544C710.2 358.864 709.864 359.088 709.576 359.216C709.256 359.312 708.488 359.392 707.272 359.456C707.08 359.456 706.808 359.568 706.456 359.792C706.136 359.984 705.992 360.32 706.024 360.8C706.024 361.248 706.024 361.776 706.024 362.384C706.024 363.024 706.04 363.472 706.072 363.728C706.072 364.208 705.784 364.608 705.208 364.928C704.664 365.248 703.992 365.472 703.192 365.6C702.392 365.728 701.624 365.776 700.888 365.744C699.48 365.648 698.776 365.152 698.776 364.256C698.776 364.096 698.776 363.776 698.776 363.296C698.776 362.816 698.776 362.32 698.776 361.808C698.776 361.264 698.776 360.896 698.776 360.704C698.776 360.384 698.68 360.096 698.488 359.84C698.328 359.552 698.024 359.392 697.576 359.36C696.744 359.296 696.184 359.248 695.896 359.216C695.416 359.088 694.856 358.784 694.216 358.304C693.576 357.824 693.144 357.088 692.92 356.096C692.824 355.648 692.568 355.408 692.152 355.376C691.768 355.312 691.464 355.344 691.24 355.472C691.08 355.568 690.92 355.664 690.76 355.76C690.6 355.824 690.44 355.872 690.28 355.904C689.96 356 689.656 356.048 689.368 356.048C689.112 356.016 688.856 355.984 688.6 355.952C688.152 355.856 687.848 356.128 687.688 356.768C687.528 357.376 687.448 358 687.448 358.64C687.448 359.056 687.464 359.696 687.496 360.56C687.528 361.392 687.544 362.176 687.544 362.912C687.576 363.648 687.592 364.08 687.592 364.208C687.592 364.784 687.224 365.184 686.488 365.408C685.784 365.664 684.984 365.776 684.088 365.744C683.224 365.712 682.456 365.552 681.784 365.264C681.144 365.008 680.792 364.512 680.728 363.776C680.728 363.552 680.728 363.04 680.728 362.24C680.728 361.472 680.728 360.56 680.728 359.504C680.728 358.448 680.728 357.408 680.728 356.384C680.728 355.328 680.728 354.416 680.728 353.648C680.728 352.848 680.728 352.336 680.728 352.112C680.728 351.76 680.712 351.392 680.68 351.008C680.68 350.592 680.584 350.272 680.392 350.048C680.2 349.792 679.832 349.728 679.288 349.856C678.168 350.112 677.224 350.128 676.456 349.904C675.72 349.68 675.16 349.344 674.776 348.896C674.424 348.448 674.216 348.048 674.152 347.696C674.632 346.896 675.176 345.776 675.784 344.336C676.392 342.864 677.032 341.216 677.704 339.392C678.408 337.568 679.08 335.712 679.72 333.824C680.392 331.936 681 330.144 681.544 328.448C682.088 326.752 682.536 325.28 682.888 324.032C683.24 322.784 683.448 321.936 683.512 321.488L691.384 325.52C691.16 326.384 690.92 327.088 690.664 327.632C690.408 328.144 690.152 328.768 689.896 329.504C689.768 329.92 689.752 330.432 689.848 331.04C689.976 331.648 690.376 331.984 691.048 332.048C691.72 332.08 692.408 332.112 693.112 332.144C693.816 332.176 694.648 332.144 695.608 332.048C696.504 331.952 697.16 331.712 697.576 331.328C698.024 330.944 698.312 330.48 698.44 329.936C698.6 329.36 698.696 328.768 698.728 328.16C698.76 327.776 698.776 327.232 698.776 326.528C698.776 325.824 698.76 325.12 698.728 324.416C698.728 323.68 698.712 323.056 698.68 322.544C698.68 322.032 698.68 321.776 698.68 321.776C699.416 321.68 700.216 321.696 701.08 321.824C701.976 321.92 702.808 322.128 703.576 322.448C704.344 322.768 704.984 323.184 705.496 323.696C706.008 324.176 706.264 324.768 706.264 325.472C706.264 325.984 706.312 327.088 706.408 328.784C706.472 330.128 706.808 331.008 707.416 331.424C708.024 331.808 708.712 332 709.48 332C709.704 332 710.12 332 710.728 332C711.368 332 712.072 332 712.84 332C713.608 331.968 714.36 331.952 715.096 331.952C715.864 331.952 716.488 331.952 716.968 331.952C717.448 331.952 717.688 331.952 717.688 331.952C717.688 331.952 717.848 332.128 718.168 332.48C718.488 332.8 718.712 333.44 718.84 334.4C718.968 335.264 718.824 336.144 718.408 337.04C718.024 337.936 717.256 338.528 716.104 338.816C715.784 338.88 715.16 338.96 714.232 339.056C713.304 339.152 712.28 339.328 711.16 339.584C710.68 339.68 710.376 340.064 710.248 340.736C710.12 341.408 710.264 342.08 710.68 342.752ZM689.608 348.416C690.728 347.136 691.656 345.936 692.392 344.816C693.128 343.664 693.576 342.944 693.736 342.656C694.856 340.576 694.296 339.456 692.056 339.296C690.68 339.2 689.816 339.104 689.464 339.008C689.144 338.88 688.76 338.928 688.312 339.152C687.896 339.344 687.656 339.792 687.592 340.496C687.56 341.04 687.512 341.984 687.448 343.328C687.384 344.672 687.368 346.224 687.4 347.984C687.432 348.656 687.576 349.072 687.832 349.232C688.088 349.36 688.376 349.328 688.696 349.136C689.048 348.944 689.352 348.704 689.608 348.416ZM694.984 352.304C694.856 352.496 694.808 352.704 694.84 352.928C694.872 353.12 695 353.248 695.224 353.312C695.384 353.344 695.768 353.376 696.376 353.408C697.016 353.408 697.576 353.392 698.056 353.36C698.376 353.328 698.632 353.216 698.824 353.024C699.048 352.8 699.16 352.576 699.16 352.352C699.16 351.328 699.096 350.544 698.968 350C698.84 349.456 698.584 349.168 698.2 349.136C697.88 349.072 697.592 349.152 697.336 349.376C697.112 349.6 696.84 349.888 696.52 350.24C696.296 350.528 696.056 350.848 695.8 351.2C695.544 351.552 695.272 351.92 694.984 352.304ZM706.6 353.312C706.824 353.312 707.112 353.328 707.464 353.36C707.848 353.392 708.2 353.376 708.52 353.312C708.936 353.248 709.16 353.088 709.192 352.832C709.256 352.544 709.208 352.288 709.048 352.064C708.728 351.68 708.424 351.328 708.136 351.008C707.88 350.656 707.656 350.384 707.464 350.192C707.048 349.68 706.664 349.456 706.312 349.52C705.928 349.616 705.72 349.968 705.688 350.576C705.656 350.704 705.64 350.912 705.64 351.2C705.64 351.456 705.64 351.76 705.64 352.112C705.64 352.304 705.704 352.544 705.832 352.832C705.992 353.088 706.248 353.248 706.6 353.312Z" fill="black"/>
</svg>
