<svg width="866" height="539" viewBox="0 0 866 539" fill="none" xmlns="http://www.w3.org/2000/svg">
<rect width="866" height="539" fill="#F2F2F2"/>
<mask id="path-1-outside-1_243_299" maskUnits="userSpaceOnUse" x="172" y="243" width="433" height="59" fill="black">
<rect fill="white" x="172" y="243" width="433" height="59"/>
<path d="M227.016 250.472V273.064C227.016 281.043 224.947 287.144 220.808 291.368C216.712 295.549 210.205 297.64 201.288 297.64C196.168 297.64 191.432 296.893 187.08 295.4C182.771 293.907 178.931 291.965 175.56 289.576C176.371 286.931 177.032 284.392 177.544 281.96C178.056 279.528 178.44 276.861 178.696 273.96C183.091 277.501 187.144 279.955 190.856 281.32C194.568 282.685 198.109 283.368 201.48 283.368C204.979 283.368 207.475 282.579 208.968 281C210.461 279.421 211.229 276.712 211.272 272.872V268.008C211.272 261.096 211.08 255.251 210.696 250.472H227.016ZM232.123 291.496C233.573 289.32 234.768 287.293 235.707 285.416C236.688 283.539 237.627 281.363 238.523 278.888C241.552 280.637 245.072 282.003 249.083 282.984C253.093 283.965 256.827 284.456 260.283 284.456C263.824 284.456 266.32 284.157 267.771 283.56C269.221 282.92 269.947 282.237 269.947 281.512C269.947 278.909 265.979 277.608 258.043 277.608C249.339 277.608 243.024 276.712 239.099 274.92C235.173 273.085 233.211 270.141 233.211 266.088C233.211 260.328 235.6 256.083 240.379 253.352C245.157 250.621 251.365 249.256 259.003 249.256C263.44 249.256 267.984 249.832 272.635 250.984C277.328 252.093 281.552 253.629 285.307 255.592C284.069 258.408 282.768 261.843 281.403 265.896C281.147 266.749 280.933 267.389 280.763 267.816C278.587 266.067 275.301 264.616 270.907 263.464C266.512 262.269 262.629 261.672 259.259 261.672C255.205 261.672 252.475 261.949 251.067 262.504C249.659 263.016 248.955 263.784 248.955 264.808C248.955 265.832 249.915 266.664 251.835 267.304C253.797 267.901 256.613 268.2 260.283 268.2C269.328 268.2 275.899 269.245 279.995 271.336C284.091 273.384 286.139 276.541 286.139 280.808C286.139 286.781 283.963 291.091 279.611 293.736C275.259 296.339 268.667 297.64 259.835 297.64C255.099 297.64 250.277 297.128 245.371 296.104C240.464 295.037 236.048 293.501 232.123 291.496ZM302.64 295.976C302.298 293.032 301.637 290.323 300.656 287.848C299.674 285.331 298.266 282.792 296.432 280.232C300.698 280.403 303.728 280.488 305.52 280.488C314.224 280.488 321.349 279.699 326.896 278.12C328.73 277.608 329.904 277.139 330.416 276.712C330.97 276.285 331.248 275.624 331.248 274.728C331.248 273.149 330.416 271.955 328.752 271.144C327.13 270.291 324.762 269.864 321.648 269.864C318.277 269.864 313.968 270.312 308.72 271.208C303.472 272.104 299.098 273.149 295.6 274.344L292.592 260.136C298.48 258.899 304.048 257.939 309.296 257.256C314.586 256.531 319.088 256.168 322.8 256.168C328.005 256.168 332.464 256.851 336.176 258.216C339.93 259.581 342.789 261.565 344.752 264.168C346.757 266.771 347.76 269.864 347.76 273.448C347.76 279.421 345.754 284.051 341.744 287.336C337.776 290.579 332.549 292.797 326.064 293.992C319.578 295.187 311.77 295.848 302.64 295.976ZM401.648 261.928C397.808 262.099 394.544 262.931 391.856 264.424C389.168 265.917 387.141 267.795 385.776 270.056C384.453 272.275 383.792 274.579 383.792 276.968C383.792 278.248 384.069 279.251 384.624 279.976C385.221 280.701 386.416 281.256 388.208 281.64C390 282.024 392.688 282.216 396.272 282.216C400.24 282.216 404.698 282.045 409.648 281.704C408.538 284.221 407.834 286.568 407.536 288.744C407.28 290.877 407.13 293.459 407.088 296.488C405.893 296.531 404.165 296.552 401.904 296.552C392.261 296.552 384.858 295.912 379.696 294.632C374.576 293.309 371.12 291.539 369.328 289.32C367.578 287.059 366.704 284.2 366.704 280.744C366.704 277.032 367.472 273.661 369.008 270.632C370.544 267.56 372.698 264.851 375.472 262.504L356.208 265.448V250.6C359.493 250.6 365.082 250.493 372.976 250.28L385.328 249.96C389.722 249.875 393.776 249.768 397.488 249.64C401.2 249.469 406.298 249.213 412.784 248.872L412.976 261.928H401.648ZM452.4 263.912C449.84 264.168 445.893 264.467 440.56 264.808C439.194 270.781 437.082 276.349 434.224 281.512C431.408 286.675 428.016 291.176 424.048 295.016C423.194 292.285 422.064 289.405 420.656 286.376C419.248 283.347 417.925 280.957 416.688 279.208C418.949 277.117 420.826 274.963 422.32 272.744C423.813 270.483 425.008 267.965 425.904 265.192C424.368 265.235 422.042 265.256 418.928 265.256V252.584C422.981 252.584 426.01 252.563 428.016 252.52C428.101 251.155 428.144 250.109 428.144 249.384H442.288C442.288 250.579 442.266 251.475 442.224 252.072C444.485 251.944 447.877 251.667 452.4 251.24V260.84L455.6 250.024C464.474 251.176 472.56 252.627 479.856 254.376L476.208 267.56C467.589 264.659 459.653 262.867 452.4 262.184V263.912ZM469.872 266.088V275.624C473.242 276.904 476.528 278.525 479.728 280.488L475.504 294.696C473.37 292.605 471.13 290.643 468.784 288.808C466.608 294.525 461.232 297.384 452.656 297.384C447.45 297.384 443.248 296.253 440.048 293.992C436.848 291.688 435.248 288.36 435.248 284.008C435.248 281.405 435.973 279.165 437.424 277.288C438.874 275.411 440.837 273.981 443.312 273C445.786 272.019 448.517 271.528 451.504 271.528C452.826 271.528 454.106 271.613 455.344 271.784V266.088H469.872ZM455.344 282.024C454.149 281.811 453.104 281.704 452.208 281.704C451.141 281.704 450.373 281.811 449.904 282.024C449.434 282.237 449.2 282.6 449.2 283.112C449.2 283.581 449.52 284.029 450.16 284.456C450.8 284.84 451.653 285.032 452.72 285.032C453.744 285.032 454.426 284.84 454.768 284.456C455.152 284.072 455.344 283.496 455.344 282.728V282.024ZM506.032 252.328C514.736 250.664 523.333 249.832 531.824 249.832C534.384 249.832 537.264 249.939 540.464 250.152C540.464 253.181 540.506 255.805 540.592 258.024C540.677 260.2 540.89 262.397 541.232 264.616C536.325 264.019 531.824 263.72 527.728 263.72C521.157 263.72 514.181 264.488 506.8 266.024L506.032 252.328ZM485.68 296.552C484.912 292.883 484.336 289.427 483.952 286.184C483.61 282.899 483.44 279.208 483.44 275.112C483.44 268.413 483.973 260.264 485.04 250.664H501.36C500.08 261.331 499.44 269.651 499.44 275.624C499.44 279.549 499.674 283.048 500.144 286.12C500.656 289.149 501.424 292.179 502.448 295.208L485.68 296.552ZM523.44 296.296C516.528 296.296 511.493 294.952 508.336 292.264C505.178 289.576 503.6 285.459 503.6 279.912C503.6 278.333 503.728 276.648 503.984 274.856C508.976 274.429 513.456 273.171 517.424 271.08C517.21 272.915 517.104 274.323 517.104 275.304C517.104 276.968 517.317 278.227 517.744 279.08C518.213 279.933 518.896 280.509 519.792 280.808C520.688 281.107 521.904 281.256 523.44 281.256C527.237 281.256 530.608 281.149 533.552 280.936C536.538 280.68 540.016 280.083 543.984 279.144C543.557 280.723 543.216 283.005 542.96 285.992C542.746 288.936 542.64 291.987 542.64 295.144C539.141 295.613 535.941 295.933 533.04 296.104C530.138 296.232 526.938 296.296 523.44 296.296ZM578.864 246.312C582.917 246.312 586.65 246.995 590.064 248.36C593.52 249.725 596.25 251.624 598.256 254.056C600.261 256.488 601.264 259.283 601.264 262.44C601.264 265 600.645 267.197 599.408 269.032C598.17 270.867 596.592 272.36 594.672 273.512L591.28 275.432C589.445 276.456 588.229 277.16 587.632 277.544C586.65 278.141 585.968 278.803 585.584 279.528C585.2 280.253 585.008 281.107 585.008 282.088H570.352C570.352 278.845 571.12 276.136 572.656 273.96C574.192 271.741 576.773 269.821 580.4 268.2C582.021 267.475 583.194 266.685 583.92 265.832C584.688 264.936 585.072 263.933 585.072 262.824C585.072 261.587 584.474 260.52 583.28 259.624C582.128 258.728 580.656 258.28 578.864 258.28C576.432 258.28 574.533 258.877 573.168 260.072C571.845 261.267 571.184 262.952 571.184 265.128C571.184 265.981 571.312 266.963 571.568 268.072C568.154 267.091 563.056 266.6 556.272 266.6C556.229 266.216 556.208 265.683 556.208 265C556.208 261.416 557.146 258.216 559.024 255.4C560.944 252.541 563.61 250.323 567.024 248.744C570.48 247.123 574.426 246.312 578.864 246.312ZM585.072 298.28H570.224V286.888H585.072V298.28Z"/>
</mask>
<path d="M227.016 250.472V273.064C227.016 281.043 224.947 287.144 220.808 291.368C216.712 295.549 210.205 297.64 201.288 297.64C196.168 297.64 191.432 296.893 187.08 295.4C182.771 293.907 178.931 291.965 175.56 289.576C176.371 286.931 177.032 284.392 177.544 281.96C178.056 279.528 178.44 276.861 178.696 273.96C183.091 277.501 187.144 279.955 190.856 281.32C194.568 282.685 198.109 283.368 201.48 283.368C204.979 283.368 207.475 282.579 208.968 281C210.461 279.421 211.229 276.712 211.272 272.872V268.008C211.272 261.096 211.08 255.251 210.696 250.472H227.016ZM232.123 291.496C233.573 289.32 234.768 287.293 235.707 285.416C236.688 283.539 237.627 281.363 238.523 278.888C241.552 280.637 245.072 282.003 249.083 282.984C253.093 283.965 256.827 284.456 260.283 284.456C263.824 284.456 266.32 284.157 267.771 283.56C269.221 282.92 269.947 282.237 269.947 281.512C269.947 278.909 265.979 277.608 258.043 277.608C249.339 277.608 243.024 276.712 239.099 274.92C235.173 273.085 233.211 270.141 233.211 266.088C233.211 260.328 235.6 256.083 240.379 253.352C245.157 250.621 251.365 249.256 259.003 249.256C263.44 249.256 267.984 249.832 272.635 250.984C277.328 252.093 281.552 253.629 285.307 255.592C284.069 258.408 282.768 261.843 281.403 265.896C281.147 266.749 280.933 267.389 280.763 267.816C278.587 266.067 275.301 264.616 270.907 263.464C266.512 262.269 262.629 261.672 259.259 261.672C255.205 261.672 252.475 261.949 251.067 262.504C249.659 263.016 248.955 263.784 248.955 264.808C248.955 265.832 249.915 266.664 251.835 267.304C253.797 267.901 256.613 268.2 260.283 268.2C269.328 268.2 275.899 269.245 279.995 271.336C284.091 273.384 286.139 276.541 286.139 280.808C286.139 286.781 283.963 291.091 279.611 293.736C275.259 296.339 268.667 297.64 259.835 297.64C255.099 297.64 250.277 297.128 245.371 296.104C240.464 295.037 236.048 293.501 232.123 291.496ZM302.64 295.976C302.298 293.032 301.637 290.323 300.656 287.848C299.674 285.331 298.266 282.792 296.432 280.232C300.698 280.403 303.728 280.488 305.52 280.488C314.224 280.488 321.349 279.699 326.896 278.12C328.73 277.608 329.904 277.139 330.416 276.712C330.97 276.285 331.248 275.624 331.248 274.728C331.248 273.149 330.416 271.955 328.752 271.144C327.13 270.291 324.762 269.864 321.648 269.864C318.277 269.864 313.968 270.312 308.72 271.208C303.472 272.104 299.098 273.149 295.6 274.344L292.592 260.136C298.48 258.899 304.048 257.939 309.296 257.256C314.586 256.531 319.088 256.168 322.8 256.168C328.005 256.168 332.464 256.851 336.176 258.216C339.93 259.581 342.789 261.565 344.752 264.168C346.757 266.771 347.76 269.864 347.76 273.448C347.76 279.421 345.754 284.051 341.744 287.336C337.776 290.579 332.549 292.797 326.064 293.992C319.578 295.187 311.77 295.848 302.64 295.976ZM401.648 261.928C397.808 262.099 394.544 262.931 391.856 264.424C389.168 265.917 387.141 267.795 385.776 270.056C384.453 272.275 383.792 274.579 383.792 276.968C383.792 278.248 384.069 279.251 384.624 279.976C385.221 280.701 386.416 281.256 388.208 281.64C390 282.024 392.688 282.216 396.272 282.216C400.24 282.216 404.698 282.045 409.648 281.704C408.538 284.221 407.834 286.568 407.536 288.744C407.28 290.877 407.13 293.459 407.088 296.488C405.893 296.531 404.165 296.552 401.904 296.552C392.261 296.552 384.858 295.912 379.696 294.632C374.576 293.309 371.12 291.539 369.328 289.32C367.578 287.059 366.704 284.2 366.704 280.744C366.704 277.032 367.472 273.661 369.008 270.632C370.544 267.56 372.698 264.851 375.472 262.504L356.208 265.448V250.6C359.493 250.6 365.082 250.493 372.976 250.28L385.328 249.96C389.722 249.875 393.776 249.768 397.488 249.64C401.2 249.469 406.298 249.213 412.784 248.872L412.976 261.928H401.648ZM452.4 263.912C449.84 264.168 445.893 264.467 440.56 264.808C439.194 270.781 437.082 276.349 434.224 281.512C431.408 286.675 428.016 291.176 424.048 295.016C423.194 292.285 422.064 289.405 420.656 286.376C419.248 283.347 417.925 280.957 416.688 279.208C418.949 277.117 420.826 274.963 422.32 272.744C423.813 270.483 425.008 267.965 425.904 265.192C424.368 265.235 422.042 265.256 418.928 265.256V252.584C422.981 252.584 426.01 252.563 428.016 252.52C428.101 251.155 428.144 250.109 428.144 249.384H442.288C442.288 250.579 442.266 251.475 442.224 252.072C444.485 251.944 447.877 251.667 452.4 251.24V260.84L455.6 250.024C464.474 251.176 472.56 252.627 479.856 254.376L476.208 267.56C467.589 264.659 459.653 262.867 452.4 262.184V263.912ZM469.872 266.088V275.624C473.242 276.904 476.528 278.525 479.728 280.488L475.504 294.696C473.37 292.605 471.13 290.643 468.784 288.808C466.608 294.525 461.232 297.384 452.656 297.384C447.45 297.384 443.248 296.253 440.048 293.992C436.848 291.688 435.248 288.36 435.248 284.008C435.248 281.405 435.973 279.165 437.424 277.288C438.874 275.411 440.837 273.981 443.312 273C445.786 272.019 448.517 271.528 451.504 271.528C452.826 271.528 454.106 271.613 455.344 271.784V266.088H469.872ZM455.344 282.024C454.149 281.811 453.104 281.704 452.208 281.704C451.141 281.704 450.373 281.811 449.904 282.024C449.434 282.237 449.2 282.6 449.2 283.112C449.2 283.581 449.52 284.029 450.16 284.456C450.8 284.84 451.653 285.032 452.72 285.032C453.744 285.032 454.426 284.84 454.768 284.456C455.152 284.072 455.344 283.496 455.344 282.728V282.024ZM506.032 252.328C514.736 250.664 523.333 249.832 531.824 249.832C534.384 249.832 537.264 249.939 540.464 250.152C540.464 253.181 540.506 255.805 540.592 258.024C540.677 260.2 540.89 262.397 541.232 264.616C536.325 264.019 531.824 263.72 527.728 263.72C521.157 263.72 514.181 264.488 506.8 266.024L506.032 252.328ZM485.68 296.552C484.912 292.883 484.336 289.427 483.952 286.184C483.61 282.899 483.44 279.208 483.44 275.112C483.44 268.413 483.973 260.264 485.04 250.664H501.36C500.08 261.331 499.44 269.651 499.44 275.624C499.44 279.549 499.674 283.048 500.144 286.12C500.656 289.149 501.424 292.179 502.448 295.208L485.68 296.552ZM523.44 296.296C516.528 296.296 511.493 294.952 508.336 292.264C505.178 289.576 503.6 285.459 503.6 279.912C503.6 278.333 503.728 276.648 503.984 274.856C508.976 274.429 513.456 273.171 517.424 271.08C517.21 272.915 517.104 274.323 517.104 275.304C517.104 276.968 517.317 278.227 517.744 279.08C518.213 279.933 518.896 280.509 519.792 280.808C520.688 281.107 521.904 281.256 523.44 281.256C527.237 281.256 530.608 281.149 533.552 280.936C536.538 280.68 540.016 280.083 543.984 279.144C543.557 280.723 543.216 283.005 542.96 285.992C542.746 288.936 542.64 291.987 542.64 295.144C539.141 295.613 535.941 295.933 533.04 296.104C530.138 296.232 526.938 296.296 523.44 296.296ZM578.864 246.312C582.917 246.312 586.65 246.995 590.064 248.36C593.52 249.725 596.25 251.624 598.256 254.056C600.261 256.488 601.264 259.283 601.264 262.44C601.264 265 600.645 267.197 599.408 269.032C598.17 270.867 596.592 272.36 594.672 273.512L591.28 275.432C589.445 276.456 588.229 277.16 587.632 277.544C586.65 278.141 585.968 278.803 585.584 279.528C585.2 280.253 585.008 281.107 585.008 282.088H570.352C570.352 278.845 571.12 276.136 572.656 273.96C574.192 271.741 576.773 269.821 580.4 268.2C582.021 267.475 583.194 266.685 583.92 265.832C584.688 264.936 585.072 263.933 585.072 262.824C585.072 261.587 584.474 260.52 583.28 259.624C582.128 258.728 580.656 258.28 578.864 258.28C576.432 258.28 574.533 258.877 573.168 260.072C571.845 261.267 571.184 262.952 571.184 265.128C571.184 265.981 571.312 266.963 571.568 268.072C568.154 267.091 563.056 266.6 556.272 266.6C556.229 266.216 556.208 265.683 556.208 265C556.208 261.416 557.146 258.216 559.024 255.4C560.944 252.541 563.61 250.323 567.024 248.744C570.48 247.123 574.426 246.312 578.864 246.312ZM585.072 298.28H570.224V286.888H585.072V298.28Z" fill="#606C38"/>
<path d="M227.016 250.472H230.016V247.472H227.016V250.472ZM220.808 291.368L218.665 289.268L218.665 289.269L220.808 291.368ZM187.08 295.4L186.098 298.235L186.106 298.238L187.08 295.4ZM175.56 289.576L172.692 288.697L172.056 290.77L173.825 292.023L175.56 289.576ZM177.544 281.96L174.608 281.342L177.544 281.96ZM178.696 273.96L180.578 271.624L176.202 268.097L175.708 273.696L178.696 273.96ZM190.856 281.32L189.82 284.136L190.856 281.32ZM208.968 281L211.147 283.062L208.968 281ZM211.272 272.872L214.272 272.905L214.272 272.889V272.872H211.272ZM210.696 250.472V247.472H207.445L207.706 250.712L210.696 250.472ZM224.016 250.472V273.064H230.016V250.472H224.016ZM224.016 273.064C224.016 280.539 222.085 285.778 218.665 289.268L222.951 293.468C227.809 288.51 230.016 281.547 230.016 273.064H224.016ZM218.665 289.269C215.37 292.633 209.815 294.64 201.288 294.64V300.64C210.596 300.64 218.054 298.466 222.951 293.467L218.665 289.269ZM201.288 294.64C196.462 294.64 192.059 293.937 188.054 292.562L186.106 298.238C190.805 299.85 195.874 300.64 201.288 300.64V294.64ZM188.062 292.565C183.993 291.155 180.412 289.338 177.295 287.129L173.825 292.023C177.45 294.593 181.548 296.658 186.098 298.235L188.062 292.565ZM178.428 290.455C179.262 287.733 179.947 285.107 180.48 282.578L174.608 281.342C174.117 283.677 173.479 286.128 172.692 288.697L178.428 290.455ZM180.48 282.578C181.02 280.011 181.42 277.224 181.684 274.224L175.708 273.696C175.46 276.498 175.092 279.045 174.608 281.342L180.48 282.578ZM176.814 276.296C181.363 279.962 185.702 282.621 189.82 284.136L191.892 278.504C188.586 277.289 184.818 275.04 180.578 271.624L176.814 276.296ZM189.82 284.136C193.808 285.602 197.701 286.368 201.48 286.368V280.368C198.518 280.368 195.328 279.768 191.892 278.504L189.82 284.136ZM201.48 286.368C205.316 286.368 208.823 285.519 211.147 283.062L206.789 278.938C206.127 279.638 204.641 280.368 201.48 280.368V286.368ZM211.147 283.062C213.434 280.644 214.227 276.973 214.272 272.905L208.272 272.839C208.232 276.451 207.488 278.199 206.789 278.938L211.147 283.062ZM214.272 272.872V268.008H208.272V272.872H214.272ZM214.272 268.008C214.272 261.047 214.079 255.117 213.686 250.232L207.706 250.712C208.081 255.385 208.272 261.145 208.272 268.008H214.272ZM210.696 253.472H227.016V247.472H210.696V253.472ZM232.123 291.496L229.626 289.832L227.758 292.635L230.758 294.168L232.123 291.496ZM235.707 285.416L233.048 284.026L233.035 284.05L233.023 284.074L235.707 285.416ZM238.522 278.888L240.023 276.29L236.921 274.499L235.702 277.867L238.522 278.888ZM249.083 282.984L248.369 285.898L249.083 282.984ZM267.771 283.56L268.913 286.334L268.947 286.32L268.981 286.305L267.771 283.56ZM239.099 274.92L237.828 277.638L237.84 277.643L237.853 277.649L239.099 274.92ZM240.379 253.352L241.867 255.957L240.379 253.352ZM272.635 250.984L271.913 253.896L271.929 253.9L271.944 253.904L272.635 250.984ZM285.307 255.592L288.053 256.799L289.181 254.232L286.696 252.933L285.307 255.592ZM281.403 265.896L278.559 264.938L278.543 264.986L278.529 265.034L281.403 265.896ZM280.762 267.816L278.883 270.154L282.042 272.694L283.548 268.93L280.762 267.816ZM270.907 263.464L270.12 266.359L270.133 266.363L270.146 266.366L270.907 263.464ZM251.066 262.504L252.092 265.323L252.129 265.31L252.166 265.295L251.066 262.504ZM251.835 267.304L250.886 270.15L250.923 270.163L250.961 270.174L251.835 267.304ZM279.995 271.336L278.631 274.008L278.642 274.014L278.653 274.019L279.995 271.336ZM279.611 293.736L281.15 296.311L281.16 296.305L281.169 296.3L279.611 293.736ZM245.37 296.104L244.733 299.036L244.745 299.038L244.758 299.041L245.37 296.104ZM234.619 293.16C236.122 290.905 237.384 288.769 238.39 286.758L233.023 284.074C232.152 285.817 231.024 287.735 229.626 289.832L234.619 293.16ZM238.365 286.806C239.422 284.785 240.412 282.481 241.343 279.909L235.702 277.867C234.841 280.244 233.954 282.292 233.048 284.026L238.365 286.806ZM237.022 281.486C240.337 283.4 244.131 284.861 248.369 285.898L249.796 280.07C246.013 279.144 242.766 277.874 240.023 276.29L237.022 281.486ZM248.369 285.898C252.57 286.926 256.545 287.456 260.283 287.456V281.456C257.108 281.456 253.617 281.005 249.796 280.07L248.369 285.898ZM260.283 287.456C263.845 287.456 266.868 287.176 268.913 286.334L266.628 280.786C265.772 281.139 263.802 281.456 260.283 281.456V287.456ZM268.981 286.305C269.856 285.919 270.746 285.424 271.459 284.753C272.192 284.063 272.947 282.974 272.947 281.512H266.947C266.947 281.173 267.036 280.883 267.144 280.674C267.243 280.48 267.341 280.389 267.346 280.383C267.353 280.378 267.304 280.423 267.164 280.508C267.027 280.592 266.83 280.696 266.56 280.815L268.981 286.305ZM272.947 281.512C272.947 278.189 270.254 276.503 267.905 275.733C265.459 274.931 262.096 274.608 258.043 274.608V280.608C261.925 280.608 264.514 280.936 266.036 281.435C267.655 281.966 266.947 282.232 266.947 281.512H272.947ZM258.043 274.608C249.419 274.608 243.652 273.701 240.344 272.191L237.853 277.649C242.395 279.723 249.258 280.608 258.043 280.608V274.608ZM240.369 272.202C238.792 271.465 237.794 270.594 237.179 269.672C236.572 268.762 236.21 267.611 236.21 266.088H230.21C230.21 268.618 230.83 270.966 232.186 273C233.534 275.022 235.48 276.54 237.828 277.638L240.369 272.202ZM236.21 266.088C236.21 261.343 238.075 258.123 241.867 255.957L238.89 250.747C233.124 254.042 230.21 259.313 230.21 266.088H236.21ZM241.867 255.957C246.05 253.566 251.695 252.256 259.003 252.256V246.256C251.036 246.256 244.264 247.676 238.89 250.747L241.867 255.957ZM259.003 252.256C263.178 252.256 267.48 252.798 271.913 253.896L273.356 248.072C268.488 246.866 263.701 246.256 259.003 246.256V252.256ZM271.944 253.904C276.427 254.963 280.412 256.418 283.917 258.251L286.696 252.933C282.692 250.84 278.228 249.223 273.325 248.064L271.944 253.904ZM282.56 254.385C281.276 257.307 279.943 260.83 278.559 264.938L284.246 266.854C285.593 262.855 286.862 259.509 288.053 256.799L282.56 254.385ZM278.529 265.034C278.28 265.865 278.097 266.402 277.977 266.702L283.548 268.93C283.769 268.376 284.013 267.633 284.276 266.758L278.529 265.034ZM282.642 265.478C279.994 263.349 276.245 261.762 271.667 260.562L270.146 266.366C274.357 267.47 277.179 268.784 278.883 270.154L282.642 265.478ZM271.693 260.569C267.126 259.327 262.969 258.672 259.258 258.672V264.672C262.289 264.672 265.898 265.211 270.12 266.359L271.693 260.569ZM259.258 258.672C257.173 258.672 255.369 258.743 253.867 258.895C252.412 259.043 251.054 259.284 249.967 259.713L252.166 265.295C252.487 265.169 253.198 264.994 254.474 264.865C255.703 264.74 257.29 264.672 259.258 264.672V258.672ZM250.041 259.685C249.069 260.038 248.06 260.576 247.271 261.437C246.422 262.363 245.954 263.531 245.954 264.808H251.954C251.954 264.903 251.937 265.038 251.879 265.185C251.821 265.331 251.746 265.434 251.694 265.491C251.646 265.543 251.633 265.541 251.697 265.502C251.763 265.462 251.887 265.398 252.092 265.323L250.041 259.685ZM245.954 264.808C245.954 266.394 246.744 267.63 247.71 268.467C248.611 269.248 249.748 269.771 250.886 270.15L252.783 264.458C252.412 264.334 252.137 264.218 251.94 264.117C251.74 264.014 251.655 263.946 251.639 263.933C251.626 263.922 251.711 263.991 251.799 264.162C251.895 264.347 251.954 264.574 251.954 264.808H245.954ZM250.961 270.174C253.347 270.9 256.511 271.2 260.283 271.2V265.2C256.715 265.2 254.248 264.903 252.708 264.434L250.961 270.174ZM260.283 271.2C269.227 271.2 275.197 272.255 278.631 274.008L281.358 268.664C276.6 266.235 269.428 265.2 260.283 265.2V271.2ZM278.653 274.019C280.326 274.856 281.41 275.831 282.086 276.873C282.754 277.902 283.139 279.174 283.139 280.808H289.139C289.139 278.175 288.499 275.735 287.119 273.607C285.747 271.492 283.759 269.864 281.336 268.653L278.653 274.019ZM283.139 280.808C283.139 285.947 281.341 289.174 278.052 291.172L281.169 296.3C286.584 293.008 289.139 287.616 289.139 280.808H283.139ZM278.071 291.161C274.414 293.348 268.475 294.64 259.835 294.64V300.64C268.858 300.64 276.103 299.329 281.15 296.311L278.071 291.161ZM259.835 294.64C255.316 294.64 250.7 294.152 245.983 293.167L244.758 299.041C249.854 300.104 254.881 300.64 259.835 300.64V294.64ZM246.008 293.172C241.319 292.153 237.153 290.697 233.487 288.824L230.758 294.168C234.943 296.306 239.608 297.921 244.733 299.036L246.008 293.172ZM302.639 295.976L299.659 296.322L299.972 299.014L302.682 298.976L302.639 295.976ZM300.656 287.848L297.86 288.938L297.864 288.946L297.867 288.954L300.656 287.848ZM296.432 280.232L296.551 277.234L290.416 276.989L293.993 281.98L296.432 280.232ZM326.896 278.12L326.089 275.23L326.082 275.232L326.074 275.235L326.896 278.12ZM330.415 276.712L328.586 274.334L328.54 274.37L328.495 274.407L330.415 276.712ZM328.751 271.144L327.354 273.799L327.396 273.821L327.438 273.841L328.751 271.144ZM308.719 271.208L309.224 274.165L308.719 271.208ZM295.6 274.344L292.665 274.965L293.366 278.277L296.569 277.183L295.6 274.344ZM292.591 260.136L291.975 257.2L289.034 257.818L289.657 260.757L292.591 260.136ZM309.296 257.256L309.682 260.231L309.693 260.23L309.703 260.228L309.296 257.256ZM336.176 258.216L335.14 261.032L335.15 261.035L336.176 258.216ZM344.751 264.168L342.356 265.974L342.366 265.987L342.375 265.999L344.751 264.168ZM341.743 287.336L343.642 289.659L343.645 289.657L341.743 287.336ZM326.064 293.992L326.607 296.942L326.064 293.992ZM305.62 295.63C305.251 292.455 304.533 289.487 303.444 286.742L297.867 288.954C298.741 291.159 299.345 293.609 299.659 296.322L305.62 295.63ZM303.451 286.758C302.365 283.973 300.827 281.215 298.87 278.484L293.993 281.98C295.705 284.369 296.984 286.688 297.86 288.938L303.451 286.758ZM296.312 283.23C300.579 283.4 303.662 283.488 305.52 283.488V277.488C303.793 277.488 300.817 277.405 296.551 277.234L296.312 283.23ZM305.52 283.488C314.375 283.488 321.804 282.688 327.717 281.005L326.074 275.235C320.894 276.709 314.072 277.488 305.52 277.488V283.488ZM327.702 281.01C328.677 280.737 329.542 280.459 330.266 280.169C330.932 279.903 331.709 279.539 332.336 279.017L328.495 274.407C328.61 274.312 328.544 274.396 328.037 274.599C327.588 274.778 326.949 274.991 326.089 275.23L327.702 281.01ZM332.245 279.09C333.738 277.941 334.247 276.269 334.247 274.728H328.247C328.247 274.874 328.224 274.852 328.273 274.736C328.298 274.676 328.338 274.602 328.396 274.526C328.455 274.448 328.521 274.384 328.586 274.334L332.245 279.09ZM334.247 274.728C334.247 273.38 333.882 272.077 333.085 270.934C332.308 269.817 331.235 269.017 330.065 268.447L327.438 273.841C327.932 274.082 328.107 274.284 328.162 274.362C328.197 274.414 328.247 274.497 328.247 274.728H334.247ZM330.149 268.489C327.894 267.302 324.952 266.864 321.648 266.864V272.864C324.573 272.864 326.367 273.279 327.354 273.799L330.149 268.489ZM321.648 266.864C318.04 266.864 313.546 267.341 308.215 268.251L309.224 274.165C314.389 273.283 318.514 272.864 321.648 272.864V266.864ZM308.215 268.251C302.871 269.163 298.33 270.242 294.63 271.505L296.569 277.183C299.866 276.057 304.072 275.045 309.224 274.165L308.215 268.251ZM298.534 273.723L295.526 259.515L289.657 260.757L292.665 274.965L298.534 273.723ZM293.208 263.072C299.03 261.848 304.521 260.902 309.682 260.231L308.909 254.281C303.574 254.975 297.929 255.949 291.975 257.2L293.208 263.072ZM309.703 260.228C314.912 259.514 319.269 259.168 322.799 259.168V253.168C318.906 253.168 314.261 253.547 308.888 254.284L309.703 260.228ZM322.799 259.168C327.757 259.168 331.846 259.82 335.14 261.032L337.211 255.4C333.081 253.881 328.253 253.168 322.799 253.168V259.168ZM335.15 261.035C338.484 262.247 340.814 263.93 342.356 265.974L347.147 262.362C344.763 259.201 341.377 256.915 337.201 255.397L335.15 261.035ZM342.375 265.999C343.939 268.028 344.76 270.463 344.76 273.448H350.76C350.76 269.265 349.575 265.513 347.128 262.337L342.375 265.999ZM344.76 273.448C344.76 278.675 343.047 282.39 339.842 285.015L343.645 289.657C348.461 285.711 350.76 280.167 350.76 273.448H344.76ZM339.845 285.013C336.365 287.857 331.647 289.913 325.52 291.042L326.607 296.942C333.451 295.682 339.186 293.301 343.642 289.659L339.845 285.013ZM325.52 291.042C319.249 292.197 311.619 292.85 302.597 292.976L302.682 298.976C311.921 298.846 319.907 298.177 326.607 296.942L325.52 291.042ZM401.648 261.928V258.928H401.581L401.514 258.931L401.648 261.928ZM391.855 264.424L393.312 267.046H393.312L391.855 264.424ZM385.775 270.056L383.207 268.505L383.203 268.513L383.199 268.52L385.775 270.056ZM384.624 279.976L382.24 281.798L382.273 281.841L382.308 281.883L384.624 279.976ZM409.648 281.704L412.393 282.914L414.395 278.369L409.441 278.711L409.648 281.704ZM407.536 288.744L404.563 288.336L404.56 288.361L404.557 288.387L407.536 288.744ZM407.087 296.488L407.195 299.486L410.047 299.384L410.087 296.53L407.087 296.488ZM379.695 294.632L378.945 297.537L378.959 297.54L378.974 297.544L379.695 294.632ZM369.327 289.32L366.955 291.156L366.974 291.181L366.994 291.205L369.327 289.32ZM369.008 270.632L371.683 271.989L371.687 271.981L371.691 271.974L369.008 270.632ZM375.471 262.504L377.409 264.794L385.517 257.934L375.018 259.538L375.471 262.504ZM356.208 265.448H353.208V268.941L356.661 268.414L356.208 265.448ZM356.208 250.6V247.6H353.208V250.6H356.208ZM372.975 250.28L372.898 247.281L372.894 247.281L372.975 250.28ZM385.327 249.96L385.269 246.961L385.26 246.961L385.25 246.961L385.327 249.96ZM397.488 249.64L397.591 252.638L397.608 252.638L397.625 252.637L397.488 249.64ZM412.784 248.872L415.783 248.828L415.737 245.712L412.626 245.876L412.784 248.872ZM412.975 261.928V264.928H416.02L415.975 261.884L412.975 261.928ZM401.514 258.931C397.323 259.117 393.582 260.033 390.399 261.802L393.312 267.046C395.505 265.828 398.292 265.08 401.781 264.925L401.514 258.931ZM390.399 261.802C387.329 263.507 384.885 265.727 383.207 268.505L388.344 271.607C389.397 269.862 391.006 268.328 393.312 267.046L390.399 261.802ZM383.199 268.52C381.622 271.164 380.792 273.994 380.792 276.968H386.792C386.792 275.163 387.283 273.385 388.352 271.592L383.199 268.52ZM380.792 276.968C380.792 278.648 381.153 280.376 382.24 281.798L387.007 278.154C386.985 278.125 386.792 277.848 386.792 276.968H380.792ZM382.308 281.883C383.588 283.437 385.661 284.162 387.579 284.573L388.836 278.707C388.081 278.545 387.564 278.369 387.231 278.215C386.888 278.056 386.862 277.975 386.939 278.069L382.308 281.883ZM387.579 284.573C389.69 285.026 392.636 285.216 396.271 285.216V279.216C392.739 279.216 390.309 279.022 388.836 278.707L387.579 284.573ZM396.271 285.216C400.323 285.216 404.852 285.042 409.854 284.697L409.441 278.711C404.544 279.049 400.156 279.216 396.271 279.216V285.216ZM406.902 280.494C405.707 283.206 404.908 285.824 404.563 288.336L410.508 289.152C410.76 287.312 411.369 285.237 412.393 282.914L406.902 280.494ZM404.557 288.387C404.284 290.657 404.131 293.35 404.088 296.446L410.087 296.53C410.129 293.567 410.275 291.098 410.514 289.101L404.557 288.387ZM406.98 293.49C405.84 293.531 404.155 293.552 401.904 293.552V299.552C404.175 299.552 405.946 299.531 407.195 299.486L406.98 293.49ZM401.904 293.552C392.342 293.552 385.226 292.912 380.417 291.72L378.974 297.544C384.49 298.912 392.18 299.552 401.904 299.552V293.552ZM380.446 291.727C375.488 290.447 372.827 288.878 371.661 287.435L366.994 291.205C369.412 294.199 373.663 296.172 378.945 297.537L380.446 291.727ZM371.7 287.484C370.437 285.851 369.704 283.678 369.704 280.744H363.704C363.704 284.722 364.719 288.266 366.955 291.156L371.7 287.484ZM369.704 280.744C369.704 277.459 370.38 274.56 371.683 271.989L366.332 269.275C364.563 272.763 363.704 276.605 363.704 280.744H369.704ZM371.691 271.974C373.035 269.286 374.928 266.894 377.409 264.794L373.534 260.214C370.468 262.808 368.052 265.834 366.324 269.29L371.691 271.974ZM375.018 259.538L355.754 262.482L356.661 268.414L375.925 265.47L375.018 259.538ZM359.208 265.448V250.6H353.208V265.448H359.208ZM356.208 253.6C359.538 253.6 365.163 253.492 373.057 253.279L372.894 247.281C365.001 247.494 359.448 247.6 356.208 247.6V253.6ZM373.053 253.279L385.405 252.959L385.25 246.961L372.898 247.281L373.053 253.279ZM385.386 252.959C389.793 252.874 393.861 252.767 397.591 252.638L397.384 246.642C393.69 246.769 389.652 246.875 385.269 246.961L385.386 252.959ZM397.625 252.637C401.347 252.466 406.453 252.209 412.941 251.868L412.626 245.876C406.143 246.217 401.052 246.473 397.35 246.643L397.625 252.637ZM409.784 248.916L409.976 261.972L415.975 261.884L415.783 248.828L409.784 248.916ZM412.975 258.928H401.648V264.928H412.975V258.928ZM452.4 263.912L452.698 266.897L455.4 266.627V263.912H452.4ZM440.56 264.808L440.368 261.814L438.134 261.957L437.635 264.14L440.56 264.808ZM434.224 281.512L431.599 280.059L431.594 280.067L431.59 280.075L434.224 281.512ZM424.048 295.016L421.184 295.911L422.636 300.557L426.134 297.172L424.048 295.016ZM420.656 286.376L417.935 287.64L420.656 286.376ZM416.688 279.208L414.651 277.005L412.719 278.792L414.238 280.94L416.688 279.208ZM422.32 272.744L424.808 274.419L424.816 274.408L424.823 274.397L422.32 272.744ZM425.904 265.192L428.758 266.114L430.063 262.075L425.82 262.193L425.904 265.192ZM418.928 265.256H415.928V268.256H418.928V265.256ZM418.928 252.584V249.584H415.928V252.584H418.928ZM428.016 252.52L428.079 255.519L430.838 255.461L431.01 252.707L428.016 252.52ZM428.143 249.384V246.384H425.143V249.384H428.143ZM442.288 249.384H445.288V246.384H442.288V249.384ZM442.224 252.072L439.231 251.858L438.988 255.26L442.393 255.067L442.224 252.072ZM452.4 251.24H455.4V247.944L452.118 248.253L452.4 251.24ZM452.4 260.84H449.4L455.276 261.691L452.4 260.84ZM455.599 250.024L455.986 247.049L453.449 246.72L452.723 249.173L455.599 250.024ZM479.855 254.376L482.747 255.176L483.575 252.183L480.555 251.459L479.855 254.376ZM476.208 267.56L475.25 270.403L478.254 271.414L479.099 268.36L476.208 267.56ZM452.4 262.184L452.681 259.197L449.4 258.888V262.184H452.4ZM469.871 266.088H472.871V263.088H469.871V266.088ZM469.871 275.624H466.871V277.694L468.806 278.429L469.871 275.624ZM479.728 280.488L482.603 281.343L483.26 279.135L481.296 277.931L479.728 280.488ZM475.504 294.696L473.404 296.839L476.96 300.324L478.379 295.551L475.504 294.696ZM468.784 288.808L470.631 286.445L467.427 283.939L465.98 287.741L468.784 288.808ZM440.047 293.992L438.295 296.427L438.305 296.434L438.316 296.442L440.047 293.992ZM437.423 277.288L435.05 275.454V275.454L437.423 277.288ZM443.311 273L442.206 270.211L443.311 273ZM455.344 271.784L454.934 274.756L458.344 275.226V271.784H455.344ZM455.344 266.088V263.088H452.344V266.088H455.344ZM455.344 282.024H458.344V279.512L455.871 279.071L455.344 282.024ZM449.904 282.024L451.145 284.755L451.145 284.755L449.904 282.024ZM450.159 284.456L448.495 286.952L448.555 286.992L448.616 287.028L450.159 284.456ZM454.768 284.456L452.646 282.335L452.584 282.397L452.525 282.463L454.768 284.456ZM452.101 260.927C449.597 261.177 445.695 261.473 440.368 261.814L440.751 267.802C446.091 267.46 450.082 267.159 452.698 266.897L452.101 260.927ZM437.635 264.14C436.33 269.849 434.316 275.152 431.599 280.059L436.848 282.965C439.848 277.547 442.058 271.714 443.484 265.476L437.635 264.14ZM431.59 280.075C428.909 284.989 425.698 289.244 421.961 292.86L426.134 297.172C430.333 293.108 433.906 288.36 436.857 282.949L431.59 280.075ZM426.911 294.121C426.012 291.245 424.831 288.241 423.376 285.112L417.935 287.64C419.296 290.569 420.376 293.325 421.184 295.911L426.911 294.121ZM423.376 285.112C421.929 281.998 420.519 279.43 419.137 277.476L414.238 280.94C415.33 282.484 416.566 284.695 417.935 287.64L423.376 285.112ZM418.724 281.411C421.131 279.186 423.167 276.857 424.808 274.419L419.831 271.069C418.485 273.068 416.767 275.049 414.651 277.005L418.724 281.411ZM424.823 274.397C426.477 271.893 427.785 269.127 428.758 266.114L423.049 264.27C422.23 266.804 421.149 269.072 419.816 271.091L424.823 274.397ZM425.82 262.193C424.328 262.235 422.036 262.256 418.928 262.256V268.256C422.048 268.256 424.407 268.235 425.987 268.191L425.82 262.193ZM421.928 265.256V252.584H415.928V265.256H421.928ZM418.928 255.584C422.985 255.584 426.041 255.563 428.079 255.519L427.952 249.521C425.98 249.563 422.976 249.584 418.928 249.584V255.584ZM431.01 252.707C431.096 251.324 431.143 250.204 431.143 249.384H425.143C425.143 250.014 425.106 250.986 425.021 252.333L431.01 252.707ZM428.143 252.384H442.288V246.384H428.143V252.384ZM439.288 249.384C439.288 250.563 439.266 251.372 439.231 251.858L445.216 252.286C445.266 251.578 445.288 250.595 445.288 249.384H439.288ZM442.393 255.067C444.713 254.936 448.15 254.654 452.681 254.227L452.118 248.253C447.603 248.679 444.257 248.952 442.054 249.077L442.393 255.067ZM449.4 251.24V260.84H455.4V251.24H449.4ZM455.276 261.691L458.476 250.875L452.723 249.173L449.523 259.989L455.276 261.691ZM455.213 252.999C464.002 254.14 471.981 255.573 479.156 257.293L480.555 251.459C473.138 249.68 464.946 248.212 455.986 247.049L455.213 252.999ZM476.964 253.576L473.316 266.76L479.099 268.36L482.747 255.176L476.964 253.576ZM477.165 264.717C468.378 261.759 460.213 259.906 452.681 259.197L452.118 265.171C459.093 265.827 466.799 267.558 475.25 270.403L477.165 264.717ZM449.4 262.184V263.912H455.4V262.184H449.4ZM466.871 266.088V275.624H472.871V266.088H466.871ZM468.806 278.429C471.995 279.639 475.112 281.177 478.159 283.045L481.296 277.931C477.943 275.874 474.489 274.169 470.937 272.819L468.806 278.429ZM476.852 279.633L472.628 293.841L478.379 295.551L482.603 281.343L476.852 279.633ZM477.603 292.553C475.39 290.385 473.066 288.348 470.631 286.445L466.936 291.171C469.194 292.937 471.35 294.826 473.404 296.839L477.603 292.553ZM465.98 287.741C465.149 289.924 463.754 291.505 461.711 292.591C459.597 293.715 456.641 294.384 452.656 294.384V300.384C457.246 300.384 461.266 299.624 464.528 297.889C467.861 296.117 470.242 293.409 471.587 289.875L465.98 287.741ZM452.656 294.384C447.869 294.384 444.33 293.345 441.779 291.542L438.316 296.442C442.165 299.162 447.031 300.384 452.656 300.384V294.384ZM441.8 291.557C439.473 289.882 438.247 287.511 438.247 284.008H432.247C432.247 289.209 434.222 293.494 438.295 296.427L441.8 291.557ZM438.247 284.008C438.247 282.001 438.792 280.423 439.797 279.122L435.05 275.454C433.153 277.908 432.247 280.81 432.247 284.008H438.247ZM439.797 279.122C440.88 277.721 442.381 276.596 444.417 275.789L442.206 270.211C439.293 271.366 436.868 273.1 435.05 275.454L439.797 279.122ZM444.417 275.789C446.5 274.963 448.85 274.528 451.504 274.528V268.528C448.184 268.528 445.073 269.074 442.206 270.211L444.417 275.789ZM451.504 274.528C452.697 274.528 453.84 274.605 454.934 274.756L455.753 268.812C454.373 268.622 452.955 268.528 451.504 268.528V274.528ZM458.344 271.784V266.088H452.344V271.784H458.344ZM455.344 269.088H469.871V263.088H455.344V269.088ZM455.871 279.071C454.559 278.836 453.33 278.704 452.207 278.704V284.704C452.877 284.704 453.739 284.785 454.816 284.977L455.871 279.071ZM452.207 278.704C451.074 278.704 449.753 278.797 448.662 279.293L451.145 284.755C451.02 284.812 451.018 284.787 451.244 284.755C451.451 284.727 451.765 284.704 452.207 284.704V278.704ZM448.662 279.293C448.007 279.59 447.342 280.077 446.857 280.826C446.371 281.577 446.199 282.387 446.199 283.112H452.199C452.199 283.325 452.145 283.698 451.894 284.086C451.644 284.473 451.33 284.671 451.145 284.755L448.662 279.293ZM446.199 283.112C446.199 285.097 447.564 286.331 448.495 286.952L451.824 281.96C451.695 281.874 451.764 281.892 451.881 282.056C452.019 282.25 452.199 282.619 452.199 283.112H446.199ZM448.616 287.028C449.881 287.787 451.33 288.032 452.72 288.032V282.032C451.976 282.032 451.718 281.893 451.703 281.884L448.616 287.028ZM452.72 288.032C453.848 288.032 455.741 287.877 457.01 286.449L452.525 282.463C452.855 282.092 453.179 282.002 453.187 282C453.201 281.996 453.173 282.005 453.088 282.015C453.005 282.024 452.884 282.032 452.72 282.032V288.032ZM456.889 286.577C458.034 285.432 458.344 283.958 458.344 282.728H452.344C452.344 282.871 452.325 282.874 452.353 282.787C452.387 282.686 452.472 282.509 452.646 282.335L456.889 286.577ZM458.344 282.728V282.024H452.344V282.728H458.344ZM506.031 252.328L505.468 249.381L502.889 249.874L503.036 252.496L506.031 252.328ZM540.464 250.152H543.464V247.345L540.663 247.159L540.464 250.152ZM540.591 258.024L537.594 258.139L537.594 258.142L540.591 258.024ZM541.232 264.616L540.869 267.594L544.799 268.072L544.197 264.16L541.232 264.616ZM506.799 266.024L503.804 266.192L503.999 269.671L507.411 268.961L506.799 266.024ZM485.68 296.552L482.743 297.167L483.285 299.754L485.919 299.542L485.68 296.552ZM483.952 286.184L480.968 286.494L480.97 286.515L480.972 286.537L483.952 286.184ZM485.039 250.664V247.664H482.354L482.058 250.333L485.039 250.664ZM501.359 250.664L504.338 251.021L504.741 247.664H501.359V250.664ZM500.143 286.12L497.178 286.573L497.181 286.597L497.185 286.62L500.143 286.12ZM502.448 295.208L502.687 298.198L506.521 297.891L505.29 294.247L502.448 295.208ZM508.336 292.264L506.391 294.548L508.336 292.264ZM503.983 274.856L503.728 271.867L501.351 272.07L501.014 274.432L503.983 274.856ZM517.423 271.08L520.403 271.426L521.061 265.773L516.025 268.426L517.423 271.08ZM517.743 279.08L515.06 280.422L515.087 280.474L515.115 280.526L517.743 279.08ZM519.792 280.808L518.843 283.654L519.792 280.808ZM533.552 280.936L533.768 283.928L533.788 283.927L533.808 283.925L533.552 280.936ZM543.983 279.144L546.88 279.927L548.193 275.065L543.293 276.225L543.983 279.144ZM542.96 285.992L539.97 285.736L539.969 285.755L539.967 285.775L542.96 285.992ZM542.639 295.144L543.038 298.117L545.639 297.768V295.144H542.639ZM533.039 296.104L533.172 299.101L533.194 299.1L533.216 299.099L533.039 296.104ZM506.595 255.275C515.121 253.645 523.53 252.832 531.823 252.832V246.832C523.136 246.832 514.35 247.683 505.468 249.381L506.595 255.275ZM531.823 252.832C534.303 252.832 537.115 252.935 540.264 253.145L540.663 247.159C537.412 246.942 534.464 246.832 531.823 246.832V252.832ZM537.464 250.152C537.464 253.207 537.507 255.871 537.594 258.139L543.589 257.909C543.506 255.739 543.464 253.156 543.464 250.152H537.464ZM537.594 258.142C537.684 260.434 537.908 262.745 538.266 265.072L544.197 264.16C543.872 262.05 543.67 259.966 543.589 257.906L537.594 258.142ZM541.594 261.638C536.591 261.029 531.966 260.72 527.728 260.72V266.72C531.681 266.72 536.059 267.008 540.869 267.594L541.594 261.638ZM527.728 260.72C520.924 260.72 513.742 261.515 506.188 263.087L507.411 268.961C514.62 267.461 521.39 266.72 527.728 266.72V260.72ZM509.795 265.856L509.027 252.16L503.036 252.496L503.804 266.192L509.795 265.856ZM488.616 295.937C487.863 292.342 487.303 288.974 486.931 285.831L480.972 286.537C481.368 289.879 481.96 293.423 482.743 297.167L488.616 295.937ZM486.935 285.874C486.607 282.713 486.44 279.128 486.44 275.112H480.44C480.44 279.288 480.613 283.085 480.968 286.494L486.935 285.874ZM486.44 275.112C486.44 268.561 486.962 260.529 488.021 250.995L482.058 250.333C480.984 259.999 480.44 268.266 480.44 275.112H486.44ZM485.039 253.664H501.359V247.664H485.039V253.664ZM498.381 250.307C497.096 261.014 496.44 269.473 496.44 275.624H502.44C502.44 269.829 503.063 261.647 504.338 251.021L498.381 250.307ZM496.44 275.624C496.44 279.664 496.681 283.318 497.178 286.573L503.109 285.667C502.668 282.778 502.44 279.435 502.44 275.624H496.44ZM497.185 286.62C497.725 289.812 498.533 292.995 499.605 296.169L505.29 294.247C504.314 291.362 503.586 288.487 503.102 285.62L497.185 286.62ZM502.208 292.218L485.44 293.562L485.919 299.542L502.687 298.198L502.208 292.218ZM523.44 293.296C516.801 293.296 512.635 291.984 510.28 289.98L506.391 294.548C510.351 297.92 516.254 299.296 523.44 299.296V293.296ZM510.28 289.98C508 288.038 506.599 284.894 506.599 279.912H500.599C500.599 286.023 502.357 291.114 506.391 294.548L510.28 289.98ZM506.599 279.912C506.599 278.494 506.715 276.952 506.953 275.28L501.014 274.432C500.74 276.344 500.599 278.173 500.599 279.912H506.599ZM504.239 277.845C509.584 277.388 514.46 276.032 518.822 273.734L516.025 268.426C512.451 270.309 508.367 271.47 503.728 271.867L504.239 277.845ZM514.444 270.733C514.226 272.602 514.104 274.147 514.104 275.304H520.104C520.104 274.499 520.194 273.228 520.403 271.426L514.444 270.733ZM514.104 275.304C514.104 277.136 514.324 278.949 515.06 280.422L520.427 277.738C520.31 277.505 520.104 276.8 520.104 275.304H514.104ZM515.115 280.526C515.936 282.018 517.206 283.109 518.843 283.654L520.74 277.962C520.585 277.91 520.49 277.849 520.372 277.634L515.115 280.526ZM518.843 283.654C520.176 284.098 521.756 284.256 523.44 284.256V278.256C522.051 278.256 521.199 278.115 520.74 277.962L518.843 283.654ZM523.44 284.256C527.29 284.256 530.735 284.148 533.768 283.928L533.335 277.944C530.48 278.151 527.184 278.256 523.44 278.256V284.256ZM533.808 283.925C536.982 283.653 540.61 283.025 544.674 282.063L543.293 276.225C539.421 277.141 536.094 277.707 533.295 277.947L533.808 283.925ZM541.087 278.361C540.591 280.199 540.231 282.692 539.97 285.736L545.949 286.248C546.2 283.319 546.523 281.246 546.88 279.927L541.087 278.361ZM539.967 285.775C539.748 288.796 539.639 291.919 539.639 295.144H545.639C545.639 292.054 545.744 289.076 545.952 286.209L539.967 285.775ZM542.241 292.171C538.801 292.632 535.676 292.944 532.863 293.109L533.216 299.099C536.205 298.923 539.481 298.595 543.038 298.117L542.241 292.171ZM532.907 293.107C530.058 293.233 526.903 293.296 523.44 293.296V299.296C526.974 299.296 530.219 299.231 533.172 299.101L532.907 293.107ZM590.064 248.36L588.949 251.145L588.961 251.15L590.064 248.36ZM598.255 254.056L595.941 255.965V255.965L598.255 254.056ZM599.408 269.032L596.92 267.355V267.355L599.408 269.032ZM594.672 273.512L596.149 276.123L596.182 276.104L596.215 276.084L594.672 273.512ZM591.28 275.432L592.742 278.052L592.749 278.047L592.757 278.043L591.28 275.432ZM587.632 277.544L589.191 280.107L589.223 280.087L589.254 280.068L587.632 277.544ZM585.583 279.528L588.235 280.932V280.932L585.583 279.528ZM585.008 282.088V285.088H588.008V282.088H585.008ZM570.352 282.088H567.352V285.088H570.352V282.088ZM572.655 273.96L575.106 275.69L575.114 275.679L575.122 275.668L572.655 273.96ZM580.4 268.2L581.624 270.939L581.625 270.938L580.4 268.2ZM583.919 265.832L581.642 263.88L581.634 263.889L583.919 265.832ZM583.28 259.624L581.438 261.992L581.458 262.008L581.479 262.024L583.28 259.624ZM573.168 260.072L571.192 257.814L571.174 257.83L571.157 257.846L573.168 260.072ZM571.568 268.072L570.739 270.955L575.637 272.363L574.491 267.397L571.568 268.072ZM556.272 266.6L553.29 266.931L553.586 269.6H556.272V266.6ZM559.023 255.4L556.533 253.727L556.527 253.736L559.023 255.4ZM567.023 248.744L568.283 251.467L568.29 251.463L568.298 251.46L567.023 248.744ZM585.072 298.28V301.28H588.072V298.28H585.072ZM570.224 298.28H567.224V301.28H570.224V298.28ZM570.224 286.888V283.888H567.224V286.888H570.224ZM585.072 286.888H588.072V283.888H585.072V286.888ZM578.863 249.312C582.574 249.312 585.925 249.936 588.949 251.145L591.178 245.575C587.375 244.054 583.259 243.312 578.863 243.312V249.312ZM588.961 251.15C592.03 252.362 594.312 253.989 595.941 255.965L600.57 252.147C598.188 249.259 595.009 247.088 591.166 245.57L588.961 251.15ZM595.941 255.965C597.502 257.858 598.263 259.978 598.263 262.44H604.263C604.263 258.587 603.019 255.118 600.57 252.147L595.941 255.965ZM598.263 262.44C598.263 264.499 597.773 266.09 596.92 267.355L601.895 270.709C603.516 268.305 604.263 265.501 604.263 262.44H598.263ZM596.92 267.355C595.931 268.821 594.676 270.011 593.128 270.94L596.215 276.084C598.507 274.709 600.409 272.912 601.895 270.709L596.92 267.355ZM593.194 270.901L589.802 272.821L592.757 278.043L596.149 276.123L593.194 270.901ZM589.817 272.812C587.996 273.829 586.698 274.578 586.009 275.02L589.254 280.068C589.76 279.742 590.894 279.083 592.742 278.052L589.817 272.812ZM586.072 274.981C584.805 275.753 583.65 276.767 582.932 278.124L588.235 280.932C588.285 280.838 588.496 280.53 589.191 280.107L586.072 274.981ZM582.932 278.124C582.278 279.359 582.008 280.713 582.008 282.088H588.008C588.008 281.501 588.121 281.148 588.235 280.932L582.932 278.124ZM585.008 279.088H570.352V285.088H585.008V279.088ZM573.352 282.088C573.352 279.328 573.999 277.258 575.106 275.69L570.205 272.23C568.24 275.014 567.352 278.363 567.352 282.088H573.352ZM575.122 275.668C576.232 274.064 578.276 272.435 581.624 270.939L579.175 265.461C575.269 267.207 572.151 269.418 570.189 272.252L575.122 275.668ZM581.625 270.938C583.441 270.126 585.069 269.111 586.205 267.775L581.634 263.889C581.319 264.259 580.601 264.823 579.174 265.462L581.625 270.938ZM586.197 267.784C587.399 266.382 588.072 264.697 588.072 262.824H582.072C582.072 263.169 581.976 263.49 581.642 263.88L586.197 267.784ZM588.072 262.824C588.072 260.443 586.854 258.555 585.079 257.224L581.479 262.024C582.094 262.485 582.072 262.731 582.072 262.824H588.072ZM585.121 257.256C583.332 255.864 581.167 255.28 578.863 255.28V261.28C580.144 261.28 580.923 261.592 581.438 261.992L585.121 257.256ZM578.863 255.28C575.955 255.28 573.267 255.999 571.192 257.814L575.143 262.33C575.799 261.756 576.908 261.28 578.863 261.28V255.28ZM571.157 257.846C569.068 259.732 568.184 262.306 568.184 265.128H574.184C574.184 263.598 574.622 262.801 575.178 262.298L571.157 257.846ZM568.184 265.128C568.184 266.269 568.353 267.485 568.644 268.747L574.491 267.397C574.27 266.441 574.184 265.693 574.184 265.128H568.184ZM572.396 265.189C568.569 264.089 563.13 263.6 556.272 263.6V269.6C562.981 269.6 567.739 270.093 570.739 270.955L572.396 265.189ZM559.253 266.269C559.229 266.047 559.207 265.642 559.207 265H553.207C553.207 265.723 553.229 266.385 553.29 266.931L559.253 266.269ZM559.207 265C559.207 261.972 559.991 259.358 561.52 257.064L556.527 253.736C554.302 257.074 553.207 260.86 553.207 265H559.207ZM561.514 257.073C563.1 254.712 565.321 252.837 568.283 251.467L565.764 246.021C561.9 247.809 558.787 250.371 556.533 253.727L561.514 257.073ZM568.298 251.46C571.295 250.054 574.795 249.312 578.863 249.312V243.312C574.057 243.312 569.664 244.192 565.749 246.028L568.298 251.46ZM585.072 295.28H570.224V301.28H585.072V295.28ZM573.224 298.28V286.888H567.224V298.28H573.224ZM570.224 289.888H585.072V283.888H570.224V289.888ZM582.072 286.888V298.28H588.072V286.888H582.072Z" fill="white" mask="url(#path-1-outside-1_243_299)"/>
</svg>
