<svg width="866" height="539" viewBox="0 0 866 539" fill="none" xmlns="http://www.w3.org/2000/svg">
<rect width="866" height="539" fill="#F2F2F2"/>
<mask id="path-1-outside-1_243_308" maskUnits="userSpaceOnUse" x="150" y="211" width="560" height="77" fill="black">
<rect fill="white" x="150" y="211" width="560" height="77"/>
<path d="M176.168 269.64C168.872 269.64 163.496 267.976 160.04 264.648C156.627 261.277 154.92 256.861 154.92 251.4C154.92 246.067 156.627 241.736 160.04 238.408C163.496 235.08 168.872 233.416 176.168 233.416C181.075 233.416 185.171 234.227 188.456 235.848C191.784 237.427 194.237 239.581 195.816 242.312C197.395 245 198.184 248.029 198.184 251.4C198.184 256.904 196.349 261.32 192.68 264.648C189.053 267.976 183.549 269.64 176.168 269.64ZM176.424 258.76C179.197 258.76 181.267 258.099 182.632 256.776C183.997 255.453 184.68 253.683 184.68 251.464C184.68 249.373 183.997 247.667 182.632 246.344C181.267 244.979 179.197 244.296 176.424 244.296C173.651 244.296 171.624 244.957 170.344 246.28C169.064 247.603 168.424 249.331 168.424 251.464C168.424 253.683 169.064 255.453 170.344 256.776C171.624 258.099 173.651 258.76 176.424 258.76ZM230.461 233.416C233.32 233.416 235.858 234.291 238.077 236.04C240.338 237.747 242.088 240.029 243.325 242.888C244.562 245.704 245.181 248.712 245.181 251.912C245.181 255.155 244.562 258.141 243.325 260.872C242.088 263.56 240.36 265.693 238.141 267.272C235.922 268.851 233.426 269.64 230.653 269.64C227.41 269.64 224.594 268.957 222.205 267.592C219.816 266.184 218.024 263.987 216.829 261L214.973 269H202.685C202.941 260.979 203.069 252.68 203.069 244.104C203.069 235.443 202.941 227.144 202.685 219.208H217.149L216.957 227.08C216.744 232.627 216.637 237.576 216.637 241.928C217.789 239.027 219.538 236.893 221.885 235.528C224.274 234.12 227.133 233.416 230.461 233.416ZM223.933 258.888C225.981 258.888 227.602 258.205 228.797 256.84C229.992 255.475 230.589 253.704 230.589 251.528C230.589 249.565 229.928 247.987 228.605 246.792C227.325 245.555 225.725 244.936 223.805 244.936C222.824 244.936 221.8 245.171 220.733 245.64C219.666 246.067 218.749 246.792 217.981 247.816C217.213 248.797 216.829 250.035 216.829 251.528C216.829 254.173 217.426 256.072 218.621 257.224C219.816 258.333 221.586 258.888 223.933 258.888ZM257.926 230.28C255.238 230.28 253.233 229.619 251.91 228.296C250.63 226.973 249.99 225.245 249.99 223.112C249.99 221.021 250.63 219.293 251.91 217.928C253.233 216.563 255.238 215.88 257.926 215.88C260.486 215.88 262.449 216.584 263.814 217.992C265.179 219.357 265.862 221.064 265.862 223.112C265.862 225.245 265.201 226.973 263.878 228.296C262.555 229.619 260.571 230.28 257.926 230.28ZM265.798 234.056C265.542 238.323 265.414 243.272 265.414 248.904L265.478 257.224C265.521 258.931 265.542 261.469 265.542 264.84C265.542 271.453 264.07 276.168 261.126 278.984C258.182 281.8 253.873 283.208 248.198 283.208C246.875 283.208 245.51 283.144 244.102 283.016V281.032C244.102 278.472 243.825 275.976 243.27 273.544L244.486 273.608C246.619 273.608 248.198 273.096 249.222 272.072C250.289 271.091 250.843 269.427 250.886 267.08C250.971 263.24 251.014 260.189 251.014 257.928C251.014 249.693 250.822 241.736 250.438 234.056H265.798ZM304.854 253H283.99C284.331 254.877 285.163 256.413 286.486 257.608C287.851 258.76 289.771 259.336 292.246 259.336C294.038 259.336 295.723 258.995 297.302 258.312C298.88 257.587 300.139 256.584 301.078 255.304C303.936 256.712 307.734 258.227 312.47 259.848C311.147 262.835 308.736 265.224 305.238 267.016C301.782 268.765 297.259 269.64 291.67 269.64C284.416 269.64 279.04 267.976 275.542 264.648C272.086 261.277 270.358 256.861 270.358 251.4C270.358 246.067 272.086 241.736 275.542 238.408C278.998 235.08 284.374 233.416 291.67 233.416C296.022 233.416 299.798 234.141 302.998 235.592C306.198 237.043 308.651 239.069 310.358 241.672C312.064 244.232 312.918 247.176 312.918 250.504C312.918 251.613 312.875 252.445 312.79 253H304.854ZM292.566 243.08C290.432 243.08 288.683 243.485 287.318 244.296C285.952 245.107 284.992 246.216 284.438 247.624H299.542C299.03 246.259 298.198 245.171 297.046 244.36C295.894 243.507 294.4 243.08 292.566 243.08ZM330.365 251.528C330.45 253.704 331.133 255.453 332.413 256.776C333.735 258.099 335.677 258.76 338.237 258.76C339.645 258.76 340.903 258.504 342.013 257.992C343.122 257.437 344.146 256.627 345.085 255.56C348.711 256.968 352.957 258.184 357.821 259.208C356.413 262.493 354.023 265.053 350.653 266.888C347.325 268.723 342.994 269.64 337.661 269.64C330.535 269.64 325.266 267.976 321.853 264.648C318.439 261.32 316.733 256.947 316.733 251.528C316.733 246.109 318.439 241.736 321.853 238.408C325.266 235.08 330.535 233.416 337.661 233.416C342.994 233.416 347.325 234.333 350.653 236.168C354.023 238.003 356.413 240.563 357.821 243.848C354.023 244.659 349.778 245.875 345.085 247.496C344.146 246.429 343.122 245.64 342.013 245.128C340.903 244.573 339.645 244.296 338.237 244.296C335.677 244.296 333.735 244.957 332.413 246.28C331.133 247.603 330.45 249.352 330.365 251.528ZM391.615 245.512C387.689 245.256 384.105 245.064 380.863 244.936L380.799 251.72C380.799 254.024 381.289 255.837 382.271 257.16C383.295 258.44 385.087 259.08 387.647 259.08C388.628 259.08 389.567 258.995 390.463 258.824C390.292 260.403 390.207 262.003 390.207 263.624C390.207 264.392 390.249 266.141 390.335 268.872C388.457 269.213 386.879 269.427 385.599 269.512C384.319 269.597 382.655 269.64 380.607 269.64C375.615 269.64 372.073 268.445 369.983 266.056C367.935 263.624 366.911 260.253 366.911 255.944L366.975 245.128C364.969 245.213 362.879 245.341 360.703 245.512V234.184C362.921 234.184 364.799 233.48 366.335 232.072C367.871 230.664 368.788 228.979 369.087 227.016H386.495C384.319 230.003 381.908 232.392 379.263 234.184H391.615V245.512ZM406.827 267.976C406.486 265.032 405.824 262.323 404.843 259.848C403.862 257.331 402.454 254.792 400.619 252.232C404.886 252.403 407.915 252.488 409.707 252.488C418.411 252.488 425.536 251.699 431.083 250.12C432.918 249.608 434.091 249.139 434.603 248.712C435.158 248.285 435.435 247.624 435.435 246.728C435.435 245.149 434.603 243.955 432.939 243.144C431.318 242.291 428.95 241.864 425.835 241.864C422.464 241.864 418.155 242.312 412.907 243.208C407.659 244.104 403.286 245.149 399.787 246.344L396.779 232.136C402.667 230.899 408.235 229.939 413.483 229.256C418.774 228.531 423.275 228.168 426.987 228.168C432.192 228.168 436.651 228.851 440.363 230.216C444.118 231.581 446.976 233.565 448.939 236.168C450.944 238.771 451.947 241.864 451.947 245.448C451.947 251.421 449.942 256.051 445.931 259.336C441.963 262.579 436.736 264.797 430.251 265.992C423.766 267.187 415.958 267.848 406.827 267.976ZM505.835 233.928C501.995 234.099 498.731 234.931 496.043 236.424C493.355 237.917 491.328 239.795 489.963 242.056C488.64 244.275 487.979 246.579 487.979 248.968C487.979 250.248 488.256 251.251 488.811 251.976C489.408 252.701 490.603 253.256 492.395 253.64C494.187 254.024 496.875 254.216 500.459 254.216C504.427 254.216 508.886 254.045 513.835 253.704C512.726 256.221 512.022 258.568 511.723 260.744C511.467 262.877 511.318 265.459 511.275 268.488C510.08 268.531 508.352 268.552 506.091 268.552C496.448 268.552 489.046 267.912 483.883 266.632C478.763 265.309 475.307 263.539 473.515 261.32C471.766 259.059 470.891 256.2 470.891 252.744C470.891 249.032 471.659 245.661 473.195 242.632C474.731 239.56 476.886 236.851 479.659 234.504L460.395 237.448V222.6C463.68 222.6 469.27 222.493 477.163 222.28L489.515 221.96C493.91 221.875 497.963 221.768 501.675 221.64C505.387 221.469 510.486 221.213 516.971 220.872L517.163 233.928H505.835ZM556.587 235.912C554.027 236.168 550.08 236.467 544.747 236.808C543.382 242.781 541.27 248.349 538.411 253.512C535.595 258.675 532.203 263.176 528.235 267.016C527.382 264.285 526.251 261.405 524.843 258.376C523.435 255.347 522.112 252.957 520.875 251.208C523.136 249.117 525.014 246.963 526.507 244.744C528 242.483 529.195 239.965 530.091 237.192C528.555 237.235 526.23 237.256 523.115 237.256V224.584C527.168 224.584 530.198 224.563 532.203 224.52C532.288 223.155 532.331 222.109 532.331 221.384H546.475C546.475 222.579 546.454 223.475 546.411 224.072C548.672 223.944 552.064 223.667 556.587 223.24V232.84L559.787 222.024C568.662 223.176 576.747 224.627 584.043 226.376L580.395 239.56C571.776 236.659 563.84 234.867 556.587 234.184V235.912ZM574.059 238.088V247.624C577.43 248.904 580.715 250.525 583.915 252.488L579.691 266.696C577.558 264.605 575.318 262.643 572.971 260.808C570.795 266.525 565.419 269.384 556.843 269.384C551.638 269.384 547.435 268.253 544.235 265.992C541.035 263.688 539.435 260.36 539.435 256.008C539.435 253.405 540.16 251.165 541.611 249.288C543.062 247.411 545.024 245.981 547.499 245C549.974 244.019 552.704 243.528 555.691 243.528C557.014 243.528 558.294 243.613 559.531 243.784V238.088H574.059ZM559.531 254.024C558.336 253.811 557.291 253.704 556.395 253.704C555.328 253.704 554.56 253.811 554.091 254.024C553.622 254.237 553.387 254.6 553.387 255.112C553.387 255.581 553.707 256.029 554.347 256.456C554.987 256.84 555.84 257.032 556.907 257.032C557.931 257.032 558.614 256.84 558.955 256.456C559.339 256.072 559.531 255.496 559.531 254.728V254.024ZM610.219 224.328C618.923 222.664 627.52 221.832 636.011 221.832C638.571 221.832 641.451 221.939 644.651 222.152C644.651 225.181 644.694 227.805 644.779 230.024C644.864 232.2 645.078 234.397 645.419 236.616C640.512 236.019 636.011 235.72 631.915 235.72C625.344 235.72 618.368 236.488 610.987 238.024L610.219 224.328ZM589.867 268.552C589.099 264.883 588.523 261.427 588.139 258.184C587.798 254.899 587.627 251.208 587.627 247.112C587.627 240.413 588.16 232.264 589.227 222.664H605.547C604.267 233.331 603.627 241.651 603.627 247.624C603.627 251.549 603.862 255.048 604.331 258.12C604.843 261.149 605.611 264.179 606.635 267.208L589.867 268.552ZM627.627 268.296C620.715 268.296 615.68 266.952 612.523 264.264C609.366 261.576 607.787 257.459 607.787 251.912C607.787 250.333 607.915 248.648 608.171 246.856C613.163 246.429 617.643 245.171 621.611 243.08C621.398 244.915 621.291 246.323 621.291 247.304C621.291 248.968 621.504 250.227 621.931 251.08C622.4 251.933 623.083 252.509 623.979 252.808C624.875 253.107 626.091 253.256 627.627 253.256C631.424 253.256 634.795 253.149 637.739 252.936C640.726 252.68 644.203 252.083 648.171 251.144C647.744 252.723 647.403 255.005 647.147 257.992C646.934 260.936 646.827 263.987 646.827 267.144C643.328 267.613 640.128 267.933 637.227 268.104C634.326 268.232 631.126 268.296 627.627 268.296ZM683.051 218.312C687.104 218.312 690.838 218.995 694.251 220.36C697.707 221.725 700.438 223.624 702.443 226.056C704.448 228.488 705.451 231.283 705.451 234.44C705.451 237 704.832 239.197 703.595 241.032C702.358 242.867 700.779 244.36 698.859 245.512L695.467 247.432C693.632 248.456 692.416 249.16 691.819 249.544C690.838 250.141 690.155 250.803 689.771 251.528C689.387 252.253 689.195 253.107 689.195 254.088H674.539C674.539 250.845 675.307 248.136 676.843 245.96C678.379 243.741 680.96 241.821 684.587 240.2C686.208 239.475 687.382 238.685 688.107 237.832C688.875 236.936 689.259 235.933 689.259 234.824C689.259 233.587 688.662 232.52 687.467 231.624C686.315 230.728 684.843 230.28 683.051 230.28C680.619 230.28 678.72 230.877 677.355 232.072C676.032 233.267 675.371 234.952 675.371 237.128C675.371 237.981 675.499 238.963 675.755 240.072C672.342 239.091 667.243 238.6 660.459 238.6C660.416 238.216 660.395 237.683 660.395 237C660.395 233.416 661.334 230.216 663.211 227.4C665.131 224.541 667.798 222.323 671.211 220.744C674.667 219.123 678.614 218.312 683.051 218.312ZM689.259 270.28H674.411V258.888H689.259V270.28Z"/>
</mask>
<path d="M176.168 269.64C168.872 269.64 163.496 267.976 160.04 264.648C156.627 261.277 154.92 256.861 154.92 251.4C154.92 246.067 156.627 241.736 160.04 238.408C163.496 235.08 168.872 233.416 176.168 233.416C181.075 233.416 185.171 234.227 188.456 235.848C191.784 237.427 194.237 239.581 195.816 242.312C197.395 245 198.184 248.029 198.184 251.4C198.184 256.904 196.349 261.32 192.68 264.648C189.053 267.976 183.549 269.64 176.168 269.64ZM176.424 258.76C179.197 258.76 181.267 258.099 182.632 256.776C183.997 255.453 184.68 253.683 184.68 251.464C184.68 249.373 183.997 247.667 182.632 246.344C181.267 244.979 179.197 244.296 176.424 244.296C173.651 244.296 171.624 244.957 170.344 246.28C169.064 247.603 168.424 249.331 168.424 251.464C168.424 253.683 169.064 255.453 170.344 256.776C171.624 258.099 173.651 258.76 176.424 258.76ZM230.461 233.416C233.32 233.416 235.858 234.291 238.077 236.04C240.338 237.747 242.088 240.029 243.325 242.888C244.562 245.704 245.181 248.712 245.181 251.912C245.181 255.155 244.562 258.141 243.325 260.872C242.088 263.56 240.36 265.693 238.141 267.272C235.922 268.851 233.426 269.64 230.653 269.64C227.41 269.64 224.594 268.957 222.205 267.592C219.816 266.184 218.024 263.987 216.829 261L214.973 269H202.685C202.941 260.979 203.069 252.68 203.069 244.104C203.069 235.443 202.941 227.144 202.685 219.208H217.149L216.957 227.08C216.744 232.627 216.637 237.576 216.637 241.928C217.789 239.027 219.538 236.893 221.885 235.528C224.274 234.12 227.133 233.416 230.461 233.416ZM223.933 258.888C225.981 258.888 227.602 258.205 228.797 256.84C229.992 255.475 230.589 253.704 230.589 251.528C230.589 249.565 229.928 247.987 228.605 246.792C227.325 245.555 225.725 244.936 223.805 244.936C222.824 244.936 221.8 245.171 220.733 245.64C219.666 246.067 218.749 246.792 217.981 247.816C217.213 248.797 216.829 250.035 216.829 251.528C216.829 254.173 217.426 256.072 218.621 257.224C219.816 258.333 221.586 258.888 223.933 258.888ZM257.926 230.28C255.238 230.28 253.233 229.619 251.91 228.296C250.63 226.973 249.99 225.245 249.99 223.112C249.99 221.021 250.63 219.293 251.91 217.928C253.233 216.563 255.238 215.88 257.926 215.88C260.486 215.88 262.449 216.584 263.814 217.992C265.179 219.357 265.862 221.064 265.862 223.112C265.862 225.245 265.201 226.973 263.878 228.296C262.555 229.619 260.571 230.28 257.926 230.28ZM265.798 234.056C265.542 238.323 265.414 243.272 265.414 248.904L265.478 257.224C265.521 258.931 265.542 261.469 265.542 264.84C265.542 271.453 264.07 276.168 261.126 278.984C258.182 281.8 253.873 283.208 248.198 283.208C246.875 283.208 245.51 283.144 244.102 283.016V281.032C244.102 278.472 243.825 275.976 243.27 273.544L244.486 273.608C246.619 273.608 248.198 273.096 249.222 272.072C250.289 271.091 250.843 269.427 250.886 267.08C250.971 263.24 251.014 260.189 251.014 257.928C251.014 249.693 250.822 241.736 250.438 234.056H265.798ZM304.854 253H283.99C284.331 254.877 285.163 256.413 286.486 257.608C287.851 258.76 289.771 259.336 292.246 259.336C294.038 259.336 295.723 258.995 297.302 258.312C298.88 257.587 300.139 256.584 301.078 255.304C303.936 256.712 307.734 258.227 312.47 259.848C311.147 262.835 308.736 265.224 305.238 267.016C301.782 268.765 297.259 269.64 291.67 269.64C284.416 269.64 279.04 267.976 275.542 264.648C272.086 261.277 270.358 256.861 270.358 251.4C270.358 246.067 272.086 241.736 275.542 238.408C278.998 235.08 284.374 233.416 291.67 233.416C296.022 233.416 299.798 234.141 302.998 235.592C306.198 237.043 308.651 239.069 310.358 241.672C312.064 244.232 312.918 247.176 312.918 250.504C312.918 251.613 312.875 252.445 312.79 253H304.854ZM292.566 243.08C290.432 243.08 288.683 243.485 287.318 244.296C285.952 245.107 284.992 246.216 284.438 247.624H299.542C299.03 246.259 298.198 245.171 297.046 244.36C295.894 243.507 294.4 243.08 292.566 243.08ZM330.365 251.528C330.45 253.704 331.133 255.453 332.413 256.776C333.735 258.099 335.677 258.76 338.237 258.76C339.645 258.76 340.903 258.504 342.013 257.992C343.122 257.437 344.146 256.627 345.085 255.56C348.711 256.968 352.957 258.184 357.821 259.208C356.413 262.493 354.023 265.053 350.653 266.888C347.325 268.723 342.994 269.64 337.661 269.64C330.535 269.64 325.266 267.976 321.853 264.648C318.439 261.32 316.733 256.947 316.733 251.528C316.733 246.109 318.439 241.736 321.853 238.408C325.266 235.08 330.535 233.416 337.661 233.416C342.994 233.416 347.325 234.333 350.653 236.168C354.023 238.003 356.413 240.563 357.821 243.848C354.023 244.659 349.778 245.875 345.085 247.496C344.146 246.429 343.122 245.64 342.013 245.128C340.903 244.573 339.645 244.296 338.237 244.296C335.677 244.296 333.735 244.957 332.413 246.28C331.133 247.603 330.45 249.352 330.365 251.528ZM391.615 245.512C387.689 245.256 384.105 245.064 380.863 244.936L380.799 251.72C380.799 254.024 381.289 255.837 382.271 257.16C383.295 258.44 385.087 259.08 387.647 259.08C388.628 259.08 389.567 258.995 390.463 258.824C390.292 260.403 390.207 262.003 390.207 263.624C390.207 264.392 390.249 266.141 390.335 268.872C388.457 269.213 386.879 269.427 385.599 269.512C384.319 269.597 382.655 269.64 380.607 269.64C375.615 269.64 372.073 268.445 369.983 266.056C367.935 263.624 366.911 260.253 366.911 255.944L366.975 245.128C364.969 245.213 362.879 245.341 360.703 245.512V234.184C362.921 234.184 364.799 233.48 366.335 232.072C367.871 230.664 368.788 228.979 369.087 227.016H386.495C384.319 230.003 381.908 232.392 379.263 234.184H391.615V245.512ZM406.827 267.976C406.486 265.032 405.824 262.323 404.843 259.848C403.862 257.331 402.454 254.792 400.619 252.232C404.886 252.403 407.915 252.488 409.707 252.488C418.411 252.488 425.536 251.699 431.083 250.12C432.918 249.608 434.091 249.139 434.603 248.712C435.158 248.285 435.435 247.624 435.435 246.728C435.435 245.149 434.603 243.955 432.939 243.144C431.318 242.291 428.95 241.864 425.835 241.864C422.464 241.864 418.155 242.312 412.907 243.208C407.659 244.104 403.286 245.149 399.787 246.344L396.779 232.136C402.667 230.899 408.235 229.939 413.483 229.256C418.774 228.531 423.275 228.168 426.987 228.168C432.192 228.168 436.651 228.851 440.363 230.216C444.118 231.581 446.976 233.565 448.939 236.168C450.944 238.771 451.947 241.864 451.947 245.448C451.947 251.421 449.942 256.051 445.931 259.336C441.963 262.579 436.736 264.797 430.251 265.992C423.766 267.187 415.958 267.848 406.827 267.976ZM505.835 233.928C501.995 234.099 498.731 234.931 496.043 236.424C493.355 237.917 491.328 239.795 489.963 242.056C488.64 244.275 487.979 246.579 487.979 248.968C487.979 250.248 488.256 251.251 488.811 251.976C489.408 252.701 490.603 253.256 492.395 253.64C494.187 254.024 496.875 254.216 500.459 254.216C504.427 254.216 508.886 254.045 513.835 253.704C512.726 256.221 512.022 258.568 511.723 260.744C511.467 262.877 511.318 265.459 511.275 268.488C510.08 268.531 508.352 268.552 506.091 268.552C496.448 268.552 489.046 267.912 483.883 266.632C478.763 265.309 475.307 263.539 473.515 261.32C471.766 259.059 470.891 256.2 470.891 252.744C470.891 249.032 471.659 245.661 473.195 242.632C474.731 239.56 476.886 236.851 479.659 234.504L460.395 237.448V222.6C463.68 222.6 469.27 222.493 477.163 222.28L489.515 221.96C493.91 221.875 497.963 221.768 501.675 221.64C505.387 221.469 510.486 221.213 516.971 220.872L517.163 233.928H505.835ZM556.587 235.912C554.027 236.168 550.08 236.467 544.747 236.808C543.382 242.781 541.27 248.349 538.411 253.512C535.595 258.675 532.203 263.176 528.235 267.016C527.382 264.285 526.251 261.405 524.843 258.376C523.435 255.347 522.112 252.957 520.875 251.208C523.136 249.117 525.014 246.963 526.507 244.744C528 242.483 529.195 239.965 530.091 237.192C528.555 237.235 526.23 237.256 523.115 237.256V224.584C527.168 224.584 530.198 224.563 532.203 224.52C532.288 223.155 532.331 222.109 532.331 221.384H546.475C546.475 222.579 546.454 223.475 546.411 224.072C548.672 223.944 552.064 223.667 556.587 223.24V232.84L559.787 222.024C568.662 223.176 576.747 224.627 584.043 226.376L580.395 239.56C571.776 236.659 563.84 234.867 556.587 234.184V235.912ZM574.059 238.088V247.624C577.43 248.904 580.715 250.525 583.915 252.488L579.691 266.696C577.558 264.605 575.318 262.643 572.971 260.808C570.795 266.525 565.419 269.384 556.843 269.384C551.638 269.384 547.435 268.253 544.235 265.992C541.035 263.688 539.435 260.36 539.435 256.008C539.435 253.405 540.16 251.165 541.611 249.288C543.062 247.411 545.024 245.981 547.499 245C549.974 244.019 552.704 243.528 555.691 243.528C557.014 243.528 558.294 243.613 559.531 243.784V238.088H574.059ZM559.531 254.024C558.336 253.811 557.291 253.704 556.395 253.704C555.328 253.704 554.56 253.811 554.091 254.024C553.622 254.237 553.387 254.6 553.387 255.112C553.387 255.581 553.707 256.029 554.347 256.456C554.987 256.84 555.84 257.032 556.907 257.032C557.931 257.032 558.614 256.84 558.955 256.456C559.339 256.072 559.531 255.496 559.531 254.728V254.024ZM610.219 224.328C618.923 222.664 627.52 221.832 636.011 221.832C638.571 221.832 641.451 221.939 644.651 222.152C644.651 225.181 644.694 227.805 644.779 230.024C644.864 232.2 645.078 234.397 645.419 236.616C640.512 236.019 636.011 235.72 631.915 235.72C625.344 235.72 618.368 236.488 610.987 238.024L610.219 224.328ZM589.867 268.552C589.099 264.883 588.523 261.427 588.139 258.184C587.798 254.899 587.627 251.208 587.627 247.112C587.627 240.413 588.16 232.264 589.227 222.664H605.547C604.267 233.331 603.627 241.651 603.627 247.624C603.627 251.549 603.862 255.048 604.331 258.12C604.843 261.149 605.611 264.179 606.635 267.208L589.867 268.552ZM627.627 268.296C620.715 268.296 615.68 266.952 612.523 264.264C609.366 261.576 607.787 257.459 607.787 251.912C607.787 250.333 607.915 248.648 608.171 246.856C613.163 246.429 617.643 245.171 621.611 243.08C621.398 244.915 621.291 246.323 621.291 247.304C621.291 248.968 621.504 250.227 621.931 251.08C622.4 251.933 623.083 252.509 623.979 252.808C624.875 253.107 626.091 253.256 627.627 253.256C631.424 253.256 634.795 253.149 637.739 252.936C640.726 252.68 644.203 252.083 648.171 251.144C647.744 252.723 647.403 255.005 647.147 257.992C646.934 260.936 646.827 263.987 646.827 267.144C643.328 267.613 640.128 267.933 637.227 268.104C634.326 268.232 631.126 268.296 627.627 268.296ZM683.051 218.312C687.104 218.312 690.838 218.995 694.251 220.36C697.707 221.725 700.438 223.624 702.443 226.056C704.448 228.488 705.451 231.283 705.451 234.44C705.451 237 704.832 239.197 703.595 241.032C702.358 242.867 700.779 244.36 698.859 245.512L695.467 247.432C693.632 248.456 692.416 249.16 691.819 249.544C690.838 250.141 690.155 250.803 689.771 251.528C689.387 252.253 689.195 253.107 689.195 254.088H674.539C674.539 250.845 675.307 248.136 676.843 245.96C678.379 243.741 680.96 241.821 684.587 240.2C686.208 239.475 687.382 238.685 688.107 237.832C688.875 236.936 689.259 235.933 689.259 234.824C689.259 233.587 688.662 232.52 687.467 231.624C686.315 230.728 684.843 230.28 683.051 230.28C680.619 230.28 678.72 230.877 677.355 232.072C676.032 233.267 675.371 234.952 675.371 237.128C675.371 237.981 675.499 238.963 675.755 240.072C672.342 239.091 667.243 238.6 660.459 238.6C660.416 238.216 660.395 237.683 660.395 237C660.395 233.416 661.334 230.216 663.211 227.4C665.131 224.541 667.798 222.323 671.211 220.744C674.667 219.123 678.614 218.312 683.051 218.312ZM689.259 270.28H674.411V258.888H689.259V270.28Z" fill="#606C38"/>
<path d="M160.04 264.648L157.229 267.494L157.247 267.512L157.265 267.529L160.04 264.648ZM160.04 238.408L157.265 235.527L157.256 235.535L157.248 235.544L160.04 238.408ZM188.456 235.848L186.686 239.435L186.714 239.449L186.742 239.462L188.456 235.848ZM195.816 242.312L192.353 244.314L192.36 244.326L192.367 244.338L195.816 242.312ZM192.68 264.648L189.993 261.685L189.984 261.693L189.976 261.701L192.68 264.648ZM182.632 246.344L179.804 249.172L179.826 249.195L179.849 249.217L182.632 246.344ZM170.344 246.28L167.47 243.498H167.47L170.344 246.28ZM170.344 256.776L173.218 253.994L170.344 256.776ZM176.168 265.64C169.38 265.64 165.217 264.08 162.815 261.767L157.265 267.529C161.775 271.872 168.364 273.64 176.168 273.64V265.64ZM162.851 261.802C160.306 259.289 158.92 255.953 158.92 251.4H150.92C150.92 257.77 152.947 263.266 157.229 267.494L162.851 261.802ZM158.92 251.4C158.92 247.005 160.286 243.754 162.832 241.272L157.248 235.544C152.967 239.718 150.92 245.129 150.92 251.4H158.92ZM162.815 241.289C165.217 238.976 169.38 237.416 176.168 237.416V229.416C168.364 229.416 161.775 231.184 157.265 235.527L162.815 241.289ZM176.168 237.416C180.659 237.416 184.105 238.161 186.686 239.435L190.226 232.261C186.236 230.292 181.49 229.416 176.168 229.416V237.416ZM186.742 239.462C189.463 240.753 191.245 242.398 192.353 244.314L199.279 240.31C197.23 236.765 194.105 234.1 190.17 232.234L186.742 239.462ZM192.367 244.338C193.556 246.362 194.184 248.682 194.184 251.4H202.184C202.184 247.377 201.234 243.638 199.265 240.286L192.367 244.338ZM194.184 251.4C194.184 255.915 192.728 259.204 189.993 261.685L195.367 267.611C199.971 263.436 202.184 257.893 202.184 251.4H194.184ZM189.976 261.701C187.381 264.081 183.036 265.64 176.168 265.64V273.64C184.063 273.64 190.725 271.871 195.384 267.595L189.976 261.701ZM176.424 262.76C179.762 262.76 183.021 261.968 185.415 259.649L179.849 253.903C179.512 254.229 178.632 254.76 176.424 254.76V262.76ZM185.415 259.649C187.689 257.446 188.68 254.569 188.68 251.464H180.68C180.68 252.796 180.306 253.46 179.849 253.903L185.415 259.649ZM188.68 251.464C188.68 248.41 187.64 245.626 185.415 243.471L179.849 249.217C180.355 249.707 180.68 250.337 180.68 251.464H188.68ZM185.46 243.516C183.07 241.125 179.793 240.296 176.424 240.296V248.296C178.602 248.296 179.463 248.832 179.804 249.172L185.46 243.516ZM176.424 240.296C173.111 240.296 169.812 241.077 167.47 243.498L173.218 249.062C173.436 248.837 174.19 248.296 176.424 248.296V240.296ZM167.47 243.498C165.353 245.686 164.424 248.47 164.424 251.464H172.424C172.424 250.191 172.775 249.52 173.218 249.062L167.47 243.498ZM164.424 251.464C164.424 254.494 165.324 257.341 167.47 259.558L173.218 253.994C172.804 253.566 172.424 252.871 172.424 251.464H164.424ZM167.47 259.558C169.812 261.979 173.111 262.76 176.424 262.76V254.76C174.19 254.76 173.436 254.219 173.218 253.994L167.47 259.558ZM238.077 236.04L235.6 239.181L235.634 239.207L235.667 239.233L238.077 236.04ZM243.325 242.888L239.654 244.477L239.658 244.487L239.663 244.497L243.325 242.888ZM243.325 260.872L246.959 262.545L246.964 262.534L246.968 262.523L243.325 260.872ZM238.141 267.272L240.46 270.531L238.141 267.272ZM222.205 267.592L220.174 271.038L220.197 271.052L220.22 271.065L222.205 267.592ZM216.829 261L220.543 259.514L215.812 247.686L212.932 260.096L216.829 261ZM214.973 269V273H218.151L218.87 269.904L214.973 269ZM202.685 269L198.687 268.872L198.555 273H202.685V269ZM202.685 219.208V215.208H198.554L198.687 219.337L202.685 219.208ZM217.149 219.208L221.148 219.306L221.248 215.208H217.149V219.208ZM216.957 227.08L220.954 227.234L220.955 227.206L220.956 227.178L216.957 227.08ZM216.637 241.928H212.637L220.355 243.404L216.637 241.928ZM221.885 235.528L223.897 238.985L223.906 238.98L223.916 238.974L221.885 235.528ZM228.605 246.792L225.825 249.668L225.874 249.715L225.924 249.76L228.605 246.792ZM220.733 245.64L222.219 249.354L222.282 249.329L222.344 249.301L220.733 245.64ZM217.981 247.816L221.131 250.281L221.156 250.249L221.181 250.216L217.981 247.816ZM218.621 257.224L215.844 260.103L215.872 260.13L215.899 260.155L218.621 257.224ZM230.461 237.416C232.433 237.416 234.096 237.995 235.6 239.181L240.554 232.899C237.62 230.586 234.207 229.416 230.461 229.416V237.416ZM235.667 239.233C237.323 240.482 238.663 242.188 239.654 244.477L246.996 241.299C245.512 237.871 243.354 235.011 240.487 232.847L235.667 239.233ZM239.663 244.497C240.668 246.785 241.181 249.243 241.181 251.912H249.181C249.181 248.181 248.456 244.623 246.987 241.279L239.663 244.497ZM241.181 251.912C241.181 254.632 240.665 257.05 239.682 259.221L246.968 262.523C248.459 259.232 249.181 255.677 249.181 251.912H241.181ZM239.691 259.199C238.72 261.31 237.423 262.874 235.822 264.013L240.46 270.531C243.297 268.513 245.455 265.81 246.959 262.545L239.691 259.199ZM235.822 264.013C234.294 265.1 232.612 265.64 230.653 265.64V273.64C234.241 273.64 237.551 272.601 240.46 270.531L235.822 264.013ZM230.653 265.64C227.982 265.64 225.875 265.082 224.19 264.119L220.22 271.065C223.314 272.833 226.839 273.64 230.653 273.64V265.64ZM224.236 264.146C222.727 263.257 221.464 261.816 220.543 259.514L213.115 262.486C214.584 266.157 216.904 269.111 220.174 271.038L224.236 264.146ZM212.932 260.096L211.076 268.096L218.87 269.904L220.726 261.904L212.932 260.096ZM214.973 265H202.685V273H214.973V265ZM206.683 269.128C206.94 261.061 207.069 252.72 207.069 244.104H199.069C199.069 252.64 198.942 260.896 198.687 268.872L206.683 269.128ZM207.069 244.104C207.069 235.403 206.94 227.062 206.683 219.079L198.687 219.337C198.942 227.226 199.069 235.482 199.069 244.104H207.069ZM202.685 223.208H217.149V215.208H202.685V223.208ZM213.15 219.11L212.958 226.982L220.956 227.178L221.148 219.306L213.15 219.11ZM212.96 226.926C212.745 232.511 212.637 237.513 212.637 241.928H220.637C220.637 237.639 220.742 232.742 220.954 227.234L212.96 226.926ZM220.355 243.404C221.228 241.205 222.438 239.834 223.897 238.985L219.873 232.071C216.639 233.953 214.35 236.848 212.919 240.452L220.355 243.404ZM223.916 238.974C225.577 237.995 227.704 237.416 230.461 237.416V229.416C226.562 229.416 222.972 230.245 219.854 232.082L223.916 238.974ZM223.933 262.888C226.969 262.888 229.75 261.825 231.807 259.474L225.787 254.206C225.454 254.586 224.993 254.888 223.933 254.888V262.888ZM231.807 259.474C233.762 257.24 234.589 254.47 234.589 251.528H226.589C226.589 252.938 226.221 253.709 225.787 254.206L231.807 259.474ZM234.589 251.528C234.589 248.562 233.539 245.858 231.286 243.824L225.924 249.76C226.316 250.115 226.589 250.569 226.589 251.528H234.589ZM231.385 243.916C229.297 241.898 226.673 240.936 223.805 240.936V248.936C224.777 248.936 225.353 249.212 225.825 249.668L231.385 243.916ZM223.805 240.936C222.175 240.936 220.603 241.327 219.122 241.979L222.344 249.301C222.997 249.014 223.472 248.936 223.805 248.936V240.936ZM219.247 241.926C217.424 242.656 215.937 243.874 214.781 245.416L221.181 250.216C221.561 249.71 221.909 249.478 222.219 249.354L219.247 241.926ZM214.831 245.351C213.409 247.168 212.829 249.324 212.829 251.528H220.829C220.829 250.745 221.017 250.427 221.131 250.281L214.831 245.351ZM212.829 251.528C212.829 254.634 213.51 257.852 215.844 260.103L221.398 254.345C221.342 254.292 220.829 253.712 220.829 251.528H212.829ZM215.899 260.155C218.103 262.202 221.017 262.888 223.933 262.888V254.888C222.155 254.888 221.528 254.465 221.343 254.293L215.899 260.155ZM251.91 228.296L249.036 231.078L249.058 231.101L249.082 231.124L251.91 228.296ZM251.91 217.928L249.037 215.145L249.014 215.168L248.992 215.192L251.91 217.928ZM263.814 217.992L260.942 220.777L260.964 220.799L260.986 220.82L263.814 217.992ZM263.878 228.296L261.05 225.468H261.05L263.878 228.296ZM265.798 234.056L269.791 234.296L270.045 230.056H265.798V234.056ZM265.414 248.904H261.414V248.919L261.414 248.935L265.414 248.904ZM265.478 257.224L261.478 257.255L261.478 257.289L261.479 257.324L265.478 257.224ZM261.126 278.984L258.361 276.093L261.126 278.984ZM244.102 283.016H240.102V286.669L243.74 287L244.102 283.016ZM243.27 273.544L243.48 269.55L238.193 269.271L239.37 274.433L243.27 273.544ZM244.486 273.608L244.276 277.602L244.381 277.608H244.486V273.608ZM249.222 272.072L246.514 269.128L246.452 269.185L246.394 269.244L249.222 272.072ZM250.886 267.08L246.887 266.991L246.887 266.999L246.887 267.007L250.886 267.08ZM250.438 234.056V230.056H246.233L246.443 234.256L250.438 234.056ZM257.926 226.28C255.833 226.28 255.036 225.765 254.738 225.468L249.082 231.124C251.43 233.473 254.643 234.28 257.926 234.28V226.28ZM254.784 225.514C254.341 225.056 253.99 224.385 253.99 223.112H245.99C245.99 226.106 246.919 228.89 249.036 231.078L254.784 225.514ZM253.99 223.112C253.99 221.909 254.327 221.199 254.828 220.664L248.992 215.192C246.933 217.388 245.99 220.134 245.99 223.112H253.99ZM254.783 220.711C255.085 220.399 255.865 219.88 257.926 219.88V211.88C254.611 211.88 251.38 212.726 249.037 215.145L254.783 220.711ZM257.926 219.88C259.749 219.88 260.541 220.363 260.942 220.777L266.686 215.207C264.356 212.805 261.223 211.88 257.926 211.88V219.88ZM260.986 220.82C261.552 221.387 261.862 222.053 261.862 223.112H269.862C269.862 220.075 268.807 217.328 266.642 215.164L260.986 220.82ZM261.862 223.112C261.862 224.347 261.515 225.002 261.05 225.468L266.706 231.124C268.887 228.944 269.862 226.144 269.862 223.112H261.862ZM261.05 225.468C260.742 225.776 259.955 226.28 257.926 226.28V234.28C261.188 234.28 264.369 233.462 266.706 231.124L261.05 225.468ZM261.805 233.816C261.543 238.183 261.414 243.216 261.414 248.904H269.414C269.414 243.328 269.541 238.462 269.791 234.296L261.805 233.816ZM261.414 248.935L261.478 257.255L269.478 257.193L269.414 248.873L261.414 248.935ZM261.479 257.324C261.521 258.979 261.542 261.477 261.542 264.84H269.542C269.542 261.461 269.521 258.882 269.477 257.124L261.479 257.324ZM261.542 264.84C261.542 271.017 260.143 274.389 258.361 276.093L263.891 281.875C267.997 277.947 269.542 271.89 269.542 264.84H261.542ZM258.361 276.093C256.412 277.958 253.251 279.208 248.198 279.208V287.208C254.494 287.208 259.952 285.642 263.891 281.875L258.361 276.093ZM248.198 279.208C247.004 279.208 245.76 279.15 244.464 279.032L243.74 287C245.26 287.138 246.746 287.208 248.198 287.208V279.208ZM248.102 283.016V281.032H240.102V283.016H248.102ZM248.102 281.032C248.102 278.181 247.793 275.386 247.17 272.655L239.37 274.433C239.857 276.566 240.102 278.763 240.102 281.032H248.102ZM243.06 277.538L244.276 277.602L244.696 269.614L243.48 269.55L243.06 277.538ZM244.486 277.608C247.181 277.608 249.985 276.966 252.05 274.9L246.394 269.244C246.39 269.247 246.312 269.329 246.036 269.419C245.74 269.515 245.247 269.608 244.486 269.608V277.608ZM251.93 275.016C254.181 272.945 254.835 269.94 254.885 267.153L246.887 267.007C246.87 267.903 246.757 268.481 246.643 268.823C246.535 269.147 246.454 269.183 246.514 269.128L251.93 275.016ZM254.885 267.169C254.971 263.317 255.014 260.232 255.014 257.928H247.014C247.014 260.146 246.972 263.163 246.887 266.991L254.885 267.169ZM255.014 257.928C255.014 249.631 254.821 241.607 254.433 233.856L246.443 234.256C246.823 241.865 247.014 249.755 247.014 257.928H255.014ZM250.438 238.056H265.798V230.056H250.438V238.056ZM283.99 253V249H279.197L280.054 253.716L283.99 253ZM286.486 257.608L283.804 260.576L283.854 260.622L283.906 260.665L286.486 257.608ZM297.301 258.312L298.889 261.983L298.931 261.966L298.971 261.947L297.301 258.312ZM301.077 255.304L302.845 251.716L299.836 250.233L297.852 252.939L301.077 255.304ZM312.469 259.848L316.127 261.468L317.894 257.477L313.765 256.064L312.469 259.848ZM305.238 267.016L307.044 270.585L307.052 270.581L307.061 270.576L305.238 267.016ZM275.542 264.648L272.749 267.512L272.767 267.529L272.785 267.546L275.542 264.648ZM275.542 238.408L278.316 241.289L275.542 238.408ZM302.997 235.592L301.346 239.235L302.997 235.592ZM310.357 241.672L307.013 243.865L307.021 243.878L307.029 243.891L310.357 241.672ZM312.79 253V257H316.221L316.743 253.608L312.79 253ZM287.318 244.296L289.36 247.735L289.36 247.735L287.318 244.296ZM284.438 247.624L280.716 246.158L278.563 251.624H284.438V247.624ZM299.542 247.624V251.624H305.314L303.287 246.22L299.542 247.624ZM297.046 244.36L294.665 247.574L294.704 247.603L294.744 247.631L297.046 244.36ZM304.854 249H283.99V257H304.854V249ZM280.054 253.716C280.541 256.396 281.779 258.747 283.804 260.576L289.167 254.64C288.547 254.08 288.12 253.358 287.925 252.284L280.054 253.716ZM283.906 260.665C286.228 262.624 289.188 263.336 292.245 263.336V255.336C290.353 255.336 289.474 254.896 289.065 254.551L283.906 260.665ZM292.245 263.336C294.56 263.336 296.788 262.892 298.889 261.983L295.714 254.641C294.657 255.097 293.515 255.336 292.245 255.336V263.336ZM298.971 261.947C301.108 260.965 302.925 259.549 304.303 257.669L297.852 252.939C297.353 253.619 296.652 254.208 295.632 254.677L298.971 261.947ZM299.31 258.892C302.382 260.406 306.356 261.983 311.174 263.632L313.765 256.064C309.111 254.47 305.49 253.018 302.845 251.716L299.31 258.892ZM308.812 258.228C307.932 260.216 306.269 261.993 303.414 263.456L307.061 270.576C311.203 268.455 314.362 265.453 316.127 261.468L308.812 258.228ZM303.431 263.447C300.727 264.816 296.89 265.64 291.669 265.64V273.64C297.628 273.64 302.836 272.715 307.044 270.585L303.431 263.447ZM291.669 265.64C284.937 265.64 280.754 264.086 278.298 261.75L272.785 267.546C277.326 271.866 283.895 273.64 291.669 273.64V265.64ZM278.334 261.784C275.754 259.268 274.357 255.938 274.357 251.4H266.357C266.357 257.785 268.417 263.286 272.749 267.512L278.334 261.784ZM274.357 251.4C274.357 247.02 275.734 243.775 278.316 241.289L272.767 235.527C268.437 239.697 266.357 245.113 266.357 251.4H274.357ZM278.316 241.289C280.718 238.976 284.882 237.416 291.669 237.416V229.416C283.865 229.416 277.277 231.184 272.767 235.527L278.316 241.289ZM291.669 237.416C295.584 237.416 298.773 238.069 301.346 239.235L304.649 231.949C300.822 230.214 296.459 229.416 291.669 229.416V237.416ZM301.346 239.235C303.947 240.414 305.773 241.976 307.013 243.865L313.702 239.479C311.528 236.163 308.448 233.671 304.649 231.949L301.346 239.235ZM307.029 243.891C308.262 245.74 308.918 247.898 308.918 250.504H316.918C316.918 246.454 315.866 242.724 313.686 239.453L307.029 243.891ZM308.918 250.504C308.918 251.566 308.873 252.149 308.836 252.392L316.743 253.608C316.876 252.741 316.918 251.661 316.918 250.504H308.918ZM312.79 249H304.854V257H312.79V249ZM292.566 239.08C289.952 239.08 287.436 239.574 285.275 240.857L289.36 247.735C289.93 247.397 290.912 247.08 292.566 247.08V239.08ZM285.275 240.857C283.187 242.096 281.613 243.881 280.716 246.158L288.159 249.09C288.372 248.551 288.717 248.117 289.36 247.735L285.275 240.857ZM284.438 251.624H299.542V243.624H284.438V251.624ZM303.287 246.22C302.503 244.129 301.181 242.379 299.347 241.089L294.744 247.631C295.214 247.962 295.556 248.388 295.796 249.028L303.287 246.22ZM299.426 241.146C297.414 239.655 295.016 239.08 292.566 239.08V247.08C293.784 247.08 294.373 247.358 294.665 247.574L299.426 241.146ZM330.365 251.528L326.368 251.371L326.361 251.528L326.368 251.685L330.365 251.528ZM332.413 256.776L329.538 259.558L329.561 259.581L329.584 259.604L332.413 256.776ZM342.012 257.992L343.689 261.624L343.745 261.598L343.801 261.57L342.012 257.992ZM345.085 255.56L346.532 251.831L343.927 250.82L342.082 252.917L345.085 255.56ZM357.82 259.208L361.497 260.784L363.419 256.299L358.645 255.294L357.82 259.208ZM350.652 266.888L348.74 263.375L348.731 263.38L348.721 263.385L350.652 266.888ZM321.852 264.648L319.06 267.512L321.852 264.648ZM321.852 238.408L324.645 241.272L321.852 238.408ZM350.652 236.168L348.721 239.671L348.731 239.676L348.74 239.681L350.652 236.168ZM357.82 243.848L358.656 247.76L363.414 246.744L361.497 242.272L357.82 243.848ZM345.085 247.496L342.082 250.139L343.854 252.153L346.391 251.277L345.085 247.496ZM342.012 245.128L340.224 248.706L340.28 248.734L340.336 248.76L342.012 245.128ZM332.413 246.28L329.584 243.452L329.561 243.475L329.538 243.498L332.413 246.28ZM326.368 251.685C326.484 254.654 327.452 257.402 329.538 259.558L335.287 253.994C334.813 253.505 334.416 252.754 334.361 251.371L326.368 251.685ZM329.584 259.604C331.899 261.919 335.016 262.76 338.236 262.76V254.76C336.337 254.76 335.571 254.278 335.241 253.948L329.584 259.604ZM338.236 262.76C340.135 262.76 341.98 262.413 343.689 261.624L340.336 254.36C339.827 254.595 339.154 254.76 338.236 254.76V262.76ZM343.801 261.57C345.434 260.753 346.857 259.6 348.087 258.203L342.082 252.917C341.434 253.653 340.81 254.121 340.224 254.414L343.801 261.57ZM343.637 259.289C347.513 260.794 351.975 262.065 356.996 263.122L358.645 255.294C353.938 254.303 349.91 253.142 346.532 251.831L343.637 259.289ZM354.144 257.632C353.117 260.029 351.384 261.936 348.74 263.375L352.565 270.401C356.662 268.171 359.708 264.957 361.497 260.784L354.144 257.632ZM348.721 263.385C346.176 264.789 342.576 265.64 337.661 265.64V273.64C343.412 273.64 348.473 272.657 352.584 270.391L348.721 263.385ZM337.661 265.64C331.07 265.64 327.013 264.092 324.645 261.784L319.06 267.512C323.519 271.86 330.001 273.64 337.661 273.64V265.64ZM324.645 261.784C322.112 259.314 320.732 256.029 320.732 251.528H312.732C312.732 257.864 314.766 263.326 319.06 267.512L324.645 261.784ZM320.732 251.528C320.732 247.027 322.112 243.742 324.645 241.272L319.06 235.544C314.766 239.73 312.732 245.192 312.732 251.528H320.732ZM324.645 241.272C327.013 238.964 331.07 237.416 337.661 237.416V229.416C330.001 229.416 323.519 231.196 319.06 235.544L324.645 241.272ZM337.661 237.416C342.576 237.416 346.176 238.267 348.721 239.671L352.584 232.665C348.473 230.399 343.412 229.416 337.661 229.416V237.416ZM348.74 239.681C351.384 241.12 353.117 243.027 354.144 245.424L361.497 242.272C359.708 238.099 356.662 234.885 352.565 232.655L348.74 239.681ZM356.985 239.936C352.992 240.789 348.586 242.055 343.778 243.715L346.391 251.277C350.97 249.695 355.055 248.529 358.656 247.76L356.985 239.936ZM348.087 244.853C346.84 243.436 345.38 242.277 343.689 241.496L340.336 248.76C340.863 249.003 341.452 249.423 342.082 250.139L348.087 244.853ZM343.801 241.55C342.066 240.682 340.181 240.296 338.236 240.296V248.296C339.108 248.296 339.741 248.464 340.224 248.706L343.801 241.55ZM338.236 240.296C335.016 240.296 331.899 241.137 329.584 243.452L335.241 249.108C335.571 248.778 336.337 248.296 338.236 248.296V240.296ZM329.538 243.498C327.452 245.654 326.484 248.402 326.368 251.371L334.361 251.685C334.416 250.302 334.813 249.551 335.287 249.062L329.538 243.498ZM391.615 245.512L391.354 249.504L395.615 249.781V245.512H391.615ZM380.863 244.936L381.02 240.939L376.902 240.777L376.863 244.898L380.863 244.936ZM380.798 251.72L376.799 251.682L376.798 251.701V251.72H380.798ZM382.271 257.16L379.058 259.543L379.102 259.602L379.147 259.659L382.271 257.16ZM390.462 258.824L394.439 259.254L395.02 253.884L389.714 254.895L390.462 258.824ZM390.335 268.872L391.05 272.807L394.44 272.191L394.333 268.747L390.335 268.872ZM369.982 266.056L366.923 268.633L366.947 268.662L366.972 268.69L369.982 266.056ZM366.911 255.944L362.911 255.92L362.911 255.932V255.944H366.911ZM366.975 245.128L370.974 245.152L370.999 240.953L366.804 241.132L366.975 245.128ZM360.702 245.512H356.702V249.838L361.015 249.5L360.702 245.512ZM360.702 234.184V230.184H356.702V234.184H360.702ZM366.335 232.072L369.037 235.021L366.335 232.072ZM369.087 227.016V223.016H365.649L365.132 226.414L369.087 227.016ZM386.495 227.016L389.727 229.371L394.358 223.016H386.495V227.016ZM379.262 234.184L377.019 230.872L366.226 238.184H379.262V234.184ZM391.615 234.184H395.615V230.184H391.615V234.184ZM391.875 241.52C387.922 241.263 384.303 241.069 381.02 240.939L380.705 248.933C383.907 249.059 387.456 249.249 391.354 249.504L391.875 241.52ZM376.863 244.898L376.799 251.682L384.798 251.758L384.862 244.974L376.863 244.898ZM376.798 251.72C376.798 254.549 377.397 257.304 379.058 259.543L385.483 254.777C385.181 254.37 384.798 253.499 384.798 251.72H376.798ZM379.147 259.659C381.275 262.319 384.559 263.08 387.646 263.08V255.08C386.677 255.08 386.072 254.956 385.728 254.833C385.564 254.775 385.476 254.722 385.436 254.695C385.416 254.681 385.405 254.672 385.4 254.668C385.396 254.664 385.394 254.662 385.394 254.661L379.147 259.659ZM387.646 263.08C388.86 263.08 390.05 262.974 391.211 262.753L389.714 254.895C389.083 255.015 388.396 255.08 387.646 255.08V263.08ZM386.486 258.394C386.299 260.118 386.206 261.862 386.206 263.624H394.206C394.206 262.143 394.284 260.687 394.439 259.254L386.486 258.394ZM386.206 263.624C386.206 264.467 386.252 266.284 386.336 268.997L394.333 268.747C394.247 265.998 394.206 264.317 394.206 263.624H386.206ZM389.619 264.937C387.826 265.262 386.408 265.449 385.332 265.521L385.865 273.503C387.349 273.404 389.088 273.164 391.05 272.807L389.619 264.937ZM385.332 265.521C384.177 265.598 382.611 265.64 380.607 265.64V273.64C382.698 273.64 384.46 273.597 385.865 273.503L385.332 265.521ZM380.607 265.64C376.114 265.64 373.979 264.55 372.993 263.422L366.972 268.69C370.167 272.341 375.115 273.64 380.607 273.64V265.64ZM373.042 263.479C371.787 261.989 370.911 259.646 370.911 255.944H362.911C362.911 260.86 364.082 265.259 366.923 268.633L373.042 263.479ZM370.91 255.968L370.974 245.152L362.975 245.104L362.911 255.92L370.91 255.968ZM366.804 241.132C364.748 241.219 362.609 241.35 360.39 241.524L361.015 249.5C363.148 249.332 365.191 249.208 367.145 249.124L366.804 241.132ZM364.702 245.512V234.184H356.702V245.512H364.702ZM360.702 238.184C363.851 238.184 366.713 237.151 369.037 235.021L363.632 229.123C362.884 229.809 361.991 230.184 360.702 230.184V238.184ZM369.037 235.021C371.21 233.029 372.598 230.53 373.041 227.618L365.132 226.414C364.978 227.428 364.531 228.299 363.632 229.123L369.037 235.021ZM369.087 231.016H386.495V223.016H369.087V231.016ZM383.262 224.661C381.316 227.331 379.227 229.377 377.019 230.872L381.506 237.496C384.589 235.407 387.321 232.674 389.727 229.371L383.262 224.661ZM379.262 238.184H391.615V230.184H379.262V238.184ZM387.615 234.184V245.512H395.615V234.184H387.615ZM406.827 267.976L402.854 268.437L403.27 272.026L406.883 271.976L406.827 267.976ZM404.843 259.848L401.116 261.301L401.12 261.312L401.125 261.323L404.843 259.848ZM400.619 252.232L400.779 248.235L392.599 247.908L397.368 254.562L400.619 252.232ZM431.083 250.12L430.008 246.267L429.998 246.27L429.988 246.273L431.083 250.12ZM434.603 248.712L432.164 245.542L432.102 245.589L432.042 245.639L434.603 248.712ZM432.939 243.144L431.076 246.684L431.131 246.713L431.187 246.74L432.939 243.144ZM412.907 243.208L413.58 247.151L412.907 243.208ZM399.787 246.344L395.874 247.172L396.809 251.588L401.08 250.129L399.787 246.344ZM396.779 232.136L395.956 228.221L392.036 229.045L392.866 232.964L396.779 232.136ZM413.483 229.256L413.999 233.223L414.013 233.221L414.026 233.219L413.483 229.256ZM440.363 230.216L438.982 233.97L438.989 233.973L438.996 233.975L440.363 230.216ZM448.939 236.168L445.745 238.576L445.758 238.593L445.77 238.609L448.939 236.168ZM445.931 259.336L448.462 262.433L448.466 262.43L445.931 259.336ZM430.251 265.992L430.976 269.926L430.251 265.992ZM410.8 267.515C410.423 264.262 409.685 261.208 408.561 258.373L401.125 261.323C401.963 263.437 402.548 265.802 402.854 268.437L410.8 267.515ZM408.57 258.395C407.449 255.52 405.868 252.69 403.87 249.902L397.368 254.562C399.039 256.894 400.274 259.141 401.116 261.301L408.57 258.395ZM400.459 256.229C404.727 256.4 407.827 256.488 409.707 256.488V248.488C408.003 248.488 405.045 248.406 400.779 248.235L400.459 256.229ZM409.707 256.488C418.613 256.488 426.143 255.685 432.178 253.967L429.988 246.273C424.929 247.713 418.209 248.488 409.707 248.488V256.488ZM432.158 253.973C433.153 253.695 434.055 253.406 434.825 253.098C435.518 252.821 436.414 252.41 437.164 251.785L432.042 245.639C432.194 245.512 432.28 245.475 432.217 245.508C432.167 245.535 432.053 245.59 431.853 245.67C431.45 245.832 430.848 246.033 430.008 246.267L432.158 253.973ZM437.042 251.882C438.848 250.493 439.435 248.485 439.435 246.728H431.435C431.435 246.773 431.427 246.614 431.538 246.349C431.661 246.056 431.877 245.763 432.164 245.542L437.042 251.882ZM439.435 246.728C439.435 245.194 439.016 243.687 438.093 242.362C437.195 241.072 435.973 240.173 434.691 239.548L431.187 246.74C431.569 246.926 431.595 247.029 431.529 246.934C431.496 246.887 431.466 246.827 431.448 246.765C431.43 246.707 431.435 246.688 431.435 246.728H439.435ZM434.802 239.604C432.336 238.306 429.202 237.864 425.835 237.864V245.864C428.697 245.864 430.3 246.275 431.076 246.684L434.802 239.604ZM425.835 237.864C422.148 237.864 417.592 238.35 412.234 239.265L413.58 247.151C418.718 246.274 422.78 245.864 425.835 245.864V237.864ZM412.234 239.265C406.859 240.183 402.262 241.272 398.494 242.559L401.08 250.129C404.31 249.026 408.459 248.025 413.58 247.151L412.234 239.265ZM403.7 245.516L400.692 231.308L392.866 232.964L395.874 247.172L403.7 245.516ZM397.602 236.05C403.402 234.832 408.867 233.89 413.999 233.223L412.967 225.289C407.603 225.987 401.932 226.966 395.956 228.221L397.602 236.05ZM414.026 233.219C419.208 232.509 423.516 232.168 426.987 232.168V224.168C423.034 224.168 418.34 224.553 412.94 225.293L414.026 233.219ZM426.987 232.168C431.862 232.168 435.827 232.81 438.982 233.97L441.744 226.462C437.475 224.892 432.523 224.168 426.987 224.168V232.168ZM438.996 233.975C442.189 235.136 444.344 236.718 445.745 238.576L452.133 233.76C449.609 230.413 446.046 228.026 441.73 226.457L438.996 233.975ZM445.77 238.609C447.187 240.448 447.947 242.662 447.947 245.448H455.947C455.947 241.066 454.702 237.094 452.108 233.727L445.77 238.609ZM447.947 245.448C447.947 250.427 446.332 253.837 443.396 256.242L448.466 262.43C453.551 258.265 455.947 252.416 455.947 245.448H447.947ZM443.4 256.239C440.083 258.95 435.534 260.952 429.526 262.058L430.976 269.926C437.939 268.643 443.843 266.208 448.462 262.433L443.4 256.239ZM429.526 262.058C423.327 263.2 415.756 263.85 406.771 263.976L406.883 271.976C416.159 271.846 424.204 271.173 430.976 269.926L429.526 262.058ZM505.835 233.928V229.928H505.746L505.657 229.932L505.835 233.928ZM496.043 236.424L497.986 239.921V239.921L496.043 236.424ZM489.963 242.056L486.539 239.989L486.533 239.998L486.527 240.008L489.963 242.056ZM488.811 251.976L485.634 254.406L485.677 254.463L485.723 254.519L488.811 251.976ZM513.835 253.704L517.495 255.317L520.165 249.258L513.56 249.713L513.835 253.704ZM511.723 260.744L507.76 260.2L507.756 260.234L507.751 260.267L511.723 260.744ZM511.275 268.488L511.418 272.485L515.221 272.35L515.275 268.544L511.275 268.488ZM483.883 266.632L482.883 270.505L482.901 270.51L482.92 270.514L483.883 266.632ZM473.515 261.32L470.351 263.767L470.377 263.801L470.403 263.833L473.515 261.32ZM473.195 242.632L476.763 244.441L476.768 244.431L476.773 244.421L473.195 242.632ZM479.659 234.504L482.243 237.558L493.053 228.411L479.055 230.55L479.659 234.504ZM460.395 237.448H456.395V242.106L460.999 241.402L460.395 237.448ZM460.395 222.6V218.6H456.395V222.6H460.395ZM477.163 222.28L477.059 218.281L477.055 218.281L477.163 222.28ZM489.515 221.96L489.437 217.961L489.424 217.961L489.411 217.961L489.515 221.96ZM501.675 221.64L501.813 225.638L501.836 225.637L501.859 225.636L501.675 221.64ZM516.971 220.872L520.971 220.813L520.909 216.659L516.761 216.878L516.971 220.872ZM517.163 233.928V237.928H521.222L521.163 233.869L517.163 233.928ZM505.657 229.932C501.35 230.123 497.448 231.067 494.1 232.927L497.986 239.921C500.014 238.794 502.64 238.074 506.013 237.924L505.657 229.932ZM494.1 232.927C490.903 234.704 488.32 237.038 486.539 239.989L493.387 244.123C494.336 242.551 495.807 241.131 497.986 239.921L494.1 232.927ZM486.527 240.008C484.866 242.794 483.979 245.799 483.979 248.968H491.979C491.979 247.358 492.414 245.755 493.399 244.104L486.527 240.008ZM483.979 248.968C483.979 250.781 484.368 252.751 485.634 254.406L491.988 249.546C492.145 249.75 491.979 249.715 491.979 248.968H483.979ZM485.723 254.519C487.231 256.349 489.597 257.131 491.557 257.551L493.233 249.729C492.525 249.577 492.084 249.422 491.839 249.308C491.581 249.188 491.696 249.187 491.899 249.433L485.723 254.519ZM491.557 257.551C493.775 258.026 496.807 258.216 500.459 258.216V250.216C496.943 250.216 494.599 250.022 493.233 249.729L491.557 257.551ZM500.459 258.216C504.538 258.216 509.091 258.041 514.11 257.695L513.56 249.713C508.681 250.05 504.316 250.216 500.459 250.216V258.216ZM510.175 252.091C508.951 254.867 508.12 257.576 507.76 260.2L515.686 261.288C515.923 259.56 516.5 257.576 517.495 255.317L510.175 252.091ZM507.751 260.267C507.474 262.584 507.319 265.314 507.275 268.432L515.275 268.544C515.316 265.604 515.46 263.171 515.695 261.221L507.751 260.267ZM511.132 264.491C510.01 264.531 508.339 264.552 506.091 264.552V272.552C508.366 272.552 510.151 272.531 511.418 272.485L511.132 264.491ZM506.091 264.552C496.556 264.552 489.536 263.912 484.846 262.75L482.92 270.514C488.555 271.912 496.341 272.552 506.091 272.552V264.552ZM484.883 262.759C479.98 261.492 477.584 259.991 476.627 258.807L470.403 263.833C473.03 267.086 477.546 269.126 482.883 270.505L484.883 262.759ZM476.679 258.873C475.578 257.449 474.891 255.505 474.891 252.744H466.891C466.891 256.895 467.954 260.668 470.351 263.767L476.679 258.873ZM474.891 252.744C474.891 249.601 475.537 246.859 476.763 244.441L469.627 240.823C467.781 244.464 466.891 248.463 466.891 252.744H474.891ZM476.773 244.421C478.053 241.861 479.859 239.575 482.243 237.558L477.075 231.45C473.913 234.126 471.409 237.259 469.617 240.843L476.773 244.421ZM479.055 230.55L459.791 233.494L460.999 241.402L480.263 238.458L479.055 230.55ZM464.395 237.448V222.6H456.395V237.448H464.395ZM460.395 226.6C463.74 226.6 469.378 226.492 477.271 226.279L477.055 218.281C469.162 218.495 463.621 218.6 460.395 218.6V226.6ZM477.267 226.279L489.619 225.959L489.411 217.961L477.059 218.281L477.267 226.279ZM489.593 225.959C494.004 225.874 498.078 225.766 501.813 225.638L501.537 217.642C497.848 217.77 493.815 217.876 489.437 217.961L489.593 225.959ZM501.859 225.636C505.584 225.465 510.693 225.208 517.181 224.866L516.761 216.878C510.279 217.219 505.19 217.474 501.491 217.644L501.859 225.636ZM512.971 220.931L513.163 233.987L521.163 233.869L520.971 220.813L512.971 220.931ZM517.163 229.928H505.835V237.928H517.163V229.928ZM556.587 235.912L556.985 239.892L560.587 239.532V235.912H556.587ZM544.747 236.808L544.492 232.816L541.513 233.007L540.848 235.917L544.747 236.808ZM538.411 253.512L534.912 251.574L534.905 251.585L534.899 251.597L538.411 253.512ZM528.235 267.016L524.417 268.209L526.353 274.404L531.017 269.89L528.235 267.016ZM524.843 258.376L521.216 260.062L524.843 258.376ZM520.875 251.208L518.16 248.271L515.583 250.653L517.609 253.518L520.875 251.208ZM526.507 244.744L529.825 246.978L529.835 246.963L529.845 246.948L526.507 244.744ZM530.091 237.192L533.897 238.422L535.637 233.036L529.98 233.194L530.091 237.192ZM523.115 237.256H519.115V241.256H523.115V237.256ZM523.115 224.584V220.584H519.115V224.584H523.115ZM532.203 224.52L532.288 228.519L535.966 228.441L536.195 224.77L532.203 224.52ZM532.331 221.384V217.384H528.331V221.384H532.331ZM546.475 221.384H550.475V217.384H546.475V221.384ZM546.411 224.072L542.421 223.787L542.097 228.323L546.637 228.066L546.411 224.072ZM556.587 223.24H560.587V218.845L556.211 219.258L556.587 223.24ZM556.587 232.84H552.587L560.423 233.975L556.587 232.84ZM559.787 222.024L560.302 218.057L556.919 217.618L555.951 220.889L559.787 222.024ZM584.043 226.376L587.898 227.443L589.002 223.452L584.976 222.486L584.043 226.376ZM580.395 239.56L579.119 243.351L583.123 244.699L584.25 240.627L580.395 239.56ZM556.587 234.184L556.962 230.202L552.587 229.79V234.184H556.587ZM574.059 238.088H578.059V234.088H574.059V238.088ZM574.059 247.624H570.059V250.384L572.639 251.363L574.059 247.624ZM583.915 252.488L587.749 253.628L588.624 250.684L586.006 249.078L583.915 252.488ZM579.691 266.696L576.891 269.553L581.633 274.2L583.525 267.836L579.691 266.696ZM572.971 260.808L575.435 257.657L571.162 254.316L569.233 259.385L572.971 260.808ZM544.235 265.992L541.898 269.238L541.912 269.248L541.927 269.259L544.235 265.992ZM541.611 249.288L538.446 246.842L541.611 249.288ZM547.499 245L546.025 241.282L547.499 245ZM559.531 243.784L558.984 247.746L563.531 248.374V243.784H559.531ZM559.531 238.088V234.088H555.531V238.088H559.531ZM559.531 254.024H563.531V250.675L560.234 250.086L559.531 254.024ZM554.091 254.024L555.746 257.665L554.091 254.024ZM554.347 256.456L552.128 259.784L552.207 259.837L552.289 259.886L554.347 256.456ZM558.955 256.456L556.127 253.628L556.043 253.711L555.965 253.799L558.955 256.456ZM556.189 231.932C553.704 232.18 549.816 232.475 544.492 232.816L545.002 240.8C550.344 240.458 554.35 240.156 556.985 239.892L556.189 231.932ZM540.848 235.917C539.563 241.538 537.582 246.752 534.912 251.574L541.91 255.45C544.958 249.946 547.201 244.024 548.646 237.699L540.848 235.917ZM534.899 251.597C532.264 256.428 529.113 260.6 525.453 264.142L531.017 269.89C535.293 265.752 538.926 260.922 541.923 255.427L534.899 251.597ZM532.053 265.823C531.139 262.899 529.941 259.854 528.47 256.69L521.216 260.062C522.561 262.957 523.624 265.672 524.417 268.209L532.053 265.823ZM528.47 256.69C527.01 253.549 525.572 250.921 524.141 248.898L517.609 253.518C518.653 254.994 519.86 257.145 521.216 260.062L528.47 256.69ZM523.59 254.145C526.046 251.875 528.135 249.489 529.825 246.978L523.189 242.51C521.892 244.437 520.227 246.36 518.16 248.271L523.59 254.145ZM529.845 246.948C531.552 244.363 532.898 241.514 533.897 238.422L526.285 235.962C525.492 238.417 524.448 240.602 523.169 242.54L529.845 246.948ZM529.98 233.194C528.502 233.235 526.222 233.256 523.115 233.256V241.256C526.237 241.256 528.608 241.235 530.202 241.19L529.98 233.194ZM527.115 237.256V224.584H519.115V237.256H527.115ZM523.115 228.584C527.174 228.584 530.238 228.563 532.288 228.519L532.118 220.521C530.157 220.563 527.162 220.584 523.115 220.584V228.584ZM536.195 224.77C536.282 223.38 536.331 222.236 536.331 221.384H528.331C528.331 221.983 528.295 222.929 528.211 224.27L536.195 224.77ZM532.331 225.384H546.475V217.384H532.331V225.384ZM542.475 221.384C542.475 222.557 542.453 223.337 542.421 223.787L550.401 224.357C550.454 223.612 550.475 222.6 550.475 221.384H542.475ZM546.637 228.066C548.976 227.933 552.429 227.65 556.963 227.222L556.211 219.258C551.7 219.683 548.368 219.955 546.185 220.078L546.637 228.066ZM552.587 223.24V232.84H560.587V223.24H552.587ZM560.423 233.975L563.623 223.159L555.951 220.889L552.751 231.705L560.423 233.975ZM559.272 225.991C568.032 227.128 575.975 228.555 583.11 230.266L584.976 222.486C577.519 220.698 569.291 219.224 560.302 218.057L559.272 225.991ZM580.188 225.309L576.54 238.493L584.25 240.627L587.898 227.443L580.188 225.309ZM581.671 235.769C572.829 232.793 564.587 230.919 556.962 230.202L556.212 238.166C563.094 238.814 570.724 240.525 579.119 243.351L581.671 235.769ZM552.587 234.184V235.912H560.587V234.184H552.587ZM570.059 238.088V247.624H578.059V238.088H570.059ZM572.639 251.363C575.767 252.551 578.828 254.06 581.824 255.898L586.006 249.078C582.602 246.99 579.093 245.257 575.479 243.885L572.639 251.363ZM580.081 251.348L575.857 265.556L583.525 267.836L587.749 253.628L580.081 251.348ZM582.491 263.839C580.251 261.644 577.899 259.583 575.435 257.657L570.507 263.959C572.736 265.702 574.864 267.566 576.891 269.553L582.491 263.839ZM569.233 259.385C568.487 261.344 567.258 262.736 565.429 263.708C563.507 264.73 560.728 265.384 556.843 265.384V273.384C561.534 273.384 565.731 272.608 569.185 270.772C572.732 268.885 575.279 265.99 576.709 262.231L569.233 259.385ZM556.843 265.384C552.196 265.384 548.878 264.375 546.543 262.725L541.927 269.259C545.992 272.132 551.079 273.384 556.843 273.384V265.384ZM546.572 262.746C544.536 261.28 543.435 259.228 543.435 256.008H535.435C535.435 261.492 537.534 266.096 541.898 269.238L546.572 262.746ZM543.435 256.008C543.435 254.199 543.92 252.842 544.776 251.734L538.446 246.842C536.401 249.489 535.435 252.611 535.435 256.008H543.435ZM544.776 251.734C545.736 250.492 547.083 249.468 548.974 248.718L546.025 241.282C542.966 242.495 540.387 244.33 538.446 246.842L544.776 251.734ZM548.974 248.718C550.925 247.944 553.148 247.528 555.691 247.528V239.528C552.261 239.528 549.022 240.093 546.025 241.282L548.974 248.718ZM555.691 247.528C556.841 247.528 557.938 247.602 558.984 247.746L560.078 239.822C558.649 239.624 557.186 239.528 555.691 239.528V247.528ZM563.531 243.784V238.088H555.531V243.784H563.531ZM559.531 242.088H574.059V234.088H559.531V242.088ZM560.234 250.086C558.883 249.845 557.593 249.704 556.395 249.704V257.704C556.989 257.704 557.79 257.776 558.828 257.962L560.234 250.086ZM556.395 249.704C555.239 249.704 553.734 249.793 552.436 250.383L555.746 257.665C555.61 257.727 555.519 257.752 555.501 257.757C555.479 257.762 555.498 257.756 555.569 257.746C555.718 257.725 555.983 257.704 556.395 257.704V249.704ZM552.436 250.383C551.641 250.744 550.812 251.344 550.205 252.283C549.596 253.224 549.387 254.23 549.387 255.112H557.387C557.387 255.482 557.295 256.051 556.921 256.629C556.548 257.205 556.072 257.518 555.746 257.665L552.436 250.383ZM549.387 255.112C549.387 257.602 551.1 259.099 552.128 259.784L556.566 253.128C556.501 253.084 556.672 253.182 556.882 253.475C557.12 253.809 557.387 254.376 557.387 255.112H549.387ZM552.289 259.886C553.762 260.77 555.41 261.032 556.907 261.032V253.032C556.607 253.032 556.429 253.004 556.345 252.986C556.265 252.967 556.303 252.965 556.405 253.026L552.289 259.886ZM556.907 261.032C558.07 261.032 560.366 260.889 561.945 259.113L555.965 253.799C556.462 253.24 556.979 253.073 557.104 253.037C557.233 253.001 557.2 253.032 556.907 253.032V261.032ZM561.783 259.284C563.182 257.886 563.531 256.113 563.531 254.728H555.531C555.531 254.879 555.496 254.258 556.127 253.628L561.783 259.284ZM563.531 254.728V254.024H555.531V254.728H563.531ZM610.219 224.328L609.468 220.399L606.029 221.057L606.225 224.552L610.219 224.328ZM644.651 222.152H648.651V218.41L644.917 218.161L644.651 222.152ZM644.779 230.024L640.782 230.178L640.782 230.181L644.779 230.024ZM645.419 236.616L644.936 240.587L650.175 241.225L649.372 236.008L645.419 236.616ZM610.987 238.024L606.993 238.248L607.253 242.887L611.802 241.94L610.987 238.024ZM589.867 268.552L585.952 269.371L586.674 272.821L590.187 272.539L589.867 268.552ZM588.139 258.184L584.16 258.597L584.163 258.626L584.167 258.654L588.139 258.184ZM589.227 222.664V218.664H585.647L585.251 222.222L589.227 222.664ZM605.547 222.664L609.518 223.141L610.056 218.664H605.547V222.664ZM604.331 258.12L600.377 258.724L600.382 258.755L600.387 258.787L604.331 258.12ZM606.635 267.208L606.955 271.195L612.067 270.785L610.424 265.927L606.635 267.208ZM612.523 264.264L609.93 267.31L612.523 264.264ZM608.171 246.856L607.83 242.871L604.661 243.141L604.211 246.29L608.171 246.856ZM621.611 243.08L625.584 243.542L626.461 236.003L619.746 239.541L621.611 243.08ZM621.931 251.08L618.353 252.869L618.388 252.939L618.426 253.008L621.931 251.08ZM623.979 252.808L622.714 256.603L623.979 252.808ZM637.739 252.936L638.028 256.926L638.054 256.924L638.081 256.921L637.739 252.936ZM648.171 251.144L652.032 252.188L653.784 245.706L647.25 247.251L648.171 251.144ZM647.147 257.992L643.162 257.65L643.159 257.677L643.157 257.703L647.147 257.992ZM646.827 267.144L647.359 271.108L650.827 270.643V267.144H646.827ZM637.227 268.104L637.403 272.1L637.433 272.099L637.462 272.097L637.227 268.104ZM610.97 228.257C619.437 226.638 627.783 225.832 636.011 225.832V217.832C627.258 217.832 618.409 218.69 609.468 220.399L610.97 228.257ZM636.011 225.832C638.463 225.832 641.252 225.934 644.385 226.143L644.917 218.161C641.65 217.943 638.679 217.832 636.011 217.832V225.832ZM640.651 222.152C640.651 225.216 640.694 227.893 640.782 230.178L648.776 229.87C648.693 227.717 648.651 225.147 648.651 222.152H640.651ZM640.782 230.181C640.874 232.513 641.102 234.861 641.466 237.224L649.372 236.008C649.053 233.934 648.855 231.887 648.776 229.867L640.782 230.181ZM645.902 232.645C640.867 232.032 636.202 231.72 631.915 231.72V239.72C635.82 239.72 640.158 240.005 644.936 240.587L645.902 232.645ZM631.915 231.72C625.034 231.72 617.783 232.524 610.172 234.108L611.802 241.94C618.954 240.452 625.655 239.72 631.915 239.72V231.72ZM614.981 237.8L614.213 224.104L606.225 224.552L606.993 238.248L614.981 237.8ZM593.782 267.733C593.035 264.162 592.48 260.824 592.111 257.714L584.167 258.654C584.566 262.03 585.163 265.603 585.952 269.371L593.782 267.733ZM592.118 257.771C591.793 254.651 591.627 251.101 591.627 247.112H583.627C583.627 251.315 583.802 255.147 584.16 258.597L592.118 257.771ZM591.627 247.112C591.627 240.61 592.146 232.617 593.203 223.106L585.251 222.222C584.175 231.911 583.627 240.217 583.627 247.112H591.627ZM589.227 226.664H605.547V218.664H589.227V226.664ZM601.576 222.187C600.289 232.909 599.627 241.413 599.627 247.624H607.627C607.627 241.888 608.245 233.752 609.518 223.141L601.576 222.187ZM599.627 247.624C599.627 251.702 599.87 255.408 600.377 258.724L608.285 257.516C607.853 254.688 607.627 251.397 607.627 247.624H599.627ZM600.387 258.787C600.936 262.033 601.757 265.267 602.846 268.489L610.424 265.927C609.465 263.09 608.75 260.266 608.275 257.453L600.387 258.787ZM606.315 263.221L589.547 264.565L590.187 272.539L606.955 271.195L606.315 263.221ZM627.627 264.296C621.079 264.296 617.203 262.995 615.116 261.218L609.93 267.31C614.158 270.909 620.351 272.296 627.627 272.296V264.296ZM615.116 261.218C613.128 259.526 611.787 256.706 611.787 251.912H603.787C603.787 258.212 605.604 263.626 609.93 267.31L615.116 261.218ZM611.787 251.912C611.787 250.548 611.898 249.053 612.131 247.422L604.211 246.29C603.932 248.243 603.787 250.119 603.787 251.912H611.787ZM608.512 250.841C613.974 250.375 618.982 248.986 623.476 246.619L619.746 239.541C616.304 241.355 612.352 242.484 607.83 242.871L608.512 250.841ZM617.638 242.618C617.419 244.498 617.291 246.088 617.291 247.304H625.291C625.291 246.557 625.376 245.332 625.584 243.542L617.638 242.618ZM617.291 247.304C617.291 249.191 617.514 251.189 618.353 252.869L625.509 249.291C625.52 249.314 625.456 249.19 625.395 248.828C625.335 248.474 625.291 247.975 625.291 247.304H617.291ZM618.426 253.008C619.364 254.713 620.831 255.975 622.714 256.603L625.244 249.013C625.242 249.013 625.258 249.018 625.286 249.033C625.313 249.049 625.344 249.069 625.374 249.095C625.405 249.12 625.425 249.143 625.437 249.158C625.449 249.172 625.447 249.173 625.436 249.152L618.426 253.008ZM622.714 256.603C624.193 257.096 625.895 257.256 627.627 257.256V249.256C626.287 249.256 625.557 249.118 625.244 249.013L622.714 256.603ZM627.627 257.256C631.495 257.256 634.965 257.147 638.028 256.926L637.45 248.946C634.625 249.151 631.354 249.256 627.627 249.256V257.256ZM638.081 256.921C641.318 256.644 644.996 256.005 649.092 255.037L647.25 247.251C643.41 248.16 640.134 248.716 637.397 248.951L638.081 256.921ZM644.31 250.1C643.789 252.025 643.424 254.587 643.162 257.65L651.132 258.334C651.382 255.423 651.699 253.42 652.032 252.188L644.31 250.1ZM643.157 257.703C642.937 260.749 642.827 263.897 642.827 267.144H650.827C650.827 264.077 650.931 261.123 651.137 258.281L643.157 257.703ZM646.295 263.18C642.875 263.638 639.776 263.947 636.992 264.111L637.462 272.097C640.481 271.92 643.782 271.588 647.359 271.108L646.295 263.18ZM637.051 264.108C634.219 264.233 631.078 264.296 627.627 264.296V272.296C631.173 272.296 634.433 272.231 637.403 272.1L637.051 264.108ZM694.251 220.36L692.765 224.074L692.773 224.077L692.781 224.08L694.251 220.36ZM702.443 226.056L699.357 228.601V228.601L702.443 226.056ZM703.595 241.032L700.279 238.795V238.795L703.595 241.032ZM698.859 245.512L700.829 248.993L700.874 248.968L700.917 248.942L698.859 245.512ZM695.467 247.432L697.416 250.925L697.427 250.919L697.437 250.913L695.467 247.432ZM691.819 249.544L693.899 252.961L693.941 252.935L693.982 252.909L691.819 249.544ZM689.771 251.528L693.306 253.4V253.4L689.771 251.528ZM689.195 254.088V258.088H693.195V254.088H689.195ZM674.539 254.088H670.539V258.088H674.539V254.088ZM676.843 245.96L680.111 248.267L680.121 248.252L680.132 248.237L676.843 245.96ZM684.587 240.2L686.22 243.852L686.22 243.851L684.587 240.2ZM688.107 237.832L685.07 235.229L685.065 235.235L685.059 235.241L688.107 237.832ZM687.467 231.624L685.011 234.781L685.039 234.803L685.067 234.824L687.467 231.624ZM677.355 232.072L674.721 229.062L674.697 229.082L674.674 229.104L677.355 232.072ZM675.755 240.072L674.65 243.916L681.181 245.794L679.653 239.173L675.755 240.072ZM660.459 238.6L656.483 239.042L656.879 242.6H660.459V238.6ZM663.211 227.4L659.89 225.17L659.883 225.181L663.211 227.4ZM671.211 220.744L672.89 224.375L672.9 224.37L672.91 224.365L671.211 220.744ZM689.259 270.28V274.28H693.259V270.28H689.259ZM674.411 270.28H670.411V274.28H674.411V270.28ZM674.411 258.888V254.888H670.411V258.888H674.411ZM689.259 258.888H693.259V254.888H689.259V258.888ZM683.051 222.312C686.648 222.312 689.871 222.916 692.765 224.074L695.737 216.646C691.805 215.073 687.561 214.312 683.051 214.312V222.312ZM692.781 224.08C695.721 225.241 697.853 226.777 699.357 228.601L705.529 223.511C703.022 220.471 699.693 218.209 695.721 216.64L692.781 224.08ZM699.357 228.601C700.77 230.315 701.451 232.21 701.451 234.44H709.451C709.451 230.356 708.126 226.661 705.529 223.511L699.357 228.601ZM701.451 234.44C701.451 236.331 701.004 237.721 700.279 238.795L706.911 243.269C708.661 240.674 709.451 237.669 709.451 234.44H701.451ZM700.279 238.795C699.372 240.139 698.225 241.227 696.801 242.082L700.917 248.942C703.333 247.493 705.343 245.594 706.911 243.269L700.279 238.795ZM696.889 242.031L693.497 243.951L697.437 250.913L700.829 248.993L696.889 242.031ZM693.518 243.939C691.7 244.954 690.375 245.717 689.656 246.179L693.982 252.909C694.457 252.603 695.565 251.958 697.416 250.925L693.518 243.939ZM689.739 246.127C688.377 246.956 687.066 248.089 686.236 249.656L693.306 253.4C693.244 253.516 693.298 253.326 693.899 252.961L689.739 246.127ZM686.236 249.656C685.492 251.061 685.195 252.581 685.195 254.088H693.195C693.195 253.632 693.282 253.446 693.306 253.4L686.236 249.656ZM689.195 250.088H674.539V258.088H689.195V250.088ZM678.539 254.088C678.539 251.489 679.147 249.633 680.111 248.267L673.575 243.653C671.467 246.639 670.539 250.202 670.539 254.088H678.539ZM680.132 248.237C681.1 246.839 682.965 245.307 686.22 243.852L682.954 236.548C678.956 238.336 675.658 240.644 673.554 243.683L680.132 248.237ZM686.22 243.851C688.102 243.01 689.882 241.92 691.155 240.423L685.059 235.241C684.881 235.451 684.315 235.94 682.954 236.549L686.22 243.851ZM691.144 240.435C692.49 238.864 693.259 236.952 693.259 234.824H685.259C685.259 234.914 685.26 235.008 685.07 235.229L691.144 240.435ZM693.259 234.824C693.259 232.062 691.835 229.9 689.867 228.424L685.067 234.824C685.315 235.01 685.348 235.099 685.321 235.05C685.307 235.026 685.289 234.985 685.275 234.932C685.261 234.879 685.259 234.84 685.259 234.824H693.259ZM689.923 228.467C687.921 226.909 685.525 226.28 683.051 226.28V234.28C684.161 234.28 684.709 234.547 685.011 234.781L689.923 228.467ZM683.051 226.28C679.984 226.28 677.033 227.039 674.721 229.062L679.989 235.082C680.408 234.716 681.254 234.28 683.051 234.28V226.28ZM674.674 229.104C672.33 231.221 671.371 234.091 671.371 237.128H679.371C679.371 235.813 679.735 235.313 680.036 235.04L674.674 229.104ZM671.371 237.128C671.371 238.365 671.554 239.659 671.857 240.971L679.653 239.173C679.444 238.267 679.371 237.597 679.371 237.128H671.371ZM676.86 236.228C672.895 235.088 667.343 234.6 660.459 234.6V242.6C667.143 242.6 671.788 243.094 674.65 243.916L676.86 236.228ZM664.435 238.158C664.416 237.991 664.395 237.628 664.395 237H656.395C656.395 237.737 656.417 238.441 656.483 239.042L664.435 238.158ZM664.395 237C664.395 234.157 665.126 231.738 666.539 229.619L659.883 225.181C657.541 228.694 656.395 232.675 656.395 237H664.395ZM666.532 229.63C668.006 227.435 670.079 225.675 672.89 224.375L669.532 217.113C665.517 218.97 662.256 221.647 659.89 225.17L666.532 229.63ZM672.91 224.365C675.755 223.031 679.106 222.312 683.051 222.312V214.312C678.121 214.312 673.579 215.215 669.512 217.123L672.91 224.365ZM689.259 266.28H674.411V274.28H689.259V266.28ZM678.411 270.28V258.888H670.411V270.28H678.411ZM674.411 262.888H689.259V254.888H674.411V262.888ZM685.259 258.888V270.28H693.259V258.888H685.259Z" fill="white" mask="url(#path-1-outside-1_243_308)"/>
</svg>
