<svg width="866" height="539" viewBox="0 0 866 539" fill="none" xmlns="http://www.w3.org/2000/svg">
<rect width="866" height="539" fill="#F2F2F2"/>
<mask id="path-1-outside-1_225_735" maskUnits="userSpaceOnUse" x="164" y="215" width="214" height="84" fill="black">
<rect fill="white" x="164" y="215" width="214" height="84"/>
<path d="M168.96 246.864L219.552 228.624V247.92L185.952 259.152L219.552 270.48V289.776L168.96 271.536V246.864ZM255.252 294.96C244.308 294.96 236.244 292.464 231.06 287.472C225.94 282.416 223.38 275.792 223.38 267.6C223.38 259.6 225.94 253.104 231.06 248.112C236.244 243.12 244.308 240.624 255.252 240.624C262.612 240.624 268.756 241.84 273.684 244.272C278.676 246.64 282.356 249.872 284.724 253.968C287.092 258 288.276 262.544 288.276 267.6C288.276 275.856 285.524 282.48 280.02 287.472C274.58 292.464 266.324 294.96 255.252 294.96ZM255.636 278.64C259.796 278.64 262.9 277.648 264.948 275.664C266.996 273.68 268.02 271.024 268.02 267.696C268.02 264.56 266.996 262 264.948 260.016C262.9 257.968 259.796 256.944 255.636 256.944C251.476 256.944 248.436 257.936 246.516 259.92C244.596 261.904 243.636 264.496 243.636 267.696C243.636 271.024 244.596 273.68 246.516 275.664C248.436 277.648 251.476 278.64 255.636 278.64ZM317.588 255.6C317.524 259.44 317.492 265.328 317.492 273.264C317.492 282.8 317.556 289.712 317.684 294H295.028L295.124 283.152C295.252 271.248 295.316 262.064 295.316 255.6C295.316 249.456 295.252 240.752 295.124 229.488L295.028 219.12H317.684C317.556 228.208 317.492 235.632 317.492 241.392C317.492 247.792 317.524 252.528 317.588 255.6ZM322.523 247.92V228.624L373.115 246.864V271.536L322.523 289.776V270.48L356.123 259.152L322.523 247.92Z"/>
</mask>
<path d="M168.96 246.864L219.552 228.624V247.92L185.952 259.152L219.552 270.48V289.776L168.96 271.536V246.864ZM255.252 294.96C244.308 294.96 236.244 292.464 231.06 287.472C225.94 282.416 223.38 275.792 223.38 267.6C223.38 259.6 225.94 253.104 231.06 248.112C236.244 243.12 244.308 240.624 255.252 240.624C262.612 240.624 268.756 241.84 273.684 244.272C278.676 246.64 282.356 249.872 284.724 253.968C287.092 258 288.276 262.544 288.276 267.6C288.276 275.856 285.524 282.48 280.02 287.472C274.58 292.464 266.324 294.96 255.252 294.96ZM255.636 278.64C259.796 278.64 262.9 277.648 264.948 275.664C266.996 273.68 268.02 271.024 268.02 267.696C268.02 264.56 266.996 262 264.948 260.016C262.9 257.968 259.796 256.944 255.636 256.944C251.476 256.944 248.436 257.936 246.516 259.92C244.596 261.904 243.636 264.496 243.636 267.696C243.636 271.024 244.596 273.68 246.516 275.664C248.436 277.648 251.476 278.64 255.636 278.64ZM317.588 255.6C317.524 259.44 317.492 265.328 317.492 273.264C317.492 282.8 317.556 289.712 317.684 294H295.028L295.124 283.152C295.252 271.248 295.316 262.064 295.316 255.6C295.316 249.456 295.252 240.752 295.124 229.488L295.028 219.12H317.684C317.556 228.208 317.492 235.632 317.492 241.392C317.492 247.792 317.524 252.528 317.588 255.6ZM322.523 247.92V228.624L373.115 246.864V271.536L322.523 289.776V270.48L356.123 259.152L322.523 247.92Z" fill="#606C38"/>
<path d="M168.96 246.864L167.603 243.101L164.96 244.054V246.864H168.96ZM219.552 228.624H223.552V222.93L218.195 224.861L219.552 228.624ZM219.552 247.92L220.82 251.714L223.552 250.8V247.92H219.552ZM185.952 259.152L184.684 255.358L173.384 259.136L184.674 262.942L185.952 259.152ZM219.552 270.48H223.552V267.607L220.83 266.69L219.552 270.48ZM219.552 289.776L218.195 293.539L223.552 295.47V289.776H219.552ZM168.96 271.536H164.96V274.346L167.603 275.299L168.96 271.536ZM170.317 250.627L220.909 232.387L218.195 224.861L167.603 243.101L170.317 250.627ZM215.552 228.624V247.92H223.552V228.624H215.552ZM218.284 244.126L184.684 255.358L187.22 262.946L220.82 251.714L218.284 244.126ZM184.674 262.942L218.274 274.27L220.83 266.69L187.23 255.362L184.674 262.942ZM215.552 270.48V289.776H223.552V270.48H215.552ZM220.909 286.013L170.317 267.773L167.603 275.299L218.195 293.539L220.909 286.013ZM172.96 271.536V246.864H164.96V271.536H172.96ZM231.06 287.472L228.249 290.318L228.267 290.336L228.285 290.353L231.06 287.472ZM231.06 248.112L228.285 245.231L228.276 245.239L228.268 245.248L231.06 248.112ZM273.684 244.272L271.914 247.859L271.942 247.873L271.97 247.886L273.684 244.272ZM284.724 253.968L281.261 255.97L281.268 255.982L281.275 255.994L284.724 253.968ZM280.02 287.472L277.333 284.509L277.324 284.517L277.316 284.525L280.02 287.472ZM264.948 260.016L262.12 262.844L262.142 262.867L262.165 262.889L264.948 260.016ZM246.516 259.92L243.642 257.138L246.516 259.92ZM246.516 275.664L249.39 272.882V272.882L246.516 275.664ZM255.252 290.96C244.816 290.96 237.965 288.568 233.835 284.591L228.285 290.353C234.523 296.36 243.8 298.96 255.252 298.96V290.96ZM233.871 284.626C229.619 280.428 227.38 274.884 227.38 267.6H219.38C219.38 276.7 222.261 284.404 228.249 290.318L233.871 284.626ZM227.38 267.6C227.38 260.538 229.6 255.122 233.852 250.976L228.268 245.248C222.28 251.086 219.38 258.662 219.38 267.6H227.38ZM233.835 250.993C237.965 247.016 244.816 244.624 255.252 244.624V236.624C243.8 236.624 234.523 239.224 228.285 245.231L233.835 250.993ZM255.252 244.624C262.197 244.624 267.69 245.775 271.914 247.859L275.454 240.685C269.822 237.905 263.027 236.624 255.252 236.624V244.624ZM271.97 247.886C276.355 249.966 279.364 252.688 281.261 255.97L288.187 251.966C285.348 247.056 280.997 243.314 275.398 240.658L271.97 247.886ZM281.275 255.994C283.253 259.362 284.276 263.196 284.276 267.6H292.276C292.276 261.892 290.931 256.638 288.173 251.942L281.275 255.994ZM284.276 267.6C284.276 274.867 281.903 280.364 277.333 284.509L282.707 290.435C289.145 284.596 292.276 276.845 292.276 267.6H284.276ZM277.316 284.525C272.908 288.569 265.811 290.96 255.252 290.96V298.96C266.837 298.96 276.252 296.359 282.724 290.419L277.316 284.525ZM255.636 282.64C260.361 282.64 264.655 281.517 267.731 278.537L262.165 272.791C261.145 273.779 259.231 274.64 255.636 274.64V282.64ZM267.731 278.537C270.688 275.673 272.02 271.91 272.02 267.696H264.02C264.02 270.138 263.304 271.687 262.165 272.791L267.731 278.537ZM272.02 267.696C272.02 263.596 270.639 259.96 267.731 257.143L262.165 262.889C263.353 264.04 264.02 265.524 264.02 267.696H272.02ZM267.776 257.188C264.703 254.114 260.392 252.944 255.636 252.944V260.944C259.2 260.944 261.097 261.822 262.12 262.844L267.776 257.188ZM255.636 252.944C250.937 252.944 246.624 254.056 243.642 257.138L249.39 262.702C250.248 261.816 252.015 260.944 255.636 260.944V252.944ZM243.642 257.138C240.885 259.987 239.636 263.636 239.636 267.696H247.636C247.636 265.356 248.307 263.821 249.39 262.702L243.642 257.138ZM239.636 267.696C239.636 271.835 240.856 275.567 243.642 278.446L249.39 272.882C248.336 271.793 247.636 270.213 247.636 267.696H239.636ZM243.642 278.446C246.624 281.528 250.937 282.64 255.636 282.64V274.64C252.015 274.64 250.248 273.768 249.39 272.882L243.642 278.446ZM317.587 255.6L321.587 255.667L321.588 255.592L321.587 255.517L317.587 255.6ZM317.684 294V298H321.805L321.682 293.881L317.684 294ZM295.028 294L291.028 293.965L290.992 298H295.028V294ZM295.123 283.152L291.124 283.109L291.124 283.117L295.123 283.152ZM295.123 229.488L291.124 229.525L291.124 229.533L295.123 229.488ZM295.028 219.12V215.12H290.99L291.028 219.157L295.028 219.12ZM317.684 219.12L321.683 219.176L321.74 215.12H317.684V219.12ZM313.588 255.533C313.523 259.408 313.492 265.324 313.492 273.264H321.492C321.492 265.332 321.524 259.472 321.587 255.667L313.588 255.533ZM313.492 273.264C313.492 282.804 313.555 289.767 313.685 294.119L321.682 293.881C321.556 289.657 321.492 282.796 321.492 273.264H313.492ZM317.684 290H295.028V298H317.684V290ZM299.027 294.035L299.123 283.187L291.124 283.117L291.028 293.965L299.027 294.035ZM299.123 283.195C299.251 271.286 299.316 262.086 299.316 255.6H291.315C291.315 262.042 291.252 271.21 291.124 283.109L299.123 283.195ZM299.316 255.6C299.316 249.433 299.251 240.711 299.123 229.443L291.124 229.533C291.252 240.793 291.315 249.479 291.315 255.6H299.316ZM299.123 229.451L299.027 219.083L291.028 219.157L291.124 229.525L299.123 229.451ZM295.028 223.12H317.684V215.12H295.028V223.12ZM313.684 219.064C313.556 228.161 313.492 235.606 313.492 241.392H321.492C321.492 235.658 321.555 228.255 321.683 219.176L313.684 219.064ZM313.492 241.392C313.492 247.797 313.523 252.567 313.588 255.683L321.587 255.517C321.524 252.489 321.492 247.787 321.492 241.392H313.492ZM322.523 247.92H318.523V250.8L321.254 251.714L322.523 247.92ZM322.523 228.624L323.879 224.861L318.523 222.93V228.624H322.523ZM373.115 246.864H377.115V244.054L374.471 243.101L373.115 246.864ZM373.115 271.536L374.471 275.299L377.115 274.346V271.536H373.115ZM322.523 289.776H318.523V295.47L323.879 293.539L322.523 289.776ZM322.523 270.48L321.245 266.69L318.523 267.607V270.48H322.523ZM356.122 259.152L357.4 262.942L368.691 259.136L357.391 255.358L356.122 259.152ZM326.523 247.92V228.624H318.523V247.92H326.523ZM321.166 232.387L371.758 250.627L374.471 243.101L323.879 224.861L321.166 232.387ZM369.115 246.864V271.536H377.115V246.864H369.115ZM371.758 267.773L321.166 286.013L323.879 293.539L374.471 275.299L371.758 267.773ZM326.523 289.776V270.48H318.523V289.776H326.523ZM323.8 274.27L357.4 262.942L354.845 255.362L321.245 266.69L323.8 274.27ZM357.391 255.358L323.791 244.126L321.254 251.714L354.854 262.946L357.391 255.358Z" fill="white" mask="url(#path-1-outside-1_225_735)"/>
<mask id="path-3-outside-2_225_735" maskUnits="userSpaceOnUse" x="489" y="215" width="210" height="84" fill="black">
<rect fill="white" x="489" y="215" width="210" height="84"/>
<path d="M493.96 246.864L544.552 228.624V247.92L510.952 259.152L544.552 270.48V289.776L493.96 271.536V246.864ZM608.38 241.584C607.932 249.648 607.708 258.352 607.708 267.696C607.708 277.104 607.932 285.872 608.38 294C604.284 293.808 601.052 293.712 598.684 293.712C596.444 293.712 593.212 293.808 588.988 294L586.204 279.888C584.732 285.008 582.428 288.816 579.292 291.312C576.156 293.744 572.508 294.96 568.348 294.96C564.508 294.96 561.18 294.128 558.364 292.464C555.548 290.736 553.404 288.432 551.932 285.552C550.524 282.672 549.82 279.44 549.82 275.856V262.032C549.82 253.52 549.66 246.704 549.34 241.584H570.94C570.556 250.992 570.364 260.304 570.364 269.52C570.364 272.336 571.036 274.576 572.38 276.24C573.788 277.904 575.548 278.736 577.66 278.736C579.644 278.736 581.372 277.872 582.844 276.144C584.38 274.352 585.308 271.92 585.628 268.848V266.64C585.756 261.648 585.82 258.192 585.82 256.272C585.82 251.856 585.692 246.96 585.436 241.584H608.38ZM638.65 255.6C638.586 259.44 638.554 265.328 638.554 273.264C638.554 282.8 638.618 289.712 638.746 294H616.09L616.186 283.152C616.314 271.248 616.378 262.064 616.378 255.6C616.378 249.456 616.314 240.752 616.186 229.488L616.09 219.12H638.746C638.618 228.208 638.554 235.632 638.554 241.392C638.554 247.792 638.586 252.528 638.65 255.6ZM643.585 247.92V228.624L694.177 246.864V271.536L643.585 289.776V270.48L677.185 259.152L643.585 247.92Z"/>
</mask>
<path d="M493.96 246.864L544.552 228.624V247.92L510.952 259.152L544.552 270.48V289.776L493.96 271.536V246.864ZM608.38 241.584C607.932 249.648 607.708 258.352 607.708 267.696C607.708 277.104 607.932 285.872 608.38 294C604.284 293.808 601.052 293.712 598.684 293.712C596.444 293.712 593.212 293.808 588.988 294L586.204 279.888C584.732 285.008 582.428 288.816 579.292 291.312C576.156 293.744 572.508 294.96 568.348 294.96C564.508 294.96 561.18 294.128 558.364 292.464C555.548 290.736 553.404 288.432 551.932 285.552C550.524 282.672 549.82 279.44 549.82 275.856V262.032C549.82 253.52 549.66 246.704 549.34 241.584H570.94C570.556 250.992 570.364 260.304 570.364 269.52C570.364 272.336 571.036 274.576 572.38 276.24C573.788 277.904 575.548 278.736 577.66 278.736C579.644 278.736 581.372 277.872 582.844 276.144C584.38 274.352 585.308 271.92 585.628 268.848V266.64C585.756 261.648 585.82 258.192 585.82 256.272C585.82 251.856 585.692 246.96 585.436 241.584H608.38ZM638.65 255.6C638.586 259.44 638.554 265.328 638.554 273.264C638.554 282.8 638.618 289.712 638.746 294H616.09L616.186 283.152C616.314 271.248 616.378 262.064 616.378 255.6C616.378 249.456 616.314 240.752 616.186 229.488L616.09 219.12H638.746C638.618 228.208 638.554 235.632 638.554 241.392C638.554 247.792 638.586 252.528 638.65 255.6ZM643.585 247.92V228.624L694.177 246.864V271.536L643.585 289.776V270.48L677.185 259.152L643.585 247.92Z" fill="#F69D4C"/>
<path d="M493.96 246.864L492.603 243.101L489.96 244.054V246.864H493.96ZM544.552 228.624H548.552V222.93L543.195 224.861L544.552 228.624ZM544.552 247.92L545.82 251.714L548.552 250.8V247.92H544.552ZM510.952 259.152L509.684 255.358L498.384 259.136L509.674 262.942L510.952 259.152ZM544.552 270.48H548.552V267.607L545.83 266.69L544.552 270.48ZM544.552 289.776L543.195 293.539L548.552 295.47V289.776H544.552ZM493.96 271.536H489.96V274.346L492.603 275.299L493.96 271.536ZM495.317 250.627L545.909 232.387L543.195 224.861L492.603 243.101L495.317 250.627ZM540.552 228.624V247.92H548.552V228.624H540.552ZM543.284 244.126L509.684 255.358L512.22 262.946L545.82 251.714L543.284 244.126ZM509.674 262.942L543.274 274.27L545.83 266.69L512.23 255.362L509.674 262.942ZM540.552 270.48V289.776H548.552V270.48H540.552ZM545.909 286.013L495.317 267.773L492.603 275.299L543.195 293.539L545.909 286.013ZM497.96 271.536V246.864H489.96V271.536H497.96ZM608.38 241.584L612.374 241.806L612.608 237.584H608.38V241.584ZM608.38 294L608.193 297.996L612.618 298.203L612.374 293.78L608.38 294ZM588.988 294L585.064 294.774L585.73 298.152L589.17 297.996L588.988 294ZM586.204 279.888L590.128 279.114L582.36 278.783L586.204 279.888ZM579.292 291.312L581.743 294.473L581.763 294.457L581.783 294.442L579.292 291.312ZM558.364 292.464L556.272 295.873L556.3 295.891L556.329 295.908L558.364 292.464ZM551.932 285.552L548.338 287.309L548.354 287.341L548.37 287.372L551.932 285.552ZM549.34 241.584V237.584H545.082L545.348 241.834L549.34 241.584ZM570.94 241.584L574.937 241.747L575.107 237.584H570.94V241.584ZM572.38 276.24L569.268 278.753L569.297 278.789L569.326 278.824L572.38 276.24ZM582.844 276.144L579.807 273.541L579.799 273.55L582.844 276.144ZM585.628 268.848L589.606 269.262L589.628 269.056V268.848H585.628ZM585.628 266.64L581.629 266.537L581.628 266.589V266.64H585.628ZM585.436 241.584V237.584H581.241L581.441 241.774L585.436 241.584ZM604.386 241.362C603.933 249.51 603.708 258.289 603.708 267.696H611.708C611.708 258.415 611.931 249.786 612.374 241.806L604.386 241.362ZM603.708 267.696C603.708 277.166 603.933 286.009 604.386 294.22L612.374 293.78C611.931 285.735 611.708 277.042 611.708 267.696H603.708ZM608.567 290.004C604.447 289.811 601.143 289.712 598.684 289.712V297.712C600.961 297.712 604.121 297.805 608.193 297.996L608.567 290.004ZM598.684 289.712C596.352 289.712 593.048 289.811 588.806 290.004L589.17 297.996C593.376 297.805 596.536 297.712 598.684 297.712V289.712ZM592.912 293.226L590.128 279.114L582.28 280.662L585.064 294.774L592.912 293.226ZM582.36 278.783C581.043 283.364 579.103 286.35 576.801 288.182L581.783 294.442C585.753 291.282 588.421 286.652 590.048 280.993L582.36 278.783ZM576.841 288.151C574.442 290.012 571.666 290.96 568.348 290.96V298.96C573.35 298.96 577.87 297.476 581.743 294.473L576.841 288.151ZM568.348 290.96C565.098 290.96 562.499 290.261 560.399 289.02L556.329 295.908C559.861 297.995 563.918 298.96 568.348 298.96V290.96ZM560.456 289.055C558.252 287.702 556.624 285.942 555.494 283.732L548.37 287.372C550.184 290.922 552.844 293.77 556.272 295.873L560.456 289.055ZM555.526 283.795C554.415 281.524 553.82 278.904 553.82 275.856H545.82C545.82 279.976 546.633 283.82 548.338 287.309L555.526 283.795ZM553.82 275.856V262.032H545.82V275.856H553.82ZM553.82 262.032C553.82 253.483 553.66 246.574 553.332 241.334L545.348 241.834C545.66 246.834 545.82 253.557 545.82 262.032H553.82ZM549.34 245.584H570.94V237.584H549.34V245.584ZM566.943 241.421C566.557 250.882 566.364 260.248 566.364 269.52H574.364C574.364 260.36 574.555 251.102 574.937 241.747L566.943 241.421ZM566.364 269.52C566.364 272.959 567.19 276.18 569.268 278.753L575.492 273.727C574.882 272.972 574.364 271.713 574.364 269.52H566.364ZM569.326 278.824C571.466 281.353 574.329 282.736 577.66 282.736V274.736C576.767 274.736 576.11 274.455 575.434 273.656L569.326 278.824ZM577.66 282.736C580.992 282.736 583.779 281.215 585.889 278.738L579.799 273.55C578.965 274.529 578.296 274.736 577.66 274.736V282.736ZM585.881 278.747C588.087 276.173 589.228 272.896 589.606 269.262L581.65 268.434C581.388 270.944 580.673 272.531 579.807 273.541L585.881 278.747ZM589.628 268.848V266.64H581.628V268.848H589.628ZM589.627 266.743C589.755 261.754 589.82 258.25 589.82 256.272H581.82C581.82 258.134 581.757 261.542 581.629 266.537L589.627 266.743ZM589.82 256.272C589.82 251.781 589.69 246.82 589.431 241.394L581.441 241.774C581.694 247.1 581.82 251.931 581.82 256.272H589.82ZM585.436 245.584H608.38V237.584H585.436V245.584ZM638.65 255.6L642.649 255.667L642.651 255.592L642.649 255.517L638.65 255.6ZM638.746 294V298H642.867L642.744 293.881L638.746 294ZM616.09 294L612.09 293.965L612.054 298H616.09V294ZM616.186 283.152L612.186 283.109L612.186 283.117L616.186 283.152ZM616.186 229.488L612.186 229.525L612.186 229.533L616.186 229.488ZM616.09 219.12V215.12H612.053L612.09 219.157L616.09 219.12ZM638.746 219.12L642.746 219.176L642.803 215.12H638.746V219.12ZM634.651 255.533C634.586 259.408 634.554 265.324 634.554 273.264H642.554C642.554 265.332 642.586 259.472 642.649 255.667L634.651 255.533ZM634.554 273.264C634.554 282.804 634.618 289.767 634.748 294.119L642.744 293.881C642.618 289.657 642.554 282.796 642.554 273.264H634.554ZM638.746 290H616.09V298H638.746V290ZM620.09 294.035L620.186 283.187L612.186 283.117L612.09 293.965L620.09 294.035ZM620.186 283.195C620.314 271.286 620.378 262.086 620.378 255.6H612.378C612.378 262.042 612.314 271.21 612.186 283.109L620.186 283.195ZM620.378 255.6C620.378 249.433 620.314 240.711 620.186 229.443L612.186 229.533C612.314 240.793 612.378 249.479 612.378 255.6H620.378ZM620.186 229.451L620.09 219.083L612.09 219.157L612.186 229.525L620.186 229.451ZM616.09 223.12H638.746V215.12H616.09V223.12ZM634.746 219.064C634.618 228.161 634.554 235.606 634.554 241.392H642.554C642.554 235.658 642.618 228.255 642.746 219.176L634.746 219.064ZM634.554 241.392C634.554 247.797 634.586 252.567 634.651 255.683L642.649 255.517C642.586 252.489 642.554 247.787 642.554 241.392H634.554ZM643.585 247.92H639.585V250.8L642.317 251.714L643.585 247.92ZM643.585 228.624L644.942 224.861L639.585 222.93V228.624H643.585ZM694.177 246.864H698.177V244.054L695.534 243.101L694.177 246.864ZM694.177 271.536L695.534 275.299L698.177 274.346V271.536H694.177ZM643.585 289.776H639.585V295.47L644.942 293.539L643.585 289.776ZM643.585 270.48L642.307 266.69L639.585 267.607V270.48H643.585ZM677.185 259.152L678.463 262.942L689.753 259.136L678.453 255.358L677.185 259.152ZM647.585 247.92V228.624H639.585V247.92H647.585ZM642.228 232.387L692.82 250.627L695.534 243.101L644.942 224.861L642.228 232.387ZM690.177 246.864V271.536H698.177V246.864H690.177ZM692.82 267.773L642.228 286.013L644.942 293.539L695.534 275.299L692.82 267.773ZM647.585 289.776V270.48H639.585V289.776H647.585ZM644.863 274.27L678.463 262.942L675.907 255.362L642.307 266.69L644.863 274.27ZM678.453 255.358L644.853 244.126L642.317 251.714L675.917 262.946L678.453 255.358Z" fill="white" mask="url(#path-3-outside-2_225_735)"/>
</svg>
