<svg width="866" height="539" viewBox="0 0 866 539" fill="none" xmlns="http://www.w3.org/2000/svg">
<rect width="866" height="539" fill="#F2F2F2"/>
<path d="M307 139L313.735 159.729H335.532L317.898 172.541L324.634 193.271L307 180.459L289.366 193.271L296.102 172.541L278.468 159.729H300.265L307 139Z" fill="#737373"/>
<line x1="353" y1="153.5" x2="589" y2="153.5" stroke="#737373"/>
<line x1="353" y1="163.5" x2="589" y2="163.5" stroke="#737373"/>
<line x1="353" y1="173.5" x2="589" y2="173.5" stroke="#737373"/>
<line x1="353" y1="183.5" x2="589" y2="183.5" stroke="#737373"/>
<path d="M307 239L313.735 259.729H335.532L317.898 272.541L324.634 293.271L307 280.459L289.366 293.271L296.102 272.541L278.468 259.729H300.265L307 239Z" fill="#737373"/>
<line x1="353" y1="253.5" x2="589" y2="253.5" stroke="#737373"/>
<line x1="353" y1="263.5" x2="589" y2="263.5" stroke="#737373"/>
<line x1="353" y1="273.5" x2="589" y2="273.5" stroke="#737373"/>
<line x1="353" y1="283.5" x2="589" y2="283.5" stroke="#737373"/>
<path d="M307 339L313.735 359.729H335.532L317.898 372.541L324.634 393.271L307 380.459L289.366 393.271L296.102 372.541L278.468 359.729H300.265L307 339Z" fill="#737373"/>
<line x1="353" y1="353.5" x2="589" y2="353.5" stroke="#737373"/>
<line x1="353" y1="363.5" x2="589" y2="363.5" stroke="#737373"/>
<line x1="353" y1="373.5" x2="589" y2="373.5" stroke="#737373"/>
<line x1="353" y1="383.5" x2="589" y2="383.5" stroke="#737373"/>
</svg>
