<svg width="430" height="1062" viewBox="0 0 430 1062" fill="none" xmlns="http://www.w3.org/2000/svg">
<g clip-path="url(#clip0_350_299)">
<path d="M-70.8278 116.189C-163.137 68.6259 -138.039 -2.5787 -114.84 -30.5704C-67.1991 -88.0545 -8.46397 -95.6826 28.3209 -71.3064C53.3831 -54.6984 80.6236 -40.8371 112.064 -40.9091C153.218 -41.0035 267.372 0.933999 211.174 119.837C154.976 238.741 60.8338 195.549 25.3827 177.169C-13.0227 157.257 -8.30507 148.405 -70.8278 116.189Z" fill="#A4BE4D" fill-opacity="0.7"/>
<path d="M230.172 121.189C137.863 73.6259 162.961 2.4213 186.16 -25.5704C233.801 -83.0545 292.536 -90.6826 329.321 -66.3064C354.383 -49.6984 381.624 -35.8371 413.064 -35.9091C454.218 -36.0035 568.372 5.934 512.174 124.837C455.976 243.741 361.834 200.549 326.383 182.169C287.977 162.257 292.695 153.405 230.172 121.189Z" fill="#FFF4CC"/>
<path d="M-95.3081 849.353C-160.323 765.115 -105.918 709.692 -72.1416 693.675C-2.77822 660.782 55.1309 679.105 78.6721 717.721C94.7112 744.031 113.973 768.727 143.22 782.269C181.504 799.996 269.274 888.452 165.148 974.819C61.0218 1061.19 -7.60503 980.225 -32.5243 947.768C-59.5202 912.607 -51.2722 906.408 -95.3081 849.353Z" fill="#606C38" fill-opacity="0.7"/>
<path d="M262.144 1023.09C166.004 1041.45 143.22 973.979 144.155 939.702C146.073 869.312 185.212 829.493 226.676 826.204C254.926 823.963 283.196 818.416 306.478 800.08C336.955 776.079 446.03 740.84 473.477 861.816C500.925 982.791 405.967 1005.46 368.979 1012.43C328.908 1019.97 327.261 1010.66 262.144 1023.09Z" fill="#F69D4C" fill-opacity="0.8"/>
</g>
<defs>
<clipPath id="clip0_350_299">
<rect width="430" height="1062" fill="white"/>
</clipPath>
</defs>
</svg>
