<svg width="87" height="90" viewBox="0 0 87 90" fill="none" xmlns="http://www.w3.org/2000/svg">
<path d="M61.2253 12.5887C61.8043 11.9035 62.2793 11.2713 62.6344 10.7315C64.0299 11.76 64.1696 11.8162 65.0063 12.2956C66.5154 19.4584 64.9243 28.4206 62.5663 35.5415C60.5645 35.2972 60.9079 35.3302 59.2733 35.2051C65.0063 19.0721 61.1028 12.8568 61.2253 12.5887Z" fill="#A4BE4D" fill-opacity="0.7"/>
<path d="M62.6344 10.7315C56.3466 2.72048 42.5132 0.207165 35.1249 8.68943C37.1685 16.8574 55.5606 21.884 62.6344 10.7315Z" fill="#A4BE4D" fill-opacity="0.7"/>
<path d="M62.6344 10.7315C64.678 4.91955 76.4364 -4.59932 87 2.56344C82.9129 13.8731 70.6515 17.1717 62.6344 10.7315Z" fill="#A4BE4D" fill-opacity="0.7"/>
<path d="M21.7983 83.9351C-1.39282 80.9531 -1.55106 63.915 1.20841 56.1905C6.87531 40.3272 18.7204 34.1862 28.3786 36.5248C34.9589 38.1181 41.7892 38.9611 48.4378 36.5248C57.1408 33.3358 84.5232 33.4421 81.7638 62.9938C79.0043 92.5454 55.7611 90.632 46.8458 89.4627C37.1877 88.196 37.5061 85.9548 21.7983 83.9351Z" fill="#A4BE4D" fill-opacity="0.7"/>
</svg>
