<svg width="172" height="64" viewBox="0 0 172 64" fill="none" xmlns="http://www.w3.org/2000/svg">
<rect width="172" height="64" fill="#292D28"/>
<path d="M59.32 37.264L60.984 22.768H68.792L64.504 46H54.68L52.504 33.04L49.976 46H40.568L36.28 22.768H44.088L45.72 37.072L48.28 22.768H56.824L59.32 37.264ZM86.9893 38H76.5573C76.7279 38.9387 77.1439 39.7067 77.8053 40.304C78.4879 40.88 79.4479 41.168 80.6853 41.168C81.5813 41.168 82.4239 40.9973 83.2133 40.656C84.0026 40.2933 84.6319 39.792 85.1013 39.152C86.5306 39.856 88.4293 40.6133 90.7973 41.424C90.1359 42.9173 88.9306 44.112 87.1813 45.008C85.4533 45.8827 83.1919 46.32 80.3973 46.32C76.7706 46.32 74.0826 45.488 72.3333 43.824C70.6053 42.1387 69.7413 39.9307 69.7413 37.2C69.7413 34.5333 70.6053 32.368 72.3333 30.704C74.0613 29.04 76.7493 28.208 80.3973 28.208C82.5733 28.208 84.4613 28.5707 86.0613 29.296C87.6613 30.0213 88.8879 31.0347 89.7413 32.336C90.5946 33.616 91.0213 35.088 91.0213 36.752C91.0213 37.3067 90.9999 37.7227 90.9573 38H86.9893ZM80.8453 33.04C79.7786 33.04 78.9039 33.2427 78.2213 33.648C77.5386 34.0533 77.0586 34.608 76.7812 35.312H84.3333C84.0773 34.6293 83.6613 34.0853 83.0853 33.68C82.5093 33.2533 81.7626 33.04 80.8453 33.04ZM107.137 28.208C108.566 28.208 109.835 28.6453 110.945 29.52C112.075 30.3733 112.95 31.5147 113.569 32.944C114.187 34.352 114.497 35.856 114.497 37.456C114.497 39.0773 114.187 40.5707 113.569 41.936C112.95 43.28 112.086 44.3467 110.977 45.136C109.867 45.9253 108.619 46.32 107.233 46.32C105.611 46.32 104.203 45.9787 103.009 45.296C101.814 44.592 100.918 43.4933 100.321 42L99.3928 46H93.2488C93.3768 41.9893 93.4408 37.84 93.4408 33.552C93.4408 29.2213 93.3768 25.072 93.2488 21.104H100.481L100.385 25.04C100.278 27.8133 100.225 30.288 100.225 32.464C100.801 31.0133 101.675 29.9467 102.849 29.264C104.043 28.56 105.473 28.208 107.137 28.208ZM103.873 40.944C104.897 40.944 105.707 40.6027 106.305 39.92C106.902 39.2373 107.201 38.352 107.201 37.264C107.201 36.2827 106.87 35.4933 106.209 34.896C105.569 34.2773 104.769 33.968 103.809 33.968C103.318 33.968 102.806 34.0853 102.273 34.32C101.739 34.5333 101.281 34.896 100.897 35.408C100.513 35.8987 100.321 36.5173 100.321 37.264C100.321 38.5867 100.619 39.536 101.217 40.112C101.814 40.6667 102.699 40.944 103.873 40.944ZM117.125 21.936H146.469V27.952H117.125V21.936ZM146.597 40.176V45.744H116.997V40.176H122.053L121.765 38.224L129.221 37.712L129.541 40.176H134.245L134.597 37.328H118.789V28.688H144.805V37.328H141.765L141.573 38.864L141.413 40.176H146.597ZM137.509 32.432H126.085V33.264H137.509V32.432Z" fill="white"/>
</svg>
