<svg width="214" height="64" viewBox="0 0 214 64" fill="none" xmlns="http://www.w3.org/2000/svg">
<rect width="214" height="64" fill="white"/>
<path d="M55.16 24.848C54.8187 23.3547 54.2107 21.7013 53.336 19.888L55.896 19.088C56.6853 20.6667 57.304 22.3093 57.752 24.016L55.16 24.848ZM52.664 25.648C54.072 29.04 55.224 31.888 56.12 34.192C57.016 36.496 57.9867 39.216 59.032 42.352L50.616 45.872C50.1253 44.2293 49.848 43.312 49.784 43.12C48.5253 38.8747 47.4267 35.3653 46.488 32.592C45.5493 29.7973 44.3227 26.6187 42.808 23.056L50.776 22.736C50.6693 22.4373 50.4027 21.84 49.976 20.944L52.536 20.144C53.3893 21.8293 54.008 23.472 54.392 25.072L52.664 25.648ZM25.688 41.168C28.2053 38.9067 30.04 36.3573 31.192 33.52C32.344 30.6827 32.9413 27.3333 32.984 23.472L41.592 23.12C41.3787 27.8347 40.6533 31.9733 39.416 35.536C38.2 39.0987 36.3333 42.5867 33.816 46C32.3867 44.8907 31.0853 43.9733 29.912 43.248C28.7387 42.5227 27.3307 41.8293 25.688 41.168ZM90.008 38.704C88.3013 41.6267 87.032 44.1653 86.2 46.32C83.4267 45.04 80.2267 43.408 76.6 41.424C73.208 43.4933 69.4747 45.0933 65.4 46.224C64.5893 44.9227 63.768 43.7067 62.936 42.576C62.104 41.4453 61.048 40.1653 59.768 38.736C64.2693 38.2027 68.0987 37.2213 71.256 35.792C74.4347 34.3413 77.08 32.4107 79.192 30H61.688V23.088L86.008 22.96L89.048 29.68C87.192 32.3467 85.08 34.7467 82.712 36.88C85.1867 37.8187 87.6187 38.4267 90.008 38.704ZM122.84 23.984C122.413 26.6933 122.2 29.0933 122.2 31.184H120.376C119.885 33.36 119.117 35.3547 118.072 37.168C117.027 38.9813 115.736 40.5067 114.2 41.744C112.984 42.7467 111.608 43.5573 110.072 44.176C108.536 44.7947 106.616 45.296 104.312 45.68C102.029 46.0427 99.1173 46.32 95.576 46.512C94.8933 44.592 94.264 43.0347 93.688 41.84C93.112 40.6453 92.4613 39.568 91.736 38.608C92.6533 38.6507 93.9013 38.672 95.48 38.672C94.328 36.8587 92.7387 35.0773 90.712 33.328C92.9093 32.0693 94.584 30.4693 95.736 28.528C96.888 26.5867 97.5813 24.2187 97.816 21.424H106.808C106.659 22.2773 106.499 23.1307 106.328 23.984H122.84ZM107.608 36.336C108.504 35.7173 109.315 34.9707 110.04 34.096C110.787 33.2 111.341 32.2293 111.704 31.184H103.704L103.224 32.016C101.88 34.3627 100.099 36.5707 97.88 38.64C100.312 38.5547 102.275 38.3307 103.768 37.968C105.283 37.584 106.563 37.04 107.608 36.336ZM153.24 28.176C152.771 30.9707 151.939 33.392 150.744 35.44C149.549 37.4667 148.024 39.216 146.168 40.688C144.44 42.0533 142.435 43.1947 140.152 44.112C137.891 45.008 135.32 45.7653 132.44 46.384C131.629 44.848 130.872 43.5253 130.168 42.416C129.464 41.3067 128.579 40.24 127.512 39.216C130.605 38.8107 133.091 38.3733 134.968 37.904C136.845 37.4347 138.435 36.8267 139.736 36.08C140.696 35.5253 141.549 34.8427 142.296 34.032L137.4 34.896C137.037 34.064 136.589 32.9867 136.056 31.664C135.16 29.4027 134.467 27.7387 133.976 26.672L140.952 25.968C141.059 26.224 141.432 27.1307 142.072 28.688C142.712 30.224 143.181 31.4613 143.48 32.4C144.376 30.8853 145.048 28.8907 145.496 26.416L153.24 28.176ZM129.752 36.624L128.504 33.808C128.248 33.1893 127.907 32.4107 127.48 31.472C127.053 30.5333 126.52 29.3067 125.88 27.792L132.792 26.736C133.944 29.8507 135.043 32.7093 136.088 35.312L129.752 36.624ZM186.072 32.336C185.347 33.488 184.792 34.6293 184.408 35.76C184.024 36.8693 183.597 38.3307 183.128 40.144C178.733 38.5653 173.571 37.1787 167.64 35.984V46.16H158.616C158.765 42.576 158.851 38.992 158.872 35.408C158.915 31.824 158.936 27.344 158.936 21.968H167.64V28.592C170.456 28.9333 173.528 29.4453 176.856 30.128C180.205 30.8107 183.277 31.5467 186.072 32.336Z" fill="black"/>
</svg>
