<svg width="124" height="128" viewBox="0 0 124 128" fill="none" xmlns="http://www.w3.org/2000/svg">
<path d="M88.6675 21.2161C89.4586 20.279 90.1078 19.4145 90.5931 18.6762C92.5 20.0828 92.6909 20.1596 93.8344 20.8153C95.8967 30.611 93.7223 42.8676 90.5 52.606C87.7644 52.2719 88.2336 52.317 86 52.146C93.8344 30.0828 88.5 21.5828 88.6675 21.2161Z" fill="#F69D4C"/>
<path d="M90.5931 18.6762C82.0004 7.7205 63.0964 4.28332 53 15.8835C55.7926 27.054 80.9263 33.9283 90.5931 18.6762Z" fill="#F69D4C"/>
<path d="M90.5931 18.6762C93.3857 10.7279 109.454 -2.28996 123.89 7.50573C118.305 22.9726 101.549 27.4837 90.5931 18.6762Z" fill="#F69D4C"/>
<path d="M34.7885 118.788C3.09664 114.71 2.8804 91.4093 6.65135 80.8453C14.3955 59.151 30.5824 50.7525 43.7808 53.9508C52.7731 56.1298 62.107 57.2826 71.1927 53.9508C83.0857 49.5895 120.505 49.7349 116.734 90.1494C112.963 130.564 81.2003 127.947 69.0172 126.348C55.8188 124.616 56.2539 121.551 34.7885 118.788Z" fill="#F69D4C"/>
<path d="M83.6675 17.2161C84.4586 16.279 85.1078 15.4145 85.5931 14.6762C87.5 16.0828 87.6909 16.1596 88.8344 16.8153C90.8967 26.611 88.7223 38.8676 85.5 48.606C82.7644 48.2719 83.2336 48.317 81 48.146C88.8344 26.0828 83.5 17.5828 83.6675 17.2161Z" fill="#FFF4CC"/>
<path d="M85.5931 14.6762C77.0004 3.7205 58.0964 0.283316 48 11.8835C50.7926 23.054 75.9263 29.9283 85.5931 14.6762Z" fill="#FFF4CC"/>
<path d="M85.5931 14.6762C88.3857 6.72791 104.454 -6.28996 118.89 3.50573C113.305 18.9726 96.5488 23.4837 85.5931 14.6762Z" fill="#FFF4CC"/>
<path d="M29.7885 114.788C-1.90336 110.71 -2.1196 87.4093 1.65135 76.8453C9.39545 55.151 25.5824 46.7525 38.7808 49.9508C47.7731 52.1298 57.107 53.2826 66.1927 49.9508C78.0857 45.5895 115.505 45.7349 111.734 86.1494C107.963 126.564 76.2003 123.947 64.0172 122.348C50.8188 120.616 51.2539 117.551 29.7885 114.788Z" fill="#FFF4CC"/>
</svg>
