<svg width="79" height="73" viewBox="0 0 79 73" fill="none" xmlns="http://www.w3.org/2000/svg">
<path d="M56.4571 10.1696C57.0132 9.68861 57.4787 9.23714 57.8354 8.84503C58.8251 9.86113 58.9303 9.9249 59.5418 10.4227C59.8205 16.433 57.3659 23.5015 54.5345 28.9756C52.9536 28.5173 53.2259 28.5887 51.9253 28.2749C58.6552 15.9235 56.3233 10.3714 56.4571 10.1696Z" fill="#F69D4C" fill-opacity="0.8"/>
<path d="M57.8354 8.84503C53.8174 1.5256 43.0008 -2.31101 35.9384 3.61499C36.5161 10.5107 50.6769 16.9794 57.8354 8.84503Z" fill="#F69D4C" fill-opacity="0.8"/>
<path d="M57.8354 8.84503C60.2423 4.39262 70.9614 -1.80732 78.5353 5.37883C73.7626 14.0286 63.4521 15.114 57.8354 8.84503Z" fill="#F69D4C" fill-opacity="0.8"/>
<path d="M15.3563 62.9647C-2.93853 57.5325 -0.836811 43.6813 2.39714 37.7693C9.03842 25.6283 19.3854 22.1815 26.861 25.3341C31.9542 27.482 37.347 29.0533 43.0226 27.9391C50.4517 26.4806 72.4997 30.1228 66.41 53.7529C60.3202 77.383 41.8436 72.8114 34.8137 70.7044C27.1979 68.4219 27.7477 66.644 15.3563 62.9647Z" fill="#F69D4C" fill-opacity="0.8"/>
</svg>
