<svg width="66" height="19" viewBox="0 0 66 19" fill="none" xmlns="http://www.w3.org/2000/svg">
<path d="M8.18359 14.2988C8.84115 14.2988 9.79167 13.8333 11.0352 12.9023V17.6777C8.89974 18.485 6.93034 18.599 5.12695 18.0195C3.32357 17.4401 2.04427 16.4049 1.28906 14.9141C0.911458 14.1589 0.722656 13.2734 0.722656 12.2578C0.722656 10.2135 1.42578 8.55664 2.83203 7.28711C4.23828 6.01758 6.06771 5.38281 8.32031 5.38281C9.2513 5.38281 10.0911 5.52279 10.8398 5.80273V9.5625C10.6641 9.41276 10.4167 9.33789 10.0977 9.33789C9.77865 9.33789 9.43685 9.4388 9.07227 9.64062C8.70768 9.84245 8.37565 10.1126 8.07617 10.4512C7.38607 11.2324 7.04102 12.0365 7.04102 12.8633C7.04753 13.6836 7.29818 14.1458 7.79297 14.25C7.92318 14.276 8.05339 14.2923 8.18359 14.2988ZM19.6867 18H14.1496V1.56445H19.6867V18ZM25.8676 0.236328C26.8246 0.236328 27.5342 0.438151 27.9965 0.841797C28.4587 1.23893 28.6866 1.74674 28.6801 2.36523C28.6801 2.98372 28.3839 3.55339 27.7914 4.07422C27.2055 4.59505 26.421 4.85547 25.4379 4.85547C24.0577 4.85547 23.1983 4.4388 22.8598 3.60547C22.7621 3.37109 22.7133 3.11068 22.7133 2.82422C22.7133 2.53776 22.7816 2.23828 22.9184 1.92578C23.0551 1.61328 23.2602 1.33333 23.5336 1.08594C24.1391 0.519531 24.9171 0.236328 25.8676 0.236328ZM28.5141 18H22.8598V5.86133H28.5141V18ZM38.6891 14.2988C39.3466 14.2988 40.2971 13.8333 41.5406 12.9023V17.6777C39.4052 18.485 37.4358 18.599 35.6324 18.0195C33.829 17.4401 32.5497 16.4049 31.7945 14.9141C31.4169 14.1589 31.2281 13.2734 31.2281 12.2578C31.2281 10.2135 31.9312 8.55664 33.3375 7.28711C34.7437 6.01758 36.5732 5.38281 38.8258 5.38281C39.7568 5.38281 40.5966 5.52279 41.3453 5.80273V9.5625C41.1695 9.41276 40.9221 9.33789 40.6031 9.33789C40.2841 9.33789 39.9423 9.4388 39.5777 9.64062C39.2132 9.84245 38.8811 10.1126 38.5816 10.4512C37.8915 11.2324 37.5465 12.0365 37.5465 12.8633C37.553 13.6836 37.8036 14.1458 38.2984 14.25C38.4286 14.276 38.5589 14.2923 38.6891 14.2988ZM49.9773 14.0645C49.8862 14.2142 49.8309 14.3249 49.8113 14.3965V18H44.6551V1.56445H49.7137V9.48438L52.0184 5.86133H57.7703L54.0301 11.1641L58.3758 18H52.4188L49.9773 14.0645ZM64.9473 11.7598H61.3145L60.3086 2.38477H65.9531L64.9473 11.7598ZM63.375 13.3223C63.8307 13.3223 64.2181 13.3874 64.5371 13.5176C64.8561 13.6413 65.1198 13.8138 65.3281 14.0352C65.7448 14.4648 65.9531 15.0215 65.9531 15.7051C65.9531 16.3887 65.6829 17.0007 65.1426 17.541C64.6022 18.0814 63.8763 18.3516 62.9648 18.3516C62.0534 18.3581 61.3861 18.14 60.9629 17.6973C60.5397 17.248 60.3281 16.6882 60.3281 16.0176C60.3281 15.347 60.6178 14.7318 61.1973 14.1719C61.7767 13.6055 62.5026 13.3223 63.375 13.3223Z" fill="#606C38"/>
</svg>
