<svg width="256" height="35" viewBox="0 0 256 35" fill="none" xmlns="http://www.w3.org/2000/svg">
<path d="M16.2557 25.2647L15.2596 17.5633L19.2931 16.5637L20.052 29.114L14.977 30.3716L12.1939 23.9552L12.547 30.9738L7.68693 32.1781L2.49783 20.7257L6.53134 19.7261L9.20549 26.9065L8.69687 19.1895L13.1106 18.0958L16.2557 25.2647Z" fill="#606C38"/>
<path d="M31.059 22.8986L25.588 23.8436C25.7626 24.3204 26.0503 24.6855 26.4512 24.9389C26.8614 25.1791 27.391 25.2432 28.0399 25.1311C28.5098 25.05 28.9363 24.8841 29.3193 24.6336C29.7004 24.3719 29.9851 24.052 30.1732 23.6738C30.9866 23.9136 32.051 24.1387 33.3663 24.3494C33.1547 25.1925 32.6308 25.9282 31.7946 26.5566C30.9675 27.1718 29.8212 27.606 28.3556 27.8592C26.4536 28.1877 24.9685 27.9948 23.9003 27.2806C22.8414 26.5533 22.1883 25.4736 21.9409 24.0415C21.6994 22.643 21.9563 21.4291 22.7118 20.3999C23.4674 19.3707 24.8017 18.6908 26.7149 18.3604C27.8561 18.1633 28.8791 18.1825 29.7839 18.4179C30.6887 18.6534 31.4238 19.0737 31.9892 19.6789C32.5527 20.2729 32.9098 21.0062 33.0606 21.8789C33.1108 22.1698 33.1373 22.3899 33.14 22.5392L31.059 22.8986ZM27.3875 20.8539C26.8281 20.9506 26.3878 21.1361 26.0665 21.4105C25.7452 21.6849 25.5437 22.0193 25.462 22.4136L29.4226 21.7295C29.2265 21.3947 28.9591 21.1471 28.6203 20.9867C28.2795 20.8151 27.8686 20.7708 27.3875 20.8539Z" fill="#606C38"/>
<path d="M40.987 16.19C41.7406 16.0864 42.4416 16.2249 43.0899 16.6056C43.7479 16.9735 44.2919 17.5119 44.7217 18.2206C45.15 18.9181 45.4222 19.6886 45.5382 20.5322C45.6558 21.3871 45.601 22.1969 45.3739 22.9616C45.1452 23.7151 44.767 24.3402 44.2393 24.8368C43.7117 25.3334 43.0823 25.632 42.3512 25.7326C41.4963 25.8502 40.7292 25.7723 40.0498 25.499C39.3689 25.2145 38.8168 24.7002 38.3935 23.9562L38.1944 26.1324L34.9549 26.578C34.7316 24.4541 34.4644 22.2618 34.1534 20.0009C33.8393 17.7176 33.5047 15.5345 33.1494 13.4517L36.9624 12.9272L37.1973 15.0094C37.3422 16.4794 37.4935 17.788 37.6513 18.9353C37.8498 18.1287 38.2336 17.5028 38.8028 17.0578C39.3816 16.6 40.1097 16.3107 40.987 16.19ZM40.1897 23.1418C40.7296 23.0675 41.1323 22.8287 41.3977 22.4255C41.6632 22.0222 41.7564 21.5338 41.6775 20.9601C41.6064 20.4427 41.3748 20.0505 40.9828 19.7836C40.6005 19.5038 40.1562 19.3987 39.6501 19.4683C39.3914 19.5039 39.1299 19.6029 38.8657 19.7653C38.6 19.9165 38.3845 20.141 38.2192 20.4388C38.0523 20.7253 37.9959 21.0654 38.0501 21.4591C38.146 22.1565 38.3723 22.6354 38.729 22.8957C39.0842 23.1449 39.5711 23.2269 40.1897 23.1418Z" fill="#606C38"/>
<path d="M59.4574 7.92951C59.5547 8.72982 59.5429 9.5247 59.422 10.3142L57.9609 10.2654C58.0841 9.49852 58.1016 8.70303 58.0131 7.87893L59.4574 7.92951ZM61.3642 7.98183C61.4615 8.78214 61.4498 9.57702 61.3289 10.3665L59.8678 10.3177C59.9797 9.55205 59.9972 8.75656 59.92 7.93125L61.3642 7.98183ZM47.077 12.2725L60.6916 10.8117L61.0113 13.792L47.3968 15.2528L47.077 12.2725ZM62.0776 14.3113L62.4192 17.4949L59.6252 17.7947C59.0001 19.6317 57.9188 21.1009 56.3812 22.2022C54.8437 23.3035 52.7272 24.1187 50.032 24.6477C49.7086 23.9744 49.3674 23.3487 49.0084 22.7706C48.6495 22.1925 48.1922 21.6021 47.6365 20.9994C49.4992 20.7996 51.0244 20.4875 52.2122 20.0631C53.3987 19.6275 54.2949 19.0403 54.9007 18.3016L46.8404 19.1665L46.4988 15.983L62.0776 14.3113Z" fill="#606C38"/>
<path d="M76.9507 9.74162C76.9656 9.78599 77.0431 10.0418 77.183 10.509L79.1183 10.3541L79.4104 14.004L77.8655 14.1276C77.9548 15.9543 77.5911 17.4585 76.7745 18.6401C75.9691 19.8207 74.8695 20.7402 73.4757 21.3985C72.0809 22.0455 70.4032 22.5727 68.4425 22.9802C67.9699 22.198 67.487 21.502 66.994 20.8922C66.5114 20.2702 65.9358 19.6955 65.2671 19.1681C67.2223 18.9774 68.7833 18.6987 69.9499 18.332C71.1278 17.9644 71.9941 17.4736 72.5486 16.8597C73.1136 16.2336 73.4089 15.4411 73.4347 14.4823L69.8187 14.7717L70.0442 17.5898L65.6304 17.9431L65.4048 15.125L63.6562 15.2649L63.3641 11.615L65.1127 11.475L64.9945 9.99807L69.4084 9.6448L69.5266 11.1218L72.82 10.8582C72.7399 10.5684 72.5873 10.0852 72.3623 9.40837L76.0971 9.10945C76.1659 8.54583 76.1745 7.94146 76.1228 7.29636L77.5652 7.38594C77.6408 8.18859 77.6075 8.98286 77.4654 9.76877L76.9507 9.74162ZM79.4699 7.48977C79.5456 8.29241 79.5123 9.08669 79.3702 9.87259L77.9109 9.78437C78.0435 9.02201 78.0824 8.22728 78.0276 7.40018L79.4699 7.48977Z" fill="#606C38"/>
<path d="M96.7673 9.64712C96.0544 10.7111 95.3372 11.599 94.6156 12.311C93.9048 13.0109 93.0431 13.6569 92.0305 14.2488L92.4157 21.0332L87.7057 21.3006L87.4045 15.9955C85.845 16.3684 83.8458 16.7093 81.4069 17.0184C81.2661 16.1394 81.1149 15.3803 80.9535 14.7413C80.8035 14.1016 80.5612 13.4387 80.2265 12.7526C82.0182 12.6623 83.5963 12.5158 84.9608 12.3132C86.3254 12.1107 87.4404 11.8199 88.3059 11.441C90.0917 10.6459 91.4494 9.52259 92.3791 8.07103L96.7673 9.64712Z" fill="#606C38"/>
<path d="M99.6714 20.8583C99.3897 19.9479 99.1132 19.185 98.8418 18.5696C98.5814 17.9425 98.2015 17.3082 97.702 16.6666C99.8238 16.5927 101.572 16.3955 102.947 16.0749C104.333 15.7427 105.514 15.2414 106.49 14.5712C107.378 13.9609 108.052 13.1024 108.514 11.9957C108.975 10.889 109.273 9.49825 109.408 7.82353C110.097 8.0381 110.774 8.2247 111.438 8.38332C112.114 8.53021 112.938 8.70032 113.91 8.89366C113.711 11.0137 113.255 12.7451 112.54 14.0878C111.837 15.4301 110.844 16.5894 109.56 17.5657C108.409 18.4465 107.053 19.1413 105.491 19.6502C103.93 20.159 101.99 20.5617 99.6714 20.8583ZM104.399 13.7408C102.974 13.2679 101.826 12.9216 100.955 12.702C100.084 12.4824 98.8715 12.2463 97.3177 11.9937C97.8332 11.4645 98.3571 10.8498 98.8894 10.1497C99.4212 9.43813 99.8098 8.85088 100.055 8.38791C101.499 8.73525 102.788 9.07658 103.925 9.4119C105.061 9.74721 106.211 10.1332 107.373 10.5698L104.399 13.7408Z" fill="#606C38"/>
<path d="M122.991 7.1847C124.49 7.16558 125.844 7.43217 127.055 7.98447C128.265 8.52541 129.218 9.28539 129.911 10.2644C130.616 11.2433 130.977 12.3458 130.992 13.5719C131.007 14.7072 130.759 15.7493 130.249 16.6983C129.738 17.6359 129.016 18.4172 128.082 19.0423C127.158 19.6672 126.091 20.0839 124.878 20.2924C124.345 19.3795 123.648 18.6276 122.789 18.0368C122.376 18.5871 121.893 18.9906 121.339 19.2475C120.786 19.5044 120.141 19.6375 119.403 19.6469C117.995 19.6649 116.883 19.2703 116.067 18.4632C115.261 17.6445 114.849 16.5143 114.831 15.0725C114.813 13.6307 115.159 12.3148 115.871 11.1248C116.582 9.92347 117.564 8.97418 118.815 8.27693C120.066 7.56832 121.458 7.20425 122.991 7.1847ZM123.405 16.9729C124.606 16.7191 125.452 16.3109 125.945 15.7483C126.437 15.1856 126.677 14.4274 126.665 13.4738C126.648 12.1341 126.012 11.2396 124.757 10.79C124.616 12.1998 124.433 13.4114 124.208 14.4249C123.993 15.4268 123.726 16.2762 123.405 16.9729ZM119.572 15.5741C119.811 15.571 119.997 15.4608 120.13 15.2433C120.275 15.0144 120.411 14.5812 120.539 13.9437C120.667 13.2948 120.813 12.2824 120.978 10.9064C120.277 11.2105 119.733 11.666 119.343 12.2728C118.953 12.8795 118.763 13.5803 118.774 14.375C118.784 15.181 119.05 15.5807 119.572 15.5741Z" fill="#606C38"/>
<path d="M132.494 7.19986L148.11 7.36116L148.077 10.5628L132.461 10.4015L132.494 7.19986ZM148.078 17.0689L148.047 20.0321L132.295 19.8694L132.325 16.9062L135.016 16.934L134.873 15.8936L138.844 15.6621L139.001 16.9751L141.504 17.001L141.707 15.4873L133.295 15.4004L133.342 10.8023L147.187 10.9453L147.14 15.5434L145.522 15.5267L145.411 16.343L145.319 17.0404L148.078 17.0689ZM143.284 12.8977L137.204 12.8349L137.2 13.2777L143.279 13.3405L143.284 12.8977Z" fill="#606C38"/>
<path d="M165.322 11.566C165.244 12.4721 165.198 13.1067 165.185 13.4698C165.171 13.8556 165.173 14.4351 165.191 15.2083C163.748 15.202 162.445 15.2631 161.282 15.3918C161.267 15.8116 161.213 16.213 161.119 16.596L157.443 16.9413C157.553 16.718 157.642 16.4655 157.709 16.1839C157.292 16.3962 157.018 16.5852 156.887 16.7509C156.816 16.8506 156.779 16.9288 156.777 16.9855C156.768 17.2238 157.161 17.3572 157.955 17.3857C158.273 17.3971 158.642 17.3933 159.063 17.3743L160.616 17.3277C160.866 17.3253 161.343 17.3197 162.048 17.3109C162.765 17.2912 163.589 17.264 164.522 17.2293C164.216 17.8318 163.992 18.3805 163.849 18.8752C163.707 19.3587 163.566 19.9558 163.427 20.6665C160.973 20.6807 159.28 20.6711 158.35 20.6378C156.977 20.5885 155.863 20.452 155.007 20.2281C154.164 19.9934 153.54 19.6415 153.137 19.1726C152.733 18.6923 152.546 18.0551 152.575 17.2608C152.599 16.5687 152.947 15.9108 153.617 15.2873C154.299 14.6528 155.24 14.073 156.44 13.5481C156.193 13.4597 155.894 13.4092 155.542 13.3966C155.281 13.3872 154.837 13.5814 154.209 13.9793C153.593 14.3775 152.914 14.9326 152.173 15.6445C151.443 16.3568 150.772 17.1564 150.161 18.0434C149.793 16.5646 149.245 15.2327 148.515 14.0477C149.948 13.0425 151.193 12.059 152.25 11.0971C151.207 11.037 150.431 10.9864 149.921 10.9454C149.973 9.5044 149.949 8.42424 149.85 7.70493C152.003 7.85034 153.772 7.94788 155.156 7.99753L155.513 7.56723L155.744 7.28583L160.217 7.54851L159.702 8.1265C161.372 8.1296 162.782 8.10632 163.931 8.05666C163.807 8.66571 163.723 9.57727 163.679 10.7914L163.661 11.3019C161.784 11.3709 159.438 11.3663 156.623 11.2881L156.043 11.7785C156.522 11.7275 156.972 11.7096 157.392 11.7246C158.413 11.7613 159.245 11.9956 159.889 12.4277C161.665 12.0029 163.476 11.7157 165.322 11.566Z" fill="#606C38"/>
<path d="M182.861 9.28041L182.712 11.5406L179.721 11.3433C180.436 11.7204 181.413 12.0751 182.655 12.4073C182.592 12.4942 182.409 12.7609 182.107 13.2075C181.816 13.6548 181.564 14.099 181.353 14.5403L181.676 14.5616L181.295 20.3395C181.268 20.7473 181.111 21.0556 180.824 21.2642C180.538 21.4615 180.024 21.5869 179.281 21.6403C178.538 21.6823 177.453 21.6563 176.026 21.5621C175.942 21.1128 175.836 20.736 175.708 20.4318C175.592 20.1169 175.375 19.784 175.057 19.433C175.441 19.4698 175.9 19.5057 176.432 19.5408C177.021 19.5797 177.396 19.593 177.556 19.5808C177.728 19.558 177.817 19.5127 177.821 19.4447L177.83 19.3087L170.472 18.8234L170.321 21.1006L166.787 20.8674L167.265 13.611L179.62 14.4259C179.235 14.2185 178.836 13.976 178.422 13.6983L167.379 13.4478C167.372 13.3678 167.346 13.1612 167.3 12.8282C167.254 12.4952 167.189 12.1837 167.106 11.8937C167.022 11.6038 166.915 11.335 166.783 11.0873L169.401 11.243L169.677 10.6809L166.636 10.4802L166.785 8.22005L172.834 8.61909L172.866 8.14326L176.842 8.40555L176.811 8.88137L182.861 9.28041ZM176.032 11.6291L175.744 11.3371L176.662 11.1416L173.348 10.923L173.09 11.4692L176.032 11.6291ZM178.028 16.3008L178.047 16.0119L170.689 15.5266L170.67 15.8155L178.028 16.3008ZM170.581 17.158L170.561 17.4639L177.92 17.9492L177.94 17.6433L170.581 17.158Z" fill="#606C38"/>
<path d="M196.298 13.9236C195.276 13.8634 194.39 13.9941 193.637 14.3156C192.885 14.6371 192.297 15.0783 191.873 15.6394C191.462 16.1904 191.224 16.7821 191.159 17.4145C191.123 17.7533 191.169 18.0263 191.296 18.2335C191.434 18.4419 191.735 18.6215 192.199 18.7723C192.663 18.9231 193.369 19.0477 194.318 19.1461C195.368 19.255 196.553 19.3322 197.872 19.3776C197.51 20.0135 197.259 20.6153 197.12 21.1831C196.994 21.7407 196.883 22.4199 196.789 23.2205C196.472 23.199 196.014 23.1572 195.415 23.0952C192.863 22.8305 190.921 22.458 189.59 21.9775C188.271 21.4869 187.405 20.9234 186.991 20.287C186.59 19.6404 186.437 18.8597 186.532 17.945C186.634 16.9625 186.93 16.0914 187.419 15.3317C187.91 14.5607 188.555 13.9027 189.353 13.3577L184.174 13.6083L184.581 9.67822C185.451 9.76838 186.933 9.89354 189.028 10.0537L192.306 10.308C193.472 10.406 194.548 10.489 195.534 10.557C196.521 10.6137 197.877 10.6859 199.603 10.7735L199.296 14.2345L196.298 13.9236Z" fill="#606C38"/>
<path d="M216.127 21.9153C215.923 22.2629 215.499 23.0759 214.852 24.3543L214.203 25.6496C212.772 24.4279 211.498 23.4201 210.381 22.6261C209.525 24.3661 207.907 25.0514 205.529 24.6822C204.34 24.4976 203.348 24.1885 202.553 23.7549C201.77 23.3231 201.201 22.804 200.847 22.1975C200.495 21.5798 200.375 20.912 200.486 20.1939C200.845 17.8827 202.59 16.9701 205.72 17.456C206.191 17.5292 206.714 17.6391 207.289 17.7857L208.227 11.7441L212.266 12.3711L211.984 14.1886L216.914 14.9541L216.389 18.3368L211.458 17.5713L211.205 19.2037C212.492 19.7942 214.133 20.6981 216.127 21.9153ZM206.852 20.5962C206.418 20.4368 206.038 20.3318 205.712 20.2813C205.398 20.2325 205.155 20.2408 204.984 20.3062C204.815 20.3604 204.72 20.4548 204.699 20.5894C204.678 20.724 204.755 20.8566 204.93 20.9872C205.105 21.1178 205.378 21.2118 205.748 21.2693C206.096 21.3233 206.35 21.3167 206.51 21.2496C206.682 21.173 206.791 20.9945 206.834 20.714L206.852 20.5962Z" fill="#606C38"/>
<path d="M231.947 20.3523C230.57 19.7599 229.194 19.2378 227.819 18.7859C226.455 18.3366 224.989 17.9272 223.419 17.5578C222.413 17.3211 221.637 17.1501 221.091 17.0447L221.987 14.0539L223.015 14.2958C224.894 14.738 226.644 15.2316 228.265 15.7765C229.889 16.3104 231.571 16.9687 233.311 17.7516L231.947 20.3523ZM220.047 27.3494C219.933 26.4477 219.787 25.6552 219.61 24.9719C219.443 24.2912 219.141 23.6193 218.702 22.9561C221.265 23.5128 223.209 23.9004 224.534 24.1189C225.859 24.3374 226.802 24.4194 227.363 24.3648C227.938 24.3018 228.266 24.099 228.346 23.7564C228.458 23.2812 228.318 22.9333 227.927 22.7129C227.549 22.4841 226.979 22.2799 226.217 22.1004C223.785 21.5281 221.165 21.5354 218.356 22.1223L218.54 18.1416C220.578 18.1548 222.135 18.2062 223.21 18.296C224.286 18.3858 225.464 18.5816 226.746 18.8833C229.034 19.4218 230.697 20.163 231.734 21.1071C232.774 22.0401 233.119 23.2526 232.768 24.7446C232.378 26.4023 231.168 27.4532 229.139 27.8971C227.11 28.341 224.079 28.1584 220.047 27.3494Z" fill="#606C38"/>
<path d="M247.089 21.3229C246.812 22.0313 246.254 23.3797 245.415 25.3681C245.27 25.677 245.168 25.9055 245.11 26.0535C244.316 27.4617 243.675 28.7106 243.188 29.8002L240.254 28.6526C240.635 27.5216 241.011 26.1693 241.383 24.5957L241.64 23.8916C242.214 22.2385 242.713 20.8673 243.139 19.7782L247.089 21.3229ZM241.983 33.9557L238.303 32.5164L239.408 29.6932L243.087 31.1324L241.983 33.9557Z" fill="#606C38"/>
</svg>
