<svg width="119" height="254" viewBox="0 0 119 254" fill="none" xmlns="http://www.w3.org/2000/svg">
<path d="M83.6675 147.216C84.4586 146.279 85.1078 145.414 85.5931 144.676C87.5 146.083 87.6909 146.16 88.8344 146.815C90.8967 156.611 88.7223 168.868 85.5 178.606C82.7644 178.272 83.2336 178.317 81 178.146C88.8344 156.083 83.5 147.583 83.6675 147.216Z" fill="#F69D4C" fill-opacity="0.8"/>
<path d="M85.5931 144.676C77.0004 133.72 58.0964 130.283 48 141.884C50.7926 153.054 75.9263 159.928 85.5931 144.676Z" fill="#F69D4C" fill-opacity="0.8"/>
<path d="M85.5931 144.676C88.3857 136.728 104.454 123.71 118.89 133.506C113.305 148.973 96.5488 153.484 85.5931 144.676Z" fill="#F69D4C" fill-opacity="0.8"/>
<path d="M29.7885 244.788C-1.90336 240.71 -2.1196 217.409 1.65135 206.845C9.39545 185.151 25.5824 176.753 38.7808 179.951C47.7731 182.13 57.107 183.283 66.1927 179.951C78.0857 175.59 115.505 175.735 111.734 216.149C107.963 256.564 76.2003 253.947 64.0172 252.348C50.8188 250.616 51.2539 247.551 29.7885 244.788Z" fill="#F69D4C" fill-opacity="0.8"/>
<path d="M27.7056 100.829C15.6019 95.7527 18.0694 86.4426 20.7204 82.643C26.1643 74.84 33.4949 73.2553 38.3713 75.967C41.6936 77.8145 45.2637 79.2902 49.2269 78.9516C54.4147 78.5083 69.2176 82.6405 63.2959 98.3369C57.3741 114.033 45.082 109.532 40.4325 107.568C35.3955 105.441 35.9037 104.267 27.7056 100.829Z" fill="#A4BE4D" fill-opacity="0.7"/>
<path d="M83.3194 55.7494C73.6229 57.6539 71.2598 50.7982 71.323 47.3107C71.4529 40.1485 75.371 36.0824 79.5573 35.732C82.4094 35.4932 85.2605 34.918 87.5961 33.0437C90.6534 30.5902 101.641 26.9633 104.524 39.2607C107.407 51.5581 97.834 53.9008 94.1034 54.6237C90.0619 55.4067 89.887 54.4595 83.3194 55.7494Z" fill="#FFF4CC"/>
<path d="M47.5288 19.1119C39.6932 19.1991 38.8388 13.5126 39.3909 10.8022C40.5246 5.23601 44.166 2.63018 47.4809 2.96036C49.7393 3.18533 52.0454 3.14783 54.1369 2.02294C56.8747 0.550492 65.9657 -0.693637 66.441 9.31118C66.9162 19.316 59.1136 19.7628 56.1003 19.7886C52.8359 19.8166 52.836 19.0528 47.5288 19.1119Z" fill="#E7E7E7"/>
</svg>
