<svg width="383" height="64" viewBox="0 0 383 64" fill="none" xmlns="http://www.w3.org/2000/svg">
<rect width="383" height="64" fill="white"/>
<path d="M9.728 45.712V22.512H38.272V45.712H30.528V45.36H17.472V45.712H9.728ZM30.528 30.64V28.56H17.472V30.64H30.528ZM17.472 36.368V38.576H30.528V36.368H17.472ZM72.48 36.144C71.84 37.2107 71.3067 38.32 70.88 39.472C70.4533 40.624 69.952 42.16 69.376 44.08C67.5413 42.8427 65.888 41.6053 64.416 40.368V43.6H59.68V46.224H52.32V43.6H47.584V40.368C46.112 41.6053 44.4587 42.8427 42.624 44.08C42.048 42.16 41.5467 40.624 41.12 39.472C40.6933 38.32 40.16 37.2107 39.52 36.144C41.6747 35.3973 43.6053 34.5013 45.312 33.456C47.04 32.4107 48.8427 31.0347 50.72 29.328H41.568V23.024H52.32V21.424H59.68V23.024H70.432V29.328H61.28C63.1573 31.0347 64.9493 32.4107 66.656 33.456C68.384 34.5013 70.3253 35.3973 72.48 36.144ZM52.32 37.904V35.76L50.304 37.904H52.32ZM59.68 37.904H61.696L59.68 35.76V37.904ZM91.424 25.808V26.352H102.944V31.632H99.52V32.784H91.968V31.088H96.096V30.544H91.968V28.848H96.096V28.304H91.424V32.912H84.576V28.304H79.904V28.848H84.032V30.544H79.904V31.088H84.032V32.784H76.512V31.632H73.056V26.352H84.576V25.808H74.016V21.936H101.984V25.808H91.424ZM98.624 41.744C99.712 42.192 101.077 42.512 102.72 42.704C102.485 43.3867 102.208 43.952 101.888 44.4C101.568 44.8267 101.077 45.1787 100.416 45.456C99.776 45.7333 98.912 45.8933 97.824 45.936C96.48 46 95.136 46.032 93.792 46.032C92.4267 46.032 91.072 46 89.728 45.936C88.32 45.872 87.2427 45.7653 86.496 45.616C85.7493 45.4667 85.216 45.2533 84.896 44.976C84.5973 44.6773 84.448 44.272 84.448 43.76V41.744H80.352V43.664H73.504V33.296H102.496V41.744H98.624ZM84.448 35.824H80.352V36.368H84.448V35.824ZM91.552 36.368H95.648V35.824H91.552V36.368ZM80.352 38.256V38.736H84.448V38.256H80.352ZM91.584 38.736H95.648V38.256H91.584V38.736ZM94.304 42.256C94.9867 42.256 95.4667 42.224 95.744 42.16C96.0213 42.0747 96.2133 41.936 96.32 41.744H91.584C91.6053 41.8933 91.68 42.0107 91.808 42.096C91.9573 42.16 92.2453 42.2027 92.672 42.224C93.0987 42.2453 93.6427 42.256 94.304 42.256ZM135.168 30.384V36.72H125.472C125.984 37.3387 126.336 37.968 126.528 38.608C126.72 39.248 126.816 39.9627 126.816 40.752C126.816 42.3093 126.165 43.5467 124.864 44.464C123.584 45.36 122.027 45.8507 120.192 45.936C119.787 45.9573 119.179 45.968 118.368 45.968C116.661 45.968 114.069 45.776 110.592 45.392C110.592 43.984 110.539 42.768 110.432 41.744C110.325 40.6987 110.059 39.4827 109.632 38.096C112.704 38.928 115.115 39.344 116.864 39.344C117.824 39.344 118.507 39.2267 118.912 38.992C119.317 38.736 119.52 38.4267 119.52 38.064C119.52 37.7227 119.499 37.2747 119.456 36.72H104.832V30.384H118.336L117.408 29.36C118.773 29.3173 120.011 28.9547 121.12 28.272H106.944V22.096H133.888V28.016C133.995 28.1227 133.771 28.24 133.216 28.368C132.683 28.496 132.384 28.5707 132.32 28.592C129.611 29.488 127.648 30.0853 126.432 30.384H135.168ZM160.32 37.264L161.984 22.768H169.792L165.504 46H155.68L153.504 33.04L150.976 46H141.568L137.28 22.768H145.088L146.72 37.072L149.28 22.768H157.824L160.32 37.264ZM187.989 38H177.557C177.728 38.9387 178.144 39.7067 178.805 40.304C179.488 40.88 180.448 41.168 181.685 41.168C182.581 41.168 183.424 40.9973 184.213 40.656C185.003 40.2933 185.632 39.792 186.101 39.152C187.531 39.856 189.429 40.6133 191.797 41.424C191.136 42.9173 189.931 44.112 188.181 45.008C186.453 45.8827 184.192 46.32 181.397 46.32C177.771 46.32 175.083 45.488 173.333 43.824C171.605 42.1387 170.741 39.9307 170.741 37.2C170.741 34.5333 171.605 32.368 173.333 30.704C175.061 29.04 177.749 28.208 181.397 28.208C183.573 28.208 185.461 28.5707 187.061 29.296C188.661 30.0213 189.888 31.0347 190.741 32.336C191.595 33.616 192.021 35.088 192.021 36.752C192.021 37.3067 192 37.7227 191.957 38H187.989ZM181.845 33.04C180.779 33.04 179.904 33.2427 179.221 33.648C178.539 34.0533 178.059 34.608 177.781 35.312H185.333C185.077 34.6293 184.661 34.0853 184.085 33.68C183.509 33.2533 182.763 33.04 181.845 33.04ZM208.137 28.208C209.566 28.208 210.835 28.6453 211.945 29.52C213.075 30.3733 213.95 31.5147 214.569 32.944C215.187 34.352 215.497 35.856 215.497 37.456C215.497 39.0773 215.187 40.5707 214.569 41.936C213.95 43.28 213.086 44.3467 211.977 45.136C210.867 45.9253 209.619 46.32 208.233 46.32C206.611 46.32 205.203 45.9787 204.009 45.296C202.814 44.592 201.918 43.4933 201.321 42L200.393 46H194.249C194.377 41.9893 194.441 37.84 194.441 33.552C194.441 29.2213 194.377 25.072 194.249 21.104H201.481L201.385 25.04C201.278 27.8133 201.225 30.288 201.225 32.464C201.801 31.0133 202.675 29.9467 203.849 29.264C205.043 28.56 206.473 28.208 208.137 28.208ZM204.873 40.944C205.897 40.944 206.707 40.6027 207.305 39.92C207.902 39.2373 208.201 38.352 208.201 37.264C208.201 36.2827 207.87 35.4933 207.209 34.896C206.569 34.2773 205.769 33.968 204.809 33.968C204.318 33.968 203.806 34.0853 203.273 34.32C202.739 34.5333 202.281 34.896 201.897 35.408C201.513 35.8987 201.321 36.5173 201.321 37.264C201.321 38.5867 201.619 39.536 202.217 40.112C202.814 40.6667 203.699 40.944 204.873 40.944ZM243.885 16.784C243.907 18.2987 243.725 19.7813 243.341 21.232L240.621 20.848C241.005 19.44 241.197 17.9573 241.197 16.4L243.885 16.784ZM247.437 17.264C247.459 18.7787 247.277 20.2613 246.893 21.712L244.173 21.328C244.536 19.92 244.728 18.4373 244.749 16.88L247.437 17.264ZM219.885 22.416H245.613V28.048H219.885V22.416ZM247.501 29.232V35.248H242.221C240.685 38.5547 238.371 41.0827 235.277 42.832C232.184 44.5813 228.067 45.68 222.925 46.128C222.456 44.8053 221.944 43.568 221.389 42.416C220.835 41.264 220.099 40.0693 219.181 38.832C222.701 38.832 225.613 38.5547 227.917 38C230.221 37.424 232.013 36.5067 233.293 35.248H218.061V29.232H247.501ZM275.661 22.928C275.683 23.0133 275.789 23.504 275.981 24.4H279.629V31.28H276.717C276.611 34.7147 275.704 37.4773 273.997 39.568C272.312 41.6587 270.115 43.216 267.405 44.24C264.696 45.2427 261.475 45.9787 257.741 46.448C256.973 44.912 256.173 43.536 255.341 42.32C254.531 41.0827 253.539 39.92 252.365 38.832C256.056 38.768 259.021 38.48 261.261 37.968C263.523 37.456 265.219 36.6667 266.349 35.6C267.501 34.512 268.173 33.072 268.365 31.28H261.549V36.592H253.229V31.28H249.933V24.4H253.229V21.616H261.549V24.4H267.757C267.651 23.8453 267.437 22.9173 267.117 21.616H274.157C274.371 20.5707 274.477 19.44 274.477 18.224L277.165 18.608C277.187 20.1227 277.005 21.6053 276.621 23.056L275.661 22.928ZM280.717 19.088C280.739 20.6027 280.557 22.0853 280.173 23.536L277.453 23.152C277.816 21.744 278.008 20.2613 278.029 18.704L280.717 19.088ZM312.653 24.976C311.203 26.896 309.763 28.4853 308.333 29.744C306.925 30.9813 305.24 32.1013 303.277 33.104V45.872H294.413V35.888C291.448 36.4213 287.661 36.848 283.053 37.168C282.883 35.504 282.68 34.064 282.445 32.848C282.232 31.632 281.848 30.3627 281.293 29.04C284.664 29.0613 287.64 28.9547 290.221 28.72C292.803 28.4853 294.925 28.0587 296.589 27.44C300.024 26.1387 302.691 24.176 304.589 21.552L312.653 24.976ZM316.941 46.224C316.472 44.496 316.003 43.0453 315.533 41.872C315.085 40.6773 314.413 39.4613 313.517 38.224C317.507 38.224 320.803 37.968 323.405 37.456C326.029 36.9227 328.28 36.0587 330.157 34.864C331.864 33.776 333.187 32.208 334.125 30.16C335.064 28.112 335.715 25.52 336.077 22.384C337.357 22.832 338.616 23.2267 339.853 23.568C341.112 23.888 342.648 24.2613 344.461 24.688C343.949 28.656 342.979 31.8773 341.549 34.352C340.141 36.8267 338.2 38.9387 335.725 40.688C333.507 42.2667 330.915 43.4827 327.949 44.336C324.984 45.1893 321.315 45.8187 316.941 46.224ZM326.285 33.168C323.64 32.1867 321.507 31.4613 319.885 30.992C318.264 30.5227 316.003 30 313.101 29.424C314.104 28.464 315.128 27.344 316.173 26.064C317.219 24.7627 317.987 23.6853 318.477 22.832C321.165 23.5787 323.565 24.304 325.677 25.008C327.789 25.712 329.923 26.512 332.077 27.408L326.285 33.168ZM376.429 39.504L375.213 39.728V46.096H368.333V40.976L360.717 42.352C360.675 40.7307 360.568 39.2053 360.397 37.776C359.928 39.1627 359.437 41.1893 358.925 43.856C358.072 42.32 357.347 41.1467 356.749 40.336V45.968H349.773V41.424C348.92 43.0667 347.907 44.3893 346.733 45.392C346.413 42.1067 345.933 39.4293 345.293 37.36C346.808 36.7627 348.173 35.7067 349.389 34.192H345.645V28.784H349.773V28.048C348.365 28.0907 347.299 28.112 346.573 28.112C346.509 26.8533 346.413 25.776 346.285 24.88C346.157 23.9627 345.923 23.0987 345.581 22.288H346.605C351.128 22.288 355.683 22.064 360.269 21.616C360.205 22.2773 360.173 22.9813 360.173 23.728C360.173 24.688 360.237 25.9573 360.365 27.536C358.637 27.664 357.432 27.7493 356.749 27.792V28.784H360.365L360.397 28.368C362.957 28.6027 365.304 29.0507 367.437 29.712L366.925 34.544C364.92 33.8827 362.787 33.52 360.525 33.456V34.192H357.485C358.189 34.6613 359.064 35.312 360.109 36.144L360.013 35.696L368.333 34.512V25.168L367.693 29.072C366.051 28.4533 363.789 27.888 360.909 27.376L361.869 22.576C363.555 22.9387 365.475 23.5147 367.629 24.304L368.333 24.56V21.712H375.213V33.52L376.173 33.392L376.429 39.504Z" fill="#292D28"/>
</svg>
