<svg width="172" height="64" viewBox="0 0 172 64" fill="none" xmlns="http://www.w3.org/2000/svg">
<rect width="172" height="64" fill="#292D28"/>
<path d="M52.312 36.936C52.9307 37.3413 53.816 37.8 54.968 38.312C54.2853 39.464 53.784 40.5093 53.464 41.448C53.144 42.3867 52.76 43.6667 52.312 45.288C50.8613 44.3493 49.5707 43.304 48.44 42.152C46.8187 43.3467 44.6213 44.392 41.848 45.288C41.72 43.9867 41.528 42.7813 41.272 41.672C41.016 40.5413 40.632 39.464 40.12 38.44C39.096 38.568 38.3813 38.6533 37.976 38.696C38.3813 39.3147 38.584 39.9973 38.584 40.744C38.584 42.0027 37.9333 43.016 36.632 43.784C35.3307 44.552 33.1867 44.936 30.2 44.936C28.8987 44.936 27.5333 44.8613 26.104 44.712C25.9547 43.496 25.8053 42.5147 25.656 41.768C25.528 41.0213 25.2613 40.3067 24.856 39.624C27.1387 40.008 28.888 40.2 30.104 40.2C30.8507 40.2 31.416 40.136 31.8 40.008C32.2053 39.88 32.408 39.6987 32.408 39.464V39.208C30.04 39.3573 27.672 39.4533 25.304 39.496L24.856 36.712C24.6853 36.776 24.3333 36.8827 23.8 37.032C23.672 35.7947 23.5333 34.792 23.384 34.024C23.2347 33.256 22.9787 32.4773 22.616 31.688C25.176 31.1333 27.32 30.4187 29.048 29.544H23.736V25.896H27.256V25.224H24.984V21.576H27.256V20.392H33.112V21.576H37.272V22.504L38.2 21.224L38.584 20.648L41.912 22.184C41.912 21.4587 41.9013 20.904 41.88 20.52H47.192L47.224 21.48H54.168V28.072H53.56C53.5173 29.928 53.4 31.5707 53.208 33C53.0373 34.4293 52.7387 35.7413 52.312 36.936ZM41.848 23.848C41.528 24.2747 40.9947 24.9573 40.248 25.896H40.6V28.808C41.3253 27.6347 41.7413 25.9813 41.848 23.848ZM34.968 25.224H33.112V25.896H34.296L34.968 25.224ZM47.896 32.36C48.0453 31.528 48.12 30.5147 48.12 29.32C48.12 28.7653 48.1093 28.3493 48.088 28.072H46.52L46.328 28.84C46.7973 30.2053 47.32 31.3787 47.896 32.36ZM37.016 29.544L35.864 30.664H39.8V33.384C39.5867 33.448 39.384 33.5547 39.192 33.704C39.0213 33.8533 38.9147 33.9387 38.872 33.96L37.56 34.952L41.56 34.472C41.0693 32.808 40.4827 31.2613 39.8 29.832L40.056 29.544H37.016ZM31.448 33.96C30.2747 34.6427 29.0587 35.2187 27.8 35.688C28.952 35.6667 30.1253 35.6027 31.32 35.496L30.936 34.856C31.064 34.8133 31.384 34.7173 31.896 34.568C32.408 34.3973 32.8987 34.1947 33.368 33.96H31.448ZM41.176 37.992C42.52 37.9707 43.7147 37.6827 44.76 37.128C44.44 36.5093 44.12 35.7947 43.8 34.984C43.352 35.688 42.84 36.36 42.264 37L41.784 35.24L41.176 37.992ZM80.536 38.12C81.7733 38.12 82.7867 38.0773 83.576 37.992C84.3653 37.9067 85.432 37.7253 86.776 37.448C86.456 38.28 86.2 39.1013 86.008 39.912C85.8373 40.7013 85.6667 41.6507 85.496 42.76C85.432 43.3147 85.3147 43.9973 85.144 44.808C83.2667 44.9787 81.336 45.064 79.352 45.064C77.3467 45.064 75.7147 44.7547 74.456 44.136C73.2187 43.5173 72.6 42.536 72.6 41.192V40.168C72.6 39.6773 72.5147 39.336 72.344 39.144C72.1947 38.952 71.8427 38.856 71.288 38.856C70.4133 38.856 69.1333 39.2933 67.448 40.168C65.7627 41.0427 63.5013 42.3333 60.664 44.04L58.648 45.224L55.736 38.216C61.6667 35.976 65.976 34.1947 68.664 32.872C68.152 32.9147 67.192 33.032 65.784 33.224C62.7333 33.6293 60.28 33.9067 58.424 34.056L57.752 27.304C65.0267 27.2613 70.7333 27.144 74.872 26.952C71.1813 26.6747 66.6373 26.4187 61.24 26.184L61.752 20.36C64.504 20.4453 67.2453 20.6053 69.976 20.84C72.728 21.0747 76.152 21.4053 80.248 21.832L79.8 26.632L81.048 26.536L82.04 31.912C79.5227 32.936 77.1227 34.0133 74.84 35.144C75.1173 35.1013 75.5013 35.08 75.992 35.08C77.144 35.08 78.0293 35.3253 78.648 35.816C79.288 36.2853 79.5653 36.9893 79.48 37.928C79.4587 38.0133 79.512 38.0667 79.64 38.088C79.7893 38.1093 80.088 38.12 80.536 38.12ZM111.48 27.464C109.56 27.5493 107.928 27.9653 106.584 28.712C105.24 29.4587 104.227 30.3973 103.544 31.528C102.883 32.6373 102.552 33.7893 102.552 34.984C102.552 35.624 102.691 36.1253 102.968 36.488C103.267 36.8507 103.864 37.128 104.76 37.32C105.656 37.512 107 37.608 108.792 37.608C110.776 37.608 113.005 37.5227 115.48 37.352C114.925 38.6107 114.573 39.784 114.424 40.872C114.296 41.9387 114.221 43.2293 114.2 44.744C113.603 44.7653 112.739 44.776 111.608 44.776C106.787 44.776 103.085 44.456 100.504 43.816C97.944 43.1547 96.216 42.2693 95.32 41.16C94.4453 40.0293 94.008 38.6 94.008 36.872C94.008 35.016 94.392 33.3307 95.16 31.816C95.928 30.28 97.0053 28.9253 98.392 27.752L88.76 29.224V21.8C90.4027 21.8 93.1973 21.7467 97.144 21.64L103.32 21.48C105.517 21.4373 107.544 21.384 109.4 21.32C111.256 21.2347 113.805 21.1067 117.048 20.936L117.144 27.464H111.48ZM139.128 20.04C139.128 21.4693 139.075 24.2107 138.968 28.264C138.925 28.904 138.904 29.3733 138.904 29.672C138.477 32.68 138.211 35.304 138.104 37.544H132.184C132.077 35.304 131.811 32.68 131.384 29.672L131.352 28.264C131.224 24.9787 131.16 22.2373 131.16 20.04H139.128ZM138.84 45.64H131.416V39.944H138.84V45.64Z" fill="white"/>
</svg>
