<svg width="231" height="56" viewBox="0 0 231 56" fill="none" xmlns="http://www.w3.org/2000/svg">
<rect y="15" width="231" height="41" fill="white"/>
<path d="M30.976 36.488C30.8053 35.016 30.4747 33.6613 29.984 32.424C29.4933 31.1653 28.7893 29.896 27.872 28.616C30.0053 28.7013 31.52 28.744 32.416 28.744C36.768 28.744 40.3307 28.3493 43.104 27.56C44.0213 27.304 44.608 27.0693 44.864 26.856C45.1413 26.6427 45.28 26.312 45.28 25.864C45.28 25.0747 44.864 24.4773 44.032 24.072C43.2213 23.6453 42.0373 23.432 40.48 23.432C38.7947 23.432 36.64 23.656 34.016 24.104C31.392 24.552 29.2053 25.0747 27.456 25.672L25.952 18.568C28.896 17.9493 31.68 17.4693 34.304 17.128C36.9493 16.7653 39.2 16.584 41.056 16.584C43.6587 16.584 45.888 16.9253 47.744 17.608C49.6213 18.2907 51.0507 19.2827 52.032 20.584C53.0347 21.8853 53.536 23.432 53.536 25.224C53.536 28.2107 52.5333 30.5253 50.528 32.168C48.544 33.7893 45.9307 34.8987 42.688 35.496C39.4453 36.0933 35.5413 36.424 30.976 36.488ZM80.48 19.464C78.56 19.5493 76.928 19.9653 75.584 20.712C74.24 21.4587 73.2267 22.3973 72.544 23.528C71.8827 24.6373 71.552 25.7893 71.552 26.984C71.552 27.624 71.6907 28.1253 71.968 28.488C72.2667 28.8507 72.864 29.128 73.76 29.32C74.656 29.512 76 29.608 77.792 29.608C79.776 29.608 82.0053 29.5227 84.48 29.352C83.9253 30.6107 83.5733 31.784 83.424 32.872C83.296 33.9387 83.2213 35.2293 83.2 36.744C82.6027 36.7653 81.7387 36.776 80.608 36.776C75.7867 36.776 72.0853 36.456 69.504 35.816C66.944 35.1547 65.216 34.2693 64.32 33.16C63.4453 32.0293 63.008 30.6 63.008 28.872C63.008 27.016 63.392 25.3307 64.16 23.816C64.928 22.28 66.0053 20.9253 67.392 19.752L57.76 21.224V13.8C59.4027 13.8 62.1973 13.7467 66.144 13.64L72.32 13.48C74.5173 13.4373 76.544 13.384 78.4 13.32C80.256 13.2347 82.8053 13.1067 86.048 12.936L86.144 19.464H80.48ZM105.856 20.456C104.576 20.584 102.603 20.7333 99.936 20.904C99.2533 23.8907 98.1973 26.6747 96.768 29.256C95.36 31.8373 93.664 34.088 91.68 36.008C91.2533 34.6427 90.688 33.2027 89.984 31.688C89.28 30.1733 88.6187 28.9787 88 28.104C89.1307 27.0587 90.0693 25.9813 90.816 24.872C91.5627 23.7413 92.16 22.4827 92.608 21.096C91.84 21.1173 90.6773 21.128 89.12 21.128V14.792C91.1467 14.792 92.6613 14.7813 93.664 14.76C93.7067 14.0773 93.728 13.5547 93.728 13.192H100.8C100.8 13.7893 100.789 14.2373 100.768 14.536C101.899 14.472 103.595 14.3333 105.856 14.12V18.92L107.456 13.512C111.893 14.088 115.936 14.8133 119.584 15.688L117.76 22.28C113.451 20.8293 109.483 19.9333 105.856 19.592V20.456ZM114.592 21.544V26.312C116.277 26.952 117.92 27.7627 119.52 28.744L117.408 35.848C116.341 34.8027 115.221 33.8213 114.048 32.904C112.96 35.7627 110.272 37.192 105.984 37.192C103.381 37.192 101.28 36.6267 99.68 35.496C98.08 34.344 97.28 32.68 97.28 30.504C97.28 29.2027 97.6427 28.0827 98.368 27.144C99.0933 26.2053 100.075 25.4907 101.312 25C102.549 24.5093 103.915 24.264 105.408 24.264C106.069 24.264 106.709 24.3067 107.328 24.392V21.544H114.592ZM107.328 29.512C106.731 29.4053 106.208 29.352 105.76 29.352C105.227 29.352 104.843 29.4053 104.608 29.512C104.373 29.6187 104.256 29.8 104.256 30.056C104.256 30.2907 104.416 30.5147 104.736 30.728C105.056 30.92 105.483 31.016 106.016 31.016C106.528 31.016 106.869 30.92 107.04 30.728C107.232 30.536 107.328 30.248 107.328 29.864V29.512ZM150.048 28.968H122.304V21.48H150.048V28.968ZM164.672 14.664C169.024 13.832 173.323 13.416 177.568 13.416C178.848 13.416 180.288 13.4693 181.888 13.576C181.888 15.0907 181.909 16.4027 181.952 17.512C181.995 18.6 182.101 19.6987 182.272 20.808C179.819 20.5093 177.568 20.36 175.52 20.36C172.235 20.36 168.747 20.744 165.056 21.512L164.672 14.664ZM154.496 36.776C154.112 34.9413 153.824 33.2133 153.632 31.592C153.461 29.9493 153.376 28.104 153.376 26.056C153.376 22.7067 153.643 18.632 154.176 13.832H162.336C161.696 19.1653 161.376 23.3253 161.376 26.312C161.376 28.2747 161.493 30.024 161.728 31.56C161.984 33.0747 162.368 34.5893 162.88 36.104L154.496 36.776ZM173.376 36.648C169.92 36.648 167.403 35.976 165.824 34.632C164.245 33.288 163.456 31.2293 163.456 28.456C163.456 27.6667 163.52 26.824 163.648 25.928C166.144 25.7147 168.384 25.0853 170.368 24.04C170.261 24.9573 170.208 25.6613 170.208 26.152C170.208 26.984 170.315 27.6133 170.528 28.04C170.763 28.4667 171.104 28.7547 171.552 28.904C172 29.0533 172.608 29.128 173.376 29.128C175.275 29.128 176.96 29.0747 178.432 28.968C179.925 28.84 181.664 28.5413 183.648 28.072C183.435 28.8613 183.264 30.0027 183.136 31.496C183.029 32.968 182.976 34.4933 182.976 36.072C181.227 36.3067 179.627 36.4667 178.176 36.552C176.725 36.616 175.125 36.648 173.376 36.648ZM201.088 11.656C203.115 11.656 204.981 11.9973 206.688 12.68C208.416 13.3627 209.781 14.312 210.784 15.528C211.787 16.744 212.288 18.1413 212.288 19.72C212.288 21 211.979 22.0987 211.36 23.016C210.741 23.9333 209.952 24.68 208.992 25.256L207.296 26.216C206.379 26.728 205.771 27.08 205.472 27.272C204.981 27.5707 204.64 27.9013 204.448 28.264C204.256 28.6267 204.16 29.0533 204.16 29.544H196.832C196.832 27.9227 197.216 26.568 197.984 25.48C198.752 24.3707 200.043 23.4107 201.856 22.6C202.667 22.2373 203.253 21.8427 203.616 21.416C204 20.968 204.192 20.4667 204.192 19.912C204.192 19.2933 203.893 18.76 203.296 18.312C202.72 17.864 201.984 17.64 201.088 17.64C199.872 17.64 198.923 17.9387 198.24 18.536C197.579 19.1333 197.248 19.976 197.248 21.064C197.248 21.4907 197.312 21.9813 197.44 22.536C195.733 22.0453 193.184 21.8 189.792 21.8C189.771 21.608 189.76 21.3413 189.76 21C189.76 19.208 190.229 17.608 191.168 16.2C192.128 14.7707 193.461 13.6613 195.168 12.872C196.896 12.0613 198.869 11.656 201.088 11.656ZM204.192 37.64H196.768V31.944H204.192V37.64Z" fill="#292D28"/>
</svg>
