<svg width="103" height="141" viewBox="0 0 103 141" fill="none" xmlns="http://www.w3.org/2000/svg">
<path d="M11.032 38.808H99.064V56.856H11.032V38.808ZM99.448 93.528V110.232H10.648V93.528H25.816L24.952 87.672L47.32 86.136L48.28 93.528H62.392L63.448 84.984H16.024V59.064H94.072V84.984H84.952L84.376 89.592L83.896 93.528H99.448ZM72.184 70.296H37.912V72.792H72.184V70.296Z" fill="#F69D4C"/>
<path d="M4.032 40.808H92.064V58.856H4.032V40.808ZM92.448 95.528V112.232H3.648V95.528H18.816L17.952 89.672L40.32 88.136L41.28 95.528H55.392L56.448 86.984H9.024V61.064H87.072V86.984H77.952L77.376 91.592L76.896 95.528H92.448ZM65.184 72.296H30.912V74.792H65.184V72.296Z" fill="#606C38"/>
</svg>
