<svg width="279" height="58" viewBox="0 0 279 58" fill="none" xmlns="http://www.w3.org/2000/svg">
<rect y="17" width="279" height="41" fill="white"/>
<path d="M39.32 28.264L40.984 13.768H48.792L44.504 37H34.68L32.504 24.04L29.976 37H20.568L16.28 13.768H24.088L25.72 28.072L28.28 13.768H36.824L39.32 28.264ZM66.9893 29H56.5573C56.7279 29.9387 57.1439 30.7067 57.8053 31.304C58.4879 31.88 59.4479 32.168 60.6853 32.168C61.5813 32.168 62.4239 31.9973 63.2133 31.656C64.0026 31.2933 64.6319 30.792 65.1013 30.152C66.5306 30.856 68.4293 31.6133 70.7973 32.424C70.1359 33.9173 68.9306 35.112 67.1813 36.008C65.4533 36.8827 63.1919 37.32 60.3973 37.32C56.7706 37.32 54.0826 36.488 52.3333 34.824C50.6053 33.1387 49.7413 30.9307 49.7413 28.2C49.7413 25.5333 50.6053 23.368 52.3333 21.704C54.0613 20.04 56.7493 19.208 60.3973 19.208C62.5733 19.208 64.4613 19.5707 66.0613 20.296C67.6613 21.0213 68.8879 22.0347 69.7413 23.336C70.5946 24.616 71.0213 26.088 71.0213 27.752C71.0213 28.3067 70.9999 28.7227 70.9573 29H66.9893ZM60.8453 24.04C59.7786 24.04 58.9039 24.2427 58.2213 24.648C57.5386 25.0533 57.0586 25.608 56.7812 26.312H64.3333C64.0773 25.6293 63.6613 25.0853 63.0853 24.68C62.5093 24.2533 61.7626 24.04 60.8453 24.04ZM87.1368 19.208C88.5661 19.208 89.8354 19.6453 90.9448 20.52C92.0754 21.3733 92.9501 22.5147 93.5688 23.944C94.1874 25.352 94.4968 26.856 94.4968 28.456C94.4968 30.0773 94.1874 31.5707 93.5688 32.936C92.9501 34.28 92.0861 35.3467 90.9768 36.136C89.8674 36.9253 88.6194 37.32 87.2328 37.32C85.6114 37.32 84.2034 36.9787 83.0088 36.296C81.8141 35.592 80.9181 34.4933 80.3208 33L79.3928 37H73.2488C73.3768 32.9893 73.4408 28.84 73.4408 24.552C73.4408 20.2213 73.3768 16.072 73.2488 12.104H80.4808L80.3848 16.04C80.2781 18.8133 80.2248 21.288 80.2248 23.464C80.8008 22.0133 81.6754 20.9467 82.8488 20.264C84.0434 19.56 85.4728 19.208 87.1368 19.208ZM83.8728 31.944C84.8968 31.944 85.7074 31.6027 86.3048 30.92C86.9021 30.2373 87.2008 29.352 87.2008 28.264C87.2008 27.2827 86.8701 26.4933 86.2088 25.896C85.5688 25.2773 84.7688 24.968 83.8088 24.968C83.3181 24.968 82.8061 25.0853 82.2728 25.32C81.7394 25.5333 81.2808 25.896 80.8968 26.408C80.5128 26.8987 80.3208 27.5173 80.3208 28.264C80.3208 29.5867 80.6194 30.536 81.2168 31.112C81.8141 31.6667 82.6994 31.944 83.8728 31.944ZM122.885 7.784C122.907 9.29866 122.725 10.7813 122.341 12.232L119.621 11.848C120.005 10.44 120.197 8.95733 120.197 7.4L122.885 7.784ZM126.437 8.264C126.459 9.77867 126.277 11.2613 125.893 12.712L123.173 12.328C123.536 10.92 123.728 9.43733 123.749 7.88L126.437 8.264ZM98.8853 13.416H124.613V19.048H98.8853V13.416ZM126.501 20.232V26.248H121.221C119.685 29.5547 117.371 32.0827 114.277 33.832C111.184 35.5813 107.067 36.68 101.925 37.128C101.456 35.8053 100.944 34.568 100.389 33.416C99.8346 32.264 99.0986 31.0693 98.1813 29.832C101.701 29.832 104.613 29.5547 106.917 29C109.221 28.424 111.013 27.5067 112.293 26.248H97.0613V20.232H126.501ZM154.661 13.928C154.683 14.0133 154.789 14.504 154.981 15.4H158.629V22.28H155.717C155.611 25.7147 154.704 28.4773 152.997 30.568C151.312 32.6587 149.115 34.216 146.405 35.24C143.696 36.2427 140.475 36.9787 136.741 37.448C135.973 35.912 135.173 34.536 134.341 33.32C133.531 32.0827 132.539 30.92 131.365 29.832C135.056 29.768 138.021 29.48 140.261 28.968C142.523 28.456 144.219 27.6667 145.349 26.6C146.501 25.512 147.173 24.072 147.365 22.28H140.549V27.592H132.229V22.28H128.933V15.4H132.229V12.616H140.549V15.4H146.757C146.651 14.8453 146.437 13.9173 146.117 12.616H153.157C153.371 11.5707 153.477 10.44 153.477 9.224L156.165 9.608C156.187 11.1227 156.005 12.6053 155.621 14.056L154.661 13.928ZM159.717 10.088C159.739 11.6027 159.557 13.0853 159.173 14.536L156.453 14.152C156.816 12.744 157.008 11.2613 157.029 9.704L159.717 10.088ZM191.653 15.976C190.203 17.896 188.763 19.4853 187.333 20.744C185.925 21.9813 184.24 23.1013 182.277 24.104V36.872H173.413V26.888C170.448 27.4213 166.661 27.848 162.053 28.168C161.883 26.504 161.68 25.064 161.445 23.848C161.232 22.632 160.848 21.3627 160.293 20.04C163.664 20.0613 166.64 19.9547 169.221 19.72C171.803 19.4853 173.925 19.0587 175.589 18.44C179.024 17.1387 181.691 15.176 183.589 12.552L191.653 15.976ZM195.941 37.224C195.472 35.496 195.003 34.0453 194.533 32.872C194.085 31.6773 193.413 30.4613 192.517 29.224C196.507 29.224 199.803 28.968 202.405 28.456C205.029 27.9227 207.28 27.0587 209.157 25.864C210.864 24.776 212.187 23.208 213.125 21.16C214.064 19.112 214.715 16.52 215.077 13.384C216.357 13.832 217.616 14.2267 218.853 14.568C220.112 14.888 221.648 15.2613 223.461 15.688C222.949 19.656 221.979 22.8773 220.549 25.352C219.141 27.8267 217.2 29.9387 214.725 31.688C212.507 33.2667 209.915 34.4827 206.949 35.336C203.984 36.1893 200.315 36.8187 195.941 37.224ZM205.285 24.168C202.64 23.1867 200.507 22.4613 198.885 21.992C197.264 21.5227 195.003 21 192.101 20.424C193.104 19.464 194.128 18.344 195.173 17.064C196.219 15.7627 196.987 14.6853 197.477 13.832C200.165 14.5787 202.565 15.304 204.677 16.008C206.789 16.712 208.923 17.512 211.077 18.408L205.285 24.168ZM239.813 12.712C242.629 12.712 245.168 13.2453 247.429 14.312C249.691 15.3573 251.461 16.808 252.741 18.664C254.043 20.52 254.693 22.6 254.693 24.904C254.693 27.0373 254.203 28.9893 253.221 30.76C252.24 32.5093 250.864 33.96 249.093 35.112C247.344 36.264 245.328 37.0213 243.045 37.384C242.064 35.656 240.773 34.2267 239.173 33.096C238.384 34.12 237.467 34.8667 236.421 35.336C235.376 35.8053 234.16 36.04 232.773 36.04C230.128 36.04 228.048 35.272 226.533 33.736C225.04 32.1787 224.293 30.0453 224.293 27.336C224.293 24.6267 224.976 22.1627 226.341 19.944C227.707 17.704 229.573 15.944 231.941 14.664C234.309 13.3627 236.933 12.712 239.813 12.712ZM240.357 31.112C242.619 30.664 244.219 29.9173 245.157 28.872C246.096 27.8267 246.565 26.408 246.565 24.616C246.565 22.0987 245.392 20.4027 243.045 19.528C242.747 22.1733 242.373 24.4453 241.925 26.344C241.499 28.2213 240.976 29.8107 240.357 31.112ZM233.189 28.392C233.637 28.392 233.989 28.1893 234.245 27.784C234.523 27.3573 234.789 26.5467 235.045 25.352C235.301 24.136 235.6 22.2373 235.941 19.656C234.619 20.2107 233.584 21.0533 232.837 22.184C232.091 23.3147 231.717 24.6267 231.717 26.12C231.717 27.6347 232.208 28.392 233.189 28.392Z" fill="#292D28"/>
</svg>
