<svg width="82" height="21" viewBox="0 0 82 21" fill="none" xmlns="http://www.w3.org/2000/svg">
<path d="M0.664062 0.285156H3.34766L12.3945 8.78125L21.6875 0.285156H24.2773V19H16.5781V12.9297L11.7969 18.1797L7.14453 13.0703V19H0.664062V0.285156ZM36.6758 8.60547C36.6758 7.91797 36.3555 7.57422 35.7148 7.57422C34.9805 7.64453 34.5039 8.02344 34.2852 8.71094C34.1758 9.03906 34.0977 9.42188 34.0508 9.85938C34.0117 10.2891 33.9492 10.75 33.8633 11.2422L36.4297 10.668L36.6523 8.875L36.6758 8.60547ZM35.0938 13.9375C35.0938 13.9375 34.8789 13.9375 34.4492 13.9375C34.2461 13.9375 34.0508 13.9297 33.8633 13.9141C33.8633 14.8438 34.3594 15.3516 35.3516 15.4375C35.625 15.4609 35.8906 15.4727 36.1484 15.4727C36.8125 15.4727 37.6445 15.3203 38.6445 15.0156C39.6523 14.7109 40.5547 14.2148 41.3516 13.5273L42.0781 17.1719C40.3359 18.6797 37.7031 19.4336 34.1797 19.4336C32.1562 19.4336 30.418 18.8438 28.9648 17.6641C27.3867 16.375 26.5977 14.5898 26.5977 12.3086C26.5977 10.5898 27.043 9.04688 27.9336 7.67969C28.7617 6.42969 29.8828 5.48047 31.2969 4.83203C32.7109 4.18359 34.2383 3.85938 35.8789 3.85938C38.0039 3.85938 39.6094 4.32422 40.6953 5.25391C41.7891 6.18359 42.332 7.33203 42.3242 8.69922C42.3242 10.0664 41.6719 11.2812 40.3672 12.3438C39.0625 13.4062 37.3047 13.9375 35.0938 13.9375ZM52.6953 8.39453C52.0703 8.39453 51.7578 8.89844 51.7578 9.90625V19H44.7969V4.43359H48.6406L50.3164 6.70703C50.9414 5.83984 51.8047 5.15234 52.9062 4.64453C54.0156 4.13672 55.0508 3.88281 56.0117 3.88281C57.7773 3.88281 59.1758 4.35156 60.207 5.28906C61.2461 6.22656 61.7656 7.48438 61.7656 9.0625V19H54.7578V11.9688C54.7578 9.58594 54.0703 8.39453 52.6953 8.39453ZM71.4219 11.2188C71.4219 13.7812 72.043 15.0625 73.2852 15.0625C73.9102 15.0625 74.2734 14.7578 74.375 14.1484C74.4062 13.9609 74.4219 13.7539 74.4219 13.5273V4.43359H81.3828V19H77.5391L75.8633 16.7148C74.8711 18.0664 73.4375 18.9453 71.5625 19.3516C69.2656 19.8438 67.4141 19.4531 66.0078 18.1797C64.9453 17.2188 64.4141 15.9492 64.4141 14.3711V4.43359H71.4219V11.2188Z" fill="#606C38"/>
</svg>
