<svg width="55" height="195" viewBox="0 0 55 195" fill="none" xmlns="http://www.w3.org/2000/svg">
<rect y="8" width="42" height="187" fill="white"/>
<path d="M44.1373 28.172L46.0093 11.864H54.7933L49.9693 38H38.9173L36.4693 23.42L33.6253 38H23.0413L18.2173 11.864H27.0013L28.8373 27.956L31.7173 11.864H41.3293L44.1373 28.172ZM30.8266 75.412C39.9466 75.364 46.5586 75.232 50.6626 75.016C50.4946 76 50.3866 77.02 50.3386 78.076C50.3146 79.108 50.3026 80.416 50.3026 82H22.3306C22.5226 77.344 22.6186 72.988 22.6186 68.932C22.6186 64.876 22.5226 60.52 22.3306 55.864H50.3026V62.38H30.8266V65.836C31.9786 65.86 33.6826 65.872 35.9386 65.872C39.7546 65.872 43.7026 65.8 47.7826 65.656V71.848C43.7026 71.704 39.7546 71.632 35.9386 71.632C33.6826 71.632 31.9786 71.644 30.8266 71.668V75.412ZM42.952 113.004C48.424 113.004 51.16 114.744 51.16 118.224C51.16 119.856 50.788 121.248 50.044 122.4C49.3 123.528 47.968 124.416 46.048 125.064C44.128 125.688 41.464 126 38.056 126H21.856C22.048 121.344 22.144 116.988 22.144 112.932C22.144 108.876 22.048 104.52 21.856 99.864H30.316V99.9H37.984C40.96 99.9 43.3 100.152 45.004 100.656C46.732 101.136 47.944 101.844 48.64 102.78C49.36 103.716 49.72 104.904 49.72 106.344C49.72 107.808 49.204 109.116 48.172 110.268C47.164 111.396 45.424 112.308 42.952 113.004ZM30.316 106.452V109.8H37.228C38.716 109.8 39.748 109.668 40.324 109.404C40.924 109.14 41.224 108.66 41.224 107.964C41.224 107.412 40.912 107.028 40.288 106.812C39.688 106.572 38.668 106.452 37.228 106.452H30.316ZM37.228 119.412C38.476 119.412 39.424 119.364 40.072 119.268C40.744 119.148 41.224 118.956 41.512 118.692C41.8 118.404 41.944 118.02 41.944 117.54C41.944 116.916 41.596 116.472 40.9 116.208C40.228 115.92 39.004 115.776 37.228 115.776H30.316V119.412H37.228ZM20.012 142.928H53.024V149.696H20.012L20.012 142.928ZM53.168 163.448V169.712H19.868V163.448H25.556L25.232 161.252L33.62 160.676L33.98 163.448H39.272L39.668 160.244H21.884V150.524H51.152V160.244H47.732L47.516 161.972L47.336 163.448H53.168ZM42.944 154.736H30.092V155.672H42.944V154.736Z" fill="#292D28"/>
</svg>
