<svg width="48" height="166" viewBox="0 0 48 166" fill="none" xmlns="http://www.w3.org/2000/svg">
<rect y="16" width="37" height="150" fill="white"/>
<path d="M47.14 29.108C46.876 29.972 46.66 31.544 46.492 33.824L46.384 35.012C45.808 34.916 44.788 34.76 43.324 34.544L43.216 34.868C43 35.54 42.736 36.056 42.424 36.416C42.136 36.752 41.632 37.028 40.912 37.244C40.192 37.46 39.1 37.628 37.636 37.748C34.924 37.988 30.436 38.132 24.172 38.18C23.86 37.028 23.176 35.636 22.12 34.004L23.092 34.04C24.052 34.064 25.372 34.112 27.052 34.184C28.756 34.232 30.028 34.256 30.868 34.256C32.188 34.256 33.16 34.208 33.784 34.112C34.432 34.016 34.888 33.848 35.152 33.608C31.888 33.416 27.508 33.32 22.012 33.32C21.724 34.376 21.46 35.252 21.22 35.948L12.4 35.336C13.528 32.912 14.344 30.56 14.848 28.28H13.048V22.16H15.532C15.58 21.296 15.604 20.624 15.604 20.144L12.076 19.784C13.204 17.72 13.996 15.992 14.452 14.6C14.908 13.184 15.244 11.72 15.46 10.208L23.596 10.244L23.488 10.964H45.844V16.508H22.048C21.976 16.676 21.904 16.844 21.832 17.012C21.76 17.156 21.7 17.3 21.652 17.444H44.944V20.612V22.16H46.744V28.28H44.548C44.548 28.424 44.524 28.64 44.476 28.928C45.124 28.952 46.012 29.012 47.14 29.108ZM23.164 21.944L23.092 22.988H26.872C26.872 22.532 26.884 22.184 26.908 21.944H23.164ZM33.496 21.944C33.448 22.424 33.424 22.772 33.424 22.988H37.096V21.944H33.496ZM22.516 27.38C22.492 27.668 22.432 28.016 22.336 28.424H26.26L26.44 27.38H22.516ZM36.664 28.604C36.76 28.004 36.82 27.596 36.844 27.38H32.992L32.884 28.496L36.664 28.604ZM13.444 81.676L13.444 55.576H45.556V81.676H36.844V81.28H22.156V81.676H13.444ZM36.844 64.72V62.38H22.156V64.72H36.844ZM22.156 71.164V73.648H36.844V71.164H22.156ZM29.536 98.676C32.704 98.676 35.56 99.276 38.104 100.476C40.648 101.652 42.64 103.284 44.08 105.372C45.544 107.46 46.276 109.8 46.276 112.392C46.276 114.792 45.724 116.988 44.62 118.98C43.516 120.948 41.968 122.58 39.976 123.876C38.008 125.172 35.74 126.024 33.172 126.432C32.068 124.488 30.616 122.88 28.816 121.608C27.928 122.76 26.896 123.6 25.72 124.128C24.544 124.656 23.176 124.92 21.616 124.92C18.64 124.92 16.3 124.056 14.596 122.328C12.916 120.576 12.076 118.176 12.076 115.128C12.076 112.08 12.844 109.308 14.38 106.812C15.916 104.292 18.016 102.312 20.68 100.872C23.344 99.408 26.296 98.676 29.536 98.676ZM30.148 119.376C32.692 118.872 34.492 118.032 35.548 116.856C36.604 115.68 37.132 114.084 37.132 112.068C37.132 109.236 35.812 107.328 33.172 106.344C32.836 109.32 32.416 111.876 31.912 114.012C31.432 116.124 30.844 117.912 30.148 119.376ZM22.084 116.316C22.588 116.316 22.984 116.088 23.272 115.632C23.584 115.152 23.884 114.24 24.172 112.896C24.46 111.528 24.796 109.392 25.18 106.488C23.692 107.112 22.528 108.06 21.688 109.332C20.848 110.604 20.428 112.08 20.428 113.76C20.428 115.464 20.98 116.316 22.084 116.316Z" fill="#292D28"/>
</svg>
