<svg width="189" height="64" viewBox="0 0 189 64" fill="none" xmlns="http://www.w3.org/2000/svg">
<rect width="189" height="64" fill="white"/>
<path d="M46.32 37.264L47.984 22.768H55.792L51.504 46H41.68L39.504 33.04L36.976 46H27.568L23.28 22.768H31.088L32.72 37.072L35.28 22.768H43.824L46.32 37.264ZM73.9893 38H63.5573C63.7279 38.9387 64.1439 39.7067 64.8053 40.304C65.4879 40.88 66.4479 41.168 67.6853 41.168C68.5813 41.168 69.4239 40.9973 70.2133 40.656C71.0026 40.2933 71.6319 39.792 72.1013 39.152C73.5306 39.856 75.4293 40.6133 77.7973 41.424C77.1359 42.9173 75.9306 44.112 74.1813 45.008C72.4533 45.8827 70.1919 46.32 67.3973 46.32C63.7706 46.32 61.0826 45.488 59.3333 43.824C57.6053 42.1387 56.7413 39.9307 56.7413 37.2C56.7413 34.5333 57.6053 32.368 59.3333 30.704C61.0613 29.04 63.7493 28.208 67.3973 28.208C69.5733 28.208 71.4613 28.5707 73.0613 29.296C74.6613 30.0213 75.8879 31.0347 76.7413 32.336C77.5946 33.616 78.0213 35.088 78.0213 36.752C78.0213 37.3067 77.9999 37.7227 77.9573 38H73.9893ZM67.8453 33.04C66.7786 33.04 65.9039 33.2427 65.2213 33.648C64.5386 34.0533 64.0586 34.608 63.7812 35.312H71.3333C71.0773 34.6293 70.6613 34.0853 70.0853 33.68C69.5093 33.2533 68.7626 33.04 67.8453 33.04ZM94.1368 28.208C95.5661 28.208 96.8354 28.6453 97.9448 29.52C99.0754 30.3733 99.9501 31.5147 100.569 32.944C101.187 34.352 101.497 35.856 101.497 37.456C101.497 39.0773 101.187 40.5707 100.569 41.936C99.9501 43.28 99.0861 44.3467 97.9768 45.136C96.8674 45.9253 95.6194 46.32 94.2328 46.32C92.6114 46.32 91.2034 45.9787 90.0088 45.296C88.8141 44.592 87.9181 43.4933 87.3208 42L86.3928 46H80.2488C80.3768 41.9893 80.4408 37.84 80.4408 33.552C80.4408 29.2213 80.3768 25.072 80.2488 21.104H87.4808L87.3848 25.04C87.2781 27.8133 87.2248 30.288 87.2248 32.464C87.8008 31.0133 88.6754 29.9467 89.8488 29.264C91.0434 28.56 92.4728 28.208 94.1368 28.208ZM90.8728 40.944C91.8968 40.944 92.7074 40.6027 93.3048 39.92C93.9021 39.2373 94.2008 38.352 94.2008 37.264C94.2008 36.2827 93.8701 35.4933 93.2088 34.896C92.5688 34.2773 91.7688 33.968 90.8088 33.968C90.3181 33.968 89.8061 34.0853 89.2728 34.32C88.7394 34.5333 88.2808 34.896 87.8968 35.408C87.5128 35.8987 87.3208 36.5173 87.3208 37.264C87.3208 38.5867 87.6194 39.536 88.2168 40.112C88.8141 40.6667 89.6994 40.944 90.8728 40.944ZM104.125 21.936H133.469V27.952H104.125V21.936ZM133.597 40.176V45.744H103.997V40.176H109.053L108.765 38.224L116.221 37.712L116.541 40.176H121.245L121.597 37.328H105.789V28.688H131.805V37.328H128.765L128.573 38.864L128.413 40.176H133.597ZM124.509 32.432H113.085V33.264H124.509V32.432ZM154.909 21.04C154.909 22.4693 154.856 25.2107 154.749 29.264C154.707 29.904 154.685 30.3733 154.685 30.672C154.259 33.68 153.992 36.304 153.885 38.544H147.965C147.859 36.304 147.592 33.68 147.165 30.672L147.133 29.264C147.005 25.9787 146.941 23.2373 146.941 21.04H154.909ZM154.621 46.64H147.197V40.944H154.621V46.64Z" fill="black"/>
</svg>
