<svg width="528" height="660" viewBox="0 0 528 660" fill="none" xmlns="http://www.w3.org/2000/svg">
<circle cx="66" cy="66" r="66" fill="#D9D9D9" fill-opacity="0.4"/>
<circle cx="198" cy="66" r="66" fill="#A4BE4D" fill-opacity="0.7"/>
<circle cx="330" cy="66" r="66" fill="#D9D9D9" fill-opacity="0.4"/>
<circle cx="462" cy="66" r="66" fill="#D9D9D9" fill-opacity="0.4"/>
<circle cx="66" cy="198" r="66" fill="#D9D9D9" fill-opacity="0.4"/>
<circle cx="198" cy="198" r="66" fill="#D9D9D9" fill-opacity="0.4"/>
<circle cx="330" cy="198" r="66" fill="#D9D9D9" fill-opacity="0.4"/>
<circle cx="462" cy="198" r="66" fill="#606C38" fill-opacity="0.7"/>
<circle cx="66" cy="330" r="66" fill="#F69D4C" fill-opacity="0.8"/>
<circle cx="198" cy="330" r="66" fill="#D9D9D9" fill-opacity="0.4"/>
<circle cx="330" cy="330" r="66" fill="#D9D9D9" fill-opacity="0.4"/>
<circle cx="462" cy="330" r="66" fill="#D9D9D9" fill-opacity="0.4"/>
<circle cx="66" cy="462" r="66" fill="#D9D9D9" fill-opacity="0.4"/>
<circle cx="198" cy="462" r="66" fill="#D9D9D9" fill-opacity="0.4"/>
<circle cx="330" cy="462" r="66" fill="#A4BE4D" fill-opacity="0.7"/>
<circle cx="462" cy="462" r="66" fill="#D9D9D9" fill-opacity="0.4"/>
<circle cx="66" cy="594" r="66" fill="#D9D9D9" fill-opacity="0.4"/>
<circle cx="198" cy="594" r="66" fill="#606C38" fill-opacity="0.7"/>
<circle cx="330" cy="594" r="66" fill="#D9D9D9" fill-opacity="0.4"/>
<circle cx="462" cy="594" r="66" fill="#D9D9D9" fill-opacity="0.4"/>
</svg>
