<svg width="158" height="64" viewBox="0 0 158 64" fill="none" xmlns="http://www.w3.org/2000/svg">
<rect width="158" height="64" fill="#292D28"/>
<path d="M50.36 23.056C52.216 23.76 54.2 24.2933 56.312 24.656C58.424 25.0187 60.5787 25.1787 62.776 25.136C62.584 26.1387 62.392 27.2907 62.2 28.592C62.0293 29.8933 61.9013 31.056 61.816 32.08C59.768 31.8453 57.6773 31.4187 55.544 30.8V32.752H38.456V30.928C36.2373 31.632 34.1147 32.016 32.088 32.08C32.0667 31.0773 31.9813 29.9147 31.832 28.592C31.704 27.2693 31.5547 26.1173 31.384 25.136C31.5973 25.1573 31.9493 25.168 32.44 25.168C33.6773 25.168 35.0107 25.072 36.44 24.88C37.8907 24.688 39.1493 24.4 40.216 24.016C41.176 23.6747 41.8693 23.312 42.296 22.928C42.744 22.5227 43.0107 22 43.096 21.36H51C50.808 22 50.5947 22.5653 50.36 23.056ZM49.56 28.528C48.4293 27.9947 47.416 27.4507 46.52 26.896C45.688 27.4933 44.8453 28.0373 43.992 28.528H49.56ZM33.976 33.392H58.2L60.728 38.16C58.808 40.5707 56.6853 42.32 54.36 43.408C52.0347 44.496 49.496 45.1787 46.744 45.456C44.0133 45.712 40.152 45.84 35.16 45.84C35.0107 44.4747 34.7867 43.3227 34.488 42.384C34.1893 41.424 33.624 40.4853 32.792 39.568C35.736 39.6747 38.0507 39.728 39.736 39.728C42.7013 39.728 45.0587 39.6213 46.808 39.408C48.5787 39.1947 49.9333 38.8853 50.872 38.48H33.976V33.392ZM64.728 45.712V22.512H93.272V45.712H85.528V45.36H72.472V45.712H64.728ZM85.528 30.64V28.56H72.472V30.64H85.528ZM72.472 36.368V38.576H85.528V36.368H72.472ZM111.032 21.712C113.848 21.712 116.387 22.2453 118.648 23.312C120.909 24.3573 122.68 25.808 123.96 27.664C125.261 29.52 125.912 31.6 125.912 33.904C125.912 36.0373 125.421 37.9893 124.44 39.76C123.459 41.5093 122.083 42.96 120.312 44.112C118.563 45.264 116.547 46.0213 114.264 46.384C113.283 44.656 111.992 43.2267 110.392 42.096C109.603 43.12 108.685 43.8667 107.64 44.336C106.595 44.8053 105.379 45.04 103.992 45.04C101.347 45.04 99.2667 44.272 97.752 42.736C96.2587 41.1787 95.512 39.0453 95.512 36.336C95.512 33.6267 96.1947 31.1627 97.56 28.944C98.9253 26.704 100.792 24.944 103.16 23.664C105.528 22.3627 108.152 21.712 111.032 21.712ZM111.576 40.112C113.837 39.664 115.437 38.9173 116.376 37.872C117.315 36.8267 117.784 35.408 117.784 33.616C117.784 31.0987 116.611 29.4027 114.264 28.528C113.965 31.1733 113.592 33.4453 113.144 35.344C112.717 37.2213 112.195 38.8107 111.576 40.112ZM104.408 37.392C104.856 37.392 105.208 37.1893 105.464 36.784C105.741 36.3573 106.008 35.5467 106.264 34.352C106.52 33.136 106.819 31.2373 107.16 28.656C105.837 29.2107 104.803 30.0533 104.056 31.184C103.309 32.3147 102.936 33.6267 102.936 35.12C102.936 36.6347 103.427 37.392 104.408 37.392Z" fill="white"/>
</svg>
